<?xml version="1.0" encoding="utf-8" standalone="no"?>
<!DOCTYPE svg PUBLIC "-//W3C//DTD SVG 1.1//EN"
  "http://www.w3.org/Graphics/SVG/1.1/DTD/svg11.dtd">
<!-- Created with matplotlib (https://matplotlib.org/) -->
<svg height="345.6pt" version="1.1" viewBox="0 0 460.8 345.6" width="460.8pt" xmlns="http://www.w3.org/2000/svg" xmlns:xlink="http://www.w3.org/1999/xlink">
 <defs>
  <style type="text/css">
*{stroke-linecap:butt;stroke-linejoin:round;}
  </style>
 </defs>
 <g id="figure_1">
  <g id="patch_1">
   <path d="M 0 345.6 
L 460.8 345.6 
L 460.8 0 
L 0 0 
z
" style="fill:#ffffff;"/>
  </g>
  <g id="axes_1">
   <g id="patch_2">
    <path d="M 78.336 293.76 
L 391.68 293.76 
L 391.68 41.472 
L 78.336 41.472 
z
" style="fill:#ffffff;"/>
   </g>
   <g id="matplotlib.axis_1">
    <g id="xtick_1">
     <g id="line2d_1">
      <defs>
       <path d="M 0 0 
L 0 12 
" id="mbe7002f0aa" style="stroke:#000000;stroke-width:1.5;"/>
      </defs>
      <g>
       <use style="stroke:#000000;stroke-width:1.5;" x="92.578909" xlink:href="#mbe7002f0aa" y="293.76"/>
      </g>
     </g>
     <g id="text_1">
      <!-- −3 -->
      <defs>
       <path d="M 10.59375 35.5 
L 73.1875 35.5 
L 73.1875 27.203125 
L 10.59375 27.203125 
z
" id="DejaVuSans-8722"/>
       <path d="M 40.578125 39.3125 
Q 47.65625 37.796875 51.625 33 
Q 55.609375 28.21875 55.609375 21.1875 
Q 55.609375 10.40625 48.1875 4.484375 
Q 40.765625 -1.421875 27.09375 -1.421875 
Q 22.515625 -1.421875 17.65625 -0.515625 
Q 12.796875 0.390625 7.625 2.203125 
L 7.625 11.71875 
Q 11.71875 9.328125 16.59375 8.109375 
Q 21.484375 6.890625 26.8125 6.890625 
Q 36.078125 6.890625 40.9375 10.546875 
Q 45.796875 14.203125 45.796875 21.1875 
Q 45.796875 27.640625 41.28125 31.265625 
Q 36.765625 34.90625 28.71875 34.90625 
L 20.21875 34.90625 
L 20.21875 43.015625 
L 29.109375 43.015625 
Q 36.375 43.015625 40.234375 45.921875 
Q 44.09375 48.828125 44.09375 54.296875 
Q 44.09375 59.90625 40.109375 62.90625 
Q 36.140625 65.921875 28.71875 65.921875 
Q 24.65625 65.921875 20.015625 65.03125 
Q 15.375 64.15625 9.8125 62.3125 
L 9.8125 71.09375 
Q 15.4375 72.65625 20.34375 73.4375 
Q 25.25 74.21875 29.59375 74.21875 
Q 40.828125 74.21875 47.359375 69.109375 
Q 53.90625 64.015625 53.90625 55.328125 
Q 53.90625 49.265625 50.4375 45.09375 
Q 46.96875 40.921875 40.578125 39.3125 
z
" id="DejaVuSans-51"/>
      </defs>
      <g transform="translate(82.259378 319.897812)scale(0.14 -0.14)">
       <use xlink:href="#DejaVuSans-8722"/>
       <use x="83.789062" xlink:href="#DejaVuSans-51"/>
      </g>
     </g>
    </g>
    <g id="xtick_2">
     <g id="line2d_2">
      <g>
       <use style="stroke:#000000;stroke-width:1.5;" x="140.055273" xlink:href="#mbe7002f0aa" y="293.76"/>
      </g>
     </g>
     <g id="text_2">
      <!-- −2 -->
      <defs>
       <path d="M 19.1875 8.296875 
L 53.609375 8.296875 
L 53.609375 0 
L 7.328125 0 
L 7.328125 8.296875 
Q 12.9375 14.109375 22.625 23.890625 
Q 32.328125 33.6875 34.8125 36.53125 
Q 39.546875 41.84375 41.421875 45.53125 
Q 43.3125 49.21875 43.3125 52.78125 
Q 43.3125 58.59375 39.234375 62.25 
Q 35.15625 65.921875 28.609375 65.921875 
Q 23.96875 65.921875 18.8125 64.3125 
Q 13.671875 62.703125 7.8125 59.421875 
L 7.8125 69.390625 
Q 13.765625 71.78125 18.9375 73 
Q 24.125 74.21875 28.421875 74.21875 
Q 39.75 74.21875 46.484375 68.546875 
Q 53.21875 62.890625 53.21875 53.421875 
Q 53.21875 48.921875 51.53125 44.890625 
Q 49.859375 40.875 45.40625 35.40625 
Q 44.1875 33.984375 37.640625 27.21875 
Q 31.109375 20.453125 19.1875 8.296875 
z
" id="DejaVuSans-50"/>
      </defs>
      <g transform="translate(129.735741 319.897812)scale(0.14 -0.14)">
       <use xlink:href="#DejaVuSans-8722"/>
       <use x="83.789062" xlink:href="#DejaVuSans-50"/>
      </g>
     </g>
    </g>
    <g id="xtick_3">
     <g id="line2d_3">
      <g>
       <use style="stroke:#000000;stroke-width:1.5;" x="187.531636" xlink:href="#mbe7002f0aa" y="293.76"/>
      </g>
     </g>
     <g id="text_3">
      <!-- −1 -->
      <defs>
       <path d="M 12.40625 8.296875 
L 28.515625 8.296875 
L 28.515625 63.921875 
L 10.984375 60.40625 
L 10.984375 69.390625 
L 28.421875 72.90625 
L 38.28125 72.90625 
L 38.28125 8.296875 
L 54.390625 8.296875 
L 54.390625 0 
L 12.40625 0 
z
" id="DejaVuSans-49"/>
      </defs>
      <g transform="translate(177.212105 319.897812)scale(0.14 -0.14)">
       <use xlink:href="#DejaVuSans-8722"/>
       <use x="83.789062" xlink:href="#DejaVuSans-49"/>
      </g>
     </g>
    </g>
    <g id="xtick_4">
     <g id="line2d_4">
      <g>
       <use style="stroke:#000000;stroke-width:1.5;" x="235.008" xlink:href="#mbe7002f0aa" y="293.76"/>
      </g>
     </g>
     <g id="text_4">
      <!-- 0 -->
      <defs>
       <path d="M 31.78125 66.40625 
Q 24.171875 66.40625 20.328125 58.90625 
Q 16.5 51.421875 16.5 36.375 
Q 16.5 21.390625 20.328125 13.890625 
Q 24.171875 6.390625 31.78125 6.390625 
Q 39.453125 6.390625 43.28125 13.890625 
Q 47.125 21.390625 47.125 36.375 
Q 47.125 51.421875 43.28125 58.90625 
Q 39.453125 66.40625 31.78125 66.40625 
z
M 31.78125 74.21875 
Q 44.046875 74.21875 50.515625 64.515625 
Q 56.984375 54.828125 56.984375 36.375 
Q 56.984375 17.96875 50.515625 8.265625 
Q 44.046875 -1.421875 31.78125 -1.421875 
Q 19.53125 -1.421875 13.0625 8.265625 
Q 6.59375 17.96875 6.59375 36.375 
Q 6.59375 54.828125 13.0625 64.515625 
Q 19.53125 74.21875 31.78125 74.21875 
z
" id="DejaVuSans-48"/>
      </defs>
      <g transform="translate(230.55425 319.897812)scale(0.14 -0.14)">
       <use xlink:href="#DejaVuSans-48"/>
      </g>
     </g>
    </g>
    <g id="xtick_5">
     <g id="line2d_5">
      <g>
       <use style="stroke:#000000;stroke-width:1.5;" x="282.484364" xlink:href="#mbe7002f0aa" y="293.76"/>
      </g>
     </g>
     <g id="text_5">
      <!-- 1 -->
      <g transform="translate(278.030614 319.897812)scale(0.14 -0.14)">
       <use xlink:href="#DejaVuSans-49"/>
      </g>
     </g>
    </g>
    <g id="xtick_6">
     <g id="line2d_6">
      <g>
       <use style="stroke:#000000;stroke-width:1.5;" x="329.960727" xlink:href="#mbe7002f0aa" y="293.76"/>
      </g>
     </g>
     <g id="text_6">
      <!-- 2 -->
      <g transform="translate(325.506977 319.897812)scale(0.14 -0.14)">
       <use xlink:href="#DejaVuSans-50"/>
      </g>
     </g>
    </g>
    <g id="xtick_7">
     <g id="line2d_7">
      <g>
       <use style="stroke:#000000;stroke-width:1.5;" x="377.437091" xlink:href="#mbe7002f0aa" y="293.76"/>
      </g>
     </g>
     <g id="text_7">
      <!-- 3 -->
      <g transform="translate(372.983341 319.897812)scale(0.14 -0.14)">
       <use xlink:href="#DejaVuSans-51"/>
      </g>
     </g>
    </g>
   </g>
   <g id="matplotlib.axis_2">
    <g id="ytick_1">
     <g id="line2d_8">
      <defs>
       <path d="M 0 0 
L -12 0 
" id="m95d338821b" style="stroke:#000000;stroke-width:1.5;"/>
      </defs>
      <g>
       <use style="stroke:#000000;stroke-width:1.5;" x="78.336" xlink:href="#m95d338821b" y="283.885091"/>
      </g>
     </g>
     <g id="text_8">
      <!-- 0.0 -->
      <defs>
       <path d="M 10.6875 12.40625 
L 21 12.40625 
L 21 0 
L 10.6875 0 
z
" id="DejaVuSans-46"/>
      </defs>
      <g transform="translate(40.571625 289.203997)scale(0.14 -0.14)">
       <use xlink:href="#DejaVuSans-48"/>
       <use x="63.623047" xlink:href="#DejaVuSans-46"/>
       <use x="95.410156" xlink:href="#DejaVuSans-48"/>
      </g>
     </g>
    </g>
    <g id="ytick_2">
     <g id="line2d_9">
      <g>
       <use style="stroke:#000000;stroke-width:1.5;" x="78.336" xlink:href="#m95d338821b" y="255.016909"/>
      </g>
     </g>
     <g id="text_9">
      <!-- 0.5 -->
      <defs>
       <path d="M 10.796875 72.90625 
L 49.515625 72.90625 
L 49.515625 64.59375 
L 19.828125 64.59375 
L 19.828125 46.734375 
Q 21.96875 47.46875 24.109375 47.828125 
Q 26.265625 48.1875 28.421875 48.1875 
Q 40.625 48.1875 47.75 41.5 
Q 54.890625 34.8125 54.890625 23.390625 
Q 54.890625 11.625 47.5625 5.09375 
Q 40.234375 -1.421875 26.90625 -1.421875 
Q 22.3125 -1.421875 17.546875 -0.640625 
Q 12.796875 0.140625 7.71875 1.703125 
L 7.71875 11.625 
Q 12.109375 9.234375 16.796875 8.0625 
Q 21.484375 6.890625 26.703125 6.890625 
Q 35.15625 6.890625 40.078125 11.328125 
Q 45.015625 15.765625 45.015625 23.390625 
Q 45.015625 31 40.078125 35.4375 
Q 35.15625 39.890625 26.703125 39.890625 
Q 22.75 39.890625 18.8125 39.015625 
Q 14.890625 38.140625 10.796875 36.28125 
z
" id="DejaVuSans-53"/>
      </defs>
      <g transform="translate(40.571625 260.335815)scale(0.14 -0.14)">
       <use xlink:href="#DejaVuSans-48"/>
       <use x="63.623047" xlink:href="#DejaVuSans-46"/>
       <use x="95.410156" xlink:href="#DejaVuSans-53"/>
      </g>
     </g>
    </g>
    <g id="ytick_3">
     <g id="line2d_10">
      <g>
       <use style="stroke:#000000;stroke-width:1.5;" x="78.336" xlink:href="#m95d338821b" y="226.148727"/>
      </g>
     </g>
     <g id="text_10">
      <!-- 1.0 -->
      <g transform="translate(40.571625 231.467634)scale(0.14 -0.14)">
       <use xlink:href="#DejaVuSans-49"/>
       <use x="63.623047" xlink:href="#DejaVuSans-46"/>
       <use x="95.410156" xlink:href="#DejaVuSans-48"/>
      </g>
     </g>
    </g>
    <g id="ytick_4">
     <g id="line2d_11">
      <g>
       <use style="stroke:#000000;stroke-width:1.5;" x="78.336" xlink:href="#m95d338821b" y="197.280545"/>
      </g>
     </g>
     <g id="text_11">
      <!-- 1.5 -->
      <g transform="translate(40.571625 202.599452)scale(0.14 -0.14)">
       <use xlink:href="#DejaVuSans-49"/>
       <use x="63.623047" xlink:href="#DejaVuSans-46"/>
       <use x="95.410156" xlink:href="#DejaVuSans-53"/>
      </g>
     </g>
    </g>
    <g id="ytick_5">
     <g id="line2d_12">
      <g>
       <use style="stroke:#000000;stroke-width:1.5;" x="78.336" xlink:href="#m95d338821b" y="168.412364"/>
      </g>
     </g>
     <g id="text_12">
      <!-- 2.0 -->
      <g transform="translate(40.571625 173.73127)scale(0.14 -0.14)">
       <use xlink:href="#DejaVuSans-50"/>
       <use x="63.623047" xlink:href="#DejaVuSans-46"/>
       <use x="95.410156" xlink:href="#DejaVuSans-48"/>
      </g>
     </g>
    </g>
    <g id="ytick_6">
     <g id="line2d_13">
      <g>
       <use style="stroke:#000000;stroke-width:1.5;" x="78.336" xlink:href="#m95d338821b" y="139.544182"/>
      </g>
     </g>
     <g id="text_13">
      <!-- 2.5 -->
      <g transform="translate(40.571625 144.863088)scale(0.14 -0.14)">
       <use xlink:href="#DejaVuSans-50"/>
       <use x="63.623047" xlink:href="#DejaVuSans-46"/>
       <use x="95.410156" xlink:href="#DejaVuSans-53"/>
      </g>
     </g>
    </g>
    <g id="ytick_7">
     <g id="line2d_14">
      <g>
       <use style="stroke:#000000;stroke-width:1.5;" x="78.336" xlink:href="#m95d338821b" y="110.676"/>
      </g>
     </g>
     <g id="text_14">
      <!-- 3.0 -->
      <g transform="translate(40.571625 115.994906)scale(0.14 -0.14)">
       <use xlink:href="#DejaVuSans-51"/>
       <use x="63.623047" xlink:href="#DejaVuSans-46"/>
       <use x="95.410156" xlink:href="#DejaVuSans-48"/>
      </g>
     </g>
    </g>
    <g id="ytick_8">
     <g id="line2d_15">
      <g>
       <use style="stroke:#000000;stroke-width:1.5;" x="78.336" xlink:href="#m95d338821b" y="81.807818"/>
      </g>
     </g>
     <g id="text_15">
      <!-- 3.5 -->
      <g transform="translate(40.571625 87.126724)scale(0.14 -0.14)">
       <use xlink:href="#DejaVuSans-51"/>
       <use x="63.623047" xlink:href="#DejaVuSans-46"/>
       <use x="95.410156" xlink:href="#DejaVuSans-53"/>
      </g>
     </g>
    </g>
    <g id="ytick_9">
     <g id="line2d_16">
      <g>
       <use style="stroke:#000000;stroke-width:1.5;" x="78.336" xlink:href="#m95d338821b" y="52.939636"/>
      </g>
     </g>
     <g id="text_16">
      <!-- 4.0 -->
      <defs>
       <path d="M 37.796875 64.3125 
L 12.890625 25.390625 
L 37.796875 25.390625 
z
M 35.203125 72.90625 
L 47.609375 72.90625 
L 47.609375 25.390625 
L 58.015625 25.390625 
L 58.015625 17.1875 
L 47.609375 17.1875 
L 47.609375 0 
L 37.796875 0 
L 37.796875 17.1875 
L 4.890625 17.1875 
L 4.890625 26.703125 
z
" id="DejaVuSans-52"/>
      </defs>
      <g transform="translate(40.571625 58.258543)scale(0.14 -0.14)">
       <use xlink:href="#DejaVuSans-52"/>
       <use x="63.623047" xlink:href="#DejaVuSans-46"/>
       <use x="95.410156" xlink:href="#DejaVuSans-48"/>
      </g>
     </g>
    </g>
   </g>
   <g id="line2d_17">
    <path clip-path="url(#p7038e8cb07)" d="M 92.578909 282.292364 
L 94.952727 282.238304 
L 97.326545 282.181451 
L 99.700364 282.12161 
L 102.074182 282.058569 
L 104.448 281.992095 
L 106.821818 281.921937 
L 109.195636 281.847816 
L 111.569455 281.769431 
L 113.943273 281.686448 
L 116.317091 281.598502 
L 118.690909 281.505191 
L 121.064727 281.406071 
L 123.438545 281.300652 
L 125.812364 281.18839 
L 128.186182 281.068683 
L 130.56 280.94086 
L 132.933818 280.804175 
L 135.307636 280.657793 
L 137.681455 280.500779 
L 140.055273 280.332084 
L 142.429091 280.150527 
L 144.802909 279.954773 
L 147.176727 279.743314 
L 149.550545 279.514435 
L 151.924364 279.266182 
L 154.298182 278.996322 
L 156.672 278.702293 
L 159.045818 278.381148 
L 161.419636 278.029476 
L 163.793455 277.643322 
L 166.167273 277.218074 
L 168.541091 276.748334 
L 170.914909 276.227748 
L 173.288727 275.648805 
L 175.662545 275.002573 
L 178.036364 274.278375 
L 180.410182 273.463365 
L 182.784 272.541994 
L 185.157818 271.495313 
L 187.531636 270.300064 
L 189.905455 268.927484 
L 192.279273 267.34172 
L 194.653091 265.497714 
L 197.026909 263.338342 
L 199.400727 260.790545 
L 201.774545 257.760039 
L 204.148364 254.124079 
L 206.522182 249.721562 
L 208.896 244.339636 
L 211.269818 237.696 
L 213.643636 229.416823 
L 216.017455 219.012772 
L 218.391273 205.862978 
L 220.765091 189.235314 
L 223.138909 168.412364 
L 225.512727 143.064692 
L 227.886545 114.072257 
L 230.260364 84.794182 
L 232.634182 61.822154 
L 235.008 52.939636 
L 237.381818 61.822154 
L 239.755636 84.794182 
L 242.129455 114.072257 
L 244.503273 143.064692 
L 246.877091 168.412364 
L 249.250909 189.235314 
L 251.624727 205.862978 
L 253.998545 219.012772 
L 256.372364 229.416823 
L 258.746182 237.696 
L 261.12 244.339636 
L 263.493818 249.721562 
L 265.867636 254.124079 
L 268.241455 257.760039 
L 270.615273 260.790545 
L 272.989091 263.338342 
L 275.362909 265.497714 
L 277.736727 267.34172 
L 280.110545 268.927484 
L 282.484364 270.300064 
L 284.858182 271.495313 
L 287.232 272.541994 
L 289.605818 273.463365 
L 291.979636 274.278375 
L 294.353455 275.002573 
L 296.727273 275.648805 
L 299.101091 276.227748 
L 301.474909 276.748334 
L 303.848727 277.218074 
L 306.222545 277.643322 
L 308.596364 278.029476 
L 310.970182 278.381148 
L 313.344 278.702293 
L 315.717818 278.996322 
L 318.091636 279.266182 
L 320.465455 279.514435 
L 322.839273 279.743314 
L 325.213091 279.954773 
L 327.586909 280.150527 
L 329.960727 280.332084 
L 332.334545 280.500779 
L 334.708364 280.657793 
L 337.082182 280.804175 
L 339.456 280.94086 
L 341.829818 281.068683 
L 344.203636 281.18839 
L 346.577455 281.300652 
L 348.951273 281.406071 
L 351.325091 281.505191 
L 353.698909 281.598502 
L 356.072727 281.686448 
L 358.446545 281.769431 
L 360.820364 281.847816 
L 363.194182 281.921937 
L 365.568 281.992095 
L 367.941818 282.058569 
L 370.315636 282.12161 
L 372.689455 282.181451 
L 375.063273 282.238304 
L 377.437091 282.292364 
" style="fill:none;stroke:#1f77b4;stroke-linecap:square;stroke-width:1.5;"/>
   </g>
   <g id="line2d_18">
    <path clip-path="url(#p7038e8cb07)" d="M 92.578909 280.764206 
L 94.952727 280.660496 
L 97.326545 280.551583 
L 99.700364 280.437115 
L 102.074182 280.316712 
L 104.448 280.189964 
L 106.821818 280.05642 
L 109.195636 279.915592 
L 111.569455 279.766948 
L 113.943273 279.609907 
L 116.317091 279.443832 
L 118.690909 279.268029 
L 121.064727 279.081733 
L 123.438545 278.884107 
L 125.812364 278.674228 
L 128.186182 278.45108 
L 130.56 278.213542 
L 132.933818 277.960374 
L 135.307636 277.690202 
L 137.681455 277.401502 
L 140.055273 277.092578 
L 142.429091 276.761542 
L 144.802909 276.406287 
L 147.176727 276.024456 
L 149.550545 275.613406 
L 151.924364 275.170168 
L 154.298182 274.691402 
L 156.672 274.173339 
L 159.045818 273.611717 
L 161.419636 273.001705 
L 163.793455 272.337818 
L 166.167273 271.613813 
L 168.541091 270.822565 
L 170.914909 269.955932 
L 173.288727 269.004585 
L 175.662545 267.957818 
L 178.036364 266.803327 
L 180.410182 265.526947 
L 182.784 264.112364 
L 185.157818 262.540779 
L 187.531636 260.790545 
L 189.905455 258.836777 
L 192.279273 256.650957 
L 194.653091 254.200585 
L 197.026909 251.448932 
L 199.400727 248.355021 
L 201.774545 244.874034 
L 204.148364 240.958426 
L 206.522182 236.560203 
L 208.896 231.634988 
L 211.269818 226.148727 
L 213.643636 220.088004 
L 216.017455 213.474891 
L 218.391273 206.386616 
L 220.765091 198.978674 
L 223.138909 191.506909 
L 225.512727 184.339636 
L 227.886545 177.946809 
L 230.260364 172.853622 
L 232.634182 169.555658 
L 235.008 168.412364 
L 237.381818 169.555658 
L 239.755636 172.853622 
L 242.129455 177.946809 
L 244.503273 184.339636 
L 246.877091 191.506909 
L 249.250909 198.978674 
L 251.624727 206.386616 
L 253.998545 213.474891 
L 256.372364 220.088004 
L 258.746182 226.148727 
L 261.12 231.634988 
L 263.493818 236.560203 
L 265.867636 240.958426 
L 268.241455 244.874034 
L 270.615273 248.355021 
L 272.989091 251.448932 
L 275.362909 254.200585 
L 277.736727 256.650957 
L 280.110545 258.836777 
L 282.484364 260.790545 
L 284.858182 262.540779 
L 287.232 264.112364 
L 289.605818 265.526947 
L 291.979636 266.803327 
L 294.353455 267.957818 
L 296.727273 269.004585 
L 299.101091 269.955932 
L 301.474909 270.822565 
L 303.848727 271.613813 
L 306.222545 272.337818 
L 308.596364 273.001705 
L 310.970182 273.611717 
L 313.344 274.173339 
L 315.717818 274.691402 
L 318.091636 275.170168 
L 320.465455 275.613406 
L 322.839273 276.024456 
L 325.213091 276.406287 
L 327.586909 276.761542 
L 329.960727 277.092578 
L 332.334545 277.401502 
L 334.708364 277.690202 
L 337.082182 277.960374 
L 339.456 278.213542 
L 341.829818 278.45108 
L 344.203636 278.674228 
L 346.577455 278.884107 
L 348.951273 279.081733 
L 351.325091 279.268029 
L 353.698909 279.443832 
L 356.072727 279.609907 
L 358.446545 279.766948 
L 360.820364 279.915592 
L 363.194182 280.05642 
L 365.568 280.189964 
L 367.941818 280.316712 
L 370.315636 280.437115 
L 372.689455 280.551583 
L 375.063273 280.660496 
L 377.437091 280.764206 
" style="fill:none;stroke:#ff7f0e;stroke-linecap:square;stroke-width:1.5;"/>
   </g>
   <g id="line2d_19">
    <path clip-path="url(#p7038e8cb07)" d="M 92.578909 278.111455 
L 94.952727 277.934422 
L 97.326545 277.749452 
L 99.700364 277.556084 
L 102.074182 277.353828 
L 104.448 277.142158 
L 106.821818 276.920511 
L 109.195636 276.688286 
L 111.569455 276.444838 
L 113.943273 276.189474 
L 116.317091 275.921455 
L 118.690909 275.639984 
L 121.064727 275.344209 
L 123.438545 275.033215 
L 125.812364 274.706019 
L 128.186182 274.361567 
L 130.56 273.998727 
L 132.933818 273.616285 
L 135.307636 273.212935 
L 137.681455 272.78728 
L 140.055273 272.337818 
L 142.429091 271.862943 
L 144.802909 271.360934 
L 147.176727 270.829949 
L 149.550545 270.268024 
L 151.924364 269.673063 
L 154.298182 269.042838 
L 156.672 268.374987 
L 159.045818 267.667011 
L 161.419636 266.916285 
L 163.793455 266.120056 
L 166.167273 265.275465 
L 168.541091 264.379563 
L 170.914909 263.429338 
L 173.288727 262.421759 
L 175.662545 261.353827 
L 178.036364 260.222647 
L 180.410182 259.025516 
L 182.784 257.760039 
L 185.157818 256.424276 
L 187.531636 255.016909 
L 189.905455 253.537462 
L 192.279273 251.986547 
L 194.653091 250.366157 
L 197.026909 248.679991 
L 199.400727 246.933818 
L 201.774545 245.135854 
L 204.148364 243.297138 
L 206.522182 241.431882 
L 208.896 239.557748 
L 211.269818 237.696 
L 213.643636 235.871483 
L 216.017455 234.112364 
L 218.391273 232.449578 
L 220.765091 230.91595 
L 223.138909 229.544984 
L 225.512727 228.369357 
L 227.886545 227.41921 
L 230.260364 226.720374 
L 232.634182 226.292708 
L 235.008 226.148727 
L 237.381818 226.292708 
L 239.755636 226.720374 
L 242.129455 227.41921 
L 244.503273 228.369357 
L 246.877091 229.544984 
L 249.250909 230.91595 
L 251.624727 232.449578 
L 253.998545 234.112364 
L 256.372364 235.871483 
L 258.746182 237.696 
L 261.12 239.557748 
L 263.493818 241.431882 
L 265.867636 243.297138 
L 268.241455 245.135854 
L 270.615273 246.933818 
L 272.989091 248.679991 
L 275.362909 250.366157 
L 277.736727 251.986547 
L 280.110545 253.537462 
L 282.484364 255.016909 
L 284.858182 256.424276 
L 287.232 257.760039 
L 289.605818 259.025516 
L 291.979636 260.222647 
L 294.353455 261.353827 
L 296.727273 262.421759 
L 299.101091 263.429338 
L 301.474909 264.379563 
L 303.848727 265.275465 
L 306.222545 266.120056 
L 308.596364 266.916285 
L 310.970182 267.667011 
L 313.344 268.374987 
L 315.717818 269.042838 
L 318.091636 269.673063 
L 320.465455 270.268024 
L 322.839273 270.829949 
L 325.213091 271.360934 
L 327.586909 271.862943 
L 329.960727 272.337818 
L 332.334545 272.78728 
L 334.708364 273.212935 
L 337.082182 273.616285 
L 339.456 273.998727 
L 341.829818 274.361567 
L 344.203636 274.706019 
L 346.577455 275.033215 
L 348.951273 275.344209 
L 351.325091 275.639984 
L 353.698909 275.921455 
L 356.072727 276.189474 
L 358.446545 276.444838 
L 360.820364 276.688286 
L 363.194182 276.920511 
L 365.568 277.142158 
L 367.941818 277.353828 
L 370.315636 277.556084 
L 372.689455 277.749452 
L 375.063273 277.934422 
L 377.437091 278.111455 
" style="fill:none;stroke:#2ca02c;stroke-linecap:square;stroke-width:1.5;"/>
   </g>
   <g id="patch_3">
    <path d="M 78.336 293.76 
L 78.336 41.472 
" style="fill:none;stroke:#000000;stroke-linecap:square;stroke-linejoin:miter;stroke-width:1.5;"/>
   </g>
   <g id="patch_4">
    <path d="M 391.68 293.76 
L 391.68 41.472 
" style="fill:none;stroke:#000000;stroke-linecap:square;stroke-linejoin:miter;stroke-width:1.5;"/>
   </g>
   <g id="patch_5">
    <path d="M 78.336 293.76 
L 391.68 293.76 
" style="fill:none;stroke:#000000;stroke-linecap:square;stroke-linejoin:miter;stroke-width:1.5;"/>
   </g>
   <g id="patch_6">
    <path d="M 78.336 41.472 
L 391.68 41.472 
" style="fill:none;stroke:#000000;stroke-linecap:square;stroke-linejoin:miter;stroke-width:1.5;"/>
   </g>
   <g id="legend_1">
    <g id="patch_7">
     <path d="M 314.815625 114.320125 
L 381.88 114.320125 
Q 384.68 114.320125 384.68 111.520125 
L 384.68 51.272 
Q 384.68 48.472 381.88 48.472 
L 314.815625 48.472 
Q 312.015625 48.472 312.015625 51.272 
L 312.015625 111.520125 
Q 312.015625 114.320125 314.815625 114.320125 
z
" style="fill:none;opacity:0;"/>
    </g>
    <g id="line2d_20">
     <path d="M 317.615625 59.809812 
L 345.615625 59.809812 
" style="fill:none;stroke:#1f77b4;stroke-linecap:square;stroke-width:1.5;"/>
    </g>
    <g id="line2d_21"/>
    <g id="text_17">
     <!-- 0.5 -->
     <g transform="translate(356.815625 64.709812)scale(0.14 -0.14)">
      <use xlink:href="#DejaVuSans-48"/>
      <use x="63.623047" xlink:href="#DejaVuSans-46"/>
      <use x="95.410156" xlink:href="#DejaVuSans-53"/>
     </g>
    </g>
    <g id="line2d_22">
     <path d="M 317.615625 80.359187 
L 345.615625 80.359187 
" style="fill:none;stroke:#ff7f0e;stroke-linecap:square;stroke-width:1.5;"/>
    </g>
    <g id="line2d_23"/>
    <g id="text_18">
     <!-- 1.0 -->
     <g transform="translate(356.815625 85.259187)scale(0.14 -0.14)">
      <use xlink:href="#DejaVuSans-49"/>
      <use x="63.623047" xlink:href="#DejaVuSans-46"/>
      <use x="95.410156" xlink:href="#DejaVuSans-48"/>
     </g>
    </g>
    <g id="line2d_24">
     <path d="M 317.615625 100.908562 
L 345.615625 100.908562 
" style="fill:none;stroke:#2ca02c;stroke-linecap:square;stroke-width:1.5;"/>
    </g>
    <g id="line2d_25"/>
    <g id="text_19">
     <!-- 2.0 -->
     <g transform="translate(356.815625 105.808562)scale(0.14 -0.14)">
      <use xlink:href="#DejaVuSans-50"/>
      <use x="63.623047" xlink:href="#DejaVuSans-46"/>
      <use x="95.410156" xlink:href="#DejaVuSans-48"/>
     </g>
    </g>
   </g>
  </g>
 </g>
 <defs>
  <clipPath id="p7038e8cb07">
   <rect height="252.288" width="313.344" x="78.336" y="41.472"/>
  </clipPath>
 </defs>
</svg>
