<?xml version="1.0" encoding="utf-8" standalone="no"?>
<!DOCTYPE svg PUBLIC "-//W3C//DTD SVG 1.1//EN"
  "http://www.w3.org/Graphics/SVG/1.1/DTD/svg11.dtd">
<!-- Created with matplotlib (https://matplotlib.org/) -->
<svg height="345.6pt" version="1.1" viewBox="0 0 460.8 345.6" width="460.8pt" xmlns="http://www.w3.org/2000/svg" xmlns:xlink="http://www.w3.org/1999/xlink">
 <defs>
  <style type="text/css">
*{stroke-linecap:butt;stroke-linejoin:round;}
  </style>
 </defs>
 <g id="figure_1">
  <g id="patch_1">
   <path d="M 0 345.6 
L 460.8 345.6 
L 460.8 0 
L 0 0 
z
" style="fill:#ffffff;"/>
  </g>
  <g id="axes_1">
   <g id="patch_2">
    <path d="M 78.336 293.76 
L 391.68 293.76 
L 391.68 41.472 
L 78.336 41.472 
z
" style="fill:#ffffff;"/>
   </g>
   <g id="matplotlib.axis_1">
    <g id="xtick_1">
     <g id="line2d_1">
      <defs>
       <path d="M 0 0 
L 0 12 
" id="m3a89591cb5" style="stroke:#000000;stroke-width:1.5;"/>
      </defs>
      <g>
       <use style="stroke:#000000;stroke-width:1.5;" x="92.578909" xlink:href="#m3a89591cb5" y="293.76"/>
      </g>
     </g>
     <g id="text_1">
      <!-- −3 -->
      <defs>
       <path d="M 10.59375 35.5 
L 73.1875 35.5 
L 73.1875 27.203125 
L 10.59375 27.203125 
z
" id="DejaVuSans-8722"/>
       <path d="M 40.578125 39.3125 
Q 47.65625 37.796875 51.625 33 
Q 55.609375 28.21875 55.609375 21.1875 
Q 55.609375 10.40625 48.1875 4.484375 
Q 40.765625 -1.421875 27.09375 -1.421875 
Q 22.515625 -1.421875 17.65625 -0.515625 
Q 12.796875 0.390625 7.625 2.203125 
L 7.625 11.71875 
Q 11.71875 9.328125 16.59375 8.109375 
Q 21.484375 6.890625 26.8125 6.890625 
Q 36.078125 6.890625 40.9375 10.546875 
Q 45.796875 14.203125 45.796875 21.1875 
Q 45.796875 27.640625 41.28125 31.265625 
Q 36.765625 34.90625 28.71875 34.90625 
L 20.21875 34.90625 
L 20.21875 43.015625 
L 29.109375 43.015625 
Q 36.375 43.015625 40.234375 45.921875 
Q 44.09375 48.828125 44.09375 54.296875 
Q 44.09375 59.90625 40.109375 62.90625 
Q 36.140625 65.921875 28.71875 65.921875 
Q 24.65625 65.921875 20.015625 65.03125 
Q 15.375 64.15625 9.8125 62.3125 
L 9.8125 71.09375 
Q 15.4375 72.65625 20.34375 73.4375 
Q 25.25 74.21875 29.59375 74.21875 
Q 40.828125 74.21875 47.359375 69.109375 
Q 53.90625 64.015625 53.90625 55.328125 
Q 53.90625 49.265625 50.4375 45.09375 
Q 46.96875 40.921875 40.578125 39.3125 
z
" id="DejaVuSans-51"/>
      </defs>
      <g transform="translate(82.259378 319.897812)scale(0.14 -0.14)">
       <use xlink:href="#DejaVuSans-8722"/>
       <use x="83.789062" xlink:href="#DejaVuSans-51"/>
      </g>
     </g>
    </g>
    <g id="xtick_2">
     <g id="line2d_2">
      <g>
       <use style="stroke:#000000;stroke-width:1.5;" x="140.055273" xlink:href="#m3a89591cb5" y="293.76"/>
      </g>
     </g>
     <g id="text_2">
      <!-- −2 -->
      <defs>
       <path d="M 19.1875 8.296875 
L 53.609375 8.296875 
L 53.609375 0 
L 7.328125 0 
L 7.328125 8.296875 
Q 12.9375 14.109375 22.625 23.890625 
Q 32.328125 33.6875 34.8125 36.53125 
Q 39.546875 41.84375 41.421875 45.53125 
Q 43.3125 49.21875 43.3125 52.78125 
Q 43.3125 58.59375 39.234375 62.25 
Q 35.15625 65.921875 28.609375 65.921875 
Q 23.96875 65.921875 18.8125 64.3125 
Q 13.671875 62.703125 7.8125 59.421875 
L 7.8125 69.390625 
Q 13.765625 71.78125 18.9375 73 
Q 24.125 74.21875 28.421875 74.21875 
Q 39.75 74.21875 46.484375 68.546875 
Q 53.21875 62.890625 53.21875 53.421875 
Q 53.21875 48.921875 51.53125 44.890625 
Q 49.859375 40.875 45.40625 35.40625 
Q 44.1875 33.984375 37.640625 27.21875 
Q 31.109375 20.453125 19.1875 8.296875 
z
" id="DejaVuSans-50"/>
      </defs>
      <g transform="translate(129.735741 319.897812)scale(0.14 -0.14)">
       <use xlink:href="#DejaVuSans-8722"/>
       <use x="83.789062" xlink:href="#DejaVuSans-50"/>
      </g>
     </g>
    </g>
    <g id="xtick_3">
     <g id="line2d_3">
      <g>
       <use style="stroke:#000000;stroke-width:1.5;" x="187.531636" xlink:href="#m3a89591cb5" y="293.76"/>
      </g>
     </g>
     <g id="text_3">
      <!-- −1 -->
      <defs>
       <path d="M 12.40625 8.296875 
L 28.515625 8.296875 
L 28.515625 63.921875 
L 10.984375 60.40625 
L 10.984375 69.390625 
L 28.421875 72.90625 
L 38.28125 72.90625 
L 38.28125 8.296875 
L 54.390625 8.296875 
L 54.390625 0 
L 12.40625 0 
z
" id="DejaVuSans-49"/>
      </defs>
      <g transform="translate(177.212105 319.897812)scale(0.14 -0.14)">
       <use xlink:href="#DejaVuSans-8722"/>
       <use x="83.789062" xlink:href="#DejaVuSans-49"/>
      </g>
     </g>
    </g>
    <g id="xtick_4">
     <g id="line2d_4">
      <g>
       <use style="stroke:#000000;stroke-width:1.5;" x="235.008" xlink:href="#m3a89591cb5" y="293.76"/>
      </g>
     </g>
     <g id="text_4">
      <!-- 0 -->
      <defs>
       <path d="M 31.78125 66.40625 
Q 24.171875 66.40625 20.328125 58.90625 
Q 16.5 51.421875 16.5 36.375 
Q 16.5 21.390625 20.328125 13.890625 
Q 24.171875 6.390625 31.78125 6.390625 
Q 39.453125 6.390625 43.28125 13.890625 
Q 47.125 21.390625 47.125 36.375 
Q 47.125 51.421875 43.28125 58.90625 
Q 39.453125 66.40625 31.78125 66.40625 
z
M 31.78125 74.21875 
Q 44.046875 74.21875 50.515625 64.515625 
Q 56.984375 54.828125 56.984375 36.375 
Q 56.984375 17.96875 50.515625 8.265625 
Q 44.046875 -1.421875 31.78125 -1.421875 
Q 19.53125 -1.421875 13.0625 8.265625 
Q 6.59375 17.96875 6.59375 36.375 
Q 6.59375 54.828125 13.0625 64.515625 
Q 19.53125 74.21875 31.78125 74.21875 
z
" id="DejaVuSans-48"/>
      </defs>
      <g transform="translate(230.55425 319.897812)scale(0.14 -0.14)">
       <use xlink:href="#DejaVuSans-48"/>
      </g>
     </g>
    </g>
    <g id="xtick_5">
     <g id="line2d_5">
      <g>
       <use style="stroke:#000000;stroke-width:1.5;" x="282.484364" xlink:href="#m3a89591cb5" y="293.76"/>
      </g>
     </g>
     <g id="text_5">
      <!-- 1 -->
      <g transform="translate(278.030614 319.897812)scale(0.14 -0.14)">
       <use xlink:href="#DejaVuSans-49"/>
      </g>
     </g>
    </g>
    <g id="xtick_6">
     <g id="line2d_6">
      <g>
       <use style="stroke:#000000;stroke-width:1.5;" x="329.960727" xlink:href="#m3a89591cb5" y="293.76"/>
      </g>
     </g>
     <g id="text_6">
      <!-- 2 -->
      <g transform="translate(325.506977 319.897812)scale(0.14 -0.14)">
       <use xlink:href="#DejaVuSans-50"/>
      </g>
     </g>
    </g>
    <g id="xtick_7">
     <g id="line2d_7">
      <g>
       <use style="stroke:#000000;stroke-width:1.5;" x="377.437091" xlink:href="#m3a89591cb5" y="293.76"/>
      </g>
     </g>
     <g id="text_7">
      <!-- 3 -->
      <g transform="translate(372.983341 319.897812)scale(0.14 -0.14)">
       <use xlink:href="#DejaVuSans-51"/>
      </g>
     </g>
    </g>
   </g>
   <g id="matplotlib.axis_2">
    <g id="ytick_1">
     <g id="line2d_8">
      <defs>
       <path d="M 0 0 
L -12 0 
" id="mac0679b310" style="stroke:#000000;stroke-width:1.5;"/>
      </defs>
      <g>
       <use style="stroke:#000000;stroke-width:1.5;" x="78.336" xlink:href="#mac0679b310" y="282.391909"/>
      </g>
     </g>
     <g id="text_8">
      <!-- 0.0 -->
      <defs>
       <path d="M 10.6875 12.40625 
L 21 12.40625 
L 21 0 
L 10.6875 0 
z
" id="DejaVuSans-46"/>
      </defs>
      <g transform="translate(40.571625 287.710815)scale(0.14 -0.14)">
       <use xlink:href="#DejaVuSans-48"/>
       <use x="63.623047" xlink:href="#DejaVuSans-46"/>
       <use x="95.410156" xlink:href="#DejaVuSans-48"/>
      </g>
     </g>
    </g>
    <g id="ytick_2">
     <g id="line2d_9">
      <g>
       <use style="stroke:#000000;stroke-width:1.5;" x="78.336" xlink:href="#mac0679b310" y="236.501455"/>
      </g>
     </g>
     <g id="text_9">
      <!-- 0.2 -->
      <g transform="translate(40.571625 241.820361)scale(0.14 -0.14)">
       <use xlink:href="#DejaVuSans-48"/>
       <use x="63.623047" xlink:href="#DejaVuSans-46"/>
       <use x="95.410156" xlink:href="#DejaVuSans-50"/>
      </g>
     </g>
    </g>
    <g id="ytick_3">
     <g id="line2d_10">
      <g>
       <use style="stroke:#000000;stroke-width:1.5;" x="78.336" xlink:href="#mac0679b310" y="190.611"/>
      </g>
     </g>
     <g id="text_10">
      <!-- 0.4 -->
      <defs>
       <path d="M 37.796875 64.3125 
L 12.890625 25.390625 
L 37.796875 25.390625 
z
M 35.203125 72.90625 
L 47.609375 72.90625 
L 47.609375 25.390625 
L 58.015625 25.390625 
L 58.015625 17.1875 
L 47.609375 17.1875 
L 47.609375 0 
L 37.796875 0 
L 37.796875 17.1875 
L 4.890625 17.1875 
L 4.890625 26.703125 
z
" id="DejaVuSans-52"/>
      </defs>
      <g transform="translate(40.571625 195.929906)scale(0.14 -0.14)">
       <use xlink:href="#DejaVuSans-48"/>
       <use x="63.623047" xlink:href="#DejaVuSans-46"/>
       <use x="95.410156" xlink:href="#DejaVuSans-52"/>
      </g>
     </g>
    </g>
    <g id="ytick_4">
     <g id="line2d_11">
      <g>
       <use style="stroke:#000000;stroke-width:1.5;" x="78.336" xlink:href="#mac0679b310" y="144.720545"/>
      </g>
     </g>
     <g id="text_11">
      <!-- 0.6 -->
      <defs>
       <path d="M 33.015625 40.375 
Q 26.375 40.375 22.484375 35.828125 
Q 18.609375 31.296875 18.609375 23.390625 
Q 18.609375 15.53125 22.484375 10.953125 
Q 26.375 6.390625 33.015625 6.390625 
Q 39.65625 6.390625 43.53125 10.953125 
Q 47.40625 15.53125 47.40625 23.390625 
Q 47.40625 31.296875 43.53125 35.828125 
Q 39.65625 40.375 33.015625 40.375 
z
M 52.59375 71.296875 
L 52.59375 62.3125 
Q 48.875 64.0625 45.09375 64.984375 
Q 41.3125 65.921875 37.59375 65.921875 
Q 27.828125 65.921875 22.671875 59.328125 
Q 17.53125 52.734375 16.796875 39.40625 
Q 19.671875 43.65625 24.015625 45.921875 
Q 28.375 48.1875 33.59375 48.1875 
Q 44.578125 48.1875 50.953125 41.515625 
Q 57.328125 34.859375 57.328125 23.390625 
Q 57.328125 12.15625 50.6875 5.359375 
Q 44.046875 -1.421875 33.015625 -1.421875 
Q 20.359375 -1.421875 13.671875 8.265625 
Q 6.984375 17.96875 6.984375 36.375 
Q 6.984375 53.65625 15.1875 63.9375 
Q 23.390625 74.21875 37.203125 74.21875 
Q 40.921875 74.21875 44.703125 73.484375 
Q 48.484375 72.75 52.59375 71.296875 
z
" id="DejaVuSans-54"/>
      </defs>
      <g transform="translate(40.571625 150.039452)scale(0.14 -0.14)">
       <use xlink:href="#DejaVuSans-48"/>
       <use x="63.623047" xlink:href="#DejaVuSans-46"/>
       <use x="95.410156" xlink:href="#DejaVuSans-54"/>
      </g>
     </g>
    </g>
    <g id="ytick_5">
     <g id="line2d_12">
      <g>
       <use style="stroke:#000000;stroke-width:1.5;" x="78.336" xlink:href="#mac0679b310" y="98.830091"/>
      </g>
     </g>
     <g id="text_12">
      <!-- 0.8 -->
      <defs>
       <path d="M 31.78125 34.625 
Q 24.75 34.625 20.71875 30.859375 
Q 16.703125 27.09375 16.703125 20.515625 
Q 16.703125 13.921875 20.71875 10.15625 
Q 24.75 6.390625 31.78125 6.390625 
Q 38.8125 6.390625 42.859375 10.171875 
Q 46.921875 13.96875 46.921875 20.515625 
Q 46.921875 27.09375 42.890625 30.859375 
Q 38.875 34.625 31.78125 34.625 
z
M 21.921875 38.8125 
Q 15.578125 40.375 12.03125 44.71875 
Q 8.5 49.078125 8.5 55.328125 
Q 8.5 64.0625 14.71875 69.140625 
Q 20.953125 74.21875 31.78125 74.21875 
Q 42.671875 74.21875 48.875 69.140625 
Q 55.078125 64.0625 55.078125 55.328125 
Q 55.078125 49.078125 51.53125 44.71875 
Q 48 40.375 41.703125 38.8125 
Q 48.828125 37.15625 52.796875 32.3125 
Q 56.78125 27.484375 56.78125 20.515625 
Q 56.78125 9.90625 50.3125 4.234375 
Q 43.84375 -1.421875 31.78125 -1.421875 
Q 19.734375 -1.421875 13.25 4.234375 
Q 6.78125 9.90625 6.78125 20.515625 
Q 6.78125 27.484375 10.78125 32.3125 
Q 14.796875 37.15625 21.921875 38.8125 
z
M 18.3125 54.390625 
Q 18.3125 48.734375 21.84375 45.5625 
Q 25.390625 42.390625 31.78125 42.390625 
Q 38.140625 42.390625 41.71875 45.5625 
Q 45.3125 48.734375 45.3125 54.390625 
Q 45.3125 60.0625 41.71875 63.234375 
Q 38.140625 66.40625 31.78125 66.40625 
Q 25.390625 66.40625 21.84375 63.234375 
Q 18.3125 60.0625 18.3125 54.390625 
z
" id="DejaVuSans-56"/>
      </defs>
      <g transform="translate(40.571625 104.148997)scale(0.14 -0.14)">
       <use xlink:href="#DejaVuSans-48"/>
       <use x="63.623047" xlink:href="#DejaVuSans-46"/>
       <use x="95.410156" xlink:href="#DejaVuSans-56"/>
      </g>
     </g>
    </g>
    <g id="ytick_6">
     <g id="line2d_13">
      <g>
       <use style="stroke:#000000;stroke-width:1.5;" x="78.336" xlink:href="#mac0679b310" y="52.939636"/>
      </g>
     </g>
     <g id="text_13">
      <!-- 1.0 -->
      <g transform="translate(40.571625 58.258543)scale(0.14 -0.14)">
       <use xlink:href="#DejaVuSans-49"/>
       <use x="63.623047" xlink:href="#DejaVuSans-46"/>
       <use x="95.410156" xlink:href="#DejaVuSans-48"/>
      </g>
     </g>
    </g>
   </g>
   <g id="line2d_14">
    <path clip-path="url(#p6c0b5719b6)" d="M 92.578909 259.446682 
L 94.952727 258.743131 
L 97.326545 258.008033 
L 99.700364 257.239563 
L 102.074182 256.43577 
L 104.448 255.594563 
L 106.821818 254.71371 
L 109.195636 253.790816 
L 111.569455 252.823317 
L 113.943273 251.808467 
L 116.317091 250.74332 
L 118.690909 249.624716 
L 121.064727 248.449265 
L 123.438545 247.213331 
L 125.812364 245.91301 
L 128.186182 244.544112 
L 130.56 243.102136 
L 132.933818 241.582256 
L 135.307636 239.979289 
L 137.681455 238.287676 
L 140.055273 236.501455 
L 142.429091 234.614236 
L 144.802909 232.619182 
L 147.176727 230.508976 
L 149.550545 228.275807 
L 151.924364 225.91135 
L 154.298182 223.406749 
L 156.672 220.752615 
L 159.045818 217.939023 
L 161.419636 214.955532 
L 163.793455 211.79121 
L 166.167273 208.43469 
L 168.541091 204.874249 
L 170.914909 201.097924 
L 173.288727 197.093666 
L 175.662545 192.849559 
L 178.036364 188.354092 
L 180.410182 183.596528 
L 182.784 178.567351 
L 185.157818 173.258842 
L 187.531636 167.665773 
L 189.905455 161.786247 
L 192.279273 155.622698 
L 194.653091 149.183042 
L 197.026909 142.481987 
L 199.400727 135.542455 
L 201.774545 128.397095 
L 204.148364 121.089784 
L 206.522182 113.677003 
L 208.896 106.228936 
L 211.269818 98.830091 
L 213.643636 91.579208 
L 216.017455 84.588226 
L 218.391273 77.980085 
L 220.765091 71.885237 
L 223.138909 66.436829 
L 225.512727 61.764724 
L 227.886545 57.988708 
L 230.260364 55.211441 
L 232.634182 53.511837 
L 235.008 52.939636 
L 237.381818 53.511837 
L 239.755636 55.211441 
L 242.129455 57.988708 
L 244.503273 61.764724 
L 246.877091 66.436829 
L 249.250909 71.885237 
L 251.624727 77.980085 
L 253.998545 84.588226 
L 256.372364 91.579208 
L 258.746182 98.830091 
L 261.12 106.228936 
L 263.493818 113.677003 
L 265.867636 121.089784 
L 268.241455 128.397095 
L 270.615273 135.542455 
L 272.989091 142.481987 
L 275.362909 149.183042 
L 277.736727 155.622698 
L 280.110545 161.786247 
L 282.484364 167.665773 
L 284.858182 173.258842 
L 287.232 178.567351 
L 289.605818 183.596528 
L 291.979636 188.354092 
L 294.353455 192.849559 
L 296.727273 197.093666 
L 299.101091 201.097924 
L 301.474909 204.874249 
L 303.848727 208.43469 
L 306.222545 211.79121 
L 308.596364 214.955532 
L 310.970182 217.939023 
L 313.344 220.752615 
L 315.717818 223.406749 
L 318.091636 225.91135 
L 320.465455 228.275807 
L 322.839273 230.508976 
L 325.213091 232.619182 
L 327.586909 234.614236 
L 329.960727 236.501455 
L 332.334545 238.287676 
L 334.708364 239.979289 
L 337.082182 241.582256 
L 339.456 243.102136 
L 341.829818 244.544112 
L 344.203636 245.91301 
L 346.577455 247.213331 
L 348.951273 248.449265 
L 351.325091 249.624716 
L 353.698909 250.74332 
L 356.072727 251.808467 
L 358.446545 252.823317 
L 360.820364 253.790816 
L 363.194182 254.71371 
L 365.568 255.594563 
L 367.941818 256.43577 
L 370.315636 257.239563 
L 372.689455 258.008033 
L 375.063273 258.743131 
L 377.437091 259.446682 
" style="fill:none;stroke:#1f77b4;stroke-linecap:square;stroke-width:1.5;"/>
   </g>
   <g id="line2d_15">
    <path clip-path="url(#p6c0b5719b6)" d="M 92.578909 276.190496 
L 94.952727 275.984418 
L 97.326545 275.767998 
L 99.700364 275.540542 
L 102.074182 275.301295 
L 104.448 275.049436 
L 106.821818 274.784075 
L 109.195636 274.504241 
L 111.569455 274.208875 
L 113.943273 273.896823 
L 116.317091 273.566822 
L 118.690909 273.217488 
L 121.064727 272.847305 
L 123.438545 272.454608 
L 125.812364 272.037565 
L 128.186182 271.594155 
L 130.56 271.122151 
L 132.933818 270.619089 
L 135.307636 270.082238 
L 137.681455 269.50857 
L 140.055273 268.894717 
L 142.429091 268.236926 
L 144.802909 267.531011 
L 147.176727 266.772285 
L 149.550545 265.9555 
L 151.924364 265.074756 
L 154.298182 264.123416 
L 156.672 263.093989 
L 159.045818 261.978006 
L 161.419636 260.76587 
L 163.793455 259.446682 
L 166.167273 258.008033 
L 168.541091 256.43577 
L 170.914909 254.71371 
L 173.288727 252.823317 
L 175.662545 250.74332 
L 178.036364 248.449265 
L 180.410182 245.91301 
L 182.784 243.102136 
L 185.157818 239.979289 
L 187.531636 236.501455 
L 189.905455 232.619182 
L 192.279273 228.275807 
L 194.653091 223.406749 
L 197.026909 217.939023 
L 199.400727 211.79121 
L 201.774545 204.874249 
L 204.148364 197.093666 
L 206.522182 188.354092 
L 208.896 178.567351 
L 211.269818 167.665773 
L 213.643636 155.622698 
L 216.017455 142.481987 
L 218.391273 128.397095 
L 220.765091 113.677003 
L 223.138909 98.830091 
L 225.512727 84.588226 
L 227.886545 71.885237 
L 230.260364 61.764724 
L 232.634182 55.211441 
L 235.008 52.939636 
L 237.381818 55.211441 
L 239.755636 61.764724 
L 242.129455 71.885237 
L 244.503273 84.588226 
L 246.877091 98.830091 
L 249.250909 113.677003 
L 251.624727 128.397095 
L 253.998545 142.481987 
L 256.372364 155.622698 
L 258.746182 167.665773 
L 261.12 178.567351 
L 263.493818 188.354092 
L 265.867636 197.093666 
L 268.241455 204.874249 
L 270.615273 211.79121 
L 272.989091 217.939023 
L 275.362909 223.406749 
L 277.736727 228.275807 
L 280.110545 232.619182 
L 282.484364 236.501455 
L 284.858182 239.979289 
L 287.232 243.102136 
L 289.605818 245.91301 
L 291.979636 248.449265 
L 294.353455 250.74332 
L 296.727273 252.823317 
L 299.101091 254.71371 
L 301.474909 256.43577 
L 303.848727 258.008033 
L 306.222545 259.446682 
L 308.596364 260.76587 
L 310.970182 261.978006 
L 313.344 263.093989 
L 315.717818 264.123416 
L 318.091636 265.074756 
L 320.465455 265.9555 
L 322.839273 266.772285 
L 325.213091 267.531011 
L 327.586909 268.236926 
L 329.960727 268.894717 
L 332.334545 269.50857 
L 334.708364 270.082238 
L 337.082182 270.619089 
L 339.456 271.122151 
L 341.829818 271.594155 
L 344.203636 272.037565 
L 346.577455 272.454608 
L 348.951273 272.847305 
L 351.325091 273.217488 
L 353.698909 273.566822 
L 356.072727 273.896823 
L 358.446545 274.208875 
L 360.820364 274.504241 
L 363.194182 274.784075 
L 365.568 275.049436 
L 367.941818 275.301295 
L 370.315636 275.540542 
L 372.689455 275.767998 
L 375.063273 275.984418 
L 377.437091 276.190496 
" style="fill:none;stroke:#ff7f0e;stroke-linecap:square;stroke-width:1.5;"/>
   </g>
   <g id="line2d_16">
    <path clip-path="url(#p6c0b5719b6)" d="M 92.578909 280.80948 
L 94.952727 280.755769 
L 97.326545 280.699284 
L 99.700364 280.63983 
L 102.074182 280.577196 
L 104.448 280.511153 
L 106.821818 280.441448 
L 109.195636 280.367806 
L 111.569455 280.289928 
L 113.943273 280.207482 
L 116.317091 280.120104 
L 118.690909 280.027397 
L 121.064727 279.928918 
L 123.438545 279.82418 
L 125.812364 279.712644 
L 128.186182 279.593711 
L 130.56 279.466714 
L 132.933818 279.330913 
L 135.307636 279.185477 
L 137.681455 279.029478 
L 140.055273 278.861874 
L 142.429091 278.681491 
L 144.802909 278.487003 
L 147.176727 278.276911 
L 149.550545 278.049512 
L 151.924364 277.802864 
L 154.298182 277.534748 
L 156.672 277.242621 
L 159.045818 276.923552 
L 161.419636 276.574154 
L 163.793455 276.190496 
L 166.167273 275.767998 
L 168.541091 275.301295 
L 170.914909 274.784075 
L 173.288727 274.208875 
L 175.662545 273.566822 
L 178.036364 272.847305 
L 180.410182 272.037565 
L 182.784 271.122151 
L 185.157818 270.082238 
L 187.531636 268.894717 
L 189.905455 267.531011 
L 192.279273 265.9555 
L 194.653091 264.123416 
L 197.026909 261.978006 
L 199.400727 259.446682 
L 201.774545 256.43577 
L 204.148364 252.823317 
L 206.522182 248.449265 
L 208.896 243.102136 
L 211.269818 236.501455 
L 213.643636 228.275807 
L 216.017455 217.939023 
L 218.391273 204.874249 
L 220.765091 188.354092 
L 223.138909 167.665773 
L 225.512727 142.481987 
L 227.886545 113.677003 
L 230.260364 84.588226 
L 232.634182 61.764724 
L 235.008 52.939636 
L 237.381818 61.764724 
L 239.755636 84.588226 
L 242.129455 113.677003 
L 244.503273 142.481987 
L 246.877091 167.665773 
L 249.250909 188.354092 
L 251.624727 204.874249 
L 253.998545 217.939023 
L 256.372364 228.275807 
L 258.746182 236.501455 
L 261.12 243.102136 
L 263.493818 248.449265 
L 265.867636 252.823317 
L 268.241455 256.43577 
L 270.615273 259.446682 
L 272.989091 261.978006 
L 275.362909 264.123416 
L 277.736727 265.9555 
L 280.110545 267.531011 
L 282.484364 268.894717 
L 284.858182 270.082238 
L 287.232 271.122151 
L 289.605818 272.037565 
L 291.979636 272.847305 
L 294.353455 273.566822 
L 296.727273 274.208875 
L 299.101091 274.784075 
L 301.474909 275.301295 
L 303.848727 275.767998 
L 306.222545 276.190496 
L 308.596364 276.574154 
L 310.970182 276.923552 
L 313.344 277.242621 
L 315.717818 277.534748 
L 318.091636 277.802864 
L 320.465455 278.049512 
L 322.839273 278.276911 
L 325.213091 278.487003 
L 327.586909 278.681491 
L 329.960727 278.861874 
L 332.334545 279.029478 
L 334.708364 279.185477 
L 337.082182 279.330913 
L 339.456 279.466714 
L 341.829818 279.593711 
L 344.203636 279.712644 
L 346.577455 279.82418 
L 348.951273 279.928918 
L 351.325091 280.027397 
L 353.698909 280.120104 
L 356.072727 280.207482 
L 358.446545 280.289928 
L 360.820364 280.367806 
L 363.194182 280.441448 
L 365.568 280.511153 
L 367.941818 280.577196 
L 370.315636 280.63983 
L 372.689455 280.699284 
L 375.063273 280.755769 
L 377.437091 280.80948 
" style="fill:none;stroke:#2ca02c;stroke-linecap:square;stroke-width:1.5;"/>
   </g>
   <g id="line2d_17">
    <path clip-path="url(#p6c0b5719b6)" d="M 92.578909 281.994245 
L 94.952727 281.980675 
L 97.326545 281.966399 
L 99.700364 281.951366 
L 102.074182 281.935524 
L 104.448 281.918812 
L 106.821818 281.901165 
L 109.195636 281.882513 
L 111.569455 281.862778 
L 113.943273 281.841875 
L 116.317091 281.819709 
L 118.690909 281.796177 
L 121.064727 281.771164 
L 123.438545 281.744543 
L 125.812364 281.716175 
L 128.186182 281.685902 
L 130.56 281.653551 
L 132.933818 281.618926 
L 135.307636 281.581811 
L 137.681455 281.54196 
L 140.055273 281.499099 
L 142.429091 281.452916 
L 144.802909 281.403061 
L 147.176727 281.349134 
L 149.550545 281.290679 
L 151.924364 281.227177 
L 154.298182 281.158029 
L 156.672 281.082549 
L 159.045818 280.999939 
L 161.419636 280.909276 
L 163.793455 280.80948 
L 166.167273 280.699284 
L 168.541091 280.577196 
L 170.914909 280.441448 
L 173.288727 280.289928 
L 175.662545 280.120104 
L 178.036364 279.928918 
L 180.410182 279.712644 
L 182.784 279.466714 
L 185.157818 279.185477 
L 187.531636 278.861874 
L 189.905455 278.487003 
L 192.279273 278.049512 
L 194.653091 277.534748 
L 197.026909 276.923552 
L 199.400727 276.190496 
L 201.774545 275.301295 
L 204.148364 274.208875 
L 206.522182 272.847305 
L 208.896 271.122151 
L 211.269818 268.894717 
L 213.643636 265.9555 
L 216.017455 261.978006 
L 218.391273 256.43577 
L 220.765091 248.449265 
L 223.138909 236.501455 
L 225.512727 217.939023 
L 227.886545 188.354092 
L 230.260364 142.481987 
L 232.634182 84.588226 
L 235.008 52.939636 
L 237.381818 84.588226 
L 239.755636 142.481987 
L 242.129455 188.354092 
L 244.503273 217.939023 
L 246.877091 236.501455 
L 249.250909 248.449265 
L 251.624727 256.43577 
L 253.998545 261.978006 
L 256.372364 265.9555 
L 258.746182 268.894717 
L 261.12 271.122151 
L 263.493818 272.847305 
L 265.867636 274.208875 
L 268.241455 275.301295 
L 270.615273 276.190496 
L 272.989091 276.923552 
L 275.362909 277.534748 
L 277.736727 278.049512 
L 280.110545 278.487003 
L 282.484364 278.861874 
L 284.858182 279.185477 
L 287.232 279.466714 
L 289.605818 279.712644 
L 291.979636 279.928918 
L 294.353455 280.120104 
L 296.727273 280.289928 
L 299.101091 280.441448 
L 301.474909 280.577196 
L 303.848727 280.699284 
L 306.222545 280.80948 
L 308.596364 280.909276 
L 310.970182 280.999939 
L 313.344 281.082549 
L 315.717818 281.158029 
L 318.091636 281.227177 
L 320.465455 281.290679 
L 322.839273 281.349134 
L 325.213091 281.403061 
L 327.586909 281.452916 
L 329.960727 281.499099 
L 332.334545 281.54196 
L 334.708364 281.581811 
L 337.082182 281.618926 
L 339.456 281.653551 
L 341.829818 281.685902 
L 344.203636 281.716175 
L 346.577455 281.744543 
L 348.951273 281.771164 
L 351.325091 281.796177 
L 353.698909 281.819709 
L 356.072727 281.841875 
L 358.446545 281.862778 
L 360.820364 281.882513 
L 363.194182 281.901165 
L 365.568 281.918812 
L 367.941818 281.935524 
L 370.315636 281.951366 
L 372.689455 281.966399 
L 375.063273 281.980675 
L 377.437091 281.994245 
" style="fill:none;stroke:#d62728;stroke-linecap:square;stroke-width:1.5;"/>
   </g>
   <g id="line2d_18">
    <path clip-path="url(#p6c0b5719b6)" d="M 92.578909 282.292364 
L 94.952727 282.288962 
L 97.326545 282.285383 
L 99.700364 282.281615 
L 102.074182 282.277642 
L 104.448 282.273452 
L 106.821818 282.269026 
L 109.195636 282.264348 
L 111.569455 282.259397 
L 113.943273 282.254153 
L 116.317091 282.248591 
L 118.690909 282.242685 
L 121.064727 282.236407 
L 123.438545 282.229724 
L 125.812364 282.222602 
L 128.186182 282.214999 
L 130.56 282.206873 
L 132.933818 282.198174 
L 135.307636 282.188847 
L 137.681455 282.17883 
L 140.055273 282.168053 
L 142.429091 282.156438 
L 144.802909 282.143895 
L 147.176727 282.130324 
L 149.550545 282.115607 
L 151.924364 282.099613 
L 154.298182 282.08219 
L 156.672 282.063162 
L 159.045818 282.042326 
L 161.419636 282.019446 
L 163.793455 281.994245 
L 166.167273 281.966399 
L 168.541091 281.935524 
L 170.914909 281.901165 
L 173.288727 281.862778 
L 175.662545 281.819709 
L 178.036364 281.771164 
L 180.410182 281.716175 
L 182.784 281.653551 
L 185.157818 281.581811 
L 187.531636 281.499099 
L 189.905455 281.403061 
L 192.279273 281.290679 
L 194.653091 281.158029 
L 197.026909 280.999939 
L 199.400727 280.80948 
L 201.774545 280.577196 
L 204.148364 280.289928 
L 206.522182 279.928918 
L 208.896 279.466714 
L 211.269818 278.861874 
L 213.643636 278.049512 
L 216.017455 276.923552 
L 218.391273 275.301295 
L 220.765091 272.847305 
L 223.138909 268.894717 
L 225.512727 261.978006 
L 227.886545 248.449265 
L 230.260364 217.939023 
L 232.634182 142.481987 
L 235.008 52.939636 
L 237.381818 142.481987 
L 239.755636 217.939023 
L 242.129455 248.449265 
L 244.503273 261.978006 
L 246.877091 268.894717 
L 249.250909 272.847305 
L 251.624727 275.301295 
L 253.998545 276.923552 
L 256.372364 278.049512 
L 258.746182 278.861874 
L 261.12 279.466714 
L 263.493818 279.928918 
L 265.867636 280.289928 
L 268.241455 280.577196 
L 270.615273 280.80948 
L 272.989091 280.999939 
L 275.362909 281.158029 
L 277.736727 281.290679 
L 280.110545 281.403061 
L 282.484364 281.499099 
L 284.858182 281.581811 
L 287.232 281.653551 
L 289.605818 281.716175 
L 291.979636 281.771164 
L 294.353455 281.819709 
L 296.727273 281.862778 
L 299.101091 281.901165 
L 301.474909 281.935524 
L 303.848727 281.966399 
L 306.222545 281.994245 
L 308.596364 282.019446 
L 310.970182 282.042326 
L 313.344 282.063162 
L 315.717818 282.08219 
L 318.091636 282.099613 
L 320.465455 282.115607 
L 322.839273 282.130324 
L 325.213091 282.143895 
L 327.586909 282.156438 
L 329.960727 282.168053 
L 332.334545 282.17883 
L 334.708364 282.188847 
L 337.082182 282.198174 
L 339.456 282.206873 
L 341.829818 282.214999 
L 344.203636 282.222602 
L 346.577455 282.229724 
L 348.951273 282.236407 
L 351.325091 282.242685 
L 353.698909 282.248591 
L 356.072727 282.254153 
L 358.446545 282.259397 
L 360.820364 282.264348 
L 363.194182 282.269026 
L 365.568 282.273452 
L 367.941818 282.277642 
L 370.315636 282.281615 
L 372.689455 282.285383 
L 375.063273 282.288962 
L 377.437091 282.292364 
" style="fill:none;stroke:#9467bd;stroke-linecap:square;stroke-width:1.5;"/>
   </g>
   <g id="line2d_19">
    <path clip-path="url(#p6c0b5719b6)" d="M 78.336 167.665773 
L 391.68 167.665773 
" style="fill:none;stroke:#000000;stroke-linecap:square;stroke-width:0.5;"/>
   </g>
   <g id="patch_3">
    <path d="M 78.336 293.76 
L 78.336 41.472 
" style="fill:none;stroke:#000000;stroke-linecap:square;stroke-linejoin:miter;stroke-width:1.5;"/>
   </g>
   <g id="patch_4">
    <path d="M 391.68 293.76 
L 391.68 41.472 
" style="fill:none;stroke:#000000;stroke-linecap:square;stroke-linejoin:miter;stroke-width:1.5;"/>
   </g>
   <g id="patch_5">
    <path d="M 78.336 293.76 
L 391.68 293.76 
" style="fill:none;stroke:#000000;stroke-linecap:square;stroke-linejoin:miter;stroke-width:1.5;"/>
   </g>
   <g id="patch_6">
    <path d="M 78.336 41.472 
L 391.68 41.472 
" style="fill:none;stroke:#000000;stroke-linecap:square;stroke-linejoin:miter;stroke-width:1.5;"/>
   </g>
   <g id="legend_1">
    <g id="patch_7">
     <path d="M 297.000625 155.418875 
L 381.88 155.418875 
Q 384.68 155.418875 384.68 152.618875 
L 384.68 51.272 
Q 384.68 48.472 381.88 48.472 
L 297.000625 48.472 
Q 294.200625 48.472 294.200625 51.272 
L 294.200625 152.618875 
Q 294.200625 155.418875 297.000625 155.418875 
z
" style="fill:none;opacity:0;"/>
    </g>
    <g id="line2d_20">
     <path d="M 299.800625 59.809812 
L 327.800625 59.809812 
" style="fill:none;stroke:#1f77b4;stroke-linecap:square;stroke-width:1.5;"/>
    </g>
    <g id="line2d_21"/>
    <g id="text_14">
     <!-- 2 -->
     <g transform="translate(339.000625 64.709812)scale(0.14 -0.14)">
      <use xlink:href="#DejaVuSans-50"/>
     </g>
    </g>
    <g id="line2d_22">
     <path d="M 299.800625 80.359187 
L 327.800625 80.359187 
" style="fill:none;stroke:#ff7f0e;stroke-linecap:square;stroke-width:1.5;"/>
    </g>
    <g id="line2d_23"/>
    <g id="text_15">
     <!-- 1.0 -->
     <g transform="translate(339.000625 85.259187)scale(0.14 -0.14)">
      <use xlink:href="#DejaVuSans-49"/>
      <use x="63.623047" xlink:href="#DejaVuSans-46"/>
      <use x="95.410156" xlink:href="#DejaVuSans-48"/>
     </g>
    </g>
    <g id="line2d_24">
     <path d="M 299.800625 100.908562 
L 327.800625 100.908562 
" style="fill:none;stroke:#2ca02c;stroke-linecap:square;stroke-width:1.5;"/>
    </g>
    <g id="line2d_25"/>
    <g id="text_16">
     <!-- 0.5 -->
     <defs>
      <path d="M 10.796875 72.90625 
L 49.515625 72.90625 
L 49.515625 64.59375 
L 19.828125 64.59375 
L 19.828125 46.734375 
Q 21.96875 47.46875 24.109375 47.828125 
Q 26.265625 48.1875 28.421875 48.1875 
Q 40.625 48.1875 47.75 41.5 
Q 54.890625 34.8125 54.890625 23.390625 
Q 54.890625 11.625 47.5625 5.09375 
Q 40.234375 -1.421875 26.90625 -1.421875 
Q 22.3125 -1.421875 17.546875 -0.640625 
Q 12.796875 0.140625 7.71875 1.703125 
L 7.71875 11.625 
Q 12.109375 9.234375 16.796875 8.0625 
Q 21.484375 6.890625 26.703125 6.890625 
Q 35.15625 6.890625 40.078125 11.328125 
Q 45.015625 15.765625 45.015625 23.390625 
Q 45.015625 31 40.078125 35.4375 
Q 35.15625 39.890625 26.703125 39.890625 
Q 22.75 39.890625 18.8125 39.015625 
Q 14.890625 38.140625 10.796875 36.28125 
z
" id="DejaVuSans-53"/>
     </defs>
     <g transform="translate(339.000625 105.808562)scale(0.14 -0.14)">
      <use xlink:href="#DejaVuSans-48"/>
      <use x="63.623047" xlink:href="#DejaVuSans-46"/>
      <use x="95.410156" xlink:href="#DejaVuSans-53"/>
     </g>
    </g>
    <g id="line2d_26">
     <path d="M 299.800625 121.457937 
L 327.800625 121.457937 
" style="fill:none;stroke:#d62728;stroke-linecap:square;stroke-width:1.5;"/>
    </g>
    <g id="line2d_27"/>
    <g id="text_17">
     <!-- 0.25 -->
     <g transform="translate(339.000625 126.357937)scale(0.14 -0.14)">
      <use xlink:href="#DejaVuSans-48"/>
      <use x="63.623047" xlink:href="#DejaVuSans-46"/>
      <use x="95.410156" xlink:href="#DejaVuSans-50"/>
      <use x="159.033203" xlink:href="#DejaVuSans-53"/>
     </g>
    </g>
    <g id="line2d_28">
     <path d="M 299.800625 142.007312 
L 327.800625 142.007312 
" style="fill:none;stroke:#9467bd;stroke-linecap:square;stroke-width:1.5;"/>
    </g>
    <g id="line2d_29"/>
    <g id="text_18">
     <!-- 0.125 -->
     <g transform="translate(339.000625 146.907312)scale(0.14 -0.14)">
      <use xlink:href="#DejaVuSans-48"/>
      <use x="63.623047" xlink:href="#DejaVuSans-46"/>
      <use x="95.410156" xlink:href="#DejaVuSans-49"/>
      <use x="159.033203" xlink:href="#DejaVuSans-50"/>
      <use x="222.65625" xlink:href="#DejaVuSans-53"/>
     </g>
    </g>
   </g>
  </g>
 </g>
 <defs>
  <clipPath id="p6c0b5719b6">
   <rect height="252.288" width="313.344" x="78.336" y="41.472"/>
  </clipPath>
 </defs>
</svg>
