<?xml version="1.0" encoding="utf-8" standalone="no"?>
<!DOCTYPE svg PUBLIC "-//W3C//DTD SVG 1.1//EN"
  "http://www.w3.org/Graphics/SVG/1.1/DTD/svg11.dtd">
<!-- Created with matplotlib (https://matplotlib.org/) -->
<svg height="345.6pt" version="1.1" viewBox="0 0 460.8 345.6" width="460.8pt" xmlns="http://www.w3.org/2000/svg" xmlns:xlink="http://www.w3.org/1999/xlink">
 <defs>
  <style type="text/css">
*{stroke-linecap:butt;stroke-linejoin:round;}
  </style>
 </defs>
 <g id="figure_1">
  <g id="patch_1">
   <path d="M 0 345.6 
L 460.8 345.6 
L 460.8 0 
L 0 0 
z
" style="fill:#ffffff;"/>
  </g>
  <g id="axes_1">
   <g id="patch_2">
    <path d="M 78.336 293.76 
L 391.68 293.76 
L 391.68 41.472 
L 78.336 41.472 
z
" style="fill:#ffffff;"/>
   </g>
   <g id="matplotlib.axis_1">
    <g id="xtick_1">
     <g id="line2d_1">
      <defs>
       <path d="M 0 0 
L 0 12 
" id="m42333df618" style="stroke:#000000;stroke-width:1.5;"/>
      </defs>
      <g>
       <use style="stroke:#000000;stroke-width:1.5;" x="92.578909" xlink:href="#m42333df618" y="293.76"/>
      </g>
     </g>
     <g id="text_1">
      <!-- −3 -->
      <defs>
       <path d="M 10.59375 35.5 
L 73.1875 35.5 
L 73.1875 27.203125 
L 10.59375 27.203125 
z
" id="DejaVuSans-8722"/>
       <path d="M 40.578125 39.3125 
Q 47.65625 37.796875 51.625 33 
Q 55.609375 28.21875 55.609375 21.1875 
Q 55.609375 10.40625 48.1875 4.484375 
Q 40.765625 -1.421875 27.09375 -1.421875 
Q 22.515625 -1.421875 17.65625 -0.515625 
Q 12.796875 0.390625 7.625 2.203125 
L 7.625 11.71875 
Q 11.71875 9.328125 16.59375 8.109375 
Q 21.484375 6.890625 26.8125 6.890625 
Q 36.078125 6.890625 40.9375 10.546875 
Q 45.796875 14.203125 45.796875 21.1875 
Q 45.796875 27.640625 41.28125 31.265625 
Q 36.765625 34.90625 28.71875 34.90625 
L 20.21875 34.90625 
L 20.21875 43.015625 
L 29.109375 43.015625 
Q 36.375 43.015625 40.234375 45.921875 
Q 44.09375 48.828125 44.09375 54.296875 
Q 44.09375 59.90625 40.109375 62.90625 
Q 36.140625 65.921875 28.71875 65.921875 
Q 24.65625 65.921875 20.015625 65.03125 
Q 15.375 64.15625 9.8125 62.3125 
L 9.8125 71.09375 
Q 15.4375 72.65625 20.34375 73.4375 
Q 25.25 74.21875 29.59375 74.21875 
Q 40.828125 74.21875 47.359375 69.109375 
Q 53.90625 64.015625 53.90625 55.328125 
Q 53.90625 49.265625 50.4375 45.09375 
Q 46.96875 40.921875 40.578125 39.3125 
z
" id="DejaVuSans-51"/>
      </defs>
      <g transform="translate(82.259378 319.897812)scale(0.14 -0.14)">
       <use xlink:href="#DejaVuSans-8722"/>
       <use x="83.789062" xlink:href="#DejaVuSans-51"/>
      </g>
     </g>
    </g>
    <g id="xtick_2">
     <g id="line2d_2">
      <g>
       <use style="stroke:#000000;stroke-width:1.5;" x="140.055273" xlink:href="#m42333df618" y="293.76"/>
      </g>
     </g>
     <g id="text_2">
      <!-- −2 -->
      <defs>
       <path d="M 19.1875 8.296875 
L 53.609375 8.296875 
L 53.609375 0 
L 7.328125 0 
L 7.328125 8.296875 
Q 12.9375 14.109375 22.625 23.890625 
Q 32.328125 33.6875 34.8125 36.53125 
Q 39.546875 41.84375 41.421875 45.53125 
Q 43.3125 49.21875 43.3125 52.78125 
Q 43.3125 58.59375 39.234375 62.25 
Q 35.15625 65.921875 28.609375 65.921875 
Q 23.96875 65.921875 18.8125 64.3125 
Q 13.671875 62.703125 7.8125 59.421875 
L 7.8125 69.390625 
Q 13.765625 71.78125 18.9375 73 
Q 24.125 74.21875 28.421875 74.21875 
Q 39.75 74.21875 46.484375 68.546875 
Q 53.21875 62.890625 53.21875 53.421875 
Q 53.21875 48.921875 51.53125 44.890625 
Q 49.859375 40.875 45.40625 35.40625 
Q 44.1875 33.984375 37.640625 27.21875 
Q 31.109375 20.453125 19.1875 8.296875 
z
" id="DejaVuSans-50"/>
      </defs>
      <g transform="translate(129.735741 319.897812)scale(0.14 -0.14)">
       <use xlink:href="#DejaVuSans-8722"/>
       <use x="83.789062" xlink:href="#DejaVuSans-50"/>
      </g>
     </g>
    </g>
    <g id="xtick_3">
     <g id="line2d_3">
      <g>
       <use style="stroke:#000000;stroke-width:1.5;" x="187.531636" xlink:href="#m42333df618" y="293.76"/>
      </g>
     </g>
     <g id="text_3">
      <!-- −1 -->
      <defs>
       <path d="M 12.40625 8.296875 
L 28.515625 8.296875 
L 28.515625 63.921875 
L 10.984375 60.40625 
L 10.984375 69.390625 
L 28.421875 72.90625 
L 38.28125 72.90625 
L 38.28125 8.296875 
L 54.390625 8.296875 
L 54.390625 0 
L 12.40625 0 
z
" id="DejaVuSans-49"/>
      </defs>
      <g transform="translate(177.212105 319.897812)scale(0.14 -0.14)">
       <use xlink:href="#DejaVuSans-8722"/>
       <use x="83.789062" xlink:href="#DejaVuSans-49"/>
      </g>
     </g>
    </g>
    <g id="xtick_4">
     <g id="line2d_4">
      <g>
       <use style="stroke:#000000;stroke-width:1.5;" x="235.008" xlink:href="#m42333df618" y="293.76"/>
      </g>
     </g>
     <g id="text_4">
      <!-- 0 -->
      <defs>
       <path d="M 31.78125 66.40625 
Q 24.171875 66.40625 20.328125 58.90625 
Q 16.5 51.421875 16.5 36.375 
Q 16.5 21.390625 20.328125 13.890625 
Q 24.171875 6.390625 31.78125 6.390625 
Q 39.453125 6.390625 43.28125 13.890625 
Q 47.125 21.390625 47.125 36.375 
Q 47.125 51.421875 43.28125 58.90625 
Q 39.453125 66.40625 31.78125 66.40625 
z
M 31.78125 74.21875 
Q 44.046875 74.21875 50.515625 64.515625 
Q 56.984375 54.828125 56.984375 36.375 
Q 56.984375 17.96875 50.515625 8.265625 
Q 44.046875 -1.421875 31.78125 -1.421875 
Q 19.53125 -1.421875 13.0625 8.265625 
Q 6.59375 17.96875 6.59375 36.375 
Q 6.59375 54.828125 13.0625 64.515625 
Q 19.53125 74.21875 31.78125 74.21875 
z
" id="DejaVuSans-48"/>
      </defs>
      <g transform="translate(230.55425 319.897812)scale(0.14 -0.14)">
       <use xlink:href="#DejaVuSans-48"/>
      </g>
     </g>
    </g>
    <g id="xtick_5">
     <g id="line2d_5">
      <g>
       <use style="stroke:#000000;stroke-width:1.5;" x="282.484364" xlink:href="#m42333df618" y="293.76"/>
      </g>
     </g>
     <g id="text_5">
      <!-- 1 -->
      <g transform="translate(278.030614 319.897812)scale(0.14 -0.14)">
       <use xlink:href="#DejaVuSans-49"/>
      </g>
     </g>
    </g>
    <g id="xtick_6">
     <g id="line2d_6">
      <g>
       <use style="stroke:#000000;stroke-width:1.5;" x="329.960727" xlink:href="#m42333df618" y="293.76"/>
      </g>
     </g>
     <g id="text_6">
      <!-- 2 -->
      <g transform="translate(325.506977 319.897812)scale(0.14 -0.14)">
       <use xlink:href="#DejaVuSans-50"/>
      </g>
     </g>
    </g>
    <g id="xtick_7">
     <g id="line2d_7">
      <g>
       <use style="stroke:#000000;stroke-width:1.5;" x="377.437091" xlink:href="#m42333df618" y="293.76"/>
      </g>
     </g>
     <g id="text_7">
      <!-- 3 -->
      <g transform="translate(372.983341 319.897812)scale(0.14 -0.14)">
       <use xlink:href="#DejaVuSans-51"/>
      </g>
     </g>
    </g>
   </g>
   <g id="matplotlib.axis_2">
    <g id="ytick_1">
     <g id="line2d_8">
      <defs>
       <path d="M 0 0 
L -12 0 
" id="m311a275e51" style="stroke:#000000;stroke-width:1.5;"/>
      </defs>
      <g>
       <use style="stroke:#000000;stroke-width:1.5;" x="78.336" xlink:href="#m311a275e51" y="283.885091"/>
      </g>
     </g>
     <g id="text_8">
      <!-- 0.0 -->
      <defs>
       <path d="M 10.6875 12.40625 
L 21 12.40625 
L 21 0 
L 10.6875 0 
z
" id="DejaVuSans-46"/>
      </defs>
      <g transform="translate(40.571625 289.203997)scale(0.14 -0.14)">
       <use xlink:href="#DejaVuSans-48"/>
       <use x="63.623047" xlink:href="#DejaVuSans-46"/>
       <use x="95.410156" xlink:href="#DejaVuSans-48"/>
      </g>
     </g>
    </g>
    <g id="ytick_2">
     <g id="line2d_9">
      <g>
       <use style="stroke:#000000;stroke-width:1.5;" x="78.336" xlink:href="#m311a275e51" y="237.696"/>
      </g>
     </g>
     <g id="text_9">
      <!-- 0.2 -->
      <g transform="translate(40.571625 243.014906)scale(0.14 -0.14)">
       <use xlink:href="#DejaVuSans-48"/>
       <use x="63.623047" xlink:href="#DejaVuSans-46"/>
       <use x="95.410156" xlink:href="#DejaVuSans-50"/>
      </g>
     </g>
    </g>
    <g id="ytick_3">
     <g id="line2d_10">
      <g>
       <use style="stroke:#000000;stroke-width:1.5;" x="78.336" xlink:href="#m311a275e51" y="191.506909"/>
      </g>
     </g>
     <g id="text_10">
      <!-- 0.4 -->
      <defs>
       <path d="M 37.796875 64.3125 
L 12.890625 25.390625 
L 37.796875 25.390625 
z
M 35.203125 72.90625 
L 47.609375 72.90625 
L 47.609375 25.390625 
L 58.015625 25.390625 
L 58.015625 17.1875 
L 47.609375 17.1875 
L 47.609375 0 
L 37.796875 0 
L 37.796875 17.1875 
L 4.890625 17.1875 
L 4.890625 26.703125 
z
" id="DejaVuSans-52"/>
      </defs>
      <g transform="translate(40.571625 196.825815)scale(0.14 -0.14)">
       <use xlink:href="#DejaVuSans-48"/>
       <use x="63.623047" xlink:href="#DejaVuSans-46"/>
       <use x="95.410156" xlink:href="#DejaVuSans-52"/>
      </g>
     </g>
    </g>
    <g id="ytick_4">
     <g id="line2d_11">
      <g>
       <use style="stroke:#000000;stroke-width:1.5;" x="78.336" xlink:href="#m311a275e51" y="145.317818"/>
      </g>
     </g>
     <g id="text_11">
      <!-- 0.6 -->
      <defs>
       <path d="M 33.015625 40.375 
Q 26.375 40.375 22.484375 35.828125 
Q 18.609375 31.296875 18.609375 23.390625 
Q 18.609375 15.53125 22.484375 10.953125 
Q 26.375 6.390625 33.015625 6.390625 
Q 39.65625 6.390625 43.53125 10.953125 
Q 47.40625 15.53125 47.40625 23.390625 
Q 47.40625 31.296875 43.53125 35.828125 
Q 39.65625 40.375 33.015625 40.375 
z
M 52.59375 71.296875 
L 52.59375 62.3125 
Q 48.875 64.0625 45.09375 64.984375 
Q 41.3125 65.921875 37.59375 65.921875 
Q 27.828125 65.921875 22.671875 59.328125 
Q 17.53125 52.734375 16.796875 39.40625 
Q 19.671875 43.65625 24.015625 45.921875 
Q 28.375 48.1875 33.59375 48.1875 
Q 44.578125 48.1875 50.953125 41.515625 
Q 57.328125 34.859375 57.328125 23.390625 
Q 57.328125 12.15625 50.6875 5.359375 
Q 44.046875 -1.421875 33.015625 -1.421875 
Q 20.359375 -1.421875 13.671875 8.265625 
Q 6.984375 17.96875 6.984375 36.375 
Q 6.984375 53.65625 15.1875 63.9375 
Q 23.390625 74.21875 37.203125 74.21875 
Q 40.921875 74.21875 44.703125 73.484375 
Q 48.484375 72.75 52.59375 71.296875 
z
" id="DejaVuSans-54"/>
      </defs>
      <g transform="translate(40.571625 150.636724)scale(0.14 -0.14)">
       <use xlink:href="#DejaVuSans-48"/>
       <use x="63.623047" xlink:href="#DejaVuSans-46"/>
       <use x="95.410156" xlink:href="#DejaVuSans-54"/>
      </g>
     </g>
    </g>
    <g id="ytick_5">
     <g id="line2d_12">
      <g>
       <use style="stroke:#000000;stroke-width:1.5;" x="78.336" xlink:href="#m311a275e51" y="99.128727"/>
      </g>
     </g>
     <g id="text_12">
      <!-- 0.8 -->
      <defs>
       <path d="M 31.78125 34.625 
Q 24.75 34.625 20.71875 30.859375 
Q 16.703125 27.09375 16.703125 20.515625 
Q 16.703125 13.921875 20.71875 10.15625 
Q 24.75 6.390625 31.78125 6.390625 
Q 38.8125 6.390625 42.859375 10.171875 
Q 46.921875 13.96875 46.921875 20.515625 
Q 46.921875 27.09375 42.890625 30.859375 
Q 38.875 34.625 31.78125 34.625 
z
M 21.921875 38.8125 
Q 15.578125 40.375 12.03125 44.71875 
Q 8.5 49.078125 8.5 55.328125 
Q 8.5 64.0625 14.71875 69.140625 
Q 20.953125 74.21875 31.78125 74.21875 
Q 42.671875 74.21875 48.875 69.140625 
Q 55.078125 64.0625 55.078125 55.328125 
Q 55.078125 49.078125 51.53125 44.71875 
Q 48 40.375 41.703125 38.8125 
Q 48.828125 37.15625 52.796875 32.3125 
Q 56.78125 27.484375 56.78125 20.515625 
Q 56.78125 9.90625 50.3125 4.234375 
Q 43.84375 -1.421875 31.78125 -1.421875 
Q 19.734375 -1.421875 13.25 4.234375 
Q 6.78125 9.90625 6.78125 20.515625 
Q 6.78125 27.484375 10.78125 32.3125 
Q 14.796875 37.15625 21.921875 38.8125 
z
M 18.3125 54.390625 
Q 18.3125 48.734375 21.84375 45.5625 
Q 25.390625 42.390625 31.78125 42.390625 
Q 38.140625 42.390625 41.71875 45.5625 
Q 45.3125 48.734375 45.3125 54.390625 
Q 45.3125 60.0625 41.71875 63.234375 
Q 38.140625 66.40625 31.78125 66.40625 
Q 25.390625 66.40625 21.84375 63.234375 
Q 18.3125 60.0625 18.3125 54.390625 
z
" id="DejaVuSans-56"/>
      </defs>
      <g transform="translate(40.571625 104.447634)scale(0.14 -0.14)">
       <use xlink:href="#DejaVuSans-48"/>
       <use x="63.623047" xlink:href="#DejaVuSans-46"/>
       <use x="95.410156" xlink:href="#DejaVuSans-56"/>
      </g>
     </g>
    </g>
    <g id="ytick_6">
     <g id="line2d_13">
      <g>
       <use style="stroke:#000000;stroke-width:1.5;" x="78.336" xlink:href="#m311a275e51" y="52.939636"/>
      </g>
     </g>
     <g id="text_13">
      <!-- 1.0 -->
      <g transform="translate(40.571625 58.258543)scale(0.14 -0.14)">
       <use xlink:href="#DejaVuSans-49"/>
       <use x="63.623047" xlink:href="#DejaVuSans-46"/>
       <use x="95.410156" xlink:href="#DejaVuSans-48"/>
      </g>
     </g>
    </g>
   </g>
   <g id="line2d_14">
    <path clip-path="url(#p5037010da3)" d="M 92.578909 282.292364 
L 94.952727 282.238304 
L 97.326545 282.181451 
L 99.700364 282.12161 
L 102.074182 282.058569 
L 104.448 281.992095 
L 106.821818 281.921937 
L 109.195636 281.847816 
L 111.569455 281.769431 
L 113.943273 281.686448 
L 116.317091 281.598502 
L 118.690909 281.505191 
L 121.064727 281.406071 
L 123.438545 281.300652 
L 125.812364 281.18839 
L 128.186182 281.068683 
L 130.56 280.94086 
L 132.933818 280.804175 
L 135.307636 280.657793 
L 137.681455 280.500779 
L 140.055273 280.332084 
L 142.429091 280.150527 
L 144.802909 279.954773 
L 147.176727 279.743314 
L 149.550545 279.514435 
L 151.924364 279.266182 
L 154.298182 278.996322 
L 156.672 278.702293 
L 159.045818 278.381148 
L 161.419636 278.029476 
L 163.793455 277.643322 
L 166.167273 277.218074 
L 168.541091 276.748334 
L 170.914909 276.227748 
L 173.288727 275.648805 
L 175.662545 275.002573 
L 178.036364 274.278375 
L 180.410182 273.463365 
L 182.784 272.541994 
L 185.157818 271.495313 
L 187.531636 270.300064 
L 189.905455 268.927484 
L 192.279273 267.34172 
L 194.653091 265.497714 
L 197.026909 263.338342 
L 199.400727 260.790545 
L 201.774545 257.760039 
L 204.148364 254.124079 
L 206.522182 249.721562 
L 208.896 244.339636 
L 211.269818 237.696 
L 213.643636 229.416823 
L 216.017455 219.012772 
L 218.391273 205.862978 
L 220.765091 189.235314 
L 223.138909 168.412364 
L 225.512727 143.064692 
L 227.886545 114.072257 
L 230.260364 84.794182 
L 232.634182 61.822154 
L 235.008 52.939636 
L 237.381818 61.822154 
L 239.755636 84.794182 
L 242.129455 114.072257 
L 244.503273 143.064692 
L 246.877091 168.412364 
L 249.250909 189.235314 
L 251.624727 205.862978 
L 253.998545 219.012772 
L 256.372364 229.416823 
L 258.746182 237.696 
L 261.12 244.339636 
L 263.493818 249.721562 
L 265.867636 254.124079 
L 268.241455 257.760039 
L 270.615273 260.790545 
L 272.989091 263.338342 
L 275.362909 265.497714 
L 277.736727 267.34172 
L 280.110545 268.927484 
L 282.484364 270.300064 
L 284.858182 271.495313 
L 287.232 272.541994 
L 289.605818 273.463365 
L 291.979636 274.278375 
L 294.353455 275.002573 
L 296.727273 275.648805 
L 299.101091 276.227748 
L 301.474909 276.748334 
L 303.848727 277.218074 
L 306.222545 277.643322 
L 308.596364 278.029476 
L 310.970182 278.381148 
L 313.344 278.702293 
L 315.717818 278.996322 
L 318.091636 279.266182 
L 320.465455 279.514435 
L 322.839273 279.743314 
L 325.213091 279.954773 
L 327.586909 280.150527 
L 329.960727 280.332084 
L 332.334545 280.500779 
L 334.708364 280.657793 
L 337.082182 280.804175 
L 339.456 280.94086 
L 341.829818 281.068683 
L 344.203636 281.18839 
L 346.577455 281.300652 
L 348.951273 281.406071 
L 351.325091 281.505191 
L 353.698909 281.598502 
L 356.072727 281.686448 
L 358.446545 281.769431 
L 360.820364 281.847816 
L 363.194182 281.921937 
L 365.568 281.992095 
L 367.941818 282.058569 
L 370.315636 282.12161 
L 372.689455 282.181451 
L 375.063273 282.238304 
L 377.437091 282.292364 
" style="fill:none;stroke:#1f77b4;stroke-linecap:square;stroke-width:1.5;"/>
   </g>
   <g id="line2d_15">
    <path clip-path="url(#p5037010da3)" d="M 92.578909 277.643322 
L 94.952727 277.435902 
L 97.326545 277.218074 
L 99.700364 276.989138 
L 102.074182 276.748334 
L 104.448 276.494836 
L 106.821818 276.227748 
L 109.195636 275.946093 
L 111.569455 275.648805 
L 113.943273 275.334722 
L 116.317091 275.002573 
L 118.690909 274.650966 
L 121.064727 274.278375 
L 123.438545 273.883122 
L 125.812364 273.463365 
L 128.186182 273.01707 
L 130.56 272.541994 
L 132.933818 272.035658 
L 135.307636 271.495313 
L 137.681455 270.917912 
L 140.055273 270.300064 
L 142.429091 269.637993 
L 144.802909 268.927484 
L 147.176727 268.163821 
L 149.550545 267.34172 
L 151.924364 266.455245 
L 154.298182 265.497714 
L 156.672 264.461588 
L 159.045818 263.338342 
L 161.419636 262.118319 
L 163.793455 260.790545 
L 166.167273 259.342535 
L 168.541091 257.760039 
L 170.914909 256.026773 
L 173.288727 254.124079 
L 175.662545 252.030545 
L 178.036364 249.721562 
L 180.410182 247.168802 
L 182.784 244.339636 
L 185.157818 241.196467 
L 187.531636 237.696 
L 189.905455 233.788463 
L 192.279273 229.416823 
L 194.653091 224.516079 
L 197.026909 219.012772 
L 199.400727 212.824951 
L 201.774545 205.862978 
L 204.148364 198.031762 
L 206.522182 189.235314 
L 208.896 179.384885 
L 211.269818 168.412364 
L 213.643636 156.290917 
L 216.017455 143.064692 
L 218.391273 128.888142 
L 220.765091 114.072257 
L 223.138909 99.128727 
L 225.512727 84.794182 
L 227.886545 72.008527 
L 230.260364 61.822154 
L 232.634182 55.226225 
L 235.008 52.939636 
L 237.381818 55.226225 
L 239.755636 61.822154 
L 242.129455 72.008527 
L 244.503273 84.794182 
L 246.877091 99.128727 
L 249.250909 114.072257 
L 251.624727 128.888142 
L 253.998545 143.064692 
L 256.372364 156.290917 
L 258.746182 168.412364 
L 261.12 179.384885 
L 263.493818 189.235314 
L 265.867636 198.031762 
L 268.241455 205.862978 
L 270.615273 212.824951 
L 272.989091 219.012772 
L 275.362909 224.516079 
L 277.736727 229.416823 
L 280.110545 233.788463 
L 282.484364 237.696 
L 284.858182 241.196467 
L 287.232 244.339636 
L 289.605818 247.168802 
L 291.979636 249.721562 
L 294.353455 252.030545 
L 296.727273 254.124079 
L 299.101091 256.026773 
L 301.474909 257.760039 
L 303.848727 259.342535 
L 306.222545 260.790545 
L 308.596364 262.118319 
L 310.970182 263.338342 
L 313.344 264.461588 
L 315.717818 265.497714 
L 318.091636 266.455245 
L 320.465455 267.34172 
L 322.839273 268.163821 
L 325.213091 268.927484 
L 327.586909 269.637993 
L 329.960727 270.300064 
L 332.334545 270.917912 
L 334.708364 271.495313 
L 337.082182 272.035658 
L 339.456 272.541994 
L 341.829818 273.01707 
L 344.203636 273.463365 
L 346.577455 273.883122 
L 348.951273 274.278375 
L 351.325091 274.650966 
L 353.698909 275.002573 
L 356.072727 275.334722 
L 358.446545 275.648805 
L 360.820364 275.946093 
L 363.194182 276.227748 
L 365.568 276.494836 
L 367.941818 276.748334 
L 370.315636 276.989138 
L 372.689455 277.218074 
L 375.063273 277.435902 
L 377.437091 277.643322 
" style="fill:none;stroke:#ff7f0e;stroke-linecap:square;stroke-width:1.5;"/>
   </g>
   <g id="line2d_16">
    <path clip-path="url(#p5037010da3)" d="M 92.578909 260.790545 
L 94.952727 260.082416 
L 97.326545 259.342535 
L 99.700364 258.569064 
L 102.074182 257.760039 
L 104.448 256.913359 
L 106.821818 256.026773 
L 109.195636 255.097873 
L 111.569455 254.124079 
L 113.943273 253.102624 
L 116.317091 252.030545 
L 118.690909 250.904662 
L 121.064727 249.721562 
L 123.438545 248.477585 
L 125.812364 247.168802 
L 128.186182 245.790995 
L 130.56 244.339636 
L 132.933818 242.809866 
L 135.307636 241.196467 
L 137.681455 239.493845 
L 140.055273 237.696 
L 142.429091 235.796501 
L 144.802909 233.788463 
L 147.176727 231.664525 
L 149.550545 229.416823 
L 151.924364 227.036979 
L 154.298182 224.516079 
L 156.672 221.844673 
L 159.045818 219.012772 
L 161.419636 216.009865 
L 163.793455 212.824951 
L 166.167273 209.446588 
L 168.541091 205.862978 
L 170.914909 202.062078 
L 173.288727 198.031762 
L 175.662545 193.760035 
L 178.036364 189.235314 
L 180.410182 184.44679 
L 182.784 179.384885 
L 185.157818 174.041831 
L 187.531636 168.412364 
L 189.905455 162.494576 
L 192.279273 156.290917 
L 194.653091 149.809355 
L 197.026909 143.064692 
L 199.400727 136.08 
L 201.774545 128.888142 
L 204.148364 121.533278 
L 206.522182 114.072257 
L 208.896 106.575721 
L 211.269818 99.128727 
L 213.643636 91.830659 
L 216.017455 84.794182 
L 218.391273 78.143038 
L 220.765091 72.008527 
L 223.138909 66.524663 
L 225.512727 61.822154 
L 227.886545 58.021566 
L 230.260364 55.226225 
L 232.634182 53.51556 
L 235.008 52.939636 
L 237.381818 53.51556 
L 239.755636 55.226225 
L 242.129455 58.021566 
L 244.503273 61.822154 
L 246.877091 66.524663 
L 249.250909 72.008527 
L 251.624727 78.143038 
L 253.998545 84.794182 
L 256.372364 91.830659 
L 258.746182 99.128727 
L 261.12 106.575721 
L 263.493818 114.072257 
L 265.867636 121.533278 
L 268.241455 128.888142 
L 270.615273 136.08 
L 272.989091 143.064692 
L 275.362909 149.809355 
L 277.736727 156.290917 
L 280.110545 162.494576 
L 282.484364 168.412364 
L 284.858182 174.041831 
L 287.232 179.384885 
L 289.605818 184.44679 
L 291.979636 189.235314 
L 294.353455 193.760035 
L 296.727273 198.031762 
L 299.101091 202.062078 
L 301.474909 205.862978 
L 303.848727 209.446588 
L 306.222545 212.824951 
L 308.596364 216.009865 
L 310.970182 219.012772 
L 313.344 221.844673 
L 315.717818 224.516079 
L 318.091636 227.036979 
L 320.465455 229.416823 
L 322.839273 231.664525 
L 325.213091 233.788463 
L 327.586909 235.796501 
L 329.960727 237.696 
L 332.334545 239.493845 
L 334.708364 241.196467 
L 337.082182 242.809866 
L 339.456 244.339636 
L 341.829818 245.790995 
L 344.203636 247.168802 
L 346.577455 248.477585 
L 348.951273 249.721562 
L 351.325091 250.904662 
L 353.698909 252.030545 
L 356.072727 253.102624 
L 358.446545 254.124079 
L 360.820364 255.097873 
L 363.194182 256.026773 
L 365.568 256.913359 
L 367.941818 257.760039 
L 370.315636 258.569064 
L 372.689455 259.342535 
L 375.063273 260.082416 
L 377.437091 260.790545 
" style="fill:none;stroke:#2ca02c;stroke-linecap:square;stroke-width:1.5;"/>
   </g>
   <g id="line2d_17">
    <path clip-path="url(#p5037010da3)" d="M 78.336 168.412364 
L 391.68 168.412364 
" style="fill:none;stroke:#000000;stroke-linecap:square;stroke-width:0.5;"/>
   </g>
   <g id="patch_3">
    <path d="M 78.336 293.76 
L 78.336 41.472 
" style="fill:none;stroke:#000000;stroke-linecap:square;stroke-linejoin:miter;stroke-width:1.5;"/>
   </g>
   <g id="patch_4">
    <path d="M 391.68 293.76 
L 391.68 41.472 
" style="fill:none;stroke:#000000;stroke-linecap:square;stroke-linejoin:miter;stroke-width:1.5;"/>
   </g>
   <g id="patch_5">
    <path d="M 78.336 293.76 
L 391.68 293.76 
" style="fill:none;stroke:#000000;stroke-linecap:square;stroke-linejoin:miter;stroke-width:1.5;"/>
   </g>
   <g id="patch_6">
    <path d="M 78.336 41.472 
L 391.68 41.472 
" style="fill:none;stroke:#000000;stroke-linecap:square;stroke-linejoin:miter;stroke-width:1.5;"/>
   </g>
   <g id="legend_1">
    <g id="patch_7">
     <path d="M 314.815625 114.320125 
L 381.88 114.320125 
Q 384.68 114.320125 384.68 111.520125 
L 384.68 51.272 
Q 384.68 48.472 381.88 48.472 
L 314.815625 48.472 
Q 312.015625 48.472 312.015625 51.272 
L 312.015625 111.520125 
Q 312.015625 114.320125 314.815625 114.320125 
z
" style="fill:none;opacity:0;"/>
    </g>
    <g id="line2d_18">
     <path d="M 317.615625 59.809812 
L 345.615625 59.809812 
" style="fill:none;stroke:#1f77b4;stroke-linecap:square;stroke-width:1.5;"/>
    </g>
    <g id="line2d_19"/>
    <g id="text_14">
     <!-- 0.5 -->
     <defs>
      <path d="M 10.796875 72.90625 
L 49.515625 72.90625 
L 49.515625 64.59375 
L 19.828125 64.59375 
L 19.828125 46.734375 
Q 21.96875 47.46875 24.109375 47.828125 
Q 26.265625 48.1875 28.421875 48.1875 
Q 40.625 48.1875 47.75 41.5 
Q 54.890625 34.8125 54.890625 23.390625 
Q 54.890625 11.625 47.5625 5.09375 
Q 40.234375 -1.421875 26.90625 -1.421875 
Q 22.3125 -1.421875 17.546875 -0.640625 
Q 12.796875 0.140625 7.71875 1.703125 
L 7.71875 11.625 
Q 12.109375 9.234375 16.796875 8.0625 
Q 21.484375 6.890625 26.703125 6.890625 
Q 35.15625 6.890625 40.078125 11.328125 
Q 45.015625 15.765625 45.015625 23.390625 
Q 45.015625 31 40.078125 35.4375 
Q 35.15625 39.890625 26.703125 39.890625 
Q 22.75 39.890625 18.8125 39.015625 
Q 14.890625 38.140625 10.796875 36.28125 
z
" id="DejaVuSans-53"/>
     </defs>
     <g transform="translate(356.815625 64.709812)scale(0.14 -0.14)">
      <use xlink:href="#DejaVuSans-48"/>
      <use x="63.623047" xlink:href="#DejaVuSans-46"/>
      <use x="95.410156" xlink:href="#DejaVuSans-53"/>
     </g>
    </g>
    <g id="line2d_20">
     <path d="M 317.615625 80.359187 
L 345.615625 80.359187 
" style="fill:none;stroke:#ff7f0e;stroke-linecap:square;stroke-width:1.5;"/>
    </g>
    <g id="line2d_21"/>
    <g id="text_15">
     <!-- 1.0 -->
     <g transform="translate(356.815625 85.259187)scale(0.14 -0.14)">
      <use xlink:href="#DejaVuSans-49"/>
      <use x="63.623047" xlink:href="#DejaVuSans-46"/>
      <use x="95.410156" xlink:href="#DejaVuSans-48"/>
     </g>
    </g>
    <g id="line2d_22">
     <path d="M 317.615625 100.908562 
L 345.615625 100.908562 
" style="fill:none;stroke:#2ca02c;stroke-linecap:square;stroke-width:1.5;"/>
    </g>
    <g id="line2d_23"/>
    <g id="text_16">
     <!-- 2.0 -->
     <g transform="translate(356.815625 105.808562)scale(0.14 -0.14)">
      <use xlink:href="#DejaVuSans-50"/>
      <use x="63.623047" xlink:href="#DejaVuSans-46"/>
      <use x="95.410156" xlink:href="#DejaVuSans-48"/>
     </g>
    </g>
   </g>
  </g>
 </g>
 <defs>
  <clipPath id="p5037010da3">
   <rect height="252.288" width="313.344" x="78.336" y="41.472"/>
  </clipPath>
 </defs>
</svg>
