<?xml version="1.0" encoding="utf-8" standalone="no"?>
<!DOCTYPE svg PUBLIC "-//W3C//DTD SVG 1.1//EN"
  "http://www.w3.org/Graphics/SVG/1.1/DTD/svg11.dtd">
<!-- Created with matplotlib (https://matplotlib.org/) -->
<svg height="345.6pt" version="1.1" viewBox="0 0 460.8 345.6" width="460.8pt" xmlns="http://www.w3.org/2000/svg" xmlns:xlink="http://www.w3.org/1999/xlink">
 <defs>
  <style type="text/css">
*{stroke-linecap:butt;stroke-linejoin:round;}
  </style>
 </defs>
 <g id="figure_1">
  <g id="patch_1">
   <path d="M 0 345.6 
L 460.8 345.6 
L 460.8 0 
L 0 0 
z
" style="fill:#ffffff;"/>
  </g>
  <g id="axes_1">
   <g id="patch_2">
    <path d="M 57.6 307.584 
L 414.72 307.584 
L 414.72 41.472 
L 57.6 41.472 
z
" style="fill:#ffffff;"/>
   </g>
   <g id="matplotlib.axis_1">
    <g id="xtick_1">
     <g id="line2d_1">
      <defs>
       <path d="M 0 0 
L 0 3.5 
" id="mf545fb7b20" style="stroke:#000000;stroke-width:0.8;"/>
      </defs>
      <g>
       <use style="stroke:#000000;stroke-width:0.8;" x="73.832727" xlink:href="#mf545fb7b20" y="307.584"/>
      </g>
     </g>
     <g id="text_1">
      <!-- −3 -->
      <defs>
       <path d="M 10.59375 35.5 
L 73.1875 35.5 
L 73.1875 27.203125 
L 10.59375 27.203125 
z
" id="DejaVuSans-8722"/>
       <path d="M 40.578125 39.3125 
Q 47.65625 37.796875 51.625 33 
Q 55.609375 28.21875 55.609375 21.1875 
Q 55.609375 10.40625 48.1875 4.484375 
Q 40.765625 -1.421875 27.09375 -1.421875 
Q 22.515625 -1.421875 17.65625 -0.515625 
Q 12.796875 0.390625 7.625 2.203125 
L 7.625 11.71875 
Q 11.71875 9.328125 16.59375 8.109375 
Q 21.484375 6.890625 26.8125 6.890625 
Q 36.078125 6.890625 40.9375 10.546875 
Q 45.796875 14.203125 45.796875 21.1875 
Q 45.796875 27.640625 41.28125 31.265625 
Q 36.765625 34.90625 28.71875 34.90625 
L 20.21875 34.90625 
L 20.21875 43.015625 
L 29.109375 43.015625 
Q 36.375 43.015625 40.234375 45.921875 
Q 44.09375 48.828125 44.09375 54.296875 
Q 44.09375 59.90625 40.109375 62.90625 
Q 36.140625 65.921875 28.71875 65.921875 
Q 24.65625 65.921875 20.015625 65.03125 
Q 15.375 64.15625 9.8125 62.3125 
L 9.8125 71.09375 
Q 15.4375 72.65625 20.34375 73.4375 
Q 25.25 74.21875 29.59375 74.21875 
Q 40.828125 74.21875 47.359375 69.109375 
Q 53.90625 64.015625 53.90625 55.328125 
Q 53.90625 49.265625 50.4375 45.09375 
Q 46.96875 40.921875 40.578125 39.3125 
z
" id="DejaVuSans-51"/>
      </defs>
      <g transform="translate(66.461634 322.182437)scale(0.1 -0.1)">
       <use xlink:href="#DejaVuSans-8722"/>
       <use x="83.789062" xlink:href="#DejaVuSans-51"/>
      </g>
     </g>
    </g>
    <g id="xtick_2">
     <g id="line2d_2">
      <g>
       <use style="stroke:#000000;stroke-width:0.8;" x="127.941818" xlink:href="#mf545fb7b20" y="307.584"/>
      </g>
     </g>
     <g id="text_2">
      <!-- −2 -->
      <defs>
       <path d="M 19.1875 8.296875 
L 53.609375 8.296875 
L 53.609375 0 
L 7.328125 0 
L 7.328125 8.296875 
Q 12.9375 14.109375 22.625 23.890625 
Q 32.328125 33.6875 34.8125 36.53125 
Q 39.546875 41.84375 41.421875 45.53125 
Q 43.3125 49.21875 43.3125 52.78125 
Q 43.3125 58.59375 39.234375 62.25 
Q 35.15625 65.921875 28.609375 65.921875 
Q 23.96875 65.921875 18.8125 64.3125 
Q 13.671875 62.703125 7.8125 59.421875 
L 7.8125 69.390625 
Q 13.765625 71.78125 18.9375 73 
Q 24.125 74.21875 28.421875 74.21875 
Q 39.75 74.21875 46.484375 68.546875 
Q 53.21875 62.890625 53.21875 53.421875 
Q 53.21875 48.921875 51.53125 44.890625 
Q 49.859375 40.875 45.40625 35.40625 
Q 44.1875 33.984375 37.640625 27.21875 
Q 31.109375 20.453125 19.1875 8.296875 
z
" id="DejaVuSans-50"/>
      </defs>
      <g transform="translate(120.570724 322.182437)scale(0.1 -0.1)">
       <use xlink:href="#DejaVuSans-8722"/>
       <use x="83.789062" xlink:href="#DejaVuSans-50"/>
      </g>
     </g>
    </g>
    <g id="xtick_3">
     <g id="line2d_3">
      <g>
       <use style="stroke:#000000;stroke-width:0.8;" x="182.050909" xlink:href="#mf545fb7b20" y="307.584"/>
      </g>
     </g>
     <g id="text_3">
      <!-- −1 -->
      <defs>
       <path d="M 12.40625 8.296875 
L 28.515625 8.296875 
L 28.515625 63.921875 
L 10.984375 60.40625 
L 10.984375 69.390625 
L 28.421875 72.90625 
L 38.28125 72.90625 
L 38.28125 8.296875 
L 54.390625 8.296875 
L 54.390625 0 
L 12.40625 0 
z
" id="DejaVuSans-49"/>
      </defs>
      <g transform="translate(174.679815 322.182437)scale(0.1 -0.1)">
       <use xlink:href="#DejaVuSans-8722"/>
       <use x="83.789062" xlink:href="#DejaVuSans-49"/>
      </g>
     </g>
    </g>
    <g id="xtick_4">
     <g id="line2d_4">
      <g>
       <use style="stroke:#000000;stroke-width:0.8;" x="236.16" xlink:href="#mf545fb7b20" y="307.584"/>
      </g>
     </g>
     <g id="text_4">
      <!-- 0 -->
      <defs>
       <path d="M 31.78125 66.40625 
Q 24.171875 66.40625 20.328125 58.90625 
Q 16.5 51.421875 16.5 36.375 
Q 16.5 21.390625 20.328125 13.890625 
Q 24.171875 6.390625 31.78125 6.390625 
Q 39.453125 6.390625 43.28125 13.890625 
Q 47.125 21.390625 47.125 36.375 
Q 47.125 51.421875 43.28125 58.90625 
Q 39.453125 66.40625 31.78125 66.40625 
z
M 31.78125 74.21875 
Q 44.046875 74.21875 50.515625 64.515625 
Q 56.984375 54.828125 56.984375 36.375 
Q 56.984375 17.96875 50.515625 8.265625 
Q 44.046875 -1.421875 31.78125 -1.421875 
Q 19.53125 -1.421875 13.0625 8.265625 
Q 6.59375 17.96875 6.59375 36.375 
Q 6.59375 54.828125 13.0625 64.515625 
Q 19.53125 74.21875 31.78125 74.21875 
z
" id="DejaVuSans-48"/>
      </defs>
      <g transform="translate(232.97875 322.182437)scale(0.1 -0.1)">
       <use xlink:href="#DejaVuSans-48"/>
      </g>
     </g>
    </g>
    <g id="xtick_5">
     <g id="line2d_5">
      <g>
       <use style="stroke:#000000;stroke-width:0.8;" x="290.269091" xlink:href="#mf545fb7b20" y="307.584"/>
      </g>
     </g>
     <g id="text_5">
      <!-- 1 -->
      <g transform="translate(287.087841 322.182437)scale(0.1 -0.1)">
       <use xlink:href="#DejaVuSans-49"/>
      </g>
     </g>
    </g>
    <g id="xtick_6">
     <g id="line2d_6">
      <g>
       <use style="stroke:#000000;stroke-width:0.8;" x="344.378182" xlink:href="#mf545fb7b20" y="307.584"/>
      </g>
     </g>
     <g id="text_6">
      <!-- 2 -->
      <g transform="translate(341.196932 322.182437)scale(0.1 -0.1)">
       <use xlink:href="#DejaVuSans-50"/>
      </g>
     </g>
    </g>
    <g id="xtick_7">
     <g id="line2d_7">
      <g>
       <use style="stroke:#000000;stroke-width:0.8;" x="398.487273" xlink:href="#mf545fb7b20" y="307.584"/>
      </g>
     </g>
     <g id="text_7">
      <!-- 3 -->
      <g transform="translate(395.306023 322.182437)scale(0.1 -0.1)">
       <use xlink:href="#DejaVuSans-51"/>
      </g>
     </g>
    </g>
   </g>
   <g id="matplotlib.axis_2">
    <g id="ytick_1">
     <g id="line2d_8">
      <defs>
       <path d="M 0 0 
L -3.5 0 
" id="m80cc049b8e" style="stroke:#000000;stroke-width:0.8;"/>
      </defs>
      <g>
       <use style="stroke:#000000;stroke-width:0.8;" x="57.6" xlink:href="#m80cc049b8e" y="297.168"/>
      </g>
     </g>
     <g id="text_8">
      <!-- 0.0 -->
      <defs>
       <path d="M 10.6875 12.40625 
L 21 12.40625 
L 21 0 
L 10.6875 0 
z
" id="DejaVuSans-46"/>
      </defs>
      <g transform="translate(34.696875 300.967219)scale(0.1 -0.1)">
       <use xlink:href="#DejaVuSans-48"/>
       <use x="63.623047" xlink:href="#DejaVuSans-46"/>
       <use x="95.410156" xlink:href="#DejaVuSans-48"/>
      </g>
     </g>
    </g>
    <g id="ytick_2">
     <g id="line2d_9">
      <g>
       <use style="stroke:#000000;stroke-width:0.8;" x="57.6" xlink:href="#m80cc049b8e" y="266.718"/>
      </g>
     </g>
     <g id="text_9">
      <!-- 0.5 -->
      <defs>
       <path d="M 10.796875 72.90625 
L 49.515625 72.90625 
L 49.515625 64.59375 
L 19.828125 64.59375 
L 19.828125 46.734375 
Q 21.96875 47.46875 24.109375 47.828125 
Q 26.265625 48.1875 28.421875 48.1875 
Q 40.625 48.1875 47.75 41.5 
Q 54.890625 34.8125 54.890625 23.390625 
Q 54.890625 11.625 47.5625 5.09375 
Q 40.234375 -1.421875 26.90625 -1.421875 
Q 22.3125 -1.421875 17.546875 -0.640625 
Q 12.796875 0.140625 7.71875 1.703125 
L 7.71875 11.625 
Q 12.109375 9.234375 16.796875 8.0625 
Q 21.484375 6.890625 26.703125 6.890625 
Q 35.15625 6.890625 40.078125 11.328125 
Q 45.015625 15.765625 45.015625 23.390625 
Q 45.015625 31 40.078125 35.4375 
Q 35.15625 39.890625 26.703125 39.890625 
Q 22.75 39.890625 18.8125 39.015625 
Q 14.890625 38.140625 10.796875 36.28125 
z
" id="DejaVuSans-53"/>
      </defs>
      <g transform="translate(34.696875 270.517219)scale(0.1 -0.1)">
       <use xlink:href="#DejaVuSans-48"/>
       <use x="63.623047" xlink:href="#DejaVuSans-46"/>
       <use x="95.410156" xlink:href="#DejaVuSans-53"/>
      </g>
     </g>
    </g>
    <g id="ytick_3">
     <g id="line2d_10">
      <g>
       <use style="stroke:#000000;stroke-width:0.8;" x="57.6" xlink:href="#m80cc049b8e" y="236.268"/>
      </g>
     </g>
     <g id="text_10">
      <!-- 1.0 -->
      <g transform="translate(34.696875 240.067219)scale(0.1 -0.1)">
       <use xlink:href="#DejaVuSans-49"/>
       <use x="63.623047" xlink:href="#DejaVuSans-46"/>
       <use x="95.410156" xlink:href="#DejaVuSans-48"/>
      </g>
     </g>
    </g>
    <g id="ytick_4">
     <g id="line2d_11">
      <g>
       <use style="stroke:#000000;stroke-width:0.8;" x="57.6" xlink:href="#m80cc049b8e" y="205.818"/>
      </g>
     </g>
     <g id="text_11">
      <!-- 1.5 -->
      <g transform="translate(34.696875 209.617219)scale(0.1 -0.1)">
       <use xlink:href="#DejaVuSans-49"/>
       <use x="63.623047" xlink:href="#DejaVuSans-46"/>
       <use x="95.410156" xlink:href="#DejaVuSans-53"/>
      </g>
     </g>
    </g>
    <g id="ytick_5">
     <g id="line2d_12">
      <g>
       <use style="stroke:#000000;stroke-width:0.8;" x="57.6" xlink:href="#m80cc049b8e" y="175.368"/>
      </g>
     </g>
     <g id="text_12">
      <!-- 2.0 -->
      <g transform="translate(34.696875 179.167219)scale(0.1 -0.1)">
       <use xlink:href="#DejaVuSans-50"/>
       <use x="63.623047" xlink:href="#DejaVuSans-46"/>
       <use x="95.410156" xlink:href="#DejaVuSans-48"/>
      </g>
     </g>
    </g>
    <g id="ytick_6">
     <g id="line2d_13">
      <g>
       <use style="stroke:#000000;stroke-width:0.8;" x="57.6" xlink:href="#m80cc049b8e" y="144.918"/>
      </g>
     </g>
     <g id="text_13">
      <!-- 2.5 -->
      <g transform="translate(34.696875 148.717219)scale(0.1 -0.1)">
       <use xlink:href="#DejaVuSans-50"/>
       <use x="63.623047" xlink:href="#DejaVuSans-46"/>
       <use x="95.410156" xlink:href="#DejaVuSans-53"/>
      </g>
     </g>
    </g>
    <g id="ytick_7">
     <g id="line2d_14">
      <g>
       <use style="stroke:#000000;stroke-width:0.8;" x="57.6" xlink:href="#m80cc049b8e" y="114.468"/>
      </g>
     </g>
     <g id="text_14">
      <!-- 3.0 -->
      <g transform="translate(34.696875 118.267219)scale(0.1 -0.1)">
       <use xlink:href="#DejaVuSans-51"/>
       <use x="63.623047" xlink:href="#DejaVuSans-46"/>
       <use x="95.410156" xlink:href="#DejaVuSans-48"/>
      </g>
     </g>
    </g>
    <g id="ytick_8">
     <g id="line2d_15">
      <g>
       <use style="stroke:#000000;stroke-width:0.8;" x="57.6" xlink:href="#m80cc049b8e" y="84.018"/>
      </g>
     </g>
     <g id="text_15">
      <!-- 3.5 -->
      <g transform="translate(34.696875 87.817219)scale(0.1 -0.1)">
       <use xlink:href="#DejaVuSans-51"/>
       <use x="63.623047" xlink:href="#DejaVuSans-46"/>
       <use x="95.410156" xlink:href="#DejaVuSans-53"/>
      </g>
     </g>
    </g>
    <g id="ytick_9">
     <g id="line2d_16">
      <g>
       <use style="stroke:#000000;stroke-width:0.8;" x="57.6" xlink:href="#m80cc049b8e" y="53.568"/>
      </g>
     </g>
     <g id="text_16">
      <!-- 4.0 -->
      <defs>
       <path d="M 37.796875 64.3125 
L 12.890625 25.390625 
L 37.796875 25.390625 
z
M 35.203125 72.90625 
L 47.609375 72.90625 
L 47.609375 25.390625 
L 58.015625 25.390625 
L 58.015625 17.1875 
L 47.609375 17.1875 
L 47.609375 0 
L 37.796875 0 
L 37.796875 17.1875 
L 4.890625 17.1875 
L 4.890625 26.703125 
z
" id="DejaVuSans-52"/>
      </defs>
      <g transform="translate(34.696875 57.367219)scale(0.1 -0.1)">
       <use xlink:href="#DejaVuSans-52"/>
       <use x="63.623047" xlink:href="#DejaVuSans-46"/>
       <use x="95.410156" xlink:href="#DejaVuSans-48"/>
      </g>
     </g>
    </g>
   </g>
   <g id="line2d_17">
    <path clip-path="url(#pf3462ac93f)" d="M 73.832727 295.488 
L 76.538182 295.430978 
L 79.243636 295.37101 
L 81.949091 295.30789 
L 84.654545 295.241394 
L 87.36 295.171279 
L 90.065455 295.097276 
L 92.770909 295.019094 
L 95.476364 294.936413 
L 98.181818 294.848883 
L 100.887273 294.756119 
L 103.592727 294.657695 
L 106.298182 294.553144 
L 109.003636 294.441948 
L 111.709091 294.323535 
L 114.414545 294.197268 
L 117.12 294.062442 
L 119.825455 293.918267 
L 122.530909 293.763864 
L 125.236364 293.598246 
L 127.941818 293.420308 
L 130.647273 293.228802 
L 133.352727 293.022323 
L 136.058182 292.799277 
L 138.763636 292.557856 
L 141.469091 292.296 
L 144.174545 292.011353 
L 146.88 291.701214 
L 149.585455 291.362471 
L 152.290909 290.991529 
L 154.996364 290.584216 
L 157.701818 290.135667 
L 160.407273 289.640188 
L 163.112727 289.091077 
L 165.818182 288.480411 
L 168.523636 287.798769 
L 171.229091 287.034889 
L 173.934545 286.17522 
L 176.64 285.203363 
L 179.345455 284.09933 
L 182.050909 282.838588 
L 184.756364 281.390798 
L 187.461818 279.718143 
L 190.167273 277.773096 
L 192.872727 275.495402 
L 195.578182 272.808 
L 198.283636 269.611439 
L 200.989091 265.776247 
L 203.694545 261.132497 
L 206.4 255.455671 
L 209.105455 248.448 
L 211.810909 239.71517 
L 214.516364 228.741034 
L 217.221818 214.870703 
L 219.927273 197.331934 
L 222.632727 175.368 
L 225.338182 148.631415 
L 228.043636 118.050353 
L 230.749091 87.168 
L 233.454545 62.937231 
L 236.16 53.568 
L 238.865455 62.937231 
L 241.570909 87.168 
L 244.276364 118.050353 
L 246.981818 148.631415 
L 249.687273 175.368 
L 252.392727 197.331934 
L 255.098182 214.870703 
L 257.803636 228.741034 
L 260.509091 239.71517 
L 263.214545 248.448 
L 265.92 255.455671 
L 268.625455 261.132497 
L 271.330909 265.776247 
L 274.036364 269.611439 
L 276.741818 272.808 
L 279.447273 275.495402 
L 282.152727 277.773096 
L 284.858182 279.718143 
L 287.563636 281.390798 
L 290.269091 282.838588 
L 292.974545 284.09933 
L 295.68 285.203363 
L 298.385455 286.17522 
L 301.090909 287.034889 
L 303.796364 287.798769 
L 306.501818 288.480411 
L 309.207273 289.091077 
L 311.912727 289.640188 
L 314.618182 290.135667 
L 317.323636 290.584216 
L 320.029091 290.991529 
L 322.734545 291.362471 
L 325.44 291.701214 
L 328.145455 292.011353 
L 330.850909 292.296 
L 333.556364 292.557856 
L 336.261818 292.799277 
L 338.967273 293.022323 
L 341.672727 293.228802 
L 344.378182 293.420308 
L 347.083636 293.598246 
L 349.789091 293.763864 
L 352.494545 293.918267 
L 355.2 294.062442 
L 357.905455 294.197268 
L 360.610909 294.323535 
L 363.316364 294.441948 
L 366.021818 294.553144 
L 368.727273 294.657695 
L 371.432727 294.756119 
L 374.138182 294.848883 
L 376.843636 294.936413 
L 379.549091 295.019094 
L 382.254545 295.097276 
L 384.96 295.171279 
L 387.665455 295.241394 
L 390.370909 295.30789 
L 393.076364 295.37101 
L 395.781818 295.430978 
L 398.487273 295.488 
" style="fill:none;stroke:#1f77b4;stroke-linecap:square;stroke-width:1.5;"/>
   </g>
   <g id="line2d_18">
    <path clip-path="url(#pf3462ac93f)" d="M 73.832727 293.876108 
L 76.538182 293.766715 
L 79.243636 293.651834 
L 81.949091 293.531093 
L 84.654545 293.404094 
L 87.36 293.2704 
L 90.065455 293.129538 
L 92.770909 292.980994 
L 95.476364 292.824205 
L 98.181818 292.658559 
L 100.887273 292.483385 
L 103.592727 292.297948 
L 106.298182 292.101444 
L 109.003636 291.892989 
L 111.709091 291.67161 
L 114.414545 291.436235 
L 117.12 291.185682 
L 119.825455 290.918641 
L 122.530909 290.633665 
L 125.236364 290.329145 
L 127.941818 290.003294 
L 130.647273 289.65412 
L 133.352727 289.279399 
L 136.058182 288.876645 
L 138.763636 288.443072 
L 141.469091 287.975547 
L 144.174545 287.470548 
L 146.88 286.924098 
L 149.585455 286.331701 
L 152.290909 285.688264 
L 154.996364 284.988 
L 157.701818 284.224323 
L 160.407273 283.389719 
L 163.112727 282.4756 
L 165.818182 281.472124 
L 168.523636 280.368 
L 171.229091 279.150249 
L 173.934545 277.80393 
L 176.64 276.311836 
L 179.345455 274.654137 
L 182.050909 272.808 
L 184.756364 270.747176 
L 187.461818 268.441585 
L 190.167273 265.856946 
L 192.872727 262.954517 
L 195.578182 259.691077 
L 198.283636 256.019351 
L 200.989091 251.88919 
L 203.694545 247.249967 
L 206.4 242.054878 
L 209.105455 236.268 
L 211.810909 229.875182 
L 214.516364 222.899707 
L 217.221818 215.423034 
L 219.927273 207.609176 
L 222.632727 199.728 
L 225.338182 192.168 
L 228.043636 185.424881 
L 230.749091 180.052615 
L 233.454545 176.573941 
L 236.16 175.368 
L 238.865455 176.573941 
L 241.570909 180.052615 
L 244.276364 185.424881 
L 246.981818 192.168 
L 249.687273 199.728 
L 252.392727 207.609176 
L 255.098182 215.423034 
L 257.803636 222.899707 
L 260.509091 229.875182 
L 263.214545 236.268 
L 265.92 242.054878 
L 268.625455 247.249967 
L 271.330909 251.88919 
L 274.036364 256.019351 
L 276.741818 259.691077 
L 279.447273 262.954517 
L 282.152727 265.856946 
L 284.858182 268.441585 
L 287.563636 270.747176 
L 290.269091 272.808 
L 292.974545 274.654137 
L 295.68 276.311836 
L 298.385455 277.80393 
L 301.090909 279.150249 
L 303.796364 280.368 
L 306.501818 281.472124 
L 309.207273 282.4756 
L 311.912727 283.389719 
L 314.618182 284.224323 
L 317.323636 284.988 
L 320.029091 285.688264 
L 322.734545 286.331701 
L 325.44 286.924098 
L 328.145455 287.470548 
L 330.850909 287.975547 
L 333.556364 288.443072 
L 336.261818 288.876645 
L 338.967273 289.279399 
L 341.672727 289.65412 
L 344.378182 290.003294 
L 347.083636 290.329145 
L 349.789091 290.633665 
L 352.494545 290.918641 
L 355.2 291.185682 
L 357.905455 291.436235 
L 360.610909 291.67161 
L 363.316364 291.892989 
L 366.021818 292.101444 
L 368.727273 292.297948 
L 371.432727 292.483385 
L 374.138182 292.658559 
L 376.843636 292.824205 
L 379.549091 292.980994 
L 382.254545 293.129538 
L 384.96 293.2704 
L 387.665455 293.404094 
L 390.370909 293.531093 
L 393.076364 293.651834 
L 395.781818 293.766715 
L 398.487273 293.876108 
" style="fill:none;stroke:#ff7f0e;stroke-linecap:square;stroke-width:1.5;"/>
   </g>
   <g id="line2d_19">
    <path clip-path="url(#pf3462ac93f)" d="M 73.832727 291.078 
L 76.538182 290.891267 
L 79.243636 290.696162 
L 81.949091 290.492198 
L 84.654545 290.27886 
L 87.36 290.055591 
L 90.065455 289.8218 
L 92.770909 289.57685 
L 95.476364 289.320062 
L 98.181818 289.050706 
L 100.887273 288.768 
L 103.592727 288.471106 
L 106.298182 288.159124 
L 109.003636 287.831089 
L 111.709091 287.485965 
L 114.414545 287.122639 
L 117.12 286.739918 
L 119.825455 286.336519 
L 122.530909 285.911068 
L 125.236364 285.462089 
L 127.941818 284.988 
L 130.647273 284.487105 
L 133.352727 283.957588 
L 136.058182 283.397508 
L 138.763636 282.804792 
L 141.469091 282.177231 
L 144.174545 281.512473 
L 146.88 280.808027 
L 149.585455 280.061258 
L 152.290909 279.269396 
L 154.996364 278.429538 
L 157.701818 277.538669 
L 160.407273 276.593676 
L 163.112727 275.591384 
L 165.818182 274.528595 
L 168.523636 273.402146 
L 171.229091 272.208984 
L 173.934545 270.946256 
L 176.64 269.611439 
L 179.345455 268.202483 
L 182.050909 266.718 
L 184.756364 265.157488 
L 187.461818 263.521591 
L 190.167273 261.812412 
L 192.872727 260.033854 
L 195.578182 258.192 
L 198.283636 256.295517 
L 200.989091 254.356049 
L 203.694545 252.388588 
L 206.4 250.411762 
L 209.105455 248.448 
L 211.810909 246.523509 
L 214.516364 244.668 
L 217.221818 242.914102 
L 219.927273 241.29644 
L 222.632727 239.850353 
L 225.338182 238.610308 
L 228.043636 237.608098 
L 230.749091 236.87097 
L 233.454545 236.41987 
L 236.16 236.268 
L 238.865455 236.41987 
L 241.570909 236.87097 
L 244.276364 237.608098 
L 246.981818 238.610308 
L 249.687273 239.850353 
L 252.392727 241.29644 
L 255.098182 242.914102 
L 257.803636 244.668 
L 260.509091 246.523509 
L 263.214545 248.448 
L 265.92 250.411762 
L 268.625455 252.388588 
L 271.330909 254.356049 
L 274.036364 256.295517 
L 276.741818 258.192 
L 279.447273 260.033854 
L 282.152727 261.812412 
L 284.858182 263.521591 
L 287.563636 265.157488 
L 290.269091 266.718 
L 292.974545 268.202483 
L 295.68 269.611439 
L 298.385455 270.946256 
L 301.090909 272.208984 
L 303.796364 273.402146 
L 306.501818 274.528595 
L 309.207273 275.591384 
L 311.912727 276.593676 
L 314.618182 277.538669 
L 317.323636 278.429538 
L 320.029091 279.269396 
L 322.734545 280.061258 
L 325.44 280.808027 
L 328.145455 281.512473 
L 330.850909 282.177231 
L 333.556364 282.804792 
L 336.261818 283.397508 
L 338.967273 283.957588 
L 341.672727 284.487105 
L 344.378182 284.988 
L 347.083636 285.462089 
L 349.789091 285.911068 
L 352.494545 286.336519 
L 355.2 286.739918 
L 357.905455 287.122639 
L 360.610909 287.485965 
L 363.316364 287.831089 
L 366.021818 288.159124 
L 368.727273 288.471106 
L 371.432727 288.768 
L 374.138182 289.050706 
L 376.843636 289.320062 
L 379.549091 289.57685 
L 382.254545 289.8218 
L 384.96 290.055591 
L 387.665455 290.27886 
L 390.370909 290.492198 
L 393.076364 290.696162 
L 395.781818 290.891267 
L 398.487273 291.078 
" style="fill:none;stroke:#2ca02c;stroke-linecap:square;stroke-width:1.5;"/>
   </g>
   <g id="patch_3">
    <path d="M 57.6 307.584 
L 57.6 41.472 
" style="fill:none;stroke:#000000;stroke-linecap:square;stroke-linejoin:miter;stroke-width:0.8;"/>
   </g>
   <g id="patch_4">
    <path d="M 414.72 307.584 
L 414.72 41.472 
" style="fill:none;stroke:#000000;stroke-linecap:square;stroke-linejoin:miter;stroke-width:0.8;"/>
   </g>
   <g id="patch_5">
    <path d="M 57.6 307.584 
L 414.72 307.584 
" style="fill:none;stroke:#000000;stroke-linecap:square;stroke-linejoin:miter;stroke-width:0.8;"/>
   </g>
   <g id="patch_6">
    <path d="M 57.6 41.472 
L 414.72 41.472 
" style="fill:none;stroke:#000000;stroke-linecap:square;stroke-linejoin:miter;stroke-width:0.8;"/>
   </g>
   <g id="legend_1">
    <g id="patch_7">
     <path d="M 359.816875 93.506375 
L 407.72 93.506375 
Q 409.72 93.506375 409.72 91.506375 
L 409.72 48.472 
Q 409.72 46.472 407.72 46.472 
L 359.816875 46.472 
Q 357.816875 46.472 357.816875 48.472 
L 357.816875 91.506375 
Q 357.816875 93.506375 359.816875 93.506375 
z
" style="fill:#ffffff;opacity:0.8;stroke:#cccccc;stroke-linejoin:miter;"/>
    </g>
    <g id="line2d_20">
     <path d="M 361.816875 54.570438 
L 381.816875 54.570438 
" style="fill:none;stroke:#1f77b4;stroke-linecap:square;stroke-width:1.5;"/>
    </g>
    <g id="line2d_21"/>
    <g id="text_17">
     <!-- 0.5 -->
     <g transform="translate(389.816875 58.070438)scale(0.1 -0.1)">
      <use xlink:href="#DejaVuSans-48"/>
      <use x="63.623047" xlink:href="#DejaVuSans-46"/>
      <use x="95.410156" xlink:href="#DejaVuSans-53"/>
     </g>
    </g>
    <g id="line2d_22">
     <path d="M 361.816875 69.248563 
L 381.816875 69.248563 
" style="fill:none;stroke:#ff7f0e;stroke-linecap:square;stroke-width:1.5;"/>
    </g>
    <g id="line2d_23"/>
    <g id="text_18">
     <!-- 1.0 -->
     <g transform="translate(389.816875 72.748563)scale(0.1 -0.1)">
      <use xlink:href="#DejaVuSans-49"/>
      <use x="63.623047" xlink:href="#DejaVuSans-46"/>
      <use x="95.410156" xlink:href="#DejaVuSans-48"/>
     </g>
    </g>
    <g id="line2d_24">
     <path d="M 361.816875 83.926688 
L 381.816875 83.926688 
" style="fill:none;stroke:#2ca02c;stroke-linecap:square;stroke-width:1.5;"/>
    </g>
    <g id="line2d_25"/>
    <g id="text_19">
     <!-- 2.0 -->
     <g transform="translate(389.816875 87.426688)scale(0.1 -0.1)">
      <use xlink:href="#DejaVuSans-50"/>
      <use x="63.623047" xlink:href="#DejaVuSans-46"/>
      <use x="95.410156" xlink:href="#DejaVuSans-48"/>
     </g>
    </g>
   </g>
  </g>
 </g>
 <defs>
  <clipPath id="pf3462ac93f">
   <rect height="266.112" width="357.12" x="57.6" y="41.472"/>
  </clipPath>
 </defs>
</svg>
