<?xml version="1.0" encoding="utf-8" standalone="no"?>
<!DOCTYPE svg PUBLIC "-//W3C//DTD SVG 1.1//EN"
  "http://www.w3.org/Graphics/SVG/1.1/DTD/svg11.dtd">
<!-- Created with matplotlib (https://matplotlib.org/) -->
<svg height="345.6pt" version="1.1" viewBox="0 0 460.8 345.6" width="460.8pt" xmlns="http://www.w3.org/2000/svg" xmlns:xlink="http://www.w3.org/1999/xlink">
 <defs>
  <style type="text/css">
*{stroke-linecap:butt;stroke-linejoin:round;}
  </style>
 </defs>
 <g id="figure_1">
  <g id="patch_1">
   <path d="M 0 345.6 
L 460.8 345.6 
L 460.8 0 
L 0 0 
z
" style="fill:#ffffff;"/>
  </g>
  <g id="axes_1">
   <g id="patch_2">
    <path d="M 78.336 293.76 
L 391.68 293.76 
L 391.68 41.472 
L 78.336 41.472 
z
" style="fill:#ffffff;"/>
   </g>
   <g id="matplotlib.axis_1">
    <g id="xtick_1">
     <g id="line2d_1">
      <defs>
       <path d="M 0 0 
L 0 12 
" id="mbe6b9dfcab" style="stroke:#000000;stroke-width:1.5;"/>
      </defs>
      <g>
       <use style="stroke:#000000;stroke-width:1.5;" x="78.336" xlink:href="#mbe6b9dfcab" y="293.76"/>
      </g>
     </g>
     <g id="text_1">
      <!-- −3 -->
      <defs>
       <path d="M 10.59375 35.5 
L 73.1875 35.5 
L 73.1875 27.203125 
L 10.59375 27.203125 
z
" id="DejaVuSans-8722"/>
       <path d="M 40.578125 39.3125 
Q 47.65625 37.796875 51.625 33 
Q 55.609375 28.21875 55.609375 21.1875 
Q 55.609375 10.40625 48.1875 4.484375 
Q 40.765625 -1.421875 27.09375 -1.421875 
Q 22.515625 -1.421875 17.65625 -0.515625 
Q 12.796875 0.390625 7.625 2.203125 
L 7.625 11.71875 
Q 11.71875 9.328125 16.59375 8.109375 
Q 21.484375 6.890625 26.8125 6.890625 
Q 36.078125 6.890625 40.9375 10.546875 
Q 45.796875 14.203125 45.796875 21.1875 
Q 45.796875 27.640625 41.28125 31.265625 
Q 36.765625 34.90625 28.71875 34.90625 
L 20.21875 34.90625 
L 20.21875 43.015625 
L 29.109375 43.015625 
Q 36.375 43.015625 40.234375 45.921875 
Q 44.09375 48.828125 44.09375 54.296875 
Q 44.09375 59.90625 40.109375 62.90625 
Q 36.140625 65.921875 28.71875 65.921875 
Q 24.65625 65.921875 20.015625 65.03125 
Q 15.375 64.15625 9.8125 62.3125 
L 9.8125 71.09375 
Q 15.4375 72.65625 20.34375 73.4375 
Q 25.25 74.21875 29.59375 74.21875 
Q 40.828125 74.21875 47.359375 69.109375 
Q 53.90625 64.015625 53.90625 55.328125 
Q 53.90625 49.265625 50.4375 45.09375 
Q 46.96875 40.921875 40.578125 39.3125 
z
" id="DejaVuSans-51"/>
      </defs>
      <g transform="translate(68.016469 319.897812)scale(0.14 -0.14)">
       <use xlink:href="#DejaVuSans-8722"/>
       <use x="83.789062" xlink:href="#DejaVuSans-51"/>
      </g>
     </g>
    </g>
    <g id="xtick_2">
     <g id="line2d_2">
      <g>
       <use style="stroke:#000000;stroke-width:1.5;" x="130.56" xlink:href="#mbe6b9dfcab" y="293.76"/>
      </g>
     </g>
     <g id="text_2">
      <!-- −2 -->
      <defs>
       <path d="M 19.1875 8.296875 
L 53.609375 8.296875 
L 53.609375 0 
L 7.328125 0 
L 7.328125 8.296875 
Q 12.9375 14.109375 22.625 23.890625 
Q 32.328125 33.6875 34.8125 36.53125 
Q 39.546875 41.84375 41.421875 45.53125 
Q 43.3125 49.21875 43.3125 52.78125 
Q 43.3125 58.59375 39.234375 62.25 
Q 35.15625 65.921875 28.609375 65.921875 
Q 23.96875 65.921875 18.8125 64.3125 
Q 13.671875 62.703125 7.8125 59.421875 
L 7.8125 69.390625 
Q 13.765625 71.78125 18.9375 73 
Q 24.125 74.21875 28.421875 74.21875 
Q 39.75 74.21875 46.484375 68.546875 
Q 53.21875 62.890625 53.21875 53.421875 
Q 53.21875 48.921875 51.53125 44.890625 
Q 49.859375 40.875 45.40625 35.40625 
Q 44.1875 33.984375 37.640625 27.21875 
Q 31.109375 20.453125 19.1875 8.296875 
z
" id="DejaVuSans-50"/>
      </defs>
      <g transform="translate(120.240469 319.897812)scale(0.14 -0.14)">
       <use xlink:href="#DejaVuSans-8722"/>
       <use x="83.789062" xlink:href="#DejaVuSans-50"/>
      </g>
     </g>
    </g>
    <g id="xtick_3">
     <g id="line2d_3">
      <g>
       <use style="stroke:#000000;stroke-width:1.5;" x="182.784" xlink:href="#mbe6b9dfcab" y="293.76"/>
      </g>
     </g>
     <g id="text_3">
      <!-- −1 -->
      <defs>
       <path d="M 12.40625 8.296875 
L 28.515625 8.296875 
L 28.515625 63.921875 
L 10.984375 60.40625 
L 10.984375 69.390625 
L 28.421875 72.90625 
L 38.28125 72.90625 
L 38.28125 8.296875 
L 54.390625 8.296875 
L 54.390625 0 
L 12.40625 0 
z
" id="DejaVuSans-49"/>
      </defs>
      <g transform="translate(172.464469 319.897812)scale(0.14 -0.14)">
       <use xlink:href="#DejaVuSans-8722"/>
       <use x="83.789062" xlink:href="#DejaVuSans-49"/>
      </g>
     </g>
    </g>
    <g id="xtick_4">
     <g id="line2d_4">
      <g>
       <use style="stroke:#000000;stroke-width:1.5;" x="235.008" xlink:href="#mbe6b9dfcab" y="293.76"/>
      </g>
     </g>
     <g id="text_4">
      <!-- 0 -->
      <defs>
       <path d="M 31.78125 66.40625 
Q 24.171875 66.40625 20.328125 58.90625 
Q 16.5 51.421875 16.5 36.375 
Q 16.5 21.390625 20.328125 13.890625 
Q 24.171875 6.390625 31.78125 6.390625 
Q 39.453125 6.390625 43.28125 13.890625 
Q 47.125 21.390625 47.125 36.375 
Q 47.125 51.421875 43.28125 58.90625 
Q 39.453125 66.40625 31.78125 66.40625 
z
M 31.78125 74.21875 
Q 44.046875 74.21875 50.515625 64.515625 
Q 56.984375 54.828125 56.984375 36.375 
Q 56.984375 17.96875 50.515625 8.265625 
Q 44.046875 -1.421875 31.78125 -1.421875 
Q 19.53125 -1.421875 13.0625 8.265625 
Q 6.59375 17.96875 6.59375 36.375 
Q 6.59375 54.828125 13.0625 64.515625 
Q 19.53125 74.21875 31.78125 74.21875 
z
" id="DejaVuSans-48"/>
      </defs>
      <g transform="translate(230.55425 319.897812)scale(0.14 -0.14)">
       <use xlink:href="#DejaVuSans-48"/>
      </g>
     </g>
    </g>
    <g id="xtick_5">
     <g id="line2d_5">
      <g>
       <use style="stroke:#000000;stroke-width:1.5;" x="287.232" xlink:href="#mbe6b9dfcab" y="293.76"/>
      </g>
     </g>
     <g id="text_5">
      <!-- 1 -->
      <g transform="translate(282.77825 319.897812)scale(0.14 -0.14)">
       <use xlink:href="#DejaVuSans-49"/>
      </g>
     </g>
    </g>
    <g id="xtick_6">
     <g id="line2d_6">
      <g>
       <use style="stroke:#000000;stroke-width:1.5;" x="339.456" xlink:href="#mbe6b9dfcab" y="293.76"/>
      </g>
     </g>
     <g id="text_6">
      <!-- 2 -->
      <g transform="translate(335.00225 319.897812)scale(0.14 -0.14)">
       <use xlink:href="#DejaVuSans-50"/>
      </g>
     </g>
    </g>
    <g id="xtick_7">
     <g id="line2d_7">
      <g>
       <use style="stroke:#000000;stroke-width:1.5;" x="391.68" xlink:href="#mbe6b9dfcab" y="293.76"/>
      </g>
     </g>
     <g id="text_7">
      <!-- 3 -->
      <g transform="translate(387.22625 319.897812)scale(0.14 -0.14)">
       <use xlink:href="#DejaVuSans-51"/>
      </g>
     </g>
    </g>
   </g>
   <g id="matplotlib.axis_2">
    <g id="ytick_1">
     <g id="line2d_8">
      <defs>
       <path d="M 0 0 
L -12 0 
" id="m8bee4cd318" style="stroke:#000000;stroke-width:1.5;"/>
      </defs>
      <g>
       <use style="stroke:#000000;stroke-width:1.5;" x="78.336" xlink:href="#m8bee4cd318" y="293.76"/>
      </g>
     </g>
     <g id="text_8">
      <!-- −3 -->
      <g transform="translate(42.196938 299.078906)scale(0.14 -0.14)">
       <use xlink:href="#DejaVuSans-8722"/>
       <use x="83.789062" xlink:href="#DejaVuSans-51"/>
      </g>
     </g>
    </g>
    <g id="ytick_2">
     <g id="line2d_9">
      <g>
       <use style="stroke:#000000;stroke-width:1.5;" x="78.336" xlink:href="#m8bee4cd318" y="251.712"/>
      </g>
     </g>
     <g id="text_9">
      <!-- −2 -->
      <g transform="translate(42.196938 257.030906)scale(0.14 -0.14)">
       <use xlink:href="#DejaVuSans-8722"/>
       <use x="83.789062" xlink:href="#DejaVuSans-50"/>
      </g>
     </g>
    </g>
    <g id="ytick_3">
     <g id="line2d_10">
      <g>
       <use style="stroke:#000000;stroke-width:1.5;" x="78.336" xlink:href="#m8bee4cd318" y="209.664"/>
      </g>
     </g>
     <g id="text_10">
      <!-- −1 -->
      <g transform="translate(42.196938 214.982906)scale(0.14 -0.14)">
       <use xlink:href="#DejaVuSans-8722"/>
       <use x="83.789062" xlink:href="#DejaVuSans-49"/>
      </g>
     </g>
    </g>
    <g id="ytick_4">
     <g id="line2d_11">
      <g>
       <use style="stroke:#000000;stroke-width:1.5;" x="78.336" xlink:href="#m8bee4cd318" y="167.616"/>
      </g>
     </g>
     <g id="text_11">
      <!-- 0 -->
      <g transform="translate(53.9285 172.934906)scale(0.14 -0.14)">
       <use xlink:href="#DejaVuSans-48"/>
      </g>
     </g>
    </g>
    <g id="ytick_5">
     <g id="line2d_12">
      <g>
       <use style="stroke:#000000;stroke-width:1.5;" x="78.336" xlink:href="#m8bee4cd318" y="125.568"/>
      </g>
     </g>
     <g id="text_12">
      <!-- 1 -->
      <g transform="translate(53.9285 130.886906)scale(0.14 -0.14)">
       <use xlink:href="#DejaVuSans-49"/>
      </g>
     </g>
    </g>
    <g id="ytick_6">
     <g id="line2d_13">
      <g>
       <use style="stroke:#000000;stroke-width:1.5;" x="78.336" xlink:href="#m8bee4cd318" y="83.52"/>
      </g>
     </g>
     <g id="text_13">
      <!-- 2 -->
      <g transform="translate(53.9285 88.838906)scale(0.14 -0.14)">
       <use xlink:href="#DejaVuSans-50"/>
      </g>
     </g>
    </g>
    <g id="ytick_7">
     <g id="line2d_14">
      <g>
       <use style="stroke:#000000;stroke-width:1.5;" x="78.336" xlink:href="#m8bee4cd318" y="41.472"/>
      </g>
     </g>
     <g id="text_14">
      <!-- 3 -->
      <g transform="translate(53.9285 46.790906)scale(0.14 -0.14)">
       <use xlink:href="#DejaVuSans-51"/>
      </g>
     </g>
    </g>
   </g>
   <g id="line2d_15">
    <path clip-path="url(#p9e27a67640)" d="M 182.784 209.664 
L 188.0064 205.4592 
L 193.2288 201.2544 
L 198.4512 197.0496 
L 203.6736 192.8448 
L 208.896 188.64 
L 214.1184 184.4352 
L 219.3408 180.2304 
L 224.5632 176.0256 
L 229.7856 171.8208 
L 235.008 167.616 
L 240.2304 163.4112 
L 245.4528 159.2064 
L 250.6752 155.0016 
L 255.8976 150.7968 
L 261.12 146.592 
L 266.3424 142.3872 
L 271.5648 138.1824 
L 276.7872 133.9776 
L 282.0096 129.7728 
L 287.232 125.568 
" style="fill:none;stroke:#1f77b4;stroke-linecap:square;stroke-width:1.5;"/>
   </g>
   <g id="line2d_16">
    <path clip-path="url(#p9e27a67640)" d="M 182.784 251.712 
L 188.0064 243.3024 
L 193.2288 234.8928 
L 198.4512 226.4832 
L 203.6736 218.0736 
L 208.896 209.664 
L 214.1184 201.2544 
L 219.3408 192.8448 
L 224.5632 184.4352 
L 229.7856 176.0256 
L 235.008 167.616 
L 240.2304 159.2064 
L 245.4528 150.7968 
L 250.6752 142.3872 
L 255.8976 133.9776 
L 261.12 125.568 
L 266.3424 117.1584 
L 271.5648 108.7488 
L 276.7872 100.3392 
L 282.0096 91.9296 
L 287.232 83.52 
" style="fill:none;stroke:#ff7f0e;stroke-linecap:square;stroke-width:1.5;"/>
   </g>
   <g id="line2d_17">
    <path clip-path="url(#p9e27a67640)" d="M 182.784 293.76 
L 188.0064 281.1456 
L 193.2288 268.5312 
L 198.4512 255.9168 
L 203.6736 243.3024 
L 208.896 230.688 
L 214.1184 218.0736 
L 219.3408 205.4592 
L 224.5632 192.8448 
L 229.7856 180.2304 
L 235.008 167.616 
L 240.2304 155.0016 
L 245.4528 142.3872 
L 250.6752 129.7728 
L 255.8976 117.1584 
L 261.12 104.544 
L 266.3424 91.9296 
L 271.5648 79.3152 
L 276.7872 66.7008 
L 282.0096 54.0864 
L 287.232 41.472 
" style="fill:none;stroke:#2ca02c;stroke-linecap:square;stroke-width:1.5;"/>
   </g>
   <g id="line2d_18">
    <path clip-path="url(#p9e27a67640)" d="M 182.784 335.808 
L 188.0064 318.9888 
L 193.2288 302.1696 
L 198.4512 285.3504 
L 203.6736 268.5312 
L 208.896 251.712 
L 214.1184 234.8928 
L 219.3408 218.0736 
L 224.5632 201.2544 
L 229.7856 184.4352 
L 235.008 167.616 
L 240.2304 150.7968 
L 245.4528 133.9776 
L 250.6752 117.1584 
L 255.8976 100.3392 
L 261.12 83.52 
L 266.3424 66.7008 
L 271.5648 49.8816 
L 276.7872 33.0624 
L 282.0096 16.2432 
L 287.232 -0.576 
" style="fill:none;stroke:#d62728;stroke-linecap:square;stroke-width:1.5;"/>
   </g>
   <g id="line2d_19">
    <path clip-path="url(#p9e27a67640)" d="M 190.548047 346.6 
L 193.2288 335.808 
L 198.4512 314.784 
L 203.6736 293.76 
L 208.896 272.736 
L 214.1184 251.712 
L 219.3408 230.688 
L 224.5632 209.664 
L 229.7856 188.64 
L 235.008 167.616 
L 240.2304 146.592 
L 245.4528 125.568 
L 250.6752 104.544 
L 255.8976 83.52 
L 261.12 62.496 
L 266.3424 41.472 
L 271.5648 20.448 
L 276.7872 -0.576 
L 276.892522 -1 
" style="fill:none;stroke:#9467bd;stroke-linecap:square;stroke-width:1.5;"/>
   </g>
   <g id="line2d_20">
    <path clip-path="url(#p9e27a67640)" d="M 78.336 167.616 
L 391.68 167.616 
" style="fill:none;stroke:#000000;stroke-linecap:square;stroke-width:0.5;"/>
   </g>
   <g id="line2d_21">
    <path clip-path="url(#p9e27a67640)" d="M 235.008 293.76 
L 235.008 41.472 
" style="fill:none;stroke:#000000;stroke-linecap:square;stroke-width:0.5;"/>
   </g>
   <g id="patch_3">
    <path d="M 78.336 293.76 
L 78.336 41.472 
" style="fill:none;stroke:#000000;stroke-linecap:square;stroke-linejoin:miter;stroke-width:1.5;"/>
   </g>
   <g id="patch_4">
    <path d="M 391.68 293.76 
L 391.68 41.472 
" style="fill:none;stroke:#000000;stroke-linecap:square;stroke-linejoin:miter;stroke-width:1.5;"/>
   </g>
   <g id="patch_5">
    <path d="M 78.336 293.76 
L 391.68 293.76 
" style="fill:none;stroke:#000000;stroke-linecap:square;stroke-linejoin:miter;stroke-width:1.5;"/>
   </g>
   <g id="patch_6">
    <path d="M 78.336 41.472 
L 391.68 41.472 
" style="fill:none;stroke:#000000;stroke-linecap:square;stroke-linejoin:miter;stroke-width:1.5;"/>
   </g>
   <g id="legend_1">
    <g id="patch_7">
     <path d="M 299.868437 155.418875 
L 381.88 155.418875 
Q 384.68 155.418875 384.68 152.618875 
L 384.68 51.272 
Q 384.68 48.472 381.88 48.472 
L 299.868437 48.472 
Q 297.068437 48.472 297.068437 51.272 
L 297.068437 152.618875 
Q 297.068437 155.418875 299.868437 155.418875 
z
" style="fill:none;opacity:0;"/>
    </g>
    <g id="line2d_22">
     <path d="M 302.668437 59.809812 
L 330.668437 59.809812 
" style="fill:none;stroke:#1f77b4;stroke-linecap:square;stroke-width:1.5;"/>
    </g>
    <g id="line2d_23"/>
    <g id="text_15">
     <!-- y= x -->
     <defs>
      <path d="M 32.171875 -5.078125 
Q 28.375 -14.84375 24.75 -17.8125 
Q 21.140625 -20.796875 15.09375 -20.796875 
L 7.90625 -20.796875 
L 7.90625 -13.28125 
L 13.1875 -13.28125 
Q 16.890625 -13.28125 18.9375 -11.515625 
Q 21 -9.765625 23.484375 -3.21875 
L 25.09375 0.875 
L 2.984375 54.6875 
L 12.5 54.6875 
L 29.59375 11.921875 
L 46.6875 54.6875 
L 56.203125 54.6875 
z
" id="DejaVuSans-121"/>
      <path d="M 10.59375 45.40625 
L 73.1875 45.40625 
L 73.1875 37.203125 
L 10.59375 37.203125 
z
M 10.59375 25.484375 
L 73.1875 25.484375 
L 73.1875 17.1875 
L 10.59375 17.1875 
z
" id="DejaVuSans-61"/>
      <path id="DejaVuSans-32"/>
      <path d="M 54.890625 54.6875 
L 35.109375 28.078125 
L 55.90625 0 
L 45.3125 0 
L 29.390625 21.484375 
L 13.484375 0 
L 2.875 0 
L 24.125 28.609375 
L 4.6875 54.6875 
L 15.28125 54.6875 
L 29.78125 35.203125 
L 44.28125 54.6875 
z
" id="DejaVuSans-120"/>
     </defs>
     <g transform="translate(341.868437 64.709812)scale(0.14 -0.14)">
      <use xlink:href="#DejaVuSans-121"/>
      <use x="59.179688" xlink:href="#DejaVuSans-61"/>
      <use x="142.96875" xlink:href="#DejaVuSans-32"/>
      <use x="174.755859" xlink:href="#DejaVuSans-120"/>
     </g>
    </g>
    <g id="line2d_24">
     <path d="M 302.668437 80.359187 
L 330.668437 80.359187 
" style="fill:none;stroke:#ff7f0e;stroke-linecap:square;stroke-width:1.5;"/>
    </g>
    <g id="line2d_25"/>
    <g id="text_16">
     <!-- y=2x -->
     <g transform="translate(341.868437 85.259187)scale(0.14 -0.14)">
      <use xlink:href="#DejaVuSans-121"/>
      <use x="59.179688" xlink:href="#DejaVuSans-61"/>
      <use x="142.96875" xlink:href="#DejaVuSans-50"/>
      <use x="206.591797" xlink:href="#DejaVuSans-120"/>
     </g>
    </g>
    <g id="line2d_26">
     <path d="M 302.668437 100.908562 
L 330.668437 100.908562 
" style="fill:none;stroke:#2ca02c;stroke-linecap:square;stroke-width:1.5;"/>
    </g>
    <g id="line2d_27"/>
    <g id="text_17">
     <!-- y=3x -->
     <g transform="translate(341.868437 105.808562)scale(0.14 -0.14)">
      <use xlink:href="#DejaVuSans-121"/>
      <use x="59.179688" xlink:href="#DejaVuSans-61"/>
      <use x="142.96875" xlink:href="#DejaVuSans-51"/>
      <use x="206.591797" xlink:href="#DejaVuSans-120"/>
     </g>
    </g>
    <g id="line2d_28">
     <path d="M 302.668437 121.457937 
L 330.668437 121.457937 
" style="fill:none;stroke:#d62728;stroke-linecap:square;stroke-width:1.5;"/>
    </g>
    <g id="line2d_29"/>
    <g id="text_18">
     <!-- y=4x -->
     <defs>
      <path d="M 37.796875 64.3125 
L 12.890625 25.390625 
L 37.796875 25.390625 
z
M 35.203125 72.90625 
L 47.609375 72.90625 
L 47.609375 25.390625 
L 58.015625 25.390625 
L 58.015625 17.1875 
L 47.609375 17.1875 
L 47.609375 0 
L 37.796875 0 
L 37.796875 17.1875 
L 4.890625 17.1875 
L 4.890625 26.703125 
z
" id="DejaVuSans-52"/>
     </defs>
     <g transform="translate(341.868437 126.357937)scale(0.14 -0.14)">
      <use xlink:href="#DejaVuSans-121"/>
      <use x="59.179688" xlink:href="#DejaVuSans-61"/>
      <use x="142.96875" xlink:href="#DejaVuSans-52"/>
      <use x="206.591797" xlink:href="#DejaVuSans-120"/>
     </g>
    </g>
    <g id="line2d_30">
     <path d="M 302.668437 142.007312 
L 330.668437 142.007312 
" style="fill:none;stroke:#9467bd;stroke-linecap:square;stroke-width:1.5;"/>
    </g>
    <g id="line2d_31"/>
    <g id="text_19">
     <!-- y=5x -->
     <defs>
      <path d="M 10.796875 72.90625 
L 49.515625 72.90625 
L 49.515625 64.59375 
L 19.828125 64.59375 
L 19.828125 46.734375 
Q 21.96875 47.46875 24.109375 47.828125 
Q 26.265625 48.1875 28.421875 48.1875 
Q 40.625 48.1875 47.75 41.5 
Q 54.890625 34.8125 54.890625 23.390625 
Q 54.890625 11.625 47.5625 5.09375 
Q 40.234375 -1.421875 26.90625 -1.421875 
Q 22.3125 -1.421875 17.546875 -0.640625 
Q 12.796875 0.140625 7.71875 1.703125 
L 7.71875 11.625 
Q 12.109375 9.234375 16.796875 8.0625 
Q 21.484375 6.890625 26.703125 6.890625 
Q 35.15625 6.890625 40.078125 11.328125 
Q 45.015625 15.765625 45.015625 23.390625 
Q 45.015625 31 40.078125 35.4375 
Q 35.15625 39.890625 26.703125 39.890625 
Q 22.75 39.890625 18.8125 39.015625 
Q 14.890625 38.140625 10.796875 36.28125 
z
" id="DejaVuSans-53"/>
     </defs>
     <g transform="translate(341.868437 146.907312)scale(0.14 -0.14)">
      <use xlink:href="#DejaVuSans-121"/>
      <use x="59.179688" xlink:href="#DejaVuSans-61"/>
      <use x="142.96875" xlink:href="#DejaVuSans-53"/>
      <use x="206.591797" xlink:href="#DejaVuSans-120"/>
     </g>
    </g>
   </g>
  </g>
 </g>
 <defs>
  <clipPath id="p9e27a67640">
   <rect height="252.288" width="313.344" x="78.336" y="41.472"/>
  </clipPath>
 </defs>
</svg>
