<?xml version="1.0" encoding="utf-8" standalone="no"?>
<!DOCTYPE svg PUBLIC "-//W3C//DTD SVG 1.1//EN"
  "http://www.w3.org/Graphics/SVG/1.1/DTD/svg11.dtd">
<!-- Created with matplotlib (https://matplotlib.org/) -->
<svg height="345.6pt" version="1.1" viewBox="0 0 460.8 345.6" width="460.8pt" xmlns="http://www.w3.org/2000/svg" xmlns:xlink="http://www.w3.org/1999/xlink">
 <defs>
  <style type="text/css">
*{stroke-linecap:butt;stroke-linejoin:round;}
  </style>
 </defs>
 <g id="figure_1">
  <g id="patch_1">
   <path d="M 0 345.6 
L 460.8 345.6 
L 460.8 0 
L 0 0 
z
" style="fill:#ffffff;"/>
  </g>
  <g id="axes_1">
   <g id="patch_2">
    <path d="M 78.336 293.76 
L 391.68 293.76 
L 391.68 41.472 
L 78.336 41.472 
z
" style="fill:#ffffff;"/>
   </g>
   <g id="matplotlib.axis_1">
    <g id="xtick_1">
     <g id="line2d_1">
      <defs>
       <path d="M 0 0 
L 0 12 
" id="ma0421a4609" style="stroke:#000000;stroke-width:1.5;"/>
      </defs>
      <g>
       <use style="stroke:#000000;stroke-width:1.5;" x="92.578909" xlink:href="#ma0421a4609" y="293.76"/>
      </g>
     </g>
     <g id="text_1">
      <!-- −2 -->
      <defs>
       <path d="M 10.59375 35.5 
L 73.1875 35.5 
L 73.1875 27.203125 
L 10.59375 27.203125 
z
" id="DejaVuSans-8722"/>
       <path d="M 19.1875 8.296875 
L 53.609375 8.296875 
L 53.609375 0 
L 7.328125 0 
L 7.328125 8.296875 
Q 12.9375 14.109375 22.625 23.890625 
Q 32.328125 33.6875 34.8125 36.53125 
Q 39.546875 41.84375 41.421875 45.53125 
Q 43.3125 49.21875 43.3125 52.78125 
Q 43.3125 58.59375 39.234375 62.25 
Q 35.15625 65.921875 28.609375 65.921875 
Q 23.96875 65.921875 18.8125 64.3125 
Q 13.671875 62.703125 7.8125 59.421875 
L 7.8125 69.390625 
Q 13.765625 71.78125 18.9375 73 
Q 24.125 74.21875 28.421875 74.21875 
Q 39.75 74.21875 46.484375 68.546875 
Q 53.21875 62.890625 53.21875 53.421875 
Q 53.21875 48.921875 51.53125 44.890625 
Q 49.859375 40.875 45.40625 35.40625 
Q 44.1875 33.984375 37.640625 27.21875 
Q 31.109375 20.453125 19.1875 8.296875 
z
" id="DejaVuSans-50"/>
      </defs>
      <g transform="translate(82.259378 319.897812)scale(0.14 -0.14)">
       <use xlink:href="#DejaVuSans-8722"/>
       <use x="83.789062" xlink:href="#DejaVuSans-50"/>
      </g>
     </g>
    </g>
    <g id="xtick_2">
     <g id="line2d_2">
      <g>
       <use style="stroke:#000000;stroke-width:1.5;" x="163.793455" xlink:href="#ma0421a4609" y="293.76"/>
      </g>
     </g>
     <g id="text_2">
      <!-- −1 -->
      <defs>
       <path d="M 12.40625 8.296875 
L 28.515625 8.296875 
L 28.515625 63.921875 
L 10.984375 60.40625 
L 10.984375 69.390625 
L 28.421875 72.90625 
L 38.28125 72.90625 
L 38.28125 8.296875 
L 54.390625 8.296875 
L 54.390625 0 
L 12.40625 0 
z
" id="DejaVuSans-49"/>
      </defs>
      <g transform="translate(153.473923 319.897812)scale(0.14 -0.14)">
       <use xlink:href="#DejaVuSans-8722"/>
       <use x="83.789062" xlink:href="#DejaVuSans-49"/>
      </g>
     </g>
    </g>
    <g id="xtick_3">
     <g id="line2d_3">
      <g>
       <use style="stroke:#000000;stroke-width:1.5;" x="235.008" xlink:href="#ma0421a4609" y="293.76"/>
      </g>
     </g>
     <g id="text_3">
      <!-- 0 -->
      <defs>
       <path d="M 31.78125 66.40625 
Q 24.171875 66.40625 20.328125 58.90625 
Q 16.5 51.421875 16.5 36.375 
Q 16.5 21.390625 20.328125 13.890625 
Q 24.171875 6.390625 31.78125 6.390625 
Q 39.453125 6.390625 43.28125 13.890625 
Q 47.125 21.390625 47.125 36.375 
Q 47.125 51.421875 43.28125 58.90625 
Q 39.453125 66.40625 31.78125 66.40625 
z
M 31.78125 74.21875 
Q 44.046875 74.21875 50.515625 64.515625 
Q 56.984375 54.828125 56.984375 36.375 
Q 56.984375 17.96875 50.515625 8.265625 
Q 44.046875 -1.421875 31.78125 -1.421875 
Q 19.53125 -1.421875 13.0625 8.265625 
Q 6.59375 17.96875 6.59375 36.375 
Q 6.59375 54.828125 13.0625 64.515625 
Q 19.53125 74.21875 31.78125 74.21875 
z
" id="DejaVuSans-48"/>
      </defs>
      <g transform="translate(230.55425 319.897812)scale(0.14 -0.14)">
       <use xlink:href="#DejaVuSans-48"/>
      </g>
     </g>
    </g>
    <g id="xtick_4">
     <g id="line2d_4">
      <g>
       <use style="stroke:#000000;stroke-width:1.5;" x="306.222545" xlink:href="#ma0421a4609" y="293.76"/>
      </g>
     </g>
     <g id="text_4">
      <!-- 1 -->
      <g transform="translate(301.768795 319.897812)scale(0.14 -0.14)">
       <use xlink:href="#DejaVuSans-49"/>
      </g>
     </g>
    </g>
    <g id="xtick_5">
     <g id="line2d_5">
      <g>
       <use style="stroke:#000000;stroke-width:1.5;" x="377.437091" xlink:href="#ma0421a4609" y="293.76"/>
      </g>
     </g>
     <g id="text_5">
      <!-- 2 -->
      <g transform="translate(372.983341 319.897812)scale(0.14 -0.14)">
       <use xlink:href="#DejaVuSans-50"/>
      </g>
     </g>
    </g>
    <g id="text_6">
     <!-- pi -->
     <defs>
      <path d="M 18.109375 8.203125 
L 18.109375 -20.796875 
L 9.078125 -20.796875 
L 9.078125 54.6875 
L 18.109375 54.6875 
L 18.109375 46.390625 
Q 20.953125 51.265625 25.265625 53.625 
Q 29.59375 56 35.59375 56 
Q 45.5625 56 51.78125 48.09375 
Q 58.015625 40.1875 58.015625 27.296875 
Q 58.015625 14.40625 51.78125 6.484375 
Q 45.5625 -1.421875 35.59375 -1.421875 
Q 29.59375 -1.421875 25.265625 0.953125 
Q 20.953125 3.328125 18.109375 8.203125 
z
M 48.6875 27.296875 
Q 48.6875 37.203125 44.609375 42.84375 
Q 40.53125 48.484375 33.40625 48.484375 
Q 26.265625 48.484375 22.1875 42.84375 
Q 18.109375 37.203125 18.109375 27.296875 
Q 18.109375 17.390625 22.1875 11.75 
Q 26.265625 6.109375 33.40625 6.109375 
Q 40.53125 6.109375 44.609375 11.75 
Q 48.6875 17.390625 48.6875 27.296875 
z
" id="DejaVuSans-112"/>
      <path d="M 9.421875 54.6875 
L 18.40625 54.6875 
L 18.40625 0 
L 9.421875 0 
z
M 9.421875 75.984375 
L 18.40625 75.984375 
L 18.40625 64.59375 
L 9.421875 64.59375 
z
" id="DejaVuSans-105"/>
     </defs>
     <g transform="translate(228.619406 337.447187)scale(0.14 -0.14)">
      <use xlink:href="#DejaVuSans-112"/>
      <use x="63.476562" xlink:href="#DejaVuSans-105"/>
     </g>
    </g>
   </g>
   <g id="matplotlib.axis_2">
    <g id="ytick_1">
     <g id="line2d_6">
      <defs>
       <path d="M 0 0 
L -12 0 
" id="mdbffc572dc" style="stroke:#000000;stroke-width:1.5;"/>
      </defs>
      <g>
       <use style="stroke:#000000;stroke-width:1.5;" x="78.336" xlink:href="#mdbffc572dc" y="282.292364"/>
      </g>
     </g>
     <g id="text_7">
      <!-- −1.00 -->
      <defs>
       <path d="M 10.6875 12.40625 
L 21 12.40625 
L 21 0 
L 10.6875 0 
z
" id="DejaVuSans-46"/>
      </defs>
      <g transform="translate(19.932563 287.61127)scale(0.14 -0.14)">
       <use xlink:href="#DejaVuSans-8722"/>
       <use x="83.789062" xlink:href="#DejaVuSans-49"/>
       <use x="147.412109" xlink:href="#DejaVuSans-46"/>
       <use x="179.199219" xlink:href="#DejaVuSans-48"/>
       <use x="242.822266" xlink:href="#DejaVuSans-48"/>
      </g>
     </g>
    </g>
    <g id="ytick_2">
     <g id="line2d_7">
      <g>
       <use style="stroke:#000000;stroke-width:1.5;" x="78.336" xlink:href="#mdbffc572dc" y="253.623273"/>
      </g>
     </g>
     <g id="text_8">
      <!-- −0.75 -->
      <defs>
       <path d="M 8.203125 72.90625 
L 55.078125 72.90625 
L 55.078125 68.703125 
L 28.609375 0 
L 18.3125 0 
L 43.21875 64.59375 
L 8.203125 64.59375 
z
" id="DejaVuSans-55"/>
       <path d="M 10.796875 72.90625 
L 49.515625 72.90625 
L 49.515625 64.59375 
L 19.828125 64.59375 
L 19.828125 46.734375 
Q 21.96875 47.46875 24.109375 47.828125 
Q 26.265625 48.1875 28.421875 48.1875 
Q 40.625 48.1875 47.75 41.5 
Q 54.890625 34.8125 54.890625 23.390625 
Q 54.890625 11.625 47.5625 5.09375 
Q 40.234375 -1.421875 26.90625 -1.421875 
Q 22.3125 -1.421875 17.546875 -0.640625 
Q 12.796875 0.140625 7.71875 1.703125 
L 7.71875 11.625 
Q 12.109375 9.234375 16.796875 8.0625 
Q 21.484375 6.890625 26.703125 6.890625 
Q 35.15625 6.890625 40.078125 11.328125 
Q 45.015625 15.765625 45.015625 23.390625 
Q 45.015625 31 40.078125 35.4375 
Q 35.15625 39.890625 26.703125 39.890625 
Q 22.75 39.890625 18.8125 39.015625 
Q 14.890625 38.140625 10.796875 36.28125 
z
" id="DejaVuSans-53"/>
      </defs>
      <g transform="translate(19.932563 258.942179)scale(0.14 -0.14)">
       <use xlink:href="#DejaVuSans-8722"/>
       <use x="83.789062" xlink:href="#DejaVuSans-48"/>
       <use x="147.412109" xlink:href="#DejaVuSans-46"/>
       <use x="179.199219" xlink:href="#DejaVuSans-55"/>
       <use x="242.822266" xlink:href="#DejaVuSans-53"/>
      </g>
     </g>
    </g>
    <g id="ytick_3">
     <g id="line2d_8">
      <g>
       <use style="stroke:#000000;stroke-width:1.5;" x="78.336" xlink:href="#mdbffc572dc" y="224.954182"/>
      </g>
     </g>
     <g id="text_9">
      <!-- −0.50 -->
      <g transform="translate(19.932563 230.273088)scale(0.14 -0.14)">
       <use xlink:href="#DejaVuSans-8722"/>
       <use x="83.789062" xlink:href="#DejaVuSans-48"/>
       <use x="147.412109" xlink:href="#DejaVuSans-46"/>
       <use x="179.199219" xlink:href="#DejaVuSans-53"/>
       <use x="242.822266" xlink:href="#DejaVuSans-48"/>
      </g>
     </g>
    </g>
    <g id="ytick_4">
     <g id="line2d_9">
      <g>
       <use style="stroke:#000000;stroke-width:1.5;" x="78.336" xlink:href="#mdbffc572dc" y="196.285091"/>
      </g>
     </g>
     <g id="text_10">
      <!-- −0.25 -->
      <g transform="translate(19.932563 201.603997)scale(0.14 -0.14)">
       <use xlink:href="#DejaVuSans-8722"/>
       <use x="83.789062" xlink:href="#DejaVuSans-48"/>
       <use x="147.412109" xlink:href="#DejaVuSans-46"/>
       <use x="179.199219" xlink:href="#DejaVuSans-50"/>
       <use x="242.822266" xlink:href="#DejaVuSans-53"/>
      </g>
     </g>
    </g>
    <g id="ytick_5">
     <g id="line2d_10">
      <g>
       <use style="stroke:#000000;stroke-width:1.5;" x="78.336" xlink:href="#mdbffc572dc" y="167.616"/>
      </g>
     </g>
     <g id="text_11">
      <!-- 0.00 -->
      <g transform="translate(31.664125 172.934906)scale(0.14 -0.14)">
       <use xlink:href="#DejaVuSans-48"/>
       <use x="63.623047" xlink:href="#DejaVuSans-46"/>
       <use x="95.410156" xlink:href="#DejaVuSans-48"/>
       <use x="159.033203" xlink:href="#DejaVuSans-48"/>
      </g>
     </g>
    </g>
    <g id="ytick_6">
     <g id="line2d_11">
      <g>
       <use style="stroke:#000000;stroke-width:1.5;" x="78.336" xlink:href="#mdbffc572dc" y="138.946909"/>
      </g>
     </g>
     <g id="text_12">
      <!-- 0.25 -->
      <g transform="translate(31.664125 144.265815)scale(0.14 -0.14)">
       <use xlink:href="#DejaVuSans-48"/>
       <use x="63.623047" xlink:href="#DejaVuSans-46"/>
       <use x="95.410156" xlink:href="#DejaVuSans-50"/>
       <use x="159.033203" xlink:href="#DejaVuSans-53"/>
      </g>
     </g>
    </g>
    <g id="ytick_7">
     <g id="line2d_12">
      <g>
       <use style="stroke:#000000;stroke-width:1.5;" x="78.336" xlink:href="#mdbffc572dc" y="110.277818"/>
      </g>
     </g>
     <g id="text_13">
      <!-- 0.50 -->
      <g transform="translate(31.664125 115.596724)scale(0.14 -0.14)">
       <use xlink:href="#DejaVuSans-48"/>
       <use x="63.623047" xlink:href="#DejaVuSans-46"/>
       <use x="95.410156" xlink:href="#DejaVuSans-53"/>
       <use x="159.033203" xlink:href="#DejaVuSans-48"/>
      </g>
     </g>
    </g>
    <g id="ytick_8">
     <g id="line2d_13">
      <g>
       <use style="stroke:#000000;stroke-width:1.5;" x="78.336" xlink:href="#mdbffc572dc" y="81.608727"/>
      </g>
     </g>
     <g id="text_14">
      <!-- 0.75 -->
      <g transform="translate(31.664125 86.927634)scale(0.14 -0.14)">
       <use xlink:href="#DejaVuSans-48"/>
       <use x="63.623047" xlink:href="#DejaVuSans-46"/>
       <use x="95.410156" xlink:href="#DejaVuSans-55"/>
       <use x="159.033203" xlink:href="#DejaVuSans-53"/>
      </g>
     </g>
    </g>
    <g id="ytick_9">
     <g id="line2d_14">
      <g>
       <use style="stroke:#000000;stroke-width:1.5;" x="78.336" xlink:href="#mdbffc572dc" y="52.939636"/>
      </g>
     </g>
     <g id="text_15">
      <!-- 1.00 -->
      <g transform="translate(31.664125 58.258543)scale(0.14 -0.14)">
       <use xlink:href="#DejaVuSans-49"/>
       <use x="63.623047" xlink:href="#DejaVuSans-46"/>
       <use x="95.410156" xlink:href="#DejaVuSans-48"/>
       <use x="159.033203" xlink:href="#DejaVuSans-48"/>
      </g>
     </g>
    </g>
   </g>
   <g id="line2d_15">
    <path clip-path="url(#p94e132f563)" d="M 92.578909 52.939636 
L 93.568 53.048783 
L 94.557091 53.376015 
L 95.546182 53.920709 
L 96.733091 54.859903 
L 97.92 56.108153 
L 99.106909 57.662039 
L 100.491636 59.855467 
L 101.876364 62.450885 
L 103.458909 65.896823 
L 105.239273 70.364928 
L 107.019636 75.432618 
L 108.997818 81.728481 
L 111.173818 89.406908 
L 113.547636 98.602042 
L 116.317091 110.277818 
L 119.482182 124.657478 
L 123.438545 143.773443 
L 130.56 179.602944 
L 135.901091 205.895757 
L 139.461818 222.334832 
L 142.429091 235.021075 
L 145.000727 245.090228 
L 147.374545 253.503519 
L 149.550545 260.391127 
L 151.528727 265.912829 
L 153.309091 270.243818 
L 154.891636 273.563145 
L 156.474182 276.366308 
L 157.858909 278.384861 
L 159.243636 279.990202 
L 160.430545 281.032743 
L 161.617455 281.764416 
L 162.606545 282.135204 
L 163.595636 282.287997 
L 164.584727 282.222506 
L 165.573818 281.938855 
L 166.562909 281.437583 
L 167.749818 280.550172 
L 168.936727 279.353216 
L 170.123636 277.849996 
L 171.508364 275.714698 
L 172.893091 273.176149 
L 174.475636 269.793388 
L 176.256 265.393674 
L 178.036364 260.391127 
L 180.014545 254.16335 
L 182.190545 246.554 
L 184.564364 237.426547 
L 187.333818 225.818654 
L 190.498909 211.500744 
L 194.257455 193.412569 
L 200.389818 162.613887 
L 206.522182 132.179055 
L 210.280727 114.664348 
L 213.248 101.84034 
L 215.819636 91.629142 
L 218.193455 83.067716 
L 220.369455 76.031384 
L 222.347636 70.364928 
L 224.128 65.896823 
L 225.710545 62.450885 
L 227.293091 59.517302 
L 228.677818 57.382004 
L 230.062545 55.657924 
L 231.249455 54.512354 
L 232.436364 53.676793 
L 233.425455 53.218982 
L 234.414545 52.978933 
L 235.403636 52.957102 
L 236.392727 53.153531 
L 237.381818 53.567845 
L 238.370909 54.199257 
L 239.557818 55.241798 
L 240.744727 56.592349 
L 242.129455 58.552297 
L 243.514182 60.919097 
L 245.096727 64.110802 
L 246.679273 67.806774 
L 248.459636 72.544986 
L 250.437818 78.495727 
L 252.613818 85.823032 
L 254.987636 94.672863 
L 257.559273 105.158776 
L 260.526545 118.246553 
L 264.087273 135.046153 
L 268.834909 158.618596 
L 277.934545 204.003344 
L 281.495273 220.567652 
L 284.462545 233.39166 
L 287.034182 243.602858 
L 289.408 252.164284 
L 291.584 259.200616 
L 293.562182 264.867072 
L 295.342545 269.335177 
L 296.925091 272.781115 
L 298.507636 275.714698 
L 299.892364 277.849996 
L 301.277091 279.574076 
L 302.464 280.719646 
L 303.650909 281.555207 
L 304.64 282.013018 
L 305.629091 282.253067 
L 306.618182 282.274898 
L 307.607273 282.078469 
L 308.596364 281.664155 
L 309.585455 281.032743 
L 310.772364 279.990202 
L 311.959273 278.639651 
L 313.344 276.679703 
L 314.728727 274.312903 
L 316.311273 271.121198 
L 317.893818 267.425226 
L 319.674182 262.687014 
L 321.652364 256.736273 
L 323.828364 249.408968 
L 326.202182 240.559137 
L 328.773818 230.073224 
L 331.741091 216.985447 
L 335.301818 200.185847 
L 340.049455 176.613404 
L 349.149091 131.228656 
L 352.709818 114.664348 
L 355.677091 101.84034 
L 358.248727 91.629142 
L 360.622545 83.067716 
L 362.798545 76.031384 
L 364.776727 70.364928 
L 366.557091 65.896823 
L 368.139636 62.450885 
L 369.722182 59.517302 
L 371.106909 57.382004 
L 372.491636 55.657924 
L 373.678545 54.512354 
L 374.865455 53.676793 
L 375.854545 53.218982 
L 376.843636 52.978933 
L 377.437091 52.939636 
L 377.437091 52.939636 
" style="fill:none;stroke:#1f77b4;stroke-linecap:square;stroke-width:1.5;"/>
   </g>
   <g id="line2d_16">
    <path clip-path="url(#p94e132f563)" d="M 92.578909 167.616 
L 99.502545 133.132152 
L 103.261091 115.55402 
L 106.228364 102.662592 
L 108.8 92.381536 
L 111.173818 83.747017 
L 113.349818 76.637124 
L 115.328 70.898936 
L 117.108364 66.362781 
L 118.888727 62.450885 
L 120.471273 59.517302 
L 121.856 57.382004 
L 123.240727 55.657924 
L 124.427636 54.512354 
L 125.614545 53.676793 
L 126.603636 53.218982 
L 127.592727 52.978933 
L 128.581818 52.957102 
L 129.570909 53.153531 
L 130.56 53.567845 
L 131.549091 54.199257 
L 132.736 55.241798 
L 133.922909 56.592349 
L 135.307636 58.552297 
L 136.692364 60.919097 
L 138.274909 64.110802 
L 139.857455 67.806774 
L 141.637818 72.544986 
L 143.616 78.495727 
L 145.792 85.823032 
L 148.165818 94.672863 
L 150.737455 105.158776 
L 153.704727 118.246553 
L 157.265455 135.046153 
L 162.013091 158.618596 
L 171.112727 204.003344 
L 174.673455 220.567652 
L 177.640727 233.39166 
L 180.212364 243.602858 
L 182.586182 252.164284 
L 184.762182 259.200616 
L 186.740364 264.867072 
L 188.520727 269.335177 
L 190.103273 272.781115 
L 191.685818 275.714698 
L 193.070545 277.849996 
L 194.455273 279.574076 
L 195.642182 280.719646 
L 196.829091 281.555207 
L 197.818182 282.013018 
L 198.807273 282.253067 
L 199.796364 282.274898 
L 200.785455 282.078469 
L 201.774545 281.664155 
L 202.763636 281.032743 
L 203.950545 279.990202 
L 205.137455 278.639651 
L 206.522182 276.679703 
L 207.906909 274.312903 
L 209.489455 271.121198 
L 211.072 267.425226 
L 212.852364 262.687014 
L 214.830545 256.736273 
L 217.006545 249.408968 
L 219.380364 240.559137 
L 221.952 230.073224 
L 224.919273 216.985447 
L 228.48 200.185847 
L 233.227636 176.613404 
L 242.327273 131.228656 
L 245.888 114.664348 
L 248.855273 101.84034 
L 251.426909 91.629142 
L 253.800727 83.067716 
L 255.976727 76.031384 
L 257.954909 70.364928 
L 259.735273 65.896823 
L 261.317818 62.450885 
L 262.900364 59.517302 
L 264.285091 57.382004 
L 265.669818 55.657924 
L 266.856727 54.512354 
L 268.043636 53.676793 
L 269.032727 53.218982 
L 270.021818 52.978933 
L 271.010909 52.957102 
L 272 53.153531 
L 272.989091 53.567845 
L 273.978182 54.199257 
L 275.165091 55.241798 
L 276.352 56.592349 
L 277.736727 58.552297 
L 279.121455 60.919097 
L 280.704 64.110802 
L 282.286545 67.806774 
L 284.066909 72.544986 
L 286.045091 78.495727 
L 288.221091 85.823032 
L 290.594909 94.672863 
L 293.166545 105.158776 
L 296.133818 118.246553 
L 299.694545 135.046153 
L 304.442182 158.618596 
L 313.541818 204.003344 
L 317.102545 220.567652 
L 320.069818 233.39166 
L 322.641455 243.602858 
L 325.015273 252.164284 
L 327.191273 259.200616 
L 329.169455 264.867072 
L 330.949818 269.335177 
L 332.532364 272.781115 
L 334.114909 275.714698 
L 335.499636 277.849996 
L 336.884364 279.574076 
L 338.071273 280.719646 
L 339.258182 281.555207 
L 340.247273 282.013018 
L 341.236364 282.253067 
L 342.225455 282.274898 
L 343.214545 282.078469 
L 344.203636 281.664155 
L 345.192727 281.032743 
L 346.379636 279.990202 
L 347.566545 278.639651 
L 348.951273 276.679703 
L 350.336 274.312903 
L 351.918545 271.121198 
L 353.501091 267.425226 
L 355.281455 262.687014 
L 357.259636 256.736273 
L 359.435636 249.408968 
L 361.809455 240.559137 
L 364.381091 230.073224 
L 367.348364 216.985447 
L 370.909091 200.185847 
L 375.656727 176.613404 
L 377.437091 167.616 
L 377.437091 167.616 
" style="fill:none;stroke:#ff7f0e;stroke-linecap:square;stroke-width:1.5;"/>
   </g>
   <g id="patch_3">
    <path d="M 78.336 293.76 
L 78.336 41.472 
" style="fill:none;stroke:#000000;stroke-linecap:square;stroke-linejoin:miter;stroke-width:1.5;"/>
   </g>
   <g id="patch_4">
    <path d="M 391.68 293.76 
L 391.68 41.472 
" style="fill:none;stroke:#000000;stroke-linecap:square;stroke-linejoin:miter;stroke-width:1.5;"/>
   </g>
   <g id="patch_5">
    <path d="M 78.336 293.76 
L 391.68 293.76 
" style="fill:none;stroke:#000000;stroke-linecap:square;stroke-linejoin:miter;stroke-width:1.5;"/>
   </g>
   <g id="patch_6">
    <path d="M 78.336 41.472 
L 391.68 41.472 
" style="fill:none;stroke:#000000;stroke-linecap:square;stroke-linejoin:miter;stroke-width:1.5;"/>
   </g>
   <g id="legend_1">
    <g id="patch_7">
     <path d="M 300.745625 93.77075 
L 381.88 93.77075 
Q 384.68 93.77075 384.68 90.97075 
L 384.68 51.272 
Q 384.68 48.472 381.88 48.472 
L 300.745625 48.472 
Q 297.945625 48.472 297.945625 51.272 
L 297.945625 90.97075 
Q 297.945625 93.77075 300.745625 93.77075 
z
" style="fill:none;opacity:0;"/>
    </g>
    <g id="line2d_17">
     <path d="M 303.545625 59.809812 
L 331.545625 59.809812 
" style="fill:none;stroke:#1f77b4;stroke-linecap:square;stroke-width:1.5;"/>
    </g>
    <g id="line2d_18"/>
    <g id="text_16">
     <!-- cospi -->
     <defs>
      <path d="M 48.78125 52.59375 
L 48.78125 44.1875 
Q 44.96875 46.296875 41.140625 47.34375 
Q 37.3125 48.390625 33.40625 48.390625 
Q 24.65625 48.390625 19.8125 42.84375 
Q 14.984375 37.3125 14.984375 27.296875 
Q 14.984375 17.28125 19.8125 11.734375 
Q 24.65625 6.203125 33.40625 6.203125 
Q 37.3125 6.203125 41.140625 7.25 
Q 44.96875 8.296875 48.78125 10.40625 
L 48.78125 2.09375 
Q 45.015625 0.34375 40.984375 -0.53125 
Q 36.96875 -1.421875 32.421875 -1.421875 
Q 20.0625 -1.421875 12.78125 6.34375 
Q 5.515625 14.109375 5.515625 27.296875 
Q 5.515625 40.671875 12.859375 48.328125 
Q 20.21875 56 33.015625 56 
Q 37.15625 56 41.109375 55.140625 
Q 45.0625 54.296875 48.78125 52.59375 
z
" id="DejaVuSans-99"/>
      <path d="M 30.609375 48.390625 
Q 23.390625 48.390625 19.1875 42.75 
Q 14.984375 37.109375 14.984375 27.296875 
Q 14.984375 17.484375 19.15625 11.84375 
Q 23.34375 6.203125 30.609375 6.203125 
Q 37.796875 6.203125 41.984375 11.859375 
Q 46.1875 17.53125 46.1875 27.296875 
Q 46.1875 37.015625 41.984375 42.703125 
Q 37.796875 48.390625 30.609375 48.390625 
z
M 30.609375 56 
Q 42.328125 56 49.015625 48.375 
Q 55.71875 40.765625 55.71875 27.296875 
Q 55.71875 13.875 49.015625 6.21875 
Q 42.328125 -1.421875 30.609375 -1.421875 
Q 18.84375 -1.421875 12.171875 6.21875 
Q 5.515625 13.875 5.515625 27.296875 
Q 5.515625 40.765625 12.171875 48.375 
Q 18.84375 56 30.609375 56 
z
" id="DejaVuSans-111"/>
      <path d="M 44.28125 53.078125 
L 44.28125 44.578125 
Q 40.484375 46.53125 36.375 47.5 
Q 32.28125 48.484375 27.875 48.484375 
Q 21.1875 48.484375 17.84375 46.4375 
Q 14.5 44.390625 14.5 40.28125 
Q 14.5 37.15625 16.890625 35.375 
Q 19.28125 33.59375 26.515625 31.984375 
L 29.59375 31.296875 
Q 39.15625 29.25 43.1875 25.515625 
Q 47.21875 21.78125 47.21875 15.09375 
Q 47.21875 7.46875 41.1875 3.015625 
Q 35.15625 -1.421875 24.609375 -1.421875 
Q 20.21875 -1.421875 15.453125 -0.5625 
Q 10.6875 0.296875 5.421875 2 
L 5.421875 11.28125 
Q 10.40625 8.6875 15.234375 7.390625 
Q 20.0625 6.109375 24.8125 6.109375 
Q 31.15625 6.109375 34.5625 8.28125 
Q 37.984375 10.453125 37.984375 14.40625 
Q 37.984375 18.0625 35.515625 20.015625 
Q 33.0625 21.96875 24.703125 23.78125 
L 21.578125 24.515625 
Q 13.234375 26.265625 9.515625 29.90625 
Q 5.8125 33.546875 5.8125 39.890625 
Q 5.8125 47.609375 11.28125 51.796875 
Q 16.75 56 26.8125 56 
Q 31.78125 56 36.171875 55.265625 
Q 40.578125 54.546875 44.28125 53.078125 
z
" id="DejaVuSans-115"/>
     </defs>
     <g transform="translate(342.745625 64.709812)scale(0.14 -0.14)">
      <use xlink:href="#DejaVuSans-99"/>
      <use x="54.980469" xlink:href="#DejaVuSans-111"/>
      <use x="116.162109" xlink:href="#DejaVuSans-115"/>
      <use x="168.261719" xlink:href="#DejaVuSans-112"/>
      <use x="231.738281" xlink:href="#DejaVuSans-105"/>
     </g>
    </g>
    <g id="line2d_19">
     <path d="M 303.545625 80.359187 
L 331.545625 80.359187 
" style="fill:none;stroke:#ff7f0e;stroke-linecap:square;stroke-width:1.5;"/>
    </g>
    <g id="line2d_20"/>
    <g id="text_17">
     <!-- sinpi -->
     <defs>
      <path d="M 54.890625 33.015625 
L 54.890625 0 
L 45.90625 0 
L 45.90625 32.71875 
Q 45.90625 40.484375 42.875 44.328125 
Q 39.84375 48.1875 33.796875 48.1875 
Q 26.515625 48.1875 22.3125 43.546875 
Q 18.109375 38.921875 18.109375 30.90625 
L 18.109375 0 
L 9.078125 0 
L 9.078125 54.6875 
L 18.109375 54.6875 
L 18.109375 46.1875 
Q 21.34375 51.125 25.703125 53.5625 
Q 30.078125 56 35.796875 56 
Q 45.21875 56 50.046875 50.171875 
Q 54.890625 44.34375 54.890625 33.015625 
z
" id="DejaVuSans-110"/>
     </defs>
     <g transform="translate(342.745625 85.259187)scale(0.14 -0.14)">
      <use xlink:href="#DejaVuSans-115"/>
      <use x="52.099609" xlink:href="#DejaVuSans-105"/>
      <use x="79.882812" xlink:href="#DejaVuSans-110"/>
      <use x="143.261719" xlink:href="#DejaVuSans-112"/>
      <use x="206.738281" xlink:href="#DejaVuSans-105"/>
     </g>
    </g>
   </g>
  </g>
 </g>
 <defs>
  <clipPath id="p94e132f563">
   <rect height="252.288" width="313.344" x="78.336" y="41.472"/>
  </clipPath>
 </defs>
</svg>
