<?xml version="1.0" encoding="utf-8" standalone="no"?>
<!DOCTYPE svg PUBLIC "-//W3C//DTD SVG 1.1//EN"
  "http://www.w3.org/Graphics/SVG/1.1/DTD/svg11.dtd">
<!-- Created with matplotlib (https://matplotlib.org/) -->
<svg height="345.6pt" version="1.1" viewBox="0 0 460.8 345.6" width="460.8pt" xmlns="http://www.w3.org/2000/svg" xmlns:xlink="http://www.w3.org/1999/xlink">
 <defs>
  <style type="text/css">
*{stroke-linecap:butt;stroke-linejoin:round;}
  </style>
 </defs>
 <g id="figure_1">
  <g id="patch_1">
   <path d="M 0 345.6 
L 460.8 345.6 
L 460.8 0 
L 0 0 
z
" style="fill:#ffffff;"/>
  </g>
  <g id="axes_1">
   <g id="patch_2">
    <path d="M 57.6 154.469647 
L 162.635294 154.469647 
L 162.635294 49.434353 
L 57.6 49.434353 
z
" style="fill:#ffffff;"/>
   </g>
   <g id="matplotlib.axis_1">
    <g id="xtick_1">
     <g id="line2d_1">
      <defs>
       <path d="M 0 0 
L 0 3.5 
" id="md7c74c69b1" style="stroke:#000000;stroke-width:0.8;"/>
      </defs>
      <g>
       <use style="stroke:#000000;stroke-width:0.8;" x="57.6" xlink:href="#md7c74c69b1" y="154.469647"/>
      </g>
     </g>
     <g id="text_1">
      <!-- −1 -->
      <defs>
       <path d="M 10.59375 35.5 
L 73.1875 35.5 
L 73.1875 27.203125 
L 10.59375 27.203125 
z
" id="DejaVuSans-8722"/>
       <path d="M 12.40625 8.296875 
L 28.515625 8.296875 
L 28.515625 63.921875 
L 10.984375 60.40625 
L 10.984375 69.390625 
L 28.421875 72.90625 
L 38.28125 72.90625 
L 38.28125 8.296875 
L 54.390625 8.296875 
L 54.390625 0 
L 12.40625 0 
z
" id="DejaVuSans-49"/>
      </defs>
      <g transform="translate(50.228906 169.068085)scale(0.1 -0.1)">
       <use xlink:href="#DejaVuSans-8722"/>
       <use x="83.789062" xlink:href="#DejaVuSans-49"/>
      </g>
     </g>
    </g>
    <g id="xtick_2">
     <g id="line2d_2">
      <g>
       <use style="stroke:#000000;stroke-width:0.8;" x="110.117647" xlink:href="#md7c74c69b1" y="154.469647"/>
      </g>
     </g>
     <g id="text_2">
      <!-- 0 -->
      <defs>
       <path d="M 31.78125 66.40625 
Q 24.171875 66.40625 20.328125 58.90625 
Q 16.5 51.421875 16.5 36.375 
Q 16.5 21.390625 20.328125 13.890625 
Q 24.171875 6.390625 31.78125 6.390625 
Q 39.453125 6.390625 43.28125 13.890625 
Q 47.125 21.390625 47.125 36.375 
Q 47.125 51.421875 43.28125 58.90625 
Q 39.453125 66.40625 31.78125 66.40625 
z
M 31.78125 74.21875 
Q 44.046875 74.21875 50.515625 64.515625 
Q 56.984375 54.828125 56.984375 36.375 
Q 56.984375 17.96875 50.515625 8.265625 
Q 44.046875 -1.421875 31.78125 -1.421875 
Q 19.53125 -1.421875 13.0625 8.265625 
Q 6.59375 17.96875 6.59375 36.375 
Q 6.59375 54.828125 13.0625 64.515625 
Q 19.53125 74.21875 31.78125 74.21875 
z
" id="DejaVuSans-48"/>
      </defs>
      <g transform="translate(106.936397 169.068085)scale(0.1 -0.1)">
       <use xlink:href="#DejaVuSans-48"/>
      </g>
     </g>
    </g>
    <g id="xtick_3">
     <g id="line2d_3">
      <g>
       <use style="stroke:#000000;stroke-width:0.8;" x="162.635294" xlink:href="#md7c74c69b1" y="154.469647"/>
      </g>
     </g>
     <g id="text_3">
      <!-- 1 -->
      <g transform="translate(159.454044 169.068085)scale(0.1 -0.1)">
       <use xlink:href="#DejaVuSans-49"/>
      </g>
     </g>
    </g>
   </g>
   <g id="matplotlib.axis_2">
    <g id="ytick_1">
     <g id="line2d_4">
      <defs>
       <path d="M 0 0 
L -3.5 0 
" id="mc177818738" style="stroke:#000000;stroke-width:0.8;"/>
      </defs>
      <g>
       <use style="stroke:#000000;stroke-width:0.8;" x="57.6" xlink:href="#mc177818738" y="154.469647"/>
      </g>
     </g>
     <g id="text_4">
      <!-- −1.0 -->
      <defs>
       <path d="M 10.6875 12.40625 
L 21 12.40625 
L 21 0 
L 10.6875 0 
z
" id="DejaVuSans-46"/>
      </defs>
      <g transform="translate(26.317187 158.268866)scale(0.1 -0.1)">
       <use xlink:href="#DejaVuSans-8722"/>
       <use x="83.789062" xlink:href="#DejaVuSans-49"/>
       <use x="147.412109" xlink:href="#DejaVuSans-46"/>
       <use x="179.199219" xlink:href="#DejaVuSans-48"/>
      </g>
     </g>
    </g>
    <g id="ytick_2">
     <g id="line2d_5">
      <g>
       <use style="stroke:#000000;stroke-width:0.8;" x="57.6" xlink:href="#mc177818738" y="128.210824"/>
      </g>
     </g>
     <g id="text_5">
      <!-- −0.5 -->
      <defs>
       <path d="M 10.796875 72.90625 
L 49.515625 72.90625 
L 49.515625 64.59375 
L 19.828125 64.59375 
L 19.828125 46.734375 
Q 21.96875 47.46875 24.109375 47.828125 
Q 26.265625 48.1875 28.421875 48.1875 
Q 40.625 48.1875 47.75 41.5 
Q 54.890625 34.8125 54.890625 23.390625 
Q 54.890625 11.625 47.5625 5.09375 
Q 40.234375 -1.421875 26.90625 -1.421875 
Q 22.3125 -1.421875 17.546875 -0.640625 
Q 12.796875 0.140625 7.71875 1.703125 
L 7.71875 11.625 
Q 12.109375 9.234375 16.796875 8.0625 
Q 21.484375 6.890625 26.703125 6.890625 
Q 35.15625 6.890625 40.078125 11.328125 
Q 45.015625 15.765625 45.015625 23.390625 
Q 45.015625 31 40.078125 35.4375 
Q 35.15625 39.890625 26.703125 39.890625 
Q 22.75 39.890625 18.8125 39.015625 
Q 14.890625 38.140625 10.796875 36.28125 
z
" id="DejaVuSans-53"/>
      </defs>
      <g transform="translate(26.317187 132.010042)scale(0.1 -0.1)">
       <use xlink:href="#DejaVuSans-8722"/>
       <use x="83.789062" xlink:href="#DejaVuSans-48"/>
       <use x="147.412109" xlink:href="#DejaVuSans-46"/>
       <use x="179.199219" xlink:href="#DejaVuSans-53"/>
      </g>
     </g>
    </g>
    <g id="ytick_3">
     <g id="line2d_6">
      <g>
       <use style="stroke:#000000;stroke-width:0.8;" x="57.6" xlink:href="#mc177818738" y="101.952"/>
      </g>
     </g>
     <g id="text_6">
      <!-- 0.0 -->
      <g transform="translate(34.696875 105.751219)scale(0.1 -0.1)">
       <use xlink:href="#DejaVuSans-48"/>
       <use x="63.623047" xlink:href="#DejaVuSans-46"/>
       <use x="95.410156" xlink:href="#DejaVuSans-48"/>
      </g>
     </g>
    </g>
    <g id="ytick_4">
     <g id="line2d_7">
      <g>
       <use style="stroke:#000000;stroke-width:0.8;" x="57.6" xlink:href="#mc177818738" y="75.693176"/>
      </g>
     </g>
     <g id="text_7">
      <!-- 0.5 -->
      <g transform="translate(34.696875 79.492395)scale(0.1 -0.1)">
       <use xlink:href="#DejaVuSans-48"/>
       <use x="63.623047" xlink:href="#DejaVuSans-46"/>
       <use x="95.410156" xlink:href="#DejaVuSans-53"/>
      </g>
     </g>
    </g>
    <g id="ytick_5">
     <g id="line2d_8">
      <g>
       <use style="stroke:#000000;stroke-width:0.8;" x="57.6" xlink:href="#mc177818738" y="49.434353"/>
      </g>
     </g>
     <g id="text_8">
      <!-- 1.0 -->
      <g transform="translate(34.696875 53.233572)scale(0.1 -0.1)">
       <use xlink:href="#DejaVuSans-49"/>
       <use x="63.623047" xlink:href="#DejaVuSans-46"/>
       <use x="95.410156" xlink:href="#DejaVuSans-48"/>
      </g>
     </g>
    </g>
   </g>
   <g id="line2d_9">
    <path clip-path="url(#pe93ed2ade3)" d="M 162.635294 101.952 
L 162.520167 100.854324 
L 162.175473 99.770131 
L 161.603266 98.712799 
L 160.806955 97.6955 
L 159.69692 96.653504 
L 158.337206 95.689373 
L 156.737288 94.818193 
L 154.75847 94.000258 
L 152.529933 93.323123 
L 150.069569 92.801788 
L 147.198611 92.431227 
L 144.110426 92.268902 
L 140.833151 92.326345 
L 137.396492 92.612364 
L 133.831415 93.132929 
L 130.169827 93.891075 
L 126.444244 94.886851 
L 122.687455 96.117289 
L 118.93219 97.576423 
L 115.210778 99.255326 
L 111.554818 101.142196 
L 107.994863 103.22246 
L 104.560106 105.478923 
L 101.27809 107.891936 
L 98.17443 110.439603 
L 95.272567 113.098001 
L 92.593535 115.84144 
L 90.155762 118.642727 
L 87.974896 121.473461 
L 86.063668 124.304336 
L 84.43178 127.105459 
L 83.08583 129.846672 
L 82.029269 132.497881 
L 81.2624 135.029391 
L 80.805575 137.258562 
L 80.593966 139.335464 
L 80.620611 141.238364 
L 80.850735 142.83159 
L 81.269529 144.24176 
L 81.866639 145.454738 
L 82.565989 146.388276 
L 83.397181 147.13384 
L 84.349258 147.683523 
L 85.410533 148.030574 
L 86.568675 148.16946 
L 87.810812 148.095905 
L 89.235787 147.77306 
L 90.726312 147.195375 
L 92.264678 146.362656 
L 93.954383 145.182613 
L 95.656525 143.713229 
L 97.349001 141.961455 
L 99.010156 139.936656 
L 100.731376 137.477609 
L 102.367864 134.735891 
L 103.896369 131.731578 
L 105.295355 128.487358 
L 106.545245 125.028312 
L 107.62865 121.381665 
L 108.530566 117.576521 
L 109.238554 113.643568 
L 109.742875 109.614778 
L 110.036608 105.523084 
L 110.115727 101.40205 
L 109.97915 97.285535 
L 109.628745 93.207354 
L 109.069319 89.200934 
L 108.308551 85.298985 
L 107.356912 81.533166 
L 106.227543 77.933773 
L 104.9361 74.529436 
L 103.500576 71.346833 
L 101.941094 68.410431 
L 100.279674 65.742242 
L 98.539975 63.361611 
L 96.747028 61.285032 
L 94.926938 59.525995 
L 93.227402 58.179907 
L 91.549855 57.125384 
L 89.916642 56.365842 
L 88.45923 55.925521 
L 87.07678 55.73917 
L 85.882047 55.789985 
L 84.77888 56.050902 
L 83.779844 56.516906 
L 82.896908 57.181749 
L 82.141342 58.037998 
L 81.523639 59.077093 
L 81.053423 60.289411 
L 80.720506 61.7859 
L 80.580555 63.458512 
L 80.641781 65.291417 
L 80.940284 67.425253 
L 81.485946 69.703339 
L 82.28265 72.10262 
L 83.41654 74.780756 
L 84.839208 77.540896 
L 86.546361 80.352896 
L 88.530568 83.186638 
L 90.78131 86.012353 
L 93.285066 88.800947 
L 96.025433 91.52431 
L 98.983268 94.155624 
L 102.136875 96.669642 
L 105.462212 99.042961 
L 108.933121 101.254261 
L 112.521593 103.284529 
L 116.198043 105.117254 
L 119.931609 106.738589 
L 123.690463 108.137489 
L 127.442139 109.30581 
L 131.153858 110.238384 
L 134.79287 110.933047 
L 138.326789 111.390647 
L 141.723927 111.615009 
L 144.953623 111.612871 
L 147.98656 111.39378 
L 150.79507 110.969967 
L 153.353421 110.356183 
L 155.494728 109.626959 
L 157.380394 108.762666 
L 158.995227 107.780299 
L 160.240779 106.778309 
L 161.232858 105.705666 
L 161.964538 104.57845 
L 162.404357 103.503833 
L 162.615299 102.41014 
L 162.596106 101.310823 
L 162.346894 100.219377 
L 161.869147 99.149239 
L 161.165712 98.113677 
L 160.153867 97.045906 
L 158.889154 96.049999 
L 157.380394 95.141334 
L 155.494728 94.277041 
L 153.353421 93.547817 
L 150.973682 92.969218 
L 148.181072 92.532255 
L 145.162256 92.299107 
L 141.944781 92.282177 
L 138.557865 92.491199 
L 135.032089 92.933098 
L 131.399082 93.611897 
L 127.691193 94.528644 
L 123.94116 95.681376 
L 120.181769 97.065125 
L 116.445518 98.671943 
L 112.764288 100.490976 
L 109.169014 102.50856 
L 105.689377 104.708355 
L 102.3535 107.071512 
L 99.187672 109.576857 
L 96.216083 112.201117 
L 93.460594 114.919162 
L 90.940521 117.704269 
L 88.672459 120.528405 
L 86.670122 123.362532 
L 84.944233 126.176917 
L 83.502431 128.941453 
L 82.349218 131.62599 
L 81.485946 134.200661 
L 80.910825 136.636216 
L 80.629768 138.758889 
L 80.589179 140.713654 
L 80.780535 142.47963 
L 81.156658 143.933344 
L 81.713609 145.193015 
L 82.37838 146.17218 
L 83.177609 146.965524 
L 84.100534 147.564855 
L 85.135641 147.963131 
L 86.270754 148.154509 
L 87.493125 148.134395 
L 88.789536 147.899481 
L 90.261766 147.400315 
L 91.787311 146.645977 
L 93.469367 145.549535 
L 95.170225 144.162218 
L 96.867696 142.490276 
L 98.539975 140.542389 
L 100.279674 138.161758 
L 101.941094 135.493569 
L 103.500576 132.557167 
L 104.9361 129.374564 
L 106.227543 125.970227 
L 107.356912 122.370834 
L 108.308551 118.605015 
L 109.069319 114.703066 
L 109.628745 110.696646 
L 109.97915 106.618465 
L 110.115727 102.50195 
L 110.036608 98.380916 
L 109.742875 94.289222 
L 109.238554 90.260432 
L 108.530566 86.327479 
L 107.62865 82.522335 
L 106.545245 78.875688 
L 105.295355 75.416642 
L 103.896369 72.172422 
L 102.367864 69.168109 
L 100.731376 66.426391 
L 99.010156 63.967344 
L 97.228896 61.80824 
L 95.413442 59.963381 
L 93.711716 58.534964 
L 92.025607 57.396679 
L 90.37745 56.552654 
L 88.900489 56.033863 
L 87.493125 55.769605 
L 86.270754 55.749491 
L 85.135641 55.940869 
L 84.100534 56.339145 
L 83.177609 56.938476 
L 82.37838 57.73182 
L 81.713609 58.710985 
L 81.193217 59.866694 
L 80.802811 61.305977 
L 80.602541 62.926034 
L 80.601085 64.711367 
L 80.830004 66.799879 
L 81.304552 69.039067 
L 82.029269 71.406119 
L 83.08583 74.057328 
L 84.43178 76.798541 
L 86.063668 79.599664 
L 87.974896 82.430539 
L 90.155762 85.261273 
L 92.593535 88.06256 
L 95.272567 90.805999 
L 98.17443 93.464397 
L 101.27809 96.012064 
L 104.560106 98.425077 
L 107.994863 100.68154 
L 111.554818 102.761804 
L 115.210778 104.648674 
L 118.93219 106.327577 
L 122.687455 107.786711 
L 126.444244 109.017149 
L 130.169827 110.012925 
L 133.831415 110.771071 
L 137.396492 111.291636 
L 140.833151 111.577655 
L 144.110426 111.635098 
L 147.198611 111.472773 
L 150.069569 111.102212 
L 152.697025 110.537509 
L 155.05684 109.795145 
L 156.998636 108.958411 
L 158.672678 107.999849 
L 159.975553 107.016381 
L 161.026806 105.958638 
L 161.819098 104.84256 
L 162.31578 103.774799 
L 162.584112 102.684618 
L 162.635294 101.952 
L 162.635294 101.952 
" style="fill:none;stroke:#1f77b4;stroke-linecap:square;stroke-width:1.5;"/>
   </g>
   <g id="patch_3">
    <path d="M 57.6 154.469647 
L 57.6 49.434353 
" style="fill:none;stroke:#000000;stroke-linecap:square;stroke-linejoin:miter;stroke-width:0.8;"/>
   </g>
   <g id="patch_4">
    <path d="M 162.635294 154.469647 
L 162.635294 49.434353 
" style="fill:none;stroke:#000000;stroke-linecap:square;stroke-linejoin:miter;stroke-width:0.8;"/>
   </g>
   <g id="patch_5">
    <path d="M 57.6 154.469647 
L 162.635294 154.469647 
" style="fill:none;stroke:#000000;stroke-linecap:square;stroke-linejoin:miter;stroke-width:0.8;"/>
   </g>
   <g id="patch_6">
    <path d="M 57.6 49.434353 
L 162.635294 49.434353 
" style="fill:none;stroke:#000000;stroke-linecap:square;stroke-linejoin:miter;stroke-width:0.8;"/>
   </g>
  </g>
  <g id="axes_2">
   <g id="patch_7">
    <path d="M 183.642353 154.469647 
L 288.677647 154.469647 
L 288.677647 49.434353 
L 183.642353 49.434353 
z
" style="fill:#ffffff;"/>
   </g>
   <g id="matplotlib.axis_3">
    <g id="xtick_4">
     <g id="line2d_10">
      <g>
       <use style="stroke:#000000;stroke-width:0.8;" x="183.642353" xlink:href="#md7c74c69b1" y="154.469647"/>
      </g>
     </g>
     <g id="text_9">
      <!-- −1 -->
      <g transform="translate(176.271259 169.068085)scale(0.1 -0.1)">
       <use xlink:href="#DejaVuSans-8722"/>
       <use x="83.789062" xlink:href="#DejaVuSans-49"/>
      </g>
     </g>
    </g>
    <g id="xtick_5">
     <g id="line2d_11">
      <g>
       <use style="stroke:#000000;stroke-width:0.8;" x="236.16" xlink:href="#md7c74c69b1" y="154.469647"/>
      </g>
     </g>
     <g id="text_10">
      <!-- 0 -->
      <g transform="translate(232.97875 169.068085)scale(0.1 -0.1)">
       <use xlink:href="#DejaVuSans-48"/>
      </g>
     </g>
    </g>
    <g id="xtick_6">
     <g id="line2d_12">
      <g>
       <use style="stroke:#000000;stroke-width:0.8;" x="288.677647" xlink:href="#md7c74c69b1" y="154.469647"/>
      </g>
     </g>
     <g id="text_11">
      <!-- 1 -->
      <g transform="translate(285.496397 169.068085)scale(0.1 -0.1)">
       <use xlink:href="#DejaVuSans-49"/>
      </g>
     </g>
    </g>
   </g>
   <g id="matplotlib.axis_4">
    <g id="ytick_6">
     <g id="line2d_13">
      <g>
       <use style="stroke:#000000;stroke-width:0.8;" x="183.642353" xlink:href="#mc177818738" y="154.469647"/>
      </g>
     </g>
     <g id="text_12">
      <!-- −1.0 -->
      <g transform="translate(152.35954 158.268866)scale(0.1 -0.1)">
       <use xlink:href="#DejaVuSans-8722"/>
       <use x="83.789062" xlink:href="#DejaVuSans-49"/>
       <use x="147.412109" xlink:href="#DejaVuSans-46"/>
       <use x="179.199219" xlink:href="#DejaVuSans-48"/>
      </g>
     </g>
    </g>
    <g id="ytick_7">
     <g id="line2d_14">
      <g>
       <use style="stroke:#000000;stroke-width:0.8;" x="183.642353" xlink:href="#mc177818738" y="128.210824"/>
      </g>
     </g>
     <g id="text_13">
      <!-- −0.5 -->
      <g transform="translate(152.35954 132.010042)scale(0.1 -0.1)">
       <use xlink:href="#DejaVuSans-8722"/>
       <use x="83.789062" xlink:href="#DejaVuSans-48"/>
       <use x="147.412109" xlink:href="#DejaVuSans-46"/>
       <use x="179.199219" xlink:href="#DejaVuSans-53"/>
      </g>
     </g>
    </g>
    <g id="ytick_8">
     <g id="line2d_15">
      <g>
       <use style="stroke:#000000;stroke-width:0.8;" x="183.642353" xlink:href="#mc177818738" y="101.952"/>
      </g>
     </g>
     <g id="text_14">
      <!-- 0.0 -->
      <g transform="translate(160.739228 105.751219)scale(0.1 -0.1)">
       <use xlink:href="#DejaVuSans-48"/>
       <use x="63.623047" xlink:href="#DejaVuSans-46"/>
       <use x="95.410156" xlink:href="#DejaVuSans-48"/>
      </g>
     </g>
    </g>
    <g id="ytick_9">
     <g id="line2d_16">
      <g>
       <use style="stroke:#000000;stroke-width:0.8;" x="183.642353" xlink:href="#mc177818738" y="75.693176"/>
      </g>
     </g>
     <g id="text_15">
      <!-- 0.5 -->
      <g transform="translate(160.739228 79.492395)scale(0.1 -0.1)">
       <use xlink:href="#DejaVuSans-48"/>
       <use x="63.623047" xlink:href="#DejaVuSans-46"/>
       <use x="95.410156" xlink:href="#DejaVuSans-53"/>
      </g>
     </g>
    </g>
    <g id="ytick_10">
     <g id="line2d_17">
      <g>
       <use style="stroke:#000000;stroke-width:0.8;" x="183.642353" xlink:href="#mc177818738" y="49.434353"/>
      </g>
     </g>
     <g id="text_16">
      <!-- 1.0 -->
      <g transform="translate(160.739228 53.233572)scale(0.1 -0.1)">
       <use xlink:href="#DejaVuSans-49"/>
       <use x="63.623047" xlink:href="#DejaVuSans-46"/>
       <use x="95.410156" xlink:href="#DejaVuSans-48"/>
      </g>
     </g>
    </g>
   </g>
   <g id="line2d_18">
    <path clip-path="url(#p94bfc0e93f)" d="M 288.677647 101.952 
L 288.575779 101.311589 
L 288.270628 100.678444 
L 287.674751 99.973003 
L 286.81863 99.297094 
L 285.550673 98.584882 
L 283.77437 97.870009 
L 281.626904 97.253453 
L 278.859274 96.709188 
L 275.69633 96.325147 
L 272.172531 96.119243 
L 268.326157 96.106418 
L 263.811232 96.326293 
L 259.019954 96.800287 
L 254.013483 97.53371 
L 248.855356 98.52653 
L 243.610587 99.773296 
L 238.344763 101.263147 
L 233.123125 102.979926 
L 228.009665 104.90238 
L 223.066248 107.004458 
L 218.351765 109.255689 
L 213.921338 111.621645 
L 209.82559 114.064475 
L 206.109974 116.543509 
L 202.814199 119.015908 
L 199.97173 121.437376 
L 197.787383 123.573858 
L 196.022107 125.595026 
L 194.686422 127.466715 
L 193.849618 129.010618 
L 193.404365 130.251338 
L 193.248694 131.333984 
L 193.35001 132.151126 
L 193.672331 132.821098 
L 194.131168 133.279326 
L 194.750194 133.612188 
L 195.646916 133.832653 
L 196.736822 133.87626 
L 198.181249 133.707165 
L 200.0385 133.241425 
L 202.138239 132.47798 
L 204.697209 131.291527 
L 207.481819 129.743091 
L 210.453659 127.838434 
L 213.572979 125.587968 
L 217.096391 122.756279 
L 220.69401 119.556567 
L 224.313235 116.020486 
L 227.902682 112.185406 
L 231.412959 108.093954 
L 234.797387 103.793465 
L 238.012684 99.33536 
L 241.019569 94.774446 
L 243.783307 90.168161 
L 246.274164 85.575773 
L 248.46778 81.057535 
L 250.345451 76.673824 
L 251.894308 72.48426 
L 253.107406 68.546838 
L 253.983709 64.917069 
L 254.49509 61.904691 
L 254.735216 59.231929 
L 254.715656 56.932604 
L 254.485161 55.1917 
L 254.116102 53.926223 
L 253.605678 52.958843 
L 253.043408 52.357313 
L 252.388845 52.00475 
L 251.748299 51.903734 
L 251.051846 51.998297 
L 250.196795 52.347016 
L 249.289412 52.952368 
L 248.220237 53.938182 
L 246.991445 55.406638 
L 245.741462 57.258474 
L 244.368591 59.722459 
L 243.025943 62.611923 
L 241.741202 65.899627 
L 240.540411 69.553782 
L 239.354336 73.915676 
L 238.324544 78.618925 
L 237.474986 83.607002 
L 236.825265 88.819471 
L 236.390287 94.192814 
L 236.179991 99.6613 
L 236.199169 105.157886 
L 236.447386 110.615146 
L 236.918982 115.966193 
L 237.603174 121.145602 
L 238.484255 126.090309 
L 239.541868 130.740473 
L 240.751381 135.040297 
L 242.084322 138.938779 
L 243.508903 142.390402 
L 244.865819 145.128049 
L 246.242563 147.431502 
L 247.609896 149.280197 
L 248.819648 150.553137 
L 249.862052 151.360002 
L 250.843605 151.842609 
L 251.652061 151.998763 
L 252.388845 151.89925 
L 252.966434 151.60447 
L 253.474294 151.118602 
L 253.961072 150.333896 
L 254.339344 149.310809 
L 254.624877 147.884824 
L 254.755854 145.974552 
L 254.67863 143.741664 
L 254.341011 140.941305 
L 253.728853 137.814491 
L 252.835766 134.399531 
L 251.659368 130.73745 
L 250.055066 126.511446 
L 248.123685 122.101141 
L 245.879074 117.566345 
L 243.340896 112.967472 
L 240.534429 108.364673 
L 237.490267 103.816966 
L 234.243939 99.381407 
L 230.83543 95.112289 
L 227.308635 91.060398 
L 223.710731 87.272326 
L 220.091496 83.789861 
L 216.502571 80.649448 
L 212.996682 77.881751 
L 209.62684 75.511297 
L 206.445516 73.556222 
L 203.7386 72.138995 
L 201.270855 71.084692 
L 199.078023 70.392764 
L 197.351098 70.074008 
L 196.033513 70.033951 
L 194.95575 70.220456 
L 194.20991 70.569323 
L 193.672331 71.082902 
L 193.37832 71.660882 
L 193.253039 72.35247 
L 193.320465 73.273431 
L 193.615792 74.323468 
L 194.222964 75.644947 
L 195.239831 77.267376 
L 196.614765 79.028429 
L 198.533914 81.09552 
L 200.867056 83.265348 
L 203.596842 85.503165 
L 206.701085 87.774382 
L 210.482976 90.250306 
L 214.637808 92.68308 
L 219.119223 95.032458 
L 223.875801 97.261121 
L 228.851738 99.335264 
L 233.987592 101.225122 
L 239.221083 102.905421 
L 244.487949 104.355739 
L 249.722828 105.56079 
L 254.860166 106.510609 
L 259.83513 107.20065 
L 264.58452 107.63178 
L 269.047655 107.810184 
L 273.167233 107.747178 
L 276.890142 107.458931 
L 279.913108 107.014407 
L 282.52926 106.416852 
L 284.710003 105.687719 
L 286.294475 104.930537 
L 287.383969 104.188487 
L 288.146272 103.404108 
L 288.54461 102.683475 
L 288.677647 101.952 
L 288.575779 101.311589 
L 288.270628 100.678444 
L 287.674751 99.973003 
L 286.81863 99.297094 
L 285.550673 98.584882 
L 283.77437 97.870009 
L 281.626904 97.253453 
L 278.859274 96.709188 
L 275.69633 96.325147 
L 272.172531 96.119243 
L 268.326157 96.106418 
L 263.811232 96.326293 
L 259.019954 96.800287 
L 254.013483 97.53371 
L 248.855356 98.52653 
L 243.610587 99.773296 
L 238.344763 101.263147 
L 233.123125 102.979926 
L 228.009665 104.90238 
L 223.066248 107.004458 
L 218.351765 109.255689 
L 213.921338 111.621645 
L 209.82559 114.064475 
L 206.109974 116.543509 
L 202.814199 119.015908 
L 199.97173 121.437376 
L 197.787383 123.573858 
L 196.022107 125.595026 
L 194.686422 127.466715 
L 193.849618 129.010618 
L 193.404365 130.251338 
L 193.248694 131.333984 
L 193.35001 132.151126 
L 193.672331 132.821098 
L 194.131168 133.279326 
L 194.750194 133.612188 
L 195.646916 133.832653 
L 196.736822 133.87626 
L 198.181249 133.707165 
L 200.0385 133.241425 
L 202.138239 132.47798 
L 204.697209 131.291527 
L 207.481819 129.743091 
L 210.453659 127.838434 
L 213.572979 125.587968 
L 217.096391 122.756279 
L 220.69401 119.556567 
L 224.313235 116.020486 
L 227.902682 112.185406 
L 231.412959 108.093954 
L 234.797387 103.793465 
L 238.012684 99.33536 
L 241.019569 94.774446 
L 243.783307 90.168161 
L 246.274164 85.575773 
L 248.46778 81.057535 
L 250.345451 76.673824 
L 251.894308 72.48426 
L 253.107406 68.546838 
L 253.983709 64.917069 
L 254.49509 61.904691 
L 254.735216 59.231929 
L 254.715656 56.932604 
L 254.485161 55.1917 
L 254.116102 53.926223 
L 253.605678 52.958843 
L 253.043408 52.357313 
L 252.388845 52.00475 
L 251.748299 51.903734 
L 251.051846 51.998297 
L 250.196795 52.347016 
L 249.289412 52.952368 
L 248.220237 53.938182 
L 246.991445 55.406638 
L 245.741462 57.258474 
L 244.368591 59.722459 
L 243.025943 62.611923 
L 241.741202 65.899627 
L 240.540411 69.553782 
L 239.354336 73.915676 
L 238.324544 78.618925 
L 237.474986 83.607002 
L 236.825265 88.819471 
L 236.390287 94.192814 
L 236.179991 99.6613 
L 236.199169 105.157886 
L 236.447386 110.615146 
L 236.918982 115.966193 
L 237.603174 121.145602 
L 238.484255 126.090309 
L 239.541868 130.740473 
L 240.751381 135.040297 
L 242.084322 138.938779 
L 243.508903 142.390402 
L 244.865819 145.128049 
L 246.242563 147.431502 
L 247.609896 149.280197 
L 248.819648 150.553137 
L 249.862052 151.360002 
L 250.843605 151.842609 
L 251.652061 151.998763 
L 252.388845 151.89925 
L 252.966434 151.60447 
L 253.474294 151.118602 
L 253.961072 150.333896 
L 254.339344 149.310809 
L 254.624877 147.884824 
L 254.755854 145.974552 
L 254.67863 143.741664 
L 254.341011 140.941305 
L 253.728853 137.814491 
L 252.835766 134.399531 
L 251.659368 130.73745 
L 250.055066 126.511446 
L 248.123685 122.101141 
L 245.879074 117.566345 
L 243.340896 112.967472 
L 240.534429 108.364673 
L 237.490267 103.816966 
L 234.243939 99.381407 
L 230.83543 95.112289 
L 227.308635 91.060398 
L 223.710731 87.272326 
L 220.091496 83.789861 
L 216.502571 80.649448 
L 212.996682 77.881751 
L 209.62684 75.511297 
L 206.445516 73.556222 
L 203.7386 72.138995 
L 201.270855 71.084692 
L 199.078023 70.392764 
L 197.351098 70.074008 
L 196.033513 70.033951 
L 194.95575 70.220456 
L 194.20991 70.569323 
L 193.672331 71.082902 
L 193.37832 71.660882 
L 193.253039 72.35247 
L 193.320465 73.273431 
L 193.615792 74.323468 
L 194.222964 75.644947 
L 195.239831 77.267376 
L 196.614765 79.028429 
L 198.533914 81.09552 
L 200.867056 83.265348 
L 203.596842 85.503165 
L 206.701085 87.774382 
L 210.482976 90.250306 
L 214.637808 92.68308 
L 219.119223 95.032458 
L 223.875801 97.261121 
L 228.851738 99.335264 
L 233.987592 101.225122 
L 239.221083 102.905421 
L 244.487949 104.355739 
L 249.722828 105.56079 
L 254.860166 106.510609 
L 259.83513 107.20065 
L 264.58452 107.63178 
L 269.047655 107.810184 
L 273.167233 107.747178 
L 276.890142 107.458931 
L 279.913108 107.014407 
L 282.52926 106.416852 
L 284.710003 105.687719 
L 286.294475 104.930537 
L 287.383969 104.188487 
L 288.146272 103.404108 
L 288.54461 102.683475 
L 288.677647 101.952 
L 288.677647 101.952 
" style="fill:none;stroke:#1f77b4;stroke-linecap:square;stroke-width:1.5;"/>
   </g>
   <g id="patch_8">
    <path d="M 183.642353 154.469647 
L 183.642353 49.434353 
" style="fill:none;stroke:#000000;stroke-linecap:square;stroke-linejoin:miter;stroke-width:0.8;"/>
   </g>
   <g id="patch_9">
    <path d="M 288.677647 154.469647 
L 288.677647 49.434353 
" style="fill:none;stroke:#000000;stroke-linecap:square;stroke-linejoin:miter;stroke-width:0.8;"/>
   </g>
   <g id="patch_10">
    <path d="M 183.642353 154.469647 
L 288.677647 154.469647 
" style="fill:none;stroke:#000000;stroke-linecap:square;stroke-linejoin:miter;stroke-width:0.8;"/>
   </g>
   <g id="patch_11">
    <path d="M 183.642353 49.434353 
L 288.677647 49.434353 
" style="fill:none;stroke:#000000;stroke-linecap:square;stroke-linejoin:miter;stroke-width:0.8;"/>
   </g>
  </g>
  <g id="axes_3">
   <g id="patch_12">
    <path d="M 309.684706 154.469647 
L 414.72 154.469647 
L 414.72 49.434353 
L 309.684706 49.434353 
z
" style="fill:#ffffff;"/>
   </g>
   <g id="matplotlib.axis_5">
    <g id="xtick_7">
     <g id="line2d_19">
      <g>
       <use style="stroke:#000000;stroke-width:0.8;" x="309.684706" xlink:href="#md7c74c69b1" y="154.469647"/>
      </g>
     </g>
     <g id="text_17">
      <!-- −1 -->
      <g transform="translate(302.313612 169.068085)scale(0.1 -0.1)">
       <use xlink:href="#DejaVuSans-8722"/>
       <use x="83.789062" xlink:href="#DejaVuSans-49"/>
      </g>
     </g>
    </g>
    <g id="xtick_8">
     <g id="line2d_20">
      <g>
       <use style="stroke:#000000;stroke-width:0.8;" x="362.202353" xlink:href="#md7c74c69b1" y="154.469647"/>
      </g>
     </g>
     <g id="text_18">
      <!-- 0 -->
      <g transform="translate(359.021103 169.068085)scale(0.1 -0.1)">
       <use xlink:href="#DejaVuSans-48"/>
      </g>
     </g>
    </g>
    <g id="xtick_9">
     <g id="line2d_21">
      <g>
       <use style="stroke:#000000;stroke-width:0.8;" x="414.72" xlink:href="#md7c74c69b1" y="154.469647"/>
      </g>
     </g>
     <g id="text_19">
      <!-- 1 -->
      <g transform="translate(411.53875 169.068085)scale(0.1 -0.1)">
       <use xlink:href="#DejaVuSans-49"/>
      </g>
     </g>
    </g>
   </g>
   <g id="matplotlib.axis_6">
    <g id="ytick_11">
     <g id="line2d_22">
      <g>
       <use style="stroke:#000000;stroke-width:0.8;" x="309.684706" xlink:href="#mc177818738" y="154.469647"/>
      </g>
     </g>
     <g id="text_20">
      <!-- −1.0 -->
      <g transform="translate(278.401893 158.268866)scale(0.1 -0.1)">
       <use xlink:href="#DejaVuSans-8722"/>
       <use x="83.789062" xlink:href="#DejaVuSans-49"/>
       <use x="147.412109" xlink:href="#DejaVuSans-46"/>
       <use x="179.199219" xlink:href="#DejaVuSans-48"/>
      </g>
     </g>
    </g>
    <g id="ytick_12">
     <g id="line2d_23">
      <g>
       <use style="stroke:#000000;stroke-width:0.8;" x="309.684706" xlink:href="#mc177818738" y="128.210824"/>
      </g>
     </g>
     <g id="text_21">
      <!-- −0.5 -->
      <g transform="translate(278.401893 132.010042)scale(0.1 -0.1)">
       <use xlink:href="#DejaVuSans-8722"/>
       <use x="83.789062" xlink:href="#DejaVuSans-48"/>
       <use x="147.412109" xlink:href="#DejaVuSans-46"/>
       <use x="179.199219" xlink:href="#DejaVuSans-53"/>
      </g>
     </g>
    </g>
    <g id="ytick_13">
     <g id="line2d_24">
      <g>
       <use style="stroke:#000000;stroke-width:0.8;" x="309.684706" xlink:href="#mc177818738" y="101.952"/>
      </g>
     </g>
     <g id="text_22">
      <!-- 0.0 -->
      <g transform="translate(286.781581 105.751219)scale(0.1 -0.1)">
       <use xlink:href="#DejaVuSans-48"/>
       <use x="63.623047" xlink:href="#DejaVuSans-46"/>
       <use x="95.410156" xlink:href="#DejaVuSans-48"/>
      </g>
     </g>
    </g>
    <g id="ytick_14">
     <g id="line2d_25">
      <g>
       <use style="stroke:#000000;stroke-width:0.8;" x="309.684706" xlink:href="#mc177818738" y="75.693176"/>
      </g>
     </g>
     <g id="text_23">
      <!-- 0.5 -->
      <g transform="translate(286.781581 79.492395)scale(0.1 -0.1)">
       <use xlink:href="#DejaVuSans-48"/>
       <use x="63.623047" xlink:href="#DejaVuSans-46"/>
       <use x="95.410156" xlink:href="#DejaVuSans-53"/>
      </g>
     </g>
    </g>
    <g id="ytick_15">
     <g id="line2d_26">
      <g>
       <use style="stroke:#000000;stroke-width:0.8;" x="309.684706" xlink:href="#mc177818738" y="49.434353"/>
      </g>
     </g>
     <g id="text_24">
      <!-- 1.0 -->
      <g transform="translate(286.781581 53.233572)scale(0.1 -0.1)">
       <use xlink:href="#DejaVuSans-49"/>
       <use x="63.623047" xlink:href="#DejaVuSans-46"/>
       <use x="95.410156" xlink:href="#DejaVuSans-48"/>
      </g>
     </g>
    </g>
   </g>
   <g id="line2d_27">
    <path clip-path="url(#p5587f23c52)" d="M 414.72 101.952 
L 414.620048 101.494558 
L 414.236868 100.952886 
L 413.568724 100.427482 
L 412.43442 99.846653 
L 410.681627 99.241588 
L 408.459727 98.717369 
L 405.428533 98.246209 
L 401.873363 97.922366 
L 397.84122 97.765395 
L 392.866551 97.806038 
L 387.449663 98.088619 
L 381.678289 98.622917 
L 375.645561 99.411879 
L 369.448407 100.451414 
L 363.185891 101.73035 
L 356.957521 103.230552 
L 350.861554 104.927203 
L 344.99334 106.789235 
L 339.443718 108.779918 
L 334.297507 110.857572 
L 329.632104 112.976421 
L 325.516235 115.087532 
L 322.00885 117.139859 
L 319.412584 118.893668 
L 317.375737 120.519792 
L 316.050791 121.828003 
L 315.191781 122.980845 
L 314.825126 123.843352 
L 314.796277 124.46206 
L 314.971855 124.885898 
L 315.326657 125.221297 
L 315.984893 125.500972 
L 316.890699 125.64036 
L 318.249936 125.617938 
L 320.184006 125.339112 
L 322.499326 124.782253 
L 325.522928 123.817325 
L 328.94458 122.492419 
L 333.150202 120.603149 
L 337.706761 118.288529 
L 342.533258 115.571527 
L 347.545708 112.483868 
L 352.658662 109.065648 
L 357.786741 105.364773 
L 362.846139 101.43623 
L 367.756082 97.341205 
L 372.440206 93.146057 
L 376.827831 88.921175 
L 380.855113 84.739729 
L 384.466051 80.676348 
L 387.613333 76.805739 
L 390.259003 73.201283 
L 392.374942 69.933626 
L 393.811294 67.335793 
L 394.797839 65.109505 
L 395.297519 63.475319 
L 395.447191 62.332345 
L 395.366257 61.577603 
L 395.097281 61.038961 
L 394.733794 60.760051 
L 394.247936 60.639083 
L 393.50982 60.705935 
L 392.610828 61.006954 
L 391.371595 61.656272 
L 389.724839 62.791464 
L 387.858216 64.341911 
L 385.531538 66.571434 
L 383.006632 69.295823 
L 380.023464 72.87059 
L 376.914079 76.976445 
L 373.741442 81.556729 
L 370.567304 86.545676 
L 367.451003 91.869437 
L 364.448331 97.447264 
L 361.610507 103.192831 
L 358.983254 109.015668 
L 356.606017 114.822691 
L 354.511322 120.519792 
L 352.724292 126.013461 
L 351.262332 131.212415 
L 350.13498 136.029209 
L 349.343928 140.38178 
L 348.883211 144.194922 
L 348.740175 147.109979 
L 348.839637 149.491374 
L 349.116756 151.131291 
L 349.492377 152.181337 
L 349.904066 152.787023 
L 350.390252 153.115829 
L 350.846272 153.175969 
L 351.343136 153.0406 
L 351.985912 152.619901 
L 352.788248 151.774744 
L 353.632738 150.552701 
L 354.630041 148.704869 
L 355.766088 146.070992 
L 356.886784 142.879613 
L 357.96196 139.169448 
L 359.068867 134.494492 
L 360.049404 129.307806 
L 360.872794 123.690092 
L 361.5135 117.72933 
L 361.951824 111.519301 
L 362.174375 105.158004 
L 362.174375 98.745996 
L 361.951824 92.384699 
L 361.5135 86.17467 
L 360.872794 80.213908 
L 360.049404 74.596194 
L 359.068867 69.409508 
L 357.96196 64.734552 
L 356.763973 60.6434 
L 355.513868 57.198304 
L 354.378647 54.692823 
L 353.266623 52.781854 
L 352.32364 51.599779 
L 351.55215 50.972355 
L 350.942543 50.739447 
L 350.477943 50.760537 
L 350.058256 50.976418 
L 349.62083 51.490268 
L 349.263234 52.277956 
L 348.956981 53.535076 
L 348.766588 55.402702 
L 348.760109 57.708367 
L 348.987394 60.792222 
L 349.475413 64.351876 
L 350.232549 68.336886 
L 351.393566 73.195689 
L 352.888592 78.428125 
L 354.707301 83.946294 
L 356.831506 89.658618 
L 359.235327 95.471454 
L 361.885521 101.290722 
L 364.741985 107.023528 
L 367.758408 112.579752 
L 370.88307 117.873562 
L 374.059777 122.824841 
L 377.228897 127.360499 
L 380.328503 131.415637 
L 383.295577 134.934555 
L 386.067266 137.871582 
L 388.34393 139.988231 
L 390.369636 141.587218 
L 391.926855 142.565382 
L 393.227572 143.123857 
L 394.136472 143.269922 
L 394.733794 143.143949 
L 395.097281 142.865039 
L 395.334337 142.431375 
L 395.446981 141.712129 
L 395.367444 140.783332 
L 395.026651 139.446893 
L 394.305405 137.606051 
L 393.228244 135.456914 
L 391.593514 132.708093 
L 389.519838 129.653597 
L 386.720278 125.961726 
L 383.429477 122.025493 
L 379.688257 117.918825 
L 375.546618 113.716552 
L 371.063008 109.493008 
L 366.303435 105.320667 
L 361.34041 101.268833 
L 356.251762 97.402429 
L 351.119321 93.780884 
L 346.02752 90.457145 
L 341.061921 87.476844 
L 336.307693 84.877618 
L 331.848086 82.688596 
L 327.762907 80.930073 
L 324.127049 79.613352 
L 321.295768 78.808168 
L 318.928815 78.358501 
L 317.246348 78.249387 
L 316.118861 78.369886 
L 315.418884 78.626623 
L 314.971855 79.018102 
L 314.796277 79.44194 
L 314.802067 79.94952 
L 315.050336 80.662048 
L 315.67377 81.624162 
L 316.65543 82.712226 
L 318.210506 84.088764 
L 320.498862 85.776282 
L 323.335448 87.574695 
L 326.689588 89.445981 
L 330.976971 91.564698 
L 335.79425 93.676202 
L 341.069974 95.732403 
L 346.724381 97.688656 
L 352.670695 99.504686 
L 358.816559 101.14539 
L 365.065579 102.581521 
L 371.318947 103.790228 
L 377.477111 104.755443 
L 383.441469 105.468113 
L 389.11606 105.926271 
L 394.409208 106.13494 
L 399.2351 106.105888 
L 403.515269 105.85722 
L 407.179954 105.412838 
L 409.902242 104.86945 
L 412.041291 104.215173 
L 413.429915 103.561891 
L 414.236868 102.951114 
L 414.620048 102.409442 
L 414.72 101.952 
L 414.620048 101.494558 
L 414.236868 100.952886 
L 413.568724 100.427482 
L 412.43442 99.846653 
L 410.681627 99.241588 
L 408.459727 98.717369 
L 405.428533 98.246209 
L 401.873363 97.922366 
L 397.84122 97.765395 
L 392.866551 97.806038 
L 387.449663 98.088619 
L 381.678289 98.622917 
L 375.645561 99.411879 
L 369.448407 100.451414 
L 363.185891 101.73035 
L 356.957521 103.230552 
L 350.861554 104.927203 
L 344.99334 106.789235 
L 339.443718 108.779918 
L 334.297507 110.857572 
L 329.632104 112.976421 
L 325.516235 115.087532 
L 322.00885 117.139859 
L 319.412584 118.893668 
L 317.375737 120.519792 
L 316.050791 121.828003 
L 315.191781 122.980845 
L 314.825126 123.843352 
L 314.796277 124.46206 
L 314.971855 124.885898 
L 315.326657 125.221297 
L 315.984893 125.500972 
L 316.890699 125.64036 
L 318.249936 125.617938 
L 320.184006 125.339112 
L 322.499326 124.782253 
L 325.522928 123.817325 
L 328.94458 122.492419 
L 333.150202 120.603149 
L 337.706761 118.288529 
L 342.533258 115.571527 
L 347.545708 112.483868 
L 352.658662 109.065648 
L 357.786741 105.364773 
L 362.846139 101.43623 
L 367.756082 97.341205 
L 372.440206 93.146057 
L 376.827831 88.921175 
L 380.855113 84.739729 
L 384.466051 80.676348 
L 387.613333 76.805739 
L 390.259003 73.201283 
L 392.374942 69.933626 
L 393.811294 67.335793 
L 394.797839 65.109505 
L 395.297519 63.475319 
L 395.447191 62.332345 
L 395.366257 61.577603 
L 395.097281 61.038961 
L 394.733794 60.760051 
L 394.247936 60.639083 
L 393.50982 60.705935 
L 392.610828 61.006954 
L 391.371595 61.656272 
L 389.724839 62.791464 
L 387.858216 64.341911 
L 385.531538 66.571434 
L 383.006632 69.295823 
L 380.023464 72.87059 
L 376.914079 76.976445 
L 373.741442 81.556729 
L 370.567304 86.545676 
L 367.451003 91.869437 
L 364.448331 97.447264 
L 361.610507 103.192831 
L 358.983254 109.015668 
L 356.606017 114.822691 
L 354.511322 120.519792 
L 352.724292 126.013461 
L 351.262332 131.212415 
L 350.13498 136.029209 
L 349.343928 140.38178 
L 348.883211 144.194922 
L 348.740175 147.109979 
L 348.839637 149.491374 
L 349.116756 151.131291 
L 349.492377 152.181337 
L 349.904066 152.787023 
L 350.390252 153.115829 
L 350.846272 153.175969 
L 351.343136 153.0406 
L 351.985912 152.619901 
L 352.788248 151.774744 
L 353.632738 150.552701 
L 354.630041 148.704869 
L 355.766088 146.070992 
L 356.886784 142.879613 
L 357.96196 139.169448 
L 359.068867 134.494492 
L 360.049404 129.307806 
L 360.872794 123.690092 
L 361.5135 117.72933 
L 361.951824 111.519301 
L 362.174375 105.158004 
L 362.174375 98.745996 
L 361.951824 92.384699 
L 361.5135 86.17467 
L 360.872794 80.213908 
L 360.049404 74.596194 
L 359.068867 69.409508 
L 357.96196 64.734552 
L 356.763973 60.6434 
L 355.513868 57.198304 
L 354.378647 54.692823 
L 353.266623 52.781854 
L 352.32364 51.599779 
L 351.55215 50.972355 
L 350.942543 50.739447 
L 350.477943 50.760537 
L 350.058256 50.976418 
L 349.62083 51.490268 
L 349.263234 52.277956 
L 348.956981 53.535076 
L 348.766588 55.402702 
L 348.760109 57.708367 
L 348.987394 60.792222 
L 349.475413 64.351876 
L 350.232549 68.336886 
L 351.393566 73.195689 
L 352.888592 78.428125 
L 354.707301 83.946294 
L 356.831506 89.658618 
L 359.235327 95.471454 
L 361.885521 101.290722 
L 364.741985 107.023528 
L 367.758408 112.579752 
L 370.88307 117.873562 
L 374.059777 122.824841 
L 377.228897 127.360499 
L 380.328503 131.415637 
L 383.295577 134.934555 
L 386.067266 137.871582 
L 388.34393 139.988231 
L 390.369636 141.587218 
L 391.926855 142.565382 
L 393.227572 143.123857 
L 394.136472 143.269922 
L 394.733794 143.143949 
L 395.097281 142.865039 
L 395.334337 142.431375 
L 395.446981 141.712129 
L 395.367444 140.783332 
L 395.026651 139.446893 
L 394.305405 137.606051 
L 393.228244 135.456914 
L 391.593514 132.708093 
L 389.519838 129.653597 
L 386.720278 125.961726 
L 383.429477 122.025493 
L 379.688257 117.918825 
L 375.546618 113.716552 
L 371.063008 109.493008 
L 366.303435 105.320667 
L 361.34041 101.268833 
L 356.251762 97.402429 
L 351.119321 93.780884 
L 346.02752 90.457145 
L 341.061921 87.476844 
L 336.307693 84.877618 
L 331.848086 82.688596 
L 327.762907 80.930073 
L 324.127049 79.613352 
L 321.295768 78.808168 
L 318.928815 78.358501 
L 317.246348 78.249387 
L 316.118861 78.369886 
L 315.418884 78.626623 
L 314.971855 79.018102 
L 314.796277 79.44194 
L 314.802067 79.94952 
L 315.050336 80.662048 
L 315.67377 81.624162 
L 316.65543 82.712226 
L 318.210506 84.088764 
L 320.498862 85.776282 
L 323.335448 87.574695 
L 326.689588 89.445981 
L 330.976971 91.564698 
L 335.79425 93.676202 
L 341.069974 95.732403 
L 346.724381 97.688656 
L 352.670695 99.504686 
L 358.816559 101.14539 
L 365.065579 102.581521 
L 371.318947 103.790228 
L 377.477111 104.755443 
L 383.441469 105.468113 
L 389.11606 105.926271 
L 394.409208 106.13494 
L 399.2351 106.105888 
L 403.515269 105.85722 
L 407.179954 105.412838 
L 409.902242 104.86945 
L 412.041291 104.215173 
L 413.429915 103.561891 
L 414.236868 102.951114 
L 414.620048 102.409442 
L 414.72 101.952 
L 414.72 101.952 
" style="fill:none;stroke:#1f77b4;stroke-linecap:square;stroke-width:1.5;"/>
   </g>
   <g id="patch_13">
    <path d="M 309.684706 154.469647 
L 309.684706 49.434353 
" style="fill:none;stroke:#000000;stroke-linecap:square;stroke-linejoin:miter;stroke-width:0.8;"/>
   </g>
   <g id="patch_14">
    <path d="M 414.72 154.469647 
L 414.72 49.434353 
" style="fill:none;stroke:#000000;stroke-linecap:square;stroke-linejoin:miter;stroke-width:0.8;"/>
   </g>
   <g id="patch_15">
    <path d="M 309.684706 154.469647 
L 414.72 154.469647 
" style="fill:none;stroke:#000000;stroke-linecap:square;stroke-linejoin:miter;stroke-width:0.8;"/>
   </g>
   <g id="patch_16">
    <path d="M 309.684706 49.434353 
L 414.72 49.434353 
" style="fill:none;stroke:#000000;stroke-linecap:square;stroke-linejoin:miter;stroke-width:0.8;"/>
   </g>
  </g>
  <g id="axes_4">
   <g id="patch_17">
    <path d="M 57.6 299.621647 
L 162.635294 299.621647 
L 162.635294 194.586353 
L 57.6 194.586353 
z
" style="fill:#ffffff;"/>
   </g>
   <g id="matplotlib.axis_7">
    <g id="xtick_10">
     <g id="line2d_28">
      <g>
       <use style="stroke:#000000;stroke-width:0.8;" x="57.6" xlink:href="#md7c74c69b1" y="299.621647"/>
      </g>
     </g>
     <g id="text_25">
      <!-- −1 -->
      <g transform="translate(50.228906 314.220085)scale(0.1 -0.1)">
       <use xlink:href="#DejaVuSans-8722"/>
       <use x="83.789062" xlink:href="#DejaVuSans-49"/>
      </g>
     </g>
    </g>
    <g id="xtick_11">
     <g id="line2d_29">
      <g>
       <use style="stroke:#000000;stroke-width:0.8;" x="110.117647" xlink:href="#md7c74c69b1" y="299.621647"/>
      </g>
     </g>
     <g id="text_26">
      <!-- 0 -->
      <g transform="translate(106.936397 314.220085)scale(0.1 -0.1)">
       <use xlink:href="#DejaVuSans-48"/>
      </g>
     </g>
    </g>
    <g id="xtick_12">
     <g id="line2d_30">
      <g>
       <use style="stroke:#000000;stroke-width:0.8;" x="162.635294" xlink:href="#md7c74c69b1" y="299.621647"/>
      </g>
     </g>
     <g id="text_27">
      <!-- 1 -->
      <g transform="translate(159.454044 314.220085)scale(0.1 -0.1)">
       <use xlink:href="#DejaVuSans-49"/>
      </g>
     </g>
    </g>
   </g>
   <g id="matplotlib.axis_8">
    <g id="ytick_16">
     <g id="line2d_31">
      <g>
       <use style="stroke:#000000;stroke-width:0.8;" x="57.6" xlink:href="#mc177818738" y="299.621647"/>
      </g>
     </g>
     <g id="text_28">
      <!-- −1.0 -->
      <g transform="translate(26.317187 303.420866)scale(0.1 -0.1)">
       <use xlink:href="#DejaVuSans-8722"/>
       <use x="83.789062" xlink:href="#DejaVuSans-49"/>
       <use x="147.412109" xlink:href="#DejaVuSans-46"/>
       <use x="179.199219" xlink:href="#DejaVuSans-48"/>
      </g>
     </g>
    </g>
    <g id="ytick_17">
     <g id="line2d_32">
      <g>
       <use style="stroke:#000000;stroke-width:0.8;" x="57.6" xlink:href="#mc177818738" y="273.362824"/>
      </g>
     </g>
     <g id="text_29">
      <!-- −0.5 -->
      <g transform="translate(26.317187 277.162042)scale(0.1 -0.1)">
       <use xlink:href="#DejaVuSans-8722"/>
       <use x="83.789062" xlink:href="#DejaVuSans-48"/>
       <use x="147.412109" xlink:href="#DejaVuSans-46"/>
       <use x="179.199219" xlink:href="#DejaVuSans-53"/>
      </g>
     </g>
    </g>
    <g id="ytick_18">
     <g id="line2d_33">
      <g>
       <use style="stroke:#000000;stroke-width:0.8;" x="57.6" xlink:href="#mc177818738" y="247.104"/>
      </g>
     </g>
     <g id="text_30">
      <!-- 0.0 -->
      <g transform="translate(34.696875 250.903219)scale(0.1 -0.1)">
       <use xlink:href="#DejaVuSans-48"/>
       <use x="63.623047" xlink:href="#DejaVuSans-46"/>
       <use x="95.410156" xlink:href="#DejaVuSans-48"/>
      </g>
     </g>
    </g>
    <g id="ytick_19">
     <g id="line2d_34">
      <g>
       <use style="stroke:#000000;stroke-width:0.8;" x="57.6" xlink:href="#mc177818738" y="220.845176"/>
      </g>
     </g>
     <g id="text_31">
      <!-- 0.5 -->
      <g transform="translate(34.696875 224.644395)scale(0.1 -0.1)">
       <use xlink:href="#DejaVuSans-48"/>
       <use x="63.623047" xlink:href="#DejaVuSans-46"/>
       <use x="95.410156" xlink:href="#DejaVuSans-53"/>
      </g>
     </g>
    </g>
    <g id="ytick_20">
     <g id="line2d_35">
      <g>
       <use style="stroke:#000000;stroke-width:0.8;" x="57.6" xlink:href="#mc177818738" y="194.586353"/>
      </g>
     </g>
     <g id="text_32">
      <!-- 1.0 -->
      <g transform="translate(34.696875 198.385572)scale(0.1 -0.1)">
       <use xlink:href="#DejaVuSans-49"/>
       <use x="63.623047" xlink:href="#DejaVuSans-46"/>
       <use x="95.410156" xlink:href="#DejaVuSans-48"/>
      </g>
     </g>
    </g>
   </g>
   <g id="line2d_36">
    <path clip-path="url(#p40475dbdb9)" d="M 162.635294 247.104 
L 162.525196 246.280716 
L 162.195467 245.467389 
L 161.647794 244.6739 
L 160.787101 243.827353 
L 159.666264 243.030362 
L 158.14136 242.225929 
L 156.321891 241.512672 
L 154.017391 240.856141 
L 151.399674 240.343809 
L 148.492334 239.991672 
L 145.046238 239.807037 
L 141.327137 239.841324 
L 137.373928 240.105776 
L 133.227744 240.608045 
L 128.931467 241.352038 
L 124.529233 242.337824 
L 120.065905 243.561585 
L 115.58656 245.015625 
L 111.135963 246.688433 
L 106.758047 248.564796 
L 102.495417 250.625965 
L 98.388861 252.849873 
L 94.476891 255.211398 
L 90.795313 257.682669 
L 87.376839 260.233412 
L 84.250727 262.831334 
L 81.442478 265.442536 
L 78.973574 268.031948 
L 76.861271 270.563793 
L 75.118441 273.00205 
L 73.844943 275.138732 
L 72.896641 277.137566 
L 72.273435 278.971785 
L 71.984962 280.486642 
L 71.961991 281.822976 
L 72.165599 282.868201 
L 72.525895 283.660382 
L 73.047836 284.303435 
L 73.724692 284.790008 
L 74.548937 285.113552 
L 75.627558 285.274938 
L 76.865614 285.221521 
L 78.395792 284.908634 
L 80.084081 284.325006 
L 82.082915 283.376704 
L 84.219597 282.103206 
L 86.466515 280.507692 
L 88.992439 278.423409 
L 91.578699 275.981379 
L 94.189482 273.198523 
L 96.789647 270.096007 
L 99.345189 266.699029 
L 101.823675 263.036571 
L 104.194665 259.141089 
L 106.430088 255.048166 
L 108.5046 250.79612 
L 110.395887 246.42558 
L 112.08494 241.979027 
L 113.556265 237.500312 
L 114.798062 233.034153 
L 115.802339 228.62562 
L 116.564979 224.319614 
L 117.085751 220.160342 
L 117.368272 216.190803 
L 117.419909 212.452282 
L 117.251637 208.983863 
L 116.877838 205.821973 
L 116.316068 202.999945 
L 115.648303 200.722526 
L 114.855783 198.780751 
L 114.036463 197.31072 
L 113.144947 196.148743 
L 112.28606 195.36723 
L 111.394644 194.852601 
L 110.575665 194.620344 
L 109.751151 194.608108 
L 108.931065 194.815957 
L 108.125342 195.242825 
L 107.258885 195.971303 
L 106.435511 196.96285 
L 105.594864 198.349881 
L 104.838242 200.037042 
L 104.126804 202.204723 
L 103.552332 204.694646 
L 103.131633 207.484345 
L 102.866517 210.815638 
L 102.815082 214.434203 
L 102.989904 218.302126 
L 103.400035 222.379079 
L 104.050837 226.622794 
L 104.943865 230.989557 
L 106.076797 235.434721 
L 107.443424 239.913232 
L 109.033692 244.380142 
L 110.833794 248.791138 
L 112.82632 253.103045 
L 114.990448 257.274321 
L 117.302199 261.265526 
L 119.73472 265.039765 
L 122.258617 268.563091 
L 124.842327 271.80488 
L 127.452517 274.73815 
L 130.054516 277.339849 
L 132.612762 279.591072 
L 135.091272 281.477246 
L 137.454119 282.988248 
L 139.501924 284.045099 
L 141.393925 284.776458 
L 142.969131 285.16281 
L 144.372468 285.281622 
L 145.483993 285.162721 
L 146.426153 284.83412 
L 147.119771 284.365353 
L 147.659272 283.739338 
L 148.037835 282.96334 
L 148.249473 282.045381 
L 148.282669 280.86956 
L 148.097834 279.542144 
L 147.637712 277.923329 
L 146.905222 276.157076 
L 145.79413 274.085912 
L 144.359021 271.890621 
L 142.604719 269.599115 
L 140.353496 267.040869 
L 137.751798 264.43887 
L 134.818527 261.828679 
L 131.576738 259.24497 
L 128.053412 256.721073 
L 124.279174 254.288552 
L 120.287968 251.976801 
L 116.116692 249.812672 
L 111.804785 247.820147 
L 107.393789 246.020045 
L 102.926879 244.429777 
L 98.448369 243.06315 
L 94.003204 241.930218 
L 89.636441 241.03719 
L 85.392727 240.386388 
L 81.315773 239.976257 
L 77.44785 239.801435 
L 73.829285 239.85287 
L 70.497992 240.117986 
L 67.489022 240.580904 
L 64.834146 241.2227 
L 62.722159 241.955202 
L 60.954995 242.802825 
L 59.651752 243.66358 
L 58.661695 244.587384 
L 58.039827 245.467389 
L 57.710098 246.280716 
L 57.6 247.104 
L 57.710098 247.927284 
L 58.039827 248.740611 
L 58.5875 249.5341 
L 59.448193 250.380647 
L 60.56903 251.177638 
L 62.093934 251.982071 
L 63.913403 252.695328 
L 66.217903 253.351859 
L 68.83562 253.864191 
L 71.742961 254.216328 
L 75.189056 254.400963 
L 78.908157 254.366676 
L 82.861366 254.102224 
L 87.00755 253.599955 
L 91.303827 252.855962 
L 95.706061 251.870176 
L 100.169389 250.646415 
L 104.648734 249.192375 
L 109.099331 247.519567 
L 113.477247 245.643204 
L 117.739877 243.582035 
L 121.846433 241.358127 
L 125.758404 238.996602 
L 129.439981 236.525331 
L 132.858455 233.974588 
L 135.984567 231.376666 
L 138.792816 228.765464 
L 141.26172 226.176052 
L 143.374024 223.644207 
L 145.116853 221.20595 
L 146.390351 219.069268 
L 147.338653 217.070434 
L 147.961859 215.236215 
L 148.250332 213.721358 
L 148.273303 212.385024 
L 148.069695 211.339799 
L 147.709399 210.547618 
L 147.187458 209.904565 
L 146.510602 209.417992 
L 145.686357 209.094448 
L 144.607736 208.933062 
L 143.36968 208.986479 
L 141.839502 209.299366 
L 140.151213 209.882994 
L 138.152379 210.831296 
L 136.015697 212.104794 
L 133.76878 213.700308 
L 131.242855 215.784591 
L 128.656595 218.226621 
L 126.045812 221.009477 
L 123.445647 224.111993 
L 120.890106 227.508971 
L 118.411619 231.171429 
L 116.040629 235.066911 
L 113.805206 239.159834 
L 111.730694 243.41188 
L 109.839407 247.78242 
L 108.150354 252.228973 
L 106.679029 256.707688 
L 105.437232 261.173847 
L 104.432955 265.58238 
L 103.670316 269.888386 
L 103.149543 274.047658 
L 102.867022 278.017197 
L 102.815385 281.755718 
L 102.983657 285.224137 
L 103.357456 288.386027 
L 103.919226 291.208055 
L 104.586991 293.485474 
L 105.379511 295.427249 
L 106.198831 296.89728 
L 107.090347 298.059257 
L 107.949234 298.84077 
L 108.84065 299.355399 
L 109.659629 299.587656 
L 110.484143 299.599892 
L 111.304229 299.392043 
L 112.109952 298.965175 
L 112.976409 298.236697 
L 113.799783 297.24515 
L 114.64043 295.858119 
L 115.397052 294.170958 
L 116.10849 292.003277 
L 116.682962 289.513354 
L 117.103661 286.723655 
L 117.368777 283.392362 
L 117.420212 279.773797 
L 117.24539 275.905874 
L 116.835259 271.828921 
L 116.184457 267.585206 
L 115.291429 263.218443 
L 114.158497 258.773279 
L 112.79187 254.294768 
L 111.201602 249.827858 
L 109.4015 245.416862 
L 107.408975 241.104955 
L 105.244846 236.933679 
L 102.933095 232.942474 
L 100.500574 229.168235 
L 97.976677 225.644909 
L 95.392968 222.40312 
L 92.782777 219.46985 
L 90.180778 216.868151 
L 87.622532 214.616928 
L 85.144022 212.730754 
L 82.781175 211.219752 
L 80.73337 210.162901 
L 78.841369 209.431542 
L 77.266163 209.04519 
L 75.862826 208.926378 
L 74.751301 209.045279 
L 73.809141 209.37388 
L 73.115523 209.842647 
L 72.576022 210.468662 
L 72.197459 211.24466 
L 71.985821 212.162619 
L 71.952625 213.33844 
L 72.13746 214.665856 
L 72.597582 216.284671 
L 73.330072 218.050924 
L 74.441164 220.122088 
L 75.876273 222.317379 
L 77.630575 224.608885 
L 79.881799 227.167131 
L 82.483497 229.76913 
L 85.416767 232.379321 
L 88.658556 234.96303 
L 92.181882 237.486927 
L 95.956121 239.919448 
L 99.947326 242.231199 
L 104.118602 244.395328 
L 108.430509 246.387853 
L 112.841505 248.187955 
L 117.308415 249.778223 
L 121.786926 251.14485 
L 126.23209 252.277782 
L 130.598853 253.17081 
L 134.842568 253.821612 
L 138.919521 254.231743 
L 142.787445 254.406565 
L 146.406009 254.35513 
L 149.737302 254.090014 
L 152.746272 253.627096 
L 155.401148 252.9853 
L 157.513135 252.252798 
L 159.280299 251.405175 
L 160.583543 250.54442 
L 161.573599 249.620616 
L 162.195467 248.740611 
L 162.525196 247.927284 
L 162.635294 247.104 
L 162.635294 247.104 
" style="fill:none;stroke:#1f77b4;stroke-linecap:square;stroke-width:1.5;"/>
   </g>
   <g id="patch_18">
    <path d="M 57.6 299.621647 
L 57.6 194.586353 
" style="fill:none;stroke:#000000;stroke-linecap:square;stroke-linejoin:miter;stroke-width:0.8;"/>
   </g>
   <g id="patch_19">
    <path d="M 162.635294 299.621647 
L 162.635294 194.586353 
" style="fill:none;stroke:#000000;stroke-linecap:square;stroke-linejoin:miter;stroke-width:0.8;"/>
   </g>
   <g id="patch_20">
    <path d="M 57.6 299.621647 
L 162.635294 299.621647 
" style="fill:none;stroke:#000000;stroke-linecap:square;stroke-linejoin:miter;stroke-width:0.8;"/>
   </g>
   <g id="patch_21">
    <path d="M 57.6 194.586353 
L 162.635294 194.586353 
" style="fill:none;stroke:#000000;stroke-linecap:square;stroke-linejoin:miter;stroke-width:0.8;"/>
   </g>
  </g>
  <g id="axes_5">
   <g id="patch_22">
    <path d="M 183.642353 299.621647 
L 288.677647 299.621647 
L 288.677647 194.586353 
L 183.642353 194.586353 
z
" style="fill:#ffffff;"/>
   </g>
   <g id="matplotlib.axis_9">
    <g id="xtick_13">
     <g id="line2d_37">
      <g>
       <use style="stroke:#000000;stroke-width:0.8;" x="183.642353" xlink:href="#md7c74c69b1" y="299.621647"/>
      </g>
     </g>
     <g id="text_33">
      <!-- −1 -->
      <g transform="translate(176.271259 314.220085)scale(0.1 -0.1)">
       <use xlink:href="#DejaVuSans-8722"/>
       <use x="83.789062" xlink:href="#DejaVuSans-49"/>
      </g>
     </g>
    </g>
    <g id="xtick_14">
     <g id="line2d_38">
      <g>
       <use style="stroke:#000000;stroke-width:0.8;" x="236.16" xlink:href="#md7c74c69b1" y="299.621647"/>
      </g>
     </g>
     <g id="text_34">
      <!-- 0 -->
      <g transform="translate(232.97875 314.220085)scale(0.1 -0.1)">
       <use xlink:href="#DejaVuSans-48"/>
      </g>
     </g>
    </g>
    <g id="xtick_15">
     <g id="line2d_39">
      <g>
       <use style="stroke:#000000;stroke-width:0.8;" x="288.677647" xlink:href="#md7c74c69b1" y="299.621647"/>
      </g>
     </g>
     <g id="text_35">
      <!-- 1 -->
      <g transform="translate(285.496397 314.220085)scale(0.1 -0.1)">
       <use xlink:href="#DejaVuSans-49"/>
      </g>
     </g>
    </g>
   </g>
   <g id="matplotlib.axis_10">
    <g id="ytick_21">
     <g id="line2d_40">
      <g>
       <use style="stroke:#000000;stroke-width:0.8;" x="183.642353" xlink:href="#mc177818738" y="299.621647"/>
      </g>
     </g>
     <g id="text_36">
      <!-- −1.0 -->
      <g transform="translate(152.35954 303.420866)scale(0.1 -0.1)">
       <use xlink:href="#DejaVuSans-8722"/>
       <use x="83.789062" xlink:href="#DejaVuSans-49"/>
       <use x="147.412109" xlink:href="#DejaVuSans-46"/>
       <use x="179.199219" xlink:href="#DejaVuSans-48"/>
      </g>
     </g>
    </g>
    <g id="ytick_22">
     <g id="line2d_41">
      <g>
       <use style="stroke:#000000;stroke-width:0.8;" x="183.642353" xlink:href="#mc177818738" y="273.362824"/>
      </g>
     </g>
     <g id="text_37">
      <!-- −0.5 -->
      <g transform="translate(152.35954 277.162042)scale(0.1 -0.1)">
       <use xlink:href="#DejaVuSans-8722"/>
       <use x="83.789062" xlink:href="#DejaVuSans-48"/>
       <use x="147.412109" xlink:href="#DejaVuSans-46"/>
       <use x="179.199219" xlink:href="#DejaVuSans-53"/>
      </g>
     </g>
    </g>
    <g id="ytick_23">
     <g id="line2d_42">
      <g>
       <use style="stroke:#000000;stroke-width:0.8;" x="183.642353" xlink:href="#mc177818738" y="247.104"/>
      </g>
     </g>
     <g id="text_38">
      <!-- 0.0 -->
      <g transform="translate(160.739228 250.903219)scale(0.1 -0.1)">
       <use xlink:href="#DejaVuSans-48"/>
       <use x="63.623047" xlink:href="#DejaVuSans-46"/>
       <use x="95.410156" xlink:href="#DejaVuSans-48"/>
      </g>
     </g>
    </g>
    <g id="ytick_24">
     <g id="line2d_43">
      <g>
       <use style="stroke:#000000;stroke-width:0.8;" x="183.642353" xlink:href="#mc177818738" y="220.845176"/>
      </g>
     </g>
     <g id="text_39">
      <!-- 0.5 -->
      <g transform="translate(160.739228 224.644395)scale(0.1 -0.1)">
       <use xlink:href="#DejaVuSans-48"/>
       <use x="63.623047" xlink:href="#DejaVuSans-46"/>
       <use x="95.410156" xlink:href="#DejaVuSans-53"/>
      </g>
     </g>
    </g>
    <g id="ytick_25">
     <g id="line2d_44">
      <g>
       <use style="stroke:#000000;stroke-width:0.8;" x="183.642353" xlink:href="#mc177818738" y="194.586353"/>
      </g>
     </g>
     <g id="text_40">
      <!-- 1.0 -->
      <g transform="translate(160.739228 198.385572)scale(0.1 -0.1)">
       <use xlink:href="#DejaVuSans-49"/>
       <use x="63.623047" xlink:href="#DejaVuSans-46"/>
       <use x="95.410156" xlink:href="#DejaVuSans-48"/>
      </g>
     </g>
    </g>
   </g>
   <g id="line2d_45">
    <path clip-path="url(#p7b1ab390ea)" d="M 288.677647 247.104 
L 288.571142 246.555132 
L 288.252103 246.012826 
L 287.613232 245.397121 
L 286.69096 244.809403 
L 285.297202 244.184712 
L 283.309529 243.558809 
L 280.896838 243.032629 
L 277.747201 242.586184 
L 274.141839 242.305778 
L 270.125273 242.209529 
L 265.746975 242.311956 
L 260.577325 242.66662 
L 255.111617 243.282684 
L 249.430369 244.16203 
L 243.616824 245.300005 
L 237.755623 246.685396 
L 231.931472 248.300553 
L 226.227798 250.121634 
L 220.725451 252.118989 
L 215.501444 254.257666 
L 210.627772 256.498031 
L 206.170316 258.796489 
L 202.187859 261.106306 
L 198.731223 263.378496 
L 196.080751 265.369166 
L 193.924816 267.249149 
L 192.281863 268.980832 
L 191.251606 270.3823 
L 190.695833 271.481672 
L 190.487366 272.316649 
L 190.536227 273.02191 
L 190.780276 273.51563 
L 191.207656 273.900975 
L 191.814404 274.172667 
L 192.742585 274.339693 
L 194.082907 274.324892 
L 195.70661 274.083058 
L 197.850141 273.532201 
L 200.302278 272.681065 
L 203.351485 271.381024 
L 206.69836 269.710711 
L 210.294467 267.678374 
L 214.477478 265.041342 
L 218.831086 262.009217 
L 223.284659 258.615884 
L 227.767718 254.90259 
L 232.21112 250.917389 
L 236.548197 246.714446 
L 240.715829 242.353225 
L 244.655453 237.897566 
L 248.313955 233.414671 
L 251.644473 228.974011 
L 254.60706 224.646182 
L 257.169219 220.501714 
L 259.306301 216.609874 
L 261.001747 213.037462 
L 262.152621 210.120241 
L 262.93104 207.56334 
L 263.317178 205.603482 
L 263.412871 203.99422 
L 263.262558 202.876644 
L 262.956975 202.151656 
L 262.57163 201.724276 
L 262.07791 201.480227 
L 261.481582 201.422657 
L 260.6645 201.594206 
L 259.726808 202.024855 
L 258.521914 202.834934 
L 257.017696 204.14927 
L 255.381362 205.883657 
L 253.441292 208.289583 
L 251.40954 211.178336 
L 249.324112 214.521679 
L 247.222496 218.285214 
L 244.935363 222.862328 
L 242.71856 227.838356 
L 240.614679 233.145645 
L 238.662145 238.710721 
L 236.894521 244.455403 
L 235.339918 250.29801 
L 234.02052 256.154635 
L 232.952244 261.94046 
L 232.144517 267.571089 
L 231.600203 272.963893 
L 231.315658 278.039323 
L 231.280916 282.722181 
L 231.480014 286.942826 
L 231.845915 290.325558 
L 232.367559 293.232349 
L 233.022146 295.627192 
L 233.704021 297.320145 
L 234.367212 298.442717 
L 235.068826 299.196103 
L 235.702331 299.547676 
L 236.251656 299.618687 
L 236.799885 299.476701 
L 237.340462 299.122353 
L 237.952788 298.442717 
L 238.615979 297.320145 
L 239.226041 295.837319 
L 239.831381 293.753317 
L 240.332962 291.249324 
L 240.747809 288.005238 
L 240.992723 284.313906 
L 241.050277 280.220889 
L 240.880883 275.314885 
L 240.455484 270.056713 
L 239.767529 264.524098 
L 238.816909 258.79843 
L 237.610071 252.963467 
L 236.16 247.104 
L 234.486065 241.304517 
L 232.613736 235.647872 
L 230.574163 230.213988 
L 228.403641 225.078625 
L 226.142962 220.312215 
L 223.836659 215.978795 
L 221.532174 212.135056 
L 219.278943 208.82952 
L 217.317492 206.325076 
L 215.478085 204.321403 
L 213.95787 202.959979 
L 212.593192 202.024855 
L 211.531136 201.553869 
L 210.732163 201.419193 
L 210.065821 201.540995 
L 209.607609 201.846545 
L 209.259587 202.334195 
L 208.999612 203.127584 
L 208.903719 204.154973 
L 209.002822 205.603482 
L 209.38896 207.56334 
L 210.072816 209.847641 
L 211.186375 212.730754 
L 212.672232 215.934679 
L 214.524938 219.412384 
L 216.733447 223.114205 
L 219.553778 227.383477 
L 222.754743 231.791298 
L 226.29905 236.266957 
L 230.14228 240.740439 
L 234.233508 245.143587 
L 238.516052 249.411217 
L 242.92834 253.482161 
L 247.404873 257.300228 
L 251.877277 260.815055 
L 256.275426 263.982846 
L 260.528604 266.766985 
L 264.566707 269.138501 
L 268.321442 271.0764 
L 271.433925 272.450886 
L 274.212101 273.452524 
L 276.61339 274.083058 
L 278.420467 274.339013 
L 279.72424 274.325958 
L 280.727497 274.095036 
L 281.348722 273.722191 
L 281.684881 273.281968 
L 281.836032 272.736194 
L 281.799446 272.090867 
L 281.517027 271.220759 
L 280.876447 270.085132 
L 279.897313 268.815391 
L 278.395184 267.249149 
L 276.477453 265.562771 
L 273.875416 263.58146 
L 270.801085 261.523692 
L 267.285205 259.427341 
L 262.951785 257.121038 
L 258.185375 254.860359 
L 253.050012 252.689837 
L 247.616128 250.650264 
L 241.959483 248.777935 
L 236.16 247.104 
L 230.300533 245.653929 
L 224.46557 244.447091 
L 218.739902 243.496471 
L 213.207287 242.808516 
L 207.949115 242.383117 
L 203.043111 242.213723 
L 198.562093 242.287597 
L 194.572799 242.586184 
L 191.423162 243.032629 
L 188.768227 243.623766 
L 186.829091 244.259598 
L 185.336911 244.973881 
L 184.397997 245.658156 
L 183.881878 246.28275 
L 183.654191 246.920719 
L 183.689699 247.470318 
L 183.938005 248.015538 
L 184.495112 248.637378 
L 185.336911 249.234119 
L 186.640908 249.872547 
L 188.531264 250.51807 
L 190.851455 251.067984 
L 193.905083 251.545171 
L 197.422693 251.860343 
L 201.360826 251.994705 
L 205.670951 251.932991 
L 210.778415 251.625149 
L 216.196183 251.056942 
L 221.844371 250.225312 
L 227.640135 249.133718 
L 233.498987 247.792185 
L 239.336135 246.217207 
L 245.06782 244.431526 
L 250.612629 242.463768 
L 255.89276 240.347966 
L 260.835223 238.122953 
L 265.372947 235.831662 
L 269.445791 233.52032 
L 273.001429 231.237574 
L 275.74801 229.229328 
L 278.004542 227.324176 
L 279.751244 225.559865 
L 280.876447 224.122868 
L 281.517027 222.987241 
L 281.818671 222.002933 
L 281.806391 221.278515 
L 281.593226 220.76728 
L 281.196147 220.363493 
L 280.618984 220.072514 
L 279.72424 219.882042 
L 278.420467 219.868987 
L 276.831272 220.082071 
L 274.723803 220.599832 
L 272.304491 221.417447 
L 269.287607 222.680222 
L 265.968362 224.313786 
L 262.394929 226.310452 
L 258.230902 228.910153 
L 253.889891 231.907645 
L 249.442483 235.269739 
L 244.959219 238.955834 
L 240.509411 242.918468 
L 236.16 247.104 
L 231.974468 251.453411 
L 228.011834 255.903219 
L 224.325739 260.386483 
L 220.963645 264.833891 
L 217.966153 269.174902 
L 215.366452 273.338929 
L 213.189919 277.256541 
L 211.453856 280.860665 
L 210.26567 283.811553 
L 209.450142 286.406363 
L 209.031221 288.403619 
L 208.903719 290.053027 
L 209.026861 291.208288 
L 209.309715 291.967556 
L 209.74837 292.483724 
L 210.24209 292.727773 
L 210.838418 292.785343 
L 211.6555 292.613794 
L 212.593192 292.183145 
L 213.798086 291.373066 
L 215.302304 290.05873 
L 216.938638 288.324343 
L 218.878708 285.918417 
L 220.91046 283.029664 
L 222.995888 279.686321 
L 225.097504 275.922786 
L 227.384637 271.345672 
L 229.60144 266.369644 
L 231.705321 261.062355 
L 233.657855 255.497279 
L 235.425479 249.752597 
L 236.980082 243.90999 
L 238.29948 238.053365 
L 239.367756 232.26754 
L 240.175483 226.636911 
L 240.719797 221.244107 
L 241.004342 216.168677 
L 241.039084 211.485819 
L 240.839986 207.265174 
L 240.474085 203.882442 
L 239.952441 200.975651 
L 239.297854 198.580808 
L 238.615979 196.887855 
L 237.952788 195.765283 
L 237.251174 195.011897 
L 236.617669 194.660324 
L 236.068344 194.589313 
L 235.520115 194.731299 
L 234.979538 195.085647 
L 234.367212 195.765283 
L 233.704021 196.887855 
L 233.093959 198.370681 
L 232.488619 200.454683 
L 231.987038 202.958676 
L 231.572191 206.202762 
L 231.327277 209.894094 
L 231.269723 213.987111 
L 231.439117 218.893115 
L 231.864516 224.151287 
L 232.552471 229.683902 
L 233.503091 235.40957 
L 234.709929 241.244533 
L 236.16 247.104 
L 237.833935 252.903483 
L 239.706264 258.560128 
L 241.745837 263.994012 
L 243.916359 269.129375 
L 246.177038 273.895785 
L 248.483341 278.229205 
L 250.787826 282.072944 
L 253.041057 285.37848 
L 255.002508 287.882924 
L 256.841915 289.886597 
L 258.36213 291.248021 
L 259.726808 292.183145 
L 260.788864 292.654131 
L 261.587837 292.788807 
L 262.254179 292.667005 
L 262.712391 292.361455 
L 263.060413 291.873805 
L 263.320388 291.080416 
L 263.416281 290.053027 
L 263.317178 288.604518 
L 262.93104 286.64466 
L 262.247184 284.360359 
L 261.133625 281.477246 
L 259.647768 278.273321 
L 257.795062 274.795616 
L 255.586553 271.093795 
L 252.766222 266.824523 
L 249.565257 262.416702 
L 246.02095 257.941043 
L 242.17772 253.467561 
L 238.086492 249.064413 
L 233.803948 244.796783 
L 229.39166 240.725839 
L 224.915127 236.907772 
L 220.442723 233.392945 
L 216.044574 230.225154 
L 211.791396 227.441015 
L 207.753293 225.069499 
L 203.998558 223.1316 
L 200.886075 221.757114 
L 198.107899 220.755476 
L 195.70661 220.124942 
L 193.899533 219.868987 
L 192.59576 219.882042 
L 191.592503 220.112964 
L 190.971278 220.485809 
L 190.635119 220.926032 
L 190.483968 221.471806 
L 190.520554 222.117133 
L 190.802973 222.987241 
L 191.443553 224.122868 
L 192.422687 225.392609 
L 193.924816 226.958851 
L 195.842547 228.645229 
L 198.444584 230.62654 
L 201.518915 232.684308 
L 205.034795 234.780659 
L 209.368215 237.086962 
L 214.134625 239.347641 
L 219.269988 241.518163 
L 224.703872 243.557736 
L 230.360517 245.430065 
L 236.16 247.104 
L 242.019467 248.554071 
L 247.85443 249.760909 
L 253.580098 250.711529 
L 259.112713 251.399484 
L 264.370885 251.824883 
L 269.276889 251.994277 
L 273.757907 251.920403 
L 277.747201 251.621816 
L 280.896838 251.175371 
L 283.551773 250.584234 
L 285.490909 249.948402 
L 286.983089 249.234119 
L 287.922003 248.549844 
L 288.438122 247.92525 
L 288.665809 247.287281 
L 288.677647 247.104 
L 288.677647 247.104 
" style="fill:none;stroke:#1f77b4;stroke-linecap:square;stroke-width:1.5;"/>
   </g>
   <g id="patch_23">
    <path d="M 183.642353 299.621647 
L 183.642353 194.586353 
" style="fill:none;stroke:#000000;stroke-linecap:square;stroke-linejoin:miter;stroke-width:0.8;"/>
   </g>
   <g id="patch_24">
    <path d="M 288.677647 299.621647 
L 288.677647 194.586353 
" style="fill:none;stroke:#000000;stroke-linecap:square;stroke-linejoin:miter;stroke-width:0.8;"/>
   </g>
   <g id="patch_25">
    <path d="M 183.642353 299.621647 
L 288.677647 299.621647 
" style="fill:none;stroke:#000000;stroke-linecap:square;stroke-linejoin:miter;stroke-width:0.8;"/>
   </g>
   <g id="patch_26">
    <path d="M 183.642353 194.586353 
L 288.677647 194.586353 
" style="fill:none;stroke:#000000;stroke-linecap:square;stroke-linejoin:miter;stroke-width:0.8;"/>
   </g>
  </g>
  <g id="axes_6">
   <g id="patch_27">
    <path d="M 309.684706 299.621647 
L 414.72 299.621647 
L 414.72 194.586353 
L 309.684706 194.586353 
z
" style="fill:#ffffff;"/>
   </g>
   <g id="matplotlib.axis_11">
    <g id="xtick_16">
     <g id="line2d_46">
      <g>
       <use style="stroke:#000000;stroke-width:0.8;" x="309.684706" xlink:href="#md7c74c69b1" y="299.621647"/>
      </g>
     </g>
     <g id="text_41">
      <!-- −1 -->
      <g transform="translate(302.313612 314.220085)scale(0.1 -0.1)">
       <use xlink:href="#DejaVuSans-8722"/>
       <use x="83.789062" xlink:href="#DejaVuSans-49"/>
      </g>
     </g>
    </g>
    <g id="xtick_17">
     <g id="line2d_47">
      <g>
       <use style="stroke:#000000;stroke-width:0.8;" x="362.202353" xlink:href="#md7c74c69b1" y="299.621647"/>
      </g>
     </g>
     <g id="text_42">
      <!-- 0 -->
      <g transform="translate(359.021103 314.220085)scale(0.1 -0.1)">
       <use xlink:href="#DejaVuSans-48"/>
      </g>
     </g>
    </g>
    <g id="xtick_18">
     <g id="line2d_48">
      <g>
       <use style="stroke:#000000;stroke-width:0.8;" x="414.72" xlink:href="#md7c74c69b1" y="299.621647"/>
      </g>
     </g>
     <g id="text_43">
      <!-- 1 -->
      <g transform="translate(411.53875 314.220085)scale(0.1 -0.1)">
       <use xlink:href="#DejaVuSans-49"/>
      </g>
     </g>
    </g>
   </g>
   <g id="matplotlib.axis_12">
    <g id="ytick_26">
     <g id="line2d_49">
      <g>
       <use style="stroke:#000000;stroke-width:0.8;" x="309.684706" xlink:href="#mc177818738" y="299.621647"/>
      </g>
     </g>
     <g id="text_44">
      <!-- −1.0 -->
      <g transform="translate(278.401893 303.420866)scale(0.1 -0.1)">
       <use xlink:href="#DejaVuSans-8722"/>
       <use x="83.789062" xlink:href="#DejaVuSans-49"/>
       <use x="147.412109" xlink:href="#DejaVuSans-46"/>
       <use x="179.199219" xlink:href="#DejaVuSans-48"/>
      </g>
     </g>
    </g>
    <g id="ytick_27">
     <g id="line2d_50">
      <g>
       <use style="stroke:#000000;stroke-width:0.8;" x="309.684706" xlink:href="#mc177818738" y="273.362824"/>
      </g>
     </g>
     <g id="text_45">
      <!-- −0.5 -->
      <g transform="translate(278.401893 277.162042)scale(0.1 -0.1)">
       <use xlink:href="#DejaVuSans-8722"/>
       <use x="83.789062" xlink:href="#DejaVuSans-48"/>
       <use x="147.412109" xlink:href="#DejaVuSans-46"/>
       <use x="179.199219" xlink:href="#DejaVuSans-53"/>
      </g>
     </g>
    </g>
    <g id="ytick_28">
     <g id="line2d_51">
      <g>
       <use style="stroke:#000000;stroke-width:0.8;" x="309.684706" xlink:href="#mc177818738" y="247.104"/>
      </g>
     </g>
     <g id="text_46">
      <!-- 0.0 -->
      <g transform="translate(286.781581 250.903219)scale(0.1 -0.1)">
       <use xlink:href="#DejaVuSans-48"/>
       <use x="63.623047" xlink:href="#DejaVuSans-46"/>
       <use x="95.410156" xlink:href="#DejaVuSans-48"/>
      </g>
     </g>
    </g>
    <g id="ytick_29">
     <g id="line2d_52">
      <g>
       <use style="stroke:#000000;stroke-width:0.8;" x="309.684706" xlink:href="#mc177818738" y="220.845176"/>
      </g>
     </g>
     <g id="text_47">
      <!-- 0.5 -->
      <g transform="translate(286.781581 224.644395)scale(0.1 -0.1)">
       <use xlink:href="#DejaVuSans-48"/>
       <use x="63.623047" xlink:href="#DejaVuSans-46"/>
       <use x="95.410156" xlink:href="#DejaVuSans-53"/>
      </g>
     </g>
    </g>
    <g id="ytick_30">
     <g id="line2d_53">
      <g>
       <use style="stroke:#000000;stroke-width:0.8;" x="309.684706" xlink:href="#mc177818738" y="194.586353"/>
      </g>
     </g>
     <g id="text_48">
      <!-- 1.0 -->
      <g transform="translate(286.781581 198.385572)scale(0.1 -0.1)">
       <use xlink:href="#DejaVuSans-49"/>
       <use x="63.623047" xlink:href="#DejaVuSans-46"/>
       <use x="95.410156" xlink:href="#DejaVuSans-48"/>
      </g>
     </g>
    </g>
   </g>
   <g id="line2d_54">
    <path clip-path="url(#p243f9e394b)" d="M 414.72 247.104 
L 414.590075 246.646819 
L 414.200981 246.196361 
L 413.394936 245.674062 
L 412.224786 245.182332 
L 410.411361 244.661837 
L 407.771 244.157208 
L 404.559047 243.770456 
L 400.316166 243.501184 
L 395.476198 243.430533 
L 390.12082 243.577077 
L 384.340199 243.953318 
L 378.231394 244.565249 
L 371.896642 245.412076 
L 365.441554 246.486089 
L 358.973258 247.772713 
L 352.598526 249.25071 
L 346.421912 250.892549 
L 340.543936 252.664936 
L 335.059358 254.529483 
L 330.055554 256.443509 
L 325.611044 258.360957 
L 321.794179 260.233412 
L 318.662024 262.011186 
L 316.489267 263.471654 
L 314.916141 264.78359 
L 314.043298 265.783666 
L 313.673183 266.514283 
L 313.63146 267.024375 
L 313.830737 267.437555 
L 314.268312 267.747659 
L 314.94024 267.949076 
L 316.048545 268.040296 
L 317.743593 267.930005 
L 320.183959 267.507036 
L 323.123551 266.75859 
L 326.970799 265.522611 
L 331.319696 263.871915 
L 336.089868 261.817629 
L 341.194888 259.379771 
L 346.543898 256.587098 
L 352.043285 253.476771 
L 357.598396 250.093844 
L 363.115239 246.490566 
L 368.502158 242.725522 
L 373.671438 238.862626 
L 378.540818 234.969985 
L 383.034878 231.118641 
L 387.086284 227.381239 
L 390.636858 223.830627 
L 393.638469 220.538423 
L 396.053715 217.573574 
L 397.856404 215.000948 
L 398.932379 213.091623 
L 399.464842 211.743218 
L 399.619268 210.844487 
L 399.53798 210.286071 
L 399.269453 209.907285 
L 398.818157 209.713172 
L 398.189512 209.707808 
L 397.210023 209.954763 
L 395.772981 210.596216 
L 394.040827 211.61944 
L 391.732779 213.252638 
L 389.11475 215.36999 
L 385.855576 218.308095 
L 382.330176 221.799858 
L 378.609941 225.798312 
L 374.767654 230.246355 
L 370.876052 235.07762 
L 367.006424 240.217526 
L 363.227264 245.584507 
L 359.603011 251.091382 
L 356.192897 256.646854 
L 353.049919 262.15711 
L 350.219965 267.527485 
L 347.741106 272.664167 
L 345.643051 277.475908 
L 343.946799 281.875706 
L 342.664468 285.782439 
L 341.799317 289.122393 
L 341.376348 291.56276 
L 341.26956 293.464996 
L 341.424467 294.662703 
L 341.73206 295.328989 
L 342.10472 295.623979 
L 342.57682 295.678899 
L 343.141889 295.491807 
L 343.93289 294.946993 
L 344.834986 294.054093 
L 346.009829 292.577891 
L 347.486468 290.331629 
L 349.072941 287.512174 
L 350.945396 283.695309 
L 352.862844 279.250799 
L 354.77687 274.246995 
L 356.641417 268.762417 
L 358.413804 262.884441 
L 360.055643 256.707827 
L 361.533639 250.333095 
L 362.820264 243.864799 
L 363.894277 237.409711 
L 364.741104 231.074959 
L 365.353035 224.966154 
L 365.729276 219.185533 
L 365.87582 213.830155 
L 365.805169 208.990187 
L 365.535897 204.747306 
L 365.092071 201.173248 
L 364.574253 198.606986 
L 363.964191 196.651551 
L 363.374264 195.462436 
L 362.840899 194.840899 
L 362.385602 194.607149 
L 361.927614 194.633139 
L 361.473662 194.918734 
L 361.030442 195.462436 
L 360.522035 196.451468 
L 359.975264 198.059695 
L 359.432149 200.476163 
L 358.99869 203.478409 
L 358.668307 207.505791 
L 358.529101 212.155342 
L 358.601547 217.348547 
L 358.900228 222.997899 
L 359.433345 229.008449 
L 360.202387 235.279491 
L 361.201955 241.706335 
L 362.419746 248.182148 
L 363.836709 254.599832 
L 365.427361 260.85389 
L 367.160261 266.84226 
L 368.998637 272.468076 
L 370.90114 277.641328 
L 372.822732 282.280391 
L 374.715666 286.31339 
L 376.530553 289.679386 
L 378.217491 292.329354 
L 379.56972 294.054093 
L 380.611718 295.062036 
L 381.382942 295.548637 
L 381.929958 295.687233 
L 382.382672 295.584102 
L 382.734712 295.241442 
L 382.980239 294.662703 
L 383.126917 293.663267 
L 383.084224 292.09014 
L 382.801755 290.098268 
L 382.176129 287.340911 
L 381.221826 284.111893 
L 379.754604 279.976445 
L 377.877747 275.38316 
L 375.60733 270.415969 
L 372.968253 265.163966 
L 369.993999 259.71975 
L 366.726187 254.177722 
L 363.213965 248.632379 
L 359.513217 243.176617 
L 355.685625 237.900095 
L 351.797578 232.887678 
L 347.918974 228.217988 
L 344.121917 223.962098 
L 340.47934 220.182374 
L 337.063583 216.931511 
L 333.94496 214.25175 
L 331.190323 212.17431 
L 329.097582 210.84965 
L 327.38101 210.023036 
L 326.215194 209.707808 
L 325.481915 209.737011 
L 325.066769 209.968416 
L 324.835364 210.383562 
L 324.791972 210.977215 
L 324.992612 211.916497 
L 325.472327 213.091623 
L 326.386567 214.741954 
L 327.896757 216.965797 
L 329.894476 219.510466 
L 332.704242 222.70104 
L 336.076658 226.173372 
L 339.967104 229.856573 
L 344.320663 233.678047 
L 349.072941 237.564924 
L 354.151084 241.445474 
L 359.474963 245.250468 
L 364.95852 248.914463 
L 370.511237 252.376978 
L 376.039718 255.583548 
L 381.449342 258.486638 
L 386.645959 261.046387 
L 391.537602 263.23119 
L 396.036186 265.018093 
L 400.059143 266.392998 
L 403.530987 267.350689 
L 406.100065 267.854353 
L 408.140112 268.039043 
L 409.464466 267.949076 
L 410.242801 267.694162 
L 410.632993 267.362976 
L 410.784246 266.929903 
L 410.69411 266.401214 
L 410.361408 265.783666 
L 409.642221 264.935474 
L 408.365653 263.814881 
L 406.340969 262.388366 
L 403.733132 260.838992 
L 400.138749 258.992546 
L 395.896395 257.08463 
L 391.070775 255.164208 
L 385.737155 253.27824 
L 379.980116 251.470637 
L 373.892128 249.781316 
L 367.571981 248.24535 
L 361.123082 246.892255 
L 354.651666 245.745417 
L 348.264954 244.821663 
L 342.069269 244.131005 
L 336.168177 243.676536 
L 330.660659 243.454501 
L 325.639362 243.454528 
L 321.188963 243.660009 
L 317.384661 244.048636 
L 314.290846 244.593064 
L 312.17992 245.182332 
L 310.849946 245.75929 
L 310.105251 246.285593 
L 309.767871 246.737932 
L 309.689905 247.195652 
L 309.871762 247.652025 
L 310.312488 248.100336 
L 311.179715 248.618317 
L 312.649433 249.180883 
L 314.597779 249.682172 
L 317.384661 250.159364 
L 320.733081 250.513395 
L 325.115218 250.740425 
L 330.077103 250.76421 
L 335.53504 250.567479 
L 341.397188 250.139145 
L 347.565186 249.474704 
L 353.93589 248.576481 
L 360.403188 247.453722 
L 366.85987 246.122507 
L 373.199497 244.60551 
L 379.318257 242.931592 
L 385.116765 241.135243 
L 390.501766 239.255878 
L 395.387729 237.337013 
L 399.698288 235.425317 
L 403.36751 233.569585 
L 406.340969 231.819634 
L 408.365653 230.393119 
L 409.786247 229.123545 
L 410.523618 228.167103 
L 410.777252 227.478467 
L 410.722332 227.006367 
L 410.427341 226.633707 
L 409.895483 226.366437 
L 408.950919 226.192356 
L 407.681665 226.185854 
L 405.807093 226.398947 
L 403.174605 226.943153 
L 400.059143 227.815002 
L 396.036186 229.189907 
L 391.537602 230.97681 
L 386.645959 233.161613 
L 381.449342 235.721362 
L 376.039718 238.624452 
L 370.511237 241.831022 
L 364.95852 245.293537 
L 359.474963 248.957532 
L 354.151084 252.762526 
L 349.072941 256.643076 
L 344.320663 260.529953 
L 339.967104 264.351427 
L 336.076658 268.034628 
L 332.704242 271.50696 
L 329.894476 274.697534 
L 327.681068 277.538607 
L 326.232599 279.719381 
L 325.281276 281.533461 
L 324.857587 282.791434 
L 324.79524 283.608073 
L 324.951896 284.095303 
L 325.294121 284.400772 
L 325.81706 284.519818 
L 326.514919 284.448766 
L 327.573768 284.108913 
L 329.097582 283.35835 
L 331.190323 282.03369 
L 333.619734 280.217283 
L 336.701139 277.60311 
L 340.087301 274.413814 
L 343.708224 270.690436 
L 347.49172 266.484543 
L 351.364851 261.857471 
L 355.255352 256.87938 
L 359.093016 251.628114 
L 362.810999 246.187914 
L 366.347043 240.647982 
L 369.644569 235.100935 
L 372.65364 229.641172 
L 375.331765 224.363192 
L 377.644534 219.359877 
L 379.566076 214.720793 
L 381.07933 210.530526 
L 382.176129 206.867089 
L 382.857095 203.800433 
L 383.120499 201.624688 
L 383.096419 200.17516 
L 382.89516 199.285745 
L 382.606363 198.800943 
L 382.213322 198.553751 
L 381.722094 198.547118 
L 381.13925 198.782734 
L 380.328825 199.385725 
L 379.246645 200.528282 
L 378.037915 202.136485 
L 376.530553 204.528614 
L 374.922086 207.486669 
L 373.035366 211.448356 
L 371.114561 216.023437 
L 369.207654 221.141199 
L 367.360036 226.721034 
L 365.61351 232.673792 
L 364.005396 238.903289 
L 362.567762 245.307955 
L 361.326779 251.782585 
L 360.302232 258.220167 
L 359.507182 264.513745 
L 358.9478 270.558301 
L 358.623356 276.252595 
L 358.526379 281.500954 
L 358.642976 286.214966 
L 358.953298 290.315043 
L 359.432149 293.731837 
L 359.975264 296.148305 
L 360.60456 297.946608 
L 361.206017 298.993865 
L 361.745172 299.491722 
L 362.202353 299.621647 
L 362.659534 299.491722 
L 363.109992 299.102628 
L 363.632291 298.296583 
L 364.124021 297.126433 
L 364.644516 295.313008 
L 365.149145 292.672647 
L 365.535897 289.460694 
L 365.805169 285.217813 
L 365.87582 280.377845 
L 365.729276 275.022467 
L 365.353035 269.241846 
L 364.741104 263.133041 
L 363.894277 256.798289 
L 362.820264 250.343201 
L 361.533639 243.874905 
L 360.055643 237.500173 
L 358.413804 231.323559 
L 356.641417 225.445583 
L 354.77687 219.961005 
L 352.862844 214.957201 
L 350.945396 210.512691 
L 349.072941 206.695826 
L 347.295166 203.563671 
L 345.834699 201.390914 
L 344.522763 199.817788 
L 343.522687 198.944945 
L 342.79207 198.57483 
L 342.281978 198.533107 
L 341.868798 198.732384 
L 341.558694 199.169959 
L 341.357277 199.841887 
L 341.266057 200.950192 
L 341.376348 202.64524 
L 341.799317 205.085607 
L 342.547763 208.025198 
L 343.783741 211.872446 
L 345.434438 216.221343 
L 347.488724 220.991515 
L 349.926582 226.096535 
L 352.719255 231.445545 
L 355.829582 236.944932 
L 359.212509 242.500043 
L 362.815787 248.016886 
L 366.580831 253.403805 
L 370.443727 258.573085 
L 374.336368 263.442465 
L 378.187712 267.936525 
L 381.925114 271.987931 
L 385.475726 275.538505 
L 388.76793 278.540116 
L 391.732779 280.955362 
L 394.305405 282.758051 
L 396.21473 283.834026 
L 397.563135 284.366489 
L 398.461866 284.520915 
L 399.020282 284.439627 
L 399.399068 284.171101 
L 399.593181 283.719804 
L 399.598544 283.091159 
L 399.35159 282.11167 
L 398.710137 280.674628 
L 397.686913 278.942474 
L 396.053715 276.634426 
L 393.936363 274.016397 
L 390.998258 270.757223 
L 387.506495 267.231823 
L 383.508041 263.511588 
L 379.059998 259.669301 
L 374.228733 255.777699 
L 369.088827 251.908071 
L 363.721846 248.128911 
L 358.214971 244.504659 
L 352.659499 241.094544 
L 347.149243 237.951566 
L 341.778868 235.121613 
L 336.642186 232.642753 
L 331.830445 230.544698 
L 327.430647 228.848446 
L 323.523914 227.566115 
L 320.183959 226.700964 
L 317.743593 226.277995 
L 315.841357 226.171208 
L 314.64365 226.326114 
L 313.977364 226.633707 
L 313.682374 227.006367 
L 313.627453 227.478467 
L 313.814546 228.043536 
L 314.35936 228.834538 
L 315.25226 229.736633 
L 316.728462 230.911476 
L 318.974724 232.388115 
L 321.794179 233.974588 
L 325.611044 235.847043 
L 330.055554 237.764491 
L 335.059358 239.678517 
L 340.543936 241.543064 
L 346.421912 243.315451 
L 352.598526 244.95729 
L 358.973258 246.435287 
L 365.441554 247.721911 
L 371.896642 248.795924 
L 378.231394 249.642751 
L 384.340199 250.254682 
L 390.12082 250.630923 
L 395.476198 250.777467 
L 400.316166 250.706816 
L 404.559047 250.437544 
L 408.133105 249.993718 
L 410.699367 249.4759 
L 412.654802 248.865838 
L 413.843917 248.275911 
L 414.465454 247.742546 
L 414.699204 247.287249 
L 414.72 247.104 
L 414.72 247.104 
" style="fill:none;stroke:#1f77b4;stroke-linecap:square;stroke-width:1.5;"/>
   </g>
   <g id="patch_28">
    <path d="M 309.684706 299.621647 
L 309.684706 194.586353 
" style="fill:none;stroke:#000000;stroke-linecap:square;stroke-linejoin:miter;stroke-width:0.8;"/>
   </g>
   <g id="patch_29">
    <path d="M 414.72 299.621647 
L 414.72 194.586353 
" style="fill:none;stroke:#000000;stroke-linecap:square;stroke-linejoin:miter;stroke-width:0.8;"/>
   </g>
   <g id="patch_30">
    <path d="M 309.684706 299.621647 
L 414.72 299.621647 
" style="fill:none;stroke:#000000;stroke-linecap:square;stroke-linejoin:miter;stroke-width:0.8;"/>
   </g>
   <g id="patch_31">
    <path d="M 309.684706 194.586353 
L 414.72 194.586353 
" style="fill:none;stroke:#000000;stroke-linecap:square;stroke-linejoin:miter;stroke-width:0.8;"/>
   </g>
  </g>
 </g>
 <defs>
  <clipPath id="pe93ed2ade3">
   <rect height="105.035294" width="105.035294" x="57.6" y="49.434353"/>
  </clipPath>
  <clipPath id="p94bfc0e93f">
   <rect height="105.035294" width="105.035294" x="183.642353" y="49.434353"/>
  </clipPath>
  <clipPath id="p5587f23c52">
   <rect height="105.035294" width="105.035294" x="309.684706" y="49.434353"/>
  </clipPath>
  <clipPath id="p40475dbdb9">
   <rect height="105.035294" width="105.035294" x="57.6" y="194.586353"/>
  </clipPath>
  <clipPath id="p7b1ab390ea">
   <rect height="105.035294" width="105.035294" x="183.642353" y="194.586353"/>
  </clipPath>
  <clipPath id="p243f9e394b">
   <rect height="105.035294" width="105.035294" x="309.684706" y="194.586353"/>
  </clipPath>
 </defs>
</svg>
