<?xml version="1.0" encoding="utf-8" standalone="no"?>
<!DOCTYPE svg PUBLIC "-//W3C//DTD SVG 1.1//EN"
  "http://www.w3.org/Graphics/SVG/1.1/DTD/svg11.dtd">
<!-- Created with matplotlib (https://matplotlib.org/) -->
<svg height="345.6pt" version="1.1" viewBox="0 0 460.8 345.6" width="460.8pt" xmlns="http://www.w3.org/2000/svg" xmlns:xlink="http://www.w3.org/1999/xlink">
 <defs>
  <style type="text/css">
*{stroke-linecap:butt;stroke-linejoin:round;}
  </style>
 </defs>
 <g id="figure_1">
  <g id="patch_1">
   <path d="M 0 345.6 
L 460.8 345.6 
L 460.8 0 
L 0 0 
z
" style="fill:#ffffff;"/>
  </g>
  <g id="axes_1">
   <g id="patch_2">
    <path d="M 78.336 144.890182 
L 170.496 144.890182 
L 170.496 52.730182 
L 78.336 52.730182 
z
" style="fill:#ffffff;"/>
   </g>
   <g id="matplotlib.axis_1">
    <g id="xtick_1">
     <g id="line2d_1">
      <defs>
       <path d="M 0 0 
L 0 12 
" id="m20e77ece90" style="stroke:#000000;stroke-width:1.5;"/>
      </defs>
      <g>
       <use style="stroke:#000000;stroke-width:1.5;" x="78.336" xlink:href="#m20e77ece90" y="144.890182"/>
      </g>
     </g>
     <g id="text_1">
      <!-- −1 -->
      <defs>
       <path d="M 10.59375 35.5 
L 73.1875 35.5 
L 73.1875 27.203125 
L 10.59375 27.203125 
z
" id="DejaVuSans-8722"/>
       <path d="M 12.40625 8.296875 
L 28.515625 8.296875 
L 28.515625 63.921875 
L 10.984375 60.40625 
L 10.984375 69.390625 
L 28.421875 72.90625 
L 38.28125 72.90625 
L 38.28125 8.296875 
L 54.390625 8.296875 
L 54.390625 0 
L 12.40625 0 
z
" id="DejaVuSans-49"/>
      </defs>
      <g transform="translate(68.016469 171.027994)scale(0.14 -0.14)">
       <use xlink:href="#DejaVuSans-8722"/>
       <use x="83.789062" xlink:href="#DejaVuSans-49"/>
      </g>
     </g>
    </g>
    <g id="xtick_2">
     <g id="line2d_2">
      <g>
       <use style="stroke:#000000;stroke-width:1.5;" x="124.416" xlink:href="#m20e77ece90" y="144.890182"/>
      </g>
     </g>
     <g id="text_2">
      <!-- 0 -->
      <defs>
       <path d="M 31.78125 66.40625 
Q 24.171875 66.40625 20.328125 58.90625 
Q 16.5 51.421875 16.5 36.375 
Q 16.5 21.390625 20.328125 13.890625 
Q 24.171875 6.390625 31.78125 6.390625 
Q 39.453125 6.390625 43.28125 13.890625 
Q 47.125 21.390625 47.125 36.375 
Q 47.125 51.421875 43.28125 58.90625 
Q 39.453125 66.40625 31.78125 66.40625 
z
M 31.78125 74.21875 
Q 44.046875 74.21875 50.515625 64.515625 
Q 56.984375 54.828125 56.984375 36.375 
Q 56.984375 17.96875 50.515625 8.265625 
Q 44.046875 -1.421875 31.78125 -1.421875 
Q 19.53125 -1.421875 13.0625 8.265625 
Q 6.59375 17.96875 6.59375 36.375 
Q 6.59375 54.828125 13.0625 64.515625 
Q 19.53125 74.21875 31.78125 74.21875 
z
" id="DejaVuSans-48"/>
      </defs>
      <g transform="translate(119.96225 171.027994)scale(0.14 -0.14)">
       <use xlink:href="#DejaVuSans-48"/>
      </g>
     </g>
    </g>
    <g id="xtick_3">
     <g id="line2d_3">
      <g>
       <use style="stroke:#000000;stroke-width:1.5;" x="170.496" xlink:href="#m20e77ece90" y="144.890182"/>
      </g>
     </g>
     <g id="text_3">
      <!-- 1 -->
      <g transform="translate(166.04225 171.027994)scale(0.14 -0.14)">
       <use xlink:href="#DejaVuSans-49"/>
      </g>
     </g>
    </g>
   </g>
   <g id="matplotlib.axis_2">
    <g id="ytick_1">
     <g id="line2d_4">
      <defs>
       <path d="M 0 0 
L -12 0 
" id="m93a6de808f" style="stroke:#000000;stroke-width:1.5;"/>
      </defs>
      <g>
       <use style="stroke:#000000;stroke-width:1.5;" x="78.336" xlink:href="#m93a6de808f" y="144.890182"/>
      </g>
     </g>
     <g id="text_4">
      <!-- −1 -->
      <g transform="translate(42.196938 150.209088)scale(0.14 -0.14)">
       <use xlink:href="#DejaVuSans-8722"/>
       <use x="83.789062" xlink:href="#DejaVuSans-49"/>
      </g>
     </g>
    </g>
    <g id="ytick_2">
     <g id="line2d_5">
      <g>
       <use style="stroke:#000000;stroke-width:1.5;" x="78.336" xlink:href="#m93a6de808f" y="98.810182"/>
      </g>
     </g>
     <g id="text_5">
      <!-- 0 -->
      <g transform="translate(53.9285 104.129088)scale(0.14 -0.14)">
       <use xlink:href="#DejaVuSans-48"/>
      </g>
     </g>
    </g>
    <g id="ytick_3">
     <g id="line2d_6">
      <g>
       <use style="stroke:#000000;stroke-width:1.5;" x="78.336" xlink:href="#m93a6de808f" y="52.730182"/>
      </g>
     </g>
     <g id="text_6">
      <!-- 1 -->
      <g transform="translate(53.9285 58.049088)scale(0.14 -0.14)">
       <use xlink:href="#DejaVuSans-49"/>
      </g>
     </g>
    </g>
   </g>
   <g id="line2d_7">
    <path clip-path="url(#p068ad515d4)" d="M 170.496 98.810182 
L 170.377458 97.76717 
L 170.022663 96.739195 
L 169.434096 95.741156 
L 168.61587 94.787679 
L 167.484457 93.826991 
L 166.102498 92.951527 
L 164.356516 92.126432 
L 162.351905 91.436189 
L 160.107158 90.897643 
L 157.642917 90.525781 
L 154.797933 90.327394 
L 151.758445 90.346281 
L 148.555824 90.592316 
L 145.222919 91.072158 
L 141.793673 91.789146 
L 138.302721 92.743222 
L 134.784983 93.930909 
L 131.275258 95.345321 
L 127.807815 96.976234 
L 124.416 98.810182 
L 121.131847 100.830606 
L 117.985714 103.018043 
L 115.005934 105.350348 
L 112.218498 107.802956 
L 109.646768 110.349171 
L 107.311215 112.96049 
L 105.229207 115.606949 
L 103.414824 118.257484 
L 101.878723 120.880314 
L 100.62804 123.443336 
L 99.666339 125.914519 
L 98.993606 128.262309 
L 98.622248 130.323989 
L 98.496079 132.225943 
L 98.606822 133.94512 
L 98.914487 135.365744 
L 99.408626 136.592203 
L 100.023793 137.54435 
L 100.778289 138.305919 
L 101.660151 138.867721 
L 102.656502 139.221955 
L 103.753676 139.362276 
L 104.937337 139.283855 
L 106.192608 138.983427 
L 107.606987 138.409735 
L 109.067256 137.576683 
L 110.660491 136.398876 
L 112.259863 134.931411 
L 113.841653 133.182633 
L 115.48349 131.019772 
L 117.052094 128.566345 
L 118.522011 125.842457 
L 119.86961 122.871271 
L 121.073397 119.678749 
L 122.114294 116.293373 
L 122.975893 112.745813 
L 123.644666 109.06859 
L 124.110151 105.295703 
L 124.365078 101.462243 
L 124.405474 97.603994 
L 124.230709 93.757021 
L 123.843507 89.957261 
L 123.24991 86.240113 
L 122.459197 82.64003 
L 121.483764 79.190133 
L 120.338963 75.921829 
L 119.042899 72.864457 
L 117.61619 70.044962 
L 116.081702 67.487587 
L 114.464242 65.213611 
L 112.790237 63.241114 
L 111.087378 61.584784 
L 109.490164 60.329078 
L 107.916705 59.367348 
L 106.490848 58.738002 
L 105.126173 58.368218 
L 103.841843 58.256303 
L 102.7375 58.379949 
L 101.732898 58.717935 
L 100.841762 59.264029 
L 100.077031 60.01054 
L 99.450744 60.948384 
L 98.973929 62.067165 
L 98.638939 63.461007 
L 98.499584 65.035251 
L 98.564925 66.772594 
L 98.870234 68.794008 
L 99.425166 70.957442 
L 100.23346 73.237862 
L 101.376 75.770182 
L 102.805715 78.374351 
L 104.516803 81.018246 
L 106.49992 83.669921 
L 108.742256 86.297996 
L 111.227657 88.872052 
L 113.93679 91.362995 
L 116.847352 93.743413 
L 119.934304 95.987907 
L 123.170155 98.073391 
L 126.525269 99.979369 
L 129.968196 101.688167 
L 133.466041 103.185142 
L 136.984833 104.458839 
L 140.489924 105.501111 
L 143.946393 106.307197 
L 147.319449 106.875759 
L 150.574843 107.208868 
L 153.67927 107.311948 
L 156.60076 107.193684 
L 159.309055 106.865878 
L 161.77597 106.343273 
L 163.975725 105.643333 
L 165.774802 104.843779 
L 167.302135 103.924044 
L 168.469948 102.974506 
L 169.379246 101.954318 
L 169.985646 100.959192 
L 170.358533 99.932993 
L 170.495298 98.890605 
L 170.394985 97.847059 
L 170.058296 96.817396 
L 169.487586 95.81653 
L 168.686844 94.859114 
L 167.573701 93.892983 
L 166.209291 93.010883 
L 164.481152 92.177439 
L 162.493233 91.477662 
L 160.263876 90.928515 
L 157.813585 90.545115 
L 154.981759 90.333547 
L 151.953526 90.338533 
L 148.760152 90.570141 
L 145.434405 91.035238 
L 142.010171 91.737371 
L 138.522053 92.676695 
L 135.004966 93.849948 
L 131.493729 95.250455 
L 128.022655 96.868198 
L 124.625159 98.68991 
L 121.333369 100.699221 
L 118.177757 102.876842 
L 115.186792 105.200788 
L 112.386622 107.646638 
L 109.800779 110.187821 
L 107.449923 112.795936 
L 105.351621 115.441099 
L 103.520164 118.092305 
L 101.966424 120.717805 
L 100.69776 123.285507 
L 99.717961 125.763362 
L 99.027235 128.119773 
L 98.6393 130.19125 
L 98.497015 132.104584 
L 98.592272 133.836635 
L 98.886192 135.270526 
L 99.367398 136.511359 
L 99.971379 137.477748 
L 100.715571 138.25432 
L 101.588081 138.831784 
L 102.576102 139.202229 
L 103.666021 139.359196 
L 104.843551 139.297737 
L 106.093852 139.014467 
L 107.504206 138.459327 
L 108.961847 137.644753 
L 110.55382 136.486484 
L 112.153526 135.038101 
L 113.737215 133.307762 
L 115.382748 131.163655 
L 116.956692 128.727832 
L 118.433489 126.0202 
L 119.789387 123.063737 
L 121.002747 119.884239 
L 122.054335 116.510038 
L 122.927567 112.971679 
L 123.608731 109.301578 
L 124.087167 105.533651 
L 124.355405 101.702934 
L 124.409263 97.845179 
L 124.247901 93.996444 
L 123.873833 90.192689 
L 123.292897 86.469356 
L 122.514172 82.860971 
L 121.549864 79.400748 
L 120.415146 76.120211 
L 119.127956 73.048841 
L 117.708765 70.213738 
L 116.180304 67.639325 
L 114.567272 65.347073 
L 112.896 63.355267 
L 111.194114 61.678813 
L 109.596172 60.4037 
L 108.02038 59.422234 
L 106.490848 58.738002 
L 105.126173 58.368218 
L 103.841843 58.256303 
L 102.7375 58.379949 
L 101.732898 58.717935 
L 100.841762 59.264029 
L 100.077031 60.01054 
L 99.450744 60.948384 
L 98.973929 62.067165 
L 98.638939 63.461007 
L 98.499584 65.035251 
L 98.564925 66.772594 
L 98.870234 68.794008 
L 99.425166 70.957442 
L 100.23346 73.237862 
L 101.376 75.770182 
L 102.805715 78.374351 
L 104.516803 81.018246 
L 106.49992 83.669921 
L 108.742256 86.297996 
L 111.227657 88.872052 
L 113.93679 91.362995 
L 116.847352 93.743413 
L 119.934304 95.987907 
L 123.170155 98.073391 
L 126.525269 99.979369 
L 129.968196 101.688167 
L 133.466041 103.185142 
L 136.984833 104.458839 
L 140.489924 105.501111 
L 143.946393 106.307197 
L 147.319449 106.875759 
L 150.574843 107.208868 
L 153.67927 107.311948 
L 156.60076 107.193684 
L 159.309055 106.865878 
L 161.77597 106.343273 
L 163.975725 105.643333 
L 165.774802 104.843779 
L 167.302135 103.924044 
L 168.469948 102.974506 
L 169.379246 101.954318 
L 169.985646 100.959192 
L 170.358533 99.932993 
L 170.495298 98.890605 
L 170.496 98.810182 
L 170.496 98.810182 
" style="fill:none;stroke:#1f77b4;stroke-linecap:square;stroke-width:1.5;"/>
   </g>
   <g id="patch_3">
    <path d="M 78.336 144.890182 
L 78.336 52.730182 
" style="fill:none;stroke:#000000;stroke-linecap:square;stroke-linejoin:miter;stroke-width:1.5;"/>
   </g>
   <g id="patch_4">
    <path d="M 170.496 144.890182 
L 170.496 52.730182 
" style="fill:none;stroke:#000000;stroke-linecap:square;stroke-linejoin:miter;stroke-width:1.5;"/>
   </g>
   <g id="patch_5">
    <path d="M 78.336 144.890182 
L 170.496 144.890182 
" style="fill:none;stroke:#000000;stroke-linecap:square;stroke-linejoin:miter;stroke-width:1.5;"/>
   </g>
   <g id="patch_6">
    <path d="M 78.336 52.730182 
L 170.496 52.730182 
" style="fill:none;stroke:#000000;stroke-linecap:square;stroke-linejoin:miter;stroke-width:1.5;"/>
   </g>
  </g>
  <g id="axes_2">
   <g id="patch_7">
    <path d="M 188.928 144.890182 
L 281.088 144.890182 
L 281.088 52.730182 
L 188.928 52.730182 
z
" style="fill:#ffffff;"/>
   </g>
   <g id="matplotlib.axis_3">
    <g id="xtick_4">
     <g id="line2d_8">
      <g>
       <use style="stroke:#000000;stroke-width:1.5;" x="188.928" xlink:href="#m20e77ece90" y="144.890182"/>
      </g>
     </g>
     <g id="text_7">
      <!-- −1 -->
      <g transform="translate(178.608469 171.027994)scale(0.14 -0.14)">
       <use xlink:href="#DejaVuSans-8722"/>
       <use x="83.789062" xlink:href="#DejaVuSans-49"/>
      </g>
     </g>
    </g>
    <g id="xtick_5">
     <g id="line2d_9">
      <g>
       <use style="stroke:#000000;stroke-width:1.5;" x="235.008" xlink:href="#m20e77ece90" y="144.890182"/>
      </g>
     </g>
     <g id="text_8">
      <!-- 0 -->
      <g transform="translate(230.55425 171.027994)scale(0.14 -0.14)">
       <use xlink:href="#DejaVuSans-48"/>
      </g>
     </g>
    </g>
    <g id="xtick_6">
     <g id="line2d_10">
      <g>
       <use style="stroke:#000000;stroke-width:1.5;" x="281.088" xlink:href="#m20e77ece90" y="144.890182"/>
      </g>
     </g>
     <g id="text_9">
      <!-- 1 -->
      <g transform="translate(276.63425 171.027994)scale(0.14 -0.14)">
       <use xlink:href="#DejaVuSans-49"/>
      </g>
     </g>
    </g>
   </g>
   <g id="matplotlib.axis_4">
    <g id="ytick_4">
     <g id="line2d_11">
      <g>
       <use style="stroke:#000000;stroke-width:1.5;" x="188.928" xlink:href="#m93a6de808f" y="144.890182"/>
      </g>
     </g>
     <g id="text_10">
      <!-- −1 -->
      <g transform="translate(152.788938 150.209088)scale(0.14 -0.14)">
       <use xlink:href="#DejaVuSans-8722"/>
       <use x="83.789062" xlink:href="#DejaVuSans-49"/>
      </g>
     </g>
    </g>
    <g id="ytick_5">
     <g id="line2d_12">
      <g>
       <use style="stroke:#000000;stroke-width:1.5;" x="188.928" xlink:href="#m93a6de808f" y="98.810182"/>
      </g>
     </g>
     <g id="text_11">
      <!-- 0 -->
      <g transform="translate(164.5205 104.129088)scale(0.14 -0.14)">
       <use xlink:href="#DejaVuSans-48"/>
      </g>
     </g>
    </g>
    <g id="ytick_6">
     <g id="line2d_13">
      <g>
       <use style="stroke:#000000;stroke-width:1.5;" x="188.928" xlink:href="#m93a6de808f" y="52.730182"/>
      </g>
     </g>
     <g id="text_12">
      <!-- 1 -->
      <g transform="translate(164.5205 58.049088)scale(0.14 -0.14)">
       <use xlink:href="#DejaVuSans-49"/>
      </g>
     </g>
    </g>
   </g>
   <g id="line2d_14">
    <path clip-path="url(#pbb446bff5f)" d="M 281.088 98.810182 
L 280.971271 98.168372 
L 280.621762 97.536074 
L 279.952902 96.847845 
L 278.996958 96.196756 
L 277.606712 95.53239 
L 275.693286 94.892634 
L 273.397824 94.368328 
L 270.487558 93.950087 
L 267.190324 93.713002 
L 263.548771 93.674887 
L 259.609833 93.849582 
L 255.424064 94.246651 
L 251.044918 94.871137 
L 246.147151 95.804608 
L 241.160173 96.999499 
L 236.157132 98.443447 
L 231.210668 100.117708 
L 226.391732 101.997436 
L 221.768445 104.052093 
L 217.405009 106.245977 
L 213.360695 108.538867 
L 209.688924 110.886761 
L 206.436455 113.242708 
L 203.840543 115.382212 
L 201.660586 117.447422 
L 199.915575 119.398785 
L 198.709088 121.054183 
L 197.884052 122.551937 
L 197.465706 123.753222 
L 197.357153 124.686892 
L 197.470526 125.388195 
L 197.777244 125.959316 
L 198.272126 126.392257 
L 198.948897 126.679824 
L 199.918534 126.821735 
L 201.097201 126.764088 
L 202.635717 126.458724 
L 204.582919 125.822833 
L 206.76857 124.868778 
L 209.387753 123.465097 
L 212.209831 121.68807 
L 215.18971 119.548837 
L 218.28122 117.064259 
L 221.437841 114.25677 
L 224.613419 111.154144 
L 228.022771 107.498055 
L 231.346515 103.581922 
L 234.533031 99.459145 
L 237.534924 95.187922 
L 240.309807 90.830321 
L 242.820979 86.451272 
L 245.03798 82.117492 
L 246.937026 77.896372 
L 248.501307 73.854833 
L 249.721143 70.058179 
L 250.539126 66.825091 
L 251.064734 63.900338 
L 251.306254 61.326764 
L 251.289092 59.309293 
L 251.057316 57.645815 
L 250.673855 56.459872 
L 250.199896 55.670454 
L 249.685502 55.196866 
L 249.092294 54.942742 
L 248.429221 54.911345 
L 247.705633 55.104644 
L 246.831309 55.591445 
L 245.906756 56.362331 
L 244.838019 57.54808 
L 243.634856 59.243849 
L 242.428151 61.335683 
L 241.137664 64.04713 
L 239.905055 67.177132 
L 238.760072 70.689713 
L 237.729924 74.543681 
L 236.838791 78.693175 
L 236.107382 83.088285 
L 235.514732 88.064961 
L 235.145205 93.196119 
L 235.008702 98.408064 
L 235.108873 103.625797 
L 235.44304 108.774227 
L 236.002253 113.77938 
L 236.771481 118.569596 
L 237.729924 123.076682 
L 238.851457 127.237005 
L 240.105179 130.992506 
L 241.349561 134.055098 
L 242.646654 136.693683 
L 243.964434 138.878963 
L 245.162114 140.464031 
L 246.322954 141.635565 
L 247.324156 142.334555 
L 248.164454 142.662927 
L 248.851335 142.715631 
L 249.471814 142.544716 
L 250.016784 142.152963 
L 250.477584 141.544435 
L 250.885268 140.607385 
L 251.165473 139.412118 
L 251.315667 137.794915 
L 251.271875 135.685322 
L 250.997144 133.255845 
L 250.423252 130.276625 
L 249.556079 126.996568 
L 248.393127 123.462519 
L 246.937026 119.723992 
L 245.195606 115.832432 
L 243.181877 111.840459 
L 240.714143 107.464002 
L 237.977592 103.098817 
L 235.008 98.810182 
L 231.84692 94.660671 
L 228.541023 90.70914 
L 225.141337 87.009785 
L 221.702379 83.611293 
L 218.28122 80.556105 
L 214.936482 77.879797 
L 211.727292 75.610597 
L 208.935937 73.895177 
L 206.354839 72.554397 
L 204.026937 71.592653 
L 202.149964 71.042988 
L 200.548365 70.805596 
L 199.353244 70.853282 
L 198.50497 71.102874 
L 197.941088 71.482097 
L 197.563141 72.002296 
L 197.376728 72.655766 
L 197.386324 73.434041 
L 197.635489 74.447348 
L 198.211633 75.727864 
L 199.103852 77.151415 
L 200.448 78.856957 
L 202.165436 80.680112 
L 204.451402 82.767609 
L 207.147622 84.91951 
L 210.227609 87.096545 
L 213.659211 89.260407 
L 217.405009 91.374387 
L 221.422782 93.403967 
L 226.028304 95.470663 
L 230.834565 97.365 
L 235.773709 99.056024 
L 240.774962 100.518434 
L 245.765773 101.733004 
L 250.672992 102.686875 
L 255.424064 103.373713 
L 259.948224 103.79373 
L 264.177664 103.953581 
L 268.048656 103.866113 
L 271.252966 103.581922 
L 274.060387 103.121605 
L 276.434473 102.507396 
L 278.203557 101.830709 
L 279.456863 101.139648 
L 280.360297 100.393919 
L 280.867404 99.690727 
L 281.071578 99.051372 
L 281.042389 98.408446 
L 280.780007 97.77147 
L 280.285957 97.149915 
L 279.456863 96.480716 
L 278.203557 95.789654 
L 276.611743 95.170326 
L 274.487066 94.591087 
L 271.993543 94.137821 
L 268.884754 93.807698 
L 265.409747 93.668111 
L 261.613392 93.734932 
L 257.544521 94.019896 
L 253.255229 94.530333 
L 248.800143 95.268961 
L 243.852128 96.32421 
L 238.848651 97.635977 
L 233.862771 99.18893 
L 228.966495 100.961465 
L 224.229606 102.92605 
L 219.718548 105.049692 
L 215.495368 107.294516 
L 211.616745 109.618459 
L 208.133118 111.97605 
L 205.08793 114.319273 
L 202.697239 116.42658 
L 200.732767 118.439793 
L 199.210411 120.319543 
L 198.211633 121.892499 
L 197.635489 123.173015 
L 197.37428 124.290126 
L 197.405111 125.140008 
L 197.639871 125.760926 
L 198.06487 126.246572 
L 198.674235 126.589443 
L 199.461036 126.782884 
L 200.548365 126.814768 
L 201.992574 126.611752 
L 203.666447 126.151161 
L 205.747501 125.341982 
L 208.050042 124.214076 
L 210.776215 122.622691 
L 213.682915 120.662809 
L 216.724419 118.348442 
L 219.854293 115.699264 
L 223.026111 112.740413 
L 226.194167 109.502216 
L 229.570657 105.719812 
L 232.837244 101.701358 
L 235.944152 97.502579 
L 238.846208 93.183579 
L 241.503573 88.807877 
L 243.882363 84.441363 
L 245.955155 80.151208 
L 247.701353 76.004727 
L 249.107428 72.068237 
L 250.167008 68.405915 
L 250.838072 65.321405 
L 251.2203 62.567131 
L 251.324362 60.183942 
L 251.188309 58.356522 
L 250.885268 57.012979 
L 250.477584 56.075929 
L 249.953093 55.406481 
L 249.398201 55.042137 
L 248.768915 54.899049 
L 248.074394 54.979836 
L 247.324156 55.285809 
L 246.425748 55.89913 
L 245.376688 56.912258 
L 244.293225 58.268762 
L 243.08524 60.146614 
L 241.885412 62.41251 
L 240.615284 65.302372 
L 239.415705 68.596465 
L 238.315426 72.256578 
L 237.340453 76.239502 
L 236.513567 80.497611 
L 235.853921 84.979504 
L 235.345524 90.024184 
L 235.064788 95.195233 
L 235.019227 100.418311 
L 235.210058 105.618242 
L 235.632179 110.720219 
L 236.274269 115.65102 
L 237.119035 120.340185 
L 238.143571 124.721148 
L 239.319844 128.732305 
L 240.615284 132.317992 
L 241.885412 135.207854 
L 243.195105 137.660777 
L 244.511719 139.649983 
L 245.695919 141.048427 
L 246.7308 141.957253 
L 247.611408 142.475712 
L 248.429221 142.709019 
L 249.092294 142.677622 
L 249.685502 142.423498 
L 250.199896 141.94991 
L 250.627005 141.261394 
L 250.993331 140.237136 
L 251.246537 138.800876 
L 251.325744 137.066597 
L 251.19925 134.837348 
L 250.838072 132.298958 
L 250.167008 129.214449 
L 249.201269 125.844376 
L 247.940053 122.236555 
L 246.387719 118.441227 
L 244.55383 114.510313 
L 242.453105 110.496655 
L 239.899217 106.116595 
L 237.086871 101.768116 
L 234.053682 97.515777 
L 230.842854 93.421113 
L 227.502485 89.541643 
L 224.084771 85.929952 
L 220.645119 82.632879 
L 217.241186 79.690813 
L 213.931862 77.137114 
L 210.776215 74.997673 
L 208.050042 73.406288 
L 205.548686 72.191649 
L 203.314297 71.356235 
L 201.534274 70.920925 
L 200.162843 70.793957 
L 199.145675 70.892123 
L 198.346915 71.184073 
L 197.828932 71.599218 
L 197.498387 72.153488 
L 197.360602 72.838981 
L 197.419763 73.647051 
L 197.725443 74.691014 
L 198.364808 76.001803 
L 199.320111 77.451421 
L 200.732767 79.180571 
L 202.516994 81.021876 
L 204.872925 83.122855 
L 207.635103 85.281654 
L 210.776073 87.459118 
L 214.262775 89.617164 
L 218.056956 91.719406 
L 222.115647 93.731749 
L 226.75632 95.774155 
L 231.587528 97.639092 
L 236.540892 99.296444 
L 241.545289 100.721819 
L 246.528 101.896957 
L 251.415887 102.809994 
L 256.136595 103.455605 
L 260.619738 103.835005 
L 264.798063 103.955819 
L 268.608567 103.83182 
L 271.74948 103.516874 
L 274.487066 103.029277 
L 276.78577 102.3918 
L 278.481707 101.697702 
L 279.665848 100.994315 
L 280.431054 100.31702 
L 280.90566 99.611328 
L 281.080701 98.971007 
L 281.088 98.810182 
L 281.088 98.810182 
" style="fill:none;stroke:#1f77b4;stroke-linecap:square;stroke-width:1.5;"/>
   </g>
   <g id="patch_8">
    <path d="M 188.928 144.890182 
L 188.928 52.730182 
" style="fill:none;stroke:#000000;stroke-linecap:square;stroke-linejoin:miter;stroke-width:1.5;"/>
   </g>
   <g id="patch_9">
    <path d="M 281.088 144.890182 
L 281.088 52.730182 
" style="fill:none;stroke:#000000;stroke-linecap:square;stroke-linejoin:miter;stroke-width:1.5;"/>
   </g>
   <g id="patch_10">
    <path d="M 188.928 144.890182 
L 281.088 144.890182 
" style="fill:none;stroke:#000000;stroke-linecap:square;stroke-linejoin:miter;stroke-width:1.5;"/>
   </g>
   <g id="patch_11">
    <path d="M 188.928 52.730182 
L 281.088 52.730182 
" style="fill:none;stroke:#000000;stroke-linecap:square;stroke-linejoin:miter;stroke-width:1.5;"/>
   </g>
  </g>
  <g id="axes_3">
   <g id="patch_12">
    <path d="M 299.52 144.890182 
L 391.68 144.890182 
L 391.68 52.730182 
L 299.52 52.730182 
z
" style="fill:#ffffff;"/>
   </g>
   <g id="matplotlib.axis_5">
    <g id="xtick_7">
     <g id="line2d_15">
      <g>
       <use style="stroke:#000000;stroke-width:1.5;" x="299.52" xlink:href="#m20e77ece90" y="144.890182"/>
      </g>
     </g>
     <g id="text_13">
      <!-- −1 -->
      <g transform="translate(289.200469 171.027994)scale(0.14 -0.14)">
       <use xlink:href="#DejaVuSans-8722"/>
       <use x="83.789062" xlink:href="#DejaVuSans-49"/>
      </g>
     </g>
    </g>
    <g id="xtick_8">
     <g id="line2d_16">
      <g>
       <use style="stroke:#000000;stroke-width:1.5;" x="345.6" xlink:href="#m20e77ece90" y="144.890182"/>
      </g>
     </g>
     <g id="text_14">
      <!-- 0 -->
      <g transform="translate(341.14625 171.027994)scale(0.14 -0.14)">
       <use xlink:href="#DejaVuSans-48"/>
      </g>
     </g>
    </g>
    <g id="xtick_9">
     <g id="line2d_17">
      <g>
       <use style="stroke:#000000;stroke-width:1.5;" x="391.68" xlink:href="#m20e77ece90" y="144.890182"/>
      </g>
     </g>
     <g id="text_15">
      <!-- 1 -->
      <g transform="translate(387.22625 171.027994)scale(0.14 -0.14)">
       <use xlink:href="#DejaVuSans-49"/>
      </g>
     </g>
    </g>
   </g>
   <g id="matplotlib.axis_6">
    <g id="ytick_7">
     <g id="line2d_18">
      <g>
       <use style="stroke:#000000;stroke-width:1.5;" x="299.52" xlink:href="#m93a6de808f" y="144.890182"/>
      </g>
     </g>
     <g id="text_16">
      <!-- −1 -->
      <g transform="translate(263.380937 150.209088)scale(0.14 -0.14)">
       <use xlink:href="#DejaVuSans-8722"/>
       <use x="83.789062" xlink:href="#DejaVuSans-49"/>
      </g>
     </g>
    </g>
    <g id="ytick_8">
     <g id="line2d_19">
      <g>
       <use style="stroke:#000000;stroke-width:1.5;" x="299.52" xlink:href="#m93a6de808f" y="98.810182"/>
      </g>
     </g>
     <g id="text_17">
      <!-- 0 -->
      <g transform="translate(275.1125 104.129088)scale(0.14 -0.14)">
       <use xlink:href="#DejaVuSans-48"/>
      </g>
     </g>
    </g>
    <g id="ytick_9">
     <g id="line2d_20">
      <g>
       <use style="stroke:#000000;stroke-width:1.5;" x="299.52" xlink:href="#m93a6de808f" y="52.730182"/>
      </g>
     </g>
     <g id="text_18">
      <!-- 1 -->
      <g transform="translate(275.1125 58.049088)scale(0.14 -0.14)">
       <use xlink:href="#DejaVuSans-49"/>
      </g>
     </g>
    </g>
   </g>
   <g id="line2d_21">
    <path clip-path="url(#p68f0e613cc)" d="M 391.68 98.810182 
L 391.553731 98.328938 
L 391.175671 97.855508 
L 390.419428 97.323368 
L 389.147217 96.756547 
L 387.452806 96.250355 
L 385.064217 95.773576 
L 381.848753 95.383666 
L 378.093249 95.16548 
L 373.858918 95.139989 
L 369.214608 95.32308 
L 364.235612 95.725076 
L 358.468277 96.425188 
L 352.505601 97.392665 
L 346.462976 98.615702 
L 340.456578 100.073527 
L 334.600983 101.736794 
L 329.006824 103.568199 
L 323.778543 105.523339 
L 319.012297 107.551774 
L 314.794054 109.598271 
L 311.197909 111.604205 
L 308.519973 113.341685 
L 306.442002 114.949944 
L 305.105727 116.249771 
L 304.352014 117.261297 
L 304.030304 118.018078 
L 304.004991 118.560944 
L 304.2088 118.998019 
L 304.638368 119.322239 
L 305.289005 119.527219 
L 306.319441 119.608167 
L 307.840487 119.482911 
L 309.964353 119.054047 
L 312.491504 118.312576 
L 315.723909 117.118274 
L 319.344215 115.536962 
L 323.286223 113.579349 
L 327.479545 111.264025 
L 332.294965 108.335651 
L 337.226181 105.051834 
L 342.173484 101.46806 
L 347.039184 97.648907 
L 351.729664 93.666783 
L 356.157305 89.600458 
L 360.242248 85.533402 
L 363.913949 81.551989 
L 367.112502 77.743584 
L 369.789696 74.194568 
L 371.740771 71.263557 
L 373.213709 68.675107 
L 374.123253 66.683669 
L 374.63834 65.049998 
L 374.76948 63.923875 
L 374.638075 63.205984 
L 374.348197 62.797938 
L 373.900574 62.587099 
L 373.301737 62.577814 
L 372.421902 62.825839 
L 371.193658 63.45393 
L 369.748762 64.449969 
L 367.893909 66.005691 
L 365.590825 68.260999 
L 363.083756 71.046448 
L 360.427223 74.327527 
L 357.676565 78.060565 
L 354.886824 82.193366 
L 351.836938 87.129435 
L 348.872591 92.387361 
L 346.056647 97.869755 
L 343.445489 103.47297 
L 341.087823 109.089208 
L 339.023696 114.608737 
L 337.283766 119.922173 
L 335.888808 124.92279 
L 334.849503 129.508782 
L 334.166473 133.585453 
L 333.847193 136.777367 
L 333.801429 139.42113 
L 333.978255 141.292128 
L 334.294108 142.526821 
L 334.681222 143.263482 
L 335.086822 143.633346 
L 335.55292 143.758236 
L 336.071913 143.636308 
L 336.635897 143.267179 
L 337.339882 142.525622 
L 338.188951 141.273576 
L 339.177179 139.362276 
L 340.17333 136.939956 
L 341.25618 133.684454 
L 342.279291 129.882842 
L 343.20967 125.593307 
L 344.017855 120.882248 
L 344.735745 115.301146 
L 345.248532 109.405046 
L 345.537217 103.306364 
L 345.591159 97.121663 
L 345.408372 90.969269 
L 344.995587 84.966847 
L 344.368056 79.228987 
L 343.549122 73.864868 
L 342.569557 68.976022 
L 341.466682 64.654279 
L 340.392996 61.285328 
L 339.28798 58.502468 
L 338.188951 56.346787 
L 337.236739 54.968431 
L 336.443401 54.202711 
L 335.806292 53.892181 
L 335.312776 53.893802 
L 334.875998 54.1415 
L 334.503385 54.632707 
L 334.159105 55.508132 
L 333.897453 56.896368 
L 333.789548 58.681708 
L 333.866543 61.138388 
L 334.214016 64.382148 
L 334.849503 68.111582 
L 335.779549 72.262052 
L 337.00403 76.762658 
L 338.515962 81.537512 
L 340.494302 87.011611 
L 342.7755 92.612383 
L 345.322006 98.229963 
L 348.087388 103.755801 
L 351.017247 109.084905 
L 354.050357 114.117977 
L 357.12 118.763407 
L 360.155478 122.939074 
L 363.083756 126.573915 
L 365.590825 129.359365 
L 367.893909 131.614673 
L 369.940428 133.314938 
L 371.521916 134.358002 
L 372.692514 134.894022 
L 373.517711 135.062068 
L 374.066924 134.985189 
L 374.462646 134.708074 
L 374.698651 134.235459 
L 374.769664 133.573234 
L 374.63834 132.570366 
L 374.19991 131.1365 
L 373.334296 129.183112 
L 372.074014 126.903723 
L 370.217447 124.036617 
L 367.896086 120.873998 
L 365.1346 117.477851 
L 361.966292 113.912562 
L 358.061053 109.873623 
L 353.77981 105.7964 
L 349.198368 101.765915 
L 344.401026 97.863289 
L 339.478903 94.164017 
L 334.528087 90.736404 
L 329.647629 87.640211 
L 324.937447 84.925522 
L 320.496172 82.631868 
L 316.418986 80.78762 
L 313.103948 79.515438 
L 310.225919 78.633163 
L 307.840487 78.137452 
L 306.154731 78.013051 
L 305.047906 78.147858 
L 304.395627 78.445712 
L 304.078434 78.827202 
L 303.98885 79.318095 
L 304.129561 79.911014 
L 304.586464 80.721057 
L 305.494068 81.786223 
L 306.808245 82.97956 
L 308.761273 84.447362 
L 311.497425 86.195256 
L 314.794054 88.022093 
L 318.604973 89.88243 
L 322.874921 91.732108 
L 327.540431 93.529194 
L 333.044851 95.399023 
L 338.839896 97.112161 
L 344.816405 98.629275 
L 350.860648 99.918774 
L 356.856648 100.957502 
L 362.688563 101.731183 
L 368.243075 102.234625 
L 373.41174 102.471667 
L 378.093249 102.454884 
L 381.848753 102.236698 
L 385.064217 101.846788 
L 387.68713 101.310618 
L 389.505449 100.727135 
L 390.669848 100.147824 
L 391.329561 99.608394 
L 391.623865 99.131494 
L 391.665964 98.649381 
L 391.455608 98.169875 
L 390.994041 97.700775 
L 390.141763 97.176909 
L 388.762575 96.62366 
L 386.712042 96.079523 
L 384.159585 95.640007 
L 380.77618 95.299132 
L 376.870232 95.136774 
L 372.505361 95.172434 
L 367.752478 95.420376 
L 362.168178 95.948361 
L 356.316608 96.746488 
L 350.311416 97.808739 
L 344.268555 99.120019 
L 338.303896 100.65638 
L 332.530847 102.385498 
L 327.058042 104.267377 
L 321.987145 106.255286 
L 317.410818 108.29689 
L 313.41089 110.335552 
L 310.333443 112.136303 
L 307.832242 113.839798 
L 305.939627 115.400475 
L 304.774921 116.64622 
L 304.175515 117.601162 
L 303.98885 118.302269 
L 304.078434 118.793162 
L 304.395627 119.174651 
L 304.936397 119.440005 
L 305.842678 119.594808 
L 307.228324 119.55767 
L 308.968433 119.282872 
L 311.320977 118.681037 
L 314.380861 117.64277 
L 317.853674 116.215419 
L 321.675241 114.406536 
L 325.776699 112.231566 
L 330.085769 109.713766 
L 334.976755 106.585222 
L 339.929026 103.130306 
L 344.843715 99.409606 
L 349.625106 95.492141 
L 354.182624 91.453983 
L 358.432677 87.376683 
L 362.300309 83.345526 
L 365.72063 79.447667 
L 368.64 75.770182 
L 371.016934 72.39808 
L 372.682662 69.665767 
L 373.864016 67.309422 
L 374.51024 65.552755 
L 374.755902 64.308831 
L 374.722072 63.482283 
L 374.513226 62.977628 
L 374.143716 62.667568 
L 373.619614 62.557038 
L 372.947895 62.649782 
L 371.988127 63.018197 
L 370.675976 63.78443 
L 368.952419 65.085006 
L 367.000575 66.842384 
L 364.609454 69.313283 
L 362.035986 72.301651 
L 359.335154 75.769247 
L 356.562312 79.668907 
L 353.494148 84.391226 
L 350.47499 89.485186 
L 347.570665 94.85764 
L 344.841252 100.408101 
L 342.33978 106.030768 
L 340.111127 111.616683 
L 338.191147 117.055986 
L 336.606051 122.240219 
L 335.372039 127.064612 
L 334.495196 131.430329 
L 334.004939 134.924568 
L 333.797022 137.903531 
L 333.855566 140.31413 
L 334.118444 141.961043 
L 334.503385 142.987656 
L 334.944535 143.537144 
L 335.391294 143.743969 
L 335.89352 143.704429 
L 336.443401 143.417652 
L 337.134389 142.771475 
L 337.97324 141.626568 
L 338.845512 140.057384 
L 339.84211 137.802534 
L 340.936017 134.720861 
L 341.980655 131.077373 
L 342.942122 126.927596 
L 343.78982 122.335577 
L 344.497176 117.372818 
L 345.087169 111.578546 
L 345.459026 105.540211 
L 345.599017 99.37314 
L 345.501992 93.195298 
L 345.171519 87.124869 
L 344.61979 81.277839 
L 343.867271 75.765618 
L 342.942122 70.692767 
L 341.879397 66.154872 
L 340.82826 62.565216 
L 339.731394 59.542423 
L 338.625397 57.131598 
L 337.653687 55.514126 
L 336.832489 54.531016 
L 336.163003 54.028421 
L 335.635955 53.86528 
L 335.160505 53.949123 
L 334.744309 54.278348 
L 334.394666 54.849905 
L 334.08 55.816957 
L 333.855566 57.306233 
L 333.791198 59.449395 
L 333.941192 62.056961 
L 334.373997 65.452789 
L 335.097462 69.31563 
L 336.116161 73.578838 
L 337.427926 78.169879 
L 339.198339 83.506518 
L 341.290563 89.039379 
L 343.673065 94.658955 
L 346.304975 100.255594 
L 349.136846 105.721786 
L 352.111655 110.954367 
L 355.166012 115.856615 
L 358.231571 120.340174 
L 361.236588 124.326774 
L 364.107603 127.749714 
L 366.539537 130.326718 
L 368.746158 132.362448 
L 370.675976 133.835934 
L 372.136379 134.67204 
L 373.187737 135.024264 
L 373.900574 135.033264 
L 374.348197 134.822426 
L 374.638075 134.414379 
L 374.76461 133.814634 
L 374.699693 132.881544 
L 374.338615 131.522661 
L 373.666778 129.872301 
L 372.537755 127.697387 
L 370.824112 124.930515 
L 368.64 121.850182 
L 366.007441 118.517418 
L 362.957184 114.996018 
L 359.528336 111.351312 
L 355.375545 107.278025 
L 350.893926 103.220914 
L 346.16487 99.262728 
L 341.277224 95.481196 
L 336.325493 91.947408 
L 331.407889 88.724373 
L 326.624262 85.865811 
L 322.073962 83.415174 
L 317.853674 81.404944 
L 314.380861 79.977593 
L 311.320977 78.939327 
L 308.732289 78.289877 
L 306.847858 78.031466 
L 305.554013 78.052314 
L 304.731602 78.255519 
L 304.264828 78.56029 
L 304.023122 78.979028 
L 304.010072 79.50478 
L 304.227908 80.129966 
L 304.774921 80.974143 
L 305.784773 82.073401 
L 307.404179 83.45556 
L 309.520907 84.960716 
L 312.429482 86.737101 
L 315.885675 88.578719 
L 319.840497 90.440412 
L 324.236126 92.27859 
L 329.501781 94.224483 
L 335.124132 96.042338 
L 340.998083 97.688355 
L 347.01255 99.125924 
L 353.052713 100.326453 
L 359.002368 101.269977 
L 364.746314 101.945511 
L 370.172737 102.351167 
L 375.175534 102.494009 
L 379.656521 102.389666 
L 383.202889 102.100008 
L 386.187115 101.648309 
L 388.560429 101.061643 
L 390.141763 100.443454 
L 391.088317 99.842456 
L 391.553731 99.291426 
L 391.68 98.810182 
L 391.68 98.810182 
" style="fill:none;stroke:#1f77b4;stroke-linecap:square;stroke-width:1.5;"/>
   </g>
   <g id="patch_13">
    <path d="M 299.52 144.890182 
L 299.52 52.730182 
" style="fill:none;stroke:#000000;stroke-linecap:square;stroke-linejoin:miter;stroke-width:1.5;"/>
   </g>
   <g id="patch_14">
    <path d="M 391.68 144.890182 
L 391.68 52.730182 
" style="fill:none;stroke:#000000;stroke-linecap:square;stroke-linejoin:miter;stroke-width:1.5;"/>
   </g>
   <g id="patch_15">
    <path d="M 299.52 144.890182 
L 391.68 144.890182 
" style="fill:none;stroke:#000000;stroke-linecap:square;stroke-linejoin:miter;stroke-width:1.5;"/>
   </g>
   <g id="patch_16">
    <path d="M 299.52 52.730182 
L 391.68 52.730182 
" style="fill:none;stroke:#000000;stroke-linecap:square;stroke-linejoin:miter;stroke-width:1.5;"/>
   </g>
  </g>
  <g id="axes_4">
   <g id="patch_17">
    <path d="M 78.336 282.501818 
L 170.496 282.501818 
L 170.496 190.341818 
L 78.336 190.341818 
z
" style="fill:#ffffff;"/>
   </g>
   <g id="matplotlib.axis_7">
    <g id="xtick_10">
     <g id="line2d_22">
      <g>
       <use style="stroke:#000000;stroke-width:1.5;" x="78.336" xlink:href="#m20e77ece90" y="282.501818"/>
      </g>
     </g>
     <g id="text_19">
      <!-- −1 -->
      <g transform="translate(68.016469 308.639631)scale(0.14 -0.14)">
       <use xlink:href="#DejaVuSans-8722"/>
       <use x="83.789062" xlink:href="#DejaVuSans-49"/>
      </g>
     </g>
    </g>
    <g id="xtick_11">
     <g id="line2d_23">
      <g>
       <use style="stroke:#000000;stroke-width:1.5;" x="124.416" xlink:href="#m20e77ece90" y="282.501818"/>
      </g>
     </g>
     <g id="text_20">
      <!-- 0 -->
      <g transform="translate(119.96225 308.639631)scale(0.14 -0.14)">
       <use xlink:href="#DejaVuSans-48"/>
      </g>
     </g>
    </g>
    <g id="xtick_12">
     <g id="line2d_24">
      <g>
       <use style="stroke:#000000;stroke-width:1.5;" x="170.496" xlink:href="#m20e77ece90" y="282.501818"/>
      </g>
     </g>
     <g id="text_21">
      <!-- 1 -->
      <g transform="translate(166.04225 308.639631)scale(0.14 -0.14)">
       <use xlink:href="#DejaVuSans-49"/>
      </g>
     </g>
    </g>
   </g>
   <g id="matplotlib.axis_8">
    <g id="ytick_10">
     <g id="line2d_25">
      <g>
       <use style="stroke:#000000;stroke-width:1.5;" x="78.336" xlink:href="#m93a6de808f" y="282.501818"/>
      </g>
     </g>
     <g id="text_22">
      <!-- −1 -->
      <g transform="translate(42.196938 287.820724)scale(0.14 -0.14)">
       <use xlink:href="#DejaVuSans-8722"/>
       <use x="83.789062" xlink:href="#DejaVuSans-49"/>
      </g>
     </g>
    </g>
    <g id="ytick_11">
     <g id="line2d_26">
      <g>
       <use style="stroke:#000000;stroke-width:1.5;" x="78.336" xlink:href="#m93a6de808f" y="236.421818"/>
      </g>
     </g>
     <g id="text_23">
      <!-- 0 -->
      <g transform="translate(53.9285 241.740724)scale(0.14 -0.14)">
       <use xlink:href="#DejaVuSans-48"/>
      </g>
     </g>
    </g>
    <g id="ytick_12">
     <g id="line2d_27">
      <g>
       <use style="stroke:#000000;stroke-width:1.5;" x="78.336" xlink:href="#m93a6de808f" y="190.341818"/>
      </g>
     </g>
     <g id="text_24">
      <!-- 1 -->
      <g transform="translate(53.9285 195.660724)scale(0.14 -0.14)">
       <use xlink:href="#DejaVuSans-49"/>
      </g>
     </g>
    </g>
   </g>
   <g id="line2d_28">
    <path clip-path="url(#p998bc0ce26)" d="M 170.496 236.421818 
L 170.37675 235.61957 
L 170.019755 234.8293 
L 169.42727 234.062877 
L 168.508057 233.26126 
L 167.31548 232.51766 
L 165.71346 231.789566 
L 163.811495 231.165337 
L 161.432567 230.625178 
L 158.747038 230.244689 
L 155.78325 230.040079 
L 152.316092 230.031844 
L 148.604488 230.25625 
L 144.693246 230.722141 
L 140.629288 231.433959 
L 136.461009 232.391615 
L 132.23762 233.590431 
L 128.008485 235.021167 
L 123.82246 236.670101 
L 119.727238 238.519203 
L 115.768718 240.54636 
L 111.990403 242.725684 
L 108.432833 245.027867 
L 105.133067 247.420609 
L 102.124217 249.869081 
L 99.435038 252.336446 
L 97.089588 254.784405 
L 95.106954 257.17378 
L 93.501055 259.465108 
L 92.354817 261.47076 
L 91.54369 263.327492 
L 91.091449 264.883674 
L 90.919933 266.265726 
L 91.003729 267.36192 
L 91.273932 268.203919 
L 91.722168 268.888198 
L 92.340723 269.405549 
L 93.120803 269.747818 
L 94.052608 269.907974 
L 95.240023 269.866869 
L 96.582631 269.592336 
L 98.204921 269.021826 
L 99.969725 268.165954 
L 102.015076 266.91698 
L 104.169137 265.337335 
L 106.400454 263.434989 
L 108.85357 261.039148 
L 111.320553 258.302716 
L 113.763278 255.25044 
L 116.145162 251.911722 
L 118.431707 248.320261 
L 120.591011 244.513645 
L 122.594232 240.532871 
L 124.416 236.421818 
L 126.034769 232.226681 
L 127.43311 227.995357 
L 128.597935 223.776814 
L 129.52065 219.620437 
L 130.197234 215.57536 
L 130.628252 211.689808 
L 130.818781 208.010438 
L 130.778282 204.581707 
L 130.520386 201.445265 
L 130.062623 198.639383 
L 129.476983 196.360016 
L 128.756517 194.419502 
L 127.990289 192.946903 
L 127.145555 191.793987 
L 126.318608 191.026975 
L 125.536462 190.575429 
L 124.737571 190.360907 
L 123.933883 190.384763 
L 123.137389 190.646846 
L 122.360014 191.145502 
L 121.541007 191.963458 
L 120.774603 193.057575 
L 120.015752 194.556251 
L 119.355017 196.360016 
L 118.769377 198.639383 
L 118.337914 201.233452 
L 118.077618 204.114817 
L 118.005134 207.504269 
L 118.16198 211.150496 
L 118.558227 215.009406 
L 119.19959 219.034617 
L 120.087282 223.178088 
L 121.21794 227.390775 
L 122.583619 231.623288 
L 124.171867 235.826559 
L 125.96586 239.952499 
L 127.944627 243.954631 
L 130.083323 247.78871 
L 132.353577 251.413293 
L 134.723898 254.790276 
L 137.160129 257.885377 
L 139.62595 260.668557 
L 142.083424 263.114385 
L 144.493563 265.20233 
L 146.816924 266.91698 
L 148.862275 268.165954 
L 150.768032 269.08025 
L 152.377412 269.627062 
L 153.819881 269.891553 
L 154.977389 269.89081 
L 155.961617 269.663962 
L 156.694224 269.268377 
L 157.262559 268.700042 
L 157.658144 267.967435 
L 157.873602 267.080062 
L 157.902729 266.048374 
L 157.713658 264.760347 
L 157.23781 263.190633 
L 156.477183 261.47076 
L 155.330945 259.465108 
L 153.85238 257.341164 
L 152.04824 255.130251 
L 149.753571 252.68825 
L 147.112136 250.221285 
L 144.147299 247.767818 
L 140.887163 245.36493 
L 137.364241 243.047768 
L 133.615055 240.849024 
L 129.679678 238.79846 
L 125.601224 236.922476 
L 121.425286 235.243745 
L 117.199339 233.780895 
L 112.972111 232.548275 
L 108.792935 231.555775 
L 104.711085 230.808726 
L 100.775113 230.307869 
L 97.032189 230.049406 
L 93.527464 230.02511 
L 90.303447 230.222517 
L 87.399433 230.625178 
L 85.020505 231.165337 
L 82.973364 231.846509 
L 81.279738 232.647884 
L 80.045804 233.474753 
L 79.202452 234.289601 
L 78.641028 235.143207 
L 78.378944 235.939702 
L 78.355088 236.743389 
L 78.569611 237.54228 
L 79.021157 238.324426 
L 79.706872 239.07803 
L 80.726413 239.860263 
L 82.146583 240.640867 
L 83.875502 241.327757 
L 86.078691 241.946309 
L 88.602455 242.41495 
L 91.420112 242.71612 
L 94.749072 242.836035 
L 98.343898 242.729323 
L 102.161069 242.385009 
L 106.154641 241.796428 
L 110.276875 240.961394 
L 114.478886 239.882287 
L 118.711303 238.566073 
L 122.924932 237.024249 
L 127.071419 235.272716 
L 131.103892 233.331578 
L 134.977575 231.224879 
L 138.650379 228.980265 
L 142.083443 226.628595 
L 145.241626 224.203496 
L 148.093949 221.740868 
L 150.613965 219.27835 
L 152.780074 216.854754 
L 154.575752 214.509476 
L 155.901534 212.436269 
L 156.893211 210.495601 
L 157.549828 208.717638 
L 157.861051 207.245841 
L 157.902156 206.058426 
L 157.715862 205.041616 
L 157.355749 204.277264 
L 156.821319 203.675362 
L 156.120838 203.244601 
L 155.263611 202.992582 
L 154.259907 202.925751 
L 152.999973 203.072325 
L 151.592208 203.454442 
L 149.907731 204.143688 
L 147.933761 205.212695 
L 145.834354 206.615024 
L 143.64071 208.344838 
L 141.209149 210.562637 
L 138.74426 213.131565 
L 136.284723 216.02931 
L 133.867964 219.22876 
L 131.529588 222.698316 
L 129.302857 226.402277 
L 127.218197 230.30129 
L 125.302762 234.352847 
L 123.580052 238.511837 
L 122.069585 242.731137 
L 120.786644 246.962233 
L 119.742085 251.155866 
L 118.94222 255.262694 
L 118.388774 259.233953 
L 118.078913 263.022124 
L 118.005347 266.58157 
L 118.156499 269.869164 
L 118.516752 272.844878 
L 119.066746 275.472328 
L 119.727527 277.572017 
L 120.511841 279.321299 
L 121.326141 280.608857 
L 122.132294 281.502839 
L 122.980005 282.115905 
L 123.773626 282.425484 
L 124.576834 282.497046 
L 125.377642 282.330138 
L 126.164087 281.925817 
L 126.924333 281.286636 
L 127.716506 280.317137 
L 128.447986 279.075775 
L 129.159962 277.422681 
L 129.765254 275.472328 
L 130.282005 273.044509 
L 130.636425 270.314251 
L 130.812708 267.310355 
L 130.788412 263.805629 
L 130.529949 260.062705 
L 130.029093 256.126733 
L 129.282043 252.044883 
L 128.289543 247.865707 
L 127.056923 243.638479 
L 125.594074 239.412532 
L 123.915342 235.236594 
L 122.039358 231.15814 
L 119.988794 227.222764 
L 117.79005 223.473577 
L 115.472888 219.950655 
L 113.07 216.690519 
L 110.616533 213.725682 
L 108.149568 211.084247 
L 105.707567 208.789578 
L 103.329784 206.860034 
L 101.055672 205.308782 
L 99.070961 204.214018 
L 97.239792 203.454442 
L 95.711132 203.049331 
L 94.360157 202.924033 
L 93.295356 203.049013 
L 92.484117 203.355385 
L 91.83252 203.838338 
L 91.349567 204.489935 
L 91.043195 205.301174 
L 90.920202 206.262067 
L 91.003355 207.478877 
L 91.32083 208.847962 
L 91.938789 210.495601 
L 92.842285 212.28189 
L 94.142491 214.345996 
L 95.772401 216.513998 
L 97.723433 218.754394 
L 100.169262 221.211868 
L 102.952441 223.67769 
L 106.047542 226.11392 
L 109.424525 228.484241 
L 113.049108 230.754495 
L 116.883187 232.893191 
L 120.885319 234.871958 
L 125.011259 236.665952 
L 129.21453 238.254199 
L 133.447043 239.619878 
L 137.65973 240.750536 
L 141.803202 241.638229 
L 145.828412 242.279591 
L 149.687322 242.675838 
L 153.333549 242.832684 
L 156.723001 242.7602 
L 159.814478 242.472591 
L 162.570234 241.987919 
L 164.798956 241.380222 
L 166.685417 240.640867 
L 168.105587 239.860263 
L 169.204126 239.004285 
L 169.919999 238.169905 
L 170.32432 237.38346 
L 170.491228 236.582652 
L 170.496 236.421818 
L 170.496 236.421818 
" style="fill:none;stroke:#1f77b4;stroke-linecap:square;stroke-width:1.5;"/>
   </g>
   <g id="patch_18">
    <path d="M 78.336 282.501818 
L 78.336 190.341818 
" style="fill:none;stroke:#000000;stroke-linecap:square;stroke-linejoin:miter;stroke-width:1.5;"/>
   </g>
   <g id="patch_19">
    <path d="M 170.496 282.501818 
L 170.496 190.341818 
" style="fill:none;stroke:#000000;stroke-linecap:square;stroke-linejoin:miter;stroke-width:1.5;"/>
   </g>
   <g id="patch_20">
    <path d="M 78.336 282.501818 
L 170.496 282.501818 
" style="fill:none;stroke:#000000;stroke-linecap:square;stroke-linejoin:miter;stroke-width:1.5;"/>
   </g>
   <g id="patch_21">
    <path d="M 78.336 190.341818 
L 170.496 190.341818 
" style="fill:none;stroke:#000000;stroke-linecap:square;stroke-linejoin:miter;stroke-width:1.5;"/>
   </g>
  </g>
  <g id="axes_5">
   <g id="patch_22">
    <path d="M 188.928 282.501818 
L 281.088 282.501818 
L 281.088 190.341818 
L 188.928 190.341818 
z
" style="fill:#ffffff;"/>
   </g>
   <g id="matplotlib.axis_9">
    <g id="xtick_13">
     <g id="line2d_29">
      <g>
       <use style="stroke:#000000;stroke-width:1.5;" x="188.928" xlink:href="#m20e77ece90" y="282.501818"/>
      </g>
     </g>
     <g id="text_25">
      <!-- −1 -->
      <g transform="translate(178.608469 308.639631)scale(0.14 -0.14)">
       <use xlink:href="#DejaVuSans-8722"/>
       <use x="83.789062" xlink:href="#DejaVuSans-49"/>
      </g>
     </g>
    </g>
    <g id="xtick_14">
     <g id="line2d_30">
      <g>
       <use style="stroke:#000000;stroke-width:1.5;" x="235.008" xlink:href="#m20e77ece90" y="282.501818"/>
      </g>
     </g>
     <g id="text_26">
      <!-- 0 -->
      <g transform="translate(230.55425 308.639631)scale(0.14 -0.14)">
       <use xlink:href="#DejaVuSans-48"/>
      </g>
     </g>
    </g>
    <g id="xtick_15">
     <g id="line2d_31">
      <g>
       <use style="stroke:#000000;stroke-width:1.5;" x="281.088" xlink:href="#m20e77ece90" y="282.501818"/>
      </g>
     </g>
     <g id="text_27">
      <!-- 1 -->
      <g transform="translate(276.63425 308.639631)scale(0.14 -0.14)">
       <use xlink:href="#DejaVuSans-49"/>
      </g>
     </g>
    </g>
   </g>
   <g id="matplotlib.axis_10">
    <g id="ytick_13">
     <g id="line2d_32">
      <g>
       <use style="stroke:#000000;stroke-width:1.5;" x="188.928" xlink:href="#m93a6de808f" y="282.501818"/>
      </g>
     </g>
     <g id="text_28">
      <!-- −1 -->
      <g transform="translate(152.788938 287.820724)scale(0.14 -0.14)">
       <use xlink:href="#DejaVuSans-8722"/>
       <use x="83.789062" xlink:href="#DejaVuSans-49"/>
      </g>
     </g>
    </g>
    <g id="ytick_14">
     <g id="line2d_33">
      <g>
       <use style="stroke:#000000;stroke-width:1.5;" x="188.928" xlink:href="#m93a6de808f" y="236.421818"/>
      </g>
     </g>
     <g id="text_29">
      <!-- 0 -->
      <g transform="translate(164.5205 241.740724)scale(0.14 -0.14)">
       <use xlink:href="#DejaVuSans-48"/>
      </g>
     </g>
    </g>
    <g id="ytick_15">
     <g id="line2d_34">
      <g>
       <use style="stroke:#000000;stroke-width:1.5;" x="188.928" xlink:href="#m93a6de808f" y="190.341818"/>
      </g>
     </g>
     <g id="text_30">
      <!-- 1 -->
      <g transform="translate(164.5205 195.660724)scale(0.14 -0.14)">
       <use xlink:href="#DejaVuSans-49"/>
      </g>
     </g>
    </g>
   </g>
   <g id="line2d_35">
    <path clip-path="url(#pfa10b1c12b)" d="M 281.088 236.421818 
L 280.960821 235.860371 
L 280.580061 235.308061 
L 279.948042 234.773942 
L 278.923083 234.197176 
L 277.394062 233.606539 
L 275.246593 233.042889 
L 272.652849 232.597994 
L 269.322775 232.269274 
L 265.541468 232.130619 
L 261.36531 232.200061 
L 256.856364 232.490677 
L 252.081387 233.010219 
L 247.110752 233.760856 
L 242.017329 234.739027 
L 236.875321 235.935418 
L 231.297808 237.471697 
L 225.846055 239.222906 
L 220.611957 241.154996 
L 215.68251 243.227398 
L 211.138217 245.39388 
L 207.051643 247.603563 
L 203.761986 249.620651 
L 200.951479 251.584758 
L 198.653458 253.45153 
L 197.030294 255.026904 
L 195.864102 256.452763 
L 195.210867 257.582329 
L 194.946198 258.44598 
L 194.956973 259.081599 
L 195.190952 259.595894 
L 195.643847 259.980777 
L 196.310044 260.228959 
L 197.323693 260.337007 
L 198.594642 260.250052 
L 200.314259 259.911246 
L 202.557734 259.228247 
L 205.11736 258.218448 
L 208.251864 256.730831 
L 211.666639 254.855714 
L 215.303076 252.607626 
L 219.100397 250.008195 
L 222.996718 247.085934 
L 226.930097 243.875893 
L 230.839578 240.419191 
L 234.666198 236.762429 
L 238.680467 232.605561 
L 242.462075 228.343915 
L 245.950239 224.053867 
L 249.091938 219.814609 
L 251.842804 215.706597 
L 254.167829 211.809935 
L 255.90334 208.490441 
L 257.247848 205.471794 
L 258.196615 202.808007 
L 258.717563 200.736057 
L 258.920011 199.031648 
L 258.83905 197.836059 
L 258.566959 197.057666 
L 258.182076 196.60477 
L 257.667781 196.370792 
L 257.032162 196.360016 
L 256.284029 196.575357 
L 255.303396 197.10021 
L 254.057994 198.045854 
L 252.683744 199.36385 
L 251.03421 201.25551 
L 249.108835 203.836711 
L 247.110359 206.913219 
L 245.082834 210.447345 
L 243.069098 214.393833 
L 241.109937 218.700508 
L 239.243313 223.309038 
L 237.503654 228.155813 
L 235.921227 233.172911 
L 234.521599 238.289139 
L 233.227086 243.897313 
L 232.193453 249.439615 
L 231.431777 254.819892 
L 230.944983 259.944179 
L 230.727926 264.722488 
L 230.755002 268.726542 
L 230.982568 272.309356 
L 231.390486 275.41744 
L 231.954375 278.004277 
L 232.578823 279.870828 
L 233.212108 281.135635 
L 233.816617 281.918901 
L 234.446552 282.37464 
L 235.008 282.501818 
L 235.569448 282.37464 
L 236.121757 281.993879 
L 236.655877 281.36186 
L 237.232642 280.336901 
L 237.823279 278.80788 
L 238.386929 276.660411 
L 238.831824 274.066667 
L 239.160544 270.736593 
L 239.299199 266.955287 
L 239.229757 262.779128 
L 238.939141 258.270182 
L 238.419599 253.495205 
L 237.668963 248.52457 
L 236.690791 243.431147 
L 235.494401 238.289139 
L 233.958121 232.711626 
L 232.206912 227.259873 
L 230.274822 222.025775 
L 228.202421 217.096328 
L 226.035939 212.552036 
L 223.826255 208.465461 
L 221.809167 205.175805 
L 219.84506 202.365297 
L 217.978288 200.067277 
L 216.402914 198.444112 
L 214.977055 197.27792 
L 213.847489 196.624685 
L 212.983838 196.360016 
L 212.348219 196.370792 
L 211.833924 196.60477 
L 211.449041 197.057666 
L 211.200859 197.723863 
L 211.092811 198.737511 
L 211.179766 200.00846 
L 211.518572 201.728078 
L 212.201571 203.971552 
L 213.211371 206.531178 
L 214.698987 209.665682 
L 216.574104 213.080458 
L 218.822193 216.716894 
L 221.421623 220.514215 
L 224.343884 224.410536 
L 227.553925 228.343915 
L 231.010627 232.253396 
L 234.667389 236.080016 
L 238.824258 240.094285 
L 243.085903 243.875893 
L 247.375952 247.364057 
L 251.615209 250.505756 
L 255.723221 253.256622 
L 259.619883 255.581647 
L 262.939378 257.317158 
L 265.958024 258.661667 
L 268.621812 259.610434 
L 270.693761 260.131381 
L 272.39817 260.333829 
L 273.593759 260.252869 
L 274.372153 259.980777 
L 274.825048 259.595894 
L 275.059027 259.081599 
L 275.069802 258.44598 
L 274.854461 257.697847 
L 274.329608 256.717214 
L 273.383965 255.471812 
L 272.065968 254.097562 
L 270.174308 252.448028 
L 267.593108 250.522653 
L 264.516599 248.524177 
L 260.982473 246.496652 
L 257.035985 244.482916 
L 252.729311 242.523755 
L 248.12078 240.657131 
L 243.274005 238.917472 
L 238.256908 237.335045 
L 233.140679 235.935418 
L 227.532505 234.640904 
L 221.990203 233.607271 
L 216.609927 232.845595 
L 211.485639 232.358801 
L 206.707331 232.141744 
L 202.703276 232.168821 
L 199.120462 232.396386 
L 196.012379 232.804304 
L 193.425541 233.368193 
L 191.55899 233.992641 
L 190.294183 234.625926 
L 189.510917 235.230435 
L 189.055179 235.860371 
L 188.928 236.421818 
L 189.055179 236.983266 
L 189.435939 237.535575 
L 190.067958 238.069695 
L 191.092917 238.64646 
L 192.621938 239.237097 
L 194.769407 239.800747 
L 197.363151 240.245642 
L 200.693225 240.574362 
L 204.474532 240.713017 
L 208.65069 240.643575 
L 213.159636 240.352959 
L 217.934613 239.833418 
L 222.905248 239.082781 
L 227.998671 238.104609 
L 233.140679 236.908219 
L 238.718192 235.37194 
L 244.169945 233.62073 
L 249.404043 231.68864 
L 254.33349 229.616239 
L 258.877783 227.449757 
L 262.964357 225.240073 
L 266.254014 223.222985 
L 269.064521 221.258878 
L 271.362542 219.392107 
L 272.985706 217.816732 
L 274.151898 216.390873 
L 274.805133 215.261307 
L 275.069802 214.397656 
L 275.059027 213.762038 
L 274.825048 213.247743 
L 274.372153 212.862859 
L 273.705956 212.614677 
L 272.692307 212.506629 
L 271.421358 212.593584 
L 269.701741 212.93239 
L 267.458266 213.615389 
L 264.89864 214.625189 
L 261.764136 216.112805 
L 258.349361 217.987922 
L 254.712924 220.236011 
L 250.915603 222.835441 
L 247.019282 225.757703 
L 243.085903 228.967744 
L 239.176422 232.424445 
L 235.349802 236.081207 
L 231.335533 240.238076 
L 227.553925 244.499721 
L 224.065761 248.78977 
L 220.924062 253.029027 
L 218.173196 257.137039 
L 215.848171 261.033702 
L 214.11266 264.353196 
L 212.768152 267.371842 
L 211.819385 270.03563 
L 211.298437 272.10758 
L 211.095989 273.811988 
L 211.17695 275.007577 
L 211.449041 275.785971 
L 211.833924 276.238867 
L 212.348219 276.472845 
L 212.983838 276.48362 
L 213.731971 276.268279 
L 214.712604 275.743427 
L 215.958006 274.797783 
L 217.332256 273.479786 
L 218.98179 271.588127 
L 220.907165 269.006926 
L 222.905641 265.930418 
L 224.933166 262.396291 
L 226.946902 258.449803 
L 228.906063 254.143129 
L 230.772687 249.534598 
L 232.512346 244.687823 
L 234.094773 239.670726 
L 235.494401 234.554497 
L 236.788914 228.946324 
L 237.822547 223.404021 
L 238.584223 218.023745 
L 239.071017 212.899457 
L 239.288074 208.121149 
L 239.260998 204.117094 
L 239.033432 200.53428 
L 238.625514 197.426197 
L 238.061625 194.839359 
L 237.437177 192.972808 
L 236.803892 191.708001 
L 236.199383 190.924736 
L 235.569448 190.468997 
L 235.008 190.341818 
L 234.446552 190.468997 
L 233.894243 190.849757 
L 233.360123 191.481776 
L 232.783358 192.506735 
L 232.192721 194.035757 
L 231.629071 196.183225 
L 231.184176 198.776969 
L 230.855456 202.107043 
L 230.716801 205.88835 
L 230.786243 210.064508 
L 231.076859 214.573454 
L 231.596401 219.348431 
L 232.347037 224.319066 
L 233.325209 229.412489 
L 234.521599 234.554497 
L 236.057879 240.132011 
L 237.809088 245.583764 
L 239.741178 250.817861 
L 241.813579 255.747308 
L 243.980061 260.291601 
L 246.189745 264.378175 
L 248.206833 267.667832 
L 250.17094 270.478339 
L 252.037712 272.77636 
L 253.613086 274.399524 
L 255.038945 275.565716 
L 256.168511 276.218952 
L 257.032162 276.48362 
L 257.667781 276.472845 
L 258.182076 276.238867 
L 258.566959 275.785971 
L 258.815141 275.119774 
L 258.923189 274.106126 
L 258.836234 272.835176 
L 258.497428 271.115559 
L 257.814429 268.872084 
L 256.804629 266.312458 
L 255.317013 263.177955 
L 253.441896 259.763179 
L 251.193807 256.126743 
L 248.594377 252.329421 
L 245.672116 248.433101 
L 242.462075 244.499721 
L 239.005373 240.59024 
L 235.348611 236.76362 
L 231.191742 232.749351 
L 226.930097 228.967744 
L 222.640048 225.479579 
L 218.400791 222.337881 
L 214.292779 219.587015 
L 210.396117 217.26199 
L 207.076622 215.526478 
L 204.057976 214.18197 
L 201.394188 213.233203 
L 199.322239 212.712255 
L 197.61783 212.509807 
L 196.422241 212.590768 
L 195.643847 212.862859 
L 195.190952 213.247743 
L 194.956973 213.762038 
L 194.946198 214.397656 
L 195.161539 215.14579 
L 195.686392 216.126423 
L 196.632035 217.371824 
L 197.950032 218.746074 
L 199.841692 220.395608 
L 202.422892 222.320983 
L 205.499401 224.31946 
L 209.033527 226.346984 
L 212.980015 228.36072 
L 217.286689 230.319882 
L 221.89522 232.186506 
L 226.741995 233.926164 
L 231.759092 235.508591 
L 236.875321 236.908219 
L 242.483495 238.202732 
L 248.025797 239.236365 
L 253.406073 239.998041 
L 258.530361 240.484835 
L 263.308669 240.701892 
L 267.312724 240.674816 
L 270.895538 240.447251 
L 274.003621 240.039333 
L 276.590459 239.475443 
L 278.45701 238.850995 
L 279.721817 238.217711 
L 280.505083 237.613201 
L 280.960821 236.983266 
L 281.088 236.421818 
L 281.088 236.421818 
" style="fill:none;stroke:#1f77b4;stroke-linecap:square;stroke-width:1.5;"/>
   </g>
   <g id="patch_23">
    <path d="M 188.928 282.501818 
L 188.928 190.341818 
" style="fill:none;stroke:#000000;stroke-linecap:square;stroke-linejoin:miter;stroke-width:1.5;"/>
   </g>
   <g id="patch_24">
    <path d="M 281.088 282.501818 
L 281.088 190.341818 
" style="fill:none;stroke:#000000;stroke-linecap:square;stroke-linejoin:miter;stroke-width:1.5;"/>
   </g>
   <g id="patch_25">
    <path d="M 188.928 282.501818 
L 281.088 282.501818 
" style="fill:none;stroke:#000000;stroke-linecap:square;stroke-linejoin:miter;stroke-width:1.5;"/>
   </g>
   <g id="patch_26">
    <path d="M 188.928 190.341818 
L 281.088 190.341818 
" style="fill:none;stroke:#000000;stroke-linecap:square;stroke-linejoin:miter;stroke-width:1.5;"/>
   </g>
  </g>
  <g id="axes_6">
   <g id="patch_27">
    <path d="M 299.52 282.501818 
L 391.68 282.501818 
L 391.68 190.341818 
L 299.52 190.341818 
z
" style="fill:#ffffff;"/>
   </g>
   <g id="matplotlib.axis_11">
    <g id="xtick_16">
     <g id="line2d_36">
      <g>
       <use style="stroke:#000000;stroke-width:1.5;" x="299.52" xlink:href="#m20e77ece90" y="282.501818"/>
      </g>
     </g>
     <g id="text_31">
      <!-- −1 -->
      <g transform="translate(289.200469 308.639631)scale(0.14 -0.14)">
       <use xlink:href="#DejaVuSans-8722"/>
       <use x="83.789062" xlink:href="#DejaVuSans-49"/>
      </g>
     </g>
    </g>
    <g id="xtick_17">
     <g id="line2d_37">
      <g>
       <use style="stroke:#000000;stroke-width:1.5;" x="345.6" xlink:href="#m20e77ece90" y="282.501818"/>
      </g>
     </g>
     <g id="text_32">
      <!-- 0 -->
      <g transform="translate(341.14625 308.639631)scale(0.14 -0.14)">
       <use xlink:href="#DejaVuSans-48"/>
      </g>
     </g>
    </g>
    <g id="xtick_18">
     <g id="line2d_38">
      <g>
       <use style="stroke:#000000;stroke-width:1.5;" x="391.68" xlink:href="#m20e77ece90" y="282.501818"/>
      </g>
     </g>
     <g id="text_33">
      <!-- 1 -->
      <g transform="translate(387.22625 308.639631)scale(0.14 -0.14)">
       <use xlink:href="#DejaVuSans-49"/>
      </g>
     </g>
    </g>
   </g>
   <g id="matplotlib.axis_12">
    <g id="ytick_16">
     <g id="line2d_39">
      <g>
       <use style="stroke:#000000;stroke-width:1.5;" x="299.52" xlink:href="#m93a6de808f" y="282.501818"/>
      </g>
     </g>
     <g id="text_34">
      <!-- −1 -->
      <g transform="translate(263.380937 287.820724)scale(0.14 -0.14)">
       <use xlink:href="#DejaVuSans-8722"/>
       <use x="83.789062" xlink:href="#DejaVuSans-49"/>
      </g>
     </g>
    </g>
    <g id="ytick_17">
     <g id="line2d_40">
      <g>
       <use style="stroke:#000000;stroke-width:1.5;" x="299.52" xlink:href="#m93a6de808f" y="236.421818"/>
      </g>
     </g>
     <g id="text_35">
      <!-- 0 -->
      <g transform="translate(275.1125 241.740724)scale(0.14 -0.14)">
       <use xlink:href="#DejaVuSans-48"/>
      </g>
     </g>
    </g>
    <g id="ytick_18">
     <g id="line2d_41">
      <g>
       <use style="stroke:#000000;stroke-width:1.5;" x="299.52" xlink:href="#m93a6de808f" y="190.341818"/>
      </g>
     </g>
     <g id="text_36">
      <!-- 1 -->
      <g transform="translate(275.1125 195.660724)scale(0.14 -0.14)">
       <use xlink:href="#DejaVuSans-49"/>
      </g>
     </g>
    </g>
   </g>
   <g id="line2d_42">
    <path clip-path="url(#p14e8f6ac88)" d="M 391.68 236.421818 
L 391.566001 236.020679 
L 391.224603 235.625438 
L 390.517363 235.167163 
L 389.288982 234.667087 
L 387.369175 234.159681 
L 384.923911 233.740983 
L 381.585943 233.399994 
L 377.681076 233.219701 
L 372.757995 233.231487 
L 367.319144 233.485275 
L 361.477386 233.992237 
L 355.35354 234.754615 
L 349.073745 235.765447 
L 342.766729 237.00856 
L 336.561018 238.458841 
L 330.582174 240.082769 
L 324.950109 241.839216 
L 319.776539 243.680466 
L 315.162634 245.553466 
L 311.196922 247.401241 
L 307.953478 249.164463 
L 305.700328 250.629452 
L 304.253415 251.798475 
L 303.344313 252.811719 
L 303.019567 253.452776 
L 302.982958 253.900341 
L 303.157808 254.262873 
L 303.541745 254.534964 
L 304.273515 254.735196 
L 305.490611 254.78533 
L 307.340357 254.588832 
L 309.650153 254.111336 
L 312.753194 253.230378 
L 316.332779 251.983476 
L 320.787318 250.175712 
L 325.646775 247.941818 
L 330.803688 245.312339 
L 336.146163 242.329231 
L 341.560399 239.045166 
L 346.933232 235.522542 
L 352.154615 231.832227 
L 357.12 228.052048 
L 361.732551 224.265069 
L 365.905153 220.557694 
L 369.56216 217.017644 
L 372.640854 213.731848 
L 375.092583 210.784307 
L 376.734839 208.486124 
L 377.827636 206.5787 
L 378.334316 205.24935 
L 378.421725 204.392438 
L 378.284271 203.964933 
L 377.983997 203.696909 
L 377.52516 203.592456 
L 376.772468 203.687502 
L 375.628832 204.106946 
L 373.995086 204.996354 
L 372.043842 206.321424 
L 369.514135 208.322805 
L 366.684198 210.844641 
L 363.260542 214.219475 
L 359.625863 218.142957 
L 355.867755 222.545744 
L 352.073538 227.346253 
L 348.328193 232.452273 
L 344.712392 237.762847 
L 341.300685 243.17039 
L 338.15988 248.56299 
L 335.347653 253.82685 
L 332.911422 258.848803 
L 330.887507 263.518859 
L 329.300584 267.732704 
L 328.163457 271.394114 
L 327.525686 274.145821 
L 327.246014 276.326246 
L 327.286622 277.748304 
L 327.533793 278.573437 
L 327.824383 278.915799 
L 328.204369 279.048511 
L 328.668251 278.969424 
L 329.327275 278.59357 
L 330.223343 277.768403 
L 331.392366 276.32149 
L 332.687997 274.350576 
L 334.259247 271.533465 
L 335.908703 268.120622 
L 337.780256 263.692506 
L 339.636809 258.676749 
L 341.423975 253.170939 
L 343.092299 247.283863 
L 344.598558 241.133234 
L 345.906853 234.843196 
L 346.989482 228.541674 
L 347.827549 222.357627 
L 348.411316 216.418262 
L 348.740282 210.846277 
L 348.822982 205.757189 
L 348.676539 201.256815 
L 348.325947 197.438954 
L 347.862138 194.652644 
L 347.286109 192.531167 
L 346.704393 191.232898 
L 346.160273 190.565162 
L 345.760787 190.360065 
L 345.358938 190.382869 
L 344.960632 190.633456 
L 344.495607 191.232898 
L 343.983526 192.338162 
L 343.457199 194.122302 
L 343.014427 196.439005 
L 342.640844 199.642969 
L 342.422984 203.427243 
L 342.388461 208.234502 
L 342.592677 213.578929 
L 343.048533 219.349553 
L 343.760089 225.426942 
L 344.722231 231.685802 
L 345.920617 237.997703 
L 347.331887 244.233854 
L 348.924146 250.267883 
L 350.657712 255.978538 
L 352.486094 261.252271 
L 354.357198 265.985623 
L 356.214713 270.087386 
L 357.999649 273.480463 
L 359.494428 275.877186 
L 360.838464 277.616738 
L 361.872725 278.59357 
L 362.630958 279.002251 
L 363.078523 279.03886 
L 363.441055 278.864011 
L 363.713146 278.480073 
L 363.913378 277.748304 
L 363.963512 276.531207 
L 363.767014 274.681461 
L 363.289518 272.371665 
L 362.40856 269.268625 
L 361.161657 265.689039 
L 359.353894 261.2345 
L 357.12 256.375043 
L 354.490521 251.21813 
L 351.507413 245.875656 
L 348.223347 240.461419 
L 344.700723 235.088586 
L 341.010409 229.867203 
L 337.23023 224.901818 
L 333.443251 220.289267 
L 329.735876 216.116665 
L 326.195826 212.459658 
L 322.910029 209.380964 
L 319.962488 206.929235 
L 317.664306 205.286979 
L 315.756882 204.194182 
L 314.427532 203.687502 
L 313.57062 203.600093 
L 313.143115 203.737547 
L 312.875091 204.037821 
L 312.770637 204.496658 
L 312.865684 205.24935 
L 313.285128 206.392986 
L 314.174536 208.026732 
L 315.499606 209.977976 
L 317.500987 212.507683 
L 320.022823 215.33762 
L 323.397656 218.761277 
L 327.321139 222.395955 
L 331.723926 226.154063 
L 336.524435 229.94828 
L 341.630455 233.693625 
L 346.941029 237.309426 
L 352.348572 240.721133 
L 357.741172 243.861938 
L 363.005032 246.674165 
L 368.026985 249.110396 
L 372.697041 251.134311 
L 376.910886 252.721234 
L 380.572295 253.858361 
L 383.324003 254.496132 
L 385.504428 254.775805 
L 386.926485 254.735196 
L 387.751619 254.488025 
L 388.093981 254.197435 
L 388.226693 253.817449 
L 388.147606 253.353567 
L 387.771752 252.694543 
L 386.946585 251.798475 
L 385.499672 250.629452 
L 383.528758 249.333821 
L 380.711646 247.762571 
L 377.298804 246.113115 
L 372.870687 244.241562 
L 367.854931 242.385009 
L 362.34912 240.597843 
L 356.462045 238.929519 
L 350.311416 237.423261 
L 344.021378 236.114965 
L 337.719856 235.032336 
L 331.535809 234.194269 
L 325.596444 233.610502 
L 320.024459 233.281537 
L 314.935371 233.198836 
L 310.434997 233.345279 
L 306.617136 233.695871 
L 303.830825 234.159681 
L 301.709349 234.735709 
L 300.41108 235.317425 
L 299.743344 235.861546 
L 299.538247 236.261032 
L 299.561051 236.66288 
L 299.811638 237.061186 
L 300.41108 237.526212 
L 301.516344 238.038292 
L 303.300484 238.564619 
L 305.617187 239.007391 
L 308.82115 239.380974 
L 312.605425 239.598834 
L 317.412684 239.633357 
L 322.75711 239.429142 
L 328.527735 238.973285 
L 334.605124 238.261729 
L 340.863984 237.299587 
L 347.175884 236.101201 
L 353.412036 234.689932 
L 359.446064 233.097672 
L 365.15672 231.364106 
L 370.430453 229.535724 
L 375.163805 227.66462 
L 379.265567 225.807106 
L 382.658645 224.022169 
L 385.055368 222.52739 
L 386.79492 221.183355 
L 387.771752 220.149094 
L 388.180433 219.39086 
L 388.217042 218.943296 
L 388.042192 218.580763 
L 387.658255 218.308672 
L 386.926485 218.108441 
L 385.709389 218.058306 
L 383.859643 218.254804 
L 381.549847 218.732301 
L 378.446806 219.613258 
L 374.867221 220.860161 
L 370.412682 222.667924 
L 365.553225 224.901818 
L 360.396312 227.531297 
L 355.053837 230.514405 
L 349.639601 233.798471 
L 344.266768 237.321095 
L 339.045385 241.011409 
L 334.08 244.791588 
L 329.467449 248.578567 
L 325.294847 252.285942 
L 321.63784 255.825993 
L 318.559146 259.111789 
L 316.107417 262.05933 
L 314.465161 264.357512 
L 313.372364 266.264936 
L 312.865684 267.594286 
L 312.778275 268.451198 
L 312.915729 268.878703 
L 313.216003 269.146727 
L 313.67484 269.251181 
L 314.427532 269.156134 
L 315.571168 268.73669 
L 317.204914 267.847282 
L 319.156158 266.522212 
L 321.685865 264.520831 
L 324.515802 261.998996 
L 327.939458 258.624162 
L 331.574137 254.700679 
L 335.332245 250.297892 
L 339.126462 245.497383 
L 342.871807 240.391363 
L 346.487608 235.080789 
L 349.899315 229.673246 
L 353.04012 224.280646 
L 355.852347 219.016786 
L 358.288578 213.994833 
L 360.312493 209.324777 
L 361.899416 205.110932 
L 363.036543 201.449523 
L 363.674314 198.697815 
L 363.953986 196.51739 
L 363.913378 195.095333 
L 363.666207 194.270199 
L 363.375617 193.927837 
L 362.995631 193.795125 
L 362.531749 193.874212 
L 361.872725 194.250067 
L 360.976657 195.075233 
L 359.807634 196.522146 
L 358.512003 198.49306 
L 356.940753 201.310172 
L 355.291297 204.723014 
L 353.419744 209.151131 
L 351.563191 214.166887 
L 349.776025 219.672698 
L 348.107701 225.559774 
L 346.601442 231.710402 
L 345.293147 238.00044 
L 344.210518 244.301962 
L 343.372451 250.486009 
L 342.788684 256.425374 
L 342.459718 261.997359 
L 342.377018 267.086447 
L 342.523461 271.586822 
L 342.874053 275.404682 
L 343.337862 278.190993 
L 343.913891 280.312469 
L 344.495607 281.610738 
L 345.039727 282.278474 
L 345.439213 282.483572 
L 345.841062 282.460767 
L 346.239368 282.21018 
L 346.704393 281.610738 
L 347.216474 280.505474 
L 347.742801 278.721335 
L 348.185573 276.404631 
L 348.559156 273.200668 
L 348.777016 269.416393 
L 348.811539 264.609135 
L 348.607323 259.264708 
L 348.151467 253.494083 
L 347.439911 247.416694 
L 346.477769 241.157834 
L 345.279383 234.845934 
L 343.868113 228.609783 
L 342.275854 222.575754 
L 340.542288 216.865098 
L 338.713906 211.591365 
L 336.842802 206.858013 
L 334.985287 202.756251 
L 333.200351 199.363173 
L 331.705572 196.96645 
L 330.361536 195.226898 
L 329.327275 194.250067 
L 328.569042 193.841385 
L 328.121477 193.804777 
L 327.758945 193.979626 
L 327.486854 194.363563 
L 327.286622 195.095333 
L 327.236488 196.312429 
L 327.432986 198.162175 
L 327.910482 200.471972 
L 328.79144 203.575012 
L 330.038343 207.154597 
L 331.846106 211.609136 
L 334.08 216.468593 
L 336.709479 221.625506 
L 339.692587 226.967981 
L 342.976653 232.382217 
L 346.499277 237.755051 
L 350.189591 242.976434 
L 353.96977 247.941818 
L 357.756749 252.554369 
L 361.464124 256.726971 
L 365.004174 260.383978 
L 368.289971 263.462672 
L 371.237512 265.914402 
L 373.535694 267.556658 
L 375.443118 268.649454 
L 376.772468 269.156134 
L 377.62938 269.243543 
L 378.056885 269.10609 
L 378.324909 268.805815 
L 378.429363 268.346978 
L 378.334316 267.594286 
L 377.914872 266.45065 
L 377.025464 264.816904 
L 375.700394 262.86566 
L 373.699013 260.335953 
L 371.177177 257.506016 
L 367.802344 254.08236 
L 363.878861 250.447682 
L 359.476074 246.689573 
L 354.675565 242.895356 
L 349.569545 239.150011 
L 344.258971 235.53421 
L 338.851428 232.122504 
L 333.458828 228.981698 
L 328.194968 226.169471 
L 323.173015 223.73324 
L 318.502959 221.709325 
L 314.289114 220.122402 
L 310.627705 218.985275 
L 307.875997 218.347504 
L 305.695572 218.067832 
L 304.273515 218.108441 
L 303.448381 218.355611 
L 303.106019 218.646201 
L 302.973307 219.026187 
L 303.052394 219.490069 
L 303.428248 220.149094 
L 304.253415 221.045161 
L 305.700328 222.214184 
L 307.671242 223.509816 
L 310.488354 225.081065 
L 313.901196 226.730521 
L 318.329313 228.602074 
L 323.345069 230.458627 
L 328.85088 232.245793 
L 334.737955 233.914118 
L 340.888584 235.420376 
L 347.178622 236.728671 
L 353.480144 237.8113 
L 359.664191 238.649367 
L 365.603556 239.233135 
L 371.175541 239.5621 
L 376.264629 239.644801 
L 380.765003 239.498357 
L 384.582864 239.147766 
L 387.369175 238.683956 
L 389.490651 238.107927 
L 390.78892 237.526212 
L 391.456656 236.982091 
L 391.661753 236.582605 
L 391.68 236.421818 
L 391.68 236.421818 
" style="fill:none;stroke:#1f77b4;stroke-linecap:square;stroke-width:1.5;"/>
   </g>
   <g id="patch_28">
    <path d="M 299.52 282.501818 
L 299.52 190.341818 
" style="fill:none;stroke:#000000;stroke-linecap:square;stroke-linejoin:miter;stroke-width:1.5;"/>
   </g>
   <g id="patch_29">
    <path d="M 391.68 282.501818 
L 391.68 190.341818 
" style="fill:none;stroke:#000000;stroke-linecap:square;stroke-linejoin:miter;stroke-width:1.5;"/>
   </g>
   <g id="patch_30">
    <path d="M 299.52 282.501818 
L 391.68 282.501818 
" style="fill:none;stroke:#000000;stroke-linecap:square;stroke-linejoin:miter;stroke-width:1.5;"/>
   </g>
   <g id="patch_31">
    <path d="M 299.52 190.341818 
L 391.68 190.341818 
" style="fill:none;stroke:#000000;stroke-linecap:square;stroke-linejoin:miter;stroke-width:1.5;"/>
   </g>
  </g>
 </g>
 <defs>
  <clipPath id="p068ad515d4">
   <rect height="92.16" width="92.16" x="78.336" y="52.730182"/>
  </clipPath>
  <clipPath id="pbb446bff5f">
   <rect height="92.16" width="92.16" x="188.928" y="52.730182"/>
  </clipPath>
  <clipPath id="p68f0e613cc">
   <rect height="92.16" width="92.16" x="299.52" y="52.730182"/>
  </clipPath>
  <clipPath id="p998bc0ce26">
   <rect height="92.16" width="92.16" x="78.336" y="190.341818"/>
  </clipPath>
  <clipPath id="pfa10b1c12b">
   <rect height="92.16" width="92.16" x="188.928" y="190.341818"/>
  </clipPath>
  <clipPath id="p14e8f6ac88">
   <rect height="92.16" width="92.16" x="299.52" y="190.341818"/>
  </clipPath>
 </defs>
</svg>
