<?xml version="1.0" encoding="utf-8" standalone="no"?>
<!DOCTYPE svg PUBLIC "-//W3C//DTD SVG 1.1//EN"
  "http://www.w3.org/Graphics/SVG/1.1/DTD/svg11.dtd">
<!-- Created with matplotlib (https://matplotlib.org/) -->
<svg height="345.6pt" version="1.1" viewBox="0 0 460.8 345.6" width="460.8pt" xmlns="http://www.w3.org/2000/svg" xmlns:xlink="http://www.w3.org/1999/xlink">
 <defs>
  <style type="text/css">
*{stroke-linecap:butt;stroke-linejoin:round;}
  </style>
 </defs>
 <g id="figure_1">
  <g id="patch_1">
   <path d="M 0 345.6 
L 460.8 345.6 
L 460.8 0 
L 0 0 
z
" style="fill:#ffffff;"/>
  </g>
  <g id="axes_1">
   <g id="patch_2">
    <path d="M 78.336 144.890182 
L 170.496 144.890182 
L 170.496 52.730182 
L 78.336 52.730182 
z
" style="fill:#ffffff;"/>
   </g>
   <g id="matplotlib.axis_1">
    <g id="xtick_1">
     <g id="line2d_1">
      <defs>
       <path d="M 0 0 
L 0 12 
" id="m23e0d6e2d2" style="stroke:#000000;stroke-width:1.5;"/>
      </defs>
      <g>
       <use style="stroke:#000000;stroke-width:1.5;" x="82.525091" xlink:href="#m23e0d6e2d2" y="144.890182"/>
      </g>
     </g>
     <g id="text_1">
      <!-- −1 -->
      <defs>
       <path d="M 10.59375 35.5 
L 73.1875 35.5 
L 73.1875 27.203125 
L 10.59375 27.203125 
z
" id="DejaVuSans-8722"/>
       <path d="M 12.40625 8.296875 
L 28.515625 8.296875 
L 28.515625 63.921875 
L 10.984375 60.40625 
L 10.984375 69.390625 
L 28.421875 72.90625 
L 38.28125 72.90625 
L 38.28125 8.296875 
L 54.390625 8.296875 
L 54.390625 0 
L 12.40625 0 
z
" id="DejaVuSans-49"/>
      </defs>
      <g transform="translate(72.20556 171.027994)scale(0.14 -0.14)">
       <use xlink:href="#DejaVuSans-8722"/>
       <use x="83.789062" xlink:href="#DejaVuSans-49"/>
      </g>
     </g>
    </g>
    <g id="xtick_2">
     <g id="line2d_2">
      <g>
       <use style="stroke:#000000;stroke-width:1.5;" x="124.416" xlink:href="#m23e0d6e2d2" y="144.890182"/>
      </g>
     </g>
     <g id="text_2">
      <!-- 0 -->
      <defs>
       <path d="M 31.78125 66.40625 
Q 24.171875 66.40625 20.328125 58.90625 
Q 16.5 51.421875 16.5 36.375 
Q 16.5 21.390625 20.328125 13.890625 
Q 24.171875 6.390625 31.78125 6.390625 
Q 39.453125 6.390625 43.28125 13.890625 
Q 47.125 21.390625 47.125 36.375 
Q 47.125 51.421875 43.28125 58.90625 
Q 39.453125 66.40625 31.78125 66.40625 
z
M 31.78125 74.21875 
Q 44.046875 74.21875 50.515625 64.515625 
Q 56.984375 54.828125 56.984375 36.375 
Q 56.984375 17.96875 50.515625 8.265625 
Q 44.046875 -1.421875 31.78125 -1.421875 
Q 19.53125 -1.421875 13.0625 8.265625 
Q 6.59375 17.96875 6.59375 36.375 
Q 6.59375 54.828125 13.0625 64.515625 
Q 19.53125 74.21875 31.78125 74.21875 
z
" id="DejaVuSans-48"/>
      </defs>
      <g transform="translate(119.96225 171.027994)scale(0.14 -0.14)">
       <use xlink:href="#DejaVuSans-48"/>
      </g>
     </g>
    </g>
    <g id="xtick_3">
     <g id="line2d_3">
      <g>
       <use style="stroke:#000000;stroke-width:1.5;" x="166.306909" xlink:href="#m23e0d6e2d2" y="144.890182"/>
      </g>
     </g>
     <g id="text_3">
      <!-- 1 -->
      <g transform="translate(161.853159 171.027994)scale(0.14 -0.14)">
       <use xlink:href="#DejaVuSans-49"/>
      </g>
     </g>
    </g>
   </g>
   <g id="matplotlib.axis_2">
    <g id="ytick_1">
     <g id="line2d_4">
      <defs>
       <path d="M 0 0 
L -12 0 
" id="m6ea96e80a3" style="stroke:#000000;stroke-width:1.5;"/>
      </defs>
      <g>
       <use style="stroke:#000000;stroke-width:1.5;" x="78.336" xlink:href="#m6ea96e80a3" y="140.701091"/>
      </g>
     </g>
     <g id="text_4">
      <!-- −1 -->
      <g transform="translate(42.196938 146.019997)scale(0.14 -0.14)">
       <use xlink:href="#DejaVuSans-8722"/>
       <use x="83.789062" xlink:href="#DejaVuSans-49"/>
      </g>
     </g>
    </g>
    <g id="ytick_2">
     <g id="line2d_5">
      <g>
       <use style="stroke:#000000;stroke-width:1.5;" x="78.336" xlink:href="#m6ea96e80a3" y="98.810182"/>
      </g>
     </g>
     <g id="text_5">
      <!-- 0 -->
      <g transform="translate(53.9285 104.129088)scale(0.14 -0.14)">
       <use xlink:href="#DejaVuSans-48"/>
      </g>
     </g>
    </g>
    <g id="ytick_3">
     <g id="line2d_6">
      <g>
       <use style="stroke:#000000;stroke-width:1.5;" x="78.336" xlink:href="#m6ea96e80a3" y="56.919273"/>
      </g>
     </g>
     <g id="text_6">
      <!-- 1 -->
      <g transform="translate(53.9285 62.238179)scale(0.14 -0.14)">
       <use xlink:href="#DejaVuSans-49"/>
      </g>
     </g>
    </g>
   </g>
   <g id="line2d_7">
    <path clip-path="url(#pdf13bd640e)" d="M 166.306909 98.810182 
L 166.199144 97.86199 
L 165.876603 96.927467 
L 165.291678 95.951876 
L 164.465044 95.024433 
L 163.403395 94.161216 
L 162.014911 93.325094 
L 160.379386 92.598226 
L 158.379609 91.961917 
L 156.136959 91.486821 
L 153.674873 91.188816 
L 150.847163 91.081169 
L 147.83373 91.2013 
L 144.669583 91.558349 
L 141.39122 92.157666 
L 138.036149 93.000696 
L 134.642382 94.08493 
L 131.24794 95.403902 
L 127.890347 96.947253 
L 124.606145 98.700844 
L 121.430407 100.646931 
L 118.396293 102.76439 
L 115.534618 105.028992 
L 112.873464 107.413723 
L 110.437823 109.889149 
L 108.249294 112.423813 
L 106.325821 114.984669 
L 104.681487 117.537535 
L 103.326361 120.04757 
L 102.266403 122.479757 
L 101.503424 124.799398 
L 101.054596 126.84941 
L 100.861611 128.742471 
L 100.905718 130.351644 
L 101.15825 131.780144 
L 101.572026 132.934103 
L 102.146724 133.900946 
L 102.870155 134.668489 
L 103.663346 135.193457 
L 104.561547 135.530225 
L 105.552383 135.672922 
L 106.708124 135.60443 
L 107.939361 135.301893 
L 109.322585 134.715998 
L 110.750782 133.859653 
L 112.202037 132.73577 
L 113.750873 131.24835 
L 115.275084 129.472776 
L 116.749432 127.422205 
L 118.234355 124.960382 
L 119.608687 122.229583 
L 120.847575 119.256337 
L 121.928782 116.070277 
L 122.833026 112.703767 
L 123.544257 109.19149 
L 124.049901 105.570006 
L 124.341042 101.877281 
L 124.412555 98.152197 
L 124.263182 94.434057 
L 123.895552 90.762072 
L 123.316138 87.174859 
L 122.535166 83.709942 
L 121.56646 80.40327 
L 120.42724 77.288758 
L 119.137867 74.397849 
L 117.72154 71.759124 
L 116.203953 69.397934 
L 114.612911 67.336088 
L 112.977921 65.591587 
L 111.426498 64.252172 
L 109.889693 63.214554 
L 108.485855 62.520298 
L 107.140078 62.096979 
L 105.955408 61.945232 
L 104.857145 62.025326 
L 103.929093 62.302942 
L 103.102315 62.770708 
L 102.388691 63.421831 
L 101.799301 64.248242 
L 101.315152 65.323597 
L 100.99827 66.578442 
L 100.855622 68.105699 
L 100.92657 69.803152 
L 101.24663 71.778014 
L 101.82553 73.896365 
L 102.6669 76.13043 
L 103.771156 78.4516 
L 105.229249 80.980752 
L 106.973461 83.540393 
L 108.992294 86.09586 
L 111.270281 88.613317 
L 113.788162 91.060229 
L 116.523108 93.405806 
L 119.448999 95.621424 
L 122.536746 97.681012 
L 125.75466 99.561403 
L 129.068855 101.242636 
L 132.443686 102.708217 
L 135.842211 103.945325 
L 139.226673 104.944963 
L 142.558996 105.702059 
L 145.801288 106.215502 
L 148.916343 106.488124 
L 151.868133 106.526628 
L 154.622288 106.341455 
L 157.146555 105.946597 
L 159.285693 105.398879 
L 161.172463 104.697613 
L 162.787051 103.861827 
L 164.038371 102.974661 
L 165.023892 102.006092 
L 165.695789 101.045815 
L 166.122701 100.048008 
L 166.296701 99.102569 
L 166.255243 98.152918 
L 165.998616 97.212739 
L 165.528615 96.295627 
L 164.787638 95.349112 
L 163.809034 94.46115 
L 162.505871 93.592519 
L 160.951121 92.827326 
L 159.031666 92.144255 
L 156.862507 91.616964 
L 154.466339 91.262058 
L 151.868133 91.093735 
L 148.916343 91.13224 
L 145.801288 91.404862 
L 142.558996 91.918304 
L 139.226673 92.6754 
L 135.842211 93.675039 
L 132.443686 94.912147 
L 129.068855 96.377728 
L 125.75466 98.058961 
L 122.536746 99.939352 
L 119.448999 101.99894 
L 116.523108 104.214558 
L 113.788162 106.560135 
L 111.270281 109.007047 
L 108.992294 111.524504 
L 106.973461 114.07997 
L 105.229249 116.639611 
L 103.771156 119.168763 
L 102.6066 121.632415 
L 101.738858 123.9957 
L 101.192576 126.097612 
L 100.904459 128.052641 
L 100.867359 129.834371 
L 101.051571 131.325225 
L 101.436885 132.622923 
L 101.96679 133.644537 
L 102.649046 134.470177 
L 103.407547 135.051665 
L 104.274723 135.447028 
L 105.238413 135.649983 
L 106.36946 135.647752 
L 107.58088 135.412357 
L 108.855433 134.941414 
L 110.271072 134.175025 
L 111.717075 133.139836 
L 113.268296 131.744654 
L 114.802958 130.057865 
L 116.295537 128.091627 
L 117.807918 125.713471 
L 119.217466 123.059177 
L 120.498622 120.154295 
L 121.628346 117.027582 
L 122.586454 113.710641 
L 123.355918 110.237517 
L 123.923121 106.644266 
L 124.278055 102.968489 
L 124.414469 99.248852 
L 124.329964 95.524585 
L 124.026026 91.83498 
L 123.508005 88.218881 
L 122.785037 84.714183 
L 121.869907 81.357348 
L 120.77886 78.182936 
L 119.531362 75.223159 
L 118.149813 72.50748 
L 116.659208 70.062234 
L 115.086776 67.910302 
L 113.461566 66.070829 
L 111.910992 64.638642 
L 110.36677 63.506026 
L 108.855433 62.678949 
L 107.49205 62.183398 
L 106.285805 61.96476 
L 105.161145 61.979041 
L 104.134717 62.221779 
L 103.283487 62.646219 
L 102.542737 63.2557 
L 101.923739 64.04244 
L 101.405184 65.077588 
L 101.051571 66.295138 
L 100.867359 67.785993 
L 100.894877 69.451021 
L 101.14256 71.269785 
L 101.656286 73.354827 
L 102.431872 75.562619 
L 103.470545 77.864727 
L 104.860085 80.38162 
L 106.53786 82.937226 
L 108.493323 85.496757 
L 110.711928 88.026141 
L 113.175289 90.492494 
L 115.861394 92.864576 
L 118.74487 95.113218 
L 121.797294 97.211717 
L 124.987554 99.136191 
L 128.282244 100.8659 
L 131.646092 102.383516 
L 135.042416 103.675335 
L 138.433609 104.731452 
L 141.781623 105.545863 
L 145.04848 106.116526 
L 148.196767 106.445351 
L 151.190133 106.538138 
L 153.993778 106.404464 
L 156.574909 106.057505 
L 158.903186 105.513812 
L 160.838866 104.839948 
L 162.505871 104.027845 
L 163.809034 103.159213 
L 164.848528 102.205396 
L 165.572279 101.255315 
L 166.052047 100.264145 
L 166.275651 99.321619 
L 166.306909 98.810182 
L 166.306909 98.810182 
" style="fill:none;stroke:#1f77b4;stroke-linecap:square;stroke-width:1.5;"/>
   </g>
   <g id="patch_3">
    <path d="M 78.336 144.890182 
L 78.336 52.730182 
" style="fill:none;stroke:#000000;stroke-linecap:square;stroke-linejoin:miter;stroke-width:1.5;"/>
   </g>
   <g id="patch_4">
    <path d="M 170.496 144.890182 
L 170.496 52.730182 
" style="fill:none;stroke:#000000;stroke-linecap:square;stroke-linejoin:miter;stroke-width:1.5;"/>
   </g>
   <g id="patch_5">
    <path d="M 78.336 144.890182 
L 170.496 144.890182 
" style="fill:none;stroke:#000000;stroke-linecap:square;stroke-linejoin:miter;stroke-width:1.5;"/>
   </g>
   <g id="patch_6">
    <path d="M 78.336 52.730182 
L 170.496 52.730182 
" style="fill:none;stroke:#000000;stroke-linecap:square;stroke-linejoin:miter;stroke-width:1.5;"/>
   </g>
  </g>
  <g id="axes_2">
   <g id="patch_7">
    <path d="M 188.928 144.890182 
L 281.088 144.890182 
L 281.088 52.730182 
L 188.928 52.730182 
z
" style="fill:#ffffff;"/>
   </g>
   <g id="matplotlib.axis_3">
    <g id="xtick_4">
     <g id="line2d_8">
      <g>
       <use style="stroke:#000000;stroke-width:1.5;" x="193.117091" xlink:href="#m23e0d6e2d2" y="144.890182"/>
      </g>
     </g>
     <g id="text_7">
      <!-- −1 -->
      <g transform="translate(182.79756 171.027994)scale(0.14 -0.14)">
       <use xlink:href="#DejaVuSans-8722"/>
       <use x="83.789062" xlink:href="#DejaVuSans-49"/>
      </g>
     </g>
    </g>
    <g id="xtick_5">
     <g id="line2d_9">
      <g>
       <use style="stroke:#000000;stroke-width:1.5;" x="235.008" xlink:href="#m23e0d6e2d2" y="144.890182"/>
      </g>
     </g>
     <g id="text_8">
      <!-- 0 -->
      <g transform="translate(230.55425 171.027994)scale(0.14 -0.14)">
       <use xlink:href="#DejaVuSans-48"/>
      </g>
     </g>
    </g>
    <g id="xtick_6">
     <g id="line2d_10">
      <g>
       <use style="stroke:#000000;stroke-width:1.5;" x="276.898909" xlink:href="#m23e0d6e2d2" y="144.890182"/>
      </g>
     </g>
     <g id="text_9">
      <!-- 1 -->
      <g transform="translate(272.445159 171.027994)scale(0.14 -0.14)">
       <use xlink:href="#DejaVuSans-49"/>
      </g>
     </g>
    </g>
   </g>
   <g id="matplotlib.axis_4">
    <g id="ytick_4">
     <g id="line2d_11">
      <g>
       <use style="stroke:#000000;stroke-width:1.5;" x="188.928" xlink:href="#m6ea96e80a3" y="140.701091"/>
      </g>
     </g>
     <g id="text_10">
      <!-- −1 -->
      <g transform="translate(152.788938 146.019997)scale(0.14 -0.14)">
       <use xlink:href="#DejaVuSans-8722"/>
       <use x="83.789062" xlink:href="#DejaVuSans-49"/>
      </g>
     </g>
    </g>
    <g id="ytick_5">
     <g id="line2d_12">
      <g>
       <use style="stroke:#000000;stroke-width:1.5;" x="188.928" xlink:href="#m6ea96e80a3" y="98.810182"/>
      </g>
     </g>
     <g id="text_11">
      <!-- 0 -->
      <g transform="translate(164.5205 104.129088)scale(0.14 -0.14)">
       <use xlink:href="#DejaVuSans-48"/>
      </g>
     </g>
    </g>
    <g id="ytick_6">
     <g id="line2d_13">
      <g>
       <use style="stroke:#000000;stroke-width:1.5;" x="188.928" xlink:href="#m6ea96e80a3" y="56.919273"/>
      </g>
     </g>
     <g id="text_12">
      <!-- 1 -->
      <g transform="translate(164.5205 62.238179)scale(0.14 -0.14)">
       <use xlink:href="#DejaVuSans-49"/>
      </g>
     </g>
    </g>
   </g>
   <g id="line2d_14">
    <path clip-path="url(#pcd04865f15)" d="M 276.898909 98.810182 
L 276.792792 98.226718 
L 276.475056 97.651902 
L 275.867002 97.026239 
L 274.885551 96.371166 
L 273.590848 95.773646 
L 271.818951 95.200837 
L 269.492836 94.698114 
L 266.785998 94.344076 
L 263.464773 94.150207 
L 259.788369 94.172662 
L 255.812318 94.426024 
L 251.59639 94.91941 
L 247.2036 95.656185 
L 242.699165 96.633802 
L 238.149427 97.843753 
L 233.62077 99.271652 
L 229.178536 100.897432 
L 224.885967 102.695666 
L 220.803191 104.635999 
L 216.986269 106.683682 
L 213.48632 108.800213 
L 210.34873 110.944047 
L 207.612477 113.071388 
L 205.309566 115.137034 
L 203.464587 117.095259 
L 202.182699 118.768277 
L 201.36945 120.157855 
L 200.903798 121.383261 
L 200.779957 122.334464 
L 200.908352 123.04354 
L 201.208847 123.547422 
L 201.679741 123.924826 
L 202.405886 124.190235 
L 203.330585 124.279478 
L 204.57734 124.164052 
L 206.195542 123.768316 
L 208.047752 123.085298 
L 210.30292 122.009796 
L 212.765742 120.59141 
L 215.621559 118.676206 
L 218.62119 116.382884 
L 221.710967 113.734444 
L 224.837307 110.760706 
L 227.947674 107.497912 
L 230.991509 103.988211 
L 233.921107 100.279034 
L 236.692429 96.422352 
L 239.265833 92.473858 
L 241.606712 88.492064 
L 243.686027 84.537335 
L 245.480727 80.670886 
L 246.974049 76.953746 
L 248.155692 73.445712 
L 249.021865 70.204324 
L 249.575209 67.283853 
L 249.815901 64.916236 
L 249.808992 62.900283 
L 249.598287 61.38803 
L 249.249687 60.3099 
L 248.764547 59.527649 
L 248.22277 59.085117 
L 247.666833 58.904482 
L 247.049477 58.926886 
L 246.292227 59.196594 
L 245.480727 59.725432 
L 244.531153 60.6149 
L 243.449113 61.954346 
L 242.350946 63.661484 
L 241.162197 65.925522 
L 240.011829 68.5845 
L 238.841355 71.875629 
L 237.781625 75.549866 
L 236.861951 79.556164 
L 236.107478 83.838139 
L 235.538651 88.334968 
L 235.170786 92.982367 
L 235.013742 97.713621 
L 235.071719 102.460659 
L 235.343169 107.155158 
L 235.820823 111.729641 
L 236.491852 116.11857 
L 237.338131 120.2594 
L 238.336623 124.093582 
L 239.459868 127.5675 
L 240.676564 130.633317 
L 241.952231 133.249728 
L 243.150212 135.236346 
L 244.336694 136.789819 
L 245.387771 137.820229 
L 246.292227 138.42377 
L 247.049477 138.693478 
L 247.739857 138.704362 
L 248.287529 138.498511 
L 248.764547 138.092714 
L 249.207095 137.402193 
L 249.540119 136.471049 
L 249.770306 135.165358 
L 249.840425 133.416822 
L 249.683744 131.162679 
L 249.271361 128.580113 
L 248.594653 125.707183 
L 247.558533 122.315242 
L 246.208177 118.687295 
L 244.55088 114.882224 
L 242.600437 110.96062 
L 240.377025 106.983741 
L 237.906966 103.012472 
L 235.222356 99.106303 
L 232.360586 95.322343 
L 229.363752 91.714389 
L 226.277962 88.332065 
L 223.152565 85.220042 
L 220.039296 82.41736 
L 216.991373 79.956859 
L 214.062545 77.864727 
L 211.306124 76.160177 
L 208.774001 74.855249 
L 206.678601 74.009668 
L 204.852984 73.507119 
L 203.445116 73.342145 
L 202.405886 73.430128 
L 201.679741 73.695537 
L 201.161858 74.129151 
L 200.883023 74.648352 
L 200.779957 75.2859 
L 200.878642 76.134691 
L 201.258956 77.226768 
L 201.926437 78.458268 
L 202.991851 79.951229 
L 204.544671 81.714959 
L 206.494082 83.585168 
L 209.033868 85.689704 
L 211.990658 87.831473 
L 215.328632 89.965923 
L 219.005281 92.050368 
L 222.972041 94.044808 
L 227.175029 95.912678 
L 231.55588 97.621522 
L 236.052666 99.143577 
L 240.600885 100.456257 
L 245.134501 101.542521 
L 249.587017 102.391132 
L 253.892561 102.996788 
L 257.986972 103.360141 
L 261.808854 103.48768 
L 265.3006 103.391507 
L 268.409346 103.088993 
L 271.087854 102.602327 
L 273.143034 102.01247 
L 274.651336 101.373801 
L 275.783229 100.661774 
L 276.475056 99.968462 
L 276.817654 99.321009 
L 276.89725 98.737071 
L 276.764621 98.154216 
L 276.420538 97.581086 
L 275.783229 96.958589 
L 274.770006 96.308568 
L 273.2953 95.662393 
L 271.459051 95.107619 
L 269.067245 94.628232 
L 266.300241 94.300901 
L 262.920956 94.139155 
L 259.19472 94.196318 
L 255.177782 94.486155 
L 250.930476 95.016913 
L 246.516224 95.791056 
L 242.000487 96.805119 
L 237.449685 98.049682 
L 232.930112 99.509468 
L 228.506853 101.163564 
L 224.242737 102.985752 
L 220.197327 104.944963 
L 216.425978 107.00583 
L 212.978975 109.129331 
L 209.900761 111.273523 
L 207.229274 113.394339 
L 204.995404 115.446435 
L 203.22257 117.384088 
L 202.008989 119.032001 
L 201.258956 120.393596 
L 200.878642 121.485673 
L 200.783092 122.420364 
L 200.93642 123.113203 
L 201.258501 123.601654 
L 201.750304 123.96278 
L 202.499017 124.208983 
L 203.445116 124.278219 
L 204.714099 124.139815 
L 206.354653 123.718156 
L 208.226806 123.008848 
L 210.500766 121.904631 
L 212.979104 120.457917 
L 215.847875 118.512971 
L 218.856351 116.191427 
L 221.950835 113.516821 
L 225.077792 110.519482 
L 228.184804 107.236127 
L 231.221504 103.709336 
L 234.140438 99.986914 
L 236.897883 96.12115 
L 239.454561 92.167988 
L 241.776277 88.186115 
L 243.834438 84.236 
L 245.606469 80.378879 
L 247.076099 76.675723 
L 248.233526 73.186194 
L 249.075461 69.967613 
L 249.605031 67.073961 
L 249.824594 64.734348 
L 249.797698 62.749173 
L 249.569944 61.267249 
L 249.207095 60.218171 
L 248.764547 59.527649 
L 248.22277 59.085117 
L 247.666833 58.904482 
L 247.049477 58.926886 
L 246.292227 59.196594 
L 245.480727 59.725432 
L 244.531153 60.6149 
L 243.449113 61.954346 
L 242.350946 63.661484 
L 241.162197 65.925522 
L 240.011829 68.5845 
L 238.841355 71.875629 
L 237.781625 75.549866 
L 236.861951 79.556164 
L 236.107478 83.838139 
L 235.538651 88.334968 
L 235.170786 92.982367 
L 235.013742 97.713621 
L 235.071719 102.460659 
L 235.343169 107.155158 
L 235.820823 111.729641 
L 236.491852 116.11857 
L 237.338131 120.2594 
L 238.336623 124.093582 
L 239.459868 127.5675 
L 240.676564 130.633317 
L 241.952231 133.249728 
L 243.150212 135.236346 
L 244.336694 136.789819 
L 245.387771 137.820229 
L 246.292227 138.42377 
L 247.049477 138.693478 
L 247.739857 138.704362 
L 248.287529 138.498511 
L 248.764547 138.092714 
L 249.207095 137.402193 
L 249.540119 136.471049 
L 249.770306 135.165358 
L 249.840425 133.416822 
L 249.683744 131.162679 
L 249.271361 128.580113 
L 248.594653 125.707183 
L 247.558533 122.315242 
L 246.208177 118.687295 
L 244.55088 114.882224 
L 242.600437 110.96062 
L 240.377025 106.983741 
L 237.906966 103.012472 
L 235.222356 99.106303 
L 232.360586 95.322343 
L 229.363752 91.714389 
L 226.277962 88.332065 
L 223.152565 85.220042 
L 220.039296 82.41736 
L 216.991373 79.956859 
L 214.062545 77.864727 
L 211.306124 76.160177 
L 208.774001 74.855249 
L 206.678601 74.009668 
L 204.852984 73.507119 
L 203.445116 73.342145 
L 202.405886 73.430128 
L 201.679741 73.695537 
L 201.161858 74.129151 
L 200.883023 74.648352 
L 200.779957 75.2859 
L 200.878642 76.134691 
L 201.258956 77.226768 
L 201.926437 78.458268 
L 202.991851 79.951229 
L 204.544671 81.714959 
L 206.494082 83.585168 
L 209.033868 85.689704 
L 211.990658 87.831473 
L 215.328632 89.965923 
L 219.005281 92.050368 
L 222.972041 94.044808 
L 227.175029 95.912678 
L 231.55588 97.621522 
L 236.052666 99.143577 
L 240.600885 100.456257 
L 245.134501 101.542521 
L 249.587017 102.391132 
L 253.892561 102.996788 
L 257.986972 103.360141 
L 261.808854 103.48768 
L 265.3006 103.391507 
L 268.409346 103.088993 
L 271.087854 102.602327 
L 273.143034 102.01247 
L 274.651336 101.373801 
L 275.783229 100.661774 
L 276.475056 99.968462 
L 276.817654 99.321009 
L 276.898909 98.810182 
L 276.898909 98.810182 
" style="fill:none;stroke:#1f77b4;stroke-linecap:square;stroke-width:1.5;"/>
   </g>
   <g id="patch_8">
    <path d="M 188.928 144.890182 
L 188.928 52.730182 
" style="fill:none;stroke:#000000;stroke-linecap:square;stroke-linejoin:miter;stroke-width:1.5;"/>
   </g>
   <g id="patch_9">
    <path d="M 281.088 144.890182 
L 281.088 52.730182 
" style="fill:none;stroke:#000000;stroke-linecap:square;stroke-linejoin:miter;stroke-width:1.5;"/>
   </g>
   <g id="patch_10">
    <path d="M 188.928 144.890182 
L 281.088 144.890182 
" style="fill:none;stroke:#000000;stroke-linecap:square;stroke-linejoin:miter;stroke-width:1.5;"/>
   </g>
   <g id="patch_11">
    <path d="M 188.928 52.730182 
L 281.088 52.730182 
" style="fill:none;stroke:#000000;stroke-linecap:square;stroke-linejoin:miter;stroke-width:1.5;"/>
   </g>
  </g>
  <g id="axes_3">
   <g id="patch_12">
    <path d="M 299.52 144.890182 
L 391.68 144.890182 
L 391.68 52.730182 
L 299.52 52.730182 
z
" style="fill:#ffffff;"/>
   </g>
   <g id="matplotlib.axis_5">
    <g id="xtick_7">
     <g id="line2d_15">
      <g>
       <use style="stroke:#000000;stroke-width:1.5;" x="303.709091" xlink:href="#m23e0d6e2d2" y="144.890182"/>
      </g>
     </g>
     <g id="text_13">
      <!-- −1 -->
      <g transform="translate(293.38956 171.027994)scale(0.14 -0.14)">
       <use xlink:href="#DejaVuSans-8722"/>
       <use x="83.789062" xlink:href="#DejaVuSans-49"/>
      </g>
     </g>
    </g>
    <g id="xtick_8">
     <g id="line2d_16">
      <g>
       <use style="stroke:#000000;stroke-width:1.5;" x="345.6" xlink:href="#m23e0d6e2d2" y="144.890182"/>
      </g>
     </g>
     <g id="text_14">
      <!-- 0 -->
      <g transform="translate(341.14625 171.027994)scale(0.14 -0.14)">
       <use xlink:href="#DejaVuSans-48"/>
      </g>
     </g>
    </g>
    <g id="xtick_9">
     <g id="line2d_17">
      <g>
       <use style="stroke:#000000;stroke-width:1.5;" x="387.490909" xlink:href="#m23e0d6e2d2" y="144.890182"/>
      </g>
     </g>
     <g id="text_15">
      <!-- 1 -->
      <g transform="translate(383.037159 171.027994)scale(0.14 -0.14)">
       <use xlink:href="#DejaVuSans-49"/>
      </g>
     </g>
    </g>
   </g>
   <g id="matplotlib.axis_6">
    <g id="ytick_7">
     <g id="line2d_18">
      <g>
       <use style="stroke:#000000;stroke-width:1.5;" x="299.52" xlink:href="#m6ea96e80a3" y="140.701091"/>
      </g>
     </g>
     <g id="text_16">
      <!-- −1 -->
      <g transform="translate(263.380937 146.019997)scale(0.14 -0.14)">
       <use xlink:href="#DejaVuSans-8722"/>
       <use x="83.789062" xlink:href="#DejaVuSans-49"/>
      </g>
     </g>
    </g>
    <g id="ytick_8">
     <g id="line2d_19">
      <g>
       <use style="stroke:#000000;stroke-width:1.5;" x="299.52" xlink:href="#m6ea96e80a3" y="98.810182"/>
      </g>
     </g>
     <g id="text_17">
      <!-- 0 -->
      <g transform="translate(275.1125 104.129088)scale(0.14 -0.14)">
       <use xlink:href="#DejaVuSans-48"/>
      </g>
     </g>
    </g>
    <g id="ytick_9">
     <g id="line2d_20">
      <g>
       <use style="stroke:#000000;stroke-width:1.5;" x="299.52" xlink:href="#m6ea96e80a3" y="56.919273"/>
      </g>
     </g>
     <g id="text_18">
      <!-- 1 -->
      <g transform="translate(275.1125 62.238179)scale(0.14 -0.14)">
       <use xlink:href="#DejaVuSans-49"/>
      </g>
     </g>
    </g>
   </g>
   <g id="line2d_21">
    <path clip-path="url(#p0e99f149f5)" d="M 387.490909 98.810182 
L 387.376119 98.372687 
L 387.032429 97.942296 
L 386.344934 97.458533 
L 385.188379 96.943241 
L 383.429233 96.430168 
L 380.933619 95.967306 
L 377.908196 95.642336 
L 374.027483 95.47072 
L 369.642096 95.516824 
L 364.838202 95.79756 
L 359.709867 96.322232 
L 354.357092 97.092109 
L 348.883732 98.100214 
L 343.39535 99.331339 
L 337.997035 100.762291 
L 332.79125 102.362363 
L 327.875746 104.094011 
L 323.341589 105.913747 
L 319.271343 107.773188 
L 315.737449 109.620274 
L 312.800825 111.400606 
L 310.690323 112.914607 
L 309.140061 114.286508 
L 308.238071 115.36671 
L 307.833599 116.180785 
L 307.786356 116.76542 
L 307.971636 117.162761 
L 308.362153 117.457506 
L 309.071397 117.664 
L 310.205493 117.709088 
L 311.668854 117.541181 
L 313.684016 117.088638 
L 316.342512 116.251145 
L 319.392899 115.059273 
L 323.132978 113.34475 
L 327.196361 111.223593 
L 331.496154 108.722531 
L 335.942504 105.8784 
L 340.444569 102.737568 
L 344.912468 99.355113 
L 349.259187 95.793781 
L 353.402385 92.122729 
L 357.26607 88.416092 
L 360.782099 84.751404 
L 363.891482 81.207896 
L 366.545455 77.864727 
L 368.706304 74.79918 
L 370.347925 72.084854 
L 371.377554 69.979557 
L 371.92524 68.419494 
L 372.113767 67.324072 
L 372.053319 66.605384 
L 371.838769 66.175735 
L 371.479022 65.923811 
L 370.979737 65.853921 
L 370.229558 66.00669 
L 369.165378 66.493982 
L 367.727662 67.442222 
L 366.064501 68.810346 
L 363.991999 70.811039 
L 361.72918 73.296341 
L 359.079293 76.553223 
L 356.325864 80.307096 
L 353.535404 84.494335 
L 350.772441 89.041141 
L 348.098015 93.864953 
L 345.568294 98.876063 
L 343.23334 103.979415 
L 341.136061 109.07654 
L 339.311354 114.067581 
L 337.785482 118.853385 
L 336.575672 123.337588 
L 335.68996 127.428669 
L 335.127273 131.041922 
L 334.877741 134.101291 
L 334.907538 136.346361 
L 335.127273 137.894932 
L 335.461837 138.875812 
L 335.850908 139.418074 
L 336.247978 139.643255 
L 336.696629 139.644728 
L 337.189804 139.421481 
L 337.811702 138.877502 
L 338.569226 137.885582 
L 339.459556 136.307638 
L 340.466088 134.001871 
L 341.457527 131.147243 
L 342.491485 127.424551 
L 343.426973 123.158477 
L 344.228128 118.428866 
L 344.86471 113.32502 
L 345.312962 107.943891 
L 345.556285 102.388107 
L 345.585714 96.76387 
L 345.400165 91.178786 
L 345.006471 85.739657 
L 344.419186 80.550298 
L 343.660174 75.70941 
L 342.757985 71.308569 
L 341.747043 67.430368 
L 340.666663 64.146751 
L 339.660432 61.72822 
L 338.666582 59.886195 
L 337.811702 58.742862 
L 337.104824 58.146066 
L 336.541777 57.95118 
L 336.10955 58.027401 
L 335.73119 58.326696 
L 335.366683 58.954044 
L 335.094366 59.87457 
L 334.907538 61.274003 
L 334.87002 63.270774 
L 335.059036 65.978922 
L 335.504724 69.155502 
L 336.301854 73.124336 
L 337.423683 77.510148 
L 338.864679 82.223087 
L 340.610115 87.167908 
L 342.636164 92.246013 
L 344.910229 97.357528 
L 347.391514 102.403402 
L 350.031809 107.287451 
L 352.776498 111.918323 
L 355.565738 116.211341 
L 358.335808 120.090166 
L 361.020582 123.488272 
L 363.5531 126.350181 
L 365.86719 128.632446 
L 367.727662 130.178142 
L 369.309867 131.205607 
L 370.347389 131.651076 
L 371.072376 131.767586 
L 371.614738 131.632613 
L 371.926674 131.320917 
L 372.091715 130.833164 
L 372.092657 130.049251 
L 371.834436 128.883281 
L 371.207126 127.249777 
L 370.220601 125.305104 
L 368.706304 122.821184 
L 366.762749 120.046932 
L 364.152219 116.725851 
L 361.082383 113.1973 
L 357.601031 109.540342 
L 353.766264 105.834277 
L 349.645443 102.156864 
L 345.313908 98.582614 
L 340.853487 95.181199 
L 336.350844 92.016001 
L 331.895675 89.142844 
L 327.578817 86.608924 
L 323.490293 84.45197 
L 319.717347 82.699649 
L 316.342512 81.369218 
L 313.441745 80.467437 
L 311.27317 80.016791 
L 309.740665 79.903699 
L 308.73446 80.026251 
L 308.141479 80.297028 
L 307.853122 80.643836 
L 307.771682 81.090103 
L 307.899601 81.62912 
L 308.314967 82.365523 
L 309.140061 83.333856 
L 310.50973 84.561501 
L 312.565247 86.063132 
L 315.157504 87.66981 
L 318.586977 89.508852 
L 322.564772 91.370006 
L 327.020446 93.200684 
L 331.873162 94.951742 
L 337.03327 96.578716 
L 342.40409 98.042912 
L 347.883864 99.312322 
L 353.367821 100.362346 
L 358.750325 101.176299 
L 363.927047 101.745699 
L 368.797128 102.070325 
L 373.265272 102.158048 
L 377.243738 102.024436 
L 380.654168 101.692159 
L 383.204747 101.241972 
L 385.188379 100.677122 
L 386.461868 100.094318 
L 387.172328 99.53583 
L 387.462201 99.029374 
L 387.462201 98.59099 
L 387.232791 98.156162 
L 386.677082 97.662795 
L 385.667807 97.130843 
L 384.269685 96.648211 
L 382.250413 96.183048 
L 379.484239 95.786094 
L 376.211927 95.538711 
L 372.091715 95.4635 
L 367.504897 95.614603 
L 362.541465 96.00554 
L 357.298434 96.642005 
L 351.877819 97.521531 
L 346.384523 98.633382 
L 340.924162 99.958678 
L 335.600894 101.470738 
L 330.515294 103.135652 
L 325.762311 104.913052 
L 321.429361 106.757083 
L 317.594595 108.617535 
L 314.325372 110.441112 
L 311.676984 112.172813 
L 309.843873 113.620855 
L 308.680957 114.786479 
L 308.042492 115.689195 
L 307.790975 116.360547 
L 307.802838 116.838503 
L 308.02257 117.219175 
L 308.446911 117.496239 
L 309.194558 117.680971 
L 310.37078 117.699924 
L 312.083899 117.465004 
L 314.181818 116.949478 
L 316.922981 116.041073 
L 320.04509 114.778662 
L 323.850219 112.988686 
L 327.963162 110.796164 
L 332.29634 108.229698 
L 336.759575 105.327905 
L 341.262054 102.138805 
L 345.714279 98.718954 
L 350.029954 95.132363 
L 354.127773 91.449205 
L 357.933064 87.744356 
L 361.379258 84.095785 
L 364.409152 80.582845 
L 366.975937 77.28449 
L 369.043976 74.277462 
L 370.589315 71.634506 
L 371.53023 69.604261 
L 371.99849 68.119105 
L 372.117709 67.095357 
L 371.99825 66.44273 
L 371.734724 66.071778 
L 371.327794 65.880107 
L 370.783397 65.871665 
L 369.983547 66.097143 
L 368.866962 66.668135 
L 367.376436 67.710209 
L 365.465611 69.358203 
L 363.330915 71.506967 
L 360.781798 74.419604 
L 358.086503 77.863877 
L 355.311983 81.783262 
L 352.524209 86.110285 
L 349.786606 90.767786 
L 347.158598 95.670407 
L 344.694264 100.72628 
L 342.441178 105.838878 
L 340.439421 110.908989 
L 338.720812 115.836769 
L 337.308361 120.523838 
L 336.215959 124.87536 
L 335.448306 128.802069 
L 335.001083 132.222201 
L 334.86184 134.830623 
L 334.961321 136.913649 
L 335.238141 138.307238 
L 335.618198 139.144772 
L 336.042565 139.558513 
L 336.46629 139.672049 
L 336.938102 139.561206 
L 337.539727 139.147906 
L 338.185255 138.430523 
L 338.961357 137.243824 
L 339.8618 135.453558 
L 340.86636 132.923686 
L 341.842438 129.861003 
L 342.845051 125.932146 
L 343.735565 121.48774 
L 344.480051 116.611268 
L 345.050534 111.395032 
L 345.425793 105.938284 
L 345.591963 100.345199 
L 345.542925 94.722744 
L 345.280484 89.178487 
L 344.814314 83.818397 
L 344.161686 78.744667 
L 343.346978 74.053634 
L 342.400979 69.833815 
L 341.360016 66.16411 
L 340.264904 63.112219 
L 339.259452 60.920561 
L 338.280359 59.316932 
L 337.539727 58.472457 
L 336.938102 58.059158 
L 336.39214 57.951684 
L 335.977109 58.10249 
L 335.618198 58.475592 
L 335.27906 59.187484 
L 335.008144 60.356691 
L 334.867458 62.107752 
L 334.91563 64.294559 
L 335.205884 67.196299 
L 335.757051 70.545082 
L 336.672317 74.675518 
L 337.91133 79.191008 
L 339.465218 83.999509 
L 341.315923 89.004317 
L 343.436377 94.106128 
L 345.790924 99.205127 
L 348.335969 104.203071 
L 351.020847 109.005312 
L 353.788895 113.522722 
L 356.578696 117.67347 
L 359.325478 121.384628 
L 361.962628 124.593558 
L 364.423281 127.249057 
L 366.641962 129.312242 
L 368.396341 130.651775 
L 369.723981 131.411871 
L 370.679761 131.732074 
L 371.327794 131.740257 
L 371.734724 131.548585 
L 371.99825 131.177634 
L 372.113282 130.632411 
L 372.054266 129.784148 
L 371.726014 128.548799 
L 371.018939 126.843366 
L 369.812201 124.593558 
L 368.167591 122.016945 
L 365.869169 118.868196 
L 363.086776 115.462614 
L 359.861207 111.87817 
L 356.244106 108.194223 
L 352.297076 104.489715 
L 348.09054 100.841416 
L 343.702377 97.322256 
L 339.216377 93.999777 
L 334.720517 90.93475 
L 330.305134 88.179973 
L 326.060994 85.779285 
L 322.077338 83.766812 
L 318.439917 82.166462 
L 315.229083 80.991671 
L 312.742021 80.295662 
L 310.716658 79.948829 
L 309.323095 79.925621 
L 308.446911 80.124125 
L 307.971636 80.457603 
L 307.786356 80.854943 
L 307.809367 81.348458 
L 308.101831 82.03644 
L 308.787024 82.95601 
L 310.00182 84.137671 
L 311.676984 85.44755 
L 314.058225 87.017195 
L 316.956338 88.666929 
L 320.69295 90.524709 
L 324.940837 92.375569 
L 329.623703 94.168639 
L 334.655693 95.857181 
L 339.943091 97.399756 
L 345.386197 98.761214 
L 350.881346 99.913513 
L 356.323028 100.836319 
L 361.606049 101.517402 
L 366.627707 101.952794 
L 371.289926 102.146721 
L 375.501291 102.111315 
L 379.178964 101.866107 
L 382.250413 101.437316 
L 384.465252 100.915049 
L 385.957064 100.360544 
L 386.86731 99.818733 
L 387.334695 99.320093 
L 387.487719 98.88329 
L 387.490909 98.810182 
L 387.490909 98.810182 
" style="fill:none;stroke:#1f77b4;stroke-linecap:square;stroke-width:1.5;"/>
   </g>
   <g id="patch_13">
    <path d="M 299.52 144.890182 
L 299.52 52.730182 
" style="fill:none;stroke:#000000;stroke-linecap:square;stroke-linejoin:miter;stroke-width:1.5;"/>
   </g>
   <g id="patch_14">
    <path d="M 391.68 144.890182 
L 391.68 52.730182 
" style="fill:none;stroke:#000000;stroke-linecap:square;stroke-linejoin:miter;stroke-width:1.5;"/>
   </g>
   <g id="patch_15">
    <path d="M 299.52 144.890182 
L 391.68 144.890182 
" style="fill:none;stroke:#000000;stroke-linecap:square;stroke-linejoin:miter;stroke-width:1.5;"/>
   </g>
   <g id="patch_16">
    <path d="M 299.52 52.730182 
L 391.68 52.730182 
" style="fill:none;stroke:#000000;stroke-linecap:square;stroke-linejoin:miter;stroke-width:1.5;"/>
   </g>
  </g>
  <g id="axes_4">
   <g id="patch_17">
    <path d="M 78.336 282.501818 
L 170.496 282.501818 
L 170.496 190.341818 
L 78.336 190.341818 
z
" style="fill:#ffffff;"/>
   </g>
   <g id="matplotlib.axis_7">
    <g id="xtick_10">
     <g id="line2d_22">
      <g>
       <use style="stroke:#000000;stroke-width:1.5;" x="82.525091" xlink:href="#m23e0d6e2d2" y="282.501818"/>
      </g>
     </g>
     <g id="text_19">
      <!-- −1 -->
      <g transform="translate(72.20556 308.639631)scale(0.14 -0.14)">
       <use xlink:href="#DejaVuSans-8722"/>
       <use x="83.789062" xlink:href="#DejaVuSans-49"/>
      </g>
     </g>
    </g>
    <g id="xtick_11">
     <g id="line2d_23">
      <g>
       <use style="stroke:#000000;stroke-width:1.5;" x="124.416" xlink:href="#m23e0d6e2d2" y="282.501818"/>
      </g>
     </g>
     <g id="text_20">
      <!-- 0 -->
      <g transform="translate(119.96225 308.639631)scale(0.14 -0.14)">
       <use xlink:href="#DejaVuSans-48"/>
      </g>
     </g>
    </g>
    <g id="xtick_12">
     <g id="line2d_24">
      <g>
       <use style="stroke:#000000;stroke-width:1.5;" x="166.306909" xlink:href="#m23e0d6e2d2" y="282.501818"/>
      </g>
     </g>
     <g id="text_21">
      <!-- 1 -->
      <g transform="translate(161.853159 308.639631)scale(0.14 -0.14)">
       <use xlink:href="#DejaVuSans-49"/>
      </g>
     </g>
    </g>
   </g>
   <g id="matplotlib.axis_8">
    <g id="ytick_10">
     <g id="line2d_25">
      <g>
       <use style="stroke:#000000;stroke-width:1.5;" x="78.336" xlink:href="#m6ea96e80a3" y="278.312727"/>
      </g>
     </g>
     <g id="text_22">
      <!-- −1 -->
      <g transform="translate(42.196938 283.631634)scale(0.14 -0.14)">
       <use xlink:href="#DejaVuSans-8722"/>
       <use x="83.789062" xlink:href="#DejaVuSans-49"/>
      </g>
     </g>
    </g>
    <g id="ytick_11">
     <g id="line2d_26">
      <g>
       <use style="stroke:#000000;stroke-width:1.5;" x="78.336" xlink:href="#m6ea96e80a3" y="236.421818"/>
      </g>
     </g>
     <g id="text_23">
      <!-- 0 -->
      <g transform="translate(53.9285 241.740724)scale(0.14 -0.14)">
       <use xlink:href="#DejaVuSans-48"/>
      </g>
     </g>
    </g>
    <g id="ytick_12">
     <g id="line2d_27">
      <g>
       <use style="stroke:#000000;stroke-width:1.5;" x="78.336" xlink:href="#m6ea96e80a3" y="194.530909"/>
      </g>
     </g>
     <g id="text_24">
      <!-- 1 -->
      <g transform="translate(53.9285 199.849815)scale(0.14 -0.14)">
       <use xlink:href="#DejaVuSans-49"/>
      </g>
     </g>
    </g>
   </g>
   <g id="line2d_28">
    <path clip-path="url(#p95be76235b)" d="M 166.306909 236.421818 
L 166.1985 235.692502 
L 165.873959 234.974074 
L 165.269819 234.209254 
L 164.411287 233.484748 
L 163.192324 232.756376 
L 161.551874 232.059356 
L 159.595774 231.477623 
L 157.160067 231.001073 
L 154.412261 230.699725 
L 151.385935 230.590712 
L 148.117911 230.687722 
L 144.393245 231.031544 
L 140.488013 231.630543 
L 136.455755 232.48662 
L 132.351267 233.596197 
L 128.229761 234.95021 
L 124.146006 236.534206 
L 120.153489 238.328532 
L 116.303603 240.308627 
L 112.644872 242.445409 
L 109.222224 244.705734 
L 106.076335 247.05295 
L 103.243042 249.447509 
L 100.752842 251.847637 
L 98.630478 254.210058 
L 96.998044 256.342129 
L 95.712623 258.367207 
L 94.779629 260.250072 
L 94.229415 261.841283 
L 93.988968 263.152619 
L 93.999998 264.292949 
L 94.224565 265.172733 
L 94.600211 265.82418 
L 95.132176 266.325475 
L 95.812656 266.669007 
L 96.722271 266.856829 
L 97.788203 266.838506 
L 99.112937 266.576835 
L 100.587746 266.058189 
L 102.330993 265.20356 
L 104.199011 264.04483 
L 106.317982 262.461454 
L 108.513278 260.539562 
L 110.749054 258.293503 
L 112.989918 255.742267 
L 115.357434 252.69685 
L 117.650951 249.362163 
L 119.832782 245.777331 
L 121.868549 241.985935 
L 123.727759 238.035378 
L 125.384297 233.976179 
L 126.816839 229.861217 
L 128.009171 225.744927 
L 128.950417 221.682465 
L 129.635167 217.728863 
L 130.063501 213.938172 
L 130.24092 210.362625 
L 130.178165 207.051817 
L 129.890956 204.051932 
L 129.438264 201.569719 
L 128.82755 199.425452 
L 128.138704 197.760058 
L 127.35307 196.426532 
L 126.560492 195.502481 
L 125.7927 194.921727 
L 124.999976 194.600304 
L 124.269788 194.535248 
L 123.54178 194.686982 
L 122.82683 195.054547 
L 122.068303 195.70534 
L 121.352607 196.609478 
L 120.636607 197.876587 
L 119.956055 199.56682 
L 119.393736 201.569719 
L 118.941044 204.051932 
L 118.6662 206.841663 
L 118.585865 209.904842 
L 118.713211 213.204221 
L 119.090752 216.955989 
L 119.724037 220.881287 
L 120.614241 224.92636 
L 121.757052 229.036305 
L 123.142681 233.155923 
L 124.755966 237.230566 
L 126.576583 241.20698 
L 128.579345 245.03411 
L 130.734596 248.663874 
L 133.008694 252.051871 
L 135.364563 255.158039 
L 137.762318 257.947226 
L 140.159943 260.389681 
L 142.514018 262.461454 
L 144.632989 264.04483 
L 146.639887 265.280123 
L 148.499619 266.162611 
L 150.065094 266.666192 
L 151.349232 266.864299 
L 152.459283 266.812033 
L 153.308819 266.550971 
L 153.93089 266.143484 
L 154.40121 265.581161 
L 154.712364 264.871998 
L 154.8632 263.932974 
L 154.806741 262.840086 
L 154.502519 261.48896 
L 153.940737 259.991106 
L 153.039213 258.226863 
L 151.833956 256.342129 
L 150.201522 254.210058 
L 148.232332 252.006789 
L 145.941408 249.768136 
L 143.348387 247.529384 
L 140.262315 245.169454 
L 136.891911 242.888716 
L 133.276929 240.724454 
L 129.461497 238.710557 
L 125.493476 236.876962 
L 121.423745 235.249166 
L 117.305437 233.84783 
L 113.193131 232.688466 
L 109.142017 231.781227 
L 105.207045 231.13079 
L 101.442071 230.736346 
L 97.899024 230.591683 
L 94.627087 230.685378 
L 91.671933 231.001073 
L 89.236226 231.477623 
L 87.142488 232.109126 
L 85.527084 232.814203 
L 84.245965 233.612856 
L 83.371956 234.41443 
L 82.83808 235.187814 
L 82.564131 235.98353 
L 82.542444 236.714155 
L 82.737465 237.44042 
L 83.147961 238.151462 
L 83.845244 238.903232 
L 84.89335 239.671172 
L 86.232077 240.367743 
L 87.99618 241.022711 
L 90.068332 241.555112 
L 92.619134 241.97126 
L 95.470444 242.205711 
L 98.587472 242.242528 
L 101.932354 242.06932 
L 105.723045 241.640985 
L 109.676647 240.956235 
L 113.739109 240.014989 
L 117.855399 238.822657 
L 121.970361 237.390115 
L 126.029559 235.733577 
L 129.980117 233.874367 
L 133.771512 231.8386 
L 137.356345 229.65677 
L 140.691032 227.363252 
L 143.736449 224.995736 
L 146.45849 222.594591 
L 148.828533 220.20217 
L 150.823828 217.862086 
L 152.333256 215.764136 
L 153.493179 213.785852 
L 154.299918 211.962115 
L 154.733721 210.436388 
L 154.868615 209.194038 
L 154.773689 208.211712 
L 154.476394 207.392833 
L 154.037346 206.800472 
L 153.444985 206.361424 
L 152.707495 206.082905 
L 151.739494 205.969287 
L 150.620116 206.064058 
L 149.243143 206.410957 
L 147.590301 207.078063 
L 145.795783 208.049888 
L 143.736506 209.435221 
L 141.580429 211.165128 
L 139.363409 213.22798 
L 137.121164 215.607418 
L 134.730546 218.484273 
L 132.392686 221.669245 
L 130.146787 225.125821 
L 128.029065 228.812721 
L 126.072153 232.684498 
L 124.304555 236.692203 
L 122.750199 240.784119 
L 121.428058 244.906538 
L 120.351877 249.004585 
L 119.529991 253.023054 
L 118.965244 256.907266 
L 118.655012 260.603914 
L 118.591322 264.061898 
L 118.761068 267.233121 
L 119.114364 269.895028 
L 119.637381 272.235904 
L 120.309041 274.227017 
L 121.045137 275.741233 
L 121.80237 276.838509 
L 122.616504 277.637045 
L 123.397399 278.100354 
L 124.123663 278.295374 
L 124.854288 278.273687 
L 125.578373 278.035429 
L 126.354379 277.525044 
L 127.09515 276.75836 
L 127.846849 275.636602 
L 128.522959 274.227017 
L 129.151306 272.390041 
L 129.652849 270.249807 
L 130.031572 267.631853 
L 130.224898 264.720561 
L 130.217627 261.551425 
L 129.998161 258.162899 
L 129.518811 254.335377 
L 128.782594 250.355635 
L 127.790522 246.277989 
L 126.549104 242.157563 
L 125.070299 238.049437 
L 123.371361 234.007801 
L 121.474604 230.085123 
L 119.407053 226.33136 
L 117.200021 222.793205 
L 114.888593 219.513395 
L 112.511048 216.530093 
L 110.108208 213.876346 
L 107.722739 211.579625 
L 105.398413 209.661473 
L 103.323122 208.226386 
L 101.375055 207.142 
L 99.710356 206.451476 
L 98.211884 206.064058 
L 96.998044 205.971093 
L 96.044478 206.103348 
L 95.256657 206.436608 
L 94.694334 206.906928 
L 94.286847 207.528999 
L 94.041209 208.294453 
L 93.96503 209.290993 
L 94.098279 210.436388 
L 94.487972 211.838659 
L 95.201924 213.515056 
L 96.220568 215.32894 
L 97.655655 217.404231 
L 99.433949 219.571212 
L 101.543138 221.794013 
L 103.966199 224.036979 
L 106.886061 226.422918 
L 110.109466 228.750722 
L 113.599234 230.981551 
L 117.313493 233.079632 
L 121.20629 235.012854 
L 125.228263 236.753297 
L 129.327383 238.277675 
L 133.44974 239.567699 
L 137.540363 240.610337 
L 141.544069 241.397982 
L 145.406312 241.928524 
L 149.074034 242.205308 
L 152.496488 242.237008 
L 155.626035 242.03739 
L 158.243989 241.658668 
L 160.536564 241.11306 
L 162.475607 240.422044 
L 163.93865 239.671172 
L 164.986756 238.903232 
L 165.734722 238.081349 
L 166.150837 237.296038 
L 166.302571 236.56803 
L 166.306909 236.421818 
L 166.306909 236.421818 
" style="fill:none;stroke:#1f77b4;stroke-linecap:square;stroke-width:1.5;"/>
   </g>
   <g id="patch_18">
    <path d="M 78.336 282.501818 
L 78.336 190.341818 
" style="fill:none;stroke:#000000;stroke-linecap:square;stroke-linejoin:miter;stroke-width:1.5;"/>
   </g>
   <g id="patch_19">
    <path d="M 170.496 282.501818 
L 170.496 190.341818 
" style="fill:none;stroke:#000000;stroke-linecap:square;stroke-linejoin:miter;stroke-width:1.5;"/>
   </g>
   <g id="patch_20">
    <path d="M 78.336 282.501818 
L 170.496 282.501818 
" style="fill:none;stroke:#000000;stroke-linecap:square;stroke-linejoin:miter;stroke-width:1.5;"/>
   </g>
   <g id="patch_21">
    <path d="M 78.336 190.341818 
L 170.496 190.341818 
" style="fill:none;stroke:#000000;stroke-linecap:square;stroke-linejoin:miter;stroke-width:1.5;"/>
   </g>
  </g>
  <g id="axes_5">
   <g id="patch_22">
    <path d="M 188.928 282.501818 
L 281.088 282.501818 
L 281.088 190.341818 
L 188.928 190.341818 
z
" style="fill:#ffffff;"/>
   </g>
   <g id="matplotlib.axis_9">
    <g id="xtick_13">
     <g id="line2d_29">
      <g>
       <use style="stroke:#000000;stroke-width:1.5;" x="193.117091" xlink:href="#m23e0d6e2d2" y="282.501818"/>
      </g>
     </g>
     <g id="text_25">
      <!-- −1 -->
      <g transform="translate(182.79756 308.639631)scale(0.14 -0.14)">
       <use xlink:href="#DejaVuSans-8722"/>
       <use x="83.789062" xlink:href="#DejaVuSans-49"/>
      </g>
     </g>
    </g>
    <g id="xtick_14">
     <g id="line2d_30">
      <g>
       <use style="stroke:#000000;stroke-width:1.5;" x="235.008" xlink:href="#m23e0d6e2d2" y="282.501818"/>
      </g>
     </g>
     <g id="text_26">
      <!-- 0 -->
      <g transform="translate(230.55425 308.639631)scale(0.14 -0.14)">
       <use xlink:href="#DejaVuSans-48"/>
      </g>
     </g>
    </g>
    <g id="xtick_15">
     <g id="line2d_31">
      <g>
       <use style="stroke:#000000;stroke-width:1.5;" x="276.898909" xlink:href="#m23e0d6e2d2" y="282.501818"/>
      </g>
     </g>
     <g id="text_27">
      <!-- 1 -->
      <g transform="translate(272.445159 308.639631)scale(0.14 -0.14)">
       <use xlink:href="#DejaVuSans-49"/>
      </g>
     </g>
    </g>
   </g>
   <g id="matplotlib.axis_10">
    <g id="ytick_13">
     <g id="line2d_32">
      <g>
       <use style="stroke:#000000;stroke-width:1.5;" x="188.928" xlink:href="#m6ea96e80a3" y="278.312727"/>
      </g>
     </g>
     <g id="text_28">
      <!-- −1 -->
      <g transform="translate(152.788938 283.631634)scale(0.14 -0.14)">
       <use xlink:href="#DejaVuSans-8722"/>
       <use x="83.789062" xlink:href="#DejaVuSans-49"/>
      </g>
     </g>
    </g>
    <g id="ytick_14">
     <g id="line2d_33">
      <g>
       <use style="stroke:#000000;stroke-width:1.5;" x="188.928" xlink:href="#m6ea96e80a3" y="236.421818"/>
      </g>
     </g>
     <g id="text_29">
      <!-- 0 -->
      <g transform="translate(164.5205 241.740724)scale(0.14 -0.14)">
       <use xlink:href="#DejaVuSans-48"/>
      </g>
     </g>
    </g>
    <g id="ytick_15">
     <g id="line2d_34">
      <g>
       <use style="stroke:#000000;stroke-width:1.5;" x="188.928" xlink:href="#m6ea96e80a3" y="194.530909"/>
      </g>
     </g>
     <g id="text_30">
      <!-- 1 -->
      <g transform="translate(164.5205 199.849815)scale(0.14 -0.14)">
       <use xlink:href="#DejaVuSans-49"/>
      </g>
     </g>
    </g>
   </g>
   <g id="line2d_35">
    <path clip-path="url(#pe993eeec15)" d="M 276.898909 236.421818 
L 276.783292 235.911411 
L 276.437147 235.409312 
L 275.762044 234.856206 
L 274.652782 234.274734 
L 272.99925 233.698572 
L 270.922518 233.216533 
L 268.180195 232.818165 
L 264.998119 232.579995 
L 261.081231 232.525148 
L 256.767066 232.702473 
L 252.13177 233.1243 
L 247.256779 233.795907 
L 242.227275 234.715254 
L 237.130568 235.872885 
L 232.054448 237.252024 
L 227.08554 238.828846 
L 222.307688 240.57292 
L 217.800407 242.447831 
L 213.637427 244.411948 
L 209.885362 246.41933 
L 206.602533 248.420757 
L 203.837959 250.364852 
L 201.792447 252.051871 
L 200.237271 253.606583 
L 199.261083 254.872178 
L 198.743327 255.866765 
L 198.570096 256.619678 
L 198.638191 257.166791 
L 198.908212 257.601438 
L 199.375911 257.916468 
L 200.145444 258.121848 
L 201.156061 258.154376 
L 202.566399 257.975966 
L 204.44999 257.502378 
L 206.871614 256.639862 
L 209.615838 255.417582 
L 212.63356 253.839844 
L 216.175981 251.726185 
L 219.910537 249.225398 
L 223.764408 246.369308 
L 227.664452 243.19825 
L 231.538675 239.760424 
L 235.317646 236.111089 
L 238.935838 232.31157 
L 242.332861 228.428136 
L 245.454568 224.530739 
L 248.254019 220.691665 
L 250.692258 216.984104 
L 252.738925 213.480682 
L 254.372664 210.251976 
L 255.581336 207.365053 
L 256.313224 205.072133 
L 256.689821 203.161972 
L 256.732658 201.789746 
L 256.537506 200.872378 
L 256.18762 200.32203 
L 255.752973 200.05201 
L 255.20586 199.983914 
L 254.554111 200.120751 
L 253.69197 200.530246 
L 252.588631 201.314109 
L 251.220799 202.583096 
L 249.731712 204.262442 
L 247.989416 206.566606 
L 246.176995 209.323805 
L 244.16694 212.808661 
L 242.171767 216.739529 
L 240.239462 221.054501 
L 238.414286 225.683843 
L 236.735803 230.551248 
L 235.238018 235.575212 
L 233.948674 240.670542 
L 232.888706 245.749927 
L 232.07186 250.725576 
L 231.504504 255.510867 
L 231.185607 260.021986 
L 231.10691 264.179517 
L 231.253267 267.909957 
L 231.603154 271.147121 
L 232.079509 273.631831 
L 232.679419 275.616302 
L 233.308903 276.961056 
L 233.924925 277.782802 
L 234.497593 278.19711 
L 235.008 278.312727 
L 235.518407 278.19711 
L 236.020507 277.850965 
L 236.573612 277.175862 
L 237.155085 276.0666 
L 237.731247 274.413068 
L 238.213285 272.336336 
L 238.611654 269.594014 
L 238.849823 266.411937 
L 238.90467 262.495049 
L 238.727345 258.180884 
L 238.305518 253.545588 
L 237.633911 248.670597 
L 236.714564 243.641093 
L 235.556933 238.544386 
L 234.177794 233.468266 
L 232.600973 228.499358 
L 230.856898 223.721507 
L 228.981987 219.214226 
L 227.01787 215.051245 
L 225.010488 211.29918 
L 223.009061 208.016351 
L 221.064967 205.251777 
L 219.377947 203.206265 
L 217.823236 201.65109 
L 216.55764 200.674901 
L 215.563053 200.157145 
L 214.81014 199.983914 
L 214.263027 200.05201 
L 213.82838 200.32203 
L 213.51335 200.789729 
L 213.30797 201.559262 
L 213.275442 202.56988 
L 213.453852 203.980217 
L 213.927441 205.863808 
L 214.789956 208.285433 
L 216.012236 211.029657 
L 217.589974 214.047379 
L 219.703633 217.589799 
L 222.20442 221.324355 
L 225.06051 225.178226 
L 228.231569 229.07827 
L 231.669394 232.952493 
L 235.318729 236.731465 
L 239.118248 240.349657 
L 243.001683 243.746679 
L 246.899079 246.868387 
L 250.738153 249.667837 
L 254.445714 252.106076 
L 257.949136 254.152743 
L 261.177842 255.786483 
L 264.064765 256.995155 
L 266.357685 257.727042 
L 268.267846 258.103639 
L 269.640073 258.146476 
L 270.557441 257.951325 
L 271.107788 257.601438 
L 271.377809 257.166791 
L 271.445904 256.619678 
L 271.309068 255.967929 
L 270.899573 255.105788 
L 270.115709 254.002449 
L 268.846722 252.634617 
L 267.167376 251.14553 
L 264.863212 249.403234 
L 262.106013 247.590813 
L 258.621157 245.580758 
L 254.690289 243.585586 
L 250.375317 241.65328 
L 245.745975 239.828104 
L 240.878571 238.149621 
L 235.854606 236.651836 
L 230.759276 235.362492 
L 225.679891 234.302524 
L 220.704242 233.485678 
L 215.918951 232.918322 
L 211.407832 232.599425 
L 207.250301 232.520728 
L 203.519861 232.667085 
L 200.282697 233.016972 
L 197.797987 233.493327 
L 195.813516 234.093237 
L 194.468762 234.722721 
L 193.647016 235.338743 
L 193.232708 235.911411 
L 193.117091 236.421818 
L 193.232708 236.932225 
L 193.578853 237.434325 
L 194.253956 237.987431 
L 195.363218 238.568903 
L 197.01675 239.145065 
L 199.093482 239.627103 
L 201.835805 240.025472 
L 205.017881 240.263641 
L 208.934769 240.318489 
L 213.248934 240.141163 
L 217.88423 239.719337 
L 222.759221 239.047729 
L 227.788725 238.128383 
L 232.885432 236.970751 
L 237.961552 235.591612 
L 242.93046 234.014791 
L 247.708312 232.270716 
L 252.215593 230.395805 
L 256.378573 228.431688 
L 260.130638 226.424306 
L 263.413467 224.422879 
L 266.178041 222.478785 
L 268.223553 220.791765 
L 269.778729 219.237054 
L 270.754917 217.971459 
L 271.272673 216.976871 
L 271.445904 216.223958 
L 271.377809 215.676846 
L 271.107788 215.242198 
L 270.640089 214.927168 
L 269.870556 214.721788 
L 268.859939 214.68926 
L 267.449601 214.86767 
L 265.56601 215.341259 
L 263.144386 216.203774 
L 260.400162 217.426054 
L 257.38244 219.003792 
L 253.840019 221.117451 
L 250.105463 223.618239 
L 246.251592 226.474328 
L 242.351548 229.645387 
L 238.477325 233.083212 
L 234.698354 236.732547 
L 231.080162 240.532066 
L 227.683139 244.415501 
L 224.561432 248.312898 
L 221.761981 252.151971 
L 219.323742 255.859532 
L 217.277075 259.362954 
L 215.643336 262.59166 
L 214.434664 265.478583 
L 213.702776 267.771503 
L 213.326179 269.681664 
L 213.283342 271.053891 
L 213.478494 271.971259 
L 213.82838 272.521606 
L 214.263027 272.791627 
L 214.81014 272.859723 
L 215.461889 272.722886 
L 216.32403 272.313391 
L 217.427369 271.529528 
L 218.795201 270.26054 
L 220.284288 268.581194 
L 222.026584 266.277031 
L 223.839005 263.519831 
L 225.84906 260.034976 
L 227.844233 256.104107 
L 229.776538 251.789136 
L 231.601714 247.159793 
L 233.280197 242.292389 
L 234.777982 237.268424 
L 236.067326 232.173095 
L 237.127294 227.09371 
L 237.94414 222.11806 
L 238.511496 217.332769 
L 238.830393 212.82165 
L 238.90909 208.66412 
L 238.762733 204.933679 
L 238.412846 201.696515 
L 237.936491 199.211806 
L 237.336581 197.227334 
L 236.707097 195.88258 
L 236.091075 195.060834 
L 235.518407 194.646526 
L 235.008 194.530909 
L 234.497593 194.646526 
L 233.995493 194.992672 
L 233.442388 195.667774 
L 232.860915 196.777036 
L 232.284753 198.430568 
L 231.802715 200.507301 
L 231.404346 203.249623 
L 231.166177 206.431699 
L 231.11133 210.348588 
L 231.288655 214.662752 
L 231.710482 219.298048 
L 232.382089 224.173039 
L 233.301436 229.202543 
L 234.459067 234.299251 
L 235.838206 239.375371 
L 237.415027 244.344278 
L 239.159102 249.12213 
L 241.034013 253.629411 
L 242.99813 257.792392 
L 245.005512 261.544457 
L 247.006939 264.827285 
L 248.951033 267.59186 
L 250.638053 269.637371 
L 252.192764 271.192547 
L 253.45836 272.168735 
L 254.452947 272.686491 
L 255.20586 272.859723 
L 255.752973 272.791627 
L 256.18762 272.521606 
L 256.50265 272.053907 
L 256.70803 271.284374 
L 256.740558 270.273757 
L 256.562148 268.863419 
L 256.088559 266.979829 
L 255.226044 264.558204 
L 254.003764 261.81398 
L 252.426026 258.796258 
L 250.312367 255.253838 
L 247.81158 251.519281 
L 244.95549 247.66541 
L 241.784431 243.765367 
L 238.346606 239.891143 
L 234.697271 236.112172 
L 230.897752 232.49398 
L 227.014317 229.096958 
L 223.116921 225.97525 
L 219.277847 223.175799 
L 215.570286 220.73756 
L 212.066864 218.690893 
L 208.838158 217.057154 
L 205.951235 215.848482 
L 203.658315 215.116594 
L 201.748154 214.739997 
L 200.375927 214.69716 
L 199.458559 214.892312 
L 198.908212 215.242198 
L 198.638191 215.676846 
L 198.570096 216.223958 
L 198.706932 216.875707 
L 199.116427 217.737848 
L 199.900291 218.841187 
L 201.169278 220.209019 
L 202.848624 221.698106 
L 205.152788 223.440402 
L 207.909987 225.252823 
L 211.394843 227.262878 
L 215.325711 229.258051 
L 219.640683 231.190357 
L 224.270025 233.015532 
L 229.137429 234.694015 
L 234.161394 236.1918 
L 239.256724 237.481144 
L 244.336109 238.541112 
L 249.311758 239.357958 
L 254.097049 239.925314 
L 258.608168 240.244211 
L 262.765699 240.322908 
L 266.496139 240.176551 
L 269.733303 239.826664 
L 272.218013 239.35031 
L 274.202484 238.7504 
L 275.547238 238.120916 
L 276.368984 237.504894 
L 276.783292 236.932225 
L 276.898909 236.421818 
L 276.898909 236.421818 
" style="fill:none;stroke:#1f77b4;stroke-linecap:square;stroke-width:1.5;"/>
   </g>
   <g id="patch_23">
    <path d="M 188.928 282.501818 
L 188.928 190.341818 
" style="fill:none;stroke:#000000;stroke-linecap:square;stroke-linejoin:miter;stroke-width:1.5;"/>
   </g>
   <g id="patch_24">
    <path d="M 281.088 282.501818 
L 281.088 190.341818 
" style="fill:none;stroke:#000000;stroke-linecap:square;stroke-linejoin:miter;stroke-width:1.5;"/>
   </g>
   <g id="patch_25">
    <path d="M 188.928 282.501818 
L 281.088 282.501818 
" style="fill:none;stroke:#000000;stroke-linecap:square;stroke-linejoin:miter;stroke-width:1.5;"/>
   </g>
   <g id="patch_26">
    <path d="M 188.928 190.341818 
L 281.088 190.341818 
" style="fill:none;stroke:#000000;stroke-linecap:square;stroke-linejoin:miter;stroke-width:1.5;"/>
   </g>
  </g>
  <g id="axes_6">
   <g id="patch_27">
    <path d="M 299.52 282.501818 
L 391.68 282.501818 
L 391.68 190.341818 
L 299.52 190.341818 
z
" style="fill:#ffffff;"/>
   </g>
   <g id="matplotlib.axis_11">
    <g id="xtick_16">
     <g id="line2d_36">
      <g>
       <use style="stroke:#000000;stroke-width:1.5;" x="303.709091" xlink:href="#m23e0d6e2d2" y="282.501818"/>
      </g>
     </g>
     <g id="text_31">
      <!-- −1 -->
      <g transform="translate(293.38956 308.639631)scale(0.14 -0.14)">
       <use xlink:href="#DejaVuSans-8722"/>
       <use x="83.789062" xlink:href="#DejaVuSans-49"/>
      </g>
     </g>
    </g>
    <g id="xtick_17">
     <g id="line2d_37">
      <g>
       <use style="stroke:#000000;stroke-width:1.5;" x="345.6" xlink:href="#m23e0d6e2d2" y="282.501818"/>
      </g>
     </g>
     <g id="text_32">
      <!-- 0 -->
      <g transform="translate(341.14625 308.639631)scale(0.14 -0.14)">
       <use xlink:href="#DejaVuSans-48"/>
      </g>
     </g>
    </g>
    <g id="xtick_18">
     <g id="line2d_38">
      <g>
       <use style="stroke:#000000;stroke-width:1.5;" x="387.490909" xlink:href="#m23e0d6e2d2" y="282.501818"/>
      </g>
     </g>
     <g id="text_33">
      <!-- 1 -->
      <g transform="translate(383.037159 308.639631)scale(0.14 -0.14)">
       <use xlink:href="#DejaVuSans-49"/>
      </g>
     </g>
    </g>
   </g>
   <g id="matplotlib.axis_12">
    <g id="ytick_16">
     <g id="line2d_39">
      <g>
       <use style="stroke:#000000;stroke-width:1.5;" x="299.52" xlink:href="#m6ea96e80a3" y="278.312727"/>
      </g>
     </g>
     <g id="text_34">
      <!-- −1 -->
      <g transform="translate(263.380937 283.631634)scale(0.14 -0.14)">
       <use xlink:href="#DejaVuSans-8722"/>
       <use x="83.789062" xlink:href="#DejaVuSans-49"/>
      </g>
     </g>
    </g>
    <g id="ytick_17">
     <g id="line2d_40">
      <g>
       <use style="stroke:#000000;stroke-width:1.5;" x="299.52" xlink:href="#m6ea96e80a3" y="236.421818"/>
      </g>
     </g>
     <g id="text_35">
      <!-- 0 -->
      <g transform="translate(275.1125 241.740724)scale(0.14 -0.14)">
       <use xlink:href="#DejaVuSans-48"/>
      </g>
     </g>
    </g>
    <g id="ytick_18">
     <g id="line2d_41">
      <g>
       <use style="stroke:#000000;stroke-width:1.5;" x="299.52" xlink:href="#m6ea96e80a3" y="194.530909"/>
      </g>
     </g>
     <g id="text_36">
      <!-- 1 -->
      <g transform="translate(275.1125 199.849815)scale(0.14 -0.14)">
       <use xlink:href="#DejaVuSans-49"/>
      </g>
     </g>
    </g>
   </g>
   <g id="line2d_42">
    <path clip-path="url(#p0e9b73cad6)" d="M 387.490909 236.421818 
L 387.387274 236.057146 
L 386.990156 235.627087 
L 386.298409 235.213918 
L 385.126083 234.765184 
L 383.319679 234.312961 
L 380.721984 233.904243 
L 377.185668 233.602872 
L 373.036867 233.489663 
L 368.362032 233.586657 
L 363.258341 233.908664 
L 357.831568 234.462638 
L 352.193777 235.247288 
L 346.460885 236.252919 
L 340.750146 237.461537 
L 335.177624 238.847181 
L 329.341447 240.535865 
L 323.949282 242.344784 
L 319.129553 244.212494 
L 315.339884 245.904764 
L 312.188084 247.536483 
L 309.731484 249.053117 
L 308.150073 250.274967 
L 307.262044 251.215204 
L 306.890515 251.904507 
L 306.873701 252.383647 
L 307.070876 252.697157 
L 307.457579 252.927518 
L 308.167025 253.088052 
L 309.323247 253.10726 
L 311.058738 252.897155 
L 313.504868 252.35398 
L 316.427024 251.479114 
L 320.164075 250.117653 
L 324.334015 248.355732 
L 328.843312 246.213636 
L 333.592827 243.722294 
L 338.480075 240.922848 
L 343.401532 237.865941 
L 348.254939 234.610741 
L 352.941531 231.223724 
L 357.793161 227.432245 
L 362.217146 223.671033 
L 366.114133 220.045601 
L 369.129285 216.956701 
L 371.590573 214.145203 
L 373.461806 211.68495 
L 374.622611 209.827495 
L 375.232236 208.497812 
L 375.440538 207.605145 
L 375.38091 207.053852 
L 375.166719 206.751711 
L 374.806741 206.596877 
L 374.188469 206.610039 
L 373.221628 206.904703 
L 371.813287 207.613792 
L 369.876285 208.885778 
L 367.610091 210.651312 
L 364.767453 213.169839 
L 361.655038 216.237869 
L 358.350785 219.804672 
L 354.934322 223.807205 
L 351.485034 228.171304 
L 348.080175 232.813141 
L 344.793084 237.640936 
L 341.691532 242.556884 
L 338.566368 247.944756 
L 335.808182 253.178506 
L 333.472367 258.121663 
L 331.749758 262.252411 
L 330.429042 265.941311 
L 329.51862 269.103497 
L 329.048398 271.437002 
L 328.900081 273.236586 
L 329.026437 274.357206 
L 329.27179 274.888671 
L 329.569043 275.123972 
L 329.945616 275.167779 
L 330.494909 274.965467 
L 331.141348 274.484489 
L 332.004553 273.573124 
L 333.113634 272.077282 
L 334.485335 269.833734 
L 336.117054 266.681935 
L 337.809324 262.892265 
L 339.508695 258.536163 
L 341.164297 253.69774 
L 342.729228 248.472059 
L 344.161795 242.963147 
L 345.426596 237.281807 
L 346.495384 231.543255 
L 347.347727 225.864653 
L 348.020996 219.826496 
L 348.413264 214.152542 
L 348.532155 208.984952 
L 348.418946 204.83615 
L 348.117575 201.299834 
L 347.656489 198.449841 
L 347.132826 196.521226 
L 346.603994 195.340982 
L 346.109339 194.733949 
L 345.673106 194.535056 
L 345.308005 194.597246 
L 344.947195 194.866359 
L 344.527387 195.460367 
L 344.067174 196.521226 
L 343.597142 198.205015 
L 343.162877 200.672809 
L 342.852887 203.707325 
L 342.680606 207.680919 
L 342.712641 212.207698 
L 342.966047 217.193491 
L 343.450186 222.534866 
L 344.166268 228.121395 
L 345.107121 233.838057 
L 346.257216 239.567731 
L 347.59293 245.193733 
L 349.239162 251.126991 
L 351.021083 256.653574 
L 352.879233 261.641313 
L 354.579156 265.609021 
L 356.234747 268.958868 
L 357.791635 271.62916 
L 359.063479 273.412422 
L 360.058652 274.484489 
L 360.803655 275.018544 
L 361.335802 275.174426 
L 361.696911 275.092164 
L 361.977717 274.818839 
L 362.20216 274.242593 
L 362.299919 273.236586 
L 362.183755 271.664092 
L 361.749852 269.387767 
L 360.985946 266.618437 
L 359.746961 263.028383 
L 358.10354 258.978802 
L 356.072727 254.561114 
L 353.682292 249.873011 
L 350.970376 245.016216 
L 347.984861 240.094182 
L 344.782476 235.209789 
L 341.427644 230.463077 
L 337.645847 225.513952 
L 333.866006 220.962851 
L 330.193002 216.913175 
L 327.035902 213.740923 
L 324.13322 211.10906 
L 321.560143 209.057824 
L 319.584212 207.730401 
L 317.978372 206.904703 
L 316.8947 206.592598 
L 316.309797 206.615891 
L 315.978654 206.800472 
L 315.794073 207.131616 
L 315.77078 207.716518 
L 315.967764 208.497812 
L 316.479422 209.644074 
L 317.436972 211.241165 
L 318.984813 213.36702 
L 321.272264 216.080674 
L 324.125859 219.094371 
L 327.500051 222.331393 
L 331.336599 225.712554 
L 335.565626 229.158143 
L 340.106977 232.589832 
L 344.871833 235.93251 
L 349.764556 239.115991 
L 354.684723 242.07656 
L 360.005603 245.009281 
L 365.097539 247.543018 
L 369.826272 249.630411 
L 373.702589 251.113497 
L 377.085048 252.188356 
L 379.894548 252.853012 
L 381.876753 253.10726 
L 383.169532 253.070343 
L 383.919654 252.845643 
L 384.270345 252.518729 
L 384.352608 252.15762 
L 384.242056 251.721291 
L 383.853918 251.106121 
L 383.049927 250.274967 
L 381.674183 249.196356 
L 379.560425 247.850764 
L 376.875525 246.403111 
L 373.270333 244.723316 
L 369.075874 243.020589 
L 364.372628 241.346725 
L 359.252569 239.749956 
L 353.817256 238.273657 
L 348.175701 236.95522 
L 342.44205 235.825117 
L 336.733146 234.906179 
L 330.621545 234.15654 
L 324.833737 233.687888 
L 319.514583 233.49587 
L 315.198366 233.548018 
L 311.469944 233.795654 
L 308.407121 234.212154 
L 306.272888 234.704759 
L 304.901591 235.213918 
L 304.123088 235.697836 
L 303.775428 236.129823 
L 303.713238 236.494924 
L 303.858297 236.858952 
L 304.304788 237.28683 
L 305.196807 237.76213 
L 306.694056 238.256576 
L 308.963154 238.726813 
L 311.814016 239.080833 
L 315.604932 239.310015 
L 319.975167 239.341399 
L 324.833737 239.155749 
L 330.079759 238.741334 
L 335.604658 238.094465 
L 341.294531 237.21979 
L 347.032622 236.130348 
L 352.701851 234.847376 
L 358.721476 233.247399 
L 364.372628 231.496911 
L 369.519639 229.653243 
L 373.658588 227.950431 
L 377.200921 226.275873 
L 380.080689 224.683634 
L 382.063224 223.366094 
L 383.440598 222.198472 
L 384.143649 221.316727 
L 384.345961 220.767434 
L 384.302154 220.390861 
L 384.066853 220.093608 
L 383.535388 219.848255 
L 382.738184 219.731257 
L 381.483373 219.765311 
L 379.641414 220.038792 
L 377.085048 220.655281 
L 373.702589 221.73014 
L 369.826272 223.213226 
L 365.544406 225.091819 
L 360.952437 227.342412 
L 356.15075 229.930954 
L 351.242382 232.813364 
L 346.330719 235.936329 
L 341.517203 239.238351 
L 336.899127 242.651032 
L 332.153433 246.444581 
L 327.863966 250.179296 
L 324.125859 253.749266 
L 321.272264 256.762963 
L 318.984813 259.476617 
L 317.295601 261.817903 
L 316.302149 263.551926 
L 315.841531 264.760425 
L 315.762068 265.539436 
L 315.929893 265.988538 
L 316.232033 266.202729 
L 316.677456 266.267568 
L 317.394332 266.14439 
L 318.469893 265.719669 
L 319.992874 264.861413 
L 322.044939 263.423491 
L 324.409862 261.49696 
L 327.341438 258.809026 
L 330.519703 255.585458 
L 333.866006 251.880785 
L 337.30059 247.761524 
L 340.744516 243.304905 
L 344.121523 238.597331 
L 347.359775 233.7326 
L 350.393466 228.809923 
L 353.424851 223.450415 
L 356.072727 218.282522 
L 358.285681 213.441747 
L 359.889247 209.434127 
L 361.087267 205.894748 
L 361.874562 202.90568 
L 362.23619 200.745394 
L 362.290561 199.283635 
L 362.141399 198.379205 
L 361.875339 197.892694 
L 361.561828 197.69552 
L 361.169999 197.690229 
L 360.603827 197.938992 
L 359.823346 198.58122 
L 358.793565 199.775282 
L 357.490776 201.691703 
L 356.072727 204.190078 
L 354.41027 207.604724 
L 352.708858 211.630284 
L 351.021083 216.190063 
L 349.396386 221.195345 
L 347.879728 226.547232 
L 346.510402 232.138713 
L 345.321043 237.856929 
L 344.336835 243.585586 
L 343.511409 249.759279 
L 342.966047 255.650145 
L 342.699699 261.110905 
L 342.688984 265.586433 
L 342.880483 269.499947 
L 343.24948 272.76983 
L 343.708045 275.105654 
L 344.259688 276.825011 
L 344.805268 277.811974 
L 345.235328 278.209092 
L 345.6 278.312727 
L 345.964672 278.209092 
L 346.394732 277.811974 
L 346.807901 277.120227 
L 347.256634 275.947901 
L 347.708857 274.141497 
L 348.117575 271.543802 
L 348.418946 268.007487 
L 348.532155 263.858685 
L 348.435161 259.18385 
L 348.113154 254.080159 
L 347.55918 248.653386 
L 346.774531 243.015595 
L 345.768899 237.282703 
L 344.560281 231.571965 
L 343.174637 225.999443 
L 341.485954 220.163265 
L 339.677034 214.7711 
L 337.809324 209.951371 
L 336.117054 206.161702 
L 334.485335 203.009902 
L 332.968701 200.553302 
L 331.746851 198.971891 
L 330.806614 198.083862 
L 330.117311 197.712334 
L 329.638172 197.69552 
L 329.324661 197.892694 
L 329.094301 198.279397 
L 328.933766 198.988843 
L 328.914558 200.145065 
L 329.124663 201.880557 
L 329.667838 204.326687 
L 330.542704 207.248842 
L 331.904165 210.985893 
L 333.666086 215.155833 
L 335.808182 219.665131 
L 338.299525 224.414646 
L 341.09897 229.301893 
L 344.155877 234.223351 
L 347.411077 239.076758 
L 350.798094 243.76335 
L 354.589573 248.614979 
L 358.350785 253.038965 
L 361.976218 256.935952 
L 365.065117 259.951103 
L 367.876615 262.412391 
L 370.336869 264.283624 
L 372.194324 265.44443 
L 373.524006 266.054054 
L 374.416673 266.262356 
L 374.967967 266.202729 
L 375.270107 265.988538 
L 375.424942 265.628559 
L 375.41178 265.010287 
L 375.117115 264.043446 
L 374.408026 262.635105 
L 373.13604 260.698103 
L 371.370506 258.43191 
L 368.851979 255.589271 
L 365.783949 252.476856 
L 362.217146 249.172603 
L 358.214613 245.756141 
L 353.850514 242.306852 
L 349.208677 238.901993 
L 344.380883 235.614902 
L 339.464934 232.51335 
L 334.077062 229.388187 
L 328.843312 226.630001 
L 323.900155 224.294185 
L 319.769407 222.571576 
L 316.080508 221.25086 
L 312.918321 220.340439 
L 310.584816 219.870217 
L 308.785232 219.721899 
L 307.664612 219.848255 
L 307.133147 220.093608 
L 306.897846 220.390861 
L 306.854039 220.767434 
L 307.056351 221.316727 
L 307.537329 221.963166 
L 308.448695 222.826371 
L 309.944536 223.935452 
L 312.188084 225.307153 
L 315.339884 226.938873 
L 319.129553 228.631142 
L 323.485656 230.330513 
L 328.324078 231.986115 
L 333.549759 233.551046 
L 339.058671 234.983614 
L 344.740011 236.248414 
L 350.478564 237.317202 
L 356.157166 238.169546 
L 362.195322 238.842814 
L 367.869276 239.235082 
L 373.036867 239.353973 
L 377.185668 239.240764 
L 380.721984 238.939393 
L 383.571977 238.478307 
L 385.500592 237.954644 
L 386.680837 237.425812 
L 387.287869 236.931157 
L 387.486762 236.494924 
L 387.490909 236.421818 
L 387.490909 236.421818 
" style="fill:none;stroke:#1f77b4;stroke-linecap:square;stroke-width:1.5;"/>
   </g>
   <g id="patch_28">
    <path d="M 299.52 282.501818 
L 299.52 190.341818 
" style="fill:none;stroke:#000000;stroke-linecap:square;stroke-linejoin:miter;stroke-width:1.5;"/>
   </g>
   <g id="patch_29">
    <path d="M 391.68 282.501818 
L 391.68 190.341818 
" style="fill:none;stroke:#000000;stroke-linecap:square;stroke-linejoin:miter;stroke-width:1.5;"/>
   </g>
   <g id="patch_30">
    <path d="M 299.52 282.501818 
L 391.68 282.501818 
" style="fill:none;stroke:#000000;stroke-linecap:square;stroke-linejoin:miter;stroke-width:1.5;"/>
   </g>
   <g id="patch_31">
    <path d="M 299.52 190.341818 
L 391.68 190.341818 
" style="fill:none;stroke:#000000;stroke-linecap:square;stroke-linejoin:miter;stroke-width:1.5;"/>
   </g>
  </g>
 </g>
 <defs>
  <clipPath id="pdf13bd640e">
   <rect height="92.16" width="92.16" x="78.336" y="52.730182"/>
  </clipPath>
  <clipPath id="pcd04865f15">
   <rect height="92.16" width="92.16" x="188.928" y="52.730182"/>
  </clipPath>
  <clipPath id="p0e99f149f5">
   <rect height="92.16" width="92.16" x="299.52" y="52.730182"/>
  </clipPath>
  <clipPath id="p95be76235b">
   <rect height="92.16" width="92.16" x="78.336" y="190.341818"/>
  </clipPath>
  <clipPath id="pe993eeec15">
   <rect height="92.16" width="92.16" x="188.928" y="190.341818"/>
  </clipPath>
  <clipPath id="p0e9b73cad6">
   <rect height="92.16" width="92.16" x="299.52" y="190.341818"/>
  </clipPath>
 </defs>
</svg>
