<?xml version="1.0" encoding="utf-8" standalone="no"?>
<!DOCTYPE svg PUBLIC "-//W3C//DTD SVG 1.1//EN"
  "http://www.w3.org/Graphics/SVG/1.1/DTD/svg11.dtd">
<!-- Created with matplotlib (https://matplotlib.org/) -->
<svg height="345.6pt" version="1.1" viewBox="0 0 460.8 345.6" width="460.8pt" xmlns="http://www.w3.org/2000/svg" xmlns:xlink="http://www.w3.org/1999/xlink">
 <defs>
  <style type="text/css">
*{stroke-linecap:butt;stroke-linejoin:round;}
  </style>
 </defs>
 <g id="figure_1">
  <g id="patch_1">
   <path d="M 0 345.6 
L 460.8 345.6 
L 460.8 0 
L 0 0 
z
" style="fill:#ffffff;"/>
  </g>
  <g id="axes_1">
   <g id="patch_2">
    <path d="M 78.336 276.20748 
L 391.68 276.20748 
L 391.68 59.02452 
L 78.336 59.02452 
z
" style="fill:#ffffff;"/>
   </g>
   <g id="matplotlib.axis_1">
    <g id="xtick_1">
     <g id="line2d_1">
      <defs>
       <path d="M 0 0 
L 0 12 
" id="mb06cd0d8f2" style="stroke:#000000;stroke-width:1.5;"/>
      </defs>
      <g>
       <use style="stroke:#000000;stroke-width:1.5;" x="130.921996" xlink:href="#mb06cd0d8f2" y="276.20748"/>
      </g>
     </g>
     <g id="text_1">
      <!-- −2 -->
      <defs>
       <path d="M 10.59375 35.5 
L 73.1875 35.5 
L 73.1875 27.203125 
L 10.59375 27.203125 
z
" id="DejaVuSans-8722"/>
       <path d="M 19.1875 8.296875 
L 53.609375 8.296875 
L 53.609375 0 
L 7.328125 0 
L 7.328125 8.296875 
Q 12.9375 14.109375 22.625 23.890625 
Q 32.328125 33.6875 34.8125 36.53125 
Q 39.546875 41.84375 41.421875 45.53125 
Q 43.3125 49.21875 43.3125 52.78125 
Q 43.3125 58.59375 39.234375 62.25 
Q 35.15625 65.921875 28.609375 65.921875 
Q 23.96875 65.921875 18.8125 64.3125 
Q 13.671875 62.703125 7.8125 59.421875 
L 7.8125 69.390625 
Q 13.765625 71.78125 18.9375 73 
Q 24.125 74.21875 28.421875 74.21875 
Q 39.75 74.21875 46.484375 68.546875 
Q 53.21875 62.890625 53.21875 53.421875 
Q 53.21875 48.921875 51.53125 44.890625 
Q 49.859375 40.875 45.40625 35.40625 
Q 44.1875 33.984375 37.640625 27.21875 
Q 31.109375 20.453125 19.1875 8.296875 
z
" id="DejaVuSans-50"/>
      </defs>
      <g transform="translate(120.602465 302.345292)scale(0.14 -0.14)">
       <use xlink:href="#DejaVuSans-8722"/>
       <use x="83.789062" xlink:href="#DejaVuSans-50"/>
      </g>
     </g>
    </g>
    <g id="xtick_2">
     <g id="line2d_2">
      <g>
       <use style="stroke:#000000;stroke-width:1.5;" x="190.443807" xlink:href="#mb06cd0d8f2" y="276.20748"/>
      </g>
     </g>
     <g id="text_2">
      <!-- 0 -->
      <defs>
       <path d="M 31.78125 66.40625 
Q 24.171875 66.40625 20.328125 58.90625 
Q 16.5 51.421875 16.5 36.375 
Q 16.5 21.390625 20.328125 13.890625 
Q 24.171875 6.390625 31.78125 6.390625 
Q 39.453125 6.390625 43.28125 13.890625 
Q 47.125 21.390625 47.125 36.375 
Q 47.125 51.421875 43.28125 58.90625 
Q 39.453125 66.40625 31.78125 66.40625 
z
M 31.78125 74.21875 
Q 44.046875 74.21875 50.515625 64.515625 
Q 56.984375 54.828125 56.984375 36.375 
Q 56.984375 17.96875 50.515625 8.265625 
Q 44.046875 -1.421875 31.78125 -1.421875 
Q 19.53125 -1.421875 13.0625 8.265625 
Q 6.59375 17.96875 6.59375 36.375 
Q 6.59375 54.828125 13.0625 64.515625 
Q 19.53125 74.21875 31.78125 74.21875 
z
" id="DejaVuSans-48"/>
      </defs>
      <g transform="translate(185.990057 302.345292)scale(0.14 -0.14)">
       <use xlink:href="#DejaVuSans-48"/>
      </g>
     </g>
    </g>
    <g id="xtick_3">
     <g id="line2d_3">
      <g>
       <use style="stroke:#000000;stroke-width:1.5;" x="249.965618" xlink:href="#mb06cd0d8f2" y="276.20748"/>
      </g>
     </g>
     <g id="text_3">
      <!-- 2 -->
      <g transform="translate(245.511868 302.345292)scale(0.14 -0.14)">
       <use xlink:href="#DejaVuSans-50"/>
      </g>
     </g>
    </g>
    <g id="xtick_4">
     <g id="line2d_4">
      <g>
       <use style="stroke:#000000;stroke-width:1.5;" x="309.487429" xlink:href="#mb06cd0d8f2" y="276.20748"/>
      </g>
     </g>
     <g id="text_4">
      <!-- 4 -->
      <defs>
       <path d="M 37.796875 64.3125 
L 12.890625 25.390625 
L 37.796875 25.390625 
z
M 35.203125 72.90625 
L 47.609375 72.90625 
L 47.609375 25.390625 
L 58.015625 25.390625 
L 58.015625 17.1875 
L 47.609375 17.1875 
L 47.609375 0 
L 37.796875 0 
L 37.796875 17.1875 
L 4.890625 17.1875 
L 4.890625 26.703125 
z
" id="DejaVuSans-52"/>
      </defs>
      <g transform="translate(305.033679 302.345292)scale(0.14 -0.14)">
       <use xlink:href="#DejaVuSans-52"/>
      </g>
     </g>
    </g>
    <g id="xtick_5">
     <g id="line2d_5">
      <g>
       <use style="stroke:#000000;stroke-width:1.5;" x="369.00924" xlink:href="#mb06cd0d8f2" y="276.20748"/>
      </g>
     </g>
     <g id="text_5">
      <!-- 6 -->
      <defs>
       <path d="M 33.015625 40.375 
Q 26.375 40.375 22.484375 35.828125 
Q 18.609375 31.296875 18.609375 23.390625 
Q 18.609375 15.53125 22.484375 10.953125 
Q 26.375 6.390625 33.015625 6.390625 
Q 39.65625 6.390625 43.53125 10.953125 
Q 47.40625 15.53125 47.40625 23.390625 
Q 47.40625 31.296875 43.53125 35.828125 
Q 39.65625 40.375 33.015625 40.375 
z
M 52.59375 71.296875 
L 52.59375 62.3125 
Q 48.875 64.0625 45.09375 64.984375 
Q 41.3125 65.921875 37.59375 65.921875 
Q 27.828125 65.921875 22.671875 59.328125 
Q 17.53125 52.734375 16.796875 39.40625 
Q 19.671875 43.65625 24.015625 45.921875 
Q 28.375 48.1875 33.59375 48.1875 
Q 44.578125 48.1875 50.953125 41.515625 
Q 57.328125 34.859375 57.328125 23.390625 
Q 57.328125 12.15625 50.6875 5.359375 
Q 44.046875 -1.421875 33.015625 -1.421875 
Q 20.359375 -1.421875 13.671875 8.265625 
Q 6.984375 17.96875 6.984375 36.375 
Q 6.984375 53.65625 15.1875 63.9375 
Q 23.390625 74.21875 37.203125 74.21875 
Q 40.921875 74.21875 44.703125 73.484375 
Q 48.484375 72.75 52.59375 71.296875 
z
" id="DejaVuSans-54"/>
      </defs>
      <g transform="translate(364.55549 302.345292)scale(0.14 -0.14)">
       <use xlink:href="#DejaVuSans-54"/>
      </g>
     </g>
    </g>
   </g>
   <g id="matplotlib.axis_2">
    <g id="ytick_1">
     <g id="line2d_6">
      <defs>
       <path d="M 0 0 
L -12 0 
" id="mf869e62505" style="stroke:#000000;stroke-width:1.5;"/>
      </defs>
      <g>
       <use style="stroke:#000000;stroke-width:1.5;" x="78.336" xlink:href="#mf869e62505" y="242.096166"/>
      </g>
     </g>
     <g id="text_6">
      <!-- −4 -->
      <g transform="translate(42.196938 247.415073)scale(0.14 -0.14)">
       <use xlink:href="#DejaVuSans-8722"/>
       <use x="83.789062" xlink:href="#DejaVuSans-52"/>
      </g>
     </g>
    </g>
    <g id="ytick_2">
     <g id="line2d_7">
      <g>
       <use style="stroke:#000000;stroke-width:1.5;" x="78.336" xlink:href="#mf869e62505" y="182.574355"/>
      </g>
     </g>
     <g id="text_7">
      <!-- −2 -->
      <g transform="translate(42.196938 187.893262)scale(0.14 -0.14)">
       <use xlink:href="#DejaVuSans-8722"/>
       <use x="83.789062" xlink:href="#DejaVuSans-50"/>
      </g>
     </g>
    </g>
    <g id="ytick_3">
     <g id="line2d_8">
      <g>
       <use style="stroke:#000000;stroke-width:1.5;" x="78.336" xlink:href="#mf869e62505" y="123.052544"/>
      </g>
     </g>
     <g id="text_8">
      <!-- 0 -->
      <g transform="translate(53.9285 128.371451)scale(0.14 -0.14)">
       <use xlink:href="#DejaVuSans-48"/>
      </g>
     </g>
    </g>
    <g id="ytick_4">
     <g id="line2d_9">
      <g>
       <use style="stroke:#000000;stroke-width:1.5;" x="78.336" xlink:href="#mf869e62505" y="63.530734"/>
      </g>
     </g>
     <g id="text_9">
      <!-- 2 -->
      <g transform="translate(53.9285 68.84964)scale(0.14 -0.14)">
       <use xlink:href="#DejaVuSans-50"/>
      </g>
     </g>
    </g>
   </g>
   <g id="line2d_10">
    <path clip-path="url(#p8aa208f906)" d="M 190.443807 123.052544 
L 192.258406 122.941559 
L 194.052685 122.60943 
L 195.806451 122.058637 
L 197.49976 121.293298 
L 199.113048 120.319143 
L 200.627248 119.143488 
L 202.023912 117.775187 
L 203.285328 116.224587 
L 204.394631 114.503469 
L 205.335911 112.624981 
L 206.094321 110.603563 
L 206.656168 108.454869 
L 207.001932 106.261596 
L 207.140253 103.980348 
L 207.062185 101.628261 
L 206.760096 99.223206 
L 206.227726 96.783691 
L 205.460237 94.328764 
L 204.454245 91.877905 
L 203.247962 89.521777 
L 201.814858 87.206449 
L 200.15594 84.95033 
L 198.273585 82.771829 
L 196.171548 80.689259 
L 193.928246 78.778544 
L 191.489082 76.991336 
L 188.861137 75.343559 
L 186.052661 73.850713 
L 183.168646 72.566422 
L 180.133546 71.454727 
L 176.957839 70.528166 
L 173.652915 69.798638 
L 170.231035 69.277335 
L 166.820504 68.98094 
L 163.325257 68.898051 
L 159.758496 69.036629 
L 156.13402 69.403826 
L 152.466175 70.005949 
L 148.893312 70.816413 
L 145.307587 71.855552 
L 141.723137 73.126618 
L 138.154388 74.632012 
L 134.616008 76.373259 
L 131.242386 78.278861 
L 127.924409 80.404703 
L 124.675638 82.749759 
L 121.50966 85.312202 
L 118.440041 88.089394 
L 115.583944 90.967566 
L 112.842002 94.038419 
L 110.226084 97.297451 
L 107.747878 100.73947 
L 105.418857 104.358597 
L 103.250241 108.148275 
L 101.252953 112.101285 
L 99.50146 116.054912 
L 97.927805 120.145112 
L 96.540779 124.363763 
L 95.348796 128.702229 
L 94.359868 133.151373 
L 93.58157 137.701581 
L 93.02102 142.342776 
L 92.693554 146.881488 
L 92.578991 151.484902 
L 92.682325 156.14298 
L 93.008074 160.845375 
L 93.560265 165.581446 
L 94.342413 170.340293 
L 95.357512 175.11077 
L 96.608015 179.88152 
L 98.031738 184.450976 
L 99.67536 188.999681 
L 101.53959 193.517159 
L 103.624639 197.99284 
L 105.93022 202.416085 
L 108.455537 206.776209 
L 111.199285 211.062502 
L 114.159644 215.264257 
L 117.334277 219.370793 
L 120.575068 223.207033 
L 124.007075 226.936767 
L 127.626908 230.550783 
L 131.430743 234.039976 
L 135.414325 237.395362 
L 139.572975 240.608101 
L 143.901591 243.669516 
L 148.394657 246.571111 
L 153.046246 249.304594 
L 157.850031 251.861892 
L 162.799291 254.235173 
L 167.662942 256.326093 
L 172.646656 258.235327 
L 177.74359 259.956731 
L 182.946605 261.484419 
L 188.248278 262.81278 
L 193.640911 263.936489 
L 199.116543 264.850522 
L 204.66696 265.550164 
L 210.283711 266.031027 
L 215.958116 266.289057 
L 221.681283 266.320548 
L 227.444122 266.122147 
L 233.237356 265.69087 
L 238.786938 265.059559 
L 244.347262 264.211739 
L 249.909864 263.145795 
L 255.466176 261.860439 
L 261.007543 260.354725 
L 266.525228 258.628043 
L 272.010435 256.680132 
L 277.454314 254.511081 
L 282.847982 252.12133 
L 288.182532 249.511677 
L 293.44905 246.683276 
L 298.638627 243.637642 
L 303.742377 240.376648 
L 308.751448 236.902532 
L 313.657039 233.217888 
L 318.224828 229.515678 
L 322.683351 225.628049 
L 327.025203 221.558154 
L 331.243067 217.309433 
L 335.329726 212.88562 
L 339.278074 208.290733 
L 343.081126 203.529074 
L 346.732032 198.605224 
L 350.224083 193.524043 
L 353.550728 188.290658 
L 356.705581 182.910466 
L 359.682431 177.389122 
L 362.475256 171.732538 
L 365.078231 165.946873 
L 367.485737 160.038531 
L 369.692372 154.014148 
L 371.692963 147.880591 
L 373.482571 141.644944 
L 375.056502 135.314506 
L 376.347919 129.219619 
L 377.437091 123.052544 
L 377.437091 123.052544 
" style="fill:none;stroke:#1f77b4;stroke-linecap:square;stroke-width:1.5;"/>
   </g>
   <g id="patch_3">
    <path d="M 78.336 276.20748 
L 78.336 59.02452 
" style="fill:none;stroke:#000000;stroke-linecap:square;stroke-linejoin:miter;stroke-width:1.5;"/>
   </g>
   <g id="patch_4">
    <path d="M 391.68 276.20748 
L 391.68 59.02452 
" style="fill:none;stroke:#000000;stroke-linecap:square;stroke-linejoin:miter;stroke-width:1.5;"/>
   </g>
   <g id="patch_5">
    <path d="M 78.336 276.20748 
L 391.68 276.20748 
" style="fill:none;stroke:#000000;stroke-linecap:square;stroke-linejoin:miter;stroke-width:1.5;"/>
   </g>
   <g id="patch_6">
    <path d="M 78.336 59.02452 
L 391.68 59.02452 
" style="fill:none;stroke:#000000;stroke-linecap:square;stroke-linejoin:miter;stroke-width:1.5;"/>
   </g>
  </g>
 </g>
 <defs>
  <clipPath id="p8aa208f906">
   <rect height="217.18296" width="313.344" x="78.336" y="59.02452"/>
  </clipPath>
 </defs>
</svg>
