<?xml version="1.0" encoding="utf-8" standalone="no"?>
<!DOCTYPE svg PUBLIC "-//W3C//DTD SVG 1.1//EN"
  "http://www.w3.org/Graphics/SVG/1.1/DTD/svg11.dtd">
<!-- Created with matplotlib (https://matplotlib.org/) -->
<svg height="345.6pt" version="1.1" viewBox="0 0 460.8 345.6" width="460.8pt" xmlns="http://www.w3.org/2000/svg" xmlns:xlink="http://www.w3.org/1999/xlink">
 <defs>
  <style type="text/css">
*{stroke-linecap:butt;stroke-linejoin:round;}
  </style>
 </defs>
 <g id="figure_1">
  <g id="patch_1">
   <path d="M 0 345.6 
L 460.8 345.6 
L 460.8 0 
L 0 0 
z
" style="fill:#ffffff;"/>
  </g>
  <g id="axes_1">
   <g id="patch_2">
    <path d="M 123.03044 293.76 
L 346.98556 293.76 
L 346.98556 41.472 
L 123.03044 41.472 
z
" style="fill:#ffffff;"/>
   </g>
   <g id="matplotlib.axis_1">
    <g id="xtick_1">
     <g id="line2d_1">
      <defs>
       <path d="M 0 0 
L 0 12 
" id="m5d9d46bc80" style="stroke:#000000;stroke-width:1.5;"/>
      </defs>
      <g>
       <use style="stroke:#000000;stroke-width:1.5;" x="141.353826" xlink:href="#m5d9d46bc80" y="293.76"/>
      </g>
     </g>
     <g id="text_1">
      <!-- −0.5 -->
      <defs>
       <path d="M 10.59375 35.5 
L 73.1875 35.5 
L 73.1875 27.203125 
L 10.59375 27.203125 
z
" id="DejaVuSans-8722"/>
       <path d="M 31.78125 66.40625 
Q 24.171875 66.40625 20.328125 58.90625 
Q 16.5 51.421875 16.5 36.375 
Q 16.5 21.390625 20.328125 13.890625 
Q 24.171875 6.390625 31.78125 6.390625 
Q 39.453125 6.390625 43.28125 13.890625 
Q 47.125 21.390625 47.125 36.375 
Q 47.125 51.421875 43.28125 58.90625 
Q 39.453125 66.40625 31.78125 66.40625 
z
M 31.78125 74.21875 
Q 44.046875 74.21875 50.515625 64.515625 
Q 56.984375 54.828125 56.984375 36.375 
Q 56.984375 17.96875 50.515625 8.265625 
Q 44.046875 -1.421875 31.78125 -1.421875 
Q 19.53125 -1.421875 13.0625 8.265625 
Q 6.59375 17.96875 6.59375 36.375 
Q 6.59375 54.828125 13.0625 64.515625 
Q 19.53125 74.21875 31.78125 74.21875 
z
" id="DejaVuSans-48"/>
       <path d="M 10.6875 12.40625 
L 21 12.40625 
L 21 0 
L 10.6875 0 
z
" id="DejaVuSans-46"/>
       <path d="M 10.796875 72.90625 
L 49.515625 72.90625 
L 49.515625 64.59375 
L 19.828125 64.59375 
L 19.828125 46.734375 
Q 21.96875 47.46875 24.109375 47.828125 
Q 26.265625 48.1875 28.421875 48.1875 
Q 40.625 48.1875 47.75 41.5 
Q 54.890625 34.8125 54.890625 23.390625 
Q 54.890625 11.625 47.5625 5.09375 
Q 40.234375 -1.421875 26.90625 -1.421875 
Q 22.3125 -1.421875 17.546875 -0.640625 
Q 12.796875 0.140625 7.71875 1.703125 
L 7.71875 11.625 
Q 12.109375 9.234375 16.796875 8.0625 
Q 21.484375 6.890625 26.703125 6.890625 
Q 35.15625 6.890625 40.078125 11.328125 
Q 45.015625 15.765625 45.015625 23.390625 
Q 45.015625 31 40.078125 35.4375 
Q 35.15625 39.890625 26.703125 39.890625 
Q 22.75 39.890625 18.8125 39.015625 
Q 14.890625 38.140625 10.796875 36.28125 
z
" id="DejaVuSans-53"/>
      </defs>
      <g transform="translate(124.355857 319.897812)scale(0.14 -0.14)">
       <use xlink:href="#DejaVuSans-8722"/>
       <use x="83.789062" xlink:href="#DejaVuSans-48"/>
       <use x="147.412109" xlink:href="#DejaVuSans-46"/>
       <use x="179.199219" xlink:href="#DejaVuSans-53"/>
      </g>
     </g>
    </g>
    <g id="xtick_2">
     <g id="line2d_2">
      <g>
       <use style="stroke:#000000;stroke-width:1.5;" x="206.504478" xlink:href="#m5d9d46bc80" y="293.76"/>
      </g>
     </g>
     <g id="text_2">
      <!-- 0.0 -->
      <g transform="translate(195.37229 319.897812)scale(0.14 -0.14)">
       <use xlink:href="#DejaVuSans-48"/>
       <use x="63.623047" xlink:href="#DejaVuSans-46"/>
       <use x="95.410156" xlink:href="#DejaVuSans-48"/>
      </g>
     </g>
    </g>
    <g id="xtick_3">
     <g id="line2d_3">
      <g>
       <use style="stroke:#000000;stroke-width:1.5;" x="271.65513" xlink:href="#m5d9d46bc80" y="293.76"/>
      </g>
     </g>
     <g id="text_3">
      <!-- 0.5 -->
      <g transform="translate(260.522942 319.897812)scale(0.14 -0.14)">
       <use xlink:href="#DejaVuSans-48"/>
       <use x="63.623047" xlink:href="#DejaVuSans-46"/>
       <use x="95.410156" xlink:href="#DejaVuSans-53"/>
      </g>
     </g>
    </g>
    <g id="xtick_4">
     <g id="line2d_4">
      <g>
       <use style="stroke:#000000;stroke-width:1.5;" x="336.805782" xlink:href="#m5d9d46bc80" y="293.76"/>
      </g>
     </g>
     <g id="text_4">
      <!-- 1.0 -->
      <defs>
       <path d="M 12.40625 8.296875 
L 28.515625 8.296875 
L 28.515625 63.921875 
L 10.984375 60.40625 
L 10.984375 69.390625 
L 28.421875 72.90625 
L 38.28125 72.90625 
L 38.28125 8.296875 
L 54.390625 8.296875 
L 54.390625 0 
L 12.40625 0 
z
" id="DejaVuSans-49"/>
      </defs>
      <g transform="translate(325.673594 319.897812)scale(0.14 -0.14)">
       <use xlink:href="#DejaVuSans-49"/>
       <use x="63.623047" xlink:href="#DejaVuSans-46"/>
       <use x="95.410156" xlink:href="#DejaVuSans-48"/>
      </g>
     </g>
    </g>
   </g>
   <g id="matplotlib.axis_2">
    <g id="ytick_1">
     <g id="line2d_5">
      <defs>
       <path d="M 0 0 
L -12 0 
" id="meac5d54378" style="stroke:#000000;stroke-width:1.5;"/>
      </defs>
      <g>
       <use style="stroke:#000000;stroke-width:1.5;" x="123.03044" xlink:href="#meac5d54378" y="265.341978"/>
      </g>
     </g>
     <g id="text_5">
      <!-- −0.75 -->
      <defs>
       <path d="M 8.203125 72.90625 
L 55.078125 72.90625 
L 55.078125 68.703125 
L 28.609375 0 
L 18.3125 0 
L 43.21875 64.59375 
L 8.203125 64.59375 
z
" id="DejaVuSans-55"/>
      </defs>
      <g transform="translate(64.627003 270.660884)scale(0.14 -0.14)">
       <use xlink:href="#DejaVuSans-8722"/>
       <use x="83.789062" xlink:href="#DejaVuSans-48"/>
       <use x="147.412109" xlink:href="#DejaVuSans-46"/>
       <use x="179.199219" xlink:href="#DejaVuSans-55"/>
       <use x="242.822266" xlink:href="#DejaVuSans-53"/>
      </g>
     </g>
    </g>
    <g id="ytick_2">
     <g id="line2d_6">
      <g>
       <use style="stroke:#000000;stroke-width:1.5;" x="123.03044" xlink:href="#meac5d54378" y="232.766652"/>
      </g>
     </g>
     <g id="text_6">
      <!-- −0.50 -->
      <g transform="translate(64.627003 238.085558)scale(0.14 -0.14)">
       <use xlink:href="#DejaVuSans-8722"/>
       <use x="83.789062" xlink:href="#DejaVuSans-48"/>
       <use x="147.412109" xlink:href="#DejaVuSans-46"/>
       <use x="179.199219" xlink:href="#DejaVuSans-53"/>
       <use x="242.822266" xlink:href="#DejaVuSans-48"/>
      </g>
     </g>
    </g>
    <g id="ytick_3">
     <g id="line2d_7">
      <g>
       <use style="stroke:#000000;stroke-width:1.5;" x="123.03044" xlink:href="#meac5d54378" y="200.191326"/>
      </g>
     </g>
     <g id="text_7">
      <!-- −0.25 -->
      <defs>
       <path d="M 19.1875 8.296875 
L 53.609375 8.296875 
L 53.609375 0 
L 7.328125 0 
L 7.328125 8.296875 
Q 12.9375 14.109375 22.625 23.890625 
Q 32.328125 33.6875 34.8125 36.53125 
Q 39.546875 41.84375 41.421875 45.53125 
Q 43.3125 49.21875 43.3125 52.78125 
Q 43.3125 58.59375 39.234375 62.25 
Q 35.15625 65.921875 28.609375 65.921875 
Q 23.96875 65.921875 18.8125 64.3125 
Q 13.671875 62.703125 7.8125 59.421875 
L 7.8125 69.390625 
Q 13.765625 71.78125 18.9375 73 
Q 24.125 74.21875 28.421875 74.21875 
Q 39.75 74.21875 46.484375 68.546875 
Q 53.21875 62.890625 53.21875 53.421875 
Q 53.21875 48.921875 51.53125 44.890625 
Q 49.859375 40.875 45.40625 35.40625 
Q 44.1875 33.984375 37.640625 27.21875 
Q 31.109375 20.453125 19.1875 8.296875 
z
" id="DejaVuSans-50"/>
      </defs>
      <g transform="translate(64.627003 205.510232)scale(0.14 -0.14)">
       <use xlink:href="#DejaVuSans-8722"/>
       <use x="83.789062" xlink:href="#DejaVuSans-48"/>
       <use x="147.412109" xlink:href="#DejaVuSans-46"/>
       <use x="179.199219" xlink:href="#DejaVuSans-50"/>
       <use x="242.822266" xlink:href="#DejaVuSans-53"/>
      </g>
     </g>
    </g>
    <g id="ytick_4">
     <g id="line2d_8">
      <g>
       <use style="stroke:#000000;stroke-width:1.5;" x="123.03044" xlink:href="#meac5d54378" y="167.616"/>
      </g>
     </g>
     <g id="text_8">
      <!-- 0.00 -->
      <g transform="translate(76.358565 172.934906)scale(0.14 -0.14)">
       <use xlink:href="#DejaVuSans-48"/>
       <use x="63.623047" xlink:href="#DejaVuSans-46"/>
       <use x="95.410156" xlink:href="#DejaVuSans-48"/>
       <use x="159.033203" xlink:href="#DejaVuSans-48"/>
      </g>
     </g>
    </g>
    <g id="ytick_5">
     <g id="line2d_9">
      <g>
       <use style="stroke:#000000;stroke-width:1.5;" x="123.03044" xlink:href="#meac5d54378" y="135.040674"/>
      </g>
     </g>
     <g id="text_9">
      <!-- 0.25 -->
      <g transform="translate(76.358565 140.35958)scale(0.14 -0.14)">
       <use xlink:href="#DejaVuSans-48"/>
       <use x="63.623047" xlink:href="#DejaVuSans-46"/>
       <use x="95.410156" xlink:href="#DejaVuSans-50"/>
       <use x="159.033203" xlink:href="#DejaVuSans-53"/>
      </g>
     </g>
    </g>
    <g id="ytick_6">
     <g id="line2d_10">
      <g>
       <use style="stroke:#000000;stroke-width:1.5;" x="123.03044" xlink:href="#meac5d54378" y="102.465348"/>
      </g>
     </g>
     <g id="text_10">
      <!-- 0.50 -->
      <g transform="translate(76.358565 107.784254)scale(0.14 -0.14)">
       <use xlink:href="#DejaVuSans-48"/>
       <use x="63.623047" xlink:href="#DejaVuSans-46"/>
       <use x="95.410156" xlink:href="#DejaVuSans-53"/>
       <use x="159.033203" xlink:href="#DejaVuSans-48"/>
      </g>
     </g>
    </g>
    <g id="ytick_7">
     <g id="line2d_11">
      <g>
       <use style="stroke:#000000;stroke-width:1.5;" x="123.03044" xlink:href="#meac5d54378" y="69.890022"/>
      </g>
     </g>
     <g id="text_11">
      <!-- 0.75 -->
      <g transform="translate(76.358565 75.208928)scale(0.14 -0.14)">
       <use xlink:href="#DejaVuSans-48"/>
       <use x="63.623047" xlink:href="#DejaVuSans-46"/>
       <use x="95.410156" xlink:href="#DejaVuSans-55"/>
       <use x="159.033203" xlink:href="#DejaVuSans-53"/>
      </g>
     </g>
    </g>
   </g>
   <g id="line2d_12">
    <path clip-path="url(#p861eed7379)" d="M 336.805782 167.616 
L 336.708553 166.025178 
L 336.359593 164.215624 
L 335.757843 162.424649 
L 334.904897 160.662082 
L 333.803015 158.937656 
L 332.455114 157.260973 
L 330.864761 155.641467 
L 329.036164 154.088376 
L 326.974152 152.610709 
L 324.38219 151.049368 
L 321.510373 149.606557 
L 318.368274 148.293767 
L 314.96635 147.121916 
L 311.315907 146.101303 
L 307.429053 145.24156 
L 303.318653 144.55161 
L 298.998284 144.039624 
L 294.482181 143.712987 
L 289.785183 143.57826 
L 284.92268 143.64115 
L 279.345121 143.94864 
L 273.605261 144.511347 
L 267.726065 145.333165 
L 261.730945 146.416545 
L 255.64366 147.762482 
L 249.488199 149.370493 
L 243.288676 151.23862 
L 237.069218 153.363428 
L 230.853855 155.740015 
L 224.666412 158.362033 
L 218.530396 161.221706 
L 212.468898 164.309868 
L 206.504478 167.616 
L 200.659074 171.128273 
L 194.953897 174.833604 
L 189.40934 178.717712 
L 184.044885 182.765187 
L 178.879018 186.959555 
L 173.929152 191.28336 
L 169.211545 195.718241 
L 164.741236 200.245021 
L 160.531978 204.843796 
L 156.596183 209.494032 
L 152.94487 214.174657 
L 149.587622 218.864168 
L 146.532547 223.54073 
L 143.786255 228.182284 
L 141.353826 232.766652 
L 139.238805 237.271644 
L 137.608352 241.240006 
L 136.237021 245.110208 
L 135.124187 248.86648 
L 134.268224 252.493312 
L 133.666515 255.975515 
L 133.315472 259.298284 
L 133.210553 262.447258 
L 133.346286 265.408574 
L 133.716299 268.168926 
L 134.236042 270.443584 
L 134.929539 272.540937 
L 135.790645 274.452948 
L 136.812735 276.172047 
L 137.988729 277.691154 
L 139.311116 279.003709 
L 140.771981 280.103687 
L 142.363033 280.98562 
L 144.075633 281.644617 
L 145.900825 282.076383 
L 147.829364 282.277227 
L 149.85175 282.244084 
L 151.958262 281.97452 
L 154.138987 281.466744 
L 156.383854 280.719616 
L 158.682673 279.732653 
L 161.025162 278.50603 
L 163.699794 276.840681 
L 166.401875 274.875284 
L 169.116697 272.613087 
L 171.829643 270.058386 
L 174.526253 267.216507 
L 177.192282 264.093799 
L 179.813758 260.697604 
L 182.377046 257.036239 
L 184.868901 253.118968 
L 187.276524 248.955967 
L 189.837931 244.055686 
L 192.264109 238.882087 
L 194.539911 233.45276 
L 196.651192 227.786433 
L 198.584878 221.902884 
L 200.329037 215.822858 
L 201.872937 209.567973 
L 203.207103 203.160627 
L 204.323363 196.623897 
L 205.214895 189.981438 
L 205.876255 183.257376 
L 206.303412 176.4762 
L 206.493762 169.662656 
L 206.446145 162.841633 
L 206.160853 156.038055 
L 205.639622 149.276767 
L 204.885629 142.582425 
L 203.903475 135.979387 
L 202.699157 129.491602 
L 201.280043 123.142507 
L 199.654831 116.954919 
L 197.833505 110.950936 
L 195.827283 105.151839 
L 193.648564 99.577996 
L 191.310856 94.248775 
L 188.828716 89.182458 
L 186.217668 84.396161 
L 183.494128 79.905761 
L 180.675315 75.725826 
L 178.071738 72.24027 
L 175.419024 69.025534 
L 172.731037 66.089291 
L 170.021939 63.438221 
L 167.306124 61.077995 
L 164.598165 59.013252 
L 161.912746 57.24759 
L 159.264604 55.783556 
L 156.668466 54.622635 
L 154.416295 53.845541 
L 152.226999 53.307895 
L 150.110665 53.008639 
L 148.077227 52.946063 
L 146.136433 53.117814 
L 144.297812 53.520904 
L 142.570642 54.15172 
L 140.963917 55.006041 
L 139.486317 56.07905 
L 138.14618 57.365351 
L 136.951467 58.858988 
L 135.909743 60.553465 
L 135.028142 62.441766 
L 134.313348 64.516381 
L 133.771567 66.769331 
L 133.408506 69.19219 
L 133.229354 71.776117 
L 133.253403 74.864052 
L 133.521854 78.130462 
L 134.039561 81.561145 
L 134.810434 85.141436 
L 135.837414 88.85627 
L 137.12246 92.690236 
L 138.666532 96.627644 
L 140.469582 100.652586 
L 142.53055 104.748996 
L 144.847358 108.900719 
L 147.416919 113.09157 
L 150.563408 117.774325 
L 154.009795 122.463449 
L 157.747525 127.137198 
L 161.76658 131.774185 
L 166.055519 136.353492 
L 170.601521 140.854761 
L 175.390441 145.258297 
L 180.406869 149.545159 
L 185.634191 153.697249 
L 191.054665 157.697396 
L 196.649496 161.529439 
L 202.398922 165.178299 
L 208.282292 168.630047 
L 214.278169 171.871972 
L 220.364418 174.892631 
L 226.518307 177.681907 
L 232.716611 180.231048 
L 238.935715 182.532703 
L 245.151723 184.580954 
L 251.340562 186.37134 
L 257.478099 187.900867 
L 263.540245 189.16802 
L 269.503069 190.172761 
L 275.342904 190.916522 
L 281.036462 191.40219 
L 286.560933 191.634087 
L 291.894097 191.617939 
L 297.014423 191.36084 
L 301.42358 190.930368 
L 305.629016 190.31855 
L 309.616855 189.533212 
L 313.373911 188.582949 
L 316.887732 187.477082 
L 320.146651 186.22562 
L 323.139829 184.83921 
L 325.857295 183.329096 
L 328.289983 181.707064 
L 330.206711 180.181215 
L 331.886932 178.585543 
L 333.326205 176.929205 
L 334.520721 175.221566 
L 335.467318 173.472168 
L 336.163489 171.690699 
L 336.60739 169.886955 
L 336.797843 168.070811 
L 336.734345 166.252186 
L 336.417063 164.441005 
L 335.846838 162.647168 
L 335.025182 160.880515 
L 333.95427 159.150794 
L 332.63694 157.467623 
L 331.076677 155.84046 
L 329.277608 154.27857 
L 327.244488 152.790991 
L 324.982686 151.386504 
L 322.172264 149.916342 
L 319.089354 148.573694 
L 315.744221 147.36961 
L 312.147986 146.314532 
L 308.312582 145.418244 
L 304.25071 144.689828 
L 299.975793 144.137629 
L 295.501924 143.769206 
L 290.843813 143.591309 
L 286.016733 143.609835 
L 280.474343 143.866875 
L 274.765122 144.378181 
L 268.911933 145.147934 
L 262.938107 146.178875 
L 256.867341 147.472292 
L 250.723588 149.027998 
L 244.530946 150.844329 
L 238.313548 152.918146 
L 232.095453 155.244839 
L 225.900533 157.818348 
L 219.75237 160.631179 
L 213.674145 163.674442 
L 207.688533 166.937885 
L 201.817604 170.409937 
L 196.082723 174.077762 
L 190.504453 177.927312 
L 185.102465 181.943399 
L 179.895453 186.109754 
L 174.901048 190.409113 
L 170.135746 194.823288 
L 165.614835 199.333258 
L 161.35233 203.919259 
L 157.360916 208.560872 
L 153.651893 213.237127 
L 150.235135 217.926599 
L 147.119049 222.60751 
L 144.310545 227.257838 
L 141.81501 231.855419 
L 139.636298 236.378058 
L 137.948279 240.366071 
L 136.519384 244.259458 
L 135.349212 248.042398 
L 134.436358 251.699319 
L 133.778424 255.214955 
L 133.372037 258.574412 
L 133.212864 261.763224 
L 133.295638 264.767412 
L 133.614185 267.573542 
L 134.089587 269.891218 
L 134.740203 272.033669 
L 135.560009 273.992744 
L 136.5425 275.760753 
L 137.680705 277.330494 
L 138.967221 278.695274 
L 140.39423 279.84893 
L 141.953532 280.785856 
L 143.636573 281.501013 
L 145.434473 281.989957 
L 147.338056 282.248843 
L 149.337883 282.27445 
L 151.424286 282.064184 
L 153.587396 281.616094 
L 155.817179 280.928875 
L 158.103471 280.00188 
L 160.43601 278.83512 
L 163.10254 277.236782 
L 165.799795 275.337819 
L 168.513053 273.141243 
L 171.227672 270.651118 
L 173.929152 267.872544 
L 176.603194 264.811643 
L 179.235762 261.475537 
L 181.81314 257.872332 
L 184.321992 254.011081 
L 186.749414 249.901762 
L 189.335967 245.05815 
L 191.790432 239.937845 
L 194.097474 234.558201 
L 196.242741 228.937724 
L 198.212938 223.095989 
L 199.9959 217.053555 
L 201.580651 210.831874 
L 202.95746 204.453194 
L 204.117891 197.940466 
L 205.054848 191.317236 
L 205.762611 184.607545 
L 206.236863 177.835819 
L 206.474713 171.026761 
L 206.474713 164.205239 
L 206.236863 157.396181 
L 205.762611 150.624455 
L 205.054848 143.914764 
L 204.117891 137.291534 
L 202.95746 130.778806 
L 201.580651 124.400126 
L 199.9959 118.178445 
L 198.212938 112.136011 
L 196.242741 106.294276 
L 194.097474 100.673799 
L 191.790432 95.294155 
L 189.335967 90.17385 
L 186.749414 85.330238 
L 184.047019 80.779451 
L 181.245848 76.536322 
L 178.655039 72.991723 
L 176.012057 69.716108 
L 173.330695 66.717365 
L 170.625051 64.002397 
L 167.909475 61.577101 
L 165.198504 59.446347 
L 162.506803 57.613966 
L 159.849104 56.082738 
L 157.240139 54.854384 
L 154.97384 54.01734 
L 152.767875 53.419905 
L 150.632362 53.061187 
L 148.577278 52.939636 
L 146.612421 53.053061 
L 144.747377 53.39863 
L 142.991489 53.972887 
L 141.353826 54.771761 
L 140.024748 55.651375 
L 138.632109 56.85836 
L 137.381953 58.274978 
L 136.281999 59.894934 
L 135.339544 61.711405 
L 134.561443 63.717063 
L 133.954086 65.904102 
L 133.523369 68.26426 
L 133.274677 70.788847 
L 133.218498 73.814223 
L 133.404896 77.022694 
L 133.839036 80.400227 
L 134.525145 83.932305 
L 135.466489 87.603988 
L 136.665357 91.399974 
L 138.123043 95.30466 
L 139.839835 99.302202 
L 141.81501 103.376581 
L 144.046832 107.511664 
L 146.532547 111.69127 
L 149.587622 116.367832 
L 152.94487 121.057343 
L 156.596183 125.737968 
L 160.531978 130.388204 
L 164.741236 134.986979 
L 169.211545 139.513759 
L 173.929152 143.94864 
L 178.879018 148.272445 
L 184.044885 152.466813 
L 189.40934 156.514288 
L 194.953897 160.398396 
L 200.659074 164.103727 
L 206.504478 167.616 
L 212.468898 170.922132 
L 218.530396 174.010294 
L 224.666412 176.869967 
L 230.853855 179.491985 
L 237.069218 181.868572 
L 243.288676 183.99338 
L 249.488199 185.861507 
L 255.64366 187.469518 
L 261.730945 188.815455 
L 267.726065 189.898835 
L 273.605261 190.720653 
L 279.345121 191.28336 
L 284.92268 191.59085 
L 290.31553 191.648433 
L 295.501924 191.462794 
L 300.460871 191.04196 
L 304.712801 190.469793 
L 308.75016 189.722299 
L 312.559604 188.807905 
L 316.128513 187.735775 
L 319.445044 186.515769 
L 322.498168 185.158396 
L 325.277719 183.674772 
L 327.774427 182.076566 
L 329.979956 180.375949 
L 331.689996 178.78851 
L 333.159609 177.139247 
L 334.384906 175.437502 
L 335.362644 173.692797 
L 336.090233 171.914802 
L 336.565745 170.113304 
L 336.787921 168.298169 
L 336.805782 167.616 
L 336.805782 167.616 
" style="fill:none;stroke:#1f77b4;stroke-linecap:square;stroke-width:1.5;"/>
   </g>
   <g id="patch_3">
    <path d="M 123.03044 293.76 
L 123.03044 41.472 
" style="fill:none;stroke:#000000;stroke-linecap:square;stroke-linejoin:miter;stroke-width:1.5;"/>
   </g>
   <g id="patch_4">
    <path d="M 346.98556 293.76 
L 346.98556 41.472 
" style="fill:none;stroke:#000000;stroke-linecap:square;stroke-linejoin:miter;stroke-width:1.5;"/>
   </g>
   <g id="patch_5">
    <path d="M 123.03044 293.76 
L 346.98556 293.76 
" style="fill:none;stroke:#000000;stroke-linecap:square;stroke-linejoin:miter;stroke-width:1.5;"/>
   </g>
   <g id="patch_6">
    <path d="M 123.03044 41.472 
L 346.98556 41.472 
" style="fill:none;stroke:#000000;stroke-linecap:square;stroke-linejoin:miter;stroke-width:1.5;"/>
   </g>
  </g>
 </g>
 <defs>
  <clipPath id="p861eed7379">
   <rect height="252.288" width="223.95512" x="123.03044" y="41.472"/>
  </clipPath>
 </defs>
</svg>
