<?xml version="1.0" encoding="utf-8" standalone="no"?>
<!DOCTYPE svg PUBLIC "-//W3C//DTD SVG 1.1//EN"
  "http://www.w3.org/Graphics/SVG/1.1/DTD/svg11.dtd">
<!-- Created with matplotlib (https://matplotlib.org/) -->
<svg height="345.6pt" version="1.1" viewBox="0 0 460.8 345.6" width="460.8pt" xmlns="http://www.w3.org/2000/svg" xmlns:xlink="http://www.w3.org/1999/xlink">
 <defs>
  <style type="text/css">
*{stroke-linecap:butt;stroke-linejoin:round;}
  </style>
 </defs>
 <g id="figure_1">
  <g id="patch_1">
   <path d="M 0 345.6 
L 460.8 345.6 
L 460.8 0 
L 0 0 
z
" style="fill:#ffffff;"/>
  </g>
  <g id="axes_1">
   <g id="patch_2">
    <path d="M 108.864 293.76 
L 361.152 293.76 
L 361.152 41.472 
L 108.864 41.472 
z
" style="fill:#ffffff;"/>
   </g>
   <g id="matplotlib.axis_1">
    <g id="xtick_1">
     <g id="line2d_1">
      <defs>
       <path d="M 0 0 
L 0 12 
" id="m2a87ad7caf" style="stroke:#000000;stroke-width:1.5;"/>
      </defs>
      <g>
       <use style="stroke:#000000;stroke-width:1.5;" x="108.864" xlink:href="#m2a87ad7caf" y="293.76"/>
      </g>
     </g>
     <g id="text_1">
      <!-- −3 -->
      <defs>
       <path d="M 10.59375 35.5 
L 73.1875 35.5 
L 73.1875 27.203125 
L 10.59375 27.203125 
z
" id="DejaVuSans-8722"/>
       <path d="M 40.578125 39.3125 
Q 47.65625 37.796875 51.625 33 
Q 55.609375 28.21875 55.609375 21.1875 
Q 55.609375 10.40625 48.1875 4.484375 
Q 40.765625 -1.421875 27.09375 -1.421875 
Q 22.515625 -1.421875 17.65625 -0.515625 
Q 12.796875 0.390625 7.625 2.203125 
L 7.625 11.71875 
Q 11.71875 9.328125 16.59375 8.109375 
Q 21.484375 6.890625 26.8125 6.890625 
Q 36.078125 6.890625 40.9375 10.546875 
Q 45.796875 14.203125 45.796875 21.1875 
Q 45.796875 27.640625 41.28125 31.265625 
Q 36.765625 34.90625 28.71875 34.90625 
L 20.21875 34.90625 
L 20.21875 43.015625 
L 29.109375 43.015625 
Q 36.375 43.015625 40.234375 45.921875 
Q 44.09375 48.828125 44.09375 54.296875 
Q 44.09375 59.90625 40.109375 62.90625 
Q 36.140625 65.921875 28.71875 65.921875 
Q 24.65625 65.921875 20.015625 65.03125 
Q 15.375 64.15625 9.8125 62.3125 
L 9.8125 71.09375 
Q 15.4375 72.65625 20.34375 73.4375 
Q 25.25 74.21875 29.59375 74.21875 
Q 40.828125 74.21875 47.359375 69.109375 
Q 53.90625 64.015625 53.90625 55.328125 
Q 53.90625 49.265625 50.4375 45.09375 
Q 46.96875 40.921875 40.578125 39.3125 
z
" id="DejaVuSans-51"/>
      </defs>
      <g transform="translate(98.544469 319.897812)scale(0.14 -0.14)">
       <use xlink:href="#DejaVuSans-8722"/>
       <use x="83.789062" xlink:href="#DejaVuSans-51"/>
      </g>
     </g>
    </g>
    <g id="xtick_2">
     <g id="line2d_2">
      <g>
       <use style="stroke:#000000;stroke-width:1.5;" x="150.912" xlink:href="#m2a87ad7caf" y="293.76"/>
      </g>
     </g>
     <g id="text_2">
      <!-- −2 -->
      <defs>
       <path d="M 19.1875 8.296875 
L 53.609375 8.296875 
L 53.609375 0 
L 7.328125 0 
L 7.328125 8.296875 
Q 12.9375 14.109375 22.625 23.890625 
Q 32.328125 33.6875 34.8125 36.53125 
Q 39.546875 41.84375 41.421875 45.53125 
Q 43.3125 49.21875 43.3125 52.78125 
Q 43.3125 58.59375 39.234375 62.25 
Q 35.15625 65.921875 28.609375 65.921875 
Q 23.96875 65.921875 18.8125 64.3125 
Q 13.671875 62.703125 7.8125 59.421875 
L 7.8125 69.390625 
Q 13.765625 71.78125 18.9375 73 
Q 24.125 74.21875 28.421875 74.21875 
Q 39.75 74.21875 46.484375 68.546875 
Q 53.21875 62.890625 53.21875 53.421875 
Q 53.21875 48.921875 51.53125 44.890625 
Q 49.859375 40.875 45.40625 35.40625 
Q 44.1875 33.984375 37.640625 27.21875 
Q 31.109375 20.453125 19.1875 8.296875 
z
" id="DejaVuSans-50"/>
      </defs>
      <g transform="translate(140.592469 319.897812)scale(0.14 -0.14)">
       <use xlink:href="#DejaVuSans-8722"/>
       <use x="83.789062" xlink:href="#DejaVuSans-50"/>
      </g>
     </g>
    </g>
    <g id="xtick_3">
     <g id="line2d_3">
      <g>
       <use style="stroke:#000000;stroke-width:1.5;" x="192.96" xlink:href="#m2a87ad7caf" y="293.76"/>
      </g>
     </g>
     <g id="text_3">
      <!-- −1 -->
      <defs>
       <path d="M 12.40625 8.296875 
L 28.515625 8.296875 
L 28.515625 63.921875 
L 10.984375 60.40625 
L 10.984375 69.390625 
L 28.421875 72.90625 
L 38.28125 72.90625 
L 38.28125 8.296875 
L 54.390625 8.296875 
L 54.390625 0 
L 12.40625 0 
z
" id="DejaVuSans-49"/>
      </defs>
      <g transform="translate(182.640469 319.897812)scale(0.14 -0.14)">
       <use xlink:href="#DejaVuSans-8722"/>
       <use x="83.789062" xlink:href="#DejaVuSans-49"/>
      </g>
     </g>
    </g>
    <g id="xtick_4">
     <g id="line2d_4">
      <g>
       <use style="stroke:#000000;stroke-width:1.5;" x="235.008" xlink:href="#m2a87ad7caf" y="293.76"/>
      </g>
     </g>
     <g id="text_4">
      <!-- 0 -->
      <defs>
       <path d="M 31.78125 66.40625 
Q 24.171875 66.40625 20.328125 58.90625 
Q 16.5 51.421875 16.5 36.375 
Q 16.5 21.390625 20.328125 13.890625 
Q 24.171875 6.390625 31.78125 6.390625 
Q 39.453125 6.390625 43.28125 13.890625 
Q 47.125 21.390625 47.125 36.375 
Q 47.125 51.421875 43.28125 58.90625 
Q 39.453125 66.40625 31.78125 66.40625 
z
M 31.78125 74.21875 
Q 44.046875 74.21875 50.515625 64.515625 
Q 56.984375 54.828125 56.984375 36.375 
Q 56.984375 17.96875 50.515625 8.265625 
Q 44.046875 -1.421875 31.78125 -1.421875 
Q 19.53125 -1.421875 13.0625 8.265625 
Q 6.59375 17.96875 6.59375 36.375 
Q 6.59375 54.828125 13.0625 64.515625 
Q 19.53125 74.21875 31.78125 74.21875 
z
" id="DejaVuSans-48"/>
      </defs>
      <g transform="translate(230.55425 319.897812)scale(0.14 -0.14)">
       <use xlink:href="#DejaVuSans-48"/>
      </g>
     </g>
    </g>
    <g id="xtick_5">
     <g id="line2d_5">
      <g>
       <use style="stroke:#000000;stroke-width:1.5;" x="277.056" xlink:href="#m2a87ad7caf" y="293.76"/>
      </g>
     </g>
     <g id="text_5">
      <!-- 1 -->
      <g transform="translate(272.60225 319.897812)scale(0.14 -0.14)">
       <use xlink:href="#DejaVuSans-49"/>
      </g>
     </g>
    </g>
    <g id="xtick_6">
     <g id="line2d_6">
      <g>
       <use style="stroke:#000000;stroke-width:1.5;" x="319.104" xlink:href="#m2a87ad7caf" y="293.76"/>
      </g>
     </g>
     <g id="text_6">
      <!-- 2 -->
      <g transform="translate(314.65025 319.897812)scale(0.14 -0.14)">
       <use xlink:href="#DejaVuSans-50"/>
      </g>
     </g>
    </g>
    <g id="xtick_7">
     <g id="line2d_7">
      <g>
       <use style="stroke:#000000;stroke-width:1.5;" x="361.152" xlink:href="#m2a87ad7caf" y="293.76"/>
      </g>
     </g>
     <g id="text_7">
      <!-- 3 -->
      <g transform="translate(356.69825 319.897812)scale(0.14 -0.14)">
       <use xlink:href="#DejaVuSans-51"/>
      </g>
     </g>
    </g>
   </g>
   <g id="matplotlib.axis_2">
    <g id="ytick_1">
     <g id="line2d_8">
      <defs>
       <path d="M 0 0 
L -12 0 
" id="m3c9cacc1b5" style="stroke:#000000;stroke-width:1.5;"/>
      </defs>
      <g>
       <use style="stroke:#000000;stroke-width:1.5;" x="108.864" xlink:href="#m3c9cacc1b5" y="293.76"/>
      </g>
     </g>
     <g id="text_8">
      <!-- −3 -->
      <g transform="translate(72.724938 299.078906)scale(0.14 -0.14)">
       <use xlink:href="#DejaVuSans-8722"/>
       <use x="83.789062" xlink:href="#DejaVuSans-51"/>
      </g>
     </g>
    </g>
    <g id="ytick_2">
     <g id="line2d_9">
      <g>
       <use style="stroke:#000000;stroke-width:1.5;" x="108.864" xlink:href="#m3c9cacc1b5" y="251.712"/>
      </g>
     </g>
     <g id="text_9">
      <!-- −2 -->
      <g transform="translate(72.724938 257.030906)scale(0.14 -0.14)">
       <use xlink:href="#DejaVuSans-8722"/>
       <use x="83.789062" xlink:href="#DejaVuSans-50"/>
      </g>
     </g>
    </g>
    <g id="ytick_3">
     <g id="line2d_10">
      <g>
       <use style="stroke:#000000;stroke-width:1.5;" x="108.864" xlink:href="#m3c9cacc1b5" y="209.664"/>
      </g>
     </g>
     <g id="text_10">
      <!-- −1 -->
      <g transform="translate(72.724938 214.982906)scale(0.14 -0.14)">
       <use xlink:href="#DejaVuSans-8722"/>
       <use x="83.789062" xlink:href="#DejaVuSans-49"/>
      </g>
     </g>
    </g>
    <g id="ytick_4">
     <g id="line2d_11">
      <g>
       <use style="stroke:#000000;stroke-width:1.5;" x="108.864" xlink:href="#m3c9cacc1b5" y="167.616"/>
      </g>
     </g>
     <g id="text_11">
      <!-- 0 -->
      <g transform="translate(84.4565 172.934906)scale(0.14 -0.14)">
       <use xlink:href="#DejaVuSans-48"/>
      </g>
     </g>
    </g>
    <g id="ytick_5">
     <g id="line2d_12">
      <g>
       <use style="stroke:#000000;stroke-width:1.5;" x="108.864" xlink:href="#m3c9cacc1b5" y="125.568"/>
      </g>
     </g>
     <g id="text_12">
      <!-- 1 -->
      <g transform="translate(84.4565 130.886906)scale(0.14 -0.14)">
       <use xlink:href="#DejaVuSans-49"/>
      </g>
     </g>
    </g>
    <g id="ytick_6">
     <g id="line2d_13">
      <g>
       <use style="stroke:#000000;stroke-width:1.5;" x="108.864" xlink:href="#m3c9cacc1b5" y="83.52"/>
      </g>
     </g>
     <g id="text_13">
      <!-- 2 -->
      <g transform="translate(84.4565 88.838906)scale(0.14 -0.14)">
       <use xlink:href="#DejaVuSans-50"/>
      </g>
     </g>
    </g>
    <g id="ytick_7">
     <g id="line2d_14">
      <g>
       <use style="stroke:#000000;stroke-width:1.5;" x="108.864" xlink:href="#m3c9cacc1b5" y="41.472"/>
      </g>
     </g>
     <g id="text_14">
      <!-- 3 -->
      <g transform="translate(84.4565 46.790906)scale(0.14 -0.14)">
       <use xlink:href="#DejaVuSans-51"/>
      </g>
     </g>
    </g>
   </g>
   <g id="line2d_15">
    <path clip-path="url(#p2a0136e6f9)" d="M 108.864 181.632 
L 113.0688 182.11531 
L 117.2736 182.633143 
L 121.4784 183.189333 
L 125.6832 183.788308 
L 129.888 184.4352 
L 134.0928 185.136 
L 138.2976 185.897739 
L 142.5024 186.728727 
L 146.7072 187.638857 
L 150.912 188.64 
L 155.1168 189.746526 
L 159.3216 190.976 
L 163.5264 192.350118 
L 167.7312 193.896 
L 171.936 195.648 
L 176.1408 197.650286 
L 180.3456 199.960615 
L 184.5504 202.656 
L 188.7552 205.841455 
L 192.96 209.664 
L 197.1648 214.336 
L 201.3696 220.176 
L 205.5744 227.684571 
L 209.7792 237.696 
L 213.984 251.712 
L 218.1888 272.736 
L 222.3936 307.776 
L 224.72304 346.6 
M 245.91504 -1 
L 247.6224 27.456 
L 251.8272 62.496 
L 256.032 83.52 
L 260.2368 97.536 
L 264.4416 107.547429 
L 268.6464 115.056 
L 272.8512 120.896 
L 277.056 125.568 
L 281.2608 129.390545 
L 285.4656 132.576 
L 289.6704 135.271385 
L 293.8752 137.581714 
L 298.08 139.584 
L 302.2848 141.336 
L 306.4896 142.881882 
L 310.6944 144.256 
L 314.8992 145.485474 
L 319.104 146.592 
L 323.3088 147.593143 
L 327.5136 148.503273 
L 331.7184 149.334261 
L 335.9232 150.096 
L 340.128 150.7968 
L 344.3328 151.443692 
L 348.5376 152.042667 
L 352.7424 152.598857 
L 356.9472 153.11669 
L 361.152 153.6 
" style="fill:none;stroke:#1f77b4;stroke-linecap:square;stroke-width:1.5;"/>
   </g>
   <g id="line2d_16">
    <path clip-path="url(#p2a0136e6f9)" d="M 108.864 293.76 
L 113.0688 289.5552 
L 117.2736 285.3504 
L 121.4784 281.1456 
L 125.6832 276.9408 
L 129.888 272.736 
L 134.0928 268.5312 
L 138.2976 264.3264 
L 142.5024 260.1216 
L 146.7072 255.9168 
L 150.912 251.712 
L 155.1168 247.5072 
L 159.3216 243.3024 
L 163.5264 239.0976 
L 167.7312 234.8928 
L 171.936 230.688 
L 176.1408 226.4832 
L 180.3456 222.2784 
L 184.5504 218.0736 
L 188.7552 213.8688 
L 192.96 209.664 
L 197.1648 205.4592 
L 201.3696 201.2544 
L 205.5744 197.0496 
L 209.7792 192.8448 
L 213.984 188.64 
L 218.1888 184.4352 
L 222.3936 180.2304 
L 226.5984 176.0256 
L 230.8032 171.8208 
L 235.008 167.616 
L 239.2128 163.4112 
L 243.4176 159.2064 
L 247.6224 155.0016 
L 251.8272 150.7968 
L 256.032 146.592 
L 260.2368 142.3872 
L 264.4416 138.1824 
L 268.6464 133.9776 
L 272.8512 129.7728 
L 277.056 125.568 
L 281.2608 121.3632 
L 285.4656 117.1584 
L 289.6704 112.9536 
L 293.8752 108.7488 
L 298.08 104.544 
L 302.2848 100.3392 
L 306.4896 96.1344 
L 310.6944 91.9296 
L 314.8992 87.7248 
L 319.104 83.52 
L 323.3088 79.3152 
L 327.5136 75.1104 
L 331.7184 70.9056 
L 335.9232 66.7008 
L 340.128 62.496 
L 344.3328 58.2912 
L 348.5376 54.0864 
L 352.7424 49.8816 
L 356.9472 45.6768 
L 361.152 41.472 
" style="fill:none;stroke:#000000;stroke-linecap:square;stroke-width:0.5;"/>
   </g>
   <g id="line2d_17">
    <path clip-path="url(#p2a0136e6f9)" d="M 108.864 41.472 
L 113.0688 45.6768 
L 117.2736 49.8816 
L 121.4784 54.0864 
L 125.6832 58.2912 
L 129.888 62.496 
L 134.0928 66.7008 
L 138.2976 70.9056 
L 142.5024 75.1104 
L 146.7072 79.3152 
L 150.912 83.52 
L 155.1168 87.7248 
L 159.3216 91.9296 
L 163.5264 96.1344 
L 167.7312 100.3392 
L 171.936 104.544 
L 176.1408 108.7488 
L 180.3456 112.9536 
L 184.5504 117.1584 
L 188.7552 121.3632 
L 192.96 125.568 
L 197.1648 129.7728 
L 201.3696 133.9776 
L 205.5744 138.1824 
L 209.7792 142.3872 
L 213.984 146.592 
L 218.1888 150.7968 
L 222.3936 155.0016 
L 226.5984 159.2064 
L 230.8032 163.4112 
L 235.008 167.616 
L 239.2128 171.8208 
L 243.4176 176.0256 
L 247.6224 180.2304 
L 251.8272 184.4352 
L 256.032 188.64 
L 260.2368 192.8448 
L 264.4416 197.0496 
L 268.6464 201.2544 
L 272.8512 205.4592 
L 277.056 209.664 
L 281.2608 213.8688 
L 285.4656 218.0736 
L 289.6704 222.2784 
L 293.8752 226.4832 
L 298.08 230.688 
L 302.2848 234.8928 
L 306.4896 239.0976 
L 310.6944 243.3024 
L 314.8992 247.5072 
L 319.104 251.712 
L 323.3088 255.9168 
L 327.5136 260.1216 
L 331.7184 264.3264 
L 335.9232 268.5312 
L 340.128 272.736 
L 344.3328 276.9408 
L 348.5376 281.1456 
L 352.7424 285.3504 
L 356.9472 289.5552 
L 361.152 293.76 
" style="fill:none;stroke:#000000;stroke-linecap:square;stroke-width:0.5;"/>
   </g>
   <g id="line2d_18">
    <path clip-path="url(#p2a0136e6f9)" d="M 108.864 167.616 
L 361.152 167.616 
" style="fill:none;stroke:#000000;stroke-linecap:square;stroke-width:0.5;"/>
   </g>
   <g id="line2d_19">
    <path clip-path="url(#p2a0136e6f9)" d="M 235.008 293.76 
L 235.008 41.472 
" style="fill:none;stroke:#000000;stroke-linecap:square;stroke-width:0.5;"/>
   </g>
   <g id="patch_3">
    <path d="M 108.864 293.76 
L 108.864 41.472 
" style="fill:none;stroke:#000000;stroke-linecap:square;stroke-linejoin:miter;stroke-width:1.5;"/>
   </g>
   <g id="patch_4">
    <path d="M 361.152 293.76 
L 361.152 41.472 
" style="fill:none;stroke:#000000;stroke-linecap:square;stroke-linejoin:miter;stroke-width:1.5;"/>
   </g>
   <g id="patch_5">
    <path d="M 108.864 293.76 
L 361.152 293.76 
" style="fill:none;stroke:#000000;stroke-linecap:square;stroke-linejoin:miter;stroke-width:1.5;"/>
   </g>
   <g id="patch_6">
    <path d="M 108.864 41.472 
L 361.152 41.472 
" style="fill:none;stroke:#000000;stroke-linecap:square;stroke-linejoin:miter;stroke-width:1.5;"/>
   </g>
  </g>
 </g>
 <defs>
  <clipPath id="p2a0136e6f9">
   <rect height="252.288" width="252.288" x="108.864" y="41.472"/>
  </clipPath>
 </defs>
</svg>
