<?xml version="1.0" encoding="utf-8" standalone="no"?>
<!DOCTYPE svg PUBLIC "-//W3C//DTD SVG 1.1//EN"
  "http://www.w3.org/Graphics/SVG/1.1/DTD/svg11.dtd">
<!-- Created with matplotlib (https://matplotlib.org/) -->
<svg height="345.6pt" version="1.1" viewBox="0 0 460.8 345.6" width="460.8pt" xmlns="http://www.w3.org/2000/svg" xmlns:xlink="http://www.w3.org/1999/xlink">
 <defs>
  <style type="text/css">
*{stroke-linecap:butt;stroke-linejoin:round;}
  </style>
 </defs>
 <g id="figure_1">
  <g id="patch_1">
   <path d="M 0 345.6 
L 460.8 345.6 
L 460.8 0 
L 0 0 
z
" style="fill:#ffffff;"/>
  </g>
  <g id="axes_1">
   <g id="patch_2">
    <path d="M 78.336 293.76 
L 391.68 293.76 
L 391.68 41.472 
L 78.336 41.472 
z
" style="fill:#ffffff;"/>
   </g>
   <g id="matplotlib.axis_1">
    <g id="xtick_1">
     <g id="line2d_1">
      <defs>
       <path d="M 0 0 
L 0 12 
" id="m1d12faa75f" style="stroke:#000000;stroke-width:1.5;"/>
      </defs>
      <g>
       <use style="stroke:#000000;stroke-width:1.5;" x="92.578909" xlink:href="#m1d12faa75f" y="293.76"/>
      </g>
     </g>
     <g id="text_1">
      <!-- −2 -->
      <defs>
       <path d="M 10.59375 35.5 
L 73.1875 35.5 
L 73.1875 27.203125 
L 10.59375 27.203125 
z
" id="DejaVuSans-8722"/>
       <path d="M 19.1875 8.296875 
L 53.609375 8.296875 
L 53.609375 0 
L 7.328125 0 
L 7.328125 8.296875 
Q 12.9375 14.109375 22.625 23.890625 
Q 32.328125 33.6875 34.8125 36.53125 
Q 39.546875 41.84375 41.421875 45.53125 
Q 43.3125 49.21875 43.3125 52.78125 
Q 43.3125 58.59375 39.234375 62.25 
Q 35.15625 65.921875 28.609375 65.921875 
Q 23.96875 65.921875 18.8125 64.3125 
Q 13.671875 62.703125 7.8125 59.421875 
L 7.8125 69.390625 
Q 13.765625 71.78125 18.9375 73 
Q 24.125 74.21875 28.421875 74.21875 
Q 39.75 74.21875 46.484375 68.546875 
Q 53.21875 62.890625 53.21875 53.421875 
Q 53.21875 48.921875 51.53125 44.890625 
Q 49.859375 40.875 45.40625 35.40625 
Q 44.1875 33.984375 37.640625 27.21875 
Q 31.109375 20.453125 19.1875 8.296875 
z
" id="DejaVuSans-50"/>
      </defs>
      <g transform="translate(82.259378 319.897812)scale(0.14 -0.14)">
       <use xlink:href="#DejaVuSans-8722"/>
       <use x="83.789062" xlink:href="#DejaVuSans-50"/>
      </g>
     </g>
    </g>
    <g id="xtick_2">
     <g id="line2d_2">
      <g>
       <use style="stroke:#000000;stroke-width:1.5;" x="163.793455" xlink:href="#m1d12faa75f" y="293.76"/>
      </g>
     </g>
     <g id="text_2">
      <!-- −1 -->
      <defs>
       <path d="M 12.40625 8.296875 
L 28.515625 8.296875 
L 28.515625 63.921875 
L 10.984375 60.40625 
L 10.984375 69.390625 
L 28.421875 72.90625 
L 38.28125 72.90625 
L 38.28125 8.296875 
L 54.390625 8.296875 
L 54.390625 0 
L 12.40625 0 
z
" id="DejaVuSans-49"/>
      </defs>
      <g transform="translate(153.473923 319.897812)scale(0.14 -0.14)">
       <use xlink:href="#DejaVuSans-8722"/>
       <use x="83.789062" xlink:href="#DejaVuSans-49"/>
      </g>
     </g>
    </g>
    <g id="xtick_3">
     <g id="line2d_3">
      <g>
       <use style="stroke:#000000;stroke-width:1.5;" x="235.008" xlink:href="#m1d12faa75f" y="293.76"/>
      </g>
     </g>
     <g id="text_3">
      <!-- 0 -->
      <defs>
       <path d="M 31.78125 66.40625 
Q 24.171875 66.40625 20.328125 58.90625 
Q 16.5 51.421875 16.5 36.375 
Q 16.5 21.390625 20.328125 13.890625 
Q 24.171875 6.390625 31.78125 6.390625 
Q 39.453125 6.390625 43.28125 13.890625 
Q 47.125 21.390625 47.125 36.375 
Q 47.125 51.421875 43.28125 58.90625 
Q 39.453125 66.40625 31.78125 66.40625 
z
M 31.78125 74.21875 
Q 44.046875 74.21875 50.515625 64.515625 
Q 56.984375 54.828125 56.984375 36.375 
Q 56.984375 17.96875 50.515625 8.265625 
Q 44.046875 -1.421875 31.78125 -1.421875 
Q 19.53125 -1.421875 13.0625 8.265625 
Q 6.59375 17.96875 6.59375 36.375 
Q 6.59375 54.828125 13.0625 64.515625 
Q 19.53125 74.21875 31.78125 74.21875 
z
" id="DejaVuSans-48"/>
      </defs>
      <g transform="translate(230.55425 319.897812)scale(0.14 -0.14)">
       <use xlink:href="#DejaVuSans-48"/>
      </g>
     </g>
    </g>
    <g id="xtick_4">
     <g id="line2d_4">
      <g>
       <use style="stroke:#000000;stroke-width:1.5;" x="306.222545" xlink:href="#m1d12faa75f" y="293.76"/>
      </g>
     </g>
     <g id="text_4">
      <!-- 1 -->
      <g transform="translate(301.768795 319.897812)scale(0.14 -0.14)">
       <use xlink:href="#DejaVuSans-49"/>
      </g>
     </g>
    </g>
    <g id="xtick_5">
     <g id="line2d_5">
      <g>
       <use style="stroke:#000000;stroke-width:1.5;" x="377.437091" xlink:href="#m1d12faa75f" y="293.76"/>
      </g>
     </g>
     <g id="text_5">
      <!-- 2 -->
      <g transform="translate(372.983341 319.897812)scale(0.14 -0.14)">
       <use xlink:href="#DejaVuSans-50"/>
      </g>
     </g>
    </g>
   </g>
   <g id="matplotlib.axis_2">
    <g id="ytick_1">
     <g id="line2d_6">
      <defs>
       <path d="M 0 0 
L -12 0 
" id="m07bafd04a6" style="stroke:#000000;stroke-width:1.5;"/>
      </defs>
      <g>
       <use style="stroke:#000000;stroke-width:1.5;" x="78.336" xlink:href="#m07bafd04a6" y="251.016992"/>
      </g>
     </g>
     <g id="text_6">
      <!-- −15 -->
      <defs>
       <path d="M 10.796875 72.90625 
L 49.515625 72.90625 
L 49.515625 64.59375 
L 19.828125 64.59375 
L 19.828125 46.734375 
Q 21.96875 47.46875 24.109375 47.828125 
Q 26.265625 48.1875 28.421875 48.1875 
Q 40.625 48.1875 47.75 41.5 
Q 54.890625 34.8125 54.890625 23.390625 
Q 54.890625 11.625 47.5625 5.09375 
Q 40.234375 -1.421875 26.90625 -1.421875 
Q 22.3125 -1.421875 17.546875 -0.640625 
Q 12.796875 0.140625 7.71875 1.703125 
L 7.71875 11.625 
Q 12.109375 9.234375 16.796875 8.0625 
Q 21.484375 6.890625 26.703125 6.890625 
Q 35.15625 6.890625 40.078125 11.328125 
Q 45.015625 15.765625 45.015625 23.390625 
Q 45.015625 31 40.078125 35.4375 
Q 35.15625 39.890625 26.703125 39.890625 
Q 22.75 39.890625 18.8125 39.015625 
Q 14.890625 38.140625 10.796875 36.28125 
z
" id="DejaVuSans-53"/>
      </defs>
      <g transform="translate(33.289438 256.335898)scale(0.14 -0.14)">
       <use xlink:href="#DejaVuSans-8722"/>
       <use x="83.789062" xlink:href="#DejaVuSans-49"/>
       <use x="147.412109" xlink:href="#DejaVuSans-53"/>
      </g>
     </g>
    </g>
    <g id="ytick_2">
     <g id="line2d_7">
      <g>
       <use style="stroke:#000000;stroke-width:1.5;" x="78.336" xlink:href="#m07bafd04a6" y="198.891372"/>
      </g>
     </g>
     <g id="text_7">
      <!-- −10 -->
      <g transform="translate(33.289438 204.210278)scale(0.14 -0.14)">
       <use xlink:href="#DejaVuSans-8722"/>
       <use x="83.789062" xlink:href="#DejaVuSans-49"/>
       <use x="147.412109" xlink:href="#DejaVuSans-48"/>
      </g>
     </g>
    </g>
    <g id="ytick_3">
     <g id="line2d_8">
      <g>
       <use style="stroke:#000000;stroke-width:1.5;" x="78.336" xlink:href="#m07bafd04a6" y="146.765752"/>
      </g>
     </g>
     <g id="text_8">
      <!-- −5 -->
      <g transform="translate(42.196938 152.084658)scale(0.14 -0.14)">
       <use xlink:href="#DejaVuSans-8722"/>
       <use x="83.789062" xlink:href="#DejaVuSans-53"/>
      </g>
     </g>
    </g>
    <g id="ytick_4">
     <g id="line2d_9">
      <g>
       <use style="stroke:#000000;stroke-width:1.5;" x="78.336" xlink:href="#m07bafd04a6" y="94.640132"/>
      </g>
     </g>
     <g id="text_9">
      <!-- 0 -->
      <g transform="translate(53.9285 99.959038)scale(0.14 -0.14)">
       <use xlink:href="#DejaVuSans-48"/>
      </g>
     </g>
    </g>
    <g id="ytick_5">
     <g id="line2d_10">
      <g>
       <use style="stroke:#000000;stroke-width:1.5;" x="78.336" xlink:href="#m07bafd04a6" y="42.514512"/>
      </g>
     </g>
     <g id="text_10">
      <!-- 5 -->
      <g transform="translate(53.9285 47.833419)scale(0.14 -0.14)">
       <use xlink:href="#DejaVuSans-53"/>
      </g>
     </g>
    </g>
   </g>
   <g id="line2d_11">
    <path clip-path="url(#p69314f83f6)" d="M 92.578909 219.74162 
L 106.821818 189.216857 
L 121.064727 164.029757 
L 135.307636 143.679915 
L 149.550545 127.666925 
L 163.793455 115.49038 
L 178.036364 106.649875 
L 192.279273 100.645004 
L 206.522182 96.97536 
L 220.765091 95.140538 
L 235.008 94.640132 
L 249.250909 94.973736 
L 263.493818 95.640944 
L 277.736727 96.14135 
L 291.979636 95.974548 
L 306.222545 94.640132 
L 320.465455 91.637697 
L 334.708364 86.466835 
L 348.951273 78.627142 
L 363.194182 67.618211 
L 377.437091 52.939636 
" style="fill:none;stroke:#ff0000;stroke-linecap:square;stroke-width:1.5;"/>
   </g>
   <g id="line2d_12">
    <path clip-path="url(#p69314f83f6)" d="M 92.578909 240.591868 
L 106.821818 210.067105 
L 121.064727 184.880005 
L 135.307636 164.530163 
L 149.550545 148.517173 
L 163.793455 136.340628 
L 178.036364 127.500123 
L 192.279273 121.495252 
L 206.522182 117.825608 
L 220.765091 115.990786 
L 235.008 115.49038 
L 249.250909 115.823984 
L 263.493818 116.491192 
L 277.736727 116.991598 
L 291.979636 116.824796 
L 306.222545 115.49038 
L 320.465455 112.487944 
L 334.708364 107.317083 
L 348.951273 99.47739 
L 363.194182 88.468459 
L 377.437091 73.789884 
" style="fill:none;stroke:#ff0000;stroke-dasharray:5.55,2.4;stroke-dashoffset:0;stroke-width:1.5;"/>
   </g>
   <g id="line2d_13">
    <path clip-path="url(#p69314f83f6)" d="M 92.578909 261.442116 
L 106.821818 230.917353 
L 121.064727 205.730253 
L 135.307636 185.380411 
L 149.550545 169.367421 
L 163.793455 157.190876 
L 178.036364 148.350371 
L 192.279273 142.3455 
L 206.522182 138.675856 
L 220.765091 136.841034 
L 235.008 136.340628 
L 249.250909 136.674232 
L 263.493818 137.34144 
L 277.736727 137.841846 
L 291.979636 137.675044 
L 306.222545 136.340628 
L 320.465455 133.338192 
L 334.708364 128.167331 
L 348.951273 120.327638 
L 363.194182 109.318707 
L 377.437091 94.640132 
" style="fill:none;stroke:#ff0000;stroke-dasharray:9.6,2.4,1.5,2.4;stroke-dashoffset:0;stroke-width:1.5;"/>
   </g>
   <g id="line2d_14">
    <path clip-path="url(#p69314f83f6)" d="M 92.578909 282.292364 
L 106.821818 251.767601 
L 121.064727 226.580501 
L 135.307636 206.230659 
L 149.550545 190.217669 
L 163.793455 178.041124 
L 178.036364 169.200619 
L 192.279273 163.195747 
L 206.522182 159.526104 
L 220.765091 157.691282 
L 235.008 157.190876 
L 249.250909 157.52448 
L 263.493818 158.191688 
L 277.736727 158.692094 
L 291.979636 158.525292 
L 306.222545 157.190876 
L 320.465455 154.18844 
L 334.708364 149.017579 
L 348.951273 141.177886 
L 363.194182 130.168955 
L 377.437091 115.49038 
" style="fill:none;stroke:#ff0000;stroke-dasharray:1.5,2.475;stroke-dashoffset:0;stroke-width:1.5;"/>
   </g>
   <g id="patch_3">
    <path d="M 78.336 293.76 
L 78.336 41.472 
" style="fill:none;stroke:#000000;stroke-linecap:square;stroke-linejoin:miter;stroke-width:1.5;"/>
   </g>
   <g id="patch_4">
    <path d="M 391.68 293.76 
L 391.68 41.472 
" style="fill:none;stroke:#000000;stroke-linecap:square;stroke-linejoin:miter;stroke-width:1.5;"/>
   </g>
   <g id="patch_5">
    <path d="M 78.336 293.76 
L 391.68 293.76 
" style="fill:none;stroke:#000000;stroke-linecap:square;stroke-linejoin:miter;stroke-width:1.5;"/>
   </g>
   <g id="patch_6">
    <path d="M 78.336 41.472 
L 391.68 41.472 
" style="fill:none;stroke:#000000;stroke-linecap:square;stroke-linejoin:miter;stroke-width:1.5;"/>
   </g>
   <g id="legend_1">
    <g id="patch_7">
     <path d="M 326.978125 286.76 
L 381.88 286.76 
Q 384.68 286.76 384.68 283.96 
L 384.68 203.1625 
Q 384.68 200.3625 381.88 200.3625 
L 326.978125 200.3625 
Q 324.178125 200.3625 324.178125 203.1625 
L 324.178125 283.96 
Q 324.178125 286.76 326.978125 286.76 
z
" style="fill:none;opacity:0;"/>
    </g>
    <g id="line2d_15">
     <path d="M 329.778125 211.700312 
L 357.778125 211.700312 
" style="fill:none;stroke:#ff0000;stroke-linecap:square;stroke-width:1.5;"/>
    </g>
    <g id="line2d_16"/>
    <g id="text_11">
     <!-- - -->
     <defs>
      <path d="M 4.890625 31.390625 
L 31.203125 31.390625 
L 31.203125 23.390625 
L 4.890625 23.390625 
z
" id="DejaVuSans-45"/>
     </defs>
     <g transform="translate(368.978125 216.600312)scale(0.14 -0.14)">
      <use xlink:href="#DejaVuSans-45"/>
     </g>
    </g>
    <g id="line2d_17">
     <path d="M 329.778125 232.249687 
L 357.778125 232.249687 
" style="fill:none;stroke:#ff0000;stroke-dasharray:5.55,2.4;stroke-dashoffset:0;stroke-width:1.5;"/>
    </g>
    <g id="line2d_18"/>
    <g id="text_12">
     <!-- - - -->
     <g transform="translate(368.978125 237.149687)scale(0.14 -0.14)">
      <use xlink:href="#DejaVuSans-45"/>
      <use x="36.083984" xlink:href="#DejaVuSans-45"/>
     </g>
    </g>
    <g id="line2d_19">
     <path d="M 329.778125 252.799062 
L 357.778125 252.799062 
" style="fill:none;stroke:#ff0000;stroke-dasharray:9.6,2.4,1.5,2.4;stroke-dashoffset:0;stroke-width:1.5;"/>
    </g>
    <g id="line2d_20"/>
    <g id="text_13">
     <!-- -. -->
     <defs>
      <path d="M 10.6875 12.40625 
L 21 12.40625 
L 21 0 
L 10.6875 0 
z
" id="DejaVuSans-46"/>
     </defs>
     <g transform="translate(368.978125 257.699062)scale(0.14 -0.14)">
      <use xlink:href="#DejaVuSans-45"/>
      <use x="36.083984" xlink:href="#DejaVuSans-46"/>
     </g>
    </g>
    <g id="line2d_21">
     <path d="M 329.778125 273.348437 
L 357.778125 273.348437 
" style="fill:none;stroke:#ff0000;stroke-dasharray:1.5,2.475;stroke-dashoffset:0;stroke-width:1.5;"/>
    </g>
    <g id="line2d_22"/>
    <g id="text_14">
     <!-- : -->
     <defs>
      <path d="M 11.71875 12.40625 
L 22.015625 12.40625 
L 22.015625 0 
L 11.71875 0 
z
M 11.71875 51.703125 
L 22.015625 51.703125 
L 22.015625 39.3125 
L 11.71875 39.3125 
z
" id="DejaVuSans-58"/>
     </defs>
     <g transform="translate(368.978125 278.248437)scale(0.14 -0.14)">
      <use xlink:href="#DejaVuSans-58"/>
     </g>
    </g>
   </g>
  </g>
 </g>
 <defs>
  <clipPath id="p69314f83f6">
   <rect height="252.288" width="313.344" x="78.336" y="41.472"/>
  </clipPath>
 </defs>
</svg>
