<?xml version="1.0" encoding="utf-8" standalone="no"?>
<!DOCTYPE svg PUBLIC "-//W3C//DTD SVG 1.1//EN"
  "http://www.w3.org/Graphics/SVG/1.1/DTD/svg11.dtd">
<!-- Created with matplotlib (https://matplotlib.org/) -->
<svg height="345.6pt" version="1.1" viewBox="0 0 460.8 345.6" width="460.8pt" xmlns="http://www.w3.org/2000/svg" xmlns:xlink="http://www.w3.org/1999/xlink">
 <defs>
  <style type="text/css">
*{stroke-linecap:butt;stroke-linejoin:round;}
  </style>
 </defs>
 <g id="figure_1">
  <g id="patch_1">
   <path d="M 0 345.6 
L 460.8 345.6 
L 460.8 0 
L 0 0 
z
" style="fill:#ffffff;"/>
  </g>
  <g id="axes_1">
   <g id="patch_2">
    <path d="M 78.336 293.76 
L 391.68 293.76 
L 391.68 41.472 
L 78.336 41.472 
z
" style="fill:#ffffff;"/>
   </g>
   <g id="matplotlib.axis_1">
    <g id="xtick_1">
     <g id="line2d_1">
      <defs>
       <path d="M 0 0 
L 0 12 
" id="ma65788143f" style="stroke:#000000;stroke-width:1.5;"/>
      </defs>
      <g>
       <use style="stroke:#000000;stroke-width:1.5;" x="151.890923" xlink:href="#ma65788143f" y="293.76"/>
      </g>
     </g>
     <g id="text_1">
      <!-- −2 -->
      <defs>
       <path d="M 10.59375 35.5 
L 73.1875 35.5 
L 73.1875 27.203125 
L 10.59375 27.203125 
z
" id="DejaVuSans-8722"/>
       <path d="M 19.1875 8.296875 
L 53.609375 8.296875 
L 53.609375 0 
L 7.328125 0 
L 7.328125 8.296875 
Q 12.9375 14.109375 22.625 23.890625 
Q 32.328125 33.6875 34.8125 36.53125 
Q 39.546875 41.84375 41.421875 45.53125 
Q 43.3125 49.21875 43.3125 52.78125 
Q 43.3125 58.59375 39.234375 62.25 
Q 35.15625 65.921875 28.609375 65.921875 
Q 23.96875 65.921875 18.8125 64.3125 
Q 13.671875 62.703125 7.8125 59.421875 
L 7.8125 69.390625 
Q 13.765625 71.78125 18.9375 73 
Q 24.125 74.21875 28.421875 74.21875 
Q 39.75 74.21875 46.484375 68.546875 
Q 53.21875 62.890625 53.21875 53.421875 
Q 53.21875 48.921875 51.53125 44.890625 
Q 49.859375 40.875 45.40625 35.40625 
Q 44.1875 33.984375 37.640625 27.21875 
Q 31.109375 20.453125 19.1875 8.296875 
z
" id="DejaVuSans-50"/>
      </defs>
      <g transform="translate(141.571391 319.897812)scale(0.14 -0.14)">
       <use xlink:href="#DejaVuSans-8722"/>
       <use x="83.789062" xlink:href="#DejaVuSans-50"/>
      </g>
     </g>
    </g>
    <g id="xtick_2">
     <g id="line2d_2">
      <g>
       <use style="stroke:#000000;stroke-width:1.5;" x="235.008" xlink:href="#ma65788143f" y="293.76"/>
      </g>
     </g>
     <g id="text_2">
      <!-- 0 -->
      <defs>
       <path d="M 31.78125 66.40625 
Q 24.171875 66.40625 20.328125 58.90625 
Q 16.5 51.421875 16.5 36.375 
Q 16.5 21.390625 20.328125 13.890625 
Q 24.171875 6.390625 31.78125 6.390625 
Q 39.453125 6.390625 43.28125 13.890625 
Q 47.125 21.390625 47.125 36.375 
Q 47.125 51.421875 43.28125 58.90625 
Q 39.453125 66.40625 31.78125 66.40625 
z
M 31.78125 74.21875 
Q 44.046875 74.21875 50.515625 64.515625 
Q 56.984375 54.828125 56.984375 36.375 
Q 56.984375 17.96875 50.515625 8.265625 
Q 44.046875 -1.421875 31.78125 -1.421875 
Q 19.53125 -1.421875 13.0625 8.265625 
Q 6.59375 17.96875 6.59375 36.375 
Q 6.59375 54.828125 13.0625 64.515625 
Q 19.53125 74.21875 31.78125 74.21875 
z
" id="DejaVuSans-48"/>
      </defs>
      <g transform="translate(230.55425 319.897812)scale(0.14 -0.14)">
       <use xlink:href="#DejaVuSans-48"/>
      </g>
     </g>
    </g>
    <g id="xtick_3">
     <g id="line2d_3">
      <g>
       <use style="stroke:#000000;stroke-width:1.5;" x="318.125077" xlink:href="#ma65788143f" y="293.76"/>
      </g>
     </g>
     <g id="text_3">
      <!-- 2 -->
      <g transform="translate(313.671327 319.897812)scale(0.14 -0.14)">
       <use xlink:href="#DejaVuSans-50"/>
      </g>
     </g>
    </g>
    <g id="text_4">
     <!-- radian -->
     <defs>
      <path d="M 41.109375 46.296875 
Q 39.59375 47.171875 37.8125 47.578125 
Q 36.03125 48 33.890625 48 
Q 26.265625 48 22.1875 43.046875 
Q 18.109375 38.09375 18.109375 28.8125 
L 18.109375 0 
L 9.078125 0 
L 9.078125 54.6875 
L 18.109375 54.6875 
L 18.109375 46.1875 
Q 20.953125 51.171875 25.484375 53.578125 
Q 30.03125 56 36.53125 56 
Q 37.453125 56 38.578125 55.875 
Q 39.703125 55.765625 41.0625 55.515625 
z
" id="DejaVuSans-114"/>
      <path d="M 34.28125 27.484375 
Q 23.390625 27.484375 19.1875 25 
Q 14.984375 22.515625 14.984375 16.5 
Q 14.984375 11.71875 18.140625 8.90625 
Q 21.296875 6.109375 26.703125 6.109375 
Q 34.1875 6.109375 38.703125 11.40625 
Q 43.21875 16.703125 43.21875 25.484375 
L 43.21875 27.484375 
z
M 52.203125 31.203125 
L 52.203125 0 
L 43.21875 0 
L 43.21875 8.296875 
Q 40.140625 3.328125 35.546875 0.953125 
Q 30.953125 -1.421875 24.3125 -1.421875 
Q 15.921875 -1.421875 10.953125 3.296875 
Q 6 8.015625 6 15.921875 
Q 6 25.140625 12.171875 29.828125 
Q 18.359375 34.515625 30.609375 34.515625 
L 43.21875 34.515625 
L 43.21875 35.40625 
Q 43.21875 41.609375 39.140625 45 
Q 35.0625 48.390625 27.6875 48.390625 
Q 23 48.390625 18.546875 47.265625 
Q 14.109375 46.140625 10.015625 43.890625 
L 10.015625 52.203125 
Q 14.9375 54.109375 19.578125 55.046875 
Q 24.21875 56 28.609375 56 
Q 40.484375 56 46.34375 49.84375 
Q 52.203125 43.703125 52.203125 31.203125 
z
" id="DejaVuSans-97"/>
      <path d="M 45.40625 46.390625 
L 45.40625 75.984375 
L 54.390625 75.984375 
L 54.390625 0 
L 45.40625 0 
L 45.40625 8.203125 
Q 42.578125 3.328125 38.25 0.953125 
Q 33.9375 -1.421875 27.875 -1.421875 
Q 17.96875 -1.421875 11.734375 6.484375 
Q 5.515625 14.40625 5.515625 27.296875 
Q 5.515625 40.1875 11.734375 48.09375 
Q 17.96875 56 27.875 56 
Q 33.9375 56 38.25 53.625 
Q 42.578125 51.265625 45.40625 46.390625 
z
M 14.796875 27.296875 
Q 14.796875 17.390625 18.875 11.75 
Q 22.953125 6.109375 30.078125 6.109375 
Q 37.203125 6.109375 41.296875 11.75 
Q 45.40625 17.390625 45.40625 27.296875 
Q 45.40625 37.203125 41.296875 42.84375 
Q 37.203125 48.484375 30.078125 48.484375 
Q 22.953125 48.484375 18.875 42.84375 
Q 14.796875 37.203125 14.796875 27.296875 
z
" id="DejaVuSans-100"/>
      <path d="M 9.421875 54.6875 
L 18.40625 54.6875 
L 18.40625 0 
L 9.421875 0 
z
M 9.421875 75.984375 
L 18.40625 75.984375 
L 18.40625 64.59375 
L 9.421875 64.59375 
z
" id="DejaVuSans-105"/>
      <path d="M 54.890625 33.015625 
L 54.890625 0 
L 45.90625 0 
L 45.90625 32.71875 
Q 45.90625 40.484375 42.875 44.328125 
Q 39.84375 48.1875 33.796875 48.1875 
Q 26.515625 48.1875 22.3125 43.546875 
Q 18.109375 38.921875 18.109375 30.90625 
L 18.109375 0 
L 9.078125 0 
L 9.078125 54.6875 
L 18.109375 54.6875 
L 18.109375 46.1875 
Q 21.34375 51.125 25.703125 53.5625 
Q 30.078125 56 35.796875 56 
Q 45.21875 56 50.046875 50.171875 
Q 54.890625 44.34375 54.890625 33.015625 
z
" id="DejaVuSans-110"/>
     </defs>
     <g transform="translate(212.726125 337.447187)scale(0.14 -0.14)">
      <use xlink:href="#DejaVuSans-114"/>
      <use x="41.113281" xlink:href="#DejaVuSans-97"/>
      <use x="102.392578" xlink:href="#DejaVuSans-100"/>
      <use x="165.869141" xlink:href="#DejaVuSans-105"/>
      <use x="193.652344" xlink:href="#DejaVuSans-97"/>
      <use x="254.931641" xlink:href="#DejaVuSans-110"/>
     </g>
    </g>
   </g>
   <g id="matplotlib.axis_2">
    <g id="ytick_1">
     <g id="line2d_4">
      <defs>
       <path d="M 0 0 
L -12 0 
" id="m118da6f298" style="stroke:#000000;stroke-width:1.5;"/>
      </defs>
      <g>
       <use style="stroke:#000000;stroke-width:1.5;" x="78.336" xlink:href="#m118da6f298" y="293.76"/>
      </g>
     </g>
     <g id="text_5">
      <!-- −10.0 -->
      <defs>
       <path d="M 12.40625 8.296875 
L 28.515625 8.296875 
L 28.515625 63.921875 
L 10.984375 60.40625 
L 10.984375 69.390625 
L 28.421875 72.90625 
L 38.28125 72.90625 
L 38.28125 8.296875 
L 54.390625 8.296875 
L 54.390625 0 
L 12.40625 0 
z
" id="DejaVuSans-49"/>
       <path d="M 10.6875 12.40625 
L 21 12.40625 
L 21 0 
L 10.6875 0 
z
" id="DejaVuSans-46"/>
      </defs>
      <g transform="translate(19.932563 299.078906)scale(0.14 -0.14)">
       <use xlink:href="#DejaVuSans-8722"/>
       <use x="83.789062" xlink:href="#DejaVuSans-49"/>
       <use x="147.412109" xlink:href="#DejaVuSans-48"/>
       <use x="211.035156" xlink:href="#DejaVuSans-46"/>
       <use x="242.822266" xlink:href="#DejaVuSans-48"/>
      </g>
     </g>
    </g>
    <g id="ytick_2">
     <g id="line2d_5">
      <g>
       <use style="stroke:#000000;stroke-width:1.5;" x="78.336" xlink:href="#m118da6f298" y="262.224"/>
      </g>
     </g>
     <g id="text_6">
      <!-- −7.5 -->
      <defs>
       <path d="M 8.203125 72.90625 
L 55.078125 72.90625 
L 55.078125 68.703125 
L 28.609375 0 
L 18.3125 0 
L 43.21875 64.59375 
L 8.203125 64.59375 
z
" id="DejaVuSans-55"/>
       <path d="M 10.796875 72.90625 
L 49.515625 72.90625 
L 49.515625 64.59375 
L 19.828125 64.59375 
L 19.828125 46.734375 
Q 21.96875 47.46875 24.109375 47.828125 
Q 26.265625 48.1875 28.421875 48.1875 
Q 40.625 48.1875 47.75 41.5 
Q 54.890625 34.8125 54.890625 23.390625 
Q 54.890625 11.625 47.5625 5.09375 
Q 40.234375 -1.421875 26.90625 -1.421875 
Q 22.3125 -1.421875 17.546875 -0.640625 
Q 12.796875 0.140625 7.71875 1.703125 
L 7.71875 11.625 
Q 12.109375 9.234375 16.796875 8.0625 
Q 21.484375 6.890625 26.703125 6.890625 
Q 35.15625 6.890625 40.078125 11.328125 
Q 45.015625 15.765625 45.015625 23.390625 
Q 45.015625 31 40.078125 35.4375 
Q 35.15625 39.890625 26.703125 39.890625 
Q 22.75 39.890625 18.8125 39.015625 
Q 14.890625 38.140625 10.796875 36.28125 
z
" id="DejaVuSans-53"/>
      </defs>
      <g transform="translate(28.840063 267.542906)scale(0.14 -0.14)">
       <use xlink:href="#DejaVuSans-8722"/>
       <use x="83.789062" xlink:href="#DejaVuSans-55"/>
       <use x="147.412109" xlink:href="#DejaVuSans-46"/>
       <use x="179.199219" xlink:href="#DejaVuSans-53"/>
      </g>
     </g>
    </g>
    <g id="ytick_3">
     <g id="line2d_6">
      <g>
       <use style="stroke:#000000;stroke-width:1.5;" x="78.336" xlink:href="#m118da6f298" y="230.688"/>
      </g>
     </g>
     <g id="text_7">
      <!-- −5.0 -->
      <g transform="translate(28.840063 236.006906)scale(0.14 -0.14)">
       <use xlink:href="#DejaVuSans-8722"/>
       <use x="83.789062" xlink:href="#DejaVuSans-53"/>
       <use x="147.412109" xlink:href="#DejaVuSans-46"/>
       <use x="179.199219" xlink:href="#DejaVuSans-48"/>
      </g>
     </g>
    </g>
    <g id="ytick_4">
     <g id="line2d_7">
      <g>
       <use style="stroke:#000000;stroke-width:1.5;" x="78.336" xlink:href="#m118da6f298" y="199.152"/>
      </g>
     </g>
     <g id="text_8">
      <!-- −2.5 -->
      <g transform="translate(28.840063 204.470906)scale(0.14 -0.14)">
       <use xlink:href="#DejaVuSans-8722"/>
       <use x="83.789062" xlink:href="#DejaVuSans-50"/>
       <use x="147.412109" xlink:href="#DejaVuSans-46"/>
       <use x="179.199219" xlink:href="#DejaVuSans-53"/>
      </g>
     </g>
    </g>
    <g id="ytick_5">
     <g id="line2d_8">
      <g>
       <use style="stroke:#000000;stroke-width:1.5;" x="78.336" xlink:href="#m118da6f298" y="167.616"/>
      </g>
     </g>
     <g id="text_9">
      <!-- 0.0 -->
      <g transform="translate(40.571625 172.934906)scale(0.14 -0.14)">
       <use xlink:href="#DejaVuSans-48"/>
       <use x="63.623047" xlink:href="#DejaVuSans-46"/>
       <use x="95.410156" xlink:href="#DejaVuSans-48"/>
      </g>
     </g>
    </g>
    <g id="ytick_6">
     <g id="line2d_9">
      <g>
       <use style="stroke:#000000;stroke-width:1.5;" x="78.336" xlink:href="#m118da6f298" y="136.08"/>
      </g>
     </g>
     <g id="text_10">
      <!-- 2.5 -->
      <g transform="translate(40.571625 141.398906)scale(0.14 -0.14)">
       <use xlink:href="#DejaVuSans-50"/>
       <use x="63.623047" xlink:href="#DejaVuSans-46"/>
       <use x="95.410156" xlink:href="#DejaVuSans-53"/>
      </g>
     </g>
    </g>
    <g id="ytick_7">
     <g id="line2d_10">
      <g>
       <use style="stroke:#000000;stroke-width:1.5;" x="78.336" xlink:href="#m118da6f298" y="104.544"/>
      </g>
     </g>
     <g id="text_11">
      <!-- 5.0 -->
      <g transform="translate(40.571625 109.862906)scale(0.14 -0.14)">
       <use xlink:href="#DejaVuSans-53"/>
       <use x="63.623047" xlink:href="#DejaVuSans-46"/>
       <use x="95.410156" xlink:href="#DejaVuSans-48"/>
      </g>
     </g>
    </g>
    <g id="ytick_8">
     <g id="line2d_11">
      <g>
       <use style="stroke:#000000;stroke-width:1.5;" x="78.336" xlink:href="#m118da6f298" y="73.008"/>
      </g>
     </g>
     <g id="text_12">
      <!-- 7.5 -->
      <g transform="translate(40.571625 78.326906)scale(0.14 -0.14)">
       <use xlink:href="#DejaVuSans-55"/>
       <use x="63.623047" xlink:href="#DejaVuSans-46"/>
       <use x="95.410156" xlink:href="#DejaVuSans-53"/>
      </g>
     </g>
    </g>
    <g id="ytick_9">
     <g id="line2d_12">
      <g>
       <use style="stroke:#000000;stroke-width:1.5;" x="78.336" xlink:href="#m118da6f298" y="41.472"/>
      </g>
     </g>
     <g id="text_13">
      <!-- 10.0 -->
      <g transform="translate(31.664125 46.790906)scale(0.14 -0.14)">
       <use xlink:href="#DejaVuSans-49"/>
       <use x="63.623047" xlink:href="#DejaVuSans-48"/>
       <use x="127.246094" xlink:href="#DejaVuSans-46"/>
       <use x="159.033203" xlink:href="#DejaVuSans-48"/>
      </g>
     </g>
    </g>
   </g>
   <g id="line2d_13">
    <defs>
     <path d="M 0 3 
C 0.795609 3 1.55874 2.683901 2.12132 2.12132 
C 2.683901 1.55874 3 0.795609 3 0 
C 3 -0.795609 2.683901 -1.55874 2.12132 -2.12132 
C 1.55874 -2.683901 0.795609 -3 0 -3 
C -0.795609 -3 -1.55874 -2.683901 -2.12132 -2.12132 
C -2.683901 -1.55874 -3 -0.795609 -3 0 
C -3 0.795609 -2.683901 1.55874 -2.12132 2.12132 
C -1.55874 2.683901 -0.795609 3 0 3 
z
" id="m0abc0d8b16" style="stroke:#0000ff;"/>
    </defs>
    <g clip-path="url(#pbd9bf2e152)">
     <use style="fill:#0000ff;stroke:#0000ff;" x="-1" xlink:href="#m0abc0d8b16" y="158.807199"/>
     <use style="fill:#0000ff;stroke:#0000ff;" x="2.901333" xlink:href="#m0abc0d8b16" y="157.031262"/>
     <use style="fill:#0000ff;stroke:#0000ff;" x="10.154667" xlink:href="#m0abc0d8b16" y="152.582743"/>
     <use style="fill:#0000ff;stroke:#0000ff;" x="17.408" xlink:href="#m0abc0d8b16" y="145.767218"/>
     <use style="fill:#0000ff;stroke:#0000ff;" x="24.661333" xlink:href="#m0abc0d8b16" y="132.958221"/>
     <use style="fill:#0000ff;stroke:#0000ff;" x="31.914667" xlink:href="#m0abc0d8b16" y="96.076183"/>
     <use style="fill:#0000ff;stroke:#0000ff;" x="31.914667" xlink:href="#m0abc0d8b16" y="24884.2"/>
     <use style="fill:#0000ff;stroke:#0000ff;" x="46.421333" xlink:href="#m0abc0d8b16" y="24884.2"/>
     <use style="fill:#0000ff;stroke:#0000ff;" x="46.421333" xlink:href="#m0abc0d8b16" y="239.155817"/>
     <use style="fill:#0000ff;stroke:#0000ff;" x="53.674667" xlink:href="#m0abc0d8b16" y="202.273779"/>
     <use style="fill:#0000ff;stroke:#0000ff;" x="60.928" xlink:href="#m0abc0d8b16" y="189.464782"/>
     <use style="fill:#0000ff;stroke:#0000ff;" x="68.181333" xlink:href="#m0abc0d8b16" y="182.649257"/>
     <use style="fill:#0000ff;stroke:#0000ff;" x="75.434667" xlink:href="#m0abc0d8b16" y="178.200738"/>
     <use style="fill:#0000ff;stroke:#0000ff;" x="82.688" xlink:href="#m0abc0d8b16" y="174.898927"/>
     <use style="fill:#0000ff;stroke:#0000ff;" x="89.941333" xlink:href="#m0abc0d8b16" y="172.207266"/>
     <use style="fill:#0000ff;stroke:#0000ff;" x="97.194667" xlink:href="#m0abc0d8b16" y="169.840259"/>
     <use style="fill:#0000ff;stroke:#0000ff;" x="104.448" xlink:href="#m0abc0d8b16" y="167.616"/>
     <use style="fill:#0000ff;stroke:#0000ff;" x="111.701333" xlink:href="#m0abc0d8b16" y="165.391741"/>
     <use style="fill:#0000ff;stroke:#0000ff;" x="118.954667" xlink:href="#m0abc0d8b16" y="163.024734"/>
     <use style="fill:#0000ff;stroke:#0000ff;" x="126.208" xlink:href="#m0abc0d8b16" y="160.333073"/>
     <use style="fill:#0000ff;stroke:#0000ff;" x="133.461333" xlink:href="#m0abc0d8b16" y="157.031262"/>
     <use style="fill:#0000ff;stroke:#0000ff;" x="140.714667" xlink:href="#m0abc0d8b16" y="152.582743"/>
     <use style="fill:#0000ff;stroke:#0000ff;" x="147.968" xlink:href="#m0abc0d8b16" y="145.767218"/>
     <use style="fill:#0000ff;stroke:#0000ff;" x="155.221333" xlink:href="#m0abc0d8b16" y="132.958221"/>
     <use style="fill:#0000ff;stroke:#0000ff;" x="162.474667" xlink:href="#m0abc0d8b16" y="96.076183"/>
     <use style="fill:#0000ff;stroke:#0000ff;" x="162.474667" xlink:href="#m0abc0d8b16" y="24884.2"/>
     <use style="fill:#0000ff;stroke:#0000ff;" x="176.981333" xlink:href="#m0abc0d8b16" y="24884.2"/>
     <use style="fill:#0000ff;stroke:#0000ff;" x="176.981333" xlink:href="#m0abc0d8b16" y="239.155817"/>
     <use style="fill:#0000ff;stroke:#0000ff;" x="184.234667" xlink:href="#m0abc0d8b16" y="202.273779"/>
     <use style="fill:#0000ff;stroke:#0000ff;" x="191.488" xlink:href="#m0abc0d8b16" y="189.464782"/>
     <use style="fill:#0000ff;stroke:#0000ff;" x="198.741333" xlink:href="#m0abc0d8b16" y="182.649257"/>
     <use style="fill:#0000ff;stroke:#0000ff;" x="205.994667" xlink:href="#m0abc0d8b16" y="178.200738"/>
     <use style="fill:#0000ff;stroke:#0000ff;" x="213.248" xlink:href="#m0abc0d8b16" y="174.898927"/>
     <use style="fill:#0000ff;stroke:#0000ff;" x="220.501333" xlink:href="#m0abc0d8b16" y="172.207266"/>
     <use style="fill:#0000ff;stroke:#0000ff;" x="227.754667" xlink:href="#m0abc0d8b16" y="169.840259"/>
     <use style="fill:#0000ff;stroke:#0000ff;" x="235.008" xlink:href="#m0abc0d8b16" y="167.616"/>
     <use style="fill:#0000ff;stroke:#0000ff;" x="242.261333" xlink:href="#m0abc0d8b16" y="165.391741"/>
     <use style="fill:#0000ff;stroke:#0000ff;" x="249.514667" xlink:href="#m0abc0d8b16" y="163.024734"/>
     <use style="fill:#0000ff;stroke:#0000ff;" x="256.768" xlink:href="#m0abc0d8b16" y="160.333073"/>
     <use style="fill:#0000ff;stroke:#0000ff;" x="264.021333" xlink:href="#m0abc0d8b16" y="157.031262"/>
     <use style="fill:#0000ff;stroke:#0000ff;" x="271.274667" xlink:href="#m0abc0d8b16" y="152.582743"/>
     <use style="fill:#0000ff;stroke:#0000ff;" x="278.528" xlink:href="#m0abc0d8b16" y="145.767218"/>
     <use style="fill:#0000ff;stroke:#0000ff;" x="285.781333" xlink:href="#m0abc0d8b16" y="132.958221"/>
     <use style="fill:#0000ff;stroke:#0000ff;" x="293.034667" xlink:href="#m0abc0d8b16" y="96.076183"/>
     <use style="fill:#0000ff;stroke:#0000ff;" x="293.034667" xlink:href="#m0abc0d8b16" y="-1"/>
     <use style="fill:#0000ff;stroke:#0000ff;" x="307.541333" xlink:href="#m0abc0d8b16" y="-1"/>
     <use style="fill:#0000ff;stroke:#0000ff;" x="307.541333" xlink:href="#m0abc0d8b16" y="239.155817"/>
     <use style="fill:#0000ff;stroke:#0000ff;" x="314.794667" xlink:href="#m0abc0d8b16" y="202.273779"/>
     <use style="fill:#0000ff;stroke:#0000ff;" x="322.048" xlink:href="#m0abc0d8b16" y="189.464782"/>
     <use style="fill:#0000ff;stroke:#0000ff;" x="329.301333" xlink:href="#m0abc0d8b16" y="182.649257"/>
     <use style="fill:#0000ff;stroke:#0000ff;" x="336.554667" xlink:href="#m0abc0d8b16" y="178.200738"/>
     <use style="fill:#0000ff;stroke:#0000ff;" x="343.808" xlink:href="#m0abc0d8b16" y="174.898927"/>
     <use style="fill:#0000ff;stroke:#0000ff;" x="351.061333" xlink:href="#m0abc0d8b16" y="172.207266"/>
     <use style="fill:#0000ff;stroke:#0000ff;" x="358.314667" xlink:href="#m0abc0d8b16" y="169.840259"/>
     <use style="fill:#0000ff;stroke:#0000ff;" x="365.568" xlink:href="#m0abc0d8b16" y="167.616"/>
     <use style="fill:#0000ff;stroke:#0000ff;" x="372.821333" xlink:href="#m0abc0d8b16" y="165.391741"/>
     <use style="fill:#0000ff;stroke:#0000ff;" x="380.074667" xlink:href="#m0abc0d8b16" y="163.024734"/>
     <use style="fill:#0000ff;stroke:#0000ff;" x="387.328" xlink:href="#m0abc0d8b16" y="160.333073"/>
     <use style="fill:#0000ff;stroke:#0000ff;" x="394.581333" xlink:href="#m0abc0d8b16" y="157.031262"/>
     <use style="fill:#0000ff;stroke:#0000ff;" x="401.834667" xlink:href="#m0abc0d8b16" y="152.582743"/>
     <use style="fill:#0000ff;stroke:#0000ff;" x="409.088" xlink:href="#m0abc0d8b16" y="145.767218"/>
     <use style="fill:#0000ff;stroke:#0000ff;" x="416.341333" xlink:href="#m0abc0d8b16" y="132.958221"/>
     <use style="fill:#0000ff;stroke:#0000ff;" x="423.594667" xlink:href="#m0abc0d8b16" y="96.076183"/>
     <use style="fill:#0000ff;stroke:#0000ff;" x="423.594667" xlink:href="#m0abc0d8b16" y="-1"/>
     <use style="fill:#0000ff;stroke:#0000ff;" x="438.101333" xlink:href="#m0abc0d8b16" y="-1"/>
     <use style="fill:#0000ff;stroke:#0000ff;" x="438.101333" xlink:href="#m0abc0d8b16" y="239.155817"/>
     <use style="fill:#0000ff;stroke:#0000ff;" x="445.354667" xlink:href="#m0abc0d8b16" y="202.273779"/>
     <use style="fill:#0000ff;stroke:#0000ff;" x="452.608" xlink:href="#m0abc0d8b16" y="189.464782"/>
     <use style="fill:#0000ff;stroke:#0000ff;" x="459.861333" xlink:href="#m0abc0d8b16" y="182.649257"/>
     <use style="fill:#0000ff;stroke:#0000ff;" x="467.114667" xlink:href="#m0abc0d8b16" y="178.200738"/>
     <use style="fill:#0000ff;stroke:#0000ff;" x="474.368" xlink:href="#m0abc0d8b16" y="174.898927"/>
     <use style="fill:#0000ff;stroke:#0000ff;" x="481.621333" xlink:href="#m0abc0d8b16" y="172.207266"/>
     <use style="fill:#0000ff;stroke:#0000ff;" x="488.874667" xlink:href="#m0abc0d8b16" y="169.840259"/>
     <use style="fill:#0000ff;stroke:#0000ff;" x="496.128" xlink:href="#m0abc0d8b16" y="167.616"/>
    </g>
   </g>
   <g id="line2d_14">
    <defs>
     <path d="M 0 1.5 
C 0.397805 1.5 0.77937 1.341951 1.06066 1.06066 
C 1.341951 0.77937 1.5 0.397805 1.5 0 
C 1.5 -0.397805 1.341951 -0.77937 1.06066 -1.06066 
C 0.77937 -1.341951 0.397805 -1.5 0 -1.5 
C -0.397805 -1.5 -0.77937 -1.341951 -1.06066 -1.06066 
C -1.341951 -0.77937 -1.5 -0.397805 -1.5 0 
C -1.5 0.397805 -1.341951 0.77937 -1.06066 1.06066 
C -0.77937 1.341951 -0.397805 1.5 0 1.5 
z
" id="m006fca7cd6" style="stroke:#ff0000;"/>
    </defs>
    <g clip-path="url(#pbd9bf2e152)">
     <use style="fill:#ff0000;stroke:#ff0000;" x="-1" xlink:href="#m006fca7cd6" y="158.807199"/>
     <use style="fill:#ff0000;stroke:#ff0000;" x="2.901333" xlink:href="#m006fca7cd6" y="157.031262"/>
     <use style="fill:#ff0000;stroke:#ff0000;" x="10.154667" xlink:href="#m006fca7cd6" y="152.582743"/>
     <use style="fill:#ff0000;stroke:#ff0000;" x="17.408" xlink:href="#m006fca7cd6" y="145.767218"/>
     <use style="fill:#ff0000;stroke:#ff0000;" x="24.661333" xlink:href="#m006fca7cd6" y="132.958221"/>
     <use style="fill:#ff0000;stroke:#ff0000;" x="31.914667" xlink:href="#m006fca7cd6" y="96.076183"/>
     <use style="fill:#ff0000;stroke:#ff0000;" x="31.914667" xlink:href="#m006fca7cd6" y="-1"/>
     <use style="fill:#ff0000;stroke:#ff0000;" x="46.421333" xlink:href="#m006fca7cd6" y="-1"/>
     <use style="fill:#ff0000;stroke:#ff0000;" x="46.421333" xlink:href="#m006fca7cd6" y="239.155817"/>
     <use style="fill:#ff0000;stroke:#ff0000;" x="53.674667" xlink:href="#m006fca7cd6" y="202.273779"/>
     <use style="fill:#ff0000;stroke:#ff0000;" x="60.928" xlink:href="#m006fca7cd6" y="189.464782"/>
     <use style="fill:#ff0000;stroke:#ff0000;" x="68.181333" xlink:href="#m006fca7cd6" y="182.649257"/>
     <use style="fill:#ff0000;stroke:#ff0000;" x="75.434667" xlink:href="#m006fca7cd6" y="178.200738"/>
     <use style="fill:#ff0000;stroke:#ff0000;" x="82.688" xlink:href="#m006fca7cd6" y="174.898927"/>
     <use style="fill:#ff0000;stroke:#ff0000;" x="89.941333" xlink:href="#m006fca7cd6" y="172.207266"/>
     <use style="fill:#ff0000;stroke:#ff0000;" x="97.194667" xlink:href="#m006fca7cd6" y="169.840259"/>
     <use style="fill:#ff0000;stroke:#ff0000;" x="104.448" xlink:href="#m006fca7cd6" y="167.616"/>
     <use style="fill:#ff0000;stroke:#ff0000;" x="111.701333" xlink:href="#m006fca7cd6" y="165.391741"/>
     <use style="fill:#ff0000;stroke:#ff0000;" x="118.954667" xlink:href="#m006fca7cd6" y="163.024734"/>
     <use style="fill:#ff0000;stroke:#ff0000;" x="126.208" xlink:href="#m006fca7cd6" y="160.333073"/>
     <use style="fill:#ff0000;stroke:#ff0000;" x="133.461333" xlink:href="#m006fca7cd6" y="157.031262"/>
     <use style="fill:#ff0000;stroke:#ff0000;" x="140.714667" xlink:href="#m006fca7cd6" y="152.582743"/>
     <use style="fill:#ff0000;stroke:#ff0000;" x="147.968" xlink:href="#m006fca7cd6" y="145.767218"/>
     <use style="fill:#ff0000;stroke:#ff0000;" x="155.221333" xlink:href="#m006fca7cd6" y="132.958221"/>
     <use style="fill:#ff0000;stroke:#ff0000;" x="162.474667" xlink:href="#m006fca7cd6" y="96.076183"/>
     <use style="fill:#ff0000;stroke:#ff0000;" x="162.474667" xlink:href="#m006fca7cd6" y="-1"/>
     <use style="fill:#ff0000;stroke:#ff0000;" x="176.981333" xlink:href="#m006fca7cd6" y="-1"/>
     <use style="fill:#ff0000;stroke:#ff0000;" x="176.981333" xlink:href="#m006fca7cd6" y="239.155817"/>
     <use style="fill:#ff0000;stroke:#ff0000;" x="184.234667" xlink:href="#m006fca7cd6" y="202.273779"/>
     <use style="fill:#ff0000;stroke:#ff0000;" x="191.488" xlink:href="#m006fca7cd6" y="189.464782"/>
     <use style="fill:#ff0000;stroke:#ff0000;" x="198.741333" xlink:href="#m006fca7cd6" y="182.649257"/>
     <use style="fill:#ff0000;stroke:#ff0000;" x="205.994667" xlink:href="#m006fca7cd6" y="178.200738"/>
     <use style="fill:#ff0000;stroke:#ff0000;" x="213.248" xlink:href="#m006fca7cd6" y="174.898927"/>
     <use style="fill:#ff0000;stroke:#ff0000;" x="220.501333" xlink:href="#m006fca7cd6" y="172.207266"/>
     <use style="fill:#ff0000;stroke:#ff0000;" x="227.754667" xlink:href="#m006fca7cd6" y="169.840259"/>
     <use style="fill:#ff0000;stroke:#ff0000;" x="235.008" xlink:href="#m006fca7cd6" y="167.616"/>
     <use style="fill:#ff0000;stroke:#ff0000;" x="242.261333" xlink:href="#m006fca7cd6" y="165.391741"/>
     <use style="fill:#ff0000;stroke:#ff0000;" x="249.514667" xlink:href="#m006fca7cd6" y="163.024734"/>
     <use style="fill:#ff0000;stroke:#ff0000;" x="256.768" xlink:href="#m006fca7cd6" y="160.333073"/>
     <use style="fill:#ff0000;stroke:#ff0000;" x="264.021333" xlink:href="#m006fca7cd6" y="157.031262"/>
     <use style="fill:#ff0000;stroke:#ff0000;" x="271.274667" xlink:href="#m006fca7cd6" y="152.582743"/>
     <use style="fill:#ff0000;stroke:#ff0000;" x="278.528" xlink:href="#m006fca7cd6" y="145.767218"/>
     <use style="fill:#ff0000;stroke:#ff0000;" x="285.781333" xlink:href="#m006fca7cd6" y="132.958221"/>
     <use style="fill:#ff0000;stroke:#ff0000;" x="293.034667" xlink:href="#m006fca7cd6" y="96.076183"/>
     <use style="fill:#ff0000;stroke:#ff0000;" x="293.034667" xlink:href="#m006fca7cd6" y="-1"/>
     <use style="fill:#ff0000;stroke:#ff0000;" x="307.541333" xlink:href="#m006fca7cd6" y="-1"/>
     <use style="fill:#ff0000;stroke:#ff0000;" x="307.541333" xlink:href="#m006fca7cd6" y="239.155817"/>
     <use style="fill:#ff0000;stroke:#ff0000;" x="314.794667" xlink:href="#m006fca7cd6" y="202.273779"/>
     <use style="fill:#ff0000;stroke:#ff0000;" x="322.048" xlink:href="#m006fca7cd6" y="189.464782"/>
     <use style="fill:#ff0000;stroke:#ff0000;" x="329.301333" xlink:href="#m006fca7cd6" y="182.649257"/>
     <use style="fill:#ff0000;stroke:#ff0000;" x="336.554667" xlink:href="#m006fca7cd6" y="178.200738"/>
     <use style="fill:#ff0000;stroke:#ff0000;" x="343.808" xlink:href="#m006fca7cd6" y="174.898927"/>
     <use style="fill:#ff0000;stroke:#ff0000;" x="351.061333" xlink:href="#m006fca7cd6" y="172.207266"/>
     <use style="fill:#ff0000;stroke:#ff0000;" x="358.314667" xlink:href="#m006fca7cd6" y="169.840259"/>
     <use style="fill:#ff0000;stroke:#ff0000;" x="365.568" xlink:href="#m006fca7cd6" y="167.616"/>
     <use style="fill:#ff0000;stroke:#ff0000;" x="372.821333" xlink:href="#m006fca7cd6" y="165.391741"/>
     <use style="fill:#ff0000;stroke:#ff0000;" x="380.074667" xlink:href="#m006fca7cd6" y="163.024734"/>
     <use style="fill:#ff0000;stroke:#ff0000;" x="387.328" xlink:href="#m006fca7cd6" y="160.333073"/>
     <use style="fill:#ff0000;stroke:#ff0000;" x="394.581333" xlink:href="#m006fca7cd6" y="157.031262"/>
     <use style="fill:#ff0000;stroke:#ff0000;" x="401.834667" xlink:href="#m006fca7cd6" y="152.582743"/>
     <use style="fill:#ff0000;stroke:#ff0000;" x="409.088" xlink:href="#m006fca7cd6" y="145.767218"/>
     <use style="fill:#ff0000;stroke:#ff0000;" x="416.341333" xlink:href="#m006fca7cd6" y="132.958221"/>
     <use style="fill:#ff0000;stroke:#ff0000;" x="423.594667" xlink:href="#m006fca7cd6" y="96.076183"/>
     <use style="fill:#ff0000;stroke:#ff0000;" x="423.594667" xlink:href="#m006fca7cd6" y="-1"/>
     <use style="fill:#ff0000;stroke:#ff0000;" x="438.101333" xlink:href="#m006fca7cd6" y="-1"/>
     <use style="fill:#ff0000;stroke:#ff0000;" x="438.101333" xlink:href="#m006fca7cd6" y="239.155817"/>
     <use style="fill:#ff0000;stroke:#ff0000;" x="445.354667" xlink:href="#m006fca7cd6" y="202.273779"/>
     <use style="fill:#ff0000;stroke:#ff0000;" x="452.608" xlink:href="#m006fca7cd6" y="189.464782"/>
     <use style="fill:#ff0000;stroke:#ff0000;" x="459.861333" xlink:href="#m006fca7cd6" y="182.649257"/>
     <use style="fill:#ff0000;stroke:#ff0000;" x="467.114667" xlink:href="#m006fca7cd6" y="178.200738"/>
     <use style="fill:#ff0000;stroke:#ff0000;" x="474.368" xlink:href="#m006fca7cd6" y="174.898927"/>
     <use style="fill:#ff0000;stroke:#ff0000;" x="481.621333" xlink:href="#m006fca7cd6" y="172.207266"/>
     <use style="fill:#ff0000;stroke:#ff0000;" x="488.874667" xlink:href="#m006fca7cd6" y="169.840259"/>
     <use style="fill:#ff0000;stroke:#ff0000;" x="496.128" xlink:href="#m006fca7cd6" y="167.616"/>
    </g>
   </g>
   <g id="patch_3">
    <path d="M 78.336 293.76 
L 78.336 41.472 
" style="fill:none;stroke:#000000;stroke-linecap:square;stroke-linejoin:miter;stroke-width:1.5;"/>
   </g>
   <g id="patch_4">
    <path d="M 391.68 293.76 
L 391.68 41.472 
" style="fill:none;stroke:#000000;stroke-linecap:square;stroke-linejoin:miter;stroke-width:1.5;"/>
   </g>
   <g id="patch_5">
    <path d="M 78.336 293.76 
L 391.68 293.76 
" style="fill:none;stroke:#000000;stroke-linecap:square;stroke-linejoin:miter;stroke-width:1.5;"/>
   </g>
   <g id="patch_6">
    <path d="M 78.336 41.472 
L 391.68 41.472 
" style="fill:none;stroke:#000000;stroke-linecap:square;stroke-linejoin:miter;stroke-width:1.5;"/>
   </g>
   <g id="legend_1">
    <g id="patch_7">
     <path d="M 209.511563 286.76 
L 381.88 286.76 
Q 384.68 286.76 384.68 283.96 
L 384.68 244.26125 
Q 384.68 241.46125 381.88 241.46125 
L 209.511563 241.46125 
Q 206.711563 241.46125 206.711563 244.26125 
L 206.711563 283.96 
Q 206.711563 286.76 209.511563 286.76 
z
" style="fill:none;opacity:0;"/>
    </g>
    <g id="line2d_15"/>
    <g id="line2d_16">
     <g>
      <use style="fill:#0000ff;stroke:#0000ff;" x="226.311563" xlink:href="#m0abc0d8b16" y="252.799062"/>
     </g>
    </g>
    <g id="text_14">
     <!-- tan -->
     <defs>
      <path d="M 18.3125 70.21875 
L 18.3125 54.6875 
L 36.8125 54.6875 
L 36.8125 47.703125 
L 18.3125 47.703125 
L 18.3125 18.015625 
Q 18.3125 11.328125 20.140625 9.421875 
Q 21.96875 7.515625 27.59375 7.515625 
L 36.8125 7.515625 
L 36.8125 0 
L 27.59375 0 
Q 17.1875 0 13.234375 3.875 
Q 9.28125 7.765625 9.28125 18.015625 
L 9.28125 47.703125 
L 2.6875 47.703125 
L 2.6875 54.6875 
L 9.28125 54.6875 
L 9.28125 70.21875 
z
" id="DejaVuSans-116"/>
     </defs>
     <g transform="translate(251.511563 257.699062)scale(0.14 -0.14)">
      <use xlink:href="#DejaVuSans-116"/>
      <use x="39.208984" xlink:href="#DejaVuSans-97"/>
      <use x="100.488281" xlink:href="#DejaVuSans-110"/>
     </g>
    </g>
    <g id="line2d_17"/>
    <g id="line2d_18">
     <g>
      <use style="fill:#ff0000;stroke:#ff0000;" x="226.311563" xlink:href="#m006fca7cd6" y="273.348437"/>
     </g>
    </g>
    <g id="text_15">
     <!-- tan, shifted by 2pi -->
     <defs>
      <path d="M 11.71875 12.40625 
L 22.015625 12.40625 
L 22.015625 4 
L 14.015625 -11.625 
L 7.71875 -11.625 
L 11.71875 4 
z
" id="DejaVuSans-44"/>
      <path id="DejaVuSans-32"/>
      <path d="M 44.28125 53.078125 
L 44.28125 44.578125 
Q 40.484375 46.53125 36.375 47.5 
Q 32.28125 48.484375 27.875 48.484375 
Q 21.1875 48.484375 17.84375 46.4375 
Q 14.5 44.390625 14.5 40.28125 
Q 14.5 37.15625 16.890625 35.375 
Q 19.28125 33.59375 26.515625 31.984375 
L 29.59375 31.296875 
Q 39.15625 29.25 43.1875 25.515625 
Q 47.21875 21.78125 47.21875 15.09375 
Q 47.21875 7.46875 41.1875 3.015625 
Q 35.15625 -1.421875 24.609375 -1.421875 
Q 20.21875 -1.421875 15.453125 -0.5625 
Q 10.6875 0.296875 5.421875 2 
L 5.421875 11.28125 
Q 10.40625 8.6875 15.234375 7.390625 
Q 20.0625 6.109375 24.8125 6.109375 
Q 31.15625 6.109375 34.5625 8.28125 
Q 37.984375 10.453125 37.984375 14.40625 
Q 37.984375 18.0625 35.515625 20.015625 
Q 33.0625 21.96875 24.703125 23.78125 
L 21.578125 24.515625 
Q 13.234375 26.265625 9.515625 29.90625 
Q 5.8125 33.546875 5.8125 39.890625 
Q 5.8125 47.609375 11.28125 51.796875 
Q 16.75 56 26.8125 56 
Q 31.78125 56 36.171875 55.265625 
Q 40.578125 54.546875 44.28125 53.078125 
z
" id="DejaVuSans-115"/>
      <path d="M 54.890625 33.015625 
L 54.890625 0 
L 45.90625 0 
L 45.90625 32.71875 
Q 45.90625 40.484375 42.875 44.328125 
Q 39.84375 48.1875 33.796875 48.1875 
Q 26.515625 48.1875 22.3125 43.546875 
Q 18.109375 38.921875 18.109375 30.90625 
L 18.109375 0 
L 9.078125 0 
L 9.078125 75.984375 
L 18.109375 75.984375 
L 18.109375 46.1875 
Q 21.34375 51.125 25.703125 53.5625 
Q 30.078125 56 35.796875 56 
Q 45.21875 56 50.046875 50.171875 
Q 54.890625 44.34375 54.890625 33.015625 
z
" id="DejaVuSans-104"/>
      <path d="M 37.109375 75.984375 
L 37.109375 68.5 
L 28.515625 68.5 
Q 23.6875 68.5 21.796875 66.546875 
Q 19.921875 64.59375 19.921875 59.515625 
L 19.921875 54.6875 
L 34.71875 54.6875 
L 34.71875 47.703125 
L 19.921875 47.703125 
L 19.921875 0 
L 10.890625 0 
L 10.890625 47.703125 
L 2.296875 47.703125 
L 2.296875 54.6875 
L 10.890625 54.6875 
L 10.890625 58.5 
Q 10.890625 67.625 15.140625 71.796875 
Q 19.390625 75.984375 28.609375 75.984375 
z
" id="DejaVuSans-102"/>
      <path d="M 56.203125 29.59375 
L 56.203125 25.203125 
L 14.890625 25.203125 
Q 15.484375 15.921875 20.484375 11.0625 
Q 25.484375 6.203125 34.421875 6.203125 
Q 39.59375 6.203125 44.453125 7.46875 
Q 49.3125 8.734375 54.109375 11.28125 
L 54.109375 2.78125 
Q 49.265625 0.734375 44.1875 -0.34375 
Q 39.109375 -1.421875 33.890625 -1.421875 
Q 20.796875 -1.421875 13.15625 6.1875 
Q 5.515625 13.8125 5.515625 26.8125 
Q 5.515625 40.234375 12.765625 48.109375 
Q 20.015625 56 32.328125 56 
Q 43.359375 56 49.78125 48.890625 
Q 56.203125 41.796875 56.203125 29.59375 
z
M 47.21875 32.234375 
Q 47.125 39.59375 43.09375 43.984375 
Q 39.0625 48.390625 32.421875 48.390625 
Q 24.90625 48.390625 20.390625 44.140625 
Q 15.875 39.890625 15.1875 32.171875 
z
" id="DejaVuSans-101"/>
      <path d="M 48.6875 27.296875 
Q 48.6875 37.203125 44.609375 42.84375 
Q 40.53125 48.484375 33.40625 48.484375 
Q 26.265625 48.484375 22.1875 42.84375 
Q 18.109375 37.203125 18.109375 27.296875 
Q 18.109375 17.390625 22.1875 11.75 
Q 26.265625 6.109375 33.40625 6.109375 
Q 40.53125 6.109375 44.609375 11.75 
Q 48.6875 17.390625 48.6875 27.296875 
z
M 18.109375 46.390625 
Q 20.953125 51.265625 25.265625 53.625 
Q 29.59375 56 35.59375 56 
Q 45.5625 56 51.78125 48.09375 
Q 58.015625 40.1875 58.015625 27.296875 
Q 58.015625 14.40625 51.78125 6.484375 
Q 45.5625 -1.421875 35.59375 -1.421875 
Q 29.59375 -1.421875 25.265625 0.953125 
Q 20.953125 3.328125 18.109375 8.203125 
L 18.109375 0 
L 9.078125 0 
L 9.078125 75.984375 
L 18.109375 75.984375 
z
" id="DejaVuSans-98"/>
      <path d="M 32.171875 -5.078125 
Q 28.375 -14.84375 24.75 -17.8125 
Q 21.140625 -20.796875 15.09375 -20.796875 
L 7.90625 -20.796875 
L 7.90625 -13.28125 
L 13.1875 -13.28125 
Q 16.890625 -13.28125 18.9375 -11.515625 
Q 21 -9.765625 23.484375 -3.21875 
L 25.09375 0.875 
L 2.984375 54.6875 
L 12.5 54.6875 
L 29.59375 11.921875 
L 46.6875 54.6875 
L 56.203125 54.6875 
z
" id="DejaVuSans-121"/>
      <path d="M 18.109375 8.203125 
L 18.109375 -20.796875 
L 9.078125 -20.796875 
L 9.078125 54.6875 
L 18.109375 54.6875 
L 18.109375 46.390625 
Q 20.953125 51.265625 25.265625 53.625 
Q 29.59375 56 35.59375 56 
Q 45.5625 56 51.78125 48.09375 
Q 58.015625 40.1875 58.015625 27.296875 
Q 58.015625 14.40625 51.78125 6.484375 
Q 45.5625 -1.421875 35.59375 -1.421875 
Q 29.59375 -1.421875 25.265625 0.953125 
Q 20.953125 3.328125 18.109375 8.203125 
z
M 48.6875 27.296875 
Q 48.6875 37.203125 44.609375 42.84375 
Q 40.53125 48.484375 33.40625 48.484375 
Q 26.265625 48.484375 22.1875 42.84375 
Q 18.109375 37.203125 18.109375 27.296875 
Q 18.109375 17.390625 22.1875 11.75 
Q 26.265625 6.109375 33.40625 6.109375 
Q 40.53125 6.109375 44.609375 11.75 
Q 48.6875 17.390625 48.6875 27.296875 
z
" id="DejaVuSans-112"/>
     </defs>
     <g transform="translate(251.511563 278.248437)scale(0.14 -0.14)">
      <use xlink:href="#DejaVuSans-116"/>
      <use x="39.208984" xlink:href="#DejaVuSans-97"/>
      <use x="100.488281" xlink:href="#DejaVuSans-110"/>
      <use x="163.867188" xlink:href="#DejaVuSans-44"/>
      <use x="195.654297" xlink:href="#DejaVuSans-32"/>
      <use x="227.441406" xlink:href="#DejaVuSans-115"/>
      <use x="279.541016" xlink:href="#DejaVuSans-104"/>
      <use x="342.919922" xlink:href="#DejaVuSans-105"/>
      <use x="370.703125" xlink:href="#DejaVuSans-102"/>
      <use x="405.892578" xlink:href="#DejaVuSans-116"/>
      <use x="445.101562" xlink:href="#DejaVuSans-101"/>
      <use x="506.625" xlink:href="#DejaVuSans-100"/>
      <use x="570.101562" xlink:href="#DejaVuSans-32"/>
      <use x="601.888672" xlink:href="#DejaVuSans-98"/>
      <use x="665.365234" xlink:href="#DejaVuSans-121"/>
      <use x="724.544922" xlink:href="#DejaVuSans-32"/>
      <use x="756.332031" xlink:href="#DejaVuSans-50"/>
      <use x="819.955078" xlink:href="#DejaVuSans-112"/>
      <use x="883.431641" xlink:href="#DejaVuSans-105"/>
     </g>
    </g>
   </g>
  </g>
 </g>
 <defs>
  <clipPath id="pbd9bf2e152">
   <rect height="252.288" width="313.344" x="78.336" y="41.472"/>
  </clipPath>
 </defs>
</svg>
