<?xml version="1.0" encoding="utf-8" standalone="no"?>
<!DOCTYPE svg PUBLIC "-//W3C//DTD SVG 1.1//EN"
  "http://www.w3.org/Graphics/SVG/1.1/DTD/svg11.dtd">
<!-- Created with matplotlib (https://matplotlib.org/) -->
<svg height="345.6pt" version="1.1" viewBox="0 0 460.8 345.6" width="460.8pt" xmlns="http://www.w3.org/2000/svg" xmlns:xlink="http://www.w3.org/1999/xlink">
 <defs>
  <style type="text/css">
*{stroke-linecap:butt;stroke-linejoin:round;}
  </style>
 </defs>
 <g id="figure_1">
  <g id="patch_1">
   <path d="M 0 345.6 
L 460.8 345.6 
L 460.8 0 
L 0 0 
z
" style="fill:#ffffff;"/>
  </g>
  <g id="axes_1">
   <g id="patch_2">
    <path d="M 78.336 285.12 
L 391.68 285.12 
L 391.68 50.112 
L 78.336 50.112 
z
" style="fill:#ffffff;"/>
   </g>
   <g id="matplotlib.axis_1">
    <g id="xtick_1">
     <g id="line2d_1">
      <defs>
       <path d="M 0 0 
L 0 12 
" id="m76afed072a" style="stroke:#000000;stroke-width:1.5;"/>
      </defs>
      <g>
       <use style="stroke:#000000;stroke-width:1.5;" x="98.998237" xlink:href="#m76afed072a" y="285.12"/>
      </g>
     </g>
     <g id="text_1">
      <!-- −6 -->
      <defs>
       <path d="M 10.59375 35.5 
L 73.1875 35.5 
L 73.1875 27.203125 
L 10.59375 27.203125 
z
" id="DejaVuSans-8722"/>
       <path d="M 33.015625 40.375 
Q 26.375 40.375 22.484375 35.828125 
Q 18.609375 31.296875 18.609375 23.390625 
Q 18.609375 15.53125 22.484375 10.953125 
Q 26.375 6.390625 33.015625 6.390625 
Q 39.65625 6.390625 43.53125 10.953125 
Q 47.40625 15.53125 47.40625 23.390625 
Q 47.40625 31.296875 43.53125 35.828125 
Q 39.65625 40.375 33.015625 40.375 
z
M 52.59375 71.296875 
L 52.59375 62.3125 
Q 48.875 64.0625 45.09375 64.984375 
Q 41.3125 65.921875 37.59375 65.921875 
Q 27.828125 65.921875 22.671875 59.328125 
Q 17.53125 52.734375 16.796875 39.40625 
Q 19.671875 43.65625 24.015625 45.921875 
Q 28.375 48.1875 33.59375 48.1875 
Q 44.578125 48.1875 50.953125 41.515625 
Q 57.328125 34.859375 57.328125 23.390625 
Q 57.328125 12.15625 50.6875 5.359375 
Q 44.046875 -1.421875 33.015625 -1.421875 
Q 20.359375 -1.421875 13.671875 8.265625 
Q 6.984375 17.96875 6.984375 36.375 
Q 6.984375 53.65625 15.1875 63.9375 
Q 23.390625 74.21875 37.203125 74.21875 
Q 40.921875 74.21875 44.703125 73.484375 
Q 48.484375 72.75 52.59375 71.296875 
z
" id="DejaVuSans-54"/>
      </defs>
      <g transform="translate(88.678706 311.257812)scale(0.14 -0.14)">
       <use xlink:href="#DejaVuSans-8722"/>
       <use x="83.789062" xlink:href="#DejaVuSans-54"/>
      </g>
     </g>
    </g>
    <g id="xtick_2">
     <g id="line2d_2">
      <g>
       <use style="stroke:#000000;stroke-width:1.5;" x="144.334825" xlink:href="#m76afed072a" y="285.12"/>
      </g>
     </g>
     <g id="text_2">
      <!-- −4 -->
      <defs>
       <path d="M 37.796875 64.3125 
L 12.890625 25.390625 
L 37.796875 25.390625 
z
M 35.203125 72.90625 
L 47.609375 72.90625 
L 47.609375 25.390625 
L 58.015625 25.390625 
L 58.015625 17.1875 
L 47.609375 17.1875 
L 47.609375 0 
L 37.796875 0 
L 37.796875 17.1875 
L 4.890625 17.1875 
L 4.890625 26.703125 
z
" id="DejaVuSans-52"/>
      </defs>
      <g transform="translate(134.015293 311.257812)scale(0.14 -0.14)">
       <use xlink:href="#DejaVuSans-8722"/>
       <use x="83.789062" xlink:href="#DejaVuSans-52"/>
      </g>
     </g>
    </g>
    <g id="xtick_3">
     <g id="line2d_3">
      <g>
       <use style="stroke:#000000;stroke-width:1.5;" x="189.671412" xlink:href="#m76afed072a" y="285.12"/>
      </g>
     </g>
     <g id="text_3">
      <!-- −2 -->
      <defs>
       <path d="M 19.1875 8.296875 
L 53.609375 8.296875 
L 53.609375 0 
L 7.328125 0 
L 7.328125 8.296875 
Q 12.9375 14.109375 22.625 23.890625 
Q 32.328125 33.6875 34.8125 36.53125 
Q 39.546875 41.84375 41.421875 45.53125 
Q 43.3125 49.21875 43.3125 52.78125 
Q 43.3125 58.59375 39.234375 62.25 
Q 35.15625 65.921875 28.609375 65.921875 
Q 23.96875 65.921875 18.8125 64.3125 
Q 13.671875 62.703125 7.8125 59.421875 
L 7.8125 69.390625 
Q 13.765625 71.78125 18.9375 73 
Q 24.125 74.21875 28.421875 74.21875 
Q 39.75 74.21875 46.484375 68.546875 
Q 53.21875 62.890625 53.21875 53.421875 
Q 53.21875 48.921875 51.53125 44.890625 
Q 49.859375 40.875 45.40625 35.40625 
Q 44.1875 33.984375 37.640625 27.21875 
Q 31.109375 20.453125 19.1875 8.296875 
z
" id="DejaVuSans-50"/>
      </defs>
      <g transform="translate(179.351881 311.257812)scale(0.14 -0.14)">
       <use xlink:href="#DejaVuSans-8722"/>
       <use x="83.789062" xlink:href="#DejaVuSans-50"/>
      </g>
     </g>
    </g>
    <g id="xtick_4">
     <g id="line2d_4">
      <g>
       <use style="stroke:#000000;stroke-width:1.5;" x="235.008" xlink:href="#m76afed072a" y="285.12"/>
      </g>
     </g>
     <g id="text_4">
      <!-- 0 -->
      <defs>
       <path d="M 31.78125 66.40625 
Q 24.171875 66.40625 20.328125 58.90625 
Q 16.5 51.421875 16.5 36.375 
Q 16.5 21.390625 20.328125 13.890625 
Q 24.171875 6.390625 31.78125 6.390625 
Q 39.453125 6.390625 43.28125 13.890625 
Q 47.125 21.390625 47.125 36.375 
Q 47.125 51.421875 43.28125 58.90625 
Q 39.453125 66.40625 31.78125 66.40625 
z
M 31.78125 74.21875 
Q 44.046875 74.21875 50.515625 64.515625 
Q 56.984375 54.828125 56.984375 36.375 
Q 56.984375 17.96875 50.515625 8.265625 
Q 44.046875 -1.421875 31.78125 -1.421875 
Q 19.53125 -1.421875 13.0625 8.265625 
Q 6.59375 17.96875 6.59375 36.375 
Q 6.59375 54.828125 13.0625 64.515625 
Q 19.53125 74.21875 31.78125 74.21875 
z
" id="DejaVuSans-48"/>
      </defs>
      <g transform="translate(230.55425 311.257812)scale(0.14 -0.14)">
       <use xlink:href="#DejaVuSans-48"/>
      </g>
     </g>
    </g>
    <g id="xtick_5">
     <g id="line2d_5">
      <g>
       <use style="stroke:#000000;stroke-width:1.5;" x="280.344588" xlink:href="#m76afed072a" y="285.12"/>
      </g>
     </g>
     <g id="text_5">
      <!-- 2 -->
      <g transform="translate(275.890838 311.257812)scale(0.14 -0.14)">
       <use xlink:href="#DejaVuSans-50"/>
      </g>
     </g>
    </g>
    <g id="xtick_6">
     <g id="line2d_6">
      <g>
       <use style="stroke:#000000;stroke-width:1.5;" x="325.681175" xlink:href="#m76afed072a" y="285.12"/>
      </g>
     </g>
     <g id="text_6">
      <!-- 4 -->
      <g transform="translate(321.227425 311.257812)scale(0.14 -0.14)">
       <use xlink:href="#DejaVuSans-52"/>
      </g>
     </g>
    </g>
    <g id="xtick_7">
     <g id="line2d_7">
      <g>
       <use style="stroke:#000000;stroke-width:1.5;" x="371.017763" xlink:href="#m76afed072a" y="285.12"/>
      </g>
     </g>
     <g id="text_7">
      <!-- 6 -->
      <g transform="translate(366.564013 311.257812)scale(0.14 -0.14)">
       <use xlink:href="#DejaVuSans-54"/>
      </g>
     </g>
    </g>
    <g id="text_8">
     <!-- x -->
     <defs>
      <path d="M 54.890625 54.6875 
L 35.109375 28.078125 
L 55.90625 0 
L 45.3125 0 
L 29.390625 21.484375 
L 13.484375 0 
L 2.875 0 
L 24.125 28.609375 
L 4.6875 54.6875 
L 15.28125 54.6875 
L 29.78125 35.203125 
L 44.28125 54.6875 
z
" id="DejaVuSans-120"/>
     </defs>
     <g transform="translate(230.864875 328.807187)scale(0.14 -0.14)">
      <use xlink:href="#DejaVuSans-120"/>
     </g>
    </g>
   </g>
   <g id="matplotlib.axis_2">
    <g id="ytick_1">
     <g id="line2d_8">
      <defs>
       <path d="M 0 0 
L -12 0 
" id="mdc1182a61e" style="stroke:#000000;stroke-width:1.5;"/>
      </defs>
      <g>
       <use style="stroke:#000000;stroke-width:1.5;" x="78.336" xlink:href="#mdc1182a61e" y="268.01849"/>
      </g>
     </g>
     <g id="text_9">
      <!-- −6 -->
      <g transform="translate(42.196938 273.337397)scale(0.14 -0.14)">
       <use xlink:href="#DejaVuSans-8722"/>
       <use x="83.789062" xlink:href="#DejaVuSans-54"/>
      </g>
     </g>
    </g>
    <g id="ytick_2">
     <g id="line2d_9">
      <g>
       <use style="stroke:#000000;stroke-width:1.5;" x="78.336" xlink:href="#mdc1182a61e" y="222.681903"/>
      </g>
     </g>
     <g id="text_10">
      <!-- −4 -->
      <g transform="translate(42.196938 228.000809)scale(0.14 -0.14)">
       <use xlink:href="#DejaVuSans-8722"/>
       <use x="83.789062" xlink:href="#DejaVuSans-52"/>
      </g>
     </g>
    </g>
    <g id="ytick_3">
     <g id="line2d_10">
      <g>
       <use style="stroke:#000000;stroke-width:1.5;" x="78.336" xlink:href="#mdc1182a61e" y="177.345315"/>
      </g>
     </g>
     <g id="text_11">
      <!-- −2 -->
      <g transform="translate(42.196938 182.664221)scale(0.14 -0.14)">
       <use xlink:href="#DejaVuSans-8722"/>
       <use x="83.789062" xlink:href="#DejaVuSans-50"/>
      </g>
     </g>
    </g>
    <g id="ytick_4">
     <g id="line2d_11">
      <g>
       <use style="stroke:#000000;stroke-width:1.5;" x="78.336" xlink:href="#mdc1182a61e" y="132.008727"/>
      </g>
     </g>
     <g id="text_12">
      <!-- 0 -->
      <g transform="translate(53.9285 137.327634)scale(0.14 -0.14)">
       <use xlink:href="#DejaVuSans-48"/>
      </g>
     </g>
    </g>
    <g id="ytick_5">
     <g id="line2d_12">
      <g>
       <use style="stroke:#000000;stroke-width:1.5;" x="78.336" xlink:href="#mdc1182a61e" y="86.67214"/>
      </g>
     </g>
     <g id="text_13">
      <!-- 2 -->
      <g transform="translate(53.9285 91.991046)scale(0.14 -0.14)">
       <use xlink:href="#DejaVuSans-50"/>
      </g>
     </g>
    </g>
   </g>
   <g id="line2d_13">
    <path clip-path="url(#p12abc70736)" d="M 92.578909 274.437818 
L 96.535273 270.481455 
L 100.491636 266.525091 
L 104.448 262.568727 
L 108.404364 258.612364 
L 112.360727 254.656 
L 116.317091 250.699636 
L 120.273455 246.743273 
L 124.229818 242.786909 
L 128.186182 238.830545 
L 132.142545 234.874182 
L 136.098909 230.917818 
L 140.055273 226.961455 
L 144.011636 223.005091 
L 147.968 219.048727 
L 151.924364 215.092364 
L 155.880727 211.136 
L 159.837091 207.179636 
L 163.793455 203.223273 
L 167.749818 199.266909 
L 171.706182 195.310545 
L 175.662545 191.354182 
L 179.618909 187.397818 
L 183.575273 183.441455 
L 187.531636 179.485091 
L 191.488 175.528727 
L 195.444364 171.572364 
L 199.400727 167.616 
L 203.357091 163.659636 
L 207.313455 159.703273 
L 211.269818 155.746909 
L 215.226182 151.790545 
L 219.182545 147.834182 
L 223.138909 143.877818 
L 227.095273 139.921455 
L 231.051636 135.965091 
L 235.008 132.008727 
L 238.964364 135.965091 
L 242.920727 139.921455 
L 246.877091 143.877818 
L 250.833455 147.834182 
L 254.789818 151.790545 
L 258.746182 155.746909 
L 262.702545 159.703273 
L 266.658909 163.659636 
L 270.615273 167.616 
L 274.571636 171.572364 
L 278.528 175.528727 
L 282.484364 179.485091 
L 286.440727 183.441455 
L 290.397091 187.397818 
L 294.353455 191.354182 
L 298.309818 195.310545 
L 302.266182 199.266909 
L 306.222545 203.223273 
L 310.178909 207.179636 
L 314.135273 211.136 
L 318.091636 215.092364 
L 322.048 219.048727 
L 326.004364 223.005091 
L 329.960727 226.961455 
L 333.917091 230.917818 
L 337.873455 234.874182 
L 341.829818 238.830545 
L 345.786182 242.786909 
L 349.742545 246.743273 
L 353.698909 250.699636 
L 357.655273 254.656 
L 361.611636 258.612364 
L 365.568 262.568727 
L 369.524364 266.525091 
L 373.480727 270.481455 
L 377.437091 274.437818 
" style="fill:none;stroke:#1f77b4;stroke-linecap:square;stroke-width:1.5;"/>
   </g>
   <g id="line2d_14">
    <path clip-path="url(#p12abc70736)" d="M 92.578909 203.223273 
L 96.535273 199.266909 
L 100.491636 195.310545 
L 104.448 191.354182 
L 108.404364 187.397818 
L 112.360727 183.441455 
L 116.317091 179.485091 
L 120.273455 175.528727 
L 124.229818 171.572364 
L 128.186182 167.616 
L 132.142545 163.659636 
L 136.098909 159.703273 
L 140.055273 155.746909 
L 144.011636 151.790545 
L 147.968 147.834182 
L 151.924364 143.877818 
L 155.880727 139.921455 
L 159.837091 135.965091 
L 163.793455 132.008727 
L 167.749818 128.052364 
L 171.706182 124.096 
L 175.662545 120.139636 
L 179.618909 116.183273 
L 183.575273 112.226909 
L 187.531636 108.270545 
L 191.488 104.314182 
L 195.444364 100.357818 
L 199.400727 96.401455 
L 203.357091 92.445091 
L 207.313455 88.488727 
L 211.269818 84.532364 
L 215.226182 80.576 
L 219.182545 76.619636 
L 223.138909 72.663273 
L 227.095273 68.706909 
L 231.051636 64.750545 
L 235.008 60.794182 
L 238.964364 64.750545 
L 242.920727 68.706909 
L 246.877091 72.663273 
L 250.833455 76.619636 
L 254.789818 80.576 
L 258.746182 84.532364 
L 262.702545 88.488727 
L 266.658909 92.445091 
L 270.615273 96.401455 
L 274.571636 100.357818 
L 278.528 104.314182 
L 282.484364 108.270545 
L 286.440727 112.226909 
L 290.397091 116.183273 
L 294.353455 120.139636 
L 298.309818 124.096 
L 302.266182 128.052364 
L 306.222545 132.008727 
L 310.178909 135.965091 
L 314.135273 139.921455 
L 318.091636 143.877818 
L 322.048 147.834182 
L 326.004364 151.790545 
L 329.960727 155.746909 
L 333.917091 159.703273 
L 337.873455 163.659636 
L 341.829818 167.616 
L 345.786182 171.572364 
L 349.742545 175.528727 
L 353.698909 179.485091 
L 357.655273 183.441455 
L 361.611636 187.397818 
L 365.568 191.354182 
L 369.524364 195.310545 
L 373.480727 199.266909 
L 377.437091 203.223273 
" style="fill:none;stroke:#ff7f0e;stroke-linecap:square;stroke-width:1.5;"/>
   </g>
   <g id="line2d_15">
    <path clip-path="url(#p12abc70736)" d="M 92.578909 274.437818 
L 96.535273 270.481455 
L 100.491636 266.525091 
L 104.448 262.568727 
L 108.404364 258.612364 
L 112.360727 254.656 
L 116.317091 250.699636 
L 120.273455 246.743273 
L 124.229818 242.786909 
L 128.186182 238.830545 
L 132.142545 234.874182 
L 136.098909 230.917818 
L 140.055273 226.961455 
L 144.011636 223.005091 
L 147.968 219.048727 
L 151.924364 215.092364 
L 155.880727 211.136 
L 159.837091 207.179636 
L 163.793455 203.223273 
L 167.749818 199.266909 
L 171.706182 195.310545 
L 175.662545 191.354182 
L 179.618909 187.397818 
L 183.575273 183.441455 
L 187.531636 179.485091 
L 191.488 175.528727 
L 195.444364 171.572364 
L 199.400727 167.616 
L 203.357091 163.659636 
L 207.313455 159.703273 
L 211.269818 155.746909 
L 215.226182 151.790545 
L 219.182545 147.834182 
L 223.138909 143.877818 
L 227.095273 139.921455 
L 231.051636 135.965091 
L 235.008 132.008727 
L 238.964364 128.052364 
L 242.920727 124.096 
L 246.877091 120.139636 
L 250.833455 116.183273 
L 254.789818 112.226909 
L 258.746182 108.270545 
L 262.702545 104.314182 
L 266.658909 100.357818 
L 270.615273 96.401455 
L 274.571636 92.445091 
L 278.528 88.488727 
L 282.484364 84.532364 
L 286.440727 80.576 
L 290.397091 76.619636 
L 294.353455 72.663273 
L 298.309818 68.706909 
L 302.266182 64.750545 
L 306.222545 60.794182 
L 310.178909 64.750545 
L 314.135273 68.706909 
L 318.091636 72.663273 
L 322.048 76.619636 
L 326.004364 80.576 
L 329.960727 84.532364 
L 333.917091 88.488727 
L 337.873455 92.445091 
L 341.829818 96.401455 
L 345.786182 100.357818 
L 349.742545 104.314182 
L 353.698909 108.270545 
L 357.655273 112.226909 
L 361.611636 116.183273 
L 365.568 120.139636 
L 369.524364 124.096 
L 373.480727 128.052364 
L 377.437091 132.008727 
" style="fill:none;stroke:#2ca02c;stroke-linecap:square;stroke-width:1.5;"/>
   </g>
   <g id="line2d_16">
    <path clip-path="url(#p12abc70736)" d="M 78.336 132.008727 
L 391.68 132.008727 
" style="fill:none;stroke:#000000;stroke-linecap:square;stroke-width:0.5;"/>
   </g>
   <g id="line2d_17">
    <path clip-path="url(#p12abc70736)" d="M 235.008 285.12 
L 235.008 50.112 
" style="fill:none;stroke:#000000;stroke-linecap:square;stroke-width:0.5;"/>
   </g>
   <g id="line2d_18">
    <path clip-path="url(#p12abc70736)" d="M 306.222545 285.12 
L 306.222545 50.112 
" style="fill:none;stroke:#000000;stroke-linecap:square;stroke-width:0.5;"/>
   </g>
   <g id="patch_3">
    <path d="M 78.336 285.12 
L 78.336 50.112 
" style="fill:none;stroke:#000000;stroke-linecap:square;stroke-linejoin:miter;stroke-width:1.5;"/>
   </g>
   <g id="patch_4">
    <path d="M 391.68 285.12 
L 391.68 50.112 
" style="fill:none;stroke:#000000;stroke-linecap:square;stroke-linejoin:miter;stroke-width:1.5;"/>
   </g>
   <g id="patch_5">
    <path d="M 78.336 285.12 
L 391.68 285.12 
" style="fill:none;stroke:#000000;stroke-linecap:square;stroke-linejoin:miter;stroke-width:1.5;"/>
   </g>
   <g id="patch_6">
    <path d="M 78.336 50.112 
L 391.68 50.112 
" style="fill:none;stroke:#000000;stroke-linecap:square;stroke-linejoin:miter;stroke-width:1.5;"/>
   </g>
   <g id="legend_1">
    <g id="patch_7">
     <path d="M 172.794406 278.12 
L 297.221594 278.12 
Q 300.021594 278.12 300.021594 275.32 
L 300.021594 215.071875 
Q 300.021594 212.271875 297.221594 212.271875 
L 172.794406 212.271875 
Q 169.994406 212.271875 169.994406 215.071875 
L 169.994406 275.32 
Q 169.994406 278.12 172.794406 278.12 
z
" style="fill:none;opacity:0;"/>
    </g>
    <g id="line2d_19">
     <path d="M 175.594406 223.609687 
L 203.594406 223.609687 
" style="fill:none;stroke:#1f77b4;stroke-linecap:square;stroke-width:1.5;"/>
    </g>
    <g id="line2d_20"/>
    <g id="text_14">
     <!-- -abs(x) -->
     <defs>
      <path d="M 4.890625 31.390625 
L 31.203125 31.390625 
L 31.203125 23.390625 
L 4.890625 23.390625 
z
" id="DejaVuSans-45"/>
      <path d="M 34.28125 27.484375 
Q 23.390625 27.484375 19.1875 25 
Q 14.984375 22.515625 14.984375 16.5 
Q 14.984375 11.71875 18.140625 8.90625 
Q 21.296875 6.109375 26.703125 6.109375 
Q 34.1875 6.109375 38.703125 11.40625 
Q 43.21875 16.703125 43.21875 25.484375 
L 43.21875 27.484375 
z
M 52.203125 31.203125 
L 52.203125 0 
L 43.21875 0 
L 43.21875 8.296875 
Q 40.140625 3.328125 35.546875 0.953125 
Q 30.953125 -1.421875 24.3125 -1.421875 
Q 15.921875 -1.421875 10.953125 3.296875 
Q 6 8.015625 6 15.921875 
Q 6 25.140625 12.171875 29.828125 
Q 18.359375 34.515625 30.609375 34.515625 
L 43.21875 34.515625 
L 43.21875 35.40625 
Q 43.21875 41.609375 39.140625 45 
Q 35.0625 48.390625 27.6875 48.390625 
Q 23 48.390625 18.546875 47.265625 
Q 14.109375 46.140625 10.015625 43.890625 
L 10.015625 52.203125 
Q 14.9375 54.109375 19.578125 55.046875 
Q 24.21875 56 28.609375 56 
Q 40.484375 56 46.34375 49.84375 
Q 52.203125 43.703125 52.203125 31.203125 
z
" id="DejaVuSans-97"/>
      <path d="M 48.6875 27.296875 
Q 48.6875 37.203125 44.609375 42.84375 
Q 40.53125 48.484375 33.40625 48.484375 
Q 26.265625 48.484375 22.1875 42.84375 
Q 18.109375 37.203125 18.109375 27.296875 
Q 18.109375 17.390625 22.1875 11.75 
Q 26.265625 6.109375 33.40625 6.109375 
Q 40.53125 6.109375 44.609375 11.75 
Q 48.6875 17.390625 48.6875 27.296875 
z
M 18.109375 46.390625 
Q 20.953125 51.265625 25.265625 53.625 
Q 29.59375 56 35.59375 56 
Q 45.5625 56 51.78125 48.09375 
Q 58.015625 40.1875 58.015625 27.296875 
Q 58.015625 14.40625 51.78125 6.484375 
Q 45.5625 -1.421875 35.59375 -1.421875 
Q 29.59375 -1.421875 25.265625 0.953125 
Q 20.953125 3.328125 18.109375 8.203125 
L 18.109375 0 
L 9.078125 0 
L 9.078125 75.984375 
L 18.109375 75.984375 
z
" id="DejaVuSans-98"/>
      <path d="M 44.28125 53.078125 
L 44.28125 44.578125 
Q 40.484375 46.53125 36.375 47.5 
Q 32.28125 48.484375 27.875 48.484375 
Q 21.1875 48.484375 17.84375 46.4375 
Q 14.5 44.390625 14.5 40.28125 
Q 14.5 37.15625 16.890625 35.375 
Q 19.28125 33.59375 26.515625 31.984375 
L 29.59375 31.296875 
Q 39.15625 29.25 43.1875 25.515625 
Q 47.21875 21.78125 47.21875 15.09375 
Q 47.21875 7.46875 41.1875 3.015625 
Q 35.15625 -1.421875 24.609375 -1.421875 
Q 20.21875 -1.421875 15.453125 -0.5625 
Q 10.6875 0.296875 5.421875 2 
L 5.421875 11.28125 
Q 10.40625 8.6875 15.234375 7.390625 
Q 20.0625 6.109375 24.8125 6.109375 
Q 31.15625 6.109375 34.5625 8.28125 
Q 37.984375 10.453125 37.984375 14.40625 
Q 37.984375 18.0625 35.515625 20.015625 
Q 33.0625 21.96875 24.703125 23.78125 
L 21.578125 24.515625 
Q 13.234375 26.265625 9.515625 29.90625 
Q 5.8125 33.546875 5.8125 39.890625 
Q 5.8125 47.609375 11.28125 51.796875 
Q 16.75 56 26.8125 56 
Q 31.78125 56 36.171875 55.265625 
Q 40.578125 54.546875 44.28125 53.078125 
z
" id="DejaVuSans-115"/>
      <path d="M 31 75.875 
Q 24.46875 64.65625 21.28125 53.65625 
Q 18.109375 42.671875 18.109375 31.390625 
Q 18.109375 20.125 21.3125 9.0625 
Q 24.515625 -2 31 -13.1875 
L 23.1875 -13.1875 
Q 15.875 -1.703125 12.234375 9.375 
Q 8.59375 20.453125 8.59375 31.390625 
Q 8.59375 42.28125 12.203125 53.3125 
Q 15.828125 64.359375 23.1875 75.875 
z
" id="DejaVuSans-40"/>
      <path d="M 8.015625 75.875 
L 15.828125 75.875 
Q 23.140625 64.359375 26.78125 53.3125 
Q 30.421875 42.28125 30.421875 31.390625 
Q 30.421875 20.453125 26.78125 9.375 
Q 23.140625 -1.703125 15.828125 -13.1875 
L 8.015625 -13.1875 
Q 14.5 -2 17.703125 9.0625 
Q 20.90625 20.125 20.90625 31.390625 
Q 20.90625 42.671875 17.703125 53.65625 
Q 14.5 64.65625 8.015625 75.875 
z
" id="DejaVuSans-41"/>
     </defs>
     <g transform="translate(214.794406 228.509687)scale(0.14 -0.14)">
      <use xlink:href="#DejaVuSans-45"/>
      <use x="36.083984" xlink:href="#DejaVuSans-97"/>
      <use x="97.363281" xlink:href="#DejaVuSans-98"/>
      <use x="160.839844" xlink:href="#DejaVuSans-115"/>
      <use x="212.939453" xlink:href="#DejaVuSans-40"/>
      <use x="251.953125" xlink:href="#DejaVuSans-120"/>
      <use x="311.132812" xlink:href="#DejaVuSans-41"/>
     </g>
    </g>
    <g id="line2d_21">
     <path d="M 175.594406 244.159062 
L 203.594406 244.159062 
" style="fill:none;stroke:#ff7f0e;stroke-linecap:square;stroke-width:1.5;"/>
    </g>
    <g id="line2d_22"/>
    <g id="text_15">
     <!-- pi-abs(x) -->
     <defs>
      <path d="M 18.109375 8.203125 
L 18.109375 -20.796875 
L 9.078125 -20.796875 
L 9.078125 54.6875 
L 18.109375 54.6875 
L 18.109375 46.390625 
Q 20.953125 51.265625 25.265625 53.625 
Q 29.59375 56 35.59375 56 
Q 45.5625 56 51.78125 48.09375 
Q 58.015625 40.1875 58.015625 27.296875 
Q 58.015625 14.40625 51.78125 6.484375 
Q 45.5625 -1.421875 35.59375 -1.421875 
Q 29.59375 -1.421875 25.265625 0.953125 
Q 20.953125 3.328125 18.109375 8.203125 
z
M 48.6875 27.296875 
Q 48.6875 37.203125 44.609375 42.84375 
Q 40.53125 48.484375 33.40625 48.484375 
Q 26.265625 48.484375 22.1875 42.84375 
Q 18.109375 37.203125 18.109375 27.296875 
Q 18.109375 17.390625 22.1875 11.75 
Q 26.265625 6.109375 33.40625 6.109375 
Q 40.53125 6.109375 44.609375 11.75 
Q 48.6875 17.390625 48.6875 27.296875 
z
" id="DejaVuSans-112"/>
      <path d="M 9.421875 54.6875 
L 18.40625 54.6875 
L 18.40625 0 
L 9.421875 0 
z
M 9.421875 75.984375 
L 18.40625 75.984375 
L 18.40625 64.59375 
L 9.421875 64.59375 
z
" id="DejaVuSans-105"/>
     </defs>
     <g transform="translate(214.794406 249.059062)scale(0.14 -0.14)">
      <use xlink:href="#DejaVuSans-112"/>
      <use x="63.476562" xlink:href="#DejaVuSans-105"/>
      <use x="91.259766" xlink:href="#DejaVuSans-45"/>
      <use x="127.34375" xlink:href="#DejaVuSans-97"/>
      <use x="188.623047" xlink:href="#DejaVuSans-98"/>
      <use x="252.099609" xlink:href="#DejaVuSans-115"/>
      <use x="304.199219" xlink:href="#DejaVuSans-40"/>
      <use x="343.212891" xlink:href="#DejaVuSans-120"/>
      <use x="402.392578" xlink:href="#DejaVuSans-41"/>
     </g>
    </g>
    <g id="line2d_23">
     <path d="M 175.594406 264.708438 
L 203.594406 264.708438 
" style="fill:none;stroke:#2ca02c;stroke-linecap:square;stroke-width:1.5;"/>
    </g>
    <g id="line2d_24"/>
    <g id="text_16">
     <!-- pi-abs(x-pi) -->
     <g transform="translate(214.794406 269.608438)scale(0.14 -0.14)">
      <use xlink:href="#DejaVuSans-112"/>
      <use x="63.476562" xlink:href="#DejaVuSans-105"/>
      <use x="91.259766" xlink:href="#DejaVuSans-45"/>
      <use x="127.34375" xlink:href="#DejaVuSans-97"/>
      <use x="188.623047" xlink:href="#DejaVuSans-98"/>
      <use x="252.099609" xlink:href="#DejaVuSans-115"/>
      <use x="304.199219" xlink:href="#DejaVuSans-40"/>
      <use x="343.212891" xlink:href="#DejaVuSans-120"/>
      <use x="402.392578" xlink:href="#DejaVuSans-45"/>
      <use x="438.476562" xlink:href="#DejaVuSans-112"/>
      <use x="501.953125" xlink:href="#DejaVuSans-105"/>
      <use x="529.736328" xlink:href="#DejaVuSans-41"/>
     </g>
    </g>
   </g>
  </g>
 </g>
 <defs>
  <clipPath id="p12abc70736">
   <rect height="235.008" width="313.344" x="78.336" y="50.112"/>
  </clipPath>
 </defs>
</svg>
