<?xml version="1.0" encoding="utf-8" standalone="no"?>
<!DOCTYPE svg PUBLIC "-//W3C//DTD SVG 1.1//EN"
  "http://www.w3.org/Graphics/SVG/1.1/DTD/svg11.dtd">
<!-- Created with matplotlib (https://matplotlib.org/) -->
<svg height="345.6pt" version="1.1" viewBox="0 0 460.8 345.6" width="460.8pt" xmlns="http://www.w3.org/2000/svg" xmlns:xlink="http://www.w3.org/1999/xlink">
 <defs>
  <style type="text/css">
*{stroke-linecap:butt;stroke-linejoin:round;}
  </style>
 </defs>
 <g id="figure_1">
  <g id="patch_1">
   <path d="M 0 345.6 
L 460.8 345.6 
L 460.8 0 
L 0 0 
z
" style="fill:#ffffff;"/>
  </g>
  <g id="axes_1">
   <g id="patch_2">
    <path d="M 108.864 293.76 
L 361.152 293.76 
L 361.152 41.472 
L 108.864 41.472 
z
" style="fill:#ffffff;"/>
   </g>
   <g id="matplotlib.axis_1">
    <g id="xtick_1">
     <g id="line2d_1">
      <defs>
       <path d="M 0 0 
L 0 12 
" id="mbde861b2cc" style="stroke:#000000;stroke-width:1.5;"/>
      </defs>
      <g>
       <use style="stroke:#000000;stroke-width:1.5;" x="134.0928" xlink:href="#mbde861b2cc" y="293.76"/>
      </g>
     </g>
     <g id="text_1">
      <!-- −4 -->
      <defs>
       <path d="M 10.59375 35.5 
L 73.1875 35.5 
L 73.1875 27.203125 
L 10.59375 27.203125 
z
" id="DejaVuSans-8722"/>
       <path d="M 37.796875 64.3125 
L 12.890625 25.390625 
L 37.796875 25.390625 
z
M 35.203125 72.90625 
L 47.609375 72.90625 
L 47.609375 25.390625 
L 58.015625 25.390625 
L 58.015625 17.1875 
L 47.609375 17.1875 
L 47.609375 0 
L 37.796875 0 
L 37.796875 17.1875 
L 4.890625 17.1875 
L 4.890625 26.703125 
z
" id="DejaVuSans-52"/>
      </defs>
      <g transform="translate(123.773269 319.897812)scale(0.14 -0.14)">
       <use xlink:href="#DejaVuSans-8722"/>
       <use x="83.789062" xlink:href="#DejaVuSans-52"/>
      </g>
     </g>
    </g>
    <g id="xtick_2">
     <g id="line2d_2">
      <g>
       <use style="stroke:#000000;stroke-width:1.5;" x="184.5504" xlink:href="#mbde861b2cc" y="293.76"/>
      </g>
     </g>
     <g id="text_2">
      <!-- −2 -->
      <defs>
       <path d="M 19.1875 8.296875 
L 53.609375 8.296875 
L 53.609375 0 
L 7.328125 0 
L 7.328125 8.296875 
Q 12.9375 14.109375 22.625 23.890625 
Q 32.328125 33.6875 34.8125 36.53125 
Q 39.546875 41.84375 41.421875 45.53125 
Q 43.3125 49.21875 43.3125 52.78125 
Q 43.3125 58.59375 39.234375 62.25 
Q 35.15625 65.921875 28.609375 65.921875 
Q 23.96875 65.921875 18.8125 64.3125 
Q 13.671875 62.703125 7.8125 59.421875 
L 7.8125 69.390625 
Q 13.765625 71.78125 18.9375 73 
Q 24.125 74.21875 28.421875 74.21875 
Q 39.75 74.21875 46.484375 68.546875 
Q 53.21875 62.890625 53.21875 53.421875 
Q 53.21875 48.921875 51.53125 44.890625 
Q 49.859375 40.875 45.40625 35.40625 
Q 44.1875 33.984375 37.640625 27.21875 
Q 31.109375 20.453125 19.1875 8.296875 
z
" id="DejaVuSans-50"/>
      </defs>
      <g transform="translate(174.230869 319.897812)scale(0.14 -0.14)">
       <use xlink:href="#DejaVuSans-8722"/>
       <use x="83.789062" xlink:href="#DejaVuSans-50"/>
      </g>
     </g>
    </g>
    <g id="xtick_3">
     <g id="line2d_3">
      <g>
       <use style="stroke:#000000;stroke-width:1.5;" x="235.008" xlink:href="#mbde861b2cc" y="293.76"/>
      </g>
     </g>
     <g id="text_3">
      <!-- 0 -->
      <defs>
       <path d="M 31.78125 66.40625 
Q 24.171875 66.40625 20.328125 58.90625 
Q 16.5 51.421875 16.5 36.375 
Q 16.5 21.390625 20.328125 13.890625 
Q 24.171875 6.390625 31.78125 6.390625 
Q 39.453125 6.390625 43.28125 13.890625 
Q 47.125 21.390625 47.125 36.375 
Q 47.125 51.421875 43.28125 58.90625 
Q 39.453125 66.40625 31.78125 66.40625 
z
M 31.78125 74.21875 
Q 44.046875 74.21875 50.515625 64.515625 
Q 56.984375 54.828125 56.984375 36.375 
Q 56.984375 17.96875 50.515625 8.265625 
Q 44.046875 -1.421875 31.78125 -1.421875 
Q 19.53125 -1.421875 13.0625 8.265625 
Q 6.59375 17.96875 6.59375 36.375 
Q 6.59375 54.828125 13.0625 64.515625 
Q 19.53125 74.21875 31.78125 74.21875 
z
" id="DejaVuSans-48"/>
      </defs>
      <g transform="translate(230.55425 319.897812)scale(0.14 -0.14)">
       <use xlink:href="#DejaVuSans-48"/>
      </g>
     </g>
    </g>
    <g id="xtick_4">
     <g id="line2d_4">
      <g>
       <use style="stroke:#000000;stroke-width:1.5;" x="285.4656" xlink:href="#mbde861b2cc" y="293.76"/>
      </g>
     </g>
     <g id="text_4">
      <!-- 2 -->
      <g transform="translate(281.01185 319.897812)scale(0.14 -0.14)">
       <use xlink:href="#DejaVuSans-50"/>
      </g>
     </g>
    </g>
    <g id="xtick_5">
     <g id="line2d_5">
      <g>
       <use style="stroke:#000000;stroke-width:1.5;" x="335.9232" xlink:href="#mbde861b2cc" y="293.76"/>
      </g>
     </g>
     <g id="text_5">
      <!-- 4 -->
      <g transform="translate(331.46945 319.897812)scale(0.14 -0.14)">
       <use xlink:href="#DejaVuSans-52"/>
      </g>
     </g>
    </g>
   </g>
   <g id="matplotlib.axis_2">
    <g id="ytick_1">
     <g id="line2d_6">
      <defs>
       <path d="M 0 0 
L -12 0 
" id="maf8a6ff107" style="stroke:#000000;stroke-width:1.5;"/>
      </defs>
      <g>
       <use style="stroke:#000000;stroke-width:1.5;" x="108.864" xlink:href="#maf8a6ff107" y="268.5312"/>
      </g>
     </g>
     <g id="text_6">
      <!-- −4 -->
      <g transform="translate(72.724938 273.850106)scale(0.14 -0.14)">
       <use xlink:href="#DejaVuSans-8722"/>
       <use x="83.789062" xlink:href="#DejaVuSans-52"/>
      </g>
     </g>
    </g>
    <g id="ytick_2">
     <g id="line2d_7">
      <g>
       <use style="stroke:#000000;stroke-width:1.5;" x="108.864" xlink:href="#maf8a6ff107" y="218.0736"/>
      </g>
     </g>
     <g id="text_7">
      <!-- −2 -->
      <g transform="translate(72.724938 223.392506)scale(0.14 -0.14)">
       <use xlink:href="#DejaVuSans-8722"/>
       <use x="83.789062" xlink:href="#DejaVuSans-50"/>
      </g>
     </g>
    </g>
    <g id="ytick_3">
     <g id="line2d_8">
      <g>
       <use style="stroke:#000000;stroke-width:1.5;" x="108.864" xlink:href="#maf8a6ff107" y="167.616"/>
      </g>
     </g>
     <g id="text_8">
      <!-- 0 -->
      <g transform="translate(84.4565 172.934906)scale(0.14 -0.14)">
       <use xlink:href="#DejaVuSans-48"/>
      </g>
     </g>
    </g>
    <g id="ytick_4">
     <g id="line2d_9">
      <g>
       <use style="stroke:#000000;stroke-width:1.5;" x="108.864" xlink:href="#maf8a6ff107" y="117.1584"/>
      </g>
     </g>
     <g id="text_9">
      <!-- 2 -->
      <g transform="translate(84.4565 122.477306)scale(0.14 -0.14)">
       <use xlink:href="#DejaVuSans-50"/>
      </g>
     </g>
    </g>
    <g id="ytick_5">
     <g id="line2d_10">
      <g>
       <use style="stroke:#000000;stroke-width:1.5;" x="108.864" xlink:href="#maf8a6ff107" y="66.7008"/>
      </g>
     </g>
     <g id="text_10">
      <!-- 4 -->
      <g transform="translate(84.4565 72.019706)scale(0.14 -0.14)">
       <use xlink:href="#DejaVuSans-52"/>
      </g>
     </g>
    </g>
   </g>
   <g id="line2d_11">
    <path clip-path="url(#pafb494033e)" d="M 108.864 192.8448 
L 111.38688 192.8448 
L 113.90976 192.8448 
L 116.43264 192.8448 
L 118.95552 192.8448 
L 121.4784 192.8448 
L 124.00128 192.8448 
L 126.52416 192.8448 
L 129.04704 192.8448 
L 131.56992 192.8448 
L 134.0928 192.8448 
L 136.61568 192.8448 
L 139.13856 192.8448 
L 141.66144 192.8448 
L 144.18432 192.8448 
L 146.7072 192.8448 
L 149.23008 192.8448 
L 151.75296 192.8448 
L 154.27584 192.8448 
L 156.79872 192.8448 
L 159.3216 192.8448 
L 161.84448 192.8448 
L 164.36736 192.8448 
L 166.89024 192.8448 
L 169.41312 192.8448 
L 171.936 192.8448 
L 174.45888 192.8448 
L 176.98176 192.8448 
L 179.50464 192.8448 
L 182.02752 192.8448 
L 184.5504 192.8448 
L 187.07328 192.8448 
L 189.59616 192.8448 
L 192.11904 192.8448 
L 194.64192 192.8448 
L 197.1648 192.8448 
L 199.68768 192.8448 
L 202.21056 192.8448 
L 204.73344 192.8448 
L 207.25632 192.8448 
L 209.7792 192.8448 
L 212.30208 190.32192 
L 214.82496 187.79904 
L 217.34784 185.27616 
L 219.87072 182.75328 
L 222.3936 180.2304 
L 224.91648 177.70752 
L 227.43936 175.18464 
L 229.96224 172.66176 
L 232.48512 170.13888 
L 235.008 167.616 
L 237.53088 165.09312 
L 240.05376 162.57024 
L 242.57664 160.04736 
L 245.09952 157.52448 
L 247.6224 155.0016 
L 250.14528 152.47872 
L 252.66816 149.95584 
L 255.19104 147.43296 
L 257.71392 144.91008 
L 260.2368 142.3872 
L 262.75968 139.86432 
L 265.28256 137.34144 
L 267.80544 134.81856 
L 270.32832 132.29568 
L 272.8512 129.7728 
L 275.37408 127.24992 
L 277.89696 124.72704 
L 280.41984 122.20416 
L 282.94272 119.68128 
L 285.4656 117.1584 
L 287.98848 117.1584 
L 290.51136 117.1584 
L 293.03424 117.1584 
L 295.55712 117.1584 
L 298.08 117.1584 
L 300.60288 117.1584 
L 303.12576 117.1584 
L 305.64864 117.1584 
L 308.17152 117.1584 
L 310.6944 117.1584 
L 313.21728 117.1584 
L 315.74016 117.1584 
L 318.26304 117.1584 
L 320.78592 117.1584 
L 323.3088 117.1584 
L 325.83168 117.1584 
L 328.35456 117.1584 
L 330.87744 117.1584 
L 333.40032 117.1584 
L 335.9232 117.1584 
L 338.44608 117.1584 
L 340.96896 117.1584 
L 343.49184 117.1584 
L 346.01472 117.1584 
L 348.5376 117.1584 
L 351.06048 117.1584 
L 353.58336 117.1584 
L 356.10624 117.1584 
L 358.62912 117.1584 
L 361.152 117.1584 
" style="fill:none;stroke:#1f77b4;stroke-linecap:square;stroke-width:1.5;"/>
   </g>
   <g id="patch_3">
    <path d="M 108.864 293.76 
L 108.864 41.472 
" style="fill:none;stroke:#000000;stroke-linecap:square;stroke-linejoin:miter;stroke-width:1.5;"/>
   </g>
   <g id="patch_4">
    <path d="M 361.152 293.76 
L 361.152 41.472 
" style="fill:none;stroke:#000000;stroke-linecap:square;stroke-linejoin:miter;stroke-width:1.5;"/>
   </g>
   <g id="patch_5">
    <path d="M 108.864 293.76 
L 361.152 293.76 
" style="fill:none;stroke:#000000;stroke-linecap:square;stroke-linejoin:miter;stroke-width:1.5;"/>
   </g>
   <g id="patch_6">
    <path d="M 108.864 41.472 
L 361.152 41.472 
" style="fill:none;stroke:#000000;stroke-linecap:square;stroke-linejoin:miter;stroke-width:1.5;"/>
   </g>
  </g>
 </g>
 <defs>
  <clipPath id="pafb494033e">
   <rect height="252.288" width="252.288" x="108.864" y="41.472"/>
  </clipPath>
 </defs>
</svg>
