<?xml version="1.0" encoding="utf-8" standalone="no"?>
<!DOCTYPE svg PUBLIC "-//W3C//DTD SVG 1.1//EN"
  "http://www.w3.org/Graphics/SVG/1.1/DTD/svg11.dtd">
<!-- Created with matplotlib (https://matplotlib.org/) -->
<svg height="345.6pt" version="1.1" viewBox="0 0 460.8 345.6" width="460.8pt" xmlns="http://www.w3.org/2000/svg" xmlns:xlink="http://www.w3.org/1999/xlink">
 <defs>
  <style type="text/css">
*{stroke-linecap:butt;stroke-linejoin:round;}
  </style>
 </defs>
 <g id="figure_1">
  <g id="patch_1">
   <path d="M 0 345.6 
L 460.8 345.6 
L 460.8 0 
L 0 0 
z
" style="fill:#ffffff;"/>
  </g>
  <g id="axes_1">
   <g id="patch_2">
    <path d="M 78.336 293.76 
L 391.68 293.76 
L 391.68 41.472 
L 78.336 41.472 
z
" style="fill:#ffffff;"/>
   </g>
   <g id="matplotlib.axis_1">
    <g id="xtick_1">
     <g id="line2d_1">
      <defs>
       <path d="M 0 0 
L 0 12 
" id="m43c99f2541" style="stroke:#000000;stroke-width:1.5;"/>
      </defs>
      <g>
       <use style="stroke:#000000;stroke-width:1.5;" x="123.735273" xlink:href="#m43c99f2541" y="293.76"/>
      </g>
     </g>
     <g id="text_1">
      <!-- −5.0 -->
      <defs>
       <path d="M 10.59375 35.5 
L 73.1875 35.5 
L 73.1875 27.203125 
L 10.59375 27.203125 
z
" id="DejaVuSans-8722"/>
       <path d="M 10.796875 72.90625 
L 49.515625 72.90625 
L 49.515625 64.59375 
L 19.828125 64.59375 
L 19.828125 46.734375 
Q 21.96875 47.46875 24.109375 47.828125 
Q 26.265625 48.1875 28.421875 48.1875 
Q 40.625 48.1875 47.75 41.5 
Q 54.890625 34.8125 54.890625 23.390625 
Q 54.890625 11.625 47.5625 5.09375 
Q 40.234375 -1.421875 26.90625 -1.421875 
Q 22.3125 -1.421875 17.546875 -0.640625 
Q 12.796875 0.140625 7.71875 1.703125 
L 7.71875 11.625 
Q 12.109375 9.234375 16.796875 8.0625 
Q 21.484375 6.890625 26.703125 6.890625 
Q 35.15625 6.890625 40.078125 11.328125 
Q 45.015625 15.765625 45.015625 23.390625 
Q 45.015625 31 40.078125 35.4375 
Q 35.15625 39.890625 26.703125 39.890625 
Q 22.75 39.890625 18.8125 39.015625 
Q 14.890625 38.140625 10.796875 36.28125 
z
" id="DejaVuSans-53"/>
       <path d="M 10.6875 12.40625 
L 21 12.40625 
L 21 0 
L 10.6875 0 
z
" id="DejaVuSans-46"/>
       <path d="M 31.78125 66.40625 
Q 24.171875 66.40625 20.328125 58.90625 
Q 16.5 51.421875 16.5 36.375 
Q 16.5 21.390625 20.328125 13.890625 
Q 24.171875 6.390625 31.78125 6.390625 
Q 39.453125 6.390625 43.28125 13.890625 
Q 47.125 21.390625 47.125 36.375 
Q 47.125 51.421875 43.28125 58.90625 
Q 39.453125 66.40625 31.78125 66.40625 
z
M 31.78125 74.21875 
Q 44.046875 74.21875 50.515625 64.515625 
Q 56.984375 54.828125 56.984375 36.375 
Q 56.984375 17.96875 50.515625 8.265625 
Q 44.046875 -1.421875 31.78125 -1.421875 
Q 19.53125 -1.421875 13.0625 8.265625 
Q 6.59375 17.96875 6.59375 36.375 
Q 6.59375 54.828125 13.0625 64.515625 
Q 19.53125 74.21875 31.78125 74.21875 
z
" id="DejaVuSans-48"/>
      </defs>
      <g transform="translate(106.737304 319.897812)scale(0.14 -0.14)">
       <use xlink:href="#DejaVuSans-8722"/>
       <use x="83.789062" xlink:href="#DejaVuSans-53"/>
       <use x="147.412109" xlink:href="#DejaVuSans-46"/>
       <use x="179.199219" xlink:href="#DejaVuSans-48"/>
      </g>
     </g>
    </g>
    <g id="xtick_2">
     <g id="line2d_2">
      <g>
       <use style="stroke:#000000;stroke-width:1.5;" x="179.371636" xlink:href="#m43c99f2541" y="293.76"/>
      </g>
     </g>
     <g id="text_2">
      <!-- −2.5 -->
      <defs>
       <path d="M 19.1875 8.296875 
L 53.609375 8.296875 
L 53.609375 0 
L 7.328125 0 
L 7.328125 8.296875 
Q 12.9375 14.109375 22.625 23.890625 
Q 32.328125 33.6875 34.8125 36.53125 
Q 39.546875 41.84375 41.421875 45.53125 
Q 43.3125 49.21875 43.3125 52.78125 
Q 43.3125 58.59375 39.234375 62.25 
Q 35.15625 65.921875 28.609375 65.921875 
Q 23.96875 65.921875 18.8125 64.3125 
Q 13.671875 62.703125 7.8125 59.421875 
L 7.8125 69.390625 
Q 13.765625 71.78125 18.9375 73 
Q 24.125 74.21875 28.421875 74.21875 
Q 39.75 74.21875 46.484375 68.546875 
Q 53.21875 62.890625 53.21875 53.421875 
Q 53.21875 48.921875 51.53125 44.890625 
Q 49.859375 40.875 45.40625 35.40625 
Q 44.1875 33.984375 37.640625 27.21875 
Q 31.109375 20.453125 19.1875 8.296875 
z
" id="DejaVuSans-50"/>
      </defs>
      <g transform="translate(162.373668 319.897812)scale(0.14 -0.14)">
       <use xlink:href="#DejaVuSans-8722"/>
       <use x="83.789062" xlink:href="#DejaVuSans-50"/>
       <use x="147.412109" xlink:href="#DejaVuSans-46"/>
       <use x="179.199219" xlink:href="#DejaVuSans-53"/>
      </g>
     </g>
    </g>
    <g id="xtick_3">
     <g id="line2d_3">
      <g>
       <use style="stroke:#000000;stroke-width:1.5;" x="235.008" xlink:href="#m43c99f2541" y="293.76"/>
      </g>
     </g>
     <g id="text_3">
      <!-- 0.0 -->
      <g transform="translate(223.875812 319.897812)scale(0.14 -0.14)">
       <use xlink:href="#DejaVuSans-48"/>
       <use x="63.623047" xlink:href="#DejaVuSans-46"/>
       <use x="95.410156" xlink:href="#DejaVuSans-48"/>
      </g>
     </g>
    </g>
    <g id="xtick_4">
     <g id="line2d_4">
      <g>
       <use style="stroke:#000000;stroke-width:1.5;" x="290.644364" xlink:href="#m43c99f2541" y="293.76"/>
      </g>
     </g>
     <g id="text_4">
      <!-- 2.5 -->
      <g transform="translate(279.512176 319.897812)scale(0.14 -0.14)">
       <use xlink:href="#DejaVuSans-50"/>
       <use x="63.623047" xlink:href="#DejaVuSans-46"/>
       <use x="95.410156" xlink:href="#DejaVuSans-53"/>
      </g>
     </g>
    </g>
    <g id="xtick_5">
     <g id="line2d_5">
      <g>
       <use style="stroke:#000000;stroke-width:1.5;" x="346.280727" xlink:href="#m43c99f2541" y="293.76"/>
      </g>
     </g>
     <g id="text_5">
      <!-- 5.0 -->
      <g transform="translate(335.14854 319.897812)scale(0.14 -0.14)">
       <use xlink:href="#DejaVuSans-53"/>
       <use x="63.623047" xlink:href="#DejaVuSans-46"/>
       <use x="95.410156" xlink:href="#DejaVuSans-48"/>
      </g>
     </g>
    </g>
   </g>
   <g id="matplotlib.axis_2">
    <g id="ytick_1">
     <g id="line2d_6">
      <defs>
       <path d="M 0 0 
L -12 0 
" id="mc260a3eca2" style="stroke:#000000;stroke-width:1.5;"/>
      </defs>
      <g>
       <use style="stroke:#000000;stroke-width:1.5;" x="78.336" xlink:href="#mc260a3eca2" y="282.292364"/>
      </g>
     </g>
     <g id="text_6">
      <!-- −1.00 -->
      <defs>
       <path d="M 12.40625 8.296875 
L 28.515625 8.296875 
L 28.515625 63.921875 
L 10.984375 60.40625 
L 10.984375 69.390625 
L 28.421875 72.90625 
L 38.28125 72.90625 
L 38.28125 8.296875 
L 54.390625 8.296875 
L 54.390625 0 
L 12.40625 0 
z
" id="DejaVuSans-49"/>
      </defs>
      <g transform="translate(19.932563 287.61127)scale(0.14 -0.14)">
       <use xlink:href="#DejaVuSans-8722"/>
       <use x="83.789062" xlink:href="#DejaVuSans-49"/>
       <use x="147.412109" xlink:href="#DejaVuSans-46"/>
       <use x="179.199219" xlink:href="#DejaVuSans-48"/>
       <use x="242.822266" xlink:href="#DejaVuSans-48"/>
      </g>
     </g>
    </g>
    <g id="ytick_2">
     <g id="line2d_7">
      <g>
       <use style="stroke:#000000;stroke-width:1.5;" x="78.336" xlink:href="#mc260a3eca2" y="253.623273"/>
      </g>
     </g>
     <g id="text_7">
      <!-- −0.75 -->
      <defs>
       <path d="M 8.203125 72.90625 
L 55.078125 72.90625 
L 55.078125 68.703125 
L 28.609375 0 
L 18.3125 0 
L 43.21875 64.59375 
L 8.203125 64.59375 
z
" id="DejaVuSans-55"/>
      </defs>
      <g transform="translate(19.932563 258.942179)scale(0.14 -0.14)">
       <use xlink:href="#DejaVuSans-8722"/>
       <use x="83.789062" xlink:href="#DejaVuSans-48"/>
       <use x="147.412109" xlink:href="#DejaVuSans-46"/>
       <use x="179.199219" xlink:href="#DejaVuSans-55"/>
       <use x="242.822266" xlink:href="#DejaVuSans-53"/>
      </g>
     </g>
    </g>
    <g id="ytick_3">
     <g id="line2d_8">
      <g>
       <use style="stroke:#000000;stroke-width:1.5;" x="78.336" xlink:href="#mc260a3eca2" y="224.954182"/>
      </g>
     </g>
     <g id="text_8">
      <!-- −0.50 -->
      <g transform="translate(19.932563 230.273088)scale(0.14 -0.14)">
       <use xlink:href="#DejaVuSans-8722"/>
       <use x="83.789062" xlink:href="#DejaVuSans-48"/>
       <use x="147.412109" xlink:href="#DejaVuSans-46"/>
       <use x="179.199219" xlink:href="#DejaVuSans-53"/>
       <use x="242.822266" xlink:href="#DejaVuSans-48"/>
      </g>
     </g>
    </g>
    <g id="ytick_4">
     <g id="line2d_9">
      <g>
       <use style="stroke:#000000;stroke-width:1.5;" x="78.336" xlink:href="#mc260a3eca2" y="196.285091"/>
      </g>
     </g>
     <g id="text_9">
      <!-- −0.25 -->
      <g transform="translate(19.932563 201.603997)scale(0.14 -0.14)">
       <use xlink:href="#DejaVuSans-8722"/>
       <use x="83.789062" xlink:href="#DejaVuSans-48"/>
       <use x="147.412109" xlink:href="#DejaVuSans-46"/>
       <use x="179.199219" xlink:href="#DejaVuSans-50"/>
       <use x="242.822266" xlink:href="#DejaVuSans-53"/>
      </g>
     </g>
    </g>
    <g id="ytick_5">
     <g id="line2d_10">
      <g>
       <use style="stroke:#000000;stroke-width:1.5;" x="78.336" xlink:href="#mc260a3eca2" y="167.616"/>
      </g>
     </g>
     <g id="text_10">
      <!-- 0.00 -->
      <g transform="translate(31.664125 172.934906)scale(0.14 -0.14)">
       <use xlink:href="#DejaVuSans-48"/>
       <use x="63.623047" xlink:href="#DejaVuSans-46"/>
       <use x="95.410156" xlink:href="#DejaVuSans-48"/>
       <use x="159.033203" xlink:href="#DejaVuSans-48"/>
      </g>
     </g>
    </g>
    <g id="ytick_6">
     <g id="line2d_11">
      <g>
       <use style="stroke:#000000;stroke-width:1.5;" x="78.336" xlink:href="#mc260a3eca2" y="138.946909"/>
      </g>
     </g>
     <g id="text_11">
      <!-- 0.25 -->
      <g transform="translate(31.664125 144.265815)scale(0.14 -0.14)">
       <use xlink:href="#DejaVuSans-48"/>
       <use x="63.623047" xlink:href="#DejaVuSans-46"/>
       <use x="95.410156" xlink:href="#DejaVuSans-50"/>
       <use x="159.033203" xlink:href="#DejaVuSans-53"/>
      </g>
     </g>
    </g>
    <g id="ytick_7">
     <g id="line2d_12">
      <g>
       <use style="stroke:#000000;stroke-width:1.5;" x="78.336" xlink:href="#mc260a3eca2" y="110.277818"/>
      </g>
     </g>
     <g id="text_12">
      <!-- 0.50 -->
      <g transform="translate(31.664125 115.596724)scale(0.14 -0.14)">
       <use xlink:href="#DejaVuSans-48"/>
       <use x="63.623047" xlink:href="#DejaVuSans-46"/>
       <use x="95.410156" xlink:href="#DejaVuSans-53"/>
       <use x="159.033203" xlink:href="#DejaVuSans-48"/>
      </g>
     </g>
    </g>
    <g id="ytick_8">
     <g id="line2d_13">
      <g>
       <use style="stroke:#000000;stroke-width:1.5;" x="78.336" xlink:href="#mc260a3eca2" y="81.608727"/>
      </g>
     </g>
     <g id="text_13">
      <!-- 0.75 -->
      <g transform="translate(31.664125 86.927634)scale(0.14 -0.14)">
       <use xlink:href="#DejaVuSans-48"/>
       <use x="63.623047" xlink:href="#DejaVuSans-46"/>
       <use x="95.410156" xlink:href="#DejaVuSans-55"/>
       <use x="159.033203" xlink:href="#DejaVuSans-53"/>
      </g>
     </g>
    </g>
    <g id="ytick_9">
     <g id="line2d_14">
      <g>
       <use style="stroke:#000000;stroke-width:1.5;" x="78.336" xlink:href="#mc260a3eca2" y="52.939636"/>
      </g>
     </g>
     <g id="text_14">
      <!-- 1.00 -->
      <g transform="translate(31.664125 58.258543)scale(0.14 -0.14)">
       <use xlink:href="#DejaVuSans-49"/>
       <use x="63.623047" xlink:href="#DejaVuSans-46"/>
       <use x="95.410156" xlink:href="#DejaVuSans-48"/>
       <use x="159.033203" xlink:href="#DejaVuSans-48"/>
      </g>
     </g>
    </g>
   </g>
   <g id="line2d_15">
    <path clip-path="url(#p25f9341f56)" d="M 92.578909 53.721165 
L 94.804364 52.955847 
L 97.029818 53.336176 
L 99.255273 54.858351 
L 101.480727 57.507163 
L 103.706182 61.256146 
L 105.931636 66.067842 
L 108.157091 71.894173 
L 110.382545 78.676925 
L 112.608 86.348327 
L 114.833455 94.831729 
L 117.058909 104.042367 
L 119.284364 113.888212 
L 123.735273 135.086652 
L 130.411636 169.036687 
L 137.088 202.859816 
L 141.538909 223.837328 
L 143.764364 233.53472 
L 145.989818 242.573474 
L 148.215273 250.863277 
L 150.440727 258.321301 
L 152.666182 264.873028 
L 154.891636 270.452994 
L 157.117091 275.005448 
L 159.342545 278.484901 
L 161.568 280.856589 
L 163.793455 282.096815 
L 166.018909 282.193186 
L 168.244364 281.14474 
L 170.469818 278.961952 
L 172.695273 275.666632 
L 174.920727 271.291706 
L 177.146182 265.880886 
L 179.371636 259.488237 
L 181.597091 252.17763 
L 183.822545 244.022111 
L 186.048 235.103168 
L 188.273455 225.509915 
L 192.724364 204.689672 
L 197.175273 182.391418 
L 206.077091 136.940207 
L 210.528 115.599246 
L 212.753455 105.656096 
L 214.978909 96.332029 
L 217.204364 87.720208 
L 219.429818 79.906679 
L 221.655273 72.969513 
L 223.880727 66.978023 
L 226.106182 61.992075 
L 228.331636 58.061485 
L 230.557091 55.225529 
L 232.782545 53.512541 
L 235.008 52.939636 
L 237.233455 53.512541 
L 239.458909 55.225529 
L 241.684364 58.061485 
L 243.909818 61.992075 
L 246.135273 66.978023 
L 248.360727 72.969513 
L 250.586182 79.906679 
L 252.811636 87.720208 
L 255.037091 96.332029 
L 257.262545 105.656096 
L 259.488 115.599246 
L 263.938909 136.940207 
L 270.615273 170.964495 
L 277.291636 204.689672 
L 281.742545 225.509915 
L 283.968 235.103168 
L 286.193455 244.022111 
L 288.418909 252.17763 
L 290.644364 259.488237 
L 292.869818 265.880886 
L 295.095273 271.291706 
L 297.320727 275.666632 
L 299.546182 278.961952 
L 301.771636 281.14474 
L 303.997091 282.193186 
L 306.222545 282.096815 
L 308.448 280.856589 
L 310.673455 278.484901 
L 312.898909 275.005448 
L 315.124364 270.452994 
L 317.349818 264.873028 
L 319.575273 258.321301 
L 321.800727 250.863277 
L 324.026182 242.573474 
L 326.251636 233.53472 
L 328.477091 223.837328 
L 332.928 202.859816 
L 337.378909 180.477244 
L 346.280727 135.086652 
L 350.731636 113.888212 
L 352.957091 104.042367 
L 355.182545 94.831729 
L 357.408 86.348327 
L 359.633455 78.676925 
L 361.858909 71.894173 
L 364.084364 66.067842 
L 366.309818 61.256146 
L 368.535273 57.507163 
L 370.760727 54.858351 
L 372.986182 53.336176 
L 375.211636 52.955847 
L 377.437091 53.721165 
L 377.437091 53.721165 
" style="fill:none;stroke:#ff0000;stroke-linecap:square;stroke-width:1.5;"/>
   </g>
   <g id="line2d_16">
    <defs>
     <path d="M 0 1.5 
C 0.397805 1.5 0.77937 1.341951 1.06066 1.06066 
C 1.341951 0.77937 1.5 0.397805 1.5 0 
C 1.5 -0.397805 1.341951 -0.77937 1.06066 -1.06066 
C 0.77937 -1.341951 0.397805 -1.5 0 -1.5 
C -0.397805 -1.5 -0.77937 -1.341951 -1.06066 -1.06066 
C -1.341951 -0.77937 -1.5 -0.397805 -1.5 0 
C -1.5 0.397805 -1.341951 0.77937 -1.06066 1.06066 
C -0.77937 1.341951 -0.397805 1.5 0 1.5 
z
" id="m7c6b6873a2" style="stroke:#0000ff;"/>
    </defs>
    <g clip-path="url(#p25f9341f56)">
     <use style="fill:#0000ff;stroke:#0000ff;" x="92.578909" xlink:href="#m7c6b6873a2" y="52.939636"/>
     <use style="fill:#0000ff;stroke:#0000ff;" x="94.804364" xlink:href="#m7c6b6873a2" y="52.939636"/>
     <use style="fill:#0000ff;stroke:#0000ff;" x="97.029818" xlink:href="#m7c6b6873a2" y="52.939636"/>
     <use style="fill:#0000ff;stroke:#0000ff;" x="99.255273" xlink:href="#m7c6b6873a2" y="52.939636"/>
     <use style="fill:#0000ff;stroke:#0000ff;" x="101.480727" xlink:href="#m7c6b6873a2" y="52.939636"/>
     <use style="fill:#0000ff;stroke:#0000ff;" x="103.706182" xlink:href="#m7c6b6873a2" y="52.939636"/>
     <use style="fill:#0000ff;stroke:#0000ff;" x="105.931636" xlink:href="#m7c6b6873a2" y="52.939636"/>
     <use style="fill:#0000ff;stroke:#0000ff;" x="108.157091" xlink:href="#m7c6b6873a2" y="52.939636"/>
     <use style="fill:#0000ff;stroke:#0000ff;" x="110.382545" xlink:href="#m7c6b6873a2" y="52.939636"/>
     <use style="fill:#0000ff;stroke:#0000ff;" x="112.608" xlink:href="#m7c6b6873a2" y="52.939636"/>
     <use style="fill:#0000ff;stroke:#0000ff;" x="114.833455" xlink:href="#m7c6b6873a2" y="52.939636"/>
     <use style="fill:#0000ff;stroke:#0000ff;" x="117.058909" xlink:href="#m7c6b6873a2" y="52.939636"/>
     <use style="fill:#0000ff;stroke:#0000ff;" x="119.284364" xlink:href="#m7c6b6873a2" y="52.939636"/>
     <use style="fill:#0000ff;stroke:#0000ff;" x="121.509818" xlink:href="#m7c6b6873a2" y="52.939636"/>
     <use style="fill:#0000ff;stroke:#0000ff;" x="123.735273" xlink:href="#m7c6b6873a2" y="52.939636"/>
     <use style="fill:#0000ff;stroke:#0000ff;" x="125.960727" xlink:href="#m7c6b6873a2" y="52.939636"/>
     <use style="fill:#0000ff;stroke:#0000ff;" x="128.186182" xlink:href="#m7c6b6873a2" y="52.939636"/>
     <use style="fill:#0000ff;stroke:#0000ff;" x="130.411636" xlink:href="#m7c6b6873a2" y="282.292364"/>
     <use style="fill:#0000ff;stroke:#0000ff;" x="132.637091" xlink:href="#m7c6b6873a2" y="282.292364"/>
     <use style="fill:#0000ff;stroke:#0000ff;" x="134.862545" xlink:href="#m7c6b6873a2" y="282.292364"/>
     <use style="fill:#0000ff;stroke:#0000ff;" x="137.088" xlink:href="#m7c6b6873a2" y="282.292364"/>
     <use style="fill:#0000ff;stroke:#0000ff;" x="139.313455" xlink:href="#m7c6b6873a2" y="282.292364"/>
     <use style="fill:#0000ff;stroke:#0000ff;" x="141.538909" xlink:href="#m7c6b6873a2" y="282.292364"/>
     <use style="fill:#0000ff;stroke:#0000ff;" x="143.764364" xlink:href="#m7c6b6873a2" y="282.292364"/>
     <use style="fill:#0000ff;stroke:#0000ff;" x="145.989818" xlink:href="#m7c6b6873a2" y="282.292364"/>
     <use style="fill:#0000ff;stroke:#0000ff;" x="148.215273" xlink:href="#m7c6b6873a2" y="282.292364"/>
     <use style="fill:#0000ff;stroke:#0000ff;" x="150.440727" xlink:href="#m7c6b6873a2" y="282.292364"/>
     <use style="fill:#0000ff;stroke:#0000ff;" x="152.666182" xlink:href="#m7c6b6873a2" y="282.292364"/>
     <use style="fill:#0000ff;stroke:#0000ff;" x="154.891636" xlink:href="#m7c6b6873a2" y="282.292364"/>
     <use style="fill:#0000ff;stroke:#0000ff;" x="157.117091" xlink:href="#m7c6b6873a2" y="282.292364"/>
     <use style="fill:#0000ff;stroke:#0000ff;" x="159.342545" xlink:href="#m7c6b6873a2" y="282.292364"/>
     <use style="fill:#0000ff;stroke:#0000ff;" x="161.568" xlink:href="#m7c6b6873a2" y="282.292364"/>
     <use style="fill:#0000ff;stroke:#0000ff;" x="163.793455" xlink:href="#m7c6b6873a2" y="282.292364"/>
     <use style="fill:#0000ff;stroke:#0000ff;" x="166.018909" xlink:href="#m7c6b6873a2" y="282.292364"/>
     <use style="fill:#0000ff;stroke:#0000ff;" x="168.244364" xlink:href="#m7c6b6873a2" y="282.292364"/>
     <use style="fill:#0000ff;stroke:#0000ff;" x="170.469818" xlink:href="#m7c6b6873a2" y="282.292364"/>
     <use style="fill:#0000ff;stroke:#0000ff;" x="172.695273" xlink:href="#m7c6b6873a2" y="282.292364"/>
     <use style="fill:#0000ff;stroke:#0000ff;" x="174.920727" xlink:href="#m7c6b6873a2" y="282.292364"/>
     <use style="fill:#0000ff;stroke:#0000ff;" x="177.146182" xlink:href="#m7c6b6873a2" y="282.292364"/>
     <use style="fill:#0000ff;stroke:#0000ff;" x="179.371636" xlink:href="#m7c6b6873a2" y="282.292364"/>
     <use style="fill:#0000ff;stroke:#0000ff;" x="181.597091" xlink:href="#m7c6b6873a2" y="282.292364"/>
     <use style="fill:#0000ff;stroke:#0000ff;" x="183.822545" xlink:href="#m7c6b6873a2" y="282.292364"/>
     <use style="fill:#0000ff;stroke:#0000ff;" x="186.048" xlink:href="#m7c6b6873a2" y="282.292364"/>
     <use style="fill:#0000ff;stroke:#0000ff;" x="188.273455" xlink:href="#m7c6b6873a2" y="282.292364"/>
     <use style="fill:#0000ff;stroke:#0000ff;" x="190.498909" xlink:href="#m7c6b6873a2" y="282.292364"/>
     <use style="fill:#0000ff;stroke:#0000ff;" x="192.724364" xlink:href="#m7c6b6873a2" y="282.292364"/>
     <use style="fill:#0000ff;stroke:#0000ff;" x="194.949818" xlink:href="#m7c6b6873a2" y="282.292364"/>
     <use style="fill:#0000ff;stroke:#0000ff;" x="197.175273" xlink:href="#m7c6b6873a2" y="282.292364"/>
     <use style="fill:#0000ff;stroke:#0000ff;" x="199.400727" xlink:href="#m7c6b6873a2" y="282.292364"/>
     <use style="fill:#0000ff;stroke:#0000ff;" x="201.626182" xlink:href="#m7c6b6873a2" y="52.939636"/>
     <use style="fill:#0000ff;stroke:#0000ff;" x="203.851636" xlink:href="#m7c6b6873a2" y="52.939636"/>
     <use style="fill:#0000ff;stroke:#0000ff;" x="206.077091" xlink:href="#m7c6b6873a2" y="52.939636"/>
     <use style="fill:#0000ff;stroke:#0000ff;" x="208.302545" xlink:href="#m7c6b6873a2" y="52.939636"/>
     <use style="fill:#0000ff;stroke:#0000ff;" x="210.528" xlink:href="#m7c6b6873a2" y="52.939636"/>
     <use style="fill:#0000ff;stroke:#0000ff;" x="212.753455" xlink:href="#m7c6b6873a2" y="52.939636"/>
     <use style="fill:#0000ff;stroke:#0000ff;" x="214.978909" xlink:href="#m7c6b6873a2" y="52.939636"/>
     <use style="fill:#0000ff;stroke:#0000ff;" x="217.204364" xlink:href="#m7c6b6873a2" y="52.939636"/>
     <use style="fill:#0000ff;stroke:#0000ff;" x="219.429818" xlink:href="#m7c6b6873a2" y="52.939636"/>
     <use style="fill:#0000ff;stroke:#0000ff;" x="221.655273" xlink:href="#m7c6b6873a2" y="52.939636"/>
     <use style="fill:#0000ff;stroke:#0000ff;" x="223.880727" xlink:href="#m7c6b6873a2" y="52.939636"/>
     <use style="fill:#0000ff;stroke:#0000ff;" x="226.106182" xlink:href="#m7c6b6873a2" y="52.939636"/>
     <use style="fill:#0000ff;stroke:#0000ff;" x="228.331636" xlink:href="#m7c6b6873a2" y="52.939636"/>
     <use style="fill:#0000ff;stroke:#0000ff;" x="230.557091" xlink:href="#m7c6b6873a2" y="52.939636"/>
     <use style="fill:#0000ff;stroke:#0000ff;" x="232.782545" xlink:href="#m7c6b6873a2" y="52.939636"/>
     <use style="fill:#0000ff;stroke:#0000ff;" x="235.008" xlink:href="#m7c6b6873a2" y="52.939636"/>
     <use style="fill:#0000ff;stroke:#0000ff;" x="237.233455" xlink:href="#m7c6b6873a2" y="52.939636"/>
     <use style="fill:#0000ff;stroke:#0000ff;" x="239.458909" xlink:href="#m7c6b6873a2" y="52.939636"/>
     <use style="fill:#0000ff;stroke:#0000ff;" x="241.684364" xlink:href="#m7c6b6873a2" y="52.939636"/>
     <use style="fill:#0000ff;stroke:#0000ff;" x="243.909818" xlink:href="#m7c6b6873a2" y="52.939636"/>
     <use style="fill:#0000ff;stroke:#0000ff;" x="246.135273" xlink:href="#m7c6b6873a2" y="52.939636"/>
     <use style="fill:#0000ff;stroke:#0000ff;" x="248.360727" xlink:href="#m7c6b6873a2" y="52.939636"/>
     <use style="fill:#0000ff;stroke:#0000ff;" x="250.586182" xlink:href="#m7c6b6873a2" y="52.939636"/>
     <use style="fill:#0000ff;stroke:#0000ff;" x="252.811636" xlink:href="#m7c6b6873a2" y="52.939636"/>
     <use style="fill:#0000ff;stroke:#0000ff;" x="255.037091" xlink:href="#m7c6b6873a2" y="52.939636"/>
     <use style="fill:#0000ff;stroke:#0000ff;" x="257.262545" xlink:href="#m7c6b6873a2" y="52.939636"/>
     <use style="fill:#0000ff;stroke:#0000ff;" x="259.488" xlink:href="#m7c6b6873a2" y="52.939636"/>
     <use style="fill:#0000ff;stroke:#0000ff;" x="261.713455" xlink:href="#m7c6b6873a2" y="52.939636"/>
     <use style="fill:#0000ff;stroke:#0000ff;" x="263.938909" xlink:href="#m7c6b6873a2" y="52.939636"/>
     <use style="fill:#0000ff;stroke:#0000ff;" x="266.164364" xlink:href="#m7c6b6873a2" y="52.939636"/>
     <use style="fill:#0000ff;stroke:#0000ff;" x="268.389818" xlink:href="#m7c6b6873a2" y="52.939636"/>
     <use style="fill:#0000ff;stroke:#0000ff;" x="270.615273" xlink:href="#m7c6b6873a2" y="282.292364"/>
     <use style="fill:#0000ff;stroke:#0000ff;" x="272.840727" xlink:href="#m7c6b6873a2" y="282.292364"/>
     <use style="fill:#0000ff;stroke:#0000ff;" x="275.066182" xlink:href="#m7c6b6873a2" y="282.292364"/>
     <use style="fill:#0000ff;stroke:#0000ff;" x="277.291636" xlink:href="#m7c6b6873a2" y="282.292364"/>
     <use style="fill:#0000ff;stroke:#0000ff;" x="279.517091" xlink:href="#m7c6b6873a2" y="282.292364"/>
     <use style="fill:#0000ff;stroke:#0000ff;" x="281.742545" xlink:href="#m7c6b6873a2" y="282.292364"/>
     <use style="fill:#0000ff;stroke:#0000ff;" x="283.968" xlink:href="#m7c6b6873a2" y="282.292364"/>
     <use style="fill:#0000ff;stroke:#0000ff;" x="286.193455" xlink:href="#m7c6b6873a2" y="282.292364"/>
     <use style="fill:#0000ff;stroke:#0000ff;" x="288.418909" xlink:href="#m7c6b6873a2" y="282.292364"/>
     <use style="fill:#0000ff;stroke:#0000ff;" x="290.644364" xlink:href="#m7c6b6873a2" y="282.292364"/>
     <use style="fill:#0000ff;stroke:#0000ff;" x="292.869818" xlink:href="#m7c6b6873a2" y="282.292364"/>
     <use style="fill:#0000ff;stroke:#0000ff;" x="295.095273" xlink:href="#m7c6b6873a2" y="282.292364"/>
     <use style="fill:#0000ff;stroke:#0000ff;" x="297.320727" xlink:href="#m7c6b6873a2" y="282.292364"/>
     <use style="fill:#0000ff;stroke:#0000ff;" x="299.546182" xlink:href="#m7c6b6873a2" y="282.292364"/>
     <use style="fill:#0000ff;stroke:#0000ff;" x="301.771636" xlink:href="#m7c6b6873a2" y="282.292364"/>
     <use style="fill:#0000ff;stroke:#0000ff;" x="303.997091" xlink:href="#m7c6b6873a2" y="282.292364"/>
     <use style="fill:#0000ff;stroke:#0000ff;" x="306.222545" xlink:href="#m7c6b6873a2" y="282.292364"/>
     <use style="fill:#0000ff;stroke:#0000ff;" x="308.448" xlink:href="#m7c6b6873a2" y="282.292364"/>
     <use style="fill:#0000ff;stroke:#0000ff;" x="310.673455" xlink:href="#m7c6b6873a2" y="282.292364"/>
     <use style="fill:#0000ff;stroke:#0000ff;" x="312.898909" xlink:href="#m7c6b6873a2" y="282.292364"/>
     <use style="fill:#0000ff;stroke:#0000ff;" x="315.124364" xlink:href="#m7c6b6873a2" y="282.292364"/>
     <use style="fill:#0000ff;stroke:#0000ff;" x="317.349818" xlink:href="#m7c6b6873a2" y="282.292364"/>
     <use style="fill:#0000ff;stroke:#0000ff;" x="319.575273" xlink:href="#m7c6b6873a2" y="282.292364"/>
     <use style="fill:#0000ff;stroke:#0000ff;" x="321.800727" xlink:href="#m7c6b6873a2" y="282.292364"/>
     <use style="fill:#0000ff;stroke:#0000ff;" x="324.026182" xlink:href="#m7c6b6873a2" y="282.292364"/>
     <use style="fill:#0000ff;stroke:#0000ff;" x="326.251636" xlink:href="#m7c6b6873a2" y="282.292364"/>
     <use style="fill:#0000ff;stroke:#0000ff;" x="328.477091" xlink:href="#m7c6b6873a2" y="282.292364"/>
     <use style="fill:#0000ff;stroke:#0000ff;" x="330.702545" xlink:href="#m7c6b6873a2" y="282.292364"/>
     <use style="fill:#0000ff;stroke:#0000ff;" x="332.928" xlink:href="#m7c6b6873a2" y="282.292364"/>
     <use style="fill:#0000ff;stroke:#0000ff;" x="335.153455" xlink:href="#m7c6b6873a2" y="282.292364"/>
     <use style="fill:#0000ff;stroke:#0000ff;" x="337.378909" xlink:href="#m7c6b6873a2" y="282.292364"/>
     <use style="fill:#0000ff;stroke:#0000ff;" x="339.604364" xlink:href="#m7c6b6873a2" y="282.292364"/>
     <use style="fill:#0000ff;stroke:#0000ff;" x="341.829818" xlink:href="#m7c6b6873a2" y="52.939636"/>
     <use style="fill:#0000ff;stroke:#0000ff;" x="344.055273" xlink:href="#m7c6b6873a2" y="52.939636"/>
     <use style="fill:#0000ff;stroke:#0000ff;" x="346.280727" xlink:href="#m7c6b6873a2" y="52.939636"/>
     <use style="fill:#0000ff;stroke:#0000ff;" x="348.506182" xlink:href="#m7c6b6873a2" y="52.939636"/>
     <use style="fill:#0000ff;stroke:#0000ff;" x="350.731636" xlink:href="#m7c6b6873a2" y="52.939636"/>
     <use style="fill:#0000ff;stroke:#0000ff;" x="352.957091" xlink:href="#m7c6b6873a2" y="52.939636"/>
     <use style="fill:#0000ff;stroke:#0000ff;" x="355.182545" xlink:href="#m7c6b6873a2" y="52.939636"/>
     <use style="fill:#0000ff;stroke:#0000ff;" x="357.408" xlink:href="#m7c6b6873a2" y="52.939636"/>
     <use style="fill:#0000ff;stroke:#0000ff;" x="359.633455" xlink:href="#m7c6b6873a2" y="52.939636"/>
     <use style="fill:#0000ff;stroke:#0000ff;" x="361.858909" xlink:href="#m7c6b6873a2" y="52.939636"/>
     <use style="fill:#0000ff;stroke:#0000ff;" x="364.084364" xlink:href="#m7c6b6873a2" y="52.939636"/>
     <use style="fill:#0000ff;stroke:#0000ff;" x="366.309818" xlink:href="#m7c6b6873a2" y="52.939636"/>
     <use style="fill:#0000ff;stroke:#0000ff;" x="368.535273" xlink:href="#m7c6b6873a2" y="52.939636"/>
     <use style="fill:#0000ff;stroke:#0000ff;" x="370.760727" xlink:href="#m7c6b6873a2" y="52.939636"/>
     <use style="fill:#0000ff;stroke:#0000ff;" x="372.986182" xlink:href="#m7c6b6873a2" y="52.939636"/>
     <use style="fill:#0000ff;stroke:#0000ff;" x="375.211636" xlink:href="#m7c6b6873a2" y="52.939636"/>
     <use style="fill:#0000ff;stroke:#0000ff;" x="377.437091" xlink:href="#m7c6b6873a2" y="52.939636"/>
    </g>
   </g>
   <g id="patch_3">
    <path d="M 78.336 293.76 
L 78.336 41.472 
" style="fill:none;stroke:#000000;stroke-linecap:square;stroke-linejoin:miter;stroke-width:1.5;"/>
   </g>
   <g id="patch_4">
    <path d="M 391.68 293.76 
L 391.68 41.472 
" style="fill:none;stroke:#000000;stroke-linecap:square;stroke-linejoin:miter;stroke-width:1.5;"/>
   </g>
   <g id="patch_5">
    <path d="M 78.336 293.76 
L 391.68 293.76 
" style="fill:none;stroke:#000000;stroke-linecap:square;stroke-linejoin:miter;stroke-width:1.5;"/>
   </g>
   <g id="patch_6">
    <path d="M 78.336 41.472 
L 391.68 41.472 
" style="fill:none;stroke:#000000;stroke-linecap:square;stroke-linejoin:miter;stroke-width:1.5;"/>
   </g>
   <g id="legend_1">
    <g id="patch_7">
     <path d="M 254.445 190.265375 
L 381.88 190.265375 
Q 384.68 190.265375 384.68 187.465375 
L 384.68 147.766625 
Q 384.68 144.966625 381.88 144.966625 
L 254.445 144.966625 
Q 251.645 144.966625 251.645 147.766625 
L 251.645 187.465375 
Q 251.645 190.265375 254.445 190.265375 
z
" style="fill:none;opacity:0;"/>
    </g>
    <g id="line2d_17">
     <path d="M 257.245 156.304437 
L 285.245 156.304437 
" style="fill:none;stroke:#ff0000;stroke-linecap:square;stroke-width:1.5;"/>
    </g>
    <g id="line2d_18"/>
    <g id="text_15">
     <!-- cos(x) -->
     <defs>
      <path d="M 48.78125 52.59375 
L 48.78125 44.1875 
Q 44.96875 46.296875 41.140625 47.34375 
Q 37.3125 48.390625 33.40625 48.390625 
Q 24.65625 48.390625 19.8125 42.84375 
Q 14.984375 37.3125 14.984375 27.296875 
Q 14.984375 17.28125 19.8125 11.734375 
Q 24.65625 6.203125 33.40625 6.203125 
Q 37.3125 6.203125 41.140625 7.25 
Q 44.96875 8.296875 48.78125 10.40625 
L 48.78125 2.09375 
Q 45.015625 0.34375 40.984375 -0.53125 
Q 36.96875 -1.421875 32.421875 -1.421875 
Q 20.0625 -1.421875 12.78125 6.34375 
Q 5.515625 14.109375 5.515625 27.296875 
Q 5.515625 40.671875 12.859375 48.328125 
Q 20.21875 56 33.015625 56 
Q 37.15625 56 41.109375 55.140625 
Q 45.0625 54.296875 48.78125 52.59375 
z
" id="DejaVuSans-99"/>
      <path d="M 30.609375 48.390625 
Q 23.390625 48.390625 19.1875 42.75 
Q 14.984375 37.109375 14.984375 27.296875 
Q 14.984375 17.484375 19.15625 11.84375 
Q 23.34375 6.203125 30.609375 6.203125 
Q 37.796875 6.203125 41.984375 11.859375 
Q 46.1875 17.53125 46.1875 27.296875 
Q 46.1875 37.015625 41.984375 42.703125 
Q 37.796875 48.390625 30.609375 48.390625 
z
M 30.609375 56 
Q 42.328125 56 49.015625 48.375 
Q 55.71875 40.765625 55.71875 27.296875 
Q 55.71875 13.875 49.015625 6.21875 
Q 42.328125 -1.421875 30.609375 -1.421875 
Q 18.84375 -1.421875 12.171875 6.21875 
Q 5.515625 13.875 5.515625 27.296875 
Q 5.515625 40.765625 12.171875 48.375 
Q 18.84375 56 30.609375 56 
z
" id="DejaVuSans-111"/>
      <path d="M 44.28125 53.078125 
L 44.28125 44.578125 
Q 40.484375 46.53125 36.375 47.5 
Q 32.28125 48.484375 27.875 48.484375 
Q 21.1875 48.484375 17.84375 46.4375 
Q 14.5 44.390625 14.5 40.28125 
Q 14.5 37.15625 16.890625 35.375 
Q 19.28125 33.59375 26.515625 31.984375 
L 29.59375 31.296875 
Q 39.15625 29.25 43.1875 25.515625 
Q 47.21875 21.78125 47.21875 15.09375 
Q 47.21875 7.46875 41.1875 3.015625 
Q 35.15625 -1.421875 24.609375 -1.421875 
Q 20.21875 -1.421875 15.453125 -0.5625 
Q 10.6875 0.296875 5.421875 2 
L 5.421875 11.28125 
Q 10.40625 8.6875 15.234375 7.390625 
Q 20.0625 6.109375 24.8125 6.109375 
Q 31.15625 6.109375 34.5625 8.28125 
Q 37.984375 10.453125 37.984375 14.40625 
Q 37.984375 18.0625 35.515625 20.015625 
Q 33.0625 21.96875 24.703125 23.78125 
L 21.578125 24.515625 
Q 13.234375 26.265625 9.515625 29.90625 
Q 5.8125 33.546875 5.8125 39.890625 
Q 5.8125 47.609375 11.28125 51.796875 
Q 16.75 56 26.8125 56 
Q 31.78125 56 36.171875 55.265625 
Q 40.578125 54.546875 44.28125 53.078125 
z
" id="DejaVuSans-115"/>
      <path d="M 31 75.875 
Q 24.46875 64.65625 21.28125 53.65625 
Q 18.109375 42.671875 18.109375 31.390625 
Q 18.109375 20.125 21.3125 9.0625 
Q 24.515625 -2 31 -13.1875 
L 23.1875 -13.1875 
Q 15.875 -1.703125 12.234375 9.375 
Q 8.59375 20.453125 8.59375 31.390625 
Q 8.59375 42.28125 12.203125 53.3125 
Q 15.828125 64.359375 23.1875 75.875 
z
" id="DejaVuSans-40"/>
      <path d="M 54.890625 54.6875 
L 35.109375 28.078125 
L 55.90625 0 
L 45.3125 0 
L 29.390625 21.484375 
L 13.484375 0 
L 2.875 0 
L 24.125 28.609375 
L 4.6875 54.6875 
L 15.28125 54.6875 
L 29.78125 35.203125 
L 44.28125 54.6875 
z
" id="DejaVuSans-120"/>
      <path d="M 8.015625 75.875 
L 15.828125 75.875 
Q 23.140625 64.359375 26.78125 53.3125 
Q 30.421875 42.28125 30.421875 31.390625 
Q 30.421875 20.453125 26.78125 9.375 
Q 23.140625 -1.703125 15.828125 -13.1875 
L 8.015625 -13.1875 
Q 14.5 -2 17.703125 9.0625 
Q 20.90625 20.125 20.90625 31.390625 
Q 20.90625 42.671875 17.703125 53.65625 
Q 14.5 64.65625 8.015625 75.875 
z
" id="DejaVuSans-41"/>
     </defs>
     <g transform="translate(296.445 161.204437)scale(0.14 -0.14)">
      <use xlink:href="#DejaVuSans-99"/>
      <use x="54.980469" xlink:href="#DejaVuSans-111"/>
      <use x="116.162109" xlink:href="#DejaVuSans-115"/>
      <use x="168.261719" xlink:href="#DejaVuSans-40"/>
      <use x="207.275391" xlink:href="#DejaVuSans-120"/>
      <use x="266.455078" xlink:href="#DejaVuSans-41"/>
     </g>
    </g>
    <g id="line2d_19"/>
    <g id="line2d_20">
     <g>
      <use style="fill:#0000ff;stroke:#0000ff;" x="271.245" xlink:href="#m7c6b6873a2" y="176.853812"/>
     </g>
    </g>
    <g id="text_16">
     <!-- sign(cos(x)) -->
     <defs>
      <path d="M 9.421875 54.6875 
L 18.40625 54.6875 
L 18.40625 0 
L 9.421875 0 
z
M 9.421875 75.984375 
L 18.40625 75.984375 
L 18.40625 64.59375 
L 9.421875 64.59375 
z
" id="DejaVuSans-105"/>
      <path d="M 45.40625 27.984375 
Q 45.40625 37.75 41.375 43.109375 
Q 37.359375 48.484375 30.078125 48.484375 
Q 22.859375 48.484375 18.828125 43.109375 
Q 14.796875 37.75 14.796875 27.984375 
Q 14.796875 18.265625 18.828125 12.890625 
Q 22.859375 7.515625 30.078125 7.515625 
Q 37.359375 7.515625 41.375 12.890625 
Q 45.40625 18.265625 45.40625 27.984375 
z
M 54.390625 6.78125 
Q 54.390625 -7.171875 48.1875 -13.984375 
Q 42 -20.796875 29.203125 -20.796875 
Q 24.46875 -20.796875 20.265625 -20.09375 
Q 16.0625 -19.390625 12.109375 -17.921875 
L 12.109375 -9.1875 
Q 16.0625 -11.328125 19.921875 -12.34375 
Q 23.78125 -13.375 27.78125 -13.375 
Q 36.625 -13.375 41.015625 -8.765625 
Q 45.40625 -4.15625 45.40625 5.171875 
L 45.40625 9.625 
Q 42.625 4.78125 38.28125 2.390625 
Q 33.9375 0 27.875 0 
Q 17.828125 0 11.671875 7.65625 
Q 5.515625 15.328125 5.515625 27.984375 
Q 5.515625 40.671875 11.671875 48.328125 
Q 17.828125 56 27.875 56 
Q 33.9375 56 38.28125 53.609375 
Q 42.625 51.21875 45.40625 46.390625 
L 45.40625 54.6875 
L 54.390625 54.6875 
z
" id="DejaVuSans-103"/>
      <path d="M 54.890625 33.015625 
L 54.890625 0 
L 45.90625 0 
L 45.90625 32.71875 
Q 45.90625 40.484375 42.875 44.328125 
Q 39.84375 48.1875 33.796875 48.1875 
Q 26.515625 48.1875 22.3125 43.546875 
Q 18.109375 38.921875 18.109375 30.90625 
L 18.109375 0 
L 9.078125 0 
L 9.078125 54.6875 
L 18.109375 54.6875 
L 18.109375 46.1875 
Q 21.34375 51.125 25.703125 53.5625 
Q 30.078125 56 35.796875 56 
Q 45.21875 56 50.046875 50.171875 
Q 54.890625 44.34375 54.890625 33.015625 
z
" id="DejaVuSans-110"/>
     </defs>
     <g transform="translate(296.445 181.753812)scale(0.14 -0.14)">
      <use xlink:href="#DejaVuSans-115"/>
      <use x="52.099609" xlink:href="#DejaVuSans-105"/>
      <use x="79.882812" xlink:href="#DejaVuSans-103"/>
      <use x="143.359375" xlink:href="#DejaVuSans-110"/>
      <use x="206.738281" xlink:href="#DejaVuSans-40"/>
      <use x="245.751953" xlink:href="#DejaVuSans-99"/>
      <use x="300.732422" xlink:href="#DejaVuSans-111"/>
      <use x="361.914062" xlink:href="#DejaVuSans-115"/>
      <use x="414.013672" xlink:href="#DejaVuSans-40"/>
      <use x="453.027344" xlink:href="#DejaVuSans-120"/>
      <use x="512.207031" xlink:href="#DejaVuSans-41"/>
      <use x="551.220703" xlink:href="#DejaVuSans-41"/>
     </g>
    </g>
   </g>
  </g>
 </g>
 <defs>
  <clipPath id="p25f9341f56">
   <rect height="252.288" width="313.344" x="78.336" y="41.472"/>
  </clipPath>
 </defs>
</svg>
