<?xml version="1.0" encoding="utf-8" standalone="no"?>
<!DOCTYPE svg PUBLIC "-//W3C//DTD SVG 1.1//EN"
  "http://www.w3.org/Graphics/SVG/1.1/DTD/svg11.dtd">
<!-- Created with matplotlib (https://matplotlib.org/) -->
<svg height="345.6pt" version="1.1" viewBox="0 0 460.8 345.6" width="460.8pt" xmlns="http://www.w3.org/2000/svg" xmlns:xlink="http://www.w3.org/1999/xlink">
 <defs>
  <style type="text/css">
*{stroke-linecap:butt;stroke-linejoin:round;}
  </style>
 </defs>
 <g id="figure_1">
  <g id="patch_1">
   <path d="M 0 345.6 
L 460.8 345.6 
L 460.8 0 
L 0 0 
z
" style="fill:#ffffff;"/>
  </g>
  <g id="axes_1">
   <g id="patch_2">
    <path d="M 78.336 293.76 
L 391.68 293.76 
L 391.68 41.472 
L 78.336 41.472 
z
" style="fill:#ffffff;"/>
   </g>
   <g id="matplotlib.axis_1">
    <g id="xtick_1">
     <g id="line2d_1">
      <defs>
       <path d="M 0 0 
L 0 12 
" id="m708629e1e6" style="stroke:#000000;stroke-width:1.5;"/>
      </defs>
      <g>
       <use style="stroke:#000000;stroke-width:1.5;" x="78.336" xlink:href="#m708629e1e6" y="293.76"/>
      </g>
     </g>
     <g id="text_1">
      <!-- −3 -->
      <defs>
       <path d="M 10.59375 35.5 
L 73.1875 35.5 
L 73.1875 27.203125 
L 10.59375 27.203125 
z
" id="DejaVuSans-8722"/>
       <path d="M 40.578125 39.3125 
Q 47.65625 37.796875 51.625 33 
Q 55.609375 28.21875 55.609375 21.1875 
Q 55.609375 10.40625 48.1875 4.484375 
Q 40.765625 -1.421875 27.09375 -1.421875 
Q 22.515625 -1.421875 17.65625 -0.515625 
Q 12.796875 0.390625 7.625 2.203125 
L 7.625 11.71875 
Q 11.71875 9.328125 16.59375 8.109375 
Q 21.484375 6.890625 26.8125 6.890625 
Q 36.078125 6.890625 40.9375 10.546875 
Q 45.796875 14.203125 45.796875 21.1875 
Q 45.796875 27.640625 41.28125 31.265625 
Q 36.765625 34.90625 28.71875 34.90625 
L 20.21875 34.90625 
L 20.21875 43.015625 
L 29.109375 43.015625 
Q 36.375 43.015625 40.234375 45.921875 
Q 44.09375 48.828125 44.09375 54.296875 
Q 44.09375 59.90625 40.109375 62.90625 
Q 36.140625 65.921875 28.71875 65.921875 
Q 24.65625 65.921875 20.015625 65.03125 
Q 15.375 64.15625 9.8125 62.3125 
L 9.8125 71.09375 
Q 15.4375 72.65625 20.34375 73.4375 
Q 25.25 74.21875 29.59375 74.21875 
Q 40.828125 74.21875 47.359375 69.109375 
Q 53.90625 64.015625 53.90625 55.328125 
Q 53.90625 49.265625 50.4375 45.09375 
Q 46.96875 40.921875 40.578125 39.3125 
z
" id="DejaVuSans-51"/>
      </defs>
      <g transform="translate(68.016469 319.897812)scale(0.14 -0.14)">
       <use xlink:href="#DejaVuSans-8722"/>
       <use x="83.789062" xlink:href="#DejaVuSans-51"/>
      </g>
     </g>
    </g>
    <g id="xtick_2">
     <g id="line2d_2">
      <g>
       <use style="stroke:#000000;stroke-width:1.5;" x="130.56" xlink:href="#m708629e1e6" y="293.76"/>
      </g>
     </g>
     <g id="text_2">
      <!-- −2 -->
      <defs>
       <path d="M 19.1875 8.296875 
L 53.609375 8.296875 
L 53.609375 0 
L 7.328125 0 
L 7.328125 8.296875 
Q 12.9375 14.109375 22.625 23.890625 
Q 32.328125 33.6875 34.8125 36.53125 
Q 39.546875 41.84375 41.421875 45.53125 
Q 43.3125 49.21875 43.3125 52.78125 
Q 43.3125 58.59375 39.234375 62.25 
Q 35.15625 65.921875 28.609375 65.921875 
Q 23.96875 65.921875 18.8125 64.3125 
Q 13.671875 62.703125 7.8125 59.421875 
L 7.8125 69.390625 
Q 13.765625 71.78125 18.9375 73 
Q 24.125 74.21875 28.421875 74.21875 
Q 39.75 74.21875 46.484375 68.546875 
Q 53.21875 62.890625 53.21875 53.421875 
Q 53.21875 48.921875 51.53125 44.890625 
Q 49.859375 40.875 45.40625 35.40625 
Q 44.1875 33.984375 37.640625 27.21875 
Q 31.109375 20.453125 19.1875 8.296875 
z
" id="DejaVuSans-50"/>
      </defs>
      <g transform="translate(120.240469 319.897812)scale(0.14 -0.14)">
       <use xlink:href="#DejaVuSans-8722"/>
       <use x="83.789062" xlink:href="#DejaVuSans-50"/>
      </g>
     </g>
    </g>
    <g id="xtick_3">
     <g id="line2d_3">
      <g>
       <use style="stroke:#000000;stroke-width:1.5;" x="182.784" xlink:href="#m708629e1e6" y="293.76"/>
      </g>
     </g>
     <g id="text_3">
      <!-- −1 -->
      <defs>
       <path d="M 12.40625 8.296875 
L 28.515625 8.296875 
L 28.515625 63.921875 
L 10.984375 60.40625 
L 10.984375 69.390625 
L 28.421875 72.90625 
L 38.28125 72.90625 
L 38.28125 8.296875 
L 54.390625 8.296875 
L 54.390625 0 
L 12.40625 0 
z
" id="DejaVuSans-49"/>
      </defs>
      <g transform="translate(172.464469 319.897812)scale(0.14 -0.14)">
       <use xlink:href="#DejaVuSans-8722"/>
       <use x="83.789062" xlink:href="#DejaVuSans-49"/>
      </g>
     </g>
    </g>
    <g id="xtick_4">
     <g id="line2d_4">
      <g>
       <use style="stroke:#000000;stroke-width:1.5;" x="235.008" xlink:href="#m708629e1e6" y="293.76"/>
      </g>
     </g>
     <g id="text_4">
      <!-- 0 -->
      <defs>
       <path d="M 31.78125 66.40625 
Q 24.171875 66.40625 20.328125 58.90625 
Q 16.5 51.421875 16.5 36.375 
Q 16.5 21.390625 20.328125 13.890625 
Q 24.171875 6.390625 31.78125 6.390625 
Q 39.453125 6.390625 43.28125 13.890625 
Q 47.125 21.390625 47.125 36.375 
Q 47.125 51.421875 43.28125 58.90625 
Q 39.453125 66.40625 31.78125 66.40625 
z
M 31.78125 74.21875 
Q 44.046875 74.21875 50.515625 64.515625 
Q 56.984375 54.828125 56.984375 36.375 
Q 56.984375 17.96875 50.515625 8.265625 
Q 44.046875 -1.421875 31.78125 -1.421875 
Q 19.53125 -1.421875 13.0625 8.265625 
Q 6.59375 17.96875 6.59375 36.375 
Q 6.59375 54.828125 13.0625 64.515625 
Q 19.53125 74.21875 31.78125 74.21875 
z
" id="DejaVuSans-48"/>
      </defs>
      <g transform="translate(230.55425 319.897812)scale(0.14 -0.14)">
       <use xlink:href="#DejaVuSans-48"/>
      </g>
     </g>
    </g>
    <g id="xtick_5">
     <g id="line2d_5">
      <g>
       <use style="stroke:#000000;stroke-width:1.5;" x="287.232" xlink:href="#m708629e1e6" y="293.76"/>
      </g>
     </g>
     <g id="text_5">
      <!-- 1 -->
      <g transform="translate(282.77825 319.897812)scale(0.14 -0.14)">
       <use xlink:href="#DejaVuSans-49"/>
      </g>
     </g>
    </g>
    <g id="xtick_6">
     <g id="line2d_6">
      <g>
       <use style="stroke:#000000;stroke-width:1.5;" x="339.456" xlink:href="#m708629e1e6" y="293.76"/>
      </g>
     </g>
     <g id="text_6">
      <!-- 2 -->
      <g transform="translate(335.00225 319.897812)scale(0.14 -0.14)">
       <use xlink:href="#DejaVuSans-50"/>
      </g>
     </g>
    </g>
    <g id="xtick_7">
     <g id="line2d_7">
      <g>
       <use style="stroke:#000000;stroke-width:1.5;" x="391.68" xlink:href="#m708629e1e6" y="293.76"/>
      </g>
     </g>
     <g id="text_7">
      <!-- 3 -->
      <g transform="translate(387.22625 319.897812)scale(0.14 -0.14)">
       <use xlink:href="#DejaVuSans-51"/>
      </g>
     </g>
    </g>
   </g>
   <g id="matplotlib.axis_2">
    <g id="ytick_1">
     <g id="line2d_8">
      <defs>
       <path d="M 0 0 
L -12 0 
" id="m8f54941340" style="stroke:#000000;stroke-width:1.5;"/>
      </defs>
      <g>
       <use style="stroke:#000000;stroke-width:1.5;" x="78.336" xlink:href="#m8f54941340" y="270.824727"/>
      </g>
     </g>
     <g id="text_8">
      <!-- −15.0 -->
      <defs>
       <path d="M 10.796875 72.90625 
L 49.515625 72.90625 
L 49.515625 64.59375 
L 19.828125 64.59375 
L 19.828125 46.734375 
Q 21.96875 47.46875 24.109375 47.828125 
Q 26.265625 48.1875 28.421875 48.1875 
Q 40.625 48.1875 47.75 41.5 
Q 54.890625 34.8125 54.890625 23.390625 
Q 54.890625 11.625 47.5625 5.09375 
Q 40.234375 -1.421875 26.90625 -1.421875 
Q 22.3125 -1.421875 17.546875 -0.640625 
Q 12.796875 0.140625 7.71875 1.703125 
L 7.71875 11.625 
Q 12.109375 9.234375 16.796875 8.0625 
Q 21.484375 6.890625 26.703125 6.890625 
Q 35.15625 6.890625 40.078125 11.328125 
Q 45.015625 15.765625 45.015625 23.390625 
Q 45.015625 31 40.078125 35.4375 
Q 35.15625 39.890625 26.703125 39.890625 
Q 22.75 39.890625 18.8125 39.015625 
Q 14.890625 38.140625 10.796875 36.28125 
z
" id="DejaVuSans-53"/>
       <path d="M 10.6875 12.40625 
L 21 12.40625 
L 21 0 
L 10.6875 0 
z
" id="DejaVuSans-46"/>
      </defs>
      <g transform="translate(19.932563 276.143634)scale(0.14 -0.14)">
       <use xlink:href="#DejaVuSans-8722"/>
       <use x="83.789062" xlink:href="#DejaVuSans-49"/>
       <use x="147.412109" xlink:href="#DejaVuSans-53"/>
       <use x="211.035156" xlink:href="#DejaVuSans-46"/>
       <use x="242.822266" xlink:href="#DejaVuSans-48"/>
      </g>
     </g>
    </g>
    <g id="ytick_2">
     <g id="line2d_9">
      <g>
       <use style="stroke:#000000;stroke-width:1.5;" x="78.336" xlink:href="#m8f54941340" y="242.155636"/>
      </g>
     </g>
     <g id="text_9">
      <!-- −12.5 -->
      <g transform="translate(19.932563 247.474543)scale(0.14 -0.14)">
       <use xlink:href="#DejaVuSans-8722"/>
       <use x="83.789062" xlink:href="#DejaVuSans-49"/>
       <use x="147.412109" xlink:href="#DejaVuSans-50"/>
       <use x="211.035156" xlink:href="#DejaVuSans-46"/>
       <use x="242.822266" xlink:href="#DejaVuSans-53"/>
      </g>
     </g>
    </g>
    <g id="ytick_3">
     <g id="line2d_10">
      <g>
       <use style="stroke:#000000;stroke-width:1.5;" x="78.336" xlink:href="#m8f54941340" y="213.486545"/>
      </g>
     </g>
     <g id="text_10">
      <!-- −10.0 -->
      <g transform="translate(19.932563 218.805452)scale(0.14 -0.14)">
       <use xlink:href="#DejaVuSans-8722"/>
       <use x="83.789062" xlink:href="#DejaVuSans-49"/>
       <use x="147.412109" xlink:href="#DejaVuSans-48"/>
       <use x="211.035156" xlink:href="#DejaVuSans-46"/>
       <use x="242.822266" xlink:href="#DejaVuSans-48"/>
      </g>
     </g>
    </g>
    <g id="ytick_4">
     <g id="line2d_11">
      <g>
       <use style="stroke:#000000;stroke-width:1.5;" x="78.336" xlink:href="#m8f54941340" y="184.817455"/>
      </g>
     </g>
     <g id="text_11">
      <!-- −7.5 -->
      <defs>
       <path d="M 8.203125 72.90625 
L 55.078125 72.90625 
L 55.078125 68.703125 
L 28.609375 0 
L 18.3125 0 
L 43.21875 64.59375 
L 8.203125 64.59375 
z
" id="DejaVuSans-55"/>
      </defs>
      <g transform="translate(28.840063 190.136361)scale(0.14 -0.14)">
       <use xlink:href="#DejaVuSans-8722"/>
       <use x="83.789062" xlink:href="#DejaVuSans-55"/>
       <use x="147.412109" xlink:href="#DejaVuSans-46"/>
       <use x="179.199219" xlink:href="#DejaVuSans-53"/>
      </g>
     </g>
    </g>
    <g id="ytick_5">
     <g id="line2d_12">
      <g>
       <use style="stroke:#000000;stroke-width:1.5;" x="78.336" xlink:href="#m8f54941340" y="156.148364"/>
      </g>
     </g>
     <g id="text_12">
      <!-- −5.0 -->
      <g transform="translate(28.840063 161.46727)scale(0.14 -0.14)">
       <use xlink:href="#DejaVuSans-8722"/>
       <use x="83.789062" xlink:href="#DejaVuSans-53"/>
       <use x="147.412109" xlink:href="#DejaVuSans-46"/>
       <use x="179.199219" xlink:href="#DejaVuSans-48"/>
      </g>
     </g>
    </g>
    <g id="ytick_6">
     <g id="line2d_13">
      <g>
       <use style="stroke:#000000;stroke-width:1.5;" x="78.336" xlink:href="#m8f54941340" y="127.479273"/>
      </g>
     </g>
     <g id="text_13">
      <!-- −2.5 -->
      <g transform="translate(28.840063 132.798179)scale(0.14 -0.14)">
       <use xlink:href="#DejaVuSans-8722"/>
       <use x="83.789062" xlink:href="#DejaVuSans-50"/>
       <use x="147.412109" xlink:href="#DejaVuSans-46"/>
       <use x="179.199219" xlink:href="#DejaVuSans-53"/>
      </g>
     </g>
    </g>
    <g id="ytick_7">
     <g id="line2d_14">
      <g>
       <use style="stroke:#000000;stroke-width:1.5;" x="78.336" xlink:href="#m8f54941340" y="98.810182"/>
      </g>
     </g>
     <g id="text_14">
      <!-- 0.0 -->
      <g transform="translate(40.571625 104.129088)scale(0.14 -0.14)">
       <use xlink:href="#DejaVuSans-48"/>
       <use x="63.623047" xlink:href="#DejaVuSans-46"/>
       <use x="95.410156" xlink:href="#DejaVuSans-48"/>
      </g>
     </g>
    </g>
    <g id="ytick_8">
     <g id="line2d_15">
      <g>
       <use style="stroke:#000000;stroke-width:1.5;" x="78.336" xlink:href="#m8f54941340" y="70.141091"/>
      </g>
     </g>
     <g id="text_15">
      <!-- 2.5 -->
      <g transform="translate(40.571625 75.459997)scale(0.14 -0.14)">
       <use xlink:href="#DejaVuSans-50"/>
       <use x="63.623047" xlink:href="#DejaVuSans-46"/>
       <use x="95.410156" xlink:href="#DejaVuSans-53"/>
      </g>
     </g>
    </g>
    <g id="ytick_9">
     <g id="line2d_16">
      <g>
       <use style="stroke:#000000;stroke-width:1.5;" x="78.336" xlink:href="#m8f54941340" y="41.472"/>
      </g>
     </g>
     <g id="text_16">
      <!-- 5.0 -->
      <g transform="translate(40.571625 46.790906)scale(0.14 -0.14)">
       <use xlink:href="#DejaVuSans-53"/>
       <use x="63.623047" xlink:href="#DejaVuSans-46"/>
       <use x="95.410156" xlink:href="#DejaVuSans-48"/>
      </g>
     </g>
    </g>
   </g>
   <g id="line2d_17">
    <defs>
     <path d="M 0 1.5 
C 0.397805 1.5 0.77937 1.341951 1.06066 1.06066 
C 1.341951 0.77937 1.5 0.397805 1.5 0 
C 1.5 -0.397805 1.341951 -0.77937 1.06066 -1.06066 
C 0.77937 -1.341951 0.397805 -1.5 0 -1.5 
C -0.397805 -1.5 -0.77937 -1.341951 -1.06066 -1.06066 
C -1.341951 -0.77937 -1.5 -0.397805 -1.5 0 
C -1.5 0.397805 -1.341951 0.77937 -1.06066 1.06066 
C -0.77937 1.341951 -0.397805 1.5 0 1.5 
z
" id="m4ac557b6dc" style="stroke:#0000ff;"/>
    </defs>
    <g clip-path="url(#p74c373fdba)">
     <use style="fill:#0000ff;stroke:#0000ff;" x="130.56" xlink:href="#m4ac557b6dc" y="52.939636"/>
     <use style="fill:#0000ff;stroke:#0000ff;" x="141.0048" xlink:href="#m4ac557b6dc" y="61.65504"/>
     <use style="fill:#0000ff;stroke:#0000ff;" x="151.4496" xlink:href="#m4ac557b6dc" y="69.453033"/>
     <use style="fill:#0000ff;stroke:#0000ff;" x="161.8944" xlink:href="#m4ac557b6dc" y="76.333615"/>
     <use style="fill:#0000ff;stroke:#0000ff;" x="172.3392" xlink:href="#m4ac557b6dc" y="82.296785"/>
     <use style="fill:#0000ff;stroke:#0000ff;" x="182.784" xlink:href="#m4ac557b6dc" y="87.342545"/>
     <use style="fill:#0000ff;stroke:#0000ff;" x="193.2288" xlink:href="#m4ac557b6dc" y="91.470895"/>
     <use style="fill:#0000ff;stroke:#0000ff;" x="203.6736" xlink:href="#m4ac557b6dc" y="94.681833"/>
     <use style="fill:#0000ff;stroke:#0000ff;" x="214.1184" xlink:href="#m4ac557b6dc" y="96.97536"/>
     <use style="fill:#0000ff;stroke:#0000ff;" x="224.5632" xlink:href="#m4ac557b6dc" y="98.351476"/>
     <use style="fill:#0000ff;stroke:#0000ff;" x="235.008" xlink:href="#m4ac557b6dc" y="98.810182"/>
     <use style="fill:#0000ff;stroke:#0000ff;" x="245.4528" xlink:href="#m4ac557b6dc" y="98.351476"/>
     <use style="fill:#0000ff;stroke:#0000ff;" x="255.8976" xlink:href="#m4ac557b6dc" y="96.97536"/>
     <use style="fill:#0000ff;stroke:#0000ff;" x="266.3424" xlink:href="#m4ac557b6dc" y="94.681833"/>
     <use style="fill:#0000ff;stroke:#0000ff;" x="276.7872" xlink:href="#m4ac557b6dc" y="91.470895"/>
     <use style="fill:#0000ff;stroke:#0000ff;" x="287.232" xlink:href="#m4ac557b6dc" y="87.342545"/>
     <use style="fill:#0000ff;stroke:#0000ff;" x="297.6768" xlink:href="#m4ac557b6dc" y="82.296785"/>
     <use style="fill:#0000ff;stroke:#0000ff;" x="308.1216" xlink:href="#m4ac557b6dc" y="76.333615"/>
     <use style="fill:#0000ff;stroke:#0000ff;" x="318.5664" xlink:href="#m4ac557b6dc" y="69.453033"/>
     <use style="fill:#0000ff;stroke:#0000ff;" x="329.0112" xlink:href="#m4ac557b6dc" y="61.65504"/>
     <use style="fill:#0000ff;stroke:#0000ff;" x="339.456" xlink:href="#m4ac557b6dc" y="52.939636"/>
    </g>
   </g>
   <g id="line2d_18">
    <defs>
     <path d="M -0.49999 0.49999 
L 0.50001 0.49999 
L 0.50001 -0.50001 
L -0.49999 -0.50001 
z
" id="meba9890081"/>
    </defs>
    <g clip-path="url(#p74c373fdba)">
     <use style="fill:#0000ff;" x="130.56" xlink:href="#meba9890081" y="75.874909"/>
     <use style="fill:#0000ff;" x="141.0048" xlink:href="#meba9890081" y="84.590313"/>
     <use style="fill:#0000ff;" x="151.4496" xlink:href="#meba9890081" y="92.388305"/>
     <use style="fill:#0000ff;" x="161.8944" xlink:href="#meba9890081" y="99.268887"/>
     <use style="fill:#0000ff;" x="172.3392" xlink:href="#meba9890081" y="105.232058"/>
     <use style="fill:#0000ff;" x="182.784" xlink:href="#meba9890081" y="110.277818"/>
     <use style="fill:#0000ff;" x="193.2288" xlink:href="#meba9890081" y="114.406167"/>
     <use style="fill:#0000ff;" x="203.6736" xlink:href="#meba9890081" y="117.617105"/>
     <use style="fill:#0000ff;" x="214.1184" xlink:href="#meba9890081" y="119.910633"/>
     <use style="fill:#0000ff;" x="224.5632" xlink:href="#meba9890081" y="121.286749"/>
     <use style="fill:#0000ff;" x="235.008" xlink:href="#meba9890081" y="121.745455"/>
     <use style="fill:#0000ff;" x="245.4528" xlink:href="#meba9890081" y="121.286749"/>
     <use style="fill:#0000ff;" x="255.8976" xlink:href="#meba9890081" y="119.910633"/>
     <use style="fill:#0000ff;" x="266.3424" xlink:href="#meba9890081" y="117.617105"/>
     <use style="fill:#0000ff;" x="276.7872" xlink:href="#meba9890081" y="114.406167"/>
     <use style="fill:#0000ff;" x="287.232" xlink:href="#meba9890081" y="110.277818"/>
     <use style="fill:#0000ff;" x="297.6768" xlink:href="#meba9890081" y="105.232058"/>
     <use style="fill:#0000ff;" x="308.1216" xlink:href="#meba9890081" y="99.268887"/>
     <use style="fill:#0000ff;" x="318.5664" xlink:href="#meba9890081" y="92.388305"/>
     <use style="fill:#0000ff;" x="329.0112" xlink:href="#meba9890081" y="84.590313"/>
     <use style="fill:#0000ff;" x="339.456" xlink:href="#meba9890081" y="75.874909"/>
    </g>
   </g>
   <g id="line2d_19">
    <defs>
     <path d="M 0 3 
C 0.795609 3 1.55874 2.683901 2.12132 2.12132 
C 2.683901 1.55874 3 0.795609 3 0 
C 3 -0.795609 2.683901 -1.55874 2.12132 -2.12132 
C 1.55874 -2.683901 0.795609 -3 0 -3 
C -0.795609 -3 -1.55874 -2.683901 -2.12132 -2.12132 
C -2.683901 -1.55874 -3 -0.795609 -3 0 
C -3 0.795609 -2.683901 1.55874 -2.12132 2.12132 
C -1.55874 2.683901 -0.795609 3 0 3 
z
" id="m00798a85dd" style="stroke:#0000ff;"/>
    </defs>
    <g clip-path="url(#p74c373fdba)">
     <use style="fill:#0000ff;stroke:#0000ff;" x="130.56" xlink:href="#m00798a85dd" y="98.810182"/>
     <use style="fill:#0000ff;stroke:#0000ff;" x="141.0048" xlink:href="#m00798a85dd" y="107.525585"/>
     <use style="fill:#0000ff;stroke:#0000ff;" x="151.4496" xlink:href="#m00798a85dd" y="115.323578"/>
     <use style="fill:#0000ff;stroke:#0000ff;" x="161.8944" xlink:href="#m00798a85dd" y="122.20416"/>
     <use style="fill:#0000ff;stroke:#0000ff;" x="172.3392" xlink:href="#m00798a85dd" y="128.167331"/>
     <use style="fill:#0000ff;stroke:#0000ff;" x="182.784" xlink:href="#m00798a85dd" y="133.213091"/>
     <use style="fill:#0000ff;stroke:#0000ff;" x="193.2288" xlink:href="#m00798a85dd" y="137.34144"/>
     <use style="fill:#0000ff;stroke:#0000ff;" x="203.6736" xlink:href="#m00798a85dd" y="140.552378"/>
     <use style="fill:#0000ff;stroke:#0000ff;" x="214.1184" xlink:href="#m00798a85dd" y="142.845905"/>
     <use style="fill:#0000ff;stroke:#0000ff;" x="224.5632" xlink:href="#m00798a85dd" y="144.222022"/>
     <use style="fill:#0000ff;stroke:#0000ff;" x="235.008" xlink:href="#m00798a85dd" y="144.680727"/>
     <use style="fill:#0000ff;stroke:#0000ff;" x="245.4528" xlink:href="#m00798a85dd" y="144.222022"/>
     <use style="fill:#0000ff;stroke:#0000ff;" x="255.8976" xlink:href="#m00798a85dd" y="142.845905"/>
     <use style="fill:#0000ff;stroke:#0000ff;" x="266.3424" xlink:href="#m00798a85dd" y="140.552378"/>
     <use style="fill:#0000ff;stroke:#0000ff;" x="276.7872" xlink:href="#m00798a85dd" y="137.34144"/>
     <use style="fill:#0000ff;stroke:#0000ff;" x="287.232" xlink:href="#m00798a85dd" y="133.213091"/>
     <use style="fill:#0000ff;stroke:#0000ff;" x="297.6768" xlink:href="#m00798a85dd" y="128.167331"/>
     <use style="fill:#0000ff;stroke:#0000ff;" x="308.1216" xlink:href="#m00798a85dd" y="122.20416"/>
     <use style="fill:#0000ff;stroke:#0000ff;" x="318.5664" xlink:href="#m00798a85dd" y="115.323578"/>
     <use style="fill:#0000ff;stroke:#0000ff;" x="329.0112" xlink:href="#m00798a85dd" y="107.525585"/>
     <use style="fill:#0000ff;stroke:#0000ff;" x="339.456" xlink:href="#m00798a85dd" y="98.810182"/>
    </g>
   </g>
   <g id="line2d_20">
    <defs>
     <path d="M -3 3 
L 3 3 
L 3 -3 
L -3 -3 
z
" id="m03cb747933" style="stroke:#0000ff;stroke-linejoin:miter;"/>
    </defs>
    <g clip-path="url(#p74c373fdba)">
     <use style="fill:#0000ff;stroke:#0000ff;stroke-linejoin:miter;" x="130.56" xlink:href="#m03cb747933" y="121.745455"/>
     <use style="fill:#0000ff;stroke:#0000ff;stroke-linejoin:miter;" x="141.0048" xlink:href="#m03cb747933" y="130.460858"/>
     <use style="fill:#0000ff;stroke:#0000ff;stroke-linejoin:miter;" x="151.4496" xlink:href="#m03cb747933" y="138.258851"/>
     <use style="fill:#0000ff;stroke:#0000ff;stroke-linejoin:miter;" x="161.8944" xlink:href="#m03cb747933" y="145.139433"/>
     <use style="fill:#0000ff;stroke:#0000ff;stroke-linejoin:miter;" x="172.3392" xlink:href="#m03cb747933" y="151.102604"/>
     <use style="fill:#0000ff;stroke:#0000ff;stroke-linejoin:miter;" x="182.784" xlink:href="#m03cb747933" y="156.148364"/>
     <use style="fill:#0000ff;stroke:#0000ff;stroke-linejoin:miter;" x="193.2288" xlink:href="#m03cb747933" y="160.276713"/>
     <use style="fill:#0000ff;stroke:#0000ff;stroke-linejoin:miter;" x="203.6736" xlink:href="#m03cb747933" y="163.487651"/>
     <use style="fill:#0000ff;stroke:#0000ff;stroke-linejoin:miter;" x="214.1184" xlink:href="#m03cb747933" y="165.781178"/>
     <use style="fill:#0000ff;stroke:#0000ff;stroke-linejoin:miter;" x="224.5632" xlink:href="#m03cb747933" y="167.157295"/>
     <use style="fill:#0000ff;stroke:#0000ff;stroke-linejoin:miter;" x="235.008" xlink:href="#m03cb747933" y="167.616"/>
     <use style="fill:#0000ff;stroke:#0000ff;stroke-linejoin:miter;" x="245.4528" xlink:href="#m03cb747933" y="167.157295"/>
     <use style="fill:#0000ff;stroke:#0000ff;stroke-linejoin:miter;" x="255.8976" xlink:href="#m03cb747933" y="165.781178"/>
     <use style="fill:#0000ff;stroke:#0000ff;stroke-linejoin:miter;" x="266.3424" xlink:href="#m03cb747933" y="163.487651"/>
     <use style="fill:#0000ff;stroke:#0000ff;stroke-linejoin:miter;" x="276.7872" xlink:href="#m03cb747933" y="160.276713"/>
     <use style="fill:#0000ff;stroke:#0000ff;stroke-linejoin:miter;" x="287.232" xlink:href="#m03cb747933" y="156.148364"/>
     <use style="fill:#0000ff;stroke:#0000ff;stroke-linejoin:miter;" x="297.6768" xlink:href="#m03cb747933" y="151.102604"/>
     <use style="fill:#0000ff;stroke:#0000ff;stroke-linejoin:miter;" x="308.1216" xlink:href="#m03cb747933" y="145.139433"/>
     <use style="fill:#0000ff;stroke:#0000ff;stroke-linejoin:miter;" x="318.5664" xlink:href="#m03cb747933" y="138.258851"/>
     <use style="fill:#0000ff;stroke:#0000ff;stroke-linejoin:miter;" x="329.0112" xlink:href="#m03cb747933" y="130.460858"/>
     <use style="fill:#0000ff;stroke:#0000ff;stroke-linejoin:miter;" x="339.456" xlink:href="#m03cb747933" y="121.745455"/>
    </g>
   </g>
   <g id="line2d_21">
    <defs>
     <path d="M 0 -3 
L -0.673542 -0.927051 
L -2.85317 -0.927051 
L -1.089814 0.354102 
L -1.763356 2.427051 
L -0 1.145898 
L 1.763356 2.427051 
L 1.089814 0.354102 
L 2.85317 -0.927051 
L 0.673542 -0.927051 
z
" id="m0c68ec48fa" style="stroke:#0000ff;stroke-linejoin:bevel;"/>
    </defs>
    <g clip-path="url(#p74c373fdba)">
     <use style="fill:#0000ff;stroke:#0000ff;stroke-linejoin:bevel;" x="130.56" xlink:href="#m0c68ec48fa" y="144.680727"/>
     <use style="fill:#0000ff;stroke:#0000ff;stroke-linejoin:bevel;" x="141.0048" xlink:href="#m0c68ec48fa" y="153.396131"/>
     <use style="fill:#0000ff;stroke:#0000ff;stroke-linejoin:bevel;" x="151.4496" xlink:href="#m0c68ec48fa" y="161.194124"/>
     <use style="fill:#0000ff;stroke:#0000ff;stroke-linejoin:bevel;" x="161.8944" xlink:href="#m0c68ec48fa" y="168.074705"/>
     <use style="fill:#0000ff;stroke:#0000ff;stroke-linejoin:bevel;" x="172.3392" xlink:href="#m0c68ec48fa" y="174.037876"/>
     <use style="fill:#0000ff;stroke:#0000ff;stroke-linejoin:bevel;" x="182.784" xlink:href="#m0c68ec48fa" y="179.083636"/>
     <use style="fill:#0000ff;stroke:#0000ff;stroke-linejoin:bevel;" x="193.2288" xlink:href="#m0c68ec48fa" y="183.211985"/>
     <use style="fill:#0000ff;stroke:#0000ff;stroke-linejoin:bevel;" x="203.6736" xlink:href="#m0c68ec48fa" y="186.422924"/>
     <use style="fill:#0000ff;stroke:#0000ff;stroke-linejoin:bevel;" x="214.1184" xlink:href="#m0c68ec48fa" y="188.716451"/>
     <use style="fill:#0000ff;stroke:#0000ff;stroke-linejoin:bevel;" x="224.5632" xlink:href="#m0c68ec48fa" y="190.092567"/>
     <use style="fill:#0000ff;stroke:#0000ff;stroke-linejoin:bevel;" x="235.008" xlink:href="#m0c68ec48fa" y="190.551273"/>
     <use style="fill:#0000ff;stroke:#0000ff;stroke-linejoin:bevel;" x="245.4528" xlink:href="#m0c68ec48fa" y="190.092567"/>
     <use style="fill:#0000ff;stroke:#0000ff;stroke-linejoin:bevel;" x="255.8976" xlink:href="#m0c68ec48fa" y="188.716451"/>
     <use style="fill:#0000ff;stroke:#0000ff;stroke-linejoin:bevel;" x="266.3424" xlink:href="#m0c68ec48fa" y="186.422924"/>
     <use style="fill:#0000ff;stroke:#0000ff;stroke-linejoin:bevel;" x="276.7872" xlink:href="#m0c68ec48fa" y="183.211985"/>
     <use style="fill:#0000ff;stroke:#0000ff;stroke-linejoin:bevel;" x="287.232" xlink:href="#m0c68ec48fa" y="179.083636"/>
     <use style="fill:#0000ff;stroke:#0000ff;stroke-linejoin:bevel;" x="297.6768" xlink:href="#m0c68ec48fa" y="174.037876"/>
     <use style="fill:#0000ff;stroke:#0000ff;stroke-linejoin:bevel;" x="308.1216" xlink:href="#m0c68ec48fa" y="168.074705"/>
     <use style="fill:#0000ff;stroke:#0000ff;stroke-linejoin:bevel;" x="318.5664" xlink:href="#m0c68ec48fa" y="161.194124"/>
     <use style="fill:#0000ff;stroke:#0000ff;stroke-linejoin:bevel;" x="329.0112" xlink:href="#m0c68ec48fa" y="153.396131"/>
     <use style="fill:#0000ff;stroke:#0000ff;stroke-linejoin:bevel;" x="339.456" xlink:href="#m0c68ec48fa" y="144.680727"/>
    </g>
   </g>
   <g id="line2d_22">
    <defs>
     <path d="M -3 0 
L 3 0 
M 0 3 
L 0 -3 
" id="m9ea8a8d037" style="stroke:#0000ff;"/>
    </defs>
    <g clip-path="url(#p74c373fdba)">
     <use style="fill:#0000ff;stroke:#0000ff;" x="130.56" xlink:href="#m9ea8a8d037" y="167.616"/>
     <use style="fill:#0000ff;stroke:#0000ff;" x="141.0048" xlink:href="#m9ea8a8d037" y="176.331404"/>
     <use style="fill:#0000ff;stroke:#0000ff;" x="151.4496" xlink:href="#m9ea8a8d037" y="184.129396"/>
     <use style="fill:#0000ff;stroke:#0000ff;" x="161.8944" xlink:href="#m9ea8a8d037" y="191.009978"/>
     <use style="fill:#0000ff;stroke:#0000ff;" x="172.3392" xlink:href="#m9ea8a8d037" y="196.973149"/>
     <use style="fill:#0000ff;stroke:#0000ff;" x="182.784" xlink:href="#m9ea8a8d037" y="202.018909"/>
     <use style="fill:#0000ff;stroke:#0000ff;" x="193.2288" xlink:href="#m9ea8a8d037" y="206.147258"/>
     <use style="fill:#0000ff;stroke:#0000ff;" x="203.6736" xlink:href="#m9ea8a8d037" y="209.358196"/>
     <use style="fill:#0000ff;stroke:#0000ff;" x="214.1184" xlink:href="#m9ea8a8d037" y="211.651724"/>
     <use style="fill:#0000ff;stroke:#0000ff;" x="224.5632" xlink:href="#m9ea8a8d037" y="213.02784"/>
     <use style="fill:#0000ff;stroke:#0000ff;" x="235.008" xlink:href="#m9ea8a8d037" y="213.486545"/>
     <use style="fill:#0000ff;stroke:#0000ff;" x="245.4528" xlink:href="#m9ea8a8d037" y="213.02784"/>
     <use style="fill:#0000ff;stroke:#0000ff;" x="255.8976" xlink:href="#m9ea8a8d037" y="211.651724"/>
     <use style="fill:#0000ff;stroke:#0000ff;" x="266.3424" xlink:href="#m9ea8a8d037" y="209.358196"/>
     <use style="fill:#0000ff;stroke:#0000ff;" x="276.7872" xlink:href="#m9ea8a8d037" y="206.147258"/>
     <use style="fill:#0000ff;stroke:#0000ff;" x="287.232" xlink:href="#m9ea8a8d037" y="202.018909"/>
     <use style="fill:#0000ff;stroke:#0000ff;" x="297.6768" xlink:href="#m9ea8a8d037" y="196.973149"/>
     <use style="fill:#0000ff;stroke:#0000ff;" x="308.1216" xlink:href="#m9ea8a8d037" y="191.009978"/>
     <use style="fill:#0000ff;stroke:#0000ff;" x="318.5664" xlink:href="#m9ea8a8d037" y="184.129396"/>
     <use style="fill:#0000ff;stroke:#0000ff;" x="329.0112" xlink:href="#m9ea8a8d037" y="176.331404"/>
     <use style="fill:#0000ff;stroke:#0000ff;" x="339.456" xlink:href="#m9ea8a8d037" y="167.616"/>
    </g>
   </g>
   <g id="line2d_23">
    <defs>
     <path d="M -3 3 
L 3 -3 
M -3 -3 
L 3 3 
" id="mb7d956af48" style="stroke:#0000ff;"/>
    </defs>
    <g clip-path="url(#p74c373fdba)">
     <use style="fill:#0000ff;stroke:#0000ff;" x="130.56" xlink:href="#mb7d956af48" y="190.551273"/>
     <use style="fill:#0000ff;stroke:#0000ff;" x="141.0048" xlink:href="#mb7d956af48" y="199.266676"/>
     <use style="fill:#0000ff;stroke:#0000ff;" x="151.4496" xlink:href="#mb7d956af48" y="207.064669"/>
     <use style="fill:#0000ff;stroke:#0000ff;" x="161.8944" xlink:href="#mb7d956af48" y="213.945251"/>
     <use style="fill:#0000ff;stroke:#0000ff;" x="172.3392" xlink:href="#mb7d956af48" y="219.908422"/>
     <use style="fill:#0000ff;stroke:#0000ff;" x="182.784" xlink:href="#mb7d956af48" y="224.954182"/>
     <use style="fill:#0000ff;stroke:#0000ff;" x="193.2288" xlink:href="#mb7d956af48" y="229.082531"/>
     <use style="fill:#0000ff;stroke:#0000ff;" x="203.6736" xlink:href="#mb7d956af48" y="232.293469"/>
     <use style="fill:#0000ff;stroke:#0000ff;" x="214.1184" xlink:href="#mb7d956af48" y="234.586996"/>
     <use style="fill:#0000ff;stroke:#0000ff;" x="224.5632" xlink:href="#mb7d956af48" y="235.963113"/>
     <use style="fill:#0000ff;stroke:#0000ff;" x="235.008" xlink:href="#mb7d956af48" y="236.421818"/>
     <use style="fill:#0000ff;stroke:#0000ff;" x="245.4528" xlink:href="#mb7d956af48" y="235.963113"/>
     <use style="fill:#0000ff;stroke:#0000ff;" x="255.8976" xlink:href="#mb7d956af48" y="234.586996"/>
     <use style="fill:#0000ff;stroke:#0000ff;" x="266.3424" xlink:href="#mb7d956af48" y="232.293469"/>
     <use style="fill:#0000ff;stroke:#0000ff;" x="276.7872" xlink:href="#mb7d956af48" y="229.082531"/>
     <use style="fill:#0000ff;stroke:#0000ff;" x="287.232" xlink:href="#mb7d956af48" y="224.954182"/>
     <use style="fill:#0000ff;stroke:#0000ff;" x="297.6768" xlink:href="#mb7d956af48" y="219.908422"/>
     <use style="fill:#0000ff;stroke:#0000ff;" x="308.1216" xlink:href="#mb7d956af48" y="213.945251"/>
     <use style="fill:#0000ff;stroke:#0000ff;" x="318.5664" xlink:href="#mb7d956af48" y="207.064669"/>
     <use style="fill:#0000ff;stroke:#0000ff;" x="329.0112" xlink:href="#mb7d956af48" y="199.266676"/>
     <use style="fill:#0000ff;stroke:#0000ff;" x="339.456" xlink:href="#mb7d956af48" y="190.551273"/>
    </g>
   </g>
   <g id="line2d_24">
    <defs>
     <path d="M -0 4.242641 
L 4.242641 0 
L 0 -4.242641 
L -4.242641 -0 
z
" id="m10b2d96d5b" style="stroke:#0000ff;stroke-linejoin:miter;"/>
    </defs>
    <g clip-path="url(#p74c373fdba)">
     <use style="fill:#0000ff;stroke:#0000ff;stroke-linejoin:miter;" x="130.56" xlink:href="#m10b2d96d5b" y="213.486545"/>
     <use style="fill:#0000ff;stroke:#0000ff;stroke-linejoin:miter;" x="141.0048" xlink:href="#m10b2d96d5b" y="222.201949"/>
     <use style="fill:#0000ff;stroke:#0000ff;stroke-linejoin:miter;" x="151.4496" xlink:href="#m10b2d96d5b" y="229.999942"/>
     <use style="fill:#0000ff;stroke:#0000ff;stroke-linejoin:miter;" x="161.8944" xlink:href="#m10b2d96d5b" y="236.880524"/>
     <use style="fill:#0000ff;stroke:#0000ff;stroke-linejoin:miter;" x="172.3392" xlink:href="#m10b2d96d5b" y="242.843695"/>
     <use style="fill:#0000ff;stroke:#0000ff;stroke-linejoin:miter;" x="182.784" xlink:href="#m10b2d96d5b" y="247.889455"/>
     <use style="fill:#0000ff;stroke:#0000ff;stroke-linejoin:miter;" x="193.2288" xlink:href="#m10b2d96d5b" y="252.017804"/>
     <use style="fill:#0000ff;stroke:#0000ff;stroke-linejoin:miter;" x="203.6736" xlink:href="#m10b2d96d5b" y="255.228742"/>
     <use style="fill:#0000ff;stroke:#0000ff;stroke-linejoin:miter;" x="214.1184" xlink:href="#m10b2d96d5b" y="257.522269"/>
     <use style="fill:#0000ff;stroke:#0000ff;stroke-linejoin:miter;" x="224.5632" xlink:href="#m10b2d96d5b" y="258.898385"/>
     <use style="fill:#0000ff;stroke:#0000ff;stroke-linejoin:miter;" x="235.008" xlink:href="#m10b2d96d5b" y="259.357091"/>
     <use style="fill:#0000ff;stroke:#0000ff;stroke-linejoin:miter;" x="245.4528" xlink:href="#m10b2d96d5b" y="258.898385"/>
     <use style="fill:#0000ff;stroke:#0000ff;stroke-linejoin:miter;" x="255.8976" xlink:href="#m10b2d96d5b" y="257.522269"/>
     <use style="fill:#0000ff;stroke:#0000ff;stroke-linejoin:miter;" x="266.3424" xlink:href="#m10b2d96d5b" y="255.228742"/>
     <use style="fill:#0000ff;stroke:#0000ff;stroke-linejoin:miter;" x="276.7872" xlink:href="#m10b2d96d5b" y="252.017804"/>
     <use style="fill:#0000ff;stroke:#0000ff;stroke-linejoin:miter;" x="287.232" xlink:href="#m10b2d96d5b" y="247.889455"/>
     <use style="fill:#0000ff;stroke:#0000ff;stroke-linejoin:miter;" x="297.6768" xlink:href="#m10b2d96d5b" y="242.843695"/>
     <use style="fill:#0000ff;stroke:#0000ff;stroke-linejoin:miter;" x="308.1216" xlink:href="#m10b2d96d5b" y="236.880524"/>
     <use style="fill:#0000ff;stroke:#0000ff;stroke-linejoin:miter;" x="318.5664" xlink:href="#m10b2d96d5b" y="229.999942"/>
     <use style="fill:#0000ff;stroke:#0000ff;stroke-linejoin:miter;" x="329.0112" xlink:href="#m10b2d96d5b" y="222.201949"/>
     <use style="fill:#0000ff;stroke:#0000ff;stroke-linejoin:miter;" x="339.456" xlink:href="#m10b2d96d5b" y="213.486545"/>
    </g>
   </g>
   <g id="line2d_25">
    <defs>
     <path d="M -0 4.242641 
L 2.545584 0 
L 0 -4.242641 
L -2.545584 -0 
z
" id="mce19f83a27" style="stroke:#0000ff;stroke-linejoin:miter;"/>
    </defs>
    <g clip-path="url(#p74c373fdba)">
     <use style="fill:#0000ff;stroke:#0000ff;stroke-linejoin:miter;" x="130.56" xlink:href="#mce19f83a27" y="236.421818"/>
     <use style="fill:#0000ff;stroke:#0000ff;stroke-linejoin:miter;" x="141.0048" xlink:href="#mce19f83a27" y="245.137222"/>
     <use style="fill:#0000ff;stroke:#0000ff;stroke-linejoin:miter;" x="151.4496" xlink:href="#mce19f83a27" y="252.935215"/>
     <use style="fill:#0000ff;stroke:#0000ff;stroke-linejoin:miter;" x="161.8944" xlink:href="#mce19f83a27" y="259.815796"/>
     <use style="fill:#0000ff;stroke:#0000ff;stroke-linejoin:miter;" x="172.3392" xlink:href="#mce19f83a27" y="265.778967"/>
     <use style="fill:#0000ff;stroke:#0000ff;stroke-linejoin:miter;" x="182.784" xlink:href="#mce19f83a27" y="270.824727"/>
     <use style="fill:#0000ff;stroke:#0000ff;stroke-linejoin:miter;" x="193.2288" xlink:href="#mce19f83a27" y="274.953076"/>
     <use style="fill:#0000ff;stroke:#0000ff;stroke-linejoin:miter;" x="203.6736" xlink:href="#mce19f83a27" y="278.164015"/>
     <use style="fill:#0000ff;stroke:#0000ff;stroke-linejoin:miter;" x="214.1184" xlink:href="#mce19f83a27" y="280.457542"/>
     <use style="fill:#0000ff;stroke:#0000ff;stroke-linejoin:miter;" x="224.5632" xlink:href="#mce19f83a27" y="281.833658"/>
     <use style="fill:#0000ff;stroke:#0000ff;stroke-linejoin:miter;" x="235.008" xlink:href="#mce19f83a27" y="282.292364"/>
     <use style="fill:#0000ff;stroke:#0000ff;stroke-linejoin:miter;" x="245.4528" xlink:href="#mce19f83a27" y="281.833658"/>
     <use style="fill:#0000ff;stroke:#0000ff;stroke-linejoin:miter;" x="255.8976" xlink:href="#mce19f83a27" y="280.457542"/>
     <use style="fill:#0000ff;stroke:#0000ff;stroke-linejoin:miter;" x="266.3424" xlink:href="#mce19f83a27" y="278.164015"/>
     <use style="fill:#0000ff;stroke:#0000ff;stroke-linejoin:miter;" x="276.7872" xlink:href="#mce19f83a27" y="274.953076"/>
     <use style="fill:#0000ff;stroke:#0000ff;stroke-linejoin:miter;" x="287.232" xlink:href="#mce19f83a27" y="270.824727"/>
     <use style="fill:#0000ff;stroke:#0000ff;stroke-linejoin:miter;" x="297.6768" xlink:href="#mce19f83a27" y="265.778967"/>
     <use style="fill:#0000ff;stroke:#0000ff;stroke-linejoin:miter;" x="308.1216" xlink:href="#mce19f83a27" y="259.815796"/>
     <use style="fill:#0000ff;stroke:#0000ff;stroke-linejoin:miter;" x="318.5664" xlink:href="#mce19f83a27" y="252.935215"/>
     <use style="fill:#0000ff;stroke:#0000ff;stroke-linejoin:miter;" x="329.0112" xlink:href="#mce19f83a27" y="245.137222"/>
     <use style="fill:#0000ff;stroke:#0000ff;stroke-linejoin:miter;" x="339.456" xlink:href="#mce19f83a27" y="236.421818"/>
    </g>
   </g>
   <g id="patch_3">
    <path d="M 78.336 293.76 
L 78.336 41.472 
" style="fill:none;stroke:#000000;stroke-linecap:square;stroke-linejoin:miter;stroke-width:1.5;"/>
   </g>
   <g id="patch_4">
    <path d="M 391.68 293.76 
L 391.68 41.472 
" style="fill:none;stroke:#000000;stroke-linecap:square;stroke-linejoin:miter;stroke-width:1.5;"/>
   </g>
   <g id="patch_5">
    <path d="M 78.336 293.76 
L 391.68 293.76 
" style="fill:none;stroke:#000000;stroke-linecap:square;stroke-linejoin:miter;stroke-width:1.5;"/>
   </g>
   <g id="patch_6">
    <path d="M 78.336 41.472 
L 391.68 41.472 
" style="fill:none;stroke:#000000;stroke-linecap:square;stroke-linejoin:miter;stroke-width:1.5;"/>
   </g>
   <g id="legend_1">
    <g id="patch_7">
     <path d="M 88.136 286.76 
L 144.667563 286.76 
Q 147.467563 286.76 147.467563 283.96 
L 147.467563 100.415625 
Q 147.467563 97.615625 144.667563 97.615625 
L 88.136 97.615625 
Q 85.336 97.615625 85.336 100.415625 
L 85.336 283.96 
Q 85.336 286.76 88.136 286.76 
z
" style="fill:none;opacity:0;"/>
    </g>
    <g id="line2d_26"/>
    <g id="line2d_27">
     <g>
      <use style="fill:#0000ff;stroke:#0000ff;" x="104.936" xlink:href="#m4ac557b6dc" y="108.953437"/>
     </g>
    </g>
    <g id="text_17">
     <!-- . -->
     <g transform="translate(130.136 113.853437)scale(0.14 -0.14)">
      <use xlink:href="#DejaVuSans-46"/>
     </g>
    </g>
    <g id="line2d_28"/>
    <g id="line2d_29">
     <g>
      <use style="fill:#0000ff;" x="104.936" xlink:href="#meba9890081" y="129.502812"/>
     </g>
    </g>
    <g id="text_18">
     <!-- , -->
     <defs>
      <path d="M 11.71875 12.40625 
L 22.015625 12.40625 
L 22.015625 4 
L 14.015625 -11.625 
L 7.71875 -11.625 
L 11.71875 4 
z
" id="DejaVuSans-44"/>
     </defs>
     <g transform="translate(130.136 134.402812)scale(0.14 -0.14)">
      <use xlink:href="#DejaVuSans-44"/>
     </g>
    </g>
    <g id="line2d_30"/>
    <g id="line2d_31">
     <g>
      <use style="fill:#0000ff;stroke:#0000ff;" x="104.936" xlink:href="#m00798a85dd" y="150.052187"/>
     </g>
    </g>
    <g id="text_19">
     <!-- o -->
     <defs>
      <path d="M 30.609375 48.390625 
Q 23.390625 48.390625 19.1875 42.75 
Q 14.984375 37.109375 14.984375 27.296875 
Q 14.984375 17.484375 19.15625 11.84375 
Q 23.34375 6.203125 30.609375 6.203125 
Q 37.796875 6.203125 41.984375 11.859375 
Q 46.1875 17.53125 46.1875 27.296875 
Q 46.1875 37.015625 41.984375 42.703125 
Q 37.796875 48.390625 30.609375 48.390625 
z
M 30.609375 56 
Q 42.328125 56 49.015625 48.375 
Q 55.71875 40.765625 55.71875 27.296875 
Q 55.71875 13.875 49.015625 6.21875 
Q 42.328125 -1.421875 30.609375 -1.421875 
Q 18.84375 -1.421875 12.171875 6.21875 
Q 5.515625 13.875 5.515625 27.296875 
Q 5.515625 40.765625 12.171875 48.375 
Q 18.84375 56 30.609375 56 
z
" id="DejaVuSans-111"/>
     </defs>
     <g transform="translate(130.136 154.952187)scale(0.14 -0.14)">
      <use xlink:href="#DejaVuSans-111"/>
     </g>
    </g>
    <g id="line2d_32"/>
    <g id="line2d_33">
     <g>
      <use style="fill:#0000ff;stroke:#0000ff;stroke-linejoin:miter;" x="104.936" xlink:href="#m03cb747933" y="170.601562"/>
     </g>
    </g>
    <g id="text_20">
     <!-- s -->
     <defs>
      <path d="M 44.28125 53.078125 
L 44.28125 44.578125 
Q 40.484375 46.53125 36.375 47.5 
Q 32.28125 48.484375 27.875 48.484375 
Q 21.1875 48.484375 17.84375 46.4375 
Q 14.5 44.390625 14.5 40.28125 
Q 14.5 37.15625 16.890625 35.375 
Q 19.28125 33.59375 26.515625 31.984375 
L 29.59375 31.296875 
Q 39.15625 29.25 43.1875 25.515625 
Q 47.21875 21.78125 47.21875 15.09375 
Q 47.21875 7.46875 41.1875 3.015625 
Q 35.15625 -1.421875 24.609375 -1.421875 
Q 20.21875 -1.421875 15.453125 -0.5625 
Q 10.6875 0.296875 5.421875 2 
L 5.421875 11.28125 
Q 10.40625 8.6875 15.234375 7.390625 
Q 20.0625 6.109375 24.8125 6.109375 
Q 31.15625 6.109375 34.5625 8.28125 
Q 37.984375 10.453125 37.984375 14.40625 
Q 37.984375 18.0625 35.515625 20.015625 
Q 33.0625 21.96875 24.703125 23.78125 
L 21.578125 24.515625 
Q 13.234375 26.265625 9.515625 29.90625 
Q 5.8125 33.546875 5.8125 39.890625 
Q 5.8125 47.609375 11.28125 51.796875 
Q 16.75 56 26.8125 56 
Q 31.78125 56 36.171875 55.265625 
Q 40.578125 54.546875 44.28125 53.078125 
z
" id="DejaVuSans-115"/>
     </defs>
     <g transform="translate(130.136 175.501562)scale(0.14 -0.14)">
      <use xlink:href="#DejaVuSans-115"/>
     </g>
    </g>
    <g id="line2d_34"/>
    <g id="line2d_35">
     <g>
      <use style="fill:#0000ff;stroke:#0000ff;stroke-linejoin:bevel;" x="104.936" xlink:href="#m0c68ec48fa" y="191.150937"/>
     </g>
    </g>
    <g id="text_21">
     <!-- * -->
     <defs>
      <path d="M 47.015625 60.890625 
L 29.5 51.421875 
L 47.015625 41.890625 
L 44.1875 37.109375 
L 27.78125 47.015625 
L 27.78125 28.609375 
L 22.21875 28.609375 
L 22.21875 47.015625 
L 5.8125 37.109375 
L 2.984375 41.890625 
L 20.515625 51.421875 
L 2.984375 60.890625 
L 5.8125 65.71875 
L 22.21875 55.8125 
L 22.21875 74.21875 
L 27.78125 74.21875 
L 27.78125 55.8125 
L 44.1875 65.71875 
z
" id="DejaVuSans-42"/>
     </defs>
     <g transform="translate(130.136 196.050937)scale(0.14 -0.14)">
      <use xlink:href="#DejaVuSans-42"/>
     </g>
    </g>
    <g id="line2d_36"/>
    <g id="line2d_37">
     <g>
      <use style="fill:#0000ff;stroke:#0000ff;" x="104.936" xlink:href="#m9ea8a8d037" y="211.700312"/>
     </g>
    </g>
    <g id="text_22">
     <!-- + -->
     <defs>
      <path d="M 46 62.703125 
L 46 35.5 
L 73.1875 35.5 
L 73.1875 27.203125 
L 46 27.203125 
L 46 0 
L 37.796875 0 
L 37.796875 27.203125 
L 10.59375 27.203125 
L 10.59375 35.5 
L 37.796875 35.5 
L 37.796875 62.703125 
z
" id="DejaVuSans-43"/>
     </defs>
     <g transform="translate(130.136 216.600312)scale(0.14 -0.14)">
      <use xlink:href="#DejaVuSans-43"/>
     </g>
    </g>
    <g id="line2d_38"/>
    <g id="line2d_39">
     <g>
      <use style="fill:#0000ff;stroke:#0000ff;" x="104.936" xlink:href="#mb7d956af48" y="232.249687"/>
     </g>
    </g>
    <g id="text_23">
     <!-- x -->
     <defs>
      <path d="M 54.890625 54.6875 
L 35.109375 28.078125 
L 55.90625 0 
L 45.3125 0 
L 29.390625 21.484375 
L 13.484375 0 
L 2.875 0 
L 24.125 28.609375 
L 4.6875 54.6875 
L 15.28125 54.6875 
L 29.78125 35.203125 
L 44.28125 54.6875 
z
" id="DejaVuSans-120"/>
     </defs>
     <g transform="translate(130.136 237.149687)scale(0.14 -0.14)">
      <use xlink:href="#DejaVuSans-120"/>
     </g>
    </g>
    <g id="line2d_40"/>
    <g id="line2d_41">
     <g>
      <use style="fill:#0000ff;stroke:#0000ff;stroke-linejoin:miter;" x="104.936" xlink:href="#m10b2d96d5b" y="252.799062"/>
     </g>
    </g>
    <g id="text_24">
     <!-- D -->
     <defs>
      <path d="M 19.671875 64.796875 
L 19.671875 8.109375 
L 31.59375 8.109375 
Q 46.6875 8.109375 53.6875 14.9375 
Q 60.6875 21.78125 60.6875 36.53125 
Q 60.6875 51.171875 53.6875 57.984375 
Q 46.6875 64.796875 31.59375 64.796875 
z
M 9.8125 72.90625 
L 30.078125 72.90625 
Q 51.265625 72.90625 61.171875 64.09375 
Q 71.09375 55.28125 71.09375 36.53125 
Q 71.09375 17.671875 61.125 8.828125 
Q 51.171875 0 30.078125 0 
L 9.8125 0 
z
" id="DejaVuSans-68"/>
     </defs>
     <g transform="translate(130.136 257.699062)scale(0.14 -0.14)">
      <use xlink:href="#DejaVuSans-68"/>
     </g>
    </g>
    <g id="line2d_42"/>
    <g id="line2d_43">
     <g>
      <use style="fill:#0000ff;stroke:#0000ff;stroke-linejoin:miter;" x="104.936" xlink:href="#mce19f83a27" y="273.348437"/>
     </g>
    </g>
    <g id="text_25">
     <!-- d -->
     <defs>
      <path d="M 45.40625 46.390625 
L 45.40625 75.984375 
L 54.390625 75.984375 
L 54.390625 0 
L 45.40625 0 
L 45.40625 8.203125 
Q 42.578125 3.328125 38.25 0.953125 
Q 33.9375 -1.421875 27.875 -1.421875 
Q 17.96875 -1.421875 11.734375 6.484375 
Q 5.515625 14.40625 5.515625 27.296875 
Q 5.515625 40.1875 11.734375 48.09375 
Q 17.96875 56 27.875 56 
Q 33.9375 56 38.25 53.625 
Q 42.578125 51.265625 45.40625 46.390625 
z
M 14.796875 27.296875 
Q 14.796875 17.390625 18.875 11.75 
Q 22.953125 6.109375 30.078125 6.109375 
Q 37.203125 6.109375 41.296875 11.75 
Q 45.40625 17.390625 45.40625 27.296875 
Q 45.40625 37.203125 41.296875 42.84375 
Q 37.203125 48.484375 30.078125 48.484375 
Q 22.953125 48.484375 18.875 42.84375 
Q 14.796875 37.203125 14.796875 27.296875 
z
" id="DejaVuSans-100"/>
     </defs>
     <g transform="translate(130.136 278.248437)scale(0.14 -0.14)">
      <use xlink:href="#DejaVuSans-100"/>
     </g>
    </g>
   </g>
  </g>
 </g>
 <defs>
  <clipPath id="p74c373fdba">
   <rect height="252.288" width="313.344" x="78.336" y="41.472"/>
  </clipPath>
 </defs>
</svg>
