<?xml version="1.0" encoding="utf-8" standalone="no"?>
<!DOCTYPE svg PUBLIC "-//W3C//DTD SVG 1.1//EN"
  "http://www.w3.org/Graphics/SVG/1.1/DTD/svg11.dtd">
<!-- Created with matplotlib (https://matplotlib.org/) -->
<svg height="345.6pt" version="1.1" viewBox="0 0 460.8 345.6" width="460.8pt" xmlns="http://www.w3.org/2000/svg" xmlns:xlink="http://www.w3.org/1999/xlink">
 <defs>
  <style type="text/css">
*{stroke-linecap:butt;stroke-linejoin:round;}
  </style>
 </defs>
 <g id="figure_1">
  <g id="patch_1">
   <path d="M 0 345.6 
L 460.8 345.6 
L 460.8 0 
L 0 0 
z
" style="fill:#ffffff;"/>
  </g>
  <g id="axes_1">
   <g id="patch_2">
    <path d="M 78.336 293.76 
L 391.68 293.76 
L 391.68 41.472 
L 78.336 41.472 
z
" style="fill:#ffffff;"/>
   </g>
   <g id="matplotlib.axis_1">
    <g id="xtick_1">
     <g id="line2d_1">
      <defs>
       <path d="M 0 0 
L 0 12 
" id="m6034e0d720" style="stroke:#000000;stroke-width:1.5;"/>
      </defs>
      <g>
       <use style="stroke:#000000;stroke-width:1.5;" x="98.998237" xlink:href="#m6034e0d720" y="293.76"/>
      </g>
     </g>
     <g id="text_1">
      <!-- −6 -->
      <defs>
       <path d="M 10.59375 35.5 
L 73.1875 35.5 
L 73.1875 27.203125 
L 10.59375 27.203125 
z
" id="DejaVuSans-8722"/>
       <path d="M 33.015625 40.375 
Q 26.375 40.375 22.484375 35.828125 
Q 18.609375 31.296875 18.609375 23.390625 
Q 18.609375 15.53125 22.484375 10.953125 
Q 26.375 6.390625 33.015625 6.390625 
Q 39.65625 6.390625 43.53125 10.953125 
Q 47.40625 15.53125 47.40625 23.390625 
Q 47.40625 31.296875 43.53125 35.828125 
Q 39.65625 40.375 33.015625 40.375 
z
M 52.59375 71.296875 
L 52.59375 62.3125 
Q 48.875 64.0625 45.09375 64.984375 
Q 41.3125 65.921875 37.59375 65.921875 
Q 27.828125 65.921875 22.671875 59.328125 
Q 17.53125 52.734375 16.796875 39.40625 
Q 19.671875 43.65625 24.015625 45.921875 
Q 28.375 48.1875 33.59375 48.1875 
Q 44.578125 48.1875 50.953125 41.515625 
Q 57.328125 34.859375 57.328125 23.390625 
Q 57.328125 12.15625 50.6875 5.359375 
Q 44.046875 -1.421875 33.015625 -1.421875 
Q 20.359375 -1.421875 13.671875 8.265625 
Q 6.984375 17.96875 6.984375 36.375 
Q 6.984375 53.65625 15.1875 63.9375 
Q 23.390625 74.21875 37.203125 74.21875 
Q 40.921875 74.21875 44.703125 73.484375 
Q 48.484375 72.75 52.59375 71.296875 
z
" id="DejaVuSans-54"/>
      </defs>
      <g transform="translate(88.678706 319.897812)scale(0.14 -0.14)">
       <use xlink:href="#DejaVuSans-8722"/>
       <use x="83.789062" xlink:href="#DejaVuSans-54"/>
      </g>
     </g>
    </g>
    <g id="xtick_2">
     <g id="line2d_2">
      <g>
       <use style="stroke:#000000;stroke-width:1.5;" x="144.334825" xlink:href="#m6034e0d720" y="293.76"/>
      </g>
     </g>
     <g id="text_2">
      <!-- −4 -->
      <defs>
       <path d="M 37.796875 64.3125 
L 12.890625 25.390625 
L 37.796875 25.390625 
z
M 35.203125 72.90625 
L 47.609375 72.90625 
L 47.609375 25.390625 
L 58.015625 25.390625 
L 58.015625 17.1875 
L 47.609375 17.1875 
L 47.609375 0 
L 37.796875 0 
L 37.796875 17.1875 
L 4.890625 17.1875 
L 4.890625 26.703125 
z
" id="DejaVuSans-52"/>
      </defs>
      <g transform="translate(134.015293 319.897812)scale(0.14 -0.14)">
       <use xlink:href="#DejaVuSans-8722"/>
       <use x="83.789062" xlink:href="#DejaVuSans-52"/>
      </g>
     </g>
    </g>
    <g id="xtick_3">
     <g id="line2d_3">
      <g>
       <use style="stroke:#000000;stroke-width:1.5;" x="189.671412" xlink:href="#m6034e0d720" y="293.76"/>
      </g>
     </g>
     <g id="text_3">
      <!-- −2 -->
      <defs>
       <path d="M 19.1875 8.296875 
L 53.609375 8.296875 
L 53.609375 0 
L 7.328125 0 
L 7.328125 8.296875 
Q 12.9375 14.109375 22.625 23.890625 
Q 32.328125 33.6875 34.8125 36.53125 
Q 39.546875 41.84375 41.421875 45.53125 
Q 43.3125 49.21875 43.3125 52.78125 
Q 43.3125 58.59375 39.234375 62.25 
Q 35.15625 65.921875 28.609375 65.921875 
Q 23.96875 65.921875 18.8125 64.3125 
Q 13.671875 62.703125 7.8125 59.421875 
L 7.8125 69.390625 
Q 13.765625 71.78125 18.9375 73 
Q 24.125 74.21875 28.421875 74.21875 
Q 39.75 74.21875 46.484375 68.546875 
Q 53.21875 62.890625 53.21875 53.421875 
Q 53.21875 48.921875 51.53125 44.890625 
Q 49.859375 40.875 45.40625 35.40625 
Q 44.1875 33.984375 37.640625 27.21875 
Q 31.109375 20.453125 19.1875 8.296875 
z
" id="DejaVuSans-50"/>
      </defs>
      <g transform="translate(179.351881 319.897812)scale(0.14 -0.14)">
       <use xlink:href="#DejaVuSans-8722"/>
       <use x="83.789062" xlink:href="#DejaVuSans-50"/>
      </g>
     </g>
    </g>
    <g id="xtick_4">
     <g id="line2d_4">
      <g>
       <use style="stroke:#000000;stroke-width:1.5;" x="235.008" xlink:href="#m6034e0d720" y="293.76"/>
      </g>
     </g>
     <g id="text_4">
      <!-- 0 -->
      <defs>
       <path d="M 31.78125 66.40625 
Q 24.171875 66.40625 20.328125 58.90625 
Q 16.5 51.421875 16.5 36.375 
Q 16.5 21.390625 20.328125 13.890625 
Q 24.171875 6.390625 31.78125 6.390625 
Q 39.453125 6.390625 43.28125 13.890625 
Q 47.125 21.390625 47.125 36.375 
Q 47.125 51.421875 43.28125 58.90625 
Q 39.453125 66.40625 31.78125 66.40625 
z
M 31.78125 74.21875 
Q 44.046875 74.21875 50.515625 64.515625 
Q 56.984375 54.828125 56.984375 36.375 
Q 56.984375 17.96875 50.515625 8.265625 
Q 44.046875 -1.421875 31.78125 -1.421875 
Q 19.53125 -1.421875 13.0625 8.265625 
Q 6.59375 17.96875 6.59375 36.375 
Q 6.59375 54.828125 13.0625 64.515625 
Q 19.53125 74.21875 31.78125 74.21875 
z
" id="DejaVuSans-48"/>
      </defs>
      <g transform="translate(230.55425 319.897812)scale(0.14 -0.14)">
       <use xlink:href="#DejaVuSans-48"/>
      </g>
     </g>
    </g>
    <g id="xtick_5">
     <g id="line2d_5">
      <g>
       <use style="stroke:#000000;stroke-width:1.5;" x="280.344588" xlink:href="#m6034e0d720" y="293.76"/>
      </g>
     </g>
     <g id="text_5">
      <!-- 2 -->
      <g transform="translate(275.890838 319.897812)scale(0.14 -0.14)">
       <use xlink:href="#DejaVuSans-50"/>
      </g>
     </g>
    </g>
    <g id="xtick_6">
     <g id="line2d_6">
      <g>
       <use style="stroke:#000000;stroke-width:1.5;" x="325.681175" xlink:href="#m6034e0d720" y="293.76"/>
      </g>
     </g>
     <g id="text_6">
      <!-- 4 -->
      <g transform="translate(321.227425 319.897812)scale(0.14 -0.14)">
       <use xlink:href="#DejaVuSans-52"/>
      </g>
     </g>
    </g>
    <g id="xtick_7">
     <g id="line2d_7">
      <g>
       <use style="stroke:#000000;stroke-width:1.5;" x="371.017763" xlink:href="#m6034e0d720" y="293.76"/>
      </g>
     </g>
     <g id="text_7">
      <!-- 6 -->
      <g transform="translate(366.564013 319.897812)scale(0.14 -0.14)">
       <use xlink:href="#DejaVuSans-54"/>
      </g>
     </g>
    </g>
    <g id="text_8">
     <!-- radian -->
     <defs>
      <path d="M 41.109375 46.296875 
Q 39.59375 47.171875 37.8125 47.578125 
Q 36.03125 48 33.890625 48 
Q 26.265625 48 22.1875 43.046875 
Q 18.109375 38.09375 18.109375 28.8125 
L 18.109375 0 
L 9.078125 0 
L 9.078125 54.6875 
L 18.109375 54.6875 
L 18.109375 46.1875 
Q 20.953125 51.171875 25.484375 53.578125 
Q 30.03125 56 36.53125 56 
Q 37.453125 56 38.578125 55.875 
Q 39.703125 55.765625 41.0625 55.515625 
z
" id="DejaVuSans-114"/>
      <path d="M 34.28125 27.484375 
Q 23.390625 27.484375 19.1875 25 
Q 14.984375 22.515625 14.984375 16.5 
Q 14.984375 11.71875 18.140625 8.90625 
Q 21.296875 6.109375 26.703125 6.109375 
Q 34.1875 6.109375 38.703125 11.40625 
Q 43.21875 16.703125 43.21875 25.484375 
L 43.21875 27.484375 
z
M 52.203125 31.203125 
L 52.203125 0 
L 43.21875 0 
L 43.21875 8.296875 
Q 40.140625 3.328125 35.546875 0.953125 
Q 30.953125 -1.421875 24.3125 -1.421875 
Q 15.921875 -1.421875 10.953125 3.296875 
Q 6 8.015625 6 15.921875 
Q 6 25.140625 12.171875 29.828125 
Q 18.359375 34.515625 30.609375 34.515625 
L 43.21875 34.515625 
L 43.21875 35.40625 
Q 43.21875 41.609375 39.140625 45 
Q 35.0625 48.390625 27.6875 48.390625 
Q 23 48.390625 18.546875 47.265625 
Q 14.109375 46.140625 10.015625 43.890625 
L 10.015625 52.203125 
Q 14.9375 54.109375 19.578125 55.046875 
Q 24.21875 56 28.609375 56 
Q 40.484375 56 46.34375 49.84375 
Q 52.203125 43.703125 52.203125 31.203125 
z
" id="DejaVuSans-97"/>
      <path d="M 45.40625 46.390625 
L 45.40625 75.984375 
L 54.390625 75.984375 
L 54.390625 0 
L 45.40625 0 
L 45.40625 8.203125 
Q 42.578125 3.328125 38.25 0.953125 
Q 33.9375 -1.421875 27.875 -1.421875 
Q 17.96875 -1.421875 11.734375 6.484375 
Q 5.515625 14.40625 5.515625 27.296875 
Q 5.515625 40.1875 11.734375 48.09375 
Q 17.96875 56 27.875 56 
Q 33.9375 56 38.25 53.625 
Q 42.578125 51.265625 45.40625 46.390625 
z
M 14.796875 27.296875 
Q 14.796875 17.390625 18.875 11.75 
Q 22.953125 6.109375 30.078125 6.109375 
Q 37.203125 6.109375 41.296875 11.75 
Q 45.40625 17.390625 45.40625 27.296875 
Q 45.40625 37.203125 41.296875 42.84375 
Q 37.203125 48.484375 30.078125 48.484375 
Q 22.953125 48.484375 18.875 42.84375 
Q 14.796875 37.203125 14.796875 27.296875 
z
" id="DejaVuSans-100"/>
      <path d="M 9.421875 54.6875 
L 18.40625 54.6875 
L 18.40625 0 
L 9.421875 0 
z
M 9.421875 75.984375 
L 18.40625 75.984375 
L 18.40625 64.59375 
L 9.421875 64.59375 
z
" id="DejaVuSans-105"/>
      <path d="M 54.890625 33.015625 
L 54.890625 0 
L 45.90625 0 
L 45.90625 32.71875 
Q 45.90625 40.484375 42.875 44.328125 
Q 39.84375 48.1875 33.796875 48.1875 
Q 26.515625 48.1875 22.3125 43.546875 
Q 18.109375 38.921875 18.109375 30.90625 
L 18.109375 0 
L 9.078125 0 
L 9.078125 54.6875 
L 18.109375 54.6875 
L 18.109375 46.1875 
Q 21.34375 51.125 25.703125 53.5625 
Q 30.078125 56 35.796875 56 
Q 45.21875 56 50.046875 50.171875 
Q 54.890625 44.34375 54.890625 33.015625 
z
" id="DejaVuSans-110"/>
     </defs>
     <g transform="translate(212.726125 337.447187)scale(0.14 -0.14)">
      <use xlink:href="#DejaVuSans-114"/>
      <use x="41.113281" xlink:href="#DejaVuSans-97"/>
      <use x="102.392578" xlink:href="#DejaVuSans-100"/>
      <use x="165.869141" xlink:href="#DejaVuSans-105"/>
      <use x="193.652344" xlink:href="#DejaVuSans-97"/>
      <use x="254.931641" xlink:href="#DejaVuSans-110"/>
     </g>
    </g>
   </g>
   <g id="matplotlib.axis_2">
    <g id="ytick_1">
     <g id="line2d_8">
      <defs>
       <path d="M 0 0 
L -12 0 
" id="ma616cce0c5" style="stroke:#000000;stroke-width:1.5;"/>
      </defs>
      <g>
       <use style="stroke:#000000;stroke-width:1.5;" x="78.336" xlink:href="#ma616cce0c5" y="293.76"/>
      </g>
     </g>
     <g id="text_9">
      <!-- −10.0 -->
      <defs>
       <path d="M 12.40625 8.296875 
L 28.515625 8.296875 
L 28.515625 63.921875 
L 10.984375 60.40625 
L 10.984375 69.390625 
L 28.421875 72.90625 
L 38.28125 72.90625 
L 38.28125 8.296875 
L 54.390625 8.296875 
L 54.390625 0 
L 12.40625 0 
z
" id="DejaVuSans-49"/>
       <path d="M 10.6875 12.40625 
L 21 12.40625 
L 21 0 
L 10.6875 0 
z
" id="DejaVuSans-46"/>
      </defs>
      <g transform="translate(19.932563 299.078906)scale(0.14 -0.14)">
       <use xlink:href="#DejaVuSans-8722"/>
       <use x="83.789062" xlink:href="#DejaVuSans-49"/>
       <use x="147.412109" xlink:href="#DejaVuSans-48"/>
       <use x="211.035156" xlink:href="#DejaVuSans-46"/>
       <use x="242.822266" xlink:href="#DejaVuSans-48"/>
      </g>
     </g>
    </g>
    <g id="ytick_2">
     <g id="line2d_9">
      <g>
       <use style="stroke:#000000;stroke-width:1.5;" x="78.336" xlink:href="#ma616cce0c5" y="262.224"/>
      </g>
     </g>
     <g id="text_10">
      <!-- −7.5 -->
      <defs>
       <path d="M 8.203125 72.90625 
L 55.078125 72.90625 
L 55.078125 68.703125 
L 28.609375 0 
L 18.3125 0 
L 43.21875 64.59375 
L 8.203125 64.59375 
z
" id="DejaVuSans-55"/>
       <path d="M 10.796875 72.90625 
L 49.515625 72.90625 
L 49.515625 64.59375 
L 19.828125 64.59375 
L 19.828125 46.734375 
Q 21.96875 47.46875 24.109375 47.828125 
Q 26.265625 48.1875 28.421875 48.1875 
Q 40.625 48.1875 47.75 41.5 
Q 54.890625 34.8125 54.890625 23.390625 
Q 54.890625 11.625 47.5625 5.09375 
Q 40.234375 -1.421875 26.90625 -1.421875 
Q 22.3125 -1.421875 17.546875 -0.640625 
Q 12.796875 0.140625 7.71875 1.703125 
L 7.71875 11.625 
Q 12.109375 9.234375 16.796875 8.0625 
Q 21.484375 6.890625 26.703125 6.890625 
Q 35.15625 6.890625 40.078125 11.328125 
Q 45.015625 15.765625 45.015625 23.390625 
Q 45.015625 31 40.078125 35.4375 
Q 35.15625 39.890625 26.703125 39.890625 
Q 22.75 39.890625 18.8125 39.015625 
Q 14.890625 38.140625 10.796875 36.28125 
z
" id="DejaVuSans-53"/>
      </defs>
      <g transform="translate(28.840063 267.542906)scale(0.14 -0.14)">
       <use xlink:href="#DejaVuSans-8722"/>
       <use x="83.789062" xlink:href="#DejaVuSans-55"/>
       <use x="147.412109" xlink:href="#DejaVuSans-46"/>
       <use x="179.199219" xlink:href="#DejaVuSans-53"/>
      </g>
     </g>
    </g>
    <g id="ytick_3">
     <g id="line2d_10">
      <g>
       <use style="stroke:#000000;stroke-width:1.5;" x="78.336" xlink:href="#ma616cce0c5" y="230.688"/>
      </g>
     </g>
     <g id="text_11">
      <!-- −5.0 -->
      <g transform="translate(28.840063 236.006906)scale(0.14 -0.14)">
       <use xlink:href="#DejaVuSans-8722"/>
       <use x="83.789062" xlink:href="#DejaVuSans-53"/>
       <use x="147.412109" xlink:href="#DejaVuSans-46"/>
       <use x="179.199219" xlink:href="#DejaVuSans-48"/>
      </g>
     </g>
    </g>
    <g id="ytick_4">
     <g id="line2d_11">
      <g>
       <use style="stroke:#000000;stroke-width:1.5;" x="78.336" xlink:href="#ma616cce0c5" y="199.152"/>
      </g>
     </g>
     <g id="text_12">
      <!-- −2.5 -->
      <g transform="translate(28.840063 204.470906)scale(0.14 -0.14)">
       <use xlink:href="#DejaVuSans-8722"/>
       <use x="83.789062" xlink:href="#DejaVuSans-50"/>
       <use x="147.412109" xlink:href="#DejaVuSans-46"/>
       <use x="179.199219" xlink:href="#DejaVuSans-53"/>
      </g>
     </g>
    </g>
    <g id="ytick_5">
     <g id="line2d_12">
      <g>
       <use style="stroke:#000000;stroke-width:1.5;" x="78.336" xlink:href="#ma616cce0c5" y="167.616"/>
      </g>
     </g>
     <g id="text_13">
      <!-- 0.0 -->
      <g transform="translate(40.571625 172.934906)scale(0.14 -0.14)">
       <use xlink:href="#DejaVuSans-48"/>
       <use x="63.623047" xlink:href="#DejaVuSans-46"/>
       <use x="95.410156" xlink:href="#DejaVuSans-48"/>
      </g>
     </g>
    </g>
    <g id="ytick_6">
     <g id="line2d_13">
      <g>
       <use style="stroke:#000000;stroke-width:1.5;" x="78.336" xlink:href="#ma616cce0c5" y="136.08"/>
      </g>
     </g>
     <g id="text_14">
      <!-- 2.5 -->
      <g transform="translate(40.571625 141.398906)scale(0.14 -0.14)">
       <use xlink:href="#DejaVuSans-50"/>
       <use x="63.623047" xlink:href="#DejaVuSans-46"/>
       <use x="95.410156" xlink:href="#DejaVuSans-53"/>
      </g>
     </g>
    </g>
    <g id="ytick_7">
     <g id="line2d_14">
      <g>
       <use style="stroke:#000000;stroke-width:1.5;" x="78.336" xlink:href="#ma616cce0c5" y="104.544"/>
      </g>
     </g>
     <g id="text_15">
      <!-- 5.0 -->
      <g transform="translate(40.571625 109.862906)scale(0.14 -0.14)">
       <use xlink:href="#DejaVuSans-53"/>
       <use x="63.623047" xlink:href="#DejaVuSans-46"/>
       <use x="95.410156" xlink:href="#DejaVuSans-48"/>
      </g>
     </g>
    </g>
    <g id="ytick_8">
     <g id="line2d_15">
      <g>
       <use style="stroke:#000000;stroke-width:1.5;" x="78.336" xlink:href="#ma616cce0c5" y="73.008"/>
      </g>
     </g>
     <g id="text_16">
      <!-- 7.5 -->
      <g transform="translate(40.571625 78.326906)scale(0.14 -0.14)">
       <use xlink:href="#DejaVuSans-55"/>
       <use x="63.623047" xlink:href="#DejaVuSans-46"/>
       <use x="95.410156" xlink:href="#DejaVuSans-53"/>
      </g>
     </g>
    </g>
    <g id="ytick_9">
     <g id="line2d_16">
      <g>
       <use style="stroke:#000000;stroke-width:1.5;" x="78.336" xlink:href="#ma616cce0c5" y="41.472"/>
      </g>
     </g>
     <g id="text_17">
      <!-- 10.0 -->
      <g transform="translate(31.664125 46.790906)scale(0.14 -0.14)">
       <use xlink:href="#DejaVuSans-49"/>
       <use x="63.623047" xlink:href="#DejaVuSans-48"/>
       <use x="127.246094" xlink:href="#DejaVuSans-46"/>
       <use x="159.033203" xlink:href="#DejaVuSans-48"/>
      </g>
     </g>
    </g>
   </g>
   <g id="line2d_17">
    <path clip-path="url(#p381ce10277)" d="M 92.578909 167.616 
L 99.502545 163.638695 
L 103.063273 161.326692 
L 105.832727 159.266711 
L 108.206545 157.217491 
L 110.184727 155.219864 
L 111.965091 153.104793 
L 113.547636 150.876126 
L 114.932364 148.557721 
L 116.317091 145.767218 
L 117.504 142.858846 
L 118.690909 139.283594 
L 119.68 135.59248 
L 120.669091 130.981122 
L 121.460364 126.356157 
L 122.251636 120.538418 
L 123.042909 112.977031 
L 123.834182 102.720538 
L 124.427636 92.235318 
L 125.021091 77.85988 
L 125.614545 56.900832 
L 126.010182 36.610447 
L 126.487794 -1 
M 127.988364 -1 
L 127.988364 346.6 
M 129.782598 346.6 
L 130.362182 298.621553 
L 130.955636 270.352044 
L 131.549091 252.020921 
L 132.142545 239.155817 
L 132.933818 226.962086 
L 133.725091 218.209595 
L 134.516364 211.607641 
L 135.505455 205.316468 
L 136.494545 200.477635 
L 137.483636 196.627134 
L 138.670545 192.916572 
L 139.857455 189.911877 
L 141.242182 187.040473 
L 142.626909 184.663383 
L 144.209455 182.385565 
L 145.989818 180.2304 
L 147.968 178.200738 
L 150.144 176.285637 
L 152.715636 174.323195 
L 155.880727 172.207266 
L 160.034909 169.726927 
L 172.893091 162.261505 
L 175.860364 160.185551 
L 178.432 158.110368 
L 180.608 156.057032 
L 182.388364 154.088712 
L 183.970909 152.038513 
L 185.553455 149.60077 
L 186.938182 147.03117 
L 188.125091 144.383165 
L 189.312 141.16936 
L 190.301091 137.898336 
L 191.290182 133.877255 
L 192.279273 128.792869 
L 193.070545 123.624359 
L 193.861818 117.022405 
L 194.653091 108.269914 
L 195.246545 99.554788 
L 195.84 87.971813 
L 196.433455 71.800119 
L 197.026909 47.598001 
L 197.422545 23.432748 
L 197.702339 -1 
M 199.202909 -1 
L 199.202909 346.6 
M 200.997144 346.6 
L 201.576727 298.621553 
L 202.170182 270.352044 
L 202.763636 252.020921 
L 203.357091 239.155817 
L 204.148364 226.962086 
L 204.939636 218.209595 
L 205.730909 211.607641 
L 206.72 205.316468 
L 207.709091 200.477635 
L 208.698182 196.627134 
L 209.885091 192.916572 
L 211.072 189.911877 
L 212.456727 187.040473 
L 213.841455 184.663383 
L 215.424 182.385565 
L 217.204364 180.2304 
L 219.182545 178.200738 
L 221.358545 176.285637 
L 223.930182 174.323195 
L 227.095273 172.207266 
L 231.249455 169.726927 
L 244.107636 162.261505 
L 247.074909 160.185551 
L 249.646545 158.110368 
L 251.822545 156.057032 
L 253.602909 154.088712 
L 255.185455 152.038513 
L 256.768 149.60077 
L 258.152727 147.03117 
L 259.339636 144.383165 
L 260.526545 141.16936 
L 261.515636 137.898336 
L 262.504727 133.877255 
L 263.493818 128.792869 
L 264.285091 123.624359 
L 265.076364 117.022405 
L 265.867636 108.269914 
L 266.461091 99.554788 
L 267.054545 87.971813 
L 267.648 71.800119 
L 268.241455 47.598001 
L 268.637091 23.432748 
L 268.916884 -1 
M 270.813091 -1 
L 270.813091 346.6 
M 272.211689 346.6 
L 272.791273 298.621553 
L 273.384727 270.352044 
L 273.978182 252.020921 
L 274.571636 239.155817 
L 275.362909 226.962086 
L 276.154182 218.209595 
L 276.945455 211.607641 
L 277.934545 205.316468 
L 278.923636 200.477635 
L 279.912727 196.627134 
L 281.099636 192.916572 
L 282.286545 189.911877 
L 283.671273 187.040473 
L 285.056 184.663383 
L 286.638545 182.385565 
L 288.418909 180.2304 
L 290.397091 178.200738 
L 292.573091 176.285637 
L 295.144727 174.323195 
L 298.309818 172.207266 
L 302.464 169.726927 
L 315.322182 162.261505 
L 318.289455 160.185551 
L 320.861091 158.110368 
L 323.037091 156.057032 
L 324.817455 154.088712 
L 326.4 152.038513 
L 327.982545 149.60077 
L 329.367273 147.03117 
L 330.554182 144.383165 
L 331.741091 141.16936 
L 332.730182 137.898336 
L 333.719273 133.877255 
L 334.708364 128.792869 
L 335.499636 123.624359 
L 336.290909 117.022405 
L 337.082182 108.269914 
L 337.675636 99.554788 
L 338.269091 87.971813 
L 338.862545 71.800119 
L 339.456 47.598001 
L 339.851636 23.432748 
L 340.13143 -1 
M 342.027636 -1 
L 342.027636 346.6 
M 343.426235 346.6 
L 344.005818 298.621553 
L 344.599273 270.352044 
L 345.192727 252.020921 
L 345.786182 239.155817 
L 346.577455 226.962086 
L 347.368727 218.209595 
L 348.16 211.607641 
L 349.149091 205.316468 
L 350.138182 200.477635 
L 351.127273 196.627134 
L 352.314182 192.916572 
L 353.501091 189.911877 
L 354.885818 187.040473 
L 356.270545 184.663383 
L 357.853091 182.385565 
L 359.633455 180.2304 
L 361.611636 178.200738 
L 363.787636 176.285637 
L 366.359273 174.323195 
L 369.524364 172.207266 
L 373.678545 169.726927 
L 377.437091 167.616 
L 377.437091 167.616 
" style="fill:none;stroke:#1f77b4;stroke-linecap:square;stroke-width:1.5;"/>
   </g>
   <g id="line2d_18">
    <path clip-path="url(#p381ce10277)" d="M 94.277297 -1 
L 94.754909 36.610447 
L 95.348364 64.879956 
L 95.941818 83.211079 
L 96.535273 96.076183 
L 97.326545 108.269914 
L 98.117818 117.022405 
L 98.909091 123.624359 
L 99.898182 129.915532 
L 100.887273 134.754365 
L 101.876364 138.604866 
L 103.063273 142.315428 
L 104.250182 145.320123 
L 105.634909 148.191527 
L 107.019636 150.568617 
L 108.602182 152.846435 
L 110.382545 155.0016 
L 112.360727 157.031262 
L 114.536727 158.946363 
L 117.108364 160.908805 
L 120.273455 163.024734 
L 124.427636 165.505073 
L 137.285818 172.970495 
L 140.253091 175.046449 
L 142.824727 177.121632 
L 145.000727 179.174968 
L 146.781091 181.143288 
L 148.363636 183.193487 
L 149.946182 185.63123 
L 151.330909 188.20083 
L 152.517818 190.848835 
L 153.704727 194.06264 
L 154.693818 197.333664 
L 155.682909 201.354745 
L 156.672 206.439131 
L 157.463273 211.607641 
L 158.254545 218.209595 
L 159.045818 226.962086 
L 159.639273 235.677212 
L 160.232727 247.260187 
L 160.826182 263.431881 
L 161.419636 287.633999 
L 161.815273 311.799252 
L 162.197038 346.6 
M 163.595636 346.6 
L 163.595636 -1 
M 165.491843 -1 
L 165.969455 36.610447 
L 166.562909 64.879956 
L 167.156364 83.211079 
L 167.749818 96.076183 
L 168.541091 108.269914 
L 169.332364 117.022405 
L 170.123636 123.624359 
L 171.112727 129.915532 
L 172.101818 134.754365 
L 173.090909 138.604866 
L 174.277818 142.315428 
L 175.464727 145.320123 
L 176.849455 148.191527 
L 178.234182 150.568617 
L 179.816727 152.846435 
L 181.597091 155.0016 
L 183.575273 157.031262 
L 185.751273 158.946363 
L 188.322909 160.908805 
L 191.488 163.024734 
L 195.642182 165.505073 
L 208.500364 172.970495 
L 211.467636 175.046449 
L 214.039273 177.121632 
L 216.215273 179.174968 
L 217.995636 181.143288 
L 219.578182 183.193487 
L 221.160727 185.63123 
L 222.545455 188.20083 
L 223.732364 190.848835 
L 224.919273 194.06264 
L 225.908364 197.333664 
L 226.897455 201.354745 
L 227.886545 206.439131 
L 228.677818 211.607641 
L 229.469091 218.209595 
L 230.260364 226.962086 
L 230.853818 235.677212 
L 231.447273 247.260187 
L 232.040727 263.431881 
L 232.634182 287.633999 
L 233.029818 311.799252 
L 233.411584 346.6 
M 236.706388 -1 
L 237.184 36.610447 
L 237.777455 64.879956 
L 238.370909 83.211079 
L 238.964364 96.076183 
L 239.755636 108.269914 
L 240.546909 117.022405 
L 241.338182 123.624359 
L 242.327273 129.915532 
L 243.316364 134.754365 
L 244.305455 138.604866 
L 245.492364 142.315428 
L 246.679273 145.320123 
L 248.064 148.191527 
L 249.448727 150.568617 
L 251.031273 152.846435 
L 252.811636 155.0016 
L 254.789818 157.031262 
L 256.965818 158.946363 
L 259.537455 160.908805 
L 262.702545 163.024734 
L 266.856727 165.505073 
L 279.714909 172.970495 
L 282.682182 175.046449 
L 285.253818 177.121632 
L 287.429818 179.174968 
L 289.210182 181.143288 
L 290.792727 183.193487 
L 292.375273 185.63123 
L 293.76 188.20083 
L 294.946909 190.848835 
L 296.133818 194.06264 
L 297.122909 197.333664 
L 298.112 201.354745 
L 299.101091 206.439131 
L 299.892364 211.607641 
L 300.683636 218.209595 
L 301.474909 226.962086 
L 302.068364 235.677212 
L 302.661818 247.260187 
L 303.255273 263.431881 
L 303.848727 287.633999 
L 304.244364 311.799252 
L 304.626129 346.6 
M 306.420364 346.6 
L 306.420364 -1 
M 307.920934 -1 
L 308.398545 36.610447 
L 308.992 64.879956 
L 309.585455 83.211079 
L 310.178909 96.076183 
L 310.970182 108.269914 
L 311.761455 117.022405 
L 312.552727 123.624359 
L 313.541818 129.915532 
L 314.530909 134.754365 
L 315.52 138.604866 
L 316.706909 142.315428 
L 317.893818 145.320123 
L 319.278545 148.191527 
L 320.663273 150.568617 
L 322.245818 152.846435 
L 324.026182 155.0016 
L 326.004364 157.031262 
L 328.180364 158.946363 
L 330.752 160.908805 
L 333.917091 163.024734 
L 338.071273 165.505073 
L 350.929455 172.970495 
L 353.896727 175.046449 
L 356.468364 177.121632 
L 358.644364 179.174968 
L 360.424727 181.143288 
L 362.007273 183.193487 
L 363.589818 185.63123 
L 364.974545 188.20083 
L 366.161455 190.848835 
L 367.348364 194.06264 
L 368.337455 197.333664 
L 369.326545 201.354745 
L 370.315636 206.439131 
L 371.106909 211.607641 
L 371.898182 218.209595 
L 372.689455 226.962086 
L 373.282909 235.677212 
L 373.876364 247.260187 
L 374.469818 263.431881 
L 375.063273 287.633999 
L 375.458909 311.799252 
L 375.840675 346.6 
L 375.840675 346.6 
" style="fill:none;stroke:#ff7f0e;stroke-linecap:square;stroke-width:1.5;"/>
   </g>
   <g id="patch_3">
    <path d="M 78.336 293.76 
L 78.336 41.472 
" style="fill:none;stroke:#000000;stroke-linecap:square;stroke-linejoin:miter;stroke-width:1.5;"/>
   </g>
   <g id="patch_4">
    <path d="M 391.68 293.76 
L 391.68 41.472 
" style="fill:none;stroke:#000000;stroke-linecap:square;stroke-linejoin:miter;stroke-width:1.5;"/>
   </g>
   <g id="patch_5">
    <path d="M 78.336 293.76 
L 391.68 293.76 
" style="fill:none;stroke:#000000;stroke-linecap:square;stroke-linejoin:miter;stroke-width:1.5;"/>
   </g>
   <g id="patch_6">
    <path d="M 78.336 41.472 
L 391.68 41.472 
" style="fill:none;stroke:#000000;stroke-linecap:square;stroke-linejoin:miter;stroke-width:1.5;"/>
   </g>
   <g id="legend_1">
    <g id="patch_7">
     <path d="M 314.139687 93.77075 
L 381.88 93.77075 
Q 384.68 93.77075 384.68 90.97075 
L 384.68 51.272 
Q 384.68 48.472 381.88 48.472 
L 314.139687 48.472 
Q 311.339687 48.472 311.339687 51.272 
L 311.339687 90.97075 
Q 311.339687 93.77075 314.139687 93.77075 
z
" style="fill:none;opacity:0;"/>
    </g>
    <g id="line2d_19">
     <path d="M 316.939687 59.809812 
L 344.939687 59.809812 
" style="fill:none;stroke:#1f77b4;stroke-linecap:square;stroke-width:1.5;"/>
    </g>
    <g id="line2d_20"/>
    <g id="text_18">
     <!-- tan -->
     <defs>
      <path d="M 18.3125 70.21875 
L 18.3125 54.6875 
L 36.8125 54.6875 
L 36.8125 47.703125 
L 18.3125 47.703125 
L 18.3125 18.015625 
Q 18.3125 11.328125 20.140625 9.421875 
Q 21.96875 7.515625 27.59375 7.515625 
L 36.8125 7.515625 
L 36.8125 0 
L 27.59375 0 
Q 17.1875 0 13.234375 3.875 
Q 9.28125 7.765625 9.28125 18.015625 
L 9.28125 47.703125 
L 2.6875 47.703125 
L 2.6875 54.6875 
L 9.28125 54.6875 
L 9.28125 70.21875 
z
" id="DejaVuSans-116"/>
     </defs>
     <g transform="translate(356.139687 64.709812)scale(0.14 -0.14)">
      <use xlink:href="#DejaVuSans-116"/>
      <use x="39.208984" xlink:href="#DejaVuSans-97"/>
      <use x="100.488281" xlink:href="#DejaVuSans-110"/>
     </g>
    </g>
    <g id="line2d_21">
     <path d="M 316.939687 80.359187 
L 344.939687 80.359187 
" style="fill:none;stroke:#ff7f0e;stroke-linecap:square;stroke-width:1.5;"/>
    </g>
    <g id="line2d_22"/>
    <g id="text_19">
     <!-- cot -->
     <defs>
      <path d="M 48.78125 52.59375 
L 48.78125 44.1875 
Q 44.96875 46.296875 41.140625 47.34375 
Q 37.3125 48.390625 33.40625 48.390625 
Q 24.65625 48.390625 19.8125 42.84375 
Q 14.984375 37.3125 14.984375 27.296875 
Q 14.984375 17.28125 19.8125 11.734375 
Q 24.65625 6.203125 33.40625 6.203125 
Q 37.3125 6.203125 41.140625 7.25 
Q 44.96875 8.296875 48.78125 10.40625 
L 48.78125 2.09375 
Q 45.015625 0.34375 40.984375 -0.53125 
Q 36.96875 -1.421875 32.421875 -1.421875 
Q 20.0625 -1.421875 12.78125 6.34375 
Q 5.515625 14.109375 5.515625 27.296875 
Q 5.515625 40.671875 12.859375 48.328125 
Q 20.21875 56 33.015625 56 
Q 37.15625 56 41.109375 55.140625 
Q 45.0625 54.296875 48.78125 52.59375 
z
" id="DejaVuSans-99"/>
      <path d="M 30.609375 48.390625 
Q 23.390625 48.390625 19.1875 42.75 
Q 14.984375 37.109375 14.984375 27.296875 
Q 14.984375 17.484375 19.15625 11.84375 
Q 23.34375 6.203125 30.609375 6.203125 
Q 37.796875 6.203125 41.984375 11.859375 
Q 46.1875 17.53125 46.1875 27.296875 
Q 46.1875 37.015625 41.984375 42.703125 
Q 37.796875 48.390625 30.609375 48.390625 
z
M 30.609375 56 
Q 42.328125 56 49.015625 48.375 
Q 55.71875 40.765625 55.71875 27.296875 
Q 55.71875 13.875 49.015625 6.21875 
Q 42.328125 -1.421875 30.609375 -1.421875 
Q 18.84375 -1.421875 12.171875 6.21875 
Q 5.515625 13.875 5.515625 27.296875 
Q 5.515625 40.765625 12.171875 48.375 
Q 18.84375 56 30.609375 56 
z
" id="DejaVuSans-111"/>
     </defs>
     <g transform="translate(356.139687 85.259187)scale(0.14 -0.14)">
      <use xlink:href="#DejaVuSans-99"/>
      <use x="54.980469" xlink:href="#DejaVuSans-111"/>
      <use x="116.162109" xlink:href="#DejaVuSans-116"/>
     </g>
    </g>
   </g>
  </g>
 </g>
 <defs>
  <clipPath id="p381ce10277">
   <rect height="252.288" width="313.344" x="78.336" y="41.472"/>
  </clipPath>
 </defs>
</svg>
