<?xml version="1.0" encoding="utf-8" standalone="no"?>
<!DOCTYPE svg PUBLIC "-//W3C//DTD SVG 1.1//EN"
  "http://www.w3.org/Graphics/SVG/1.1/DTD/svg11.dtd">
<!-- Created with matplotlib (https://matplotlib.org/) -->
<svg height="345.6pt" version="1.1" viewBox="0 0 460.8 345.6" width="460.8pt" xmlns="http://www.w3.org/2000/svg" xmlns:xlink="http://www.w3.org/1999/xlink">
 <defs>
  <style type="text/css">
*{stroke-linecap:butt;stroke-linejoin:round;}
  </style>
 </defs>
 <g id="figure_1">
  <g id="patch_1">
   <path d="M 0 345.6 
L 460.8 345.6 
L 460.8 0 
L 0 0 
z
" style="fill:#ffffff;"/>
  </g>
  <g id="axes_1">
   <g id="patch_2">
    <path d="M 78.336 293.76 
L 391.68 293.76 
L 391.68 41.472 
L 78.336 41.472 
z
" style="fill:#ffffff;"/>
   </g>
   <g id="matplotlib.axis_1">
    <g id="xtick_1">
     <g id="line2d_1">
      <defs>
       <path d="M 0 0 
L 0 12 
" id="mc5dda0c2fd" style="stroke:#000000;stroke-width:1.5;"/>
      </defs>
      <g>
       <use style="stroke:#000000;stroke-width:1.5;" x="155.880727" xlink:href="#mc5dda0c2fd" y="293.76"/>
      </g>
     </g>
     <g id="text_1">
      <!-- −200 -->
      <defs>
       <path d="M 10.59375 35.5 
L 73.1875 35.5 
L 73.1875 27.203125 
L 10.59375 27.203125 
z
" id="DejaVuSans-8722"/>
       <path d="M 19.1875 8.296875 
L 53.609375 8.296875 
L 53.609375 0 
L 7.328125 0 
L 7.328125 8.296875 
Q 12.9375 14.109375 22.625 23.890625 
Q 32.328125 33.6875 34.8125 36.53125 
Q 39.546875 41.84375 41.421875 45.53125 
Q 43.3125 49.21875 43.3125 52.78125 
Q 43.3125 58.59375 39.234375 62.25 
Q 35.15625 65.921875 28.609375 65.921875 
Q 23.96875 65.921875 18.8125 64.3125 
Q 13.671875 62.703125 7.8125 59.421875 
L 7.8125 69.390625 
Q 13.765625 71.78125 18.9375 73 
Q 24.125 74.21875 28.421875 74.21875 
Q 39.75 74.21875 46.484375 68.546875 
Q 53.21875 62.890625 53.21875 53.421875 
Q 53.21875 48.921875 51.53125 44.890625 
Q 49.859375 40.875 45.40625 35.40625 
Q 44.1875 33.984375 37.640625 27.21875 
Q 31.109375 20.453125 19.1875 8.296875 
z
" id="DejaVuSans-50"/>
       <path d="M 31.78125 66.40625 
Q 24.171875 66.40625 20.328125 58.90625 
Q 16.5 51.421875 16.5 36.375 
Q 16.5 21.390625 20.328125 13.890625 
Q 24.171875 6.390625 31.78125 6.390625 
Q 39.453125 6.390625 43.28125 13.890625 
Q 47.125 21.390625 47.125 36.375 
Q 47.125 51.421875 43.28125 58.90625 
Q 39.453125 66.40625 31.78125 66.40625 
z
M 31.78125 74.21875 
Q 44.046875 74.21875 50.515625 64.515625 
Q 56.984375 54.828125 56.984375 36.375 
Q 56.984375 17.96875 50.515625 8.265625 
Q 44.046875 -1.421875 31.78125 -1.421875 
Q 19.53125 -1.421875 13.0625 8.265625 
Q 6.59375 17.96875 6.59375 36.375 
Q 6.59375 54.828125 13.0625 64.515625 
Q 19.53125 74.21875 31.78125 74.21875 
z
" id="DejaVuSans-48"/>
      </defs>
      <g transform="translate(136.653696 319.897812)scale(0.14 -0.14)">
       <use xlink:href="#DejaVuSans-8722"/>
       <use x="83.789062" xlink:href="#DejaVuSans-50"/>
       <use x="147.412109" xlink:href="#DejaVuSans-48"/>
       <use x="211.035156" xlink:href="#DejaVuSans-48"/>
      </g>
     </g>
    </g>
    <g id="xtick_2">
     <g id="line2d_2">
      <g>
       <use style="stroke:#000000;stroke-width:1.5;" x="235.008" xlink:href="#mc5dda0c2fd" y="293.76"/>
      </g>
     </g>
     <g id="text_2">
      <!-- 0 -->
      <g transform="translate(230.55425 319.897812)scale(0.14 -0.14)">
       <use xlink:href="#DejaVuSans-48"/>
      </g>
     </g>
    </g>
    <g id="xtick_3">
     <g id="line2d_3">
      <g>
       <use style="stroke:#000000;stroke-width:1.5;" x="314.135273" xlink:href="#mc5dda0c2fd" y="293.76"/>
      </g>
     </g>
     <g id="text_3">
      <!-- 200 -->
      <g transform="translate(300.774023 319.897812)scale(0.14 -0.14)">
       <use xlink:href="#DejaVuSans-50"/>
       <use x="63.623047" xlink:href="#DejaVuSans-48"/>
       <use x="127.246094" xlink:href="#DejaVuSans-48"/>
      </g>
     </g>
    </g>
    <g id="text_4">
     <!-- degree -->
     <defs>
      <path d="M 45.40625 46.390625 
L 45.40625 75.984375 
L 54.390625 75.984375 
L 54.390625 0 
L 45.40625 0 
L 45.40625 8.203125 
Q 42.578125 3.328125 38.25 0.953125 
Q 33.9375 -1.421875 27.875 -1.421875 
Q 17.96875 -1.421875 11.734375 6.484375 
Q 5.515625 14.40625 5.515625 27.296875 
Q 5.515625 40.1875 11.734375 48.09375 
Q 17.96875 56 27.875 56 
Q 33.9375 56 38.25 53.625 
Q 42.578125 51.265625 45.40625 46.390625 
z
M 14.796875 27.296875 
Q 14.796875 17.390625 18.875 11.75 
Q 22.953125 6.109375 30.078125 6.109375 
Q 37.203125 6.109375 41.296875 11.75 
Q 45.40625 17.390625 45.40625 27.296875 
Q 45.40625 37.203125 41.296875 42.84375 
Q 37.203125 48.484375 30.078125 48.484375 
Q 22.953125 48.484375 18.875 42.84375 
Q 14.796875 37.203125 14.796875 27.296875 
z
" id="DejaVuSans-100"/>
      <path d="M 56.203125 29.59375 
L 56.203125 25.203125 
L 14.890625 25.203125 
Q 15.484375 15.921875 20.484375 11.0625 
Q 25.484375 6.203125 34.421875 6.203125 
Q 39.59375 6.203125 44.453125 7.46875 
Q 49.3125 8.734375 54.109375 11.28125 
L 54.109375 2.78125 
Q 49.265625 0.734375 44.1875 -0.34375 
Q 39.109375 -1.421875 33.890625 -1.421875 
Q 20.796875 -1.421875 13.15625 6.1875 
Q 5.515625 13.8125 5.515625 26.8125 
Q 5.515625 40.234375 12.765625 48.109375 
Q 20.015625 56 32.328125 56 
Q 43.359375 56 49.78125 48.890625 
Q 56.203125 41.796875 56.203125 29.59375 
z
M 47.21875 32.234375 
Q 47.125 39.59375 43.09375 43.984375 
Q 39.0625 48.390625 32.421875 48.390625 
Q 24.90625 48.390625 20.390625 44.140625 
Q 15.875 39.890625 15.1875 32.171875 
z
" id="DejaVuSans-101"/>
      <path d="M 45.40625 27.984375 
Q 45.40625 37.75 41.375 43.109375 
Q 37.359375 48.484375 30.078125 48.484375 
Q 22.859375 48.484375 18.828125 43.109375 
Q 14.796875 37.75 14.796875 27.984375 
Q 14.796875 18.265625 18.828125 12.890625 
Q 22.859375 7.515625 30.078125 7.515625 
Q 37.359375 7.515625 41.375 12.890625 
Q 45.40625 18.265625 45.40625 27.984375 
z
M 54.390625 6.78125 
Q 54.390625 -7.171875 48.1875 -13.984375 
Q 42 -20.796875 29.203125 -20.796875 
Q 24.46875 -20.796875 20.265625 -20.09375 
Q 16.0625 -19.390625 12.109375 -17.921875 
L 12.109375 -9.1875 
Q 16.0625 -11.328125 19.921875 -12.34375 
Q 23.78125 -13.375 27.78125 -13.375 
Q 36.625 -13.375 41.015625 -8.765625 
Q 45.40625 -4.15625 45.40625 5.171875 
L 45.40625 9.625 
Q 42.625 4.78125 38.28125 2.390625 
Q 33.9375 0 27.875 0 
Q 17.828125 0 11.671875 7.65625 
Q 5.515625 15.328125 5.515625 27.984375 
Q 5.515625 40.671875 11.671875 48.328125 
Q 17.828125 56 27.875 56 
Q 33.9375 56 38.28125 53.609375 
Q 42.625 51.21875 45.40625 46.390625 
L 45.40625 54.6875 
L 54.390625 54.6875 
z
" id="DejaVuSans-103"/>
      <path d="M 41.109375 46.296875 
Q 39.59375 47.171875 37.8125 47.578125 
Q 36.03125 48 33.890625 48 
Q 26.265625 48 22.1875 43.046875 
Q 18.109375 38.09375 18.109375 28.8125 
L 18.109375 0 
L 9.078125 0 
L 9.078125 54.6875 
L 18.109375 54.6875 
L 18.109375 46.1875 
Q 20.953125 51.171875 25.484375 53.578125 
Q 30.03125 56 36.53125 56 
Q 37.453125 56 38.578125 55.875 
Q 39.703125 55.765625 41.0625 55.515625 
z
" id="DejaVuSans-114"/>
     </defs>
     <g transform="translate(210.323156 337.447187)scale(0.14 -0.14)">
      <use xlink:href="#DejaVuSans-100"/>
      <use x="63.476562" xlink:href="#DejaVuSans-101"/>
      <use x="125" xlink:href="#DejaVuSans-103"/>
      <use x="188.476562" xlink:href="#DejaVuSans-114"/>
      <use x="229.558594" xlink:href="#DejaVuSans-101"/>
      <use x="291.082031" xlink:href="#DejaVuSans-101"/>
     </g>
    </g>
   </g>
   <g id="matplotlib.axis_2">
    <g id="ytick_1">
     <g id="line2d_4">
      <defs>
       <path d="M 0 0 
L -12 0 
" id="m00eb4367ad" style="stroke:#000000;stroke-width:1.5;"/>
      </defs>
      <g>
       <use style="stroke:#000000;stroke-width:1.5;" x="78.336" xlink:href="#m00eb4367ad" y="293.76"/>
      </g>
     </g>
     <g id="text_5">
      <!-- −10.0 -->
      <defs>
       <path d="M 12.40625 8.296875 
L 28.515625 8.296875 
L 28.515625 63.921875 
L 10.984375 60.40625 
L 10.984375 69.390625 
L 28.421875 72.90625 
L 38.28125 72.90625 
L 38.28125 8.296875 
L 54.390625 8.296875 
L 54.390625 0 
L 12.40625 0 
z
" id="DejaVuSans-49"/>
       <path d="M 10.6875 12.40625 
L 21 12.40625 
L 21 0 
L 10.6875 0 
z
" id="DejaVuSans-46"/>
      </defs>
      <g transform="translate(19.932563 299.078906)scale(0.14 -0.14)">
       <use xlink:href="#DejaVuSans-8722"/>
       <use x="83.789062" xlink:href="#DejaVuSans-49"/>
       <use x="147.412109" xlink:href="#DejaVuSans-48"/>
       <use x="211.035156" xlink:href="#DejaVuSans-46"/>
       <use x="242.822266" xlink:href="#DejaVuSans-48"/>
      </g>
     </g>
    </g>
    <g id="ytick_2">
     <g id="line2d_5">
      <g>
       <use style="stroke:#000000;stroke-width:1.5;" x="78.336" xlink:href="#m00eb4367ad" y="262.224"/>
      </g>
     </g>
     <g id="text_6">
      <!-- −7.5 -->
      <defs>
       <path d="M 8.203125 72.90625 
L 55.078125 72.90625 
L 55.078125 68.703125 
L 28.609375 0 
L 18.3125 0 
L 43.21875 64.59375 
L 8.203125 64.59375 
z
" id="DejaVuSans-55"/>
       <path d="M 10.796875 72.90625 
L 49.515625 72.90625 
L 49.515625 64.59375 
L 19.828125 64.59375 
L 19.828125 46.734375 
Q 21.96875 47.46875 24.109375 47.828125 
Q 26.265625 48.1875 28.421875 48.1875 
Q 40.625 48.1875 47.75 41.5 
Q 54.890625 34.8125 54.890625 23.390625 
Q 54.890625 11.625 47.5625 5.09375 
Q 40.234375 -1.421875 26.90625 -1.421875 
Q 22.3125 -1.421875 17.546875 -0.640625 
Q 12.796875 0.140625 7.71875 1.703125 
L 7.71875 11.625 
Q 12.109375 9.234375 16.796875 8.0625 
Q 21.484375 6.890625 26.703125 6.890625 
Q 35.15625 6.890625 40.078125 11.328125 
Q 45.015625 15.765625 45.015625 23.390625 
Q 45.015625 31 40.078125 35.4375 
Q 35.15625 39.890625 26.703125 39.890625 
Q 22.75 39.890625 18.8125 39.015625 
Q 14.890625 38.140625 10.796875 36.28125 
z
" id="DejaVuSans-53"/>
      </defs>
      <g transform="translate(28.840063 267.542906)scale(0.14 -0.14)">
       <use xlink:href="#DejaVuSans-8722"/>
       <use x="83.789062" xlink:href="#DejaVuSans-55"/>
       <use x="147.412109" xlink:href="#DejaVuSans-46"/>
       <use x="179.199219" xlink:href="#DejaVuSans-53"/>
      </g>
     </g>
    </g>
    <g id="ytick_3">
     <g id="line2d_6">
      <g>
       <use style="stroke:#000000;stroke-width:1.5;" x="78.336" xlink:href="#m00eb4367ad" y="230.688"/>
      </g>
     </g>
     <g id="text_7">
      <!-- −5.0 -->
      <g transform="translate(28.840063 236.006906)scale(0.14 -0.14)">
       <use xlink:href="#DejaVuSans-8722"/>
       <use x="83.789062" xlink:href="#DejaVuSans-53"/>
       <use x="147.412109" xlink:href="#DejaVuSans-46"/>
       <use x="179.199219" xlink:href="#DejaVuSans-48"/>
      </g>
     </g>
    </g>
    <g id="ytick_4">
     <g id="line2d_7">
      <g>
       <use style="stroke:#000000;stroke-width:1.5;" x="78.336" xlink:href="#m00eb4367ad" y="199.152"/>
      </g>
     </g>
     <g id="text_8">
      <!-- −2.5 -->
      <g transform="translate(28.840063 204.470906)scale(0.14 -0.14)">
       <use xlink:href="#DejaVuSans-8722"/>
       <use x="83.789062" xlink:href="#DejaVuSans-50"/>
       <use x="147.412109" xlink:href="#DejaVuSans-46"/>
       <use x="179.199219" xlink:href="#DejaVuSans-53"/>
      </g>
     </g>
    </g>
    <g id="ytick_5">
     <g id="line2d_8">
      <g>
       <use style="stroke:#000000;stroke-width:1.5;" x="78.336" xlink:href="#m00eb4367ad" y="167.616"/>
      </g>
     </g>
     <g id="text_9">
      <!-- 0.0 -->
      <g transform="translate(40.571625 172.934906)scale(0.14 -0.14)">
       <use xlink:href="#DejaVuSans-48"/>
       <use x="63.623047" xlink:href="#DejaVuSans-46"/>
       <use x="95.410156" xlink:href="#DejaVuSans-48"/>
      </g>
     </g>
    </g>
    <g id="ytick_6">
     <g id="line2d_9">
      <g>
       <use style="stroke:#000000;stroke-width:1.5;" x="78.336" xlink:href="#m00eb4367ad" y="136.08"/>
      </g>
     </g>
     <g id="text_10">
      <!-- 2.5 -->
      <g transform="translate(40.571625 141.398906)scale(0.14 -0.14)">
       <use xlink:href="#DejaVuSans-50"/>
       <use x="63.623047" xlink:href="#DejaVuSans-46"/>
       <use x="95.410156" xlink:href="#DejaVuSans-53"/>
      </g>
     </g>
    </g>
    <g id="ytick_7">
     <g id="line2d_10">
      <g>
       <use style="stroke:#000000;stroke-width:1.5;" x="78.336" xlink:href="#m00eb4367ad" y="104.544"/>
      </g>
     </g>
     <g id="text_11">
      <!-- 5.0 -->
      <g transform="translate(40.571625 109.862906)scale(0.14 -0.14)">
       <use xlink:href="#DejaVuSans-53"/>
       <use x="63.623047" xlink:href="#DejaVuSans-46"/>
       <use x="95.410156" xlink:href="#DejaVuSans-48"/>
      </g>
     </g>
    </g>
    <g id="ytick_8">
     <g id="line2d_11">
      <g>
       <use style="stroke:#000000;stroke-width:1.5;" x="78.336" xlink:href="#m00eb4367ad" y="73.008"/>
      </g>
     </g>
     <g id="text_12">
      <!-- 7.5 -->
      <g transform="translate(40.571625 78.326906)scale(0.14 -0.14)">
       <use xlink:href="#DejaVuSans-55"/>
       <use x="63.623047" xlink:href="#DejaVuSans-46"/>
       <use x="95.410156" xlink:href="#DejaVuSans-53"/>
      </g>
     </g>
    </g>
    <g id="ytick_9">
     <g id="line2d_12">
      <g>
       <use style="stroke:#000000;stroke-width:1.5;" x="78.336" xlink:href="#m00eb4367ad" y="41.472"/>
      </g>
     </g>
     <g id="text_13">
      <!-- 10.0 -->
      <g transform="translate(31.664125 46.790906)scale(0.14 -0.14)">
       <use xlink:href="#DejaVuSans-49"/>
       <use x="63.623047" xlink:href="#DejaVuSans-48"/>
       <use x="127.246094" xlink:href="#DejaVuSans-46"/>
       <use x="159.033203" xlink:href="#DejaVuSans-48"/>
      </g>
     </g>
    </g>
   </g>
   <g id="line2d_13">
    <path clip-path="url(#p075e464191)" d="M 92.578909 167.616 
L 99.304727 163.759391 
L 102.865455 161.463546 
L 105.634909 159.424113 
L 108.008727 157.40106 
L 109.986909 155.434416 
L 111.569455 153.606289 
L 113.152 151.470304 
L 114.734545 148.914383 
L 115.921455 146.622113 
L 117.108364 143.891764 
L 118.295273 140.564332 
L 119.482182 136.394264 
L 120.273455 132.958221 
L 121.064727 128.792869 
L 121.856 123.624359 
L 122.647273 117.022405 
L 123.438545 108.269914 
L 124.229818 96.076183 
L 125.021091 77.85988 
L 125.416727 64.879956 
L 125.812364 47.598001 
L 126.208 23.432748 
L 126.474948 -1 
M 129.784136 346.6 
L 130.164364 311.799252 
L 130.56 287.633999 
L 131.351273 257.37212 
L 132.142545 239.155817 
L 132.933818 226.962086 
L 133.725091 218.209595 
L 134.516364 211.607641 
L 135.307636 206.439131 
L 136.494545 200.477635 
L 137.681455 195.948406 
L 138.868364 192.373154 
L 140.055273 189.464782 
L 141.242182 187.040473 
L 142.824727 184.355874 
L 144.407273 182.127207 
L 146.385455 179.797584 
L 148.363636 177.83094 
L 150.737455 175.807887 
L 153.506909 173.768454 
L 156.672 171.714667 
L 161.024 169.164854 
L 171.706182 163.024734 
L 174.871273 160.908805 
L 177.640727 158.783302 
L 180.014545 156.650469 
L 181.992727 154.553406 
L 183.575273 152.582743 
L 185.157818 150.253768 
L 186.740364 147.42874 
L 187.927273 144.85902 
L 189.114182 141.752647 
L 190.301091 137.898336 
L 191.488 132.958221 
L 192.279273 128.792869 
L 193.070545 123.624359 
L 193.861818 117.022405 
L 194.653091 108.269914 
L 195.444364 96.076183 
L 196.235636 77.85988 
L 196.631273 64.879956 
L 197.026909 47.598001 
L 197.422545 23.432748 
L 197.689494 -1 
M 200.998682 346.6 
L 201.378909 311.799252 
L 201.774545 287.633999 
L 202.565818 257.37212 
L 203.357091 239.155817 
L 204.148364 226.962086 
L 204.939636 218.209595 
L 205.730909 211.607641 
L 206.522182 206.439131 
L 207.709091 200.477635 
L 208.896 195.948406 
L 210.082909 192.373154 
L 211.269818 189.464782 
L 212.456727 187.040473 
L 214.039273 184.355874 
L 215.621818 182.127207 
L 217.6 179.797584 
L 219.578182 177.83094 
L 221.952 175.807887 
L 224.721455 173.768454 
L 227.886545 171.714667 
L 232.238545 169.164854 
L 242.920727 163.024734 
L 246.085818 160.908805 
L 248.855273 158.783302 
L 251.229091 156.650469 
L 253.207273 154.553406 
L 254.789818 152.582743 
L 256.372364 150.253768 
L 257.954909 147.42874 
L 259.141818 144.85902 
L 260.328727 141.752647 
L 261.515636 137.898336 
L 262.702545 132.958221 
L 263.493818 128.792869 
L 264.285091 123.624359 
L 265.076364 117.022405 
L 265.867636 108.269914 
L 266.658909 96.076183 
L 267.450182 77.85988 
L 267.845818 64.879956 
L 268.241455 47.598001 
L 268.637091 23.432748 
L 268.904039 -1 
M 272.213227 346.6 
L 272.593455 311.799252 
L 272.989091 287.633999 
L 273.780364 257.37212 
L 274.571636 239.155817 
L 275.362909 226.962086 
L 276.154182 218.209595 
L 276.945455 211.607641 
L 277.736727 206.439131 
L 278.923636 200.477635 
L 280.110545 195.948406 
L 281.297455 192.373154 
L 282.484364 189.464782 
L 283.671273 187.040473 
L 285.253818 184.355874 
L 286.836364 182.127207 
L 288.814545 179.797584 
L 290.792727 177.83094 
L 293.166545 175.807887 
L 295.936 173.768454 
L 299.101091 171.714667 
L 303.453091 169.164854 
L 314.135273 163.024734 
L 317.300364 160.908805 
L 320.069818 158.783302 
L 322.443636 156.650469 
L 324.421818 154.553406 
L 326.004364 152.582743 
L 327.586909 150.253768 
L 329.169455 147.42874 
L 330.356364 144.85902 
L 331.543273 141.752647 
L 332.730182 137.898336 
L 333.917091 132.958221 
L 334.708364 128.792869 
L 335.499636 123.624359 
L 336.290909 117.022405 
L 337.082182 108.269914 
L 337.873455 96.076183 
L 338.664727 77.85988 
L 339.060364 64.879956 
L 339.456 47.598001 
L 339.851636 23.432748 
L 340.118585 -1 
M 343.427773 346.6 
L 343.808 311.799252 
L 344.203636 287.633999 
L 344.994909 257.37212 
L 345.786182 239.155817 
L 346.577455 226.962086 
L 347.368727 218.209595 
L 348.16 211.607641 
L 348.951273 206.439131 
L 350.138182 200.477635 
L 351.325091 195.948406 
L 352.512 192.373154 
L 353.698909 189.464782 
L 354.885818 187.040473 
L 356.468364 184.355874 
L 358.050909 182.127207 
L 360.029091 179.797584 
L 362.007273 177.83094 
L 364.381091 175.807887 
L 367.150545 173.768454 
L 370.315636 171.714667 
L 374.667636 169.164854 
L 377.437091 167.616 
L 377.437091 167.616 
" style="fill:none;stroke:#1f77b4;stroke-linecap:square;stroke-width:1.5;"/>
   </g>
   <g id="line2d_14">
    <path clip-path="url(#p075e464191)" d="M 94.290143 -1 
L 94.557091 23.432748 
L 94.952727 47.598001 
L 95.744 77.85988 
L 96.535273 96.076183 
L 97.326545 108.269914 
L 98.117818 117.022405 
L 98.909091 123.624359 
L 99.700364 128.792869 
L 100.887273 134.754365 
L 102.074182 139.283594 
L 103.261091 142.858846 
L 104.448 145.767218 
L 105.634909 148.191527 
L 107.217455 150.876126 
L 108.8 153.104793 
L 110.778182 155.434416 
L 112.756364 157.40106 
L 115.130182 159.424113 
L 117.899636 161.463546 
L 121.064727 163.517333 
L 125.416727 166.067146 
L 136.098909 172.207266 
L 139.264 174.323195 
L 142.033455 176.448698 
L 144.407273 178.581531 
L 146.385455 180.678594 
L 147.968 182.649257 
L 149.550545 184.978232 
L 151.133091 187.80326 
L 152.32 190.37298 
L 153.506909 193.479353 
L 154.693818 197.333664 
L 155.880727 202.273779 
L 156.672 206.439131 
L 157.463273 211.607641 
L 158.254545 218.209595 
L 159.045818 226.962086 
L 159.837091 239.155817 
L 160.628364 257.37212 
L 161.024 270.352044 
L 161.419636 287.633999 
L 161.815273 311.799252 
L 162.1955 346.6 
M 165.504688 -1 
L 165.771636 23.432748 
L 166.167273 47.598001 
L 166.958545 77.85988 
L 167.749818 96.076183 
L 168.541091 108.269914 
L 169.332364 117.022405 
L 170.123636 123.624359 
L 170.914909 128.792869 
L 172.101818 134.754365 
L 173.288727 139.283594 
L 174.475636 142.858846 
L 175.662545 145.767218 
L 176.849455 148.191527 
L 178.432 150.876126 
L 180.014545 153.104793 
L 181.992727 155.434416 
L 183.970909 157.40106 
L 186.344727 159.424113 
L 189.114182 161.463546 
L 192.279273 163.517333 
L 196.631273 166.067146 
L 207.313455 172.207266 
L 210.478545 174.323195 
L 213.248 176.448698 
L 215.621818 178.581531 
L 217.6 180.678594 
L 219.182545 182.649257 
L 220.765091 184.978232 
L 222.347636 187.80326 
L 223.534545 190.37298 
L 224.721455 193.479353 
L 225.908364 197.333664 
L 227.095273 202.273779 
L 227.886545 206.439131 
L 228.677818 211.607641 
L 229.469091 218.209595 
L 230.260364 226.962086 
L 231.051636 239.155817 
L 231.842909 257.37212 
L 232.238545 270.352044 
L 232.634182 287.633999 
L 233.029818 311.799252 
L 233.410046 346.6 
M 236.719234 -1 
L 236.986182 23.432748 
L 237.381818 47.598001 
L 238.173091 77.85988 
L 238.964364 96.076183 
L 239.755636 108.269914 
L 240.546909 117.022405 
L 241.338182 123.624359 
L 242.129455 128.792869 
L 243.316364 134.754365 
L 244.503273 139.283594 
L 245.690182 142.858846 
L 246.877091 145.767218 
L 248.064 148.191527 
L 249.646545 150.876126 
L 251.229091 153.104793 
L 253.207273 155.434416 
L 255.185455 157.40106 
L 257.559273 159.424113 
L 260.328727 161.463546 
L 263.493818 163.517333 
L 267.845818 166.067146 
L 278.528 172.207266 
L 281.693091 174.323195 
L 284.462545 176.448698 
L 286.836364 178.581531 
L 288.814545 180.678594 
L 290.397091 182.649257 
L 291.979636 184.978232 
L 293.562182 187.80326 
L 294.749091 190.37298 
L 295.936 193.479353 
L 297.122909 197.333664 
L 298.309818 202.273779 
L 299.101091 206.439131 
L 299.892364 211.607641 
L 300.683636 218.209595 
L 301.474909 226.962086 
L 302.266182 239.155817 
L 303.057455 257.37212 
L 303.453091 270.352044 
L 303.848727 287.633999 
L 304.244364 311.799252 
L 304.624591 346.6 
M 307.933779 -1 
L 308.200727 23.432748 
L 308.596364 47.598001 
L 309.387636 77.85988 
L 310.178909 96.076183 
L 310.970182 108.269914 
L 311.761455 117.022405 
L 312.552727 123.624359 
L 313.344 128.792869 
L 314.530909 134.754365 
L 315.717818 139.283594 
L 316.904727 142.858846 
L 318.091636 145.767218 
L 319.278545 148.191527 
L 320.861091 150.876126 
L 322.443636 153.104793 
L 324.421818 155.434416 
L 326.4 157.40106 
L 328.773818 159.424113 
L 331.543273 161.463546 
L 334.708364 163.517333 
L 339.060364 166.067146 
L 349.742545 172.207266 
L 352.907636 174.323195 
L 355.677091 176.448698 
L 358.050909 178.581531 
L 360.029091 180.678594 
L 361.611636 182.649257 
L 363.194182 184.978232 
L 364.776727 187.80326 
L 365.963636 190.37298 
L 367.150545 193.479353 
L 368.337455 197.333664 
L 369.524364 202.273779 
L 370.315636 206.439131 
L 371.106909 211.607641 
L 371.898182 218.209595 
L 372.689455 226.962086 
L 373.480727 239.155817 
L 374.272 257.37212 
L 374.667636 270.352044 
L 375.063273 287.633999 
L 375.458909 311.799252 
L 375.839136 346.6 
L 375.839136 346.6 
" style="fill:none;stroke:#ff7f0e;stroke-linecap:square;stroke-width:1.5;"/>
   </g>
   <g id="patch_3">
    <path d="M 78.336 293.76 
L 78.336 41.472 
" style="fill:none;stroke:#000000;stroke-linecap:square;stroke-linejoin:miter;stroke-width:1.5;"/>
   </g>
   <g id="patch_4">
    <path d="M 391.68 293.76 
L 391.68 41.472 
" style="fill:none;stroke:#000000;stroke-linecap:square;stroke-linejoin:miter;stroke-width:1.5;"/>
   </g>
   <g id="patch_5">
    <path d="M 78.336 293.76 
L 391.68 293.76 
" style="fill:none;stroke:#000000;stroke-linecap:square;stroke-linejoin:miter;stroke-width:1.5;"/>
   </g>
   <g id="patch_6">
    <path d="M 78.336 41.472 
L 391.68 41.472 
" style="fill:none;stroke:#000000;stroke-linecap:square;stroke-linejoin:miter;stroke-width:1.5;"/>
   </g>
   <g id="legend_1">
    <g id="patch_7">
     <path d="M 305.251875 93.77075 
L 381.88 93.77075 
Q 384.68 93.77075 384.68 90.97075 
L 384.68 51.272 
Q 384.68 48.472 381.88 48.472 
L 305.251875 48.472 
Q 302.451875 48.472 302.451875 51.272 
L 302.451875 90.97075 
Q 302.451875 93.77075 305.251875 93.77075 
z
" style="fill:none;opacity:0;"/>
    </g>
    <g id="line2d_15">
     <path d="M 308.051875 59.809812 
L 336.051875 59.809812 
" style="fill:none;stroke:#1f77b4;stroke-linecap:square;stroke-width:1.5;"/>
    </g>
    <g id="line2d_16"/>
    <g id="text_14">
     <!-- tand -->
     <defs>
      <path d="M 18.3125 70.21875 
L 18.3125 54.6875 
L 36.8125 54.6875 
L 36.8125 47.703125 
L 18.3125 47.703125 
L 18.3125 18.015625 
Q 18.3125 11.328125 20.140625 9.421875 
Q 21.96875 7.515625 27.59375 7.515625 
L 36.8125 7.515625 
L 36.8125 0 
L 27.59375 0 
Q 17.1875 0 13.234375 3.875 
Q 9.28125 7.765625 9.28125 18.015625 
L 9.28125 47.703125 
L 2.6875 47.703125 
L 2.6875 54.6875 
L 9.28125 54.6875 
L 9.28125 70.21875 
z
" id="DejaVuSans-116"/>
      <path d="M 34.28125 27.484375 
Q 23.390625 27.484375 19.1875 25 
Q 14.984375 22.515625 14.984375 16.5 
Q 14.984375 11.71875 18.140625 8.90625 
Q 21.296875 6.109375 26.703125 6.109375 
Q 34.1875 6.109375 38.703125 11.40625 
Q 43.21875 16.703125 43.21875 25.484375 
L 43.21875 27.484375 
z
M 52.203125 31.203125 
L 52.203125 0 
L 43.21875 0 
L 43.21875 8.296875 
Q 40.140625 3.328125 35.546875 0.953125 
Q 30.953125 -1.421875 24.3125 -1.421875 
Q 15.921875 -1.421875 10.953125 3.296875 
Q 6 8.015625 6 15.921875 
Q 6 25.140625 12.171875 29.828125 
Q 18.359375 34.515625 30.609375 34.515625 
L 43.21875 34.515625 
L 43.21875 35.40625 
Q 43.21875 41.609375 39.140625 45 
Q 35.0625 48.390625 27.6875 48.390625 
Q 23 48.390625 18.546875 47.265625 
Q 14.109375 46.140625 10.015625 43.890625 
L 10.015625 52.203125 
Q 14.9375 54.109375 19.578125 55.046875 
Q 24.21875 56 28.609375 56 
Q 40.484375 56 46.34375 49.84375 
Q 52.203125 43.703125 52.203125 31.203125 
z
" id="DejaVuSans-97"/>
      <path d="M 54.890625 33.015625 
L 54.890625 0 
L 45.90625 0 
L 45.90625 32.71875 
Q 45.90625 40.484375 42.875 44.328125 
Q 39.84375 48.1875 33.796875 48.1875 
Q 26.515625 48.1875 22.3125 43.546875 
Q 18.109375 38.921875 18.109375 30.90625 
L 18.109375 0 
L 9.078125 0 
L 9.078125 54.6875 
L 18.109375 54.6875 
L 18.109375 46.1875 
Q 21.34375 51.125 25.703125 53.5625 
Q 30.078125 56 35.796875 56 
Q 45.21875 56 50.046875 50.171875 
Q 54.890625 44.34375 54.890625 33.015625 
z
" id="DejaVuSans-110"/>
     </defs>
     <g transform="translate(347.251875 64.709812)scale(0.14 -0.14)">
      <use xlink:href="#DejaVuSans-116"/>
      <use x="39.208984" xlink:href="#DejaVuSans-97"/>
      <use x="100.488281" xlink:href="#DejaVuSans-110"/>
      <use x="163.867188" xlink:href="#DejaVuSans-100"/>
     </g>
    </g>
    <g id="line2d_17">
     <path d="M 308.051875 80.359187 
L 336.051875 80.359187 
" style="fill:none;stroke:#ff7f0e;stroke-linecap:square;stroke-width:1.5;"/>
    </g>
    <g id="line2d_18"/>
    <g id="text_15">
     <!-- cotd -->
     <defs>
      <path d="M 48.78125 52.59375 
L 48.78125 44.1875 
Q 44.96875 46.296875 41.140625 47.34375 
Q 37.3125 48.390625 33.40625 48.390625 
Q 24.65625 48.390625 19.8125 42.84375 
Q 14.984375 37.3125 14.984375 27.296875 
Q 14.984375 17.28125 19.8125 11.734375 
Q 24.65625 6.203125 33.40625 6.203125 
Q 37.3125 6.203125 41.140625 7.25 
Q 44.96875 8.296875 48.78125 10.40625 
L 48.78125 2.09375 
Q 45.015625 0.34375 40.984375 -0.53125 
Q 36.96875 -1.421875 32.421875 -1.421875 
Q 20.0625 -1.421875 12.78125 6.34375 
Q 5.515625 14.109375 5.515625 27.296875 
Q 5.515625 40.671875 12.859375 48.328125 
Q 20.21875 56 33.015625 56 
Q 37.15625 56 41.109375 55.140625 
Q 45.0625 54.296875 48.78125 52.59375 
z
" id="DejaVuSans-99"/>
      <path d="M 30.609375 48.390625 
Q 23.390625 48.390625 19.1875 42.75 
Q 14.984375 37.109375 14.984375 27.296875 
Q 14.984375 17.484375 19.15625 11.84375 
Q 23.34375 6.203125 30.609375 6.203125 
Q 37.796875 6.203125 41.984375 11.859375 
Q 46.1875 17.53125 46.1875 27.296875 
Q 46.1875 37.015625 41.984375 42.703125 
Q 37.796875 48.390625 30.609375 48.390625 
z
M 30.609375 56 
Q 42.328125 56 49.015625 48.375 
Q 55.71875 40.765625 55.71875 27.296875 
Q 55.71875 13.875 49.015625 6.21875 
Q 42.328125 -1.421875 30.609375 -1.421875 
Q 18.84375 -1.421875 12.171875 6.21875 
Q 5.515625 13.875 5.515625 27.296875 
Q 5.515625 40.765625 12.171875 48.375 
Q 18.84375 56 30.609375 56 
z
" id="DejaVuSans-111"/>
     </defs>
     <g transform="translate(347.251875 85.259187)scale(0.14 -0.14)">
      <use xlink:href="#DejaVuSans-99"/>
      <use x="54.980469" xlink:href="#DejaVuSans-111"/>
      <use x="116.162109" xlink:href="#DejaVuSans-116"/>
      <use x="155.371094" xlink:href="#DejaVuSans-100"/>
     </g>
    </g>
   </g>
  </g>
 </g>
 <defs>
  <clipPath id="p075e464191">
   <rect height="252.288" width="313.344" x="78.336" y="41.472"/>
  </clipPath>
 </defs>
</svg>
