<?xml version="1.0" encoding="utf-8" standalone="no"?>
<!DOCTYPE svg PUBLIC "-//W3C//DTD SVG 1.1//EN"
  "http://www.w3.org/Graphics/SVG/1.1/DTD/svg11.dtd">
<!-- Created with matplotlib (https://matplotlib.org/) -->
<svg height="345.6pt" version="1.1" viewBox="0 0 460.8 345.6" width="460.8pt" xmlns="http://www.w3.org/2000/svg" xmlns:xlink="http://www.w3.org/1999/xlink">
 <defs>
  <style type="text/css">
*{stroke-linecap:butt;stroke-linejoin:round;}
  </style>
 </defs>
 <g id="figure_1">
  <g id="patch_1">
   <path d="M 0 345.6 
L 460.8 345.6 
L 460.8 0 
L 0 0 
z
" style="fill:#ffffff;"/>
  </g>
  <g id="axes_1">
   <g id="patch_2">
    <path d="M 78.336 293.76 
L 391.68 293.76 
L 391.68 41.472 
L 78.336 41.472 
z
" style="fill:#ffffff;"/>
   </g>
   <g id="matplotlib.axis_1">
    <g id="xtick_1">
     <g id="line2d_1">
      <defs>
       <path d="M 0 0 
L 0 12 
" id="m8d32b630e5" style="stroke:#000000;stroke-width:1.5;"/>
      </defs>
      <g>
       <use style="stroke:#000000;stroke-width:1.5;" x="92.578909" xlink:href="#m8d32b630e5" y="293.76"/>
      </g>
     </g>
     <g id="text_1">
      <!-- −3.2 -->
      <defs>
       <path d="M 10.59375 35.5 
L 73.1875 35.5 
L 73.1875 27.203125 
L 10.59375 27.203125 
z
" id="DejaVuSans-8722"/>
       <path d="M 40.578125 39.3125 
Q 47.65625 37.796875 51.625 33 
Q 55.609375 28.21875 55.609375 21.1875 
Q 55.609375 10.40625 48.1875 4.484375 
Q 40.765625 -1.421875 27.09375 -1.421875 
Q 22.515625 -1.421875 17.65625 -0.515625 
Q 12.796875 0.390625 7.625 2.203125 
L 7.625 11.71875 
Q 11.71875 9.328125 16.59375 8.109375 
Q 21.484375 6.890625 26.8125 6.890625 
Q 36.078125 6.890625 40.9375 10.546875 
Q 45.796875 14.203125 45.796875 21.1875 
Q 45.796875 27.640625 41.28125 31.265625 
Q 36.765625 34.90625 28.71875 34.90625 
L 20.21875 34.90625 
L 20.21875 43.015625 
L 29.109375 43.015625 
Q 36.375 43.015625 40.234375 45.921875 
Q 44.09375 48.828125 44.09375 54.296875 
Q 44.09375 59.90625 40.109375 62.90625 
Q 36.140625 65.921875 28.71875 65.921875 
Q 24.65625 65.921875 20.015625 65.03125 
Q 15.375 64.15625 9.8125 62.3125 
L 9.8125 71.09375 
Q 15.4375 72.65625 20.34375 73.4375 
Q 25.25 74.21875 29.59375 74.21875 
Q 40.828125 74.21875 47.359375 69.109375 
Q 53.90625 64.015625 53.90625 55.328125 
Q 53.90625 49.265625 50.4375 45.09375 
Q 46.96875 40.921875 40.578125 39.3125 
z
" id="DejaVuSans-51"/>
       <path d="M 10.6875 12.40625 
L 21 12.40625 
L 21 0 
L 10.6875 0 
z
" id="DejaVuSans-46"/>
       <path d="M 19.1875 8.296875 
L 53.609375 8.296875 
L 53.609375 0 
L 7.328125 0 
L 7.328125 8.296875 
Q 12.9375 14.109375 22.625 23.890625 
Q 32.328125 33.6875 34.8125 36.53125 
Q 39.546875 41.84375 41.421875 45.53125 
Q 43.3125 49.21875 43.3125 52.78125 
Q 43.3125 58.59375 39.234375 62.25 
Q 35.15625 65.921875 28.609375 65.921875 
Q 23.96875 65.921875 18.8125 64.3125 
Q 13.671875 62.703125 7.8125 59.421875 
L 7.8125 69.390625 
Q 13.765625 71.78125 18.9375 73 
Q 24.125 74.21875 28.421875 74.21875 
Q 39.75 74.21875 46.484375 68.546875 
Q 53.21875 62.890625 53.21875 53.421875 
Q 53.21875 48.921875 51.53125 44.890625 
Q 49.859375 40.875 45.40625 35.40625 
Q 44.1875 33.984375 37.640625 27.21875 
Q 31.109375 20.453125 19.1875 8.296875 
z
" id="DejaVuSans-50"/>
      </defs>
      <g transform="translate(75.58094 319.897812)scale(0.14 -0.14)">
       <use xlink:href="#DejaVuSans-8722"/>
       <use x="83.789062" xlink:href="#DejaVuSans-51"/>
       <use x="147.412109" xlink:href="#DejaVuSans-46"/>
       <use x="179.199219" xlink:href="#DejaVuSans-50"/>
      </g>
     </g>
    </g>
    <g id="xtick_2">
     <g id="line2d_2">
      <g>
       <use style="stroke:#000000;stroke-width:1.5;" x="140.055273" xlink:href="#m8d32b630e5" y="293.76"/>
      </g>
     </g>
     <g id="text_2">
      <!-- −3.1 -->
      <defs>
       <path d="M 12.40625 8.296875 
L 28.515625 8.296875 
L 28.515625 63.921875 
L 10.984375 60.40625 
L 10.984375 69.390625 
L 28.421875 72.90625 
L 38.28125 72.90625 
L 38.28125 8.296875 
L 54.390625 8.296875 
L 54.390625 0 
L 12.40625 0 
z
" id="DejaVuSans-49"/>
      </defs>
      <g transform="translate(123.057304 319.897812)scale(0.14 -0.14)">
       <use xlink:href="#DejaVuSans-8722"/>
       <use x="83.789062" xlink:href="#DejaVuSans-51"/>
       <use x="147.412109" xlink:href="#DejaVuSans-46"/>
       <use x="179.199219" xlink:href="#DejaVuSans-49"/>
      </g>
     </g>
    </g>
    <g id="xtick_3">
     <g id="line2d_3">
      <g>
       <use style="stroke:#000000;stroke-width:1.5;" x="187.531636" xlink:href="#m8d32b630e5" y="293.76"/>
      </g>
     </g>
     <g id="text_3">
      <!-- −3.0 -->
      <defs>
       <path d="M 31.78125 66.40625 
Q 24.171875 66.40625 20.328125 58.90625 
Q 16.5 51.421875 16.5 36.375 
Q 16.5 21.390625 20.328125 13.890625 
Q 24.171875 6.390625 31.78125 6.390625 
Q 39.453125 6.390625 43.28125 13.890625 
Q 47.125 21.390625 47.125 36.375 
Q 47.125 51.421875 43.28125 58.90625 
Q 39.453125 66.40625 31.78125 66.40625 
z
M 31.78125 74.21875 
Q 44.046875 74.21875 50.515625 64.515625 
Q 56.984375 54.828125 56.984375 36.375 
Q 56.984375 17.96875 50.515625 8.265625 
Q 44.046875 -1.421875 31.78125 -1.421875 
Q 19.53125 -1.421875 13.0625 8.265625 
Q 6.59375 17.96875 6.59375 36.375 
Q 6.59375 54.828125 13.0625 64.515625 
Q 19.53125 74.21875 31.78125 74.21875 
z
" id="DejaVuSans-48"/>
      </defs>
      <g transform="translate(170.533668 319.897812)scale(0.14 -0.14)">
       <use xlink:href="#DejaVuSans-8722"/>
       <use x="83.789062" xlink:href="#DejaVuSans-51"/>
       <use x="147.412109" xlink:href="#DejaVuSans-46"/>
       <use x="179.199219" xlink:href="#DejaVuSans-48"/>
      </g>
     </g>
    </g>
    <g id="xtick_4">
     <g id="line2d_4">
      <g>
       <use style="stroke:#000000;stroke-width:1.5;" x="235.008" xlink:href="#m8d32b630e5" y="293.76"/>
      </g>
     </g>
     <g id="text_4">
      <!-- −2.9 -->
      <defs>
       <path d="M 10.984375 1.515625 
L 10.984375 10.5 
Q 14.703125 8.734375 18.5 7.8125 
Q 22.3125 6.890625 25.984375 6.890625 
Q 35.75 6.890625 40.890625 13.453125 
Q 46.046875 20.015625 46.78125 33.40625 
Q 43.953125 29.203125 39.59375 26.953125 
Q 35.25 24.703125 29.984375 24.703125 
Q 19.046875 24.703125 12.671875 31.3125 
Q 6.296875 37.9375 6.296875 49.421875 
Q 6.296875 60.640625 12.9375 67.421875 
Q 19.578125 74.21875 30.609375 74.21875 
Q 43.265625 74.21875 49.921875 64.515625 
Q 56.59375 54.828125 56.59375 36.375 
Q 56.59375 19.140625 48.40625 8.859375 
Q 40.234375 -1.421875 26.421875 -1.421875 
Q 22.703125 -1.421875 18.890625 -0.6875 
Q 15.09375 0.046875 10.984375 1.515625 
z
M 30.609375 32.421875 
Q 37.25 32.421875 41.125 36.953125 
Q 45.015625 41.5 45.015625 49.421875 
Q 45.015625 57.28125 41.125 61.84375 
Q 37.25 66.40625 30.609375 66.40625 
Q 23.96875 66.40625 20.09375 61.84375 
Q 16.21875 57.28125 16.21875 49.421875 
Q 16.21875 41.5 20.09375 36.953125 
Q 23.96875 32.421875 30.609375 32.421875 
z
" id="DejaVuSans-57"/>
      </defs>
      <g transform="translate(218.010031 319.897812)scale(0.14 -0.14)">
       <use xlink:href="#DejaVuSans-8722"/>
       <use x="83.789062" xlink:href="#DejaVuSans-50"/>
       <use x="147.412109" xlink:href="#DejaVuSans-46"/>
       <use x="179.199219" xlink:href="#DejaVuSans-57"/>
      </g>
     </g>
    </g>
    <g id="xtick_5">
     <g id="line2d_5">
      <g>
       <use style="stroke:#000000;stroke-width:1.5;" x="282.484364" xlink:href="#m8d32b630e5" y="293.76"/>
      </g>
     </g>
     <g id="text_5">
      <!-- −2.8 -->
      <defs>
       <path d="M 31.78125 34.625 
Q 24.75 34.625 20.71875 30.859375 
Q 16.703125 27.09375 16.703125 20.515625 
Q 16.703125 13.921875 20.71875 10.15625 
Q 24.75 6.390625 31.78125 6.390625 
Q 38.8125 6.390625 42.859375 10.171875 
Q 46.921875 13.96875 46.921875 20.515625 
Q 46.921875 27.09375 42.890625 30.859375 
Q 38.875 34.625 31.78125 34.625 
z
M 21.921875 38.8125 
Q 15.578125 40.375 12.03125 44.71875 
Q 8.5 49.078125 8.5 55.328125 
Q 8.5 64.0625 14.71875 69.140625 
Q 20.953125 74.21875 31.78125 74.21875 
Q 42.671875 74.21875 48.875 69.140625 
Q 55.078125 64.0625 55.078125 55.328125 
Q 55.078125 49.078125 51.53125 44.71875 
Q 48 40.375 41.703125 38.8125 
Q 48.828125 37.15625 52.796875 32.3125 
Q 56.78125 27.484375 56.78125 20.515625 
Q 56.78125 9.90625 50.3125 4.234375 
Q 43.84375 -1.421875 31.78125 -1.421875 
Q 19.734375 -1.421875 13.25 4.234375 
Q 6.78125 9.90625 6.78125 20.515625 
Q 6.78125 27.484375 10.78125 32.3125 
Q 14.796875 37.15625 21.921875 38.8125 
z
M 18.3125 54.390625 
Q 18.3125 48.734375 21.84375 45.5625 
Q 25.390625 42.390625 31.78125 42.390625 
Q 38.140625 42.390625 41.71875 45.5625 
Q 45.3125 48.734375 45.3125 54.390625 
Q 45.3125 60.0625 41.71875 63.234375 
Q 38.140625 66.40625 31.78125 66.40625 
Q 25.390625 66.40625 21.84375 63.234375 
Q 18.3125 60.0625 18.3125 54.390625 
z
" id="DejaVuSans-56"/>
      </defs>
      <g transform="translate(265.486395 319.897812)scale(0.14 -0.14)">
       <use xlink:href="#DejaVuSans-8722"/>
       <use x="83.789062" xlink:href="#DejaVuSans-50"/>
       <use x="147.412109" xlink:href="#DejaVuSans-46"/>
       <use x="179.199219" xlink:href="#DejaVuSans-56"/>
      </g>
     </g>
    </g>
    <g id="xtick_6">
     <g id="line2d_6">
      <g>
       <use style="stroke:#000000;stroke-width:1.5;" x="329.960727" xlink:href="#m8d32b630e5" y="293.76"/>
      </g>
     </g>
     <g id="text_6">
      <!-- −2.7 -->
      <defs>
       <path d="M 8.203125 72.90625 
L 55.078125 72.90625 
L 55.078125 68.703125 
L 28.609375 0 
L 18.3125 0 
L 43.21875 64.59375 
L 8.203125 64.59375 
z
" id="DejaVuSans-55"/>
      </defs>
      <g transform="translate(312.962759 319.897812)scale(0.14 -0.14)">
       <use xlink:href="#DejaVuSans-8722"/>
       <use x="83.789062" xlink:href="#DejaVuSans-50"/>
       <use x="147.412109" xlink:href="#DejaVuSans-46"/>
       <use x="179.199219" xlink:href="#DejaVuSans-55"/>
      </g>
     </g>
    </g>
    <g id="xtick_7">
     <g id="line2d_7">
      <g>
       <use style="stroke:#000000;stroke-width:1.5;" x="377.437091" xlink:href="#m8d32b630e5" y="293.76"/>
      </g>
     </g>
     <g id="text_7">
      <!-- −2.6 -->
      <defs>
       <path d="M 33.015625 40.375 
Q 26.375 40.375 22.484375 35.828125 
Q 18.609375 31.296875 18.609375 23.390625 
Q 18.609375 15.53125 22.484375 10.953125 
Q 26.375 6.390625 33.015625 6.390625 
Q 39.65625 6.390625 43.53125 10.953125 
Q 47.40625 15.53125 47.40625 23.390625 
Q 47.40625 31.296875 43.53125 35.828125 
Q 39.65625 40.375 33.015625 40.375 
z
M 52.59375 71.296875 
L 52.59375 62.3125 
Q 48.875 64.0625 45.09375 64.984375 
Q 41.3125 65.921875 37.59375 65.921875 
Q 27.828125 65.921875 22.671875 59.328125 
Q 17.53125 52.734375 16.796875 39.40625 
Q 19.671875 43.65625 24.015625 45.921875 
Q 28.375 48.1875 33.59375 48.1875 
Q 44.578125 48.1875 50.953125 41.515625 
Q 57.328125 34.859375 57.328125 23.390625 
Q 57.328125 12.15625 50.6875 5.359375 
Q 44.046875 -1.421875 33.015625 -1.421875 
Q 20.359375 -1.421875 13.671875 8.265625 
Q 6.984375 17.96875 6.984375 36.375 
Q 6.984375 53.65625 15.1875 63.9375 
Q 23.390625 74.21875 37.203125 74.21875 
Q 40.921875 74.21875 44.703125 73.484375 
Q 48.484375 72.75 52.59375 71.296875 
z
" id="DejaVuSans-54"/>
      </defs>
      <g transform="translate(360.439122 319.897812)scale(0.14 -0.14)">
       <use xlink:href="#DejaVuSans-8722"/>
       <use x="83.789062" xlink:href="#DejaVuSans-50"/>
       <use x="147.412109" xlink:href="#DejaVuSans-46"/>
       <use x="179.199219" xlink:href="#DejaVuSans-54"/>
      </g>
     </g>
    </g>
    <g id="text_8">
     <!-- x -->
     <defs>
      <path d="M 54.890625 54.6875 
L 35.109375 28.078125 
L 55.90625 0 
L 45.3125 0 
L 29.390625 21.484375 
L 13.484375 0 
L 2.875 0 
L 24.125 28.609375 
L 4.6875 54.6875 
L 15.28125 54.6875 
L 29.78125 35.203125 
L 44.28125 54.6875 
z
" id="DejaVuSans-120"/>
     </defs>
     <g transform="translate(230.864875 337.447187)scale(0.14 -0.14)">
      <use xlink:href="#DejaVuSans-120"/>
     </g>
    </g>
   </g>
   <g id="matplotlib.axis_2">
    <g id="ytick_1">
     <g id="line2d_8">
      <defs>
       <path d="M 0 0 
L -12 0 
" id="me9f1bb9cfc" style="stroke:#000000;stroke-width:1.5;"/>
      </defs>
      <g>
       <use style="stroke:#000000;stroke-width:1.5;" x="78.336" xlink:href="#me9f1bb9cfc" y="265.910026"/>
      </g>
     </g>
     <g id="text_9">
      <!-- 2 -->
      <g transform="translate(53.9285 271.228932)scale(0.14 -0.14)">
       <use xlink:href="#DejaVuSans-50"/>
      </g>
     </g>
    </g>
    <g id="ytick_2">
     <g id="line2d_9">
      <g>
       <use style="stroke:#000000;stroke-width:1.5;" x="78.336" xlink:href="#me9f1bb9cfc" y="233.145351"/>
      </g>
     </g>
     <g id="text_10">
      <!-- 4 -->
      <defs>
       <path d="M 37.796875 64.3125 
L 12.890625 25.390625 
L 37.796875 25.390625 
z
M 35.203125 72.90625 
L 47.609375 72.90625 
L 47.609375 25.390625 
L 58.015625 25.390625 
L 58.015625 17.1875 
L 47.609375 17.1875 
L 47.609375 0 
L 37.796875 0 
L 37.796875 17.1875 
L 4.890625 17.1875 
L 4.890625 26.703125 
z
" id="DejaVuSans-52"/>
      </defs>
      <g transform="translate(53.9285 238.464257)scale(0.14 -0.14)">
       <use xlink:href="#DejaVuSans-52"/>
      </g>
     </g>
    </g>
    <g id="ytick_3">
     <g id="line2d_10">
      <g>
       <use style="stroke:#000000;stroke-width:1.5;" x="78.336" xlink:href="#me9f1bb9cfc" y="200.380675"/>
      </g>
     </g>
     <g id="text_11">
      <!-- 6 -->
      <g transform="translate(53.9285 205.699582)scale(0.14 -0.14)">
       <use xlink:href="#DejaVuSans-54"/>
      </g>
     </g>
    </g>
    <g id="ytick_4">
     <g id="line2d_11">
      <g>
       <use style="stroke:#000000;stroke-width:1.5;" x="78.336" xlink:href="#me9f1bb9cfc" y="167.616"/>
      </g>
     </g>
     <g id="text_12">
      <!-- 8 -->
      <g transform="translate(53.9285 172.934906)scale(0.14 -0.14)">
       <use xlink:href="#DejaVuSans-56"/>
      </g>
     </g>
    </g>
    <g id="ytick_5">
     <g id="line2d_12">
      <g>
       <use style="stroke:#000000;stroke-width:1.5;" x="78.336" xlink:href="#me9f1bb9cfc" y="134.851325"/>
      </g>
     </g>
     <g id="text_13">
      <!-- 10 -->
      <g transform="translate(45.021 140.170231)scale(0.14 -0.14)">
       <use xlink:href="#DejaVuSans-49"/>
       <use x="63.623047" xlink:href="#DejaVuSans-48"/>
      </g>
     </g>
    </g>
    <g id="ytick_6">
     <g id="line2d_13">
      <g>
       <use style="stroke:#000000;stroke-width:1.5;" x="78.336" xlink:href="#me9f1bb9cfc" y="102.086649"/>
      </g>
     </g>
     <g id="text_14">
      <!-- 12 -->
      <g transform="translate(45.021 107.405556)scale(0.14 -0.14)">
       <use xlink:href="#DejaVuSans-49"/>
       <use x="63.623047" xlink:href="#DejaVuSans-50"/>
      </g>
     </g>
    </g>
    <g id="ytick_7">
     <g id="line2d_14">
      <g>
       <use style="stroke:#000000;stroke-width:1.5;" x="78.336" xlink:href="#me9f1bb9cfc" y="69.321974"/>
      </g>
     </g>
     <g id="text_15">
      <!-- 14 -->
      <g transform="translate(45.021 74.64088)scale(0.14 -0.14)">
       <use xlink:href="#DejaVuSans-49"/>
       <use x="63.623047" xlink:href="#DejaVuSans-52"/>
      </g>
     </g>
    </g>
    <g id="text_16">
     <!-- i -->
     <defs>
      <path d="M 9.421875 54.6875 
L 18.40625 54.6875 
L 18.40625 0 
L 9.421875 0 
z
M 9.421875 75.984375 
L 18.40625 75.984375 
L 18.40625 64.59375 
L 9.421875 64.59375 
z
" id="DejaVuSans-105"/>
     </defs>
     <g transform="translate(38.109438 169.560687)rotate(-90)scale(0.14 -0.14)">
      <use xlink:href="#DejaVuSans-105"/>
     </g>
    </g>
   </g>
   <g id="line2d_15">
    <defs>
     <path d="M 0 3 
C 0.795609 3 1.55874 2.683901 2.12132 2.12132 
C 2.683901 1.55874 3 0.795609 3 0 
C 3 -0.795609 2.683901 -1.55874 2.12132 -2.12132 
C 1.55874 -2.683901 0.795609 -3 0 -3 
C -0.795609 -3 -1.55874 -2.683901 -2.12132 -2.12132 
C -2.683901 -1.55874 -3 -0.795609 -3 0 
C -3 0.795609 -2.683901 1.55874 -2.12132 2.12132 
C -1.55874 2.683901 -0.795609 3 0 3 
z
" id="m57366ed8b2" style="stroke:#ff0000;"/>
    </defs>
    <g clip-path="url(#p9cc09daab7)">
     <use style="fill:#ff0000;stroke:#ff0000;" x="377.437091" xlink:href="#m57366ed8b2" y="282.292364"/>
    </g>
   </g>
   <g id="line2d_16">
    <defs>
     <path d="M 0 1.5 
C 0.397805 1.5 0.77937 1.341951 1.06066 1.06066 
C 1.341951 0.77937 1.5 0.397805 1.5 0 
C 1.5 -0.397805 1.341951 -0.77937 1.06066 -1.06066 
C 0.77937 -1.341951 0.397805 -1.5 0 -1.5 
C -0.397805 -1.5 -0.77937 -1.341951 -1.06066 -1.06066 
C -1.341951 -0.77937 -1.5 -0.397805 -1.5 0 
C -1.5 0.397805 -1.341951 0.77937 -1.06066 1.06066 
C -0.77937 1.341951 -0.397805 1.5 0 1.5 
z
" id="m8e039f6681" style="stroke:#0000ff;"/>
    </defs>
    <g clip-path="url(#p9cc09daab7)">
     <use style="fill:#0000ff;stroke:#0000ff;" x="92.578909" xlink:href="#m8e039f6681" y="282.292364"/>
    </g>
   </g>
   <g id="line2d_17">
    <g clip-path="url(#p9cc09daab7)">
     <use style="fill:#ff0000;stroke:#ff0000;" x="235.008" xlink:href="#m57366ed8b2" y="265.910026"/>
    </g>
   </g>
   <g id="line2d_18">
    <g clip-path="url(#p9cc09daab7)">
     <use style="fill:#0000ff;stroke:#0000ff;" x="92.578909" xlink:href="#m8e039f6681" y="265.910026"/>
    </g>
   </g>
   <g id="line2d_19">
    <g clip-path="url(#p9cc09daab7)">
     <use style="fill:#ff0000;stroke:#ff0000;" x="235.008" xlink:href="#m57366ed8b2" y="249.527688"/>
    </g>
   </g>
   <g id="line2d_20">
    <g clip-path="url(#p9cc09daab7)">
     <use style="fill:#0000ff;stroke:#0000ff;" x="163.793455" xlink:href="#m8e039f6681" y="249.527688"/>
    </g>
   </g>
   <g id="line2d_21">
    <g clip-path="url(#p9cc09daab7)">
     <use style="fill:#ff0000;stroke:#ff0000;" x="199.400727" xlink:href="#m57366ed8b2" y="233.145351"/>
    </g>
   </g>
   <g id="line2d_22">
    <g clip-path="url(#p9cc09daab7)">
     <use style="fill:#0000ff;stroke:#0000ff;" x="163.793455" xlink:href="#m8e039f6681" y="233.145351"/>
    </g>
   </g>
   <g id="line2d_23">
    <g clip-path="url(#p9cc09daab7)">
     <use style="fill:#ff0000;stroke:#ff0000;" x="199.400727" xlink:href="#m57366ed8b2" y="216.763013"/>
    </g>
   </g>
   <g id="line2d_24">
    <g clip-path="url(#p9cc09daab7)">
     <use style="fill:#0000ff;stroke:#0000ff;" x="181.597091" xlink:href="#m8e039f6681" y="216.763013"/>
    </g>
   </g>
   <g id="line2d_25">
    <g clip-path="url(#p9cc09daab7)">
     <use style="fill:#ff0000;stroke:#ff0000;" x="190.498909" xlink:href="#m57366ed8b2" y="200.380675"/>
    </g>
   </g>
   <g id="line2d_26">
    <g clip-path="url(#p9cc09daab7)">
     <use style="fill:#0000ff;stroke:#0000ff;" x="181.597091" xlink:href="#m8e039f6681" y="200.380675"/>
    </g>
   </g>
   <g id="line2d_27">
    <g clip-path="url(#p9cc09daab7)">
     <use style="fill:#ff0000;stroke:#ff0000;" x="190.498909" xlink:href="#m57366ed8b2" y="183.998338"/>
    </g>
   </g>
   <g id="line2d_28">
    <g clip-path="url(#p9cc09daab7)">
     <use style="fill:#0000ff;stroke:#0000ff;" x="186.048" xlink:href="#m8e039f6681" y="183.998338"/>
    </g>
   </g>
   <g id="line2d_29">
    <g clip-path="url(#p9cc09daab7)">
     <use style="fill:#ff0000;stroke:#ff0000;" x="188.273455" xlink:href="#m57366ed8b2" y="167.616"/>
    </g>
   </g>
   <g id="line2d_30">
    <g clip-path="url(#p9cc09daab7)">
     <use style="fill:#0000ff;stroke:#0000ff;" x="186.048" xlink:href="#m8e039f6681" y="167.616"/>
    </g>
   </g>
   <g id="line2d_31">
    <g clip-path="url(#p9cc09daab7)">
     <use style="fill:#ff0000;stroke:#ff0000;" x="188.273455" xlink:href="#m57366ed8b2" y="151.233662"/>
    </g>
   </g>
   <g id="line2d_32">
    <g clip-path="url(#p9cc09daab7)">
     <use style="fill:#0000ff;stroke:#0000ff;" x="187.160727" xlink:href="#m8e039f6681" y="151.233662"/>
    </g>
   </g>
   <g id="line2d_33">
    <g clip-path="url(#p9cc09daab7)">
     <use style="fill:#ff0000;stroke:#ff0000;" x="187.717091" xlink:href="#m57366ed8b2" y="134.851325"/>
    </g>
   </g>
   <g id="line2d_34">
    <g clip-path="url(#p9cc09daab7)">
     <use style="fill:#0000ff;stroke:#0000ff;" x="187.160727" xlink:href="#m8e039f6681" y="134.851325"/>
    </g>
   </g>
   <g id="line2d_35">
    <g clip-path="url(#p9cc09daab7)">
     <use style="fill:#ff0000;stroke:#ff0000;" x="187.717091" xlink:href="#m57366ed8b2" y="118.468987"/>
    </g>
   </g>
   <g id="line2d_36">
    <g clip-path="url(#p9cc09daab7)">
     <use style="fill:#0000ff;stroke:#0000ff;" x="187.438909" xlink:href="#m8e039f6681" y="118.468987"/>
    </g>
   </g>
   <g id="line2d_37">
    <g clip-path="url(#p9cc09daab7)">
     <use style="fill:#ff0000;stroke:#ff0000;" x="187.578" xlink:href="#m57366ed8b2" y="102.086649"/>
    </g>
   </g>
   <g id="line2d_38">
    <g clip-path="url(#p9cc09daab7)">
     <use style="fill:#0000ff;stroke:#0000ff;" x="187.438909" xlink:href="#m8e039f6681" y="102.086649"/>
    </g>
   </g>
   <g id="line2d_39">
    <g clip-path="url(#p9cc09daab7)">
     <use style="fill:#ff0000;stroke:#ff0000;" x="187.578" xlink:href="#m57366ed8b2" y="85.704312"/>
    </g>
   </g>
   <g id="line2d_40">
    <g clip-path="url(#p9cc09daab7)">
     <use style="fill:#0000ff;stroke:#0000ff;" x="187.508455" xlink:href="#m8e039f6681" y="85.704312"/>
    </g>
   </g>
   <g id="line2d_41">
    <g clip-path="url(#p9cc09daab7)">
     <use style="fill:#ff0000;stroke:#ff0000;" x="187.543227" xlink:href="#m57366ed8b2" y="69.321974"/>
    </g>
   </g>
   <g id="line2d_42">
    <g clip-path="url(#p9cc09daab7)">
     <use style="fill:#0000ff;stroke:#0000ff;" x="187.508455" xlink:href="#m8e039f6681" y="69.321974"/>
    </g>
   </g>
   <g id="line2d_43">
    <g clip-path="url(#p9cc09daab7)">
     <use style="fill:#ff0000;stroke:#ff0000;" x="187.543227" xlink:href="#m57366ed8b2" y="52.939636"/>
    </g>
   </g>
   <g id="line2d_44">
    <g clip-path="url(#p9cc09daab7)">
     <use style="fill:#0000ff;stroke:#0000ff;" x="187.525841" xlink:href="#m8e039f6681" y="52.939636"/>
    </g>
   </g>
   <g id="patch_3">
    <path d="M 78.336 293.76 
L 78.336 41.472 
" style="fill:none;stroke:#000000;stroke-linecap:square;stroke-linejoin:miter;stroke-width:1.5;"/>
   </g>
   <g id="patch_4">
    <path d="M 391.68 293.76 
L 391.68 41.472 
" style="fill:none;stroke:#000000;stroke-linecap:square;stroke-linejoin:miter;stroke-width:1.5;"/>
   </g>
   <g id="patch_5">
    <path d="M 78.336 293.76 
L 391.68 293.76 
" style="fill:none;stroke:#000000;stroke-linecap:square;stroke-linejoin:miter;stroke-width:1.5;"/>
   </g>
   <g id="patch_6">
    <path d="M 78.336 41.472 
L 391.68 41.472 
" style="fill:none;stroke:#000000;stroke-linecap:square;stroke-linejoin:miter;stroke-width:1.5;"/>
   </g>
  </g>
 </g>
 <defs>
  <clipPath id="p9cc09daab7">
   <rect height="252.288" width="313.344" x="78.336" y="41.472"/>
  </clipPath>
 </defs>
</svg>
