<?xml version="1.0" encoding="utf-8" standalone="no"?>
<!DOCTYPE svg PUBLIC "-//W3C//DTD SVG 1.1//EN"
  "http://www.w3.org/Graphics/SVG/1.1/DTD/svg11.dtd">
<!-- Created with matplotlib (https://matplotlib.org/) -->
<svg height="345.6pt" version="1.1" viewBox="0 0 460.8 345.6" width="460.8pt" xmlns="http://www.w3.org/2000/svg" xmlns:xlink="http://www.w3.org/1999/xlink">
 <defs>
  <style type="text/css">
*{stroke-linecap:butt;stroke-linejoin:round;}
  </style>
 </defs>
 <g id="figure_1">
  <g id="patch_1">
   <path d="M 0 345.6 
L 460.8 345.6 
L 460.8 0 
L 0 0 
z
" style="fill:#ffffff;"/>
  </g>
  <g id="axes_1">
   <g id="patch_2">
    <path d="M 78.336 228.649901 
L 391.68 228.649901 
L 391.68 106.582099 
L 78.336 106.582099 
z
" style="fill:#ffffff;"/>
   </g>
   <g id="matplotlib.axis_1">
    <g id="xtick_1">
     <g id="line2d_1">
      <defs>
       <path d="M 0 0 
L 0 12 
" id="m9f426e962b" style="stroke:#000000;stroke-width:1.5;"/>
      </defs>
      <g>
       <use style="stroke:#000000;stroke-width:1.5;" x="145.989818" xlink:href="#m9f426e962b" y="228.649901"/>
      </g>
     </g>
     <g id="text_1">
      <!-- −5 -->
      <defs>
       <path d="M 10.59375 35.5 
L 73.1875 35.5 
L 73.1875 27.203125 
L 10.59375 27.203125 
z
" id="DejaVuSans-8722"/>
       <path d="M 10.796875 72.90625 
L 49.515625 72.90625 
L 49.515625 64.59375 
L 19.828125 64.59375 
L 19.828125 46.734375 
Q 21.96875 47.46875 24.109375 47.828125 
Q 26.265625 48.1875 28.421875 48.1875 
Q 40.625 48.1875 47.75 41.5 
Q 54.890625 34.8125 54.890625 23.390625 
Q 54.890625 11.625 47.5625 5.09375 
Q 40.234375 -1.421875 26.90625 -1.421875 
Q 22.3125 -1.421875 17.546875 -0.640625 
Q 12.796875 0.140625 7.71875 1.703125 
L 7.71875 11.625 
Q 12.109375 9.234375 16.796875 8.0625 
Q 21.484375 6.890625 26.703125 6.890625 
Q 35.15625 6.890625 40.078125 11.328125 
Q 45.015625 15.765625 45.015625 23.390625 
Q 45.015625 31 40.078125 35.4375 
Q 35.15625 39.890625 26.703125 39.890625 
Q 22.75 39.890625 18.8125 39.015625 
Q 14.890625 38.140625 10.796875 36.28125 
z
" id="DejaVuSans-53"/>
      </defs>
      <g transform="translate(135.670287 254.787714)scale(0.14 -0.14)">
       <use xlink:href="#DejaVuSans-8722"/>
       <use x="83.789062" xlink:href="#DejaVuSans-53"/>
      </g>
     </g>
    </g>
    <g id="xtick_2">
     <g id="line2d_2">
      <g>
       <use style="stroke:#000000;stroke-width:1.5;" x="235.008" xlink:href="#m9f426e962b" y="228.649901"/>
      </g>
     </g>
     <g id="text_2">
      <!-- 0 -->
      <defs>
       <path d="M 31.78125 66.40625 
Q 24.171875 66.40625 20.328125 58.90625 
Q 16.5 51.421875 16.5 36.375 
Q 16.5 21.390625 20.328125 13.890625 
Q 24.171875 6.390625 31.78125 6.390625 
Q 39.453125 6.390625 43.28125 13.890625 
Q 47.125 21.390625 47.125 36.375 
Q 47.125 51.421875 43.28125 58.90625 
Q 39.453125 66.40625 31.78125 66.40625 
z
M 31.78125 74.21875 
Q 44.046875 74.21875 50.515625 64.515625 
Q 56.984375 54.828125 56.984375 36.375 
Q 56.984375 17.96875 50.515625 8.265625 
Q 44.046875 -1.421875 31.78125 -1.421875 
Q 19.53125 -1.421875 13.0625 8.265625 
Q 6.59375 17.96875 6.59375 36.375 
Q 6.59375 54.828125 13.0625 64.515625 
Q 19.53125 74.21875 31.78125 74.21875 
z
" id="DejaVuSans-48"/>
      </defs>
      <g transform="translate(230.55425 254.787714)scale(0.14 -0.14)">
       <use xlink:href="#DejaVuSans-48"/>
      </g>
     </g>
    </g>
    <g id="xtick_3">
     <g id="line2d_3">
      <g>
       <use style="stroke:#000000;stroke-width:1.5;" x="324.026182" xlink:href="#m9f426e962b" y="228.649901"/>
      </g>
     </g>
     <g id="text_3">
      <!-- 5 -->
      <g transform="translate(319.572432 254.787714)scale(0.14 -0.14)">
       <use xlink:href="#DejaVuSans-53"/>
      </g>
     </g>
    </g>
    <g id="text_4">
     <!-- x -->
     <defs>
      <path d="M 54.890625 54.6875 
L 35.109375 28.078125 
L 55.90625 0 
L 45.3125 0 
L 29.390625 21.484375 
L 13.484375 0 
L 2.875 0 
L 24.125 28.609375 
L 4.6875 54.6875 
L 15.28125 54.6875 
L 29.78125 35.203125 
L 44.28125 54.6875 
z
" id="DejaVuSans-120"/>
     </defs>
     <g transform="translate(230.864875 272.337089)scale(0.14 -0.14)">
      <use xlink:href="#DejaVuSans-120"/>
     </g>
    </g>
   </g>
   <g id="matplotlib.axis_2">
    <g id="ytick_1">
     <g id="line2d_4">
      <defs>
       <path d="M 0 0 
L -12 0 
" id="m360e4cf191" style="stroke:#000000;stroke-width:1.5;"/>
      </defs>
      <g>
       <use style="stroke:#000000;stroke-width:1.5;" x="78.336" xlink:href="#m360e4cf191" y="223.101365"/>
      </g>
     </g>
     <g id="text_5">
      <!-- 0 -->
      <g transform="translate(53.9285 228.420271)scale(0.14 -0.14)">
       <use xlink:href="#DejaVuSans-48"/>
      </g>
     </g>
    </g>
    <g id="ytick_2">
     <g id="line2d_5">
      <g>
       <use style="stroke:#000000;stroke-width:1.5;" x="78.336" xlink:href="#m360e4cf191" y="187.494092"/>
      </g>
     </g>
     <g id="text_6">
      <!-- 2 -->
      <defs>
       <path d="M 19.1875 8.296875 
L 53.609375 8.296875 
L 53.609375 0 
L 7.328125 0 
L 7.328125 8.296875 
Q 12.9375 14.109375 22.625 23.890625 
Q 32.328125 33.6875 34.8125 36.53125 
Q 39.546875 41.84375 41.421875 45.53125 
Q 43.3125 49.21875 43.3125 52.78125 
Q 43.3125 58.59375 39.234375 62.25 
Q 35.15625 65.921875 28.609375 65.921875 
Q 23.96875 65.921875 18.8125 64.3125 
Q 13.671875 62.703125 7.8125 59.421875 
L 7.8125 69.390625 
Q 13.765625 71.78125 18.9375 73 
Q 24.125 74.21875 28.421875 74.21875 
Q 39.75 74.21875 46.484375 68.546875 
Q 53.21875 62.890625 53.21875 53.421875 
Q 53.21875 48.921875 51.53125 44.890625 
Q 49.859375 40.875 45.40625 35.40625 
Q 44.1875 33.984375 37.640625 27.21875 
Q 31.109375 20.453125 19.1875 8.296875 
z
" id="DejaVuSans-50"/>
      </defs>
      <g transform="translate(53.9285 192.812998)scale(0.14 -0.14)">
       <use xlink:href="#DejaVuSans-50"/>
      </g>
     </g>
    </g>
    <g id="ytick_3">
     <g id="line2d_6">
      <g>
       <use style="stroke:#000000;stroke-width:1.5;" x="78.336" xlink:href="#m360e4cf191" y="151.886819"/>
      </g>
     </g>
     <g id="text_7">
      <!-- 4 -->
      <defs>
       <path d="M 37.796875 64.3125 
L 12.890625 25.390625 
L 37.796875 25.390625 
z
M 35.203125 72.90625 
L 47.609375 72.90625 
L 47.609375 25.390625 
L 58.015625 25.390625 
L 58.015625 17.1875 
L 47.609375 17.1875 
L 47.609375 0 
L 37.796875 0 
L 37.796875 17.1875 
L 4.890625 17.1875 
L 4.890625 26.703125 
z
" id="DejaVuSans-52"/>
      </defs>
      <g transform="translate(53.9285 157.205725)scale(0.14 -0.14)">
       <use xlink:href="#DejaVuSans-52"/>
      </g>
     </g>
    </g>
    <g id="ytick_4">
     <g id="line2d_7">
      <g>
       <use style="stroke:#000000;stroke-width:1.5;" x="78.336" xlink:href="#m360e4cf191" y="116.279546"/>
      </g>
     </g>
     <g id="text_8">
      <!-- 6 -->
      <defs>
       <path d="M 33.015625 40.375 
Q 26.375 40.375 22.484375 35.828125 
Q 18.609375 31.296875 18.609375 23.390625 
Q 18.609375 15.53125 22.484375 10.953125 
Q 26.375 6.390625 33.015625 6.390625 
Q 39.65625 6.390625 43.53125 10.953125 
Q 47.40625 15.53125 47.40625 23.390625 
Q 47.40625 31.296875 43.53125 35.828125 
Q 39.65625 40.375 33.015625 40.375 
z
M 52.59375 71.296875 
L 52.59375 62.3125 
Q 48.875 64.0625 45.09375 64.984375 
Q 41.3125 65.921875 37.59375 65.921875 
Q 27.828125 65.921875 22.671875 59.328125 
Q 17.53125 52.734375 16.796875 39.40625 
Q 19.671875 43.65625 24.015625 45.921875 
Q 28.375 48.1875 33.59375 48.1875 
Q 44.578125 48.1875 50.953125 41.515625 
Q 57.328125 34.859375 57.328125 23.390625 
Q 57.328125 12.15625 50.6875 5.359375 
Q 44.046875 -1.421875 33.015625 -1.421875 
Q 20.359375 -1.421875 13.671875 8.265625 
Q 6.984375 17.96875 6.984375 36.375 
Q 6.984375 53.65625 15.1875 63.9375 
Q 23.390625 74.21875 37.203125 74.21875 
Q 40.921875 74.21875 44.703125 73.484375 
Q 48.484375 72.75 52.59375 71.296875 
z
" id="DejaVuSans-54"/>
      </defs>
      <g transform="translate(53.9285 121.598453)scale(0.14 -0.14)">
       <use xlink:href="#DejaVuSans-54"/>
      </g>
     </g>
    </g>
    <g id="text_9">
     <!-- mod2pi(x) -->
     <defs>
      <path d="M 52 44.1875 
Q 55.375 50.25 60.0625 53.125 
Q 64.75 56 71.09375 56 
Q 79.640625 56 84.28125 50.015625 
Q 88.921875 44.046875 88.921875 33.015625 
L 88.921875 0 
L 79.890625 0 
L 79.890625 32.71875 
Q 79.890625 40.578125 77.09375 44.375 
Q 74.3125 48.1875 68.609375 48.1875 
Q 61.625 48.1875 57.5625 43.546875 
Q 53.515625 38.921875 53.515625 30.90625 
L 53.515625 0 
L 44.484375 0 
L 44.484375 32.71875 
Q 44.484375 40.625 41.703125 44.40625 
Q 38.921875 48.1875 33.109375 48.1875 
Q 26.21875 48.1875 22.15625 43.53125 
Q 18.109375 38.875 18.109375 30.90625 
L 18.109375 0 
L 9.078125 0 
L 9.078125 54.6875 
L 18.109375 54.6875 
L 18.109375 46.1875 
Q 21.1875 51.21875 25.484375 53.609375 
Q 29.78125 56 35.6875 56 
Q 41.65625 56 45.828125 52.96875 
Q 50 49.953125 52 44.1875 
z
" id="DejaVuSans-109"/>
      <path d="M 30.609375 48.390625 
Q 23.390625 48.390625 19.1875 42.75 
Q 14.984375 37.109375 14.984375 27.296875 
Q 14.984375 17.484375 19.15625 11.84375 
Q 23.34375 6.203125 30.609375 6.203125 
Q 37.796875 6.203125 41.984375 11.859375 
Q 46.1875 17.53125 46.1875 27.296875 
Q 46.1875 37.015625 41.984375 42.703125 
Q 37.796875 48.390625 30.609375 48.390625 
z
M 30.609375 56 
Q 42.328125 56 49.015625 48.375 
Q 55.71875 40.765625 55.71875 27.296875 
Q 55.71875 13.875 49.015625 6.21875 
Q 42.328125 -1.421875 30.609375 -1.421875 
Q 18.84375 -1.421875 12.171875 6.21875 
Q 5.515625 13.875 5.515625 27.296875 
Q 5.515625 40.765625 12.171875 48.375 
Q 18.84375 56 30.609375 56 
z
" id="DejaVuSans-111"/>
      <path d="M 45.40625 46.390625 
L 45.40625 75.984375 
L 54.390625 75.984375 
L 54.390625 0 
L 45.40625 0 
L 45.40625 8.203125 
Q 42.578125 3.328125 38.25 0.953125 
Q 33.9375 -1.421875 27.875 -1.421875 
Q 17.96875 -1.421875 11.734375 6.484375 
Q 5.515625 14.40625 5.515625 27.296875 
Q 5.515625 40.1875 11.734375 48.09375 
Q 17.96875 56 27.875 56 
Q 33.9375 56 38.25 53.625 
Q 42.578125 51.265625 45.40625 46.390625 
z
M 14.796875 27.296875 
Q 14.796875 17.390625 18.875 11.75 
Q 22.953125 6.109375 30.078125 6.109375 
Q 37.203125 6.109375 41.296875 11.75 
Q 45.40625 17.390625 45.40625 27.296875 
Q 45.40625 37.203125 41.296875 42.84375 
Q 37.203125 48.484375 30.078125 48.484375 
Q 22.953125 48.484375 18.875 42.84375 
Q 14.796875 37.203125 14.796875 27.296875 
z
" id="DejaVuSans-100"/>
      <path d="M 18.109375 8.203125 
L 18.109375 -20.796875 
L 9.078125 -20.796875 
L 9.078125 54.6875 
L 18.109375 54.6875 
L 18.109375 46.390625 
Q 20.953125 51.265625 25.265625 53.625 
Q 29.59375 56 35.59375 56 
Q 45.5625 56 51.78125 48.09375 
Q 58.015625 40.1875 58.015625 27.296875 
Q 58.015625 14.40625 51.78125 6.484375 
Q 45.5625 -1.421875 35.59375 -1.421875 
Q 29.59375 -1.421875 25.265625 0.953125 
Q 20.953125 3.328125 18.109375 8.203125 
z
M 48.6875 27.296875 
Q 48.6875 37.203125 44.609375 42.84375 
Q 40.53125 48.484375 33.40625 48.484375 
Q 26.265625 48.484375 22.1875 42.84375 
Q 18.109375 37.203125 18.109375 27.296875 
Q 18.109375 17.390625 22.1875 11.75 
Q 26.265625 6.109375 33.40625 6.109375 
Q 40.53125 6.109375 44.609375 11.75 
Q 48.6875 17.390625 48.6875 27.296875 
z
" id="DejaVuSans-112"/>
      <path d="M 9.421875 54.6875 
L 18.40625 54.6875 
L 18.40625 0 
L 9.421875 0 
z
M 9.421875 75.984375 
L 18.40625 75.984375 
L 18.40625 64.59375 
L 9.421875 64.59375 
z
" id="DejaVuSans-105"/>
      <path d="M 31 75.875 
Q 24.46875 64.65625 21.28125 53.65625 
Q 18.109375 42.671875 18.109375 31.390625 
Q 18.109375 20.125 21.3125 9.0625 
Q 24.515625 -2 31 -13.1875 
L 23.1875 -13.1875 
Q 15.875 -1.703125 12.234375 9.375 
Q 8.59375 20.453125 8.59375 31.390625 
Q 8.59375 42.28125 12.203125 53.3125 
Q 15.828125 64.359375 23.1875 75.875 
z
" id="DejaVuSans-40"/>
      <path d="M 8.015625 75.875 
L 15.828125 75.875 
Q 23.140625 64.359375 26.78125 53.3125 
Q 30.421875 42.28125 30.421875 31.390625 
Q 30.421875 20.453125 26.78125 9.375 
Q 23.140625 -1.703125 15.828125 -13.1875 
L 8.015625 -13.1875 
Q 14.5 -2 17.703125 9.0625 
Q 20.90625 20.125 20.90625 31.390625 
Q 20.90625 42.671875 17.703125 53.65625 
Q 14.5 64.65625 8.015625 75.875 
z
" id="DejaVuSans-41"/>
     </defs>
     <g transform="translate(47.016938 203.609125)rotate(-90)scale(0.14 -0.14)">
      <use xlink:href="#DejaVuSans-109"/>
      <use x="97.412109" xlink:href="#DejaVuSans-111"/>
      <use x="158.59375" xlink:href="#DejaVuSans-100"/>
      <use x="222.070312" xlink:href="#DejaVuSans-50"/>
      <use x="285.693359" xlink:href="#DejaVuSans-112"/>
      <use x="349.169922" xlink:href="#DejaVuSans-105"/>
      <use x="376.953125" xlink:href="#DejaVuSans-40"/>
      <use x="415.966797" xlink:href="#DejaVuSans-120"/>
      <use x="475.146484" xlink:href="#DejaVuSans-41"/>
     </g>
    </g>
   </g>
   <g id="line2d_8">
    <defs>
     <path d="M 0 1.5 
C 0.397805 1.5 0.77937 1.341951 1.06066 1.06066 
C 1.341951 0.77937 1.5 0.397805 1.5 0 
C 1.5 -0.397805 1.341951 -0.77937 1.06066 -1.06066 
C 0.77937 -1.341951 0.397805 -1.5 0 -1.5 
C -0.397805 -1.5 -0.77937 -1.341951 -1.06066 -1.06066 
C -1.341951 -0.77937 -1.5 -0.397805 -1.5 0 
C -1.5 0.397805 -1.341951 0.77937 -1.06066 1.06066 
C -0.77937 1.341951 -0.397805 1.5 0 1.5 
z
" id="mc75d9ca5a8" style="stroke:#1f77b4;"/>
    </defs>
    <g clip-path="url(#pe351eeb3d7)">
     <use style="fill:#1f77b4;stroke:#1f77b4;" x="92.578909" xlink:href="#mc75d9ca5a8" y="141.803363"/>
     <use style="fill:#1f77b4;stroke:#1f77b4;" x="98.513455" xlink:href="#mc75d9ca5a8" y="135.868817"/>
     <use style="fill:#1f77b4;stroke:#1f77b4;" x="104.448" xlink:href="#mc75d9ca5a8" y="129.934272"/>
     <use style="fill:#1f77b4;stroke:#1f77b4;" x="110.382545" xlink:href="#mc75d9ca5a8" y="123.999726"/>
     <use style="fill:#1f77b4;stroke:#1f77b4;" x="116.317091" xlink:href="#mc75d9ca5a8" y="118.065181"/>
     <use style="fill:#1f77b4;stroke:#1f77b4;" x="122.251636" xlink:href="#mc75d9ca5a8" y="112.130635"/>
     <use style="fill:#1f77b4;stroke:#1f77b4;" x="128.186182" xlink:href="#mc75d9ca5a8" y="218.059636"/>
     <use style="fill:#1f77b4;stroke:#1f77b4;" x="134.120727" xlink:href="#mc75d9ca5a8" y="212.125091"/>
     <use style="fill:#1f77b4;stroke:#1f77b4;" x="140.055273" xlink:href="#mc75d9ca5a8" y="206.190545"/>
     <use style="fill:#1f77b4;stroke:#1f77b4;" x="145.989818" xlink:href="#mc75d9ca5a8" y="200.256"/>
     <use style="fill:#1f77b4;stroke:#1f77b4;" x="151.924364" xlink:href="#mc75d9ca5a8" y="194.321455"/>
     <use style="fill:#1f77b4;stroke:#1f77b4;" x="157.858909" xlink:href="#mc75d9ca5a8" y="188.386909"/>
     <use style="fill:#1f77b4;stroke:#1f77b4;" x="163.793455" xlink:href="#mc75d9ca5a8" y="182.452364"/>
     <use style="fill:#1f77b4;stroke:#1f77b4;" x="169.728" xlink:href="#mc75d9ca5a8" y="176.517818"/>
     <use style="fill:#1f77b4;stroke:#1f77b4;" x="175.662545" xlink:href="#mc75d9ca5a8" y="170.583273"/>
     <use style="fill:#1f77b4;stroke:#1f77b4;" x="181.597091" xlink:href="#mc75d9ca5a8" y="164.648727"/>
     <use style="fill:#1f77b4;stroke:#1f77b4;" x="187.531636" xlink:href="#mc75d9ca5a8" y="158.714182"/>
     <use style="fill:#1f77b4;stroke:#1f77b4;" x="193.466182" xlink:href="#mc75d9ca5a8" y="152.779636"/>
     <use style="fill:#1f77b4;stroke:#1f77b4;" x="199.400727" xlink:href="#mc75d9ca5a8" y="146.845091"/>
     <use style="fill:#1f77b4;stroke:#1f77b4;" x="205.335273" xlink:href="#mc75d9ca5a8" y="140.910545"/>
     <use style="fill:#1f77b4;stroke:#1f77b4;" x="211.269818" xlink:href="#mc75d9ca5a8" y="134.976"/>
     <use style="fill:#1f77b4;stroke:#1f77b4;" x="217.204364" xlink:href="#mc75d9ca5a8" y="129.041455"/>
     <use style="fill:#1f77b4;stroke:#1f77b4;" x="223.138909" xlink:href="#mc75d9ca5a8" y="123.106909"/>
     <use style="fill:#1f77b4;stroke:#1f77b4;" x="229.073455" xlink:href="#mc75d9ca5a8" y="117.172364"/>
     <use style="fill:#1f77b4;stroke:#1f77b4;" x="235.008" xlink:href="#mc75d9ca5a8" y="223.101365"/>
     <use style="fill:#1f77b4;stroke:#1f77b4;" x="240.942545" xlink:href="#mc75d9ca5a8" y="217.166819"/>
     <use style="fill:#1f77b4;stroke:#1f77b4;" x="246.877091" xlink:href="#mc75d9ca5a8" y="211.232274"/>
     <use style="fill:#1f77b4;stroke:#1f77b4;" x="252.811636" xlink:href="#mc75d9ca5a8" y="205.297728"/>
     <use style="fill:#1f77b4;stroke:#1f77b4;" x="258.746182" xlink:href="#mc75d9ca5a8" y="199.363183"/>
     <use style="fill:#1f77b4;stroke:#1f77b4;" x="264.680727" xlink:href="#mc75d9ca5a8" y="193.428637"/>
     <use style="fill:#1f77b4;stroke:#1f77b4;" x="270.615273" xlink:href="#mc75d9ca5a8" y="187.494092"/>
     <use style="fill:#1f77b4;stroke:#1f77b4;" x="276.549818" xlink:href="#mc75d9ca5a8" y="181.559546"/>
     <use style="fill:#1f77b4;stroke:#1f77b4;" x="282.484364" xlink:href="#mc75d9ca5a8" y="175.625001"/>
     <use style="fill:#1f77b4;stroke:#1f77b4;" x="288.418909" xlink:href="#mc75d9ca5a8" y="169.690456"/>
     <use style="fill:#1f77b4;stroke:#1f77b4;" x="294.353455" xlink:href="#mc75d9ca5a8" y="163.75591"/>
     <use style="fill:#1f77b4;stroke:#1f77b4;" x="300.288" xlink:href="#mc75d9ca5a8" y="157.821365"/>
     <use style="fill:#1f77b4;stroke:#1f77b4;" x="306.222545" xlink:href="#mc75d9ca5a8" y="151.886819"/>
     <use style="fill:#1f77b4;stroke:#1f77b4;" x="312.157091" xlink:href="#mc75d9ca5a8" y="145.952274"/>
     <use style="fill:#1f77b4;stroke:#1f77b4;" x="318.091636" xlink:href="#mc75d9ca5a8" y="140.017728"/>
     <use style="fill:#1f77b4;stroke:#1f77b4;" x="324.026182" xlink:href="#mc75d9ca5a8" y="134.083183"/>
     <use style="fill:#1f77b4;stroke:#1f77b4;" x="329.960727" xlink:href="#mc75d9ca5a8" y="128.148637"/>
     <use style="fill:#1f77b4;stroke:#1f77b4;" x="335.895273" xlink:href="#mc75d9ca5a8" y="122.214092"/>
     <use style="fill:#1f77b4;stroke:#1f77b4;" x="341.829818" xlink:href="#mc75d9ca5a8" y="116.279546"/>
     <use style="fill:#1f77b4;stroke:#1f77b4;" x="347.764364" xlink:href="#mc75d9ca5a8" y="222.208547"/>
     <use style="fill:#1f77b4;stroke:#1f77b4;" x="353.698909" xlink:href="#mc75d9ca5a8" y="216.274002"/>
     <use style="fill:#1f77b4;stroke:#1f77b4;" x="359.633455" xlink:href="#mc75d9ca5a8" y="210.339456"/>
     <use style="fill:#1f77b4;stroke:#1f77b4;" x="365.568" xlink:href="#mc75d9ca5a8" y="204.404911"/>
     <use style="fill:#1f77b4;stroke:#1f77b4;" x="371.502545" xlink:href="#mc75d9ca5a8" y="198.470366"/>
     <use style="fill:#1f77b4;stroke:#1f77b4;" x="377.437091" xlink:href="#mc75d9ca5a8" y="192.53582"/>
    </g>
   </g>
   <g id="line2d_9">
    <path clip-path="url(#pe351eeb3d7)" d="M 78.336 223.101365 
L 391.68 223.101365 
" style="fill:none;stroke:#000000;stroke-linecap:square;stroke-width:0.5;"/>
   </g>
   <g id="line2d_10">
    <path clip-path="url(#pe351eeb3d7)" d="M 78.336 111.237818 
L 391.68 111.237818 
" style="fill:none;stroke:#000000;stroke-linecap:square;stroke-width:0.5;"/>
   </g>
   <g id="patch_3">
    <path d="M 78.336 228.649901 
L 78.336 106.582099 
" style="fill:none;stroke:#000000;stroke-linecap:square;stroke-linejoin:miter;stroke-width:1.5;"/>
   </g>
   <g id="patch_4">
    <path d="M 391.68 228.649901 
L 391.68 106.582099 
" style="fill:none;stroke:#000000;stroke-linecap:square;stroke-linejoin:miter;stroke-width:1.5;"/>
   </g>
   <g id="patch_5">
    <path d="M 78.336 228.649901 
L 391.68 228.649901 
" style="fill:none;stroke:#000000;stroke-linecap:square;stroke-linejoin:miter;stroke-width:1.5;"/>
   </g>
   <g id="patch_6">
    <path d="M 78.336 106.582099 
L 391.68 106.582099 
" style="fill:none;stroke:#000000;stroke-linecap:square;stroke-linejoin:miter;stroke-width:1.5;"/>
   </g>
  </g>
 </g>
 <defs>
  <clipPath id="pe351eeb3d7">
   <rect height="122.067802" width="313.344" x="78.336" y="106.582099"/>
  </clipPath>
 </defs>
</svg>
