<?xml version="1.0" encoding="utf-8" standalone="no"?>
<!DOCTYPE svg PUBLIC "-//W3C//DTD SVG 1.1//EN"
  "http://www.w3.org/Graphics/SVG/1.1/DTD/svg11.dtd">
<!-- Created with matplotlib (https://matplotlib.org/) -->
<svg height="345.6pt" version="1.1" viewBox="0 0 460.8 345.6" width="460.8pt" xmlns="http://www.w3.org/2000/svg" xmlns:xlink="http://www.w3.org/1999/xlink">
 <defs>
  <style type="text/css">
*{stroke-linecap:butt;stroke-linejoin:round;}
  </style>
 </defs>
 <g id="figure_1">
  <g id="patch_1">
   <path d="M 0 345.6 
L 460.8 345.6 
L 460.8 0 
L 0 0 
z
" style="fill:#ffffff;"/>
  </g>
  <g id="axes_1">
   <g id="patch_2">
    <path d="M 78.336 293.76 
L 391.68 293.76 
L 391.68 41.472 
L 78.336 41.472 
z
" style="fill:#ffffff;"/>
   </g>
   <g id="matplotlib.axis_1">
    <g id="xtick_1">
     <g id="line2d_1">
      <defs>
       <path d="M 0 0 
L 0 12 
" id="mff883d8712" style="stroke:#000000;stroke-width:1.5;"/>
      </defs>
      <g>
       <use style="stroke:#000000;stroke-width:1.5;" x="121.064727" xlink:href="#mff883d8712" y="293.76"/>
      </g>
     </g>
     <g id="text_1">
      <!-- $\mathdefault{10^{-17}}$ -->
      <defs>
       <path d="M 12.40625 8.296875 
L 28.515625 8.296875 
L 28.515625 63.921875 
L 10.984375 60.40625 
L 10.984375 69.390625 
L 28.421875 72.90625 
L 38.28125 72.90625 
L 38.28125 8.296875 
L 54.390625 8.296875 
L 54.390625 0 
L 12.40625 0 
z
" id="DejaVuSans-49"/>
       <path d="M 31.78125 66.40625 
Q 24.171875 66.40625 20.328125 58.90625 
Q 16.5 51.421875 16.5 36.375 
Q 16.5 21.390625 20.328125 13.890625 
Q 24.171875 6.390625 31.78125 6.390625 
Q 39.453125 6.390625 43.28125 13.890625 
Q 47.125 21.390625 47.125 36.375 
Q 47.125 51.421875 43.28125 58.90625 
Q 39.453125 66.40625 31.78125 66.40625 
z
M 31.78125 74.21875 
Q 44.046875 74.21875 50.515625 64.515625 
Q 56.984375 54.828125 56.984375 36.375 
Q 56.984375 17.96875 50.515625 8.265625 
Q 44.046875 -1.421875 31.78125 -1.421875 
Q 19.53125 -1.421875 13.0625 8.265625 
Q 6.59375 17.96875 6.59375 36.375 
Q 6.59375 54.828125 13.0625 64.515625 
Q 19.53125 74.21875 31.78125 74.21875 
z
" id="DejaVuSans-48"/>
       <path d="M 10.59375 35.5 
L 73.1875 35.5 
L 73.1875 27.203125 
L 10.59375 27.203125 
z
" id="DejaVuSans-8722"/>
       <path d="M 8.203125 72.90625 
L 55.078125 72.90625 
L 55.078125 68.703125 
L 28.609375 0 
L 18.3125 0 
L 43.21875 64.59375 
L 8.203125 64.59375 
z
" id="DejaVuSans-55"/>
      </defs>
      <g transform="translate(101.534727 319.897812)scale(0.14 -0.14)">
       <use transform="translate(0 0.684375)" xlink:href="#DejaVuSans-49"/>
       <use transform="translate(63.623047 0.684375)" xlink:href="#DejaVuSans-48"/>
       <use transform="translate(128.203125 38.965625)scale(0.7)" xlink:href="#DejaVuSans-8722"/>
       <use transform="translate(186.855469 38.965625)scale(0.7)" xlink:href="#DejaVuSans-49"/>
       <use transform="translate(231.391602 38.965625)scale(0.7)" xlink:href="#DejaVuSans-55"/>
      </g>
     </g>
    </g>
    <g id="xtick_2">
     <g id="line2d_2">
      <g>
       <use style="stroke:#000000;stroke-width:1.5;" x="178.036364" xlink:href="#mff883d8712" y="293.76"/>
      </g>
     </g>
     <g id="text_2">
      <!-- $\mathdefault{10^{-15}}$ -->
      <defs>
       <path d="M 10.796875 72.90625 
L 49.515625 72.90625 
L 49.515625 64.59375 
L 19.828125 64.59375 
L 19.828125 46.734375 
Q 21.96875 47.46875 24.109375 47.828125 
Q 26.265625 48.1875 28.421875 48.1875 
Q 40.625 48.1875 47.75 41.5 
Q 54.890625 34.8125 54.890625 23.390625 
Q 54.890625 11.625 47.5625 5.09375 
Q 40.234375 -1.421875 26.90625 -1.421875 
Q 22.3125 -1.421875 17.546875 -0.640625 
Q 12.796875 0.140625 7.71875 1.703125 
L 7.71875 11.625 
Q 12.109375 9.234375 16.796875 8.0625 
Q 21.484375 6.890625 26.703125 6.890625 
Q 35.15625 6.890625 40.078125 11.328125 
Q 45.015625 15.765625 45.015625 23.390625 
Q 45.015625 31 40.078125 35.4375 
Q 35.15625 39.890625 26.703125 39.890625 
Q 22.75 39.890625 18.8125 39.015625 
Q 14.890625 38.140625 10.796875 36.28125 
z
" id="DejaVuSans-53"/>
      </defs>
      <g transform="translate(158.506364 319.897812)scale(0.14 -0.14)">
       <use transform="translate(0 0.684375)" xlink:href="#DejaVuSans-49"/>
       <use transform="translate(63.623047 0.684375)" xlink:href="#DejaVuSans-48"/>
       <use transform="translate(128.203125 38.965625)scale(0.7)" xlink:href="#DejaVuSans-8722"/>
       <use transform="translate(186.855469 38.965625)scale(0.7)" xlink:href="#DejaVuSans-49"/>
       <use transform="translate(231.391602 38.965625)scale(0.7)" xlink:href="#DejaVuSans-53"/>
      </g>
     </g>
    </g>
    <g id="xtick_3">
     <g id="line2d_3">
      <g>
       <use style="stroke:#000000;stroke-width:1.5;" x="235.008" xlink:href="#mff883d8712" y="293.76"/>
      </g>
     </g>
     <g id="text_3">
      <!-- $\mathdefault{10^{-13}}$ -->
      <defs>
       <path d="M 40.578125 39.3125 
Q 47.65625 37.796875 51.625 33 
Q 55.609375 28.21875 55.609375 21.1875 
Q 55.609375 10.40625 48.1875 4.484375 
Q 40.765625 -1.421875 27.09375 -1.421875 
Q 22.515625 -1.421875 17.65625 -0.515625 
Q 12.796875 0.390625 7.625 2.203125 
L 7.625 11.71875 
Q 11.71875 9.328125 16.59375 8.109375 
Q 21.484375 6.890625 26.8125 6.890625 
Q 36.078125 6.890625 40.9375 10.546875 
Q 45.796875 14.203125 45.796875 21.1875 
Q 45.796875 27.640625 41.28125 31.265625 
Q 36.765625 34.90625 28.71875 34.90625 
L 20.21875 34.90625 
L 20.21875 43.015625 
L 29.109375 43.015625 
Q 36.375 43.015625 40.234375 45.921875 
Q 44.09375 48.828125 44.09375 54.296875 
Q 44.09375 59.90625 40.109375 62.90625 
Q 36.140625 65.921875 28.71875 65.921875 
Q 24.65625 65.921875 20.015625 65.03125 
Q 15.375 64.15625 9.8125 62.3125 
L 9.8125 71.09375 
Q 15.4375 72.65625 20.34375 73.4375 
Q 25.25 74.21875 29.59375 74.21875 
Q 40.828125 74.21875 47.359375 69.109375 
Q 53.90625 64.015625 53.90625 55.328125 
Q 53.90625 49.265625 50.4375 45.09375 
Q 46.96875 40.921875 40.578125 39.3125 
z
" id="DejaVuSans-51"/>
      </defs>
      <g transform="translate(215.478 319.897812)scale(0.14 -0.14)">
       <use transform="translate(0 0.765625)" xlink:href="#DejaVuSans-49"/>
       <use transform="translate(63.623047 0.765625)" xlink:href="#DejaVuSans-48"/>
       <use transform="translate(128.203125 39.046875)scale(0.7)" xlink:href="#DejaVuSans-8722"/>
       <use transform="translate(186.855469 39.046875)scale(0.7)" xlink:href="#DejaVuSans-49"/>
       <use transform="translate(231.391602 39.046875)scale(0.7)" xlink:href="#DejaVuSans-51"/>
      </g>
     </g>
    </g>
    <g id="xtick_4">
     <g id="line2d_4">
      <g>
       <use style="stroke:#000000;stroke-width:1.5;" x="291.979636" xlink:href="#mff883d8712" y="293.76"/>
      </g>
     </g>
     <g id="text_4">
      <!-- $\mathdefault{10^{-11}}$ -->
      <g transform="translate(272.449636 319.897812)scale(0.14 -0.14)">
       <use transform="translate(0 0.684375)" xlink:href="#DejaVuSans-49"/>
       <use transform="translate(63.623047 0.684375)" xlink:href="#DejaVuSans-48"/>
       <use transform="translate(128.203125 38.965625)scale(0.7)" xlink:href="#DejaVuSans-8722"/>
       <use transform="translate(186.855469 38.965625)scale(0.7)" xlink:href="#DejaVuSans-49"/>
       <use transform="translate(231.391602 38.965625)scale(0.7)" xlink:href="#DejaVuSans-49"/>
      </g>
     </g>
    </g>
    <g id="xtick_5">
     <g id="line2d_5">
      <g>
       <use style="stroke:#000000;stroke-width:1.5;" x="348.951273" xlink:href="#mff883d8712" y="293.76"/>
      </g>
     </g>
     <g id="text_5">
      <!-- $\mathdefault{10^{-9}}$ -->
      <defs>
       <path d="M 10.984375 1.515625 
L 10.984375 10.5 
Q 14.703125 8.734375 18.5 7.8125 
Q 22.3125 6.890625 25.984375 6.890625 
Q 35.75 6.890625 40.890625 13.453125 
Q 46.046875 20.015625 46.78125 33.40625 
Q 43.953125 29.203125 39.59375 26.953125 
Q 35.25 24.703125 29.984375 24.703125 
Q 19.046875 24.703125 12.671875 31.3125 
Q 6.296875 37.9375 6.296875 49.421875 
Q 6.296875 60.640625 12.9375 67.421875 
Q 19.578125 74.21875 30.609375 74.21875 
Q 43.265625 74.21875 49.921875 64.515625 
Q 56.59375 54.828125 56.59375 36.375 
Q 56.59375 19.140625 48.40625 8.859375 
Q 40.234375 -1.421875 26.421875 -1.421875 
Q 22.703125 -1.421875 18.890625 -0.6875 
Q 15.09375 0.046875 10.984375 1.515625 
z
M 30.609375 32.421875 
Q 37.25 32.421875 41.125 36.953125 
Q 45.015625 41.5 45.015625 49.421875 
Q 45.015625 57.28125 41.125 61.84375 
Q 37.25 66.40625 30.609375 66.40625 
Q 23.96875 66.40625 20.09375 61.84375 
Q 16.21875 57.28125 16.21875 49.421875 
Q 16.21875 41.5 20.09375 36.953125 
Q 23.96875 32.421875 30.609375 32.421875 
z
" id="DejaVuSans-57"/>
      </defs>
      <g transform="translate(332.501273 319.897812)scale(0.14 -0.14)">
       <use transform="translate(0 0.765625)" xlink:href="#DejaVuSans-49"/>
       <use transform="translate(63.623047 0.765625)" xlink:href="#DejaVuSans-48"/>
       <use transform="translate(128.203125 39.046875)scale(0.7)" xlink:href="#DejaVuSans-8722"/>
       <use transform="translate(186.855469 39.046875)scale(0.7)" xlink:href="#DejaVuSans-57"/>
      </g>
     </g>
    </g>
    <g id="text_6">
     <!-- h -->
     <defs>
      <path d="M 54.890625 33.015625 
L 54.890625 0 
L 45.90625 0 
L 45.90625 32.71875 
Q 45.90625 40.484375 42.875 44.328125 
Q 39.84375 48.1875 33.796875 48.1875 
Q 26.515625 48.1875 22.3125 43.546875 
Q 18.109375 38.921875 18.109375 30.90625 
L 18.109375 0 
L 9.078125 0 
L 9.078125 75.984375 
L 18.109375 75.984375 
L 18.109375 46.1875 
Q 21.34375 51.125 25.703125 53.5625 
Q 30.078125 56 35.796875 56 
Q 45.21875 56 50.046875 50.171875 
Q 54.890625 44.34375 54.890625 33.015625 
z
" id="DejaVuSans-104"/>
     </defs>
     <g transform="translate(230.57175 337.447187)scale(0.14 -0.14)">
      <use xlink:href="#DejaVuSans-104"/>
     </g>
    </g>
   </g>
   <g id="matplotlib.axis_2">
    <g id="ytick_1">
     <g id="line2d_6">
      <defs>
       <path d="M 0 0 
L -12 0 
" id="m440190496a" style="stroke:#000000;stroke-width:1.5;"/>
      </defs>
      <g>
       <use style="stroke:#000000;stroke-width:1.5;" x="78.336" xlink:href="#m440190496a" y="258.891636"/>
      </g>
     </g>
     <g id="text_7">
      <!-- $\mathdefault{10^{0}}$ -->
      <g transform="translate(38.196 264.210543)scale(0.14 -0.14)">
       <use transform="translate(0 0.765625)" xlink:href="#DejaVuSans-49"/>
       <use transform="translate(63.623047 0.765625)" xlink:href="#DejaVuSans-48"/>
       <use transform="translate(128.203125 39.046875)scale(0.7)" xlink:href="#DejaVuSans-48"/>
      </g>
     </g>
    </g>
    <g id="ytick_2">
     <g id="line2d_7">
      <defs>
       <path d="M 0 0 
L -8 0 
" id="m90c4eb7f0c" style="stroke:#000000;stroke-width:1.5;"/>
      </defs>
      <g>
       <use style="stroke:#000000;stroke-width:1.5;" x="78.336" xlink:href="#m90c4eb7f0c" y="287.308849"/>
      </g>
     </g>
    </g>
    <g id="ytick_3">
     <g id="line2d_8">
      <g>
       <use style="stroke:#000000;stroke-width:1.5;" x="78.336" xlink:href="#m90c4eb7f0c" y="272.309242"/>
      </g>
     </g>
    </g>
    <g id="ytick_4">
     <g id="line2d_9">
      <g>
       <use style="stroke:#000000;stroke-width:1.5;" x="78.336" xlink:href="#m90c4eb7f0c" y="170.619712"/>
      </g>
     </g>
     <g id="text_8">
      <!-- $\mathdefault{2\times10^{0}}$ -->
      <defs>
       <path d="M 19.1875 8.296875 
L 53.609375 8.296875 
L 53.609375 0 
L 7.328125 0 
L 7.328125 8.296875 
Q 12.9375 14.109375 22.625 23.890625 
Q 32.328125 33.6875 34.8125 36.53125 
Q 39.546875 41.84375 41.421875 45.53125 
Q 43.3125 49.21875 43.3125 52.78125 
Q 43.3125 58.59375 39.234375 62.25 
Q 35.15625 65.921875 28.609375 65.921875 
Q 23.96875 65.921875 18.8125 64.3125 
Q 13.671875 62.703125 7.8125 59.421875 
L 7.8125 69.390625 
Q 13.765625 71.78125 18.9375 73 
Q 24.125 74.21875 28.421875 74.21875 
Q 39.75 74.21875 46.484375 68.546875 
Q 53.21875 62.890625 53.21875 53.421875 
Q 53.21875 48.921875 51.53125 44.890625 
Q 49.859375 40.875 45.40625 35.40625 
Q 44.1875 33.984375 37.640625 27.21875 
Q 31.109375 20.453125 19.1875 8.296875 
z
" id="DejaVuSans-50"/>
       <path d="M 70.125 53.71875 
L 47.796875 31.296875 
L 70.125 8.984375 
L 64.3125 3.078125 
L 41.890625 25.484375 
L 19.484375 3.078125 
L 13.71875 8.984375 
L 35.984375 31.296875 
L 13.71875 53.71875 
L 19.484375 59.625 
L 41.890625 37.203125 
L 64.3125 59.625 
z
" id="DejaVuSans-215"/>
      </defs>
      <g transform="translate(16.256 175.938618)scale(0.14 -0.14)">
       <use transform="translate(0 0.765625)" xlink:href="#DejaVuSans-50"/>
       <use transform="translate(83.105469 0.765625)" xlink:href="#DejaVuSans-215"/>
       <use transform="translate(186.376953 0.765625)" xlink:href="#DejaVuSans-49"/>
       <use transform="translate(250 0.765625)" xlink:href="#DejaVuSans-48"/>
       <use transform="translate(314.580078 39.046875)scale(0.7)" xlink:href="#DejaVuSans-48"/>
      </g>
     </g>
    </g>
    <g id="ytick_5">
     <g id="line2d_10">
      <g>
       <use style="stroke:#000000;stroke-width:1.5;" x="78.336" xlink:href="#m90c4eb7f0c" y="118.983946"/>
      </g>
     </g>
     <g id="text_9">
      <!-- $\mathdefault{3\times10^{0}}$ -->
      <g transform="translate(16.256 124.302852)scale(0.14 -0.14)">
       <use transform="translate(0 0.765625)" xlink:href="#DejaVuSans-51"/>
       <use transform="translate(83.105469 0.765625)" xlink:href="#DejaVuSans-215"/>
       <use transform="translate(186.376953 0.765625)" xlink:href="#DejaVuSans-49"/>
       <use transform="translate(250 0.765625)" xlink:href="#DejaVuSans-48"/>
       <use transform="translate(314.580078 39.046875)scale(0.7)" xlink:href="#DejaVuSans-48"/>
      </g>
     </g>
    </g>
    <g id="ytick_6">
     <g id="line2d_11">
      <g>
       <use style="stroke:#000000;stroke-width:1.5;" x="78.336" xlink:href="#m90c4eb7f0c" y="82.347787"/>
      </g>
     </g>
     <g id="text_10">
      <!-- $\mathdefault{4\times10^{0}}$ -->
      <defs>
       <path d="M 37.796875 64.3125 
L 12.890625 25.390625 
L 37.796875 25.390625 
z
M 35.203125 72.90625 
L 47.609375 72.90625 
L 47.609375 25.390625 
L 58.015625 25.390625 
L 58.015625 17.1875 
L 47.609375 17.1875 
L 47.609375 0 
L 37.796875 0 
L 37.796875 17.1875 
L 4.890625 17.1875 
L 4.890625 26.703125 
z
" id="DejaVuSans-52"/>
      </defs>
      <g transform="translate(16.256 87.666693)scale(0.14 -0.14)">
       <use transform="translate(0 0.765625)" xlink:href="#DejaVuSans-52"/>
       <use transform="translate(83.105469 0.765625)" xlink:href="#DejaVuSans-215"/>
       <use transform="translate(186.376953 0.765625)" xlink:href="#DejaVuSans-49"/>
       <use transform="translate(250 0.765625)" xlink:href="#DejaVuSans-48"/>
       <use transform="translate(314.580078 39.046875)scale(0.7)" xlink:href="#DejaVuSans-48"/>
      </g>
     </g>
    </g>
    <g id="ytick_7">
     <g id="line2d_12">
      <g>
       <use style="stroke:#000000;stroke-width:1.5;" x="78.336" xlink:href="#m90c4eb7f0c" y="53.930575"/>
      </g>
     </g>
    </g>
    <g id="text_11">
     <!-- d -->
     <defs>
      <path d="M 45.40625 46.390625 
L 45.40625 75.984375 
L 54.390625 75.984375 
L 54.390625 0 
L 45.40625 0 
L 45.40625 8.203125 
Q 42.578125 3.328125 38.25 0.953125 
Q 33.9375 -1.421875 27.875 -1.421875 
Q 17.96875 -1.421875 11.734375 6.484375 
Q 5.515625 14.40625 5.515625 27.296875 
Q 5.515625 40.1875 11.734375 48.09375 
Q 17.96875 56 27.875 56 
Q 33.9375 56 38.25 53.625 
Q 42.578125 51.265625 45.40625 46.390625 
z
M 14.796875 27.296875 
Q 14.796875 17.390625 18.875 11.75 
Q 22.953125 6.109375 30.078125 6.109375 
Q 37.203125 6.109375 41.296875 11.75 
Q 45.40625 17.390625 45.40625 27.296875 
Q 45.40625 37.203125 41.296875 42.84375 
Q 37.203125 48.484375 30.078125 48.484375 
Q 22.953125 48.484375 18.875 42.84375 
Q 14.796875 37.203125 14.796875 27.296875 
z
" id="DejaVuSans-100"/>
     </defs>
     <g transform="translate(9.344437 172.059906)rotate(-90)scale(0.14 -0.14)">
      <use xlink:href="#DejaVuSans-100"/>
     </g>
    </g>
   </g>
   <g id="line2d_13">
    <defs>
     <path d="M 0 1.5 
C 0.397805 1.5 0.77937 1.341951 1.06066 1.06066 
C 1.341951 0.77937 1.5 0.397805 1.5 0 
C 1.5 -0.397805 1.341951 -0.77937 1.06066 -1.06066 
C 0.77937 -1.341951 0.397805 -1.5 0 -1.5 
C -0.397805 -1.5 -0.77937 -1.341951 -1.06066 -1.06066 
C -1.341951 -0.77937 -1.5 -0.397805 -1.5 0 
C -1.5 0.397805 -1.341951 0.77937 -1.06066 1.06066 
C -0.77937 1.341951 -0.397805 1.5 0 1.5 
z
" id="me51b79faee" style="stroke:#1f77b4;"/>
    </defs>
    <g clip-path="url(#p7513be960a)">
     <use style="fill:#1f77b4;stroke:#1f77b4;" x="152.761142" xlink:href="#me51b79faee" y="24884.2"/>
     <use style="fill:#1f77b4;stroke:#1f77b4;" x="153.003372" xlink:href="#me51b79faee" y="192.847327"/>
     <use style="fill:#1f77b4;stroke:#1f77b4;" x="155.880727" xlink:href="#me51b79faee" y="222.46682"/>
     <use style="fill:#1f77b4;stroke:#1f77b4;" x="158.758083" xlink:href="#me51b79faee" y="252.086314"/>
     <use style="fill:#1f77b4;stroke:#1f77b4;" x="161.635438" xlink:href="#me51b79faee" y="281.705808"/>
     <use style="fill:#1f77b4;stroke:#1f77b4;" x="164.512793" xlink:href="#me51b79faee" y="223.053376"/>
     <use style="fill:#1f77b4;stroke:#1f77b4;" x="167.390149" xlink:href="#me51b79faee" y="252.67287"/>
     <use style="fill:#1f77b4;stroke:#1f77b4;" x="170.267504" xlink:href="#me51b79faee" y="282.292364"/>
     <use style="fill:#1f77b4;stroke:#1f77b4;" x="173.14486" xlink:href="#me51b79faee" y="260.276091"/>
     <use style="fill:#1f77b4;stroke:#1f77b4;" x="176.022215" xlink:href="#me51b79faee" y="253.259426"/>
     <use style="fill:#1f77b4;stroke:#1f77b4;" x="178.89957" xlink:href="#me51b79faee" y="254.461707"/>
     <use style="fill:#1f77b4;stroke:#1f77b4;" x="181.776926" xlink:href="#me51b79faee" y="260.862648"/>
     <use style="fill:#1f77b4;stroke:#1f77b4;" x="184.654281" xlink:href="#me51b79faee" y="253.845982"/>
     <use style="fill:#1f77b4;stroke:#1f77b4;" x="187.531636" xlink:href="#me51b79faee" y="255.048263"/>
     <use style="fill:#1f77b4;stroke:#1f77b4;" x="190.408992" xlink:href="#me51b79faee" y="261.449204"/>
     <use style="fill:#1f77b4;stroke:#1f77b4;" x="193.286347" xlink:href="#me51b79faee" y="262.651485"/>
     <use style="fill:#1f77b4;stroke:#1f77b4;" x="196.163702" xlink:href="#me51b79faee" y="262.166993"/>
     <use style="fill:#1f77b4;stroke:#1f77b4;" x="199.041058" xlink:href="#me51b79faee" y="256.8371"/>
     <use style="fill:#1f77b4;stroke:#1f77b4;" x="201.918413" xlink:href="#me51b79faee" y="259.062274"/>
     <use style="fill:#1f77b4;stroke:#1f77b4;" x="204.795769" xlink:href="#me51b79faee" y="259.445585"/>
     <use style="fill:#1f77b4;stroke:#1f77b4;" x="207.673124" xlink:href="#me51b79faee" y="259.996461"/>
     <use style="fill:#1f77b4;stroke:#1f77b4;" x="210.550479" xlink:href="#me51b79faee" y="259.64883"/>
     <use style="fill:#1f77b4;stroke:#1f77b4;" x="213.427835" xlink:href="#me51b79faee" y="258.409833"/>
     <use style="fill:#1f77b4;stroke:#1f77b4;" x="216.30519" xlink:href="#me51b79faee" y="259.290118"/>
     <use style="fill:#1f77b4;stroke:#1f77b4;" x="219.182545" xlink:href="#me51b79faee" y="259.212494"/>
     <use style="fill:#1f77b4;stroke:#1f77b4;" x="222.059901" xlink:href="#me51b79faee" y="258.996389"/>
     <use style="fill:#1f77b4;stroke:#1f77b4;" x="224.937256" xlink:href="#me51b79faee" y="258.596769"/>
     <use style="fill:#1f77b4;stroke:#1f77b4;" x="227.814612" xlink:href="#me51b79faee" y="258.784308"/>
     <use style="fill:#1f77b4;stroke:#1f77b4;" x="230.691967" xlink:href="#me51b79faee" y="258.779476"/>
     <use style="fill:#1f77b4;stroke:#1f77b4;" x="233.569322" xlink:href="#me51b79faee" y="258.865349"/>
     <use style="fill:#1f77b4;stroke:#1f77b4;" x="236.446678" xlink:href="#me51b79faee" y="258.866509"/>
     <use style="fill:#1f77b4;stroke:#1f77b4;" x="239.324033" xlink:href="#me51b79faee" y="258.96619"/>
     <use style="fill:#1f77b4;stroke:#1f77b4;" x="242.201388" xlink:href="#me51b79faee" y="258.818324"/>
     <use style="fill:#1f77b4;stroke:#1f77b4;" x="245.078744" xlink:href="#me51b79faee" y="258.950699"/>
     <use style="fill:#1f77b4;stroke:#1f77b4;" x="247.956099" xlink:href="#me51b79faee" y="258.85603"/>
     <use style="fill:#1f77b4;stroke:#1f77b4;" x="250.833455" xlink:href="#me51b79faee" y="258.853071"/>
     <use style="fill:#1f77b4;stroke:#1f77b4;" x="253.71081" xlink:href="#me51b79faee" y="258.912073"/>
     <use style="fill:#1f77b4;stroke:#1f77b4;" x="256.588165" xlink:href="#me51b79faee" y="258.897828"/>
     <use style="fill:#1f77b4;stroke:#1f77b4;" x="259.465521" xlink:href="#me51b79faee" y="258.890198"/>
     <use style="fill:#1f77b4;stroke:#1f77b4;" x="262.342876" xlink:href="#me51b79faee" y="258.8765"/>
     <use style="fill:#1f77b4;stroke:#1f77b4;" x="265.220231" xlink:href="#me51b79faee" y="258.892748"/>
     <use style="fill:#1f77b4;stroke:#1f77b4;" x="268.097587" xlink:href="#me51b79faee" y="258.8907"/>
     <use style="fill:#1f77b4;stroke:#1f77b4;" x="270.974942" xlink:href="#me51b79faee" y="258.890281"/>
     <use style="fill:#1f77b4;stroke:#1f77b4;" x="273.852298" xlink:href="#me51b79faee" y="258.890403"/>
     <use style="fill:#1f77b4;stroke:#1f77b4;" x="276.729653" xlink:href="#me51b79faee" y="258.893886"/>
     <use style="fill:#1f77b4;stroke:#1f77b4;" x="279.607008" xlink:href="#me51b79faee" y="258.89125"/>
     <use style="fill:#1f77b4;stroke:#1f77b4;" x="282.484364" xlink:href="#me51b79faee" y="258.89077"/>
     <use style="fill:#1f77b4;stroke:#1f77b4;" x="285.361719" xlink:href="#me51b79faee" y="258.890076"/>
     <use style="fill:#1f77b4;stroke:#1f77b4;" x="288.239074" xlink:href="#me51b79faee" y="258.891074"/>
     <use style="fill:#1f77b4;stroke:#1f77b4;" x="291.11643" xlink:href="#me51b79faee" y="258.89079"/>
     <use style="fill:#1f77b4;stroke:#1f77b4;" x="293.993785" xlink:href="#me51b79faee" y="258.891393"/>
     <use style="fill:#1f77b4;stroke:#1f77b4;" x="296.87114" xlink:href="#me51b79faee" y="258.891684"/>
     <use style="fill:#1f77b4;stroke:#1f77b4;" x="299.748496" xlink:href="#me51b79faee" y="258.89199"/>
     <use style="fill:#1f77b4;stroke:#1f77b4;" x="302.625851" xlink:href="#me51b79faee" y="258.8918"/>
     <use style="fill:#1f77b4;stroke:#1f77b4;" x="305.503207" xlink:href="#me51b79faee" y="258.891187"/>
     <use style="fill:#1f77b4;stroke:#1f77b4;" x="308.380562" xlink:href="#me51b79faee" y="258.891362"/>
     <use style="fill:#1f77b4;stroke:#1f77b4;" x="311.257917" xlink:href="#me51b79faee" y="258.891915"/>
     <use style="fill:#1f77b4;stroke:#1f77b4;" x="314.135273" xlink:href="#me51b79faee" y="258.891497"/>
     <use style="fill:#1f77b4;stroke:#1f77b4;" x="317.012628" xlink:href="#me51b79faee" y="258.89156"/>
     <use style="fill:#1f77b4;stroke:#1f77b4;" x="319.889983" xlink:href="#me51b79faee" y="258.891757"/>
     <use style="fill:#1f77b4;stroke:#1f77b4;" x="322.767339" xlink:href="#me51b79faee" y="258.891676"/>
     <use style="fill:#1f77b4;stroke:#1f77b4;" x="325.644694" xlink:href="#me51b79faee" y="258.891655"/>
     <use style="fill:#1f77b4;stroke:#1f77b4;" x="328.52205" xlink:href="#me51b79faee" y="258.891636"/>
     <use style="fill:#1f77b4;stroke:#1f77b4;" x="331.399405" xlink:href="#me51b79faee" y="258.891622"/>
     <use style="fill:#1f77b4;stroke:#1f77b4;" x="334.27676" xlink:href="#me51b79faee" y="258.89166"/>
     <use style="fill:#1f77b4;stroke:#1f77b4;" x="337.154116" xlink:href="#me51b79faee" y="258.891636"/>
     <use style="fill:#1f77b4;stroke:#1f77b4;" x="340.031471" xlink:href="#me51b79faee" y="258.89164"/>
     <use style="fill:#1f77b4;stroke:#1f77b4;" x="342.908826" xlink:href="#me51b79faee" y="258.891635"/>
     <use style="fill:#1f77b4;stroke:#1f77b4;" x="345.786182" xlink:href="#me51b79faee" y="258.891623"/>
     <use style="fill:#1f77b4;stroke:#1f77b4;" x="348.663537" xlink:href="#me51b79faee" y="258.891627"/>
     <use style="fill:#1f77b4;stroke:#1f77b4;" x="351.540893" xlink:href="#me51b79faee" y="258.891639"/>
     <use style="fill:#1f77b4;stroke:#1f77b4;" x="354.418248" xlink:href="#me51b79faee" y="258.891627"/>
     <use style="fill:#1f77b4;stroke:#1f77b4;" x="357.295603" xlink:href="#me51b79faee" y="258.891638"/>
     <use style="fill:#1f77b4;stroke:#1f77b4;" x="360.172959" xlink:href="#me51b79faee" y="258.891638"/>
     <use style="fill:#1f77b4;stroke:#1f77b4;" x="363.050314" xlink:href="#me51b79faee" y="258.891634"/>
     <use style="fill:#1f77b4;stroke:#1f77b4;" x="365.927669" xlink:href="#me51b79faee" y="258.891636"/>
     <use style="fill:#1f77b4;stroke:#1f77b4;" x="368.805025" xlink:href="#me51b79faee" y="258.891639"/>
     <use style="fill:#1f77b4;stroke:#1f77b4;" x="371.68238" xlink:href="#me51b79faee" y="258.891637"/>
     <use style="fill:#1f77b4;stroke:#1f77b4;" x="374.559736" xlink:href="#me51b79faee" y="258.891636"/>
     <use style="fill:#1f77b4;stroke:#1f77b4;" x="377.437091" xlink:href="#me51b79faee" y="258.891637"/>
    </g>
   </g>
   <g id="line2d_14">
    <defs>
     <path d="M 0 1.5 
C 0.397805 1.5 0.77937 1.341951 1.06066 1.06066 
C 1.341951 0.77937 1.5 0.397805 1.5 0 
C 1.5 -0.397805 1.341951 -0.77937 1.06066 -1.06066 
C 0.77937 -1.341951 0.397805 -1.5 0 -1.5 
C -0.397805 -1.5 -0.77937 -1.341951 -1.06066 -1.06066 
C -1.341951 -0.77937 -1.5 -0.397805 -1.5 0 
C -1.5 0.397805 -1.341951 0.77937 -1.06066 1.06066 
C -0.77937 1.341951 -0.397805 1.5 0 1.5 
z
" id="m97a9df8f6d" style="stroke:#ff7f0e;"/>
    </defs>
    <g clip-path="url(#p7513be960a)">
     <use style="fill:#ff7f0e;stroke:#ff7f0e;" x="152.760349" xlink:href="#m97a9df8f6d" y="24884.2"/>
     <use style="fill:#ff7f0e;stroke:#ff7f0e;" x="153.003372" xlink:href="#m97a9df8f6d" y="104.575402"/>
     <use style="fill:#ff7f0e;stroke:#ff7f0e;" x="155.880727" xlink:href="#m97a9df8f6d" y="134.194896"/>
     <use style="fill:#ff7f0e;stroke:#ff7f0e;" x="158.758083" xlink:href="#m97a9df8f6d" y="163.814389"/>
     <use style="fill:#ff7f0e;stroke:#ff7f0e;" x="161.635438" xlink:href="#m97a9df8f6d" y="193.433883"/>
     <use style="fill:#ff7f0e;stroke:#ff7f0e;" x="164.512793" xlink:href="#m97a9df8f6d" y="134.781452"/>
     <use style="fill:#ff7f0e;stroke:#ff7f0e;" x="167.390149" xlink:href="#m97a9df8f6d" y="164.400945"/>
     <use style="fill:#ff7f0e;stroke:#ff7f0e;" x="170.267504" xlink:href="#m97a9df8f6d" y="194.020439"/>
     <use style="fill:#ff7f0e;stroke:#ff7f0e;" x="173.14486" xlink:href="#m97a9df8f6d" y="172.004167"/>
     <use style="fill:#ff7f0e;stroke:#ff7f0e;" x="176.022215" xlink:href="#m97a9df8f6d" y="164.987502"/>
     <use style="fill:#ff7f0e;stroke:#ff7f0e;" x="178.89957" xlink:href="#m97a9df8f6d" y="166.189783"/>
     <use style="fill:#ff7f0e;stroke:#ff7f0e;" x="181.776926" xlink:href="#m97a9df8f6d" y="172.590723"/>
     <use style="fill:#ff7f0e;stroke:#ff7f0e;" x="184.654281" xlink:href="#m97a9df8f6d" y="165.574058"/>
     <use style="fill:#ff7f0e;stroke:#ff7f0e;" x="187.531636" xlink:href="#m97a9df8f6d" y="166.776339"/>
     <use style="fill:#ff7f0e;stroke:#ff7f0e;" x="190.408992" xlink:href="#m97a9df8f6d" y="173.177279"/>
     <use style="fill:#ff7f0e;stroke:#ff7f0e;" x="193.286347" xlink:href="#m97a9df8f6d" y="174.37956"/>
     <use style="fill:#ff7f0e;stroke:#ff7f0e;" x="196.163702" xlink:href="#m97a9df8f6d" y="173.895069"/>
     <use style="fill:#ff7f0e;stroke:#ff7f0e;" x="199.041058" xlink:href="#m97a9df8f6d" y="168.565176"/>
     <use style="fill:#ff7f0e;stroke:#ff7f0e;" x="201.918413" xlink:href="#m97a9df8f6d" y="170.79035"/>
     <use style="fill:#ff7f0e;stroke:#ff7f0e;" x="204.795769" xlink:href="#m97a9df8f6d" y="171.17366"/>
     <use style="fill:#ff7f0e;stroke:#ff7f0e;" x="207.673124" xlink:href="#m97a9df8f6d" y="171.724536"/>
     <use style="fill:#ff7f0e;stroke:#ff7f0e;" x="210.550479" xlink:href="#m97a9df8f6d" y="171.376906"/>
     <use style="fill:#ff7f0e;stroke:#ff7f0e;" x="213.427835" xlink:href="#m97a9df8f6d" y="170.137908"/>
     <use style="fill:#ff7f0e;stroke:#ff7f0e;" x="216.30519" xlink:href="#m97a9df8f6d" y="171.018193"/>
     <use style="fill:#ff7f0e;stroke:#ff7f0e;" x="219.182545" xlink:href="#m97a9df8f6d" y="170.940569"/>
     <use style="fill:#ff7f0e;stroke:#ff7f0e;" x="222.059901" xlink:href="#m97a9df8f6d" y="170.724464"/>
     <use style="fill:#ff7f0e;stroke:#ff7f0e;" x="224.937256" xlink:href="#m97a9df8f6d" y="170.324844"/>
     <use style="fill:#ff7f0e;stroke:#ff7f0e;" x="227.814612" xlink:href="#m97a9df8f6d" y="170.512383"/>
     <use style="fill:#ff7f0e;stroke:#ff7f0e;" x="230.691967" xlink:href="#m97a9df8f6d" y="170.507551"/>
     <use style="fill:#ff7f0e;stroke:#ff7f0e;" x="233.569322" xlink:href="#m97a9df8f6d" y="170.593424"/>
     <use style="fill:#ff7f0e;stroke:#ff7f0e;" x="236.446678" xlink:href="#m97a9df8f6d" y="170.594584"/>
     <use style="fill:#ff7f0e;stroke:#ff7f0e;" x="239.324033" xlink:href="#m97a9df8f6d" y="170.694265"/>
     <use style="fill:#ff7f0e;stroke:#ff7f0e;" x="242.201388" xlink:href="#m97a9df8f6d" y="170.546399"/>
     <use style="fill:#ff7f0e;stroke:#ff7f0e;" x="245.078744" xlink:href="#m97a9df8f6d" y="170.678775"/>
     <use style="fill:#ff7f0e;stroke:#ff7f0e;" x="247.956099" xlink:href="#m97a9df8f6d" y="170.584105"/>
     <use style="fill:#ff7f0e;stroke:#ff7f0e;" x="250.833455" xlink:href="#m97a9df8f6d" y="170.581146"/>
     <use style="fill:#ff7f0e;stroke:#ff7f0e;" x="253.71081" xlink:href="#m97a9df8f6d" y="170.640148"/>
     <use style="fill:#ff7f0e;stroke:#ff7f0e;" x="256.588165" xlink:href="#m97a9df8f6d" y="170.625903"/>
     <use style="fill:#ff7f0e;stroke:#ff7f0e;" x="259.465521" xlink:href="#m97a9df8f6d" y="170.618274"/>
     <use style="fill:#ff7f0e;stroke:#ff7f0e;" x="262.342876" xlink:href="#m97a9df8f6d" y="170.604576"/>
     <use style="fill:#ff7f0e;stroke:#ff7f0e;" x="265.220231" xlink:href="#m97a9df8f6d" y="170.620823"/>
     <use style="fill:#ff7f0e;stroke:#ff7f0e;" x="268.097587" xlink:href="#m97a9df8f6d" y="170.618775"/>
     <use style="fill:#ff7f0e;stroke:#ff7f0e;" x="270.974942" xlink:href="#m97a9df8f6d" y="170.618356"/>
     <use style="fill:#ff7f0e;stroke:#ff7f0e;" x="273.852298" xlink:href="#m97a9df8f6d" y="170.618479"/>
     <use style="fill:#ff7f0e;stroke:#ff7f0e;" x="276.729653" xlink:href="#m97a9df8f6d" y="170.621961"/>
     <use style="fill:#ff7f0e;stroke:#ff7f0e;" x="279.607008" xlink:href="#m97a9df8f6d" y="170.619326"/>
     <use style="fill:#ff7f0e;stroke:#ff7f0e;" x="282.484364" xlink:href="#m97a9df8f6d" y="170.618845"/>
     <use style="fill:#ff7f0e;stroke:#ff7f0e;" x="285.361719" xlink:href="#m97a9df8f6d" y="170.618151"/>
     <use style="fill:#ff7f0e;stroke:#ff7f0e;" x="288.239074" xlink:href="#m97a9df8f6d" y="170.619149"/>
     <use style="fill:#ff7f0e;stroke:#ff7f0e;" x="291.11643" xlink:href="#m97a9df8f6d" y="170.618865"/>
     <use style="fill:#ff7f0e;stroke:#ff7f0e;" x="293.993785" xlink:href="#m97a9df8f6d" y="170.619468"/>
     <use style="fill:#ff7f0e;stroke:#ff7f0e;" x="296.87114" xlink:href="#m97a9df8f6d" y="170.61976"/>
     <use style="fill:#ff7f0e;stroke:#ff7f0e;" x="299.748496" xlink:href="#m97a9df8f6d" y="170.620066"/>
     <use style="fill:#ff7f0e;stroke:#ff7f0e;" x="302.625851" xlink:href="#m97a9df8f6d" y="170.619875"/>
     <use style="fill:#ff7f0e;stroke:#ff7f0e;" x="305.503207" xlink:href="#m97a9df8f6d" y="170.619263"/>
     <use style="fill:#ff7f0e;stroke:#ff7f0e;" x="308.380562" xlink:href="#m97a9df8f6d" y="170.619438"/>
     <use style="fill:#ff7f0e;stroke:#ff7f0e;" x="311.257917" xlink:href="#m97a9df8f6d" y="170.619991"/>
     <use style="fill:#ff7f0e;stroke:#ff7f0e;" x="314.135273" xlink:href="#m97a9df8f6d" y="170.619572"/>
     <use style="fill:#ff7f0e;stroke:#ff7f0e;" x="317.012628" xlink:href="#m97a9df8f6d" y="170.619636"/>
     <use style="fill:#ff7f0e;stroke:#ff7f0e;" x="319.889983" xlink:href="#m97a9df8f6d" y="170.619832"/>
     <use style="fill:#ff7f0e;stroke:#ff7f0e;" x="322.767339" xlink:href="#m97a9df8f6d" y="170.619752"/>
     <use style="fill:#ff7f0e;stroke:#ff7f0e;" x="325.644694" xlink:href="#m97a9df8f6d" y="170.61973"/>
     <use style="fill:#ff7f0e;stroke:#ff7f0e;" x="328.52205" xlink:href="#m97a9df8f6d" y="170.619711"/>
     <use style="fill:#ff7f0e;stroke:#ff7f0e;" x="331.399405" xlink:href="#m97a9df8f6d" y="170.619697"/>
     <use style="fill:#ff7f0e;stroke:#ff7f0e;" x="334.27676" xlink:href="#m97a9df8f6d" y="170.619735"/>
     <use style="fill:#ff7f0e;stroke:#ff7f0e;" x="337.154116" xlink:href="#m97a9df8f6d" y="170.619711"/>
     <use style="fill:#ff7f0e;stroke:#ff7f0e;" x="340.031471" xlink:href="#m97a9df8f6d" y="170.619716"/>
     <use style="fill:#ff7f0e;stroke:#ff7f0e;" x="342.908826" xlink:href="#m97a9df8f6d" y="170.61971"/>
     <use style="fill:#ff7f0e;stroke:#ff7f0e;" x="345.786182" xlink:href="#m97a9df8f6d" y="170.619698"/>
     <use style="fill:#ff7f0e;stroke:#ff7f0e;" x="348.663537" xlink:href="#m97a9df8f6d" y="170.619703"/>
     <use style="fill:#ff7f0e;stroke:#ff7f0e;" x="351.540893" xlink:href="#m97a9df8f6d" y="170.619714"/>
     <use style="fill:#ff7f0e;stroke:#ff7f0e;" x="354.418248" xlink:href="#m97a9df8f6d" y="170.619703"/>
     <use style="fill:#ff7f0e;stroke:#ff7f0e;" x="357.295603" xlink:href="#m97a9df8f6d" y="170.619714"/>
     <use style="fill:#ff7f0e;stroke:#ff7f0e;" x="360.172959" xlink:href="#m97a9df8f6d" y="170.619714"/>
     <use style="fill:#ff7f0e;stroke:#ff7f0e;" x="363.050314" xlink:href="#m97a9df8f6d" y="170.619709"/>
     <use style="fill:#ff7f0e;stroke:#ff7f0e;" x="365.927669" xlink:href="#m97a9df8f6d" y="170.619711"/>
     <use style="fill:#ff7f0e;stroke:#ff7f0e;" x="368.805025" xlink:href="#m97a9df8f6d" y="170.619714"/>
     <use style="fill:#ff7f0e;stroke:#ff7f0e;" x="371.68238" xlink:href="#m97a9df8f6d" y="170.619713"/>
     <use style="fill:#ff7f0e;stroke:#ff7f0e;" x="374.559736" xlink:href="#m97a9df8f6d" y="170.619711"/>
     <use style="fill:#ff7f0e;stroke:#ff7f0e;" x="377.437091" xlink:href="#m97a9df8f6d" y="170.619713"/>
    </g>
   </g>
   <g id="line2d_15">
    <defs>
     <path d="M 0 1.5 
C 0.397805 1.5 0.77937 1.341951 1.06066 1.06066 
C 1.341951 0.77937 1.5 0.397805 1.5 0 
C 1.5 -0.397805 1.341951 -0.77937 1.06066 -1.06066 
C 0.77937 -1.341951 0.397805 -1.5 0 -1.5 
C -0.397805 -1.5 -0.77937 -1.341951 -1.06066 -1.06066 
C -1.341951 -0.77937 -1.5 -0.397805 -1.5 0 
C -1.5 0.397805 -1.341951 0.77937 -1.06066 1.06066 
C -0.77937 1.341951 -0.397805 1.5 0 1.5 
z
" id="m743dc5243c" style="stroke:#2ca02c;"/>
    </defs>
    <g clip-path="url(#p7513be960a)">
     <use style="fill:#2ca02c;stroke:#2ca02c;" x="152.759886" xlink:href="#m743dc5243c" y="24884.2"/>
     <use style="fill:#2ca02c;stroke:#2ca02c;" x="153.003372" xlink:href="#m743dc5243c" y="52.939636"/>
     <use style="fill:#2ca02c;stroke:#2ca02c;" x="155.880727" xlink:href="#m743dc5243c" y="82.55913"/>
     <use style="fill:#2ca02c;stroke:#2ca02c;" x="158.758083" xlink:href="#m743dc5243c" y="112.178624"/>
     <use style="fill:#2ca02c;stroke:#2ca02c;" x="161.635438" xlink:href="#m743dc5243c" y="141.798117"/>
     <use style="fill:#2ca02c;stroke:#2ca02c;" x="164.512793" xlink:href="#m743dc5243c" y="83.145686"/>
     <use style="fill:#2ca02c;stroke:#2ca02c;" x="167.390149" xlink:href="#m743dc5243c" y="112.76518"/>
     <use style="fill:#2ca02c;stroke:#2ca02c;" x="170.267504" xlink:href="#m743dc5243c" y="142.384673"/>
     <use style="fill:#2ca02c;stroke:#2ca02c;" x="173.14486" xlink:href="#m743dc5243c" y="120.368401"/>
     <use style="fill:#2ca02c;stroke:#2ca02c;" x="176.022215" xlink:href="#m743dc5243c" y="113.351736"/>
     <use style="fill:#2ca02c;stroke:#2ca02c;" x="178.89957" xlink:href="#m743dc5243c" y="114.554017"/>
     <use style="fill:#2ca02c;stroke:#2ca02c;" x="181.776926" xlink:href="#m743dc5243c" y="120.954957"/>
     <use style="fill:#2ca02c;stroke:#2ca02c;" x="184.654281" xlink:href="#m743dc5243c" y="113.938292"/>
     <use style="fill:#2ca02c;stroke:#2ca02c;" x="187.531636" xlink:href="#m743dc5243c" y="115.140573"/>
     <use style="fill:#2ca02c;stroke:#2ca02c;" x="190.408992" xlink:href="#m743dc5243c" y="121.541513"/>
     <use style="fill:#2ca02c;stroke:#2ca02c;" x="193.286347" xlink:href="#m743dc5243c" y="122.743794"/>
     <use style="fill:#2ca02c;stroke:#2ca02c;" x="196.163702" xlink:href="#m743dc5243c" y="122.259303"/>
     <use style="fill:#2ca02c;stroke:#2ca02c;" x="199.041058" xlink:href="#m743dc5243c" y="116.92941"/>
     <use style="fill:#2ca02c;stroke:#2ca02c;" x="201.918413" xlink:href="#m743dc5243c" y="119.154584"/>
     <use style="fill:#2ca02c;stroke:#2ca02c;" x="204.795769" xlink:href="#m743dc5243c" y="119.537894"/>
     <use style="fill:#2ca02c;stroke:#2ca02c;" x="207.673124" xlink:href="#m743dc5243c" y="120.08877"/>
     <use style="fill:#2ca02c;stroke:#2ca02c;" x="210.550479" xlink:href="#m743dc5243c" y="119.74114"/>
     <use style="fill:#2ca02c;stroke:#2ca02c;" x="213.427835" xlink:href="#m743dc5243c" y="118.502142"/>
     <use style="fill:#2ca02c;stroke:#2ca02c;" x="216.30519" xlink:href="#m743dc5243c" y="119.382427"/>
     <use style="fill:#2ca02c;stroke:#2ca02c;" x="219.182545" xlink:href="#m743dc5243c" y="119.304803"/>
     <use style="fill:#2ca02c;stroke:#2ca02c;" x="222.059901" xlink:href="#m743dc5243c" y="119.088699"/>
     <use style="fill:#2ca02c;stroke:#2ca02c;" x="224.937256" xlink:href="#m743dc5243c" y="118.689078"/>
     <use style="fill:#2ca02c;stroke:#2ca02c;" x="227.814612" xlink:href="#m743dc5243c" y="118.876617"/>
     <use style="fill:#2ca02c;stroke:#2ca02c;" x="230.691967" xlink:href="#m743dc5243c" y="118.871785"/>
     <use style="fill:#2ca02c;stroke:#2ca02c;" x="233.569322" xlink:href="#m743dc5243c" y="118.957658"/>
     <use style="fill:#2ca02c;stroke:#2ca02c;" x="236.446678" xlink:href="#m743dc5243c" y="118.958818"/>
     <use style="fill:#2ca02c;stroke:#2ca02c;" x="239.324033" xlink:href="#m743dc5243c" y="119.0585"/>
     <use style="fill:#2ca02c;stroke:#2ca02c;" x="242.201388" xlink:href="#m743dc5243c" y="118.910633"/>
     <use style="fill:#2ca02c;stroke:#2ca02c;" x="245.078744" xlink:href="#m743dc5243c" y="119.043009"/>
     <use style="fill:#2ca02c;stroke:#2ca02c;" x="247.956099" xlink:href="#m743dc5243c" y="118.94834"/>
     <use style="fill:#2ca02c;stroke:#2ca02c;" x="250.833455" xlink:href="#m743dc5243c" y="118.94538"/>
     <use style="fill:#2ca02c;stroke:#2ca02c;" x="253.71081" xlink:href="#m743dc5243c" y="119.004382"/>
     <use style="fill:#2ca02c;stroke:#2ca02c;" x="256.588165" xlink:href="#m743dc5243c" y="118.990137"/>
     <use style="fill:#2ca02c;stroke:#2ca02c;" x="259.465521" xlink:href="#m743dc5243c" y="118.982508"/>
     <use style="fill:#2ca02c;stroke:#2ca02c;" x="262.342876" xlink:href="#m743dc5243c" y="118.96881"/>
     <use style="fill:#2ca02c;stroke:#2ca02c;" x="265.220231" xlink:href="#m743dc5243c" y="118.985057"/>
     <use style="fill:#2ca02c;stroke:#2ca02c;" x="268.097587" xlink:href="#m743dc5243c" y="118.983009"/>
     <use style="fill:#2ca02c;stroke:#2ca02c;" x="270.974942" xlink:href="#m743dc5243c" y="118.98259"/>
     <use style="fill:#2ca02c;stroke:#2ca02c;" x="273.852298" xlink:href="#m743dc5243c" y="118.982713"/>
     <use style="fill:#2ca02c;stroke:#2ca02c;" x="276.729653" xlink:href="#m743dc5243c" y="118.986195"/>
     <use style="fill:#2ca02c;stroke:#2ca02c;" x="279.607008" xlink:href="#m743dc5243c" y="118.98356"/>
     <use style="fill:#2ca02c;stroke:#2ca02c;" x="282.484364" xlink:href="#m743dc5243c" y="118.983079"/>
     <use style="fill:#2ca02c;stroke:#2ca02c;" x="285.361719" xlink:href="#m743dc5243c" y="118.982386"/>
     <use style="fill:#2ca02c;stroke:#2ca02c;" x="288.239074" xlink:href="#m743dc5243c" y="118.983384"/>
     <use style="fill:#2ca02c;stroke:#2ca02c;" x="291.11643" xlink:href="#m743dc5243c" y="118.9831"/>
     <use style="fill:#2ca02c;stroke:#2ca02c;" x="293.993785" xlink:href="#m743dc5243c" y="118.983703"/>
     <use style="fill:#2ca02c;stroke:#2ca02c;" x="296.87114" xlink:href="#m743dc5243c" y="118.983994"/>
     <use style="fill:#2ca02c;stroke:#2ca02c;" x="299.748496" xlink:href="#m743dc5243c" y="118.9843"/>
     <use style="fill:#2ca02c;stroke:#2ca02c;" x="302.625851" xlink:href="#m743dc5243c" y="118.984109"/>
     <use style="fill:#2ca02c;stroke:#2ca02c;" x="305.503207" xlink:href="#m743dc5243c" y="118.983497"/>
     <use style="fill:#2ca02c;stroke:#2ca02c;" x="308.380562" xlink:href="#m743dc5243c" y="118.983672"/>
     <use style="fill:#2ca02c;stroke:#2ca02c;" x="311.257917" xlink:href="#m743dc5243c" y="118.984225"/>
     <use style="fill:#2ca02c;stroke:#2ca02c;" x="314.135273" xlink:href="#m743dc5243c" y="118.983807"/>
     <use style="fill:#2ca02c;stroke:#2ca02c;" x="317.012628" xlink:href="#m743dc5243c" y="118.98387"/>
     <use style="fill:#2ca02c;stroke:#2ca02c;" x="319.889983" xlink:href="#m743dc5243c" y="118.984067"/>
     <use style="fill:#2ca02c;stroke:#2ca02c;" x="322.767339" xlink:href="#m743dc5243c" y="118.983986"/>
     <use style="fill:#2ca02c;stroke:#2ca02c;" x="325.644694" xlink:href="#m743dc5243c" y="118.983964"/>
     <use style="fill:#2ca02c;stroke:#2ca02c;" x="328.52205" xlink:href="#m743dc5243c" y="118.983945"/>
     <use style="fill:#2ca02c;stroke:#2ca02c;" x="331.399405" xlink:href="#m743dc5243c" y="118.983931"/>
     <use style="fill:#2ca02c;stroke:#2ca02c;" x="334.27676" xlink:href="#m743dc5243c" y="118.983969"/>
     <use style="fill:#2ca02c;stroke:#2ca02c;" x="337.154116" xlink:href="#m743dc5243c" y="118.983946"/>
     <use style="fill:#2ca02c;stroke:#2ca02c;" x="340.031471" xlink:href="#m743dc5243c" y="118.98395"/>
     <use style="fill:#2ca02c;stroke:#2ca02c;" x="342.908826" xlink:href="#m743dc5243c" y="118.983945"/>
     <use style="fill:#2ca02c;stroke:#2ca02c;" x="345.786182" xlink:href="#m743dc5243c" y="118.983933"/>
     <use style="fill:#2ca02c;stroke:#2ca02c;" x="348.663537" xlink:href="#m743dc5243c" y="118.983937"/>
     <use style="fill:#2ca02c;stroke:#2ca02c;" x="351.540893" xlink:href="#m743dc5243c" y="118.983949"/>
     <use style="fill:#2ca02c;stroke:#2ca02c;" x="354.418248" xlink:href="#m743dc5243c" y="118.983937"/>
     <use style="fill:#2ca02c;stroke:#2ca02c;" x="357.295603" xlink:href="#m743dc5243c" y="118.983948"/>
     <use style="fill:#2ca02c;stroke:#2ca02c;" x="360.172959" xlink:href="#m743dc5243c" y="118.983948"/>
     <use style="fill:#2ca02c;stroke:#2ca02c;" x="363.050314" xlink:href="#m743dc5243c" y="118.983944"/>
     <use style="fill:#2ca02c;stroke:#2ca02c;" x="365.927669" xlink:href="#m743dc5243c" y="118.983946"/>
     <use style="fill:#2ca02c;stroke:#2ca02c;" x="368.805025" xlink:href="#m743dc5243c" y="118.983949"/>
     <use style="fill:#2ca02c;stroke:#2ca02c;" x="371.68238" xlink:href="#m743dc5243c" y="118.983945"/>
     <use style="fill:#2ca02c;stroke:#2ca02c;" x="374.559736" xlink:href="#m743dc5243c" y="118.983944"/>
     <use style="fill:#2ca02c;stroke:#2ca02c;" x="377.437091" xlink:href="#m743dc5243c" y="118.983946"/>
    </g>
   </g>
   <g id="patch_3">
    <path d="M 78.336 293.76 
L 78.336 41.472 
" style="fill:none;stroke:#000000;stroke-linecap:square;stroke-linejoin:miter;stroke-width:1.5;"/>
   </g>
   <g id="patch_4">
    <path d="M 391.68 293.76 
L 391.68 41.472 
" style="fill:none;stroke:#000000;stroke-linecap:square;stroke-linejoin:miter;stroke-width:1.5;"/>
   </g>
   <g id="patch_5">
    <path d="M 78.336 293.76 
L 391.68 293.76 
" style="fill:none;stroke:#000000;stroke-linecap:square;stroke-linejoin:miter;stroke-width:1.5;"/>
   </g>
   <g id="patch_6">
    <path d="M 78.336 41.472 
L 391.68 41.472 
" style="fill:none;stroke:#000000;stroke-linecap:square;stroke-linejoin:miter;stroke-width:1.5;"/>
   </g>
   <g id="legend_1">
    <g id="patch_7">
     <path d="M 288.136875 114.320125 
L 381.88 114.320125 
Q 384.68 114.320125 384.68 111.520125 
L 384.68 51.272 
Q 384.68 48.472 381.88 48.472 
L 288.136875 48.472 
Q 285.336875 48.472 285.336875 51.272 
L 285.336875 111.520125 
Q 285.336875 114.320125 288.136875 114.320125 
z
" style="fill:none;opacity:0;"/>
    </g>
    <g id="line2d_16"/>
    <g id="line2d_17">
     <g>
      <use style="fill:#1f77b4;stroke:#1f77b4;" x="304.936875" xlink:href="#me51b79faee" y="59.809812"/>
     </g>
    </g>
    <g id="text_12">
     <!-- y=x^1 -->
     <defs>
      <path d="M 32.171875 -5.078125 
Q 28.375 -14.84375 24.75 -17.8125 
Q 21.140625 -20.796875 15.09375 -20.796875 
L 7.90625 -20.796875 
L 7.90625 -13.28125 
L 13.1875 -13.28125 
Q 16.890625 -13.28125 18.9375 -11.515625 
Q 21 -9.765625 23.484375 -3.21875 
L 25.09375 0.875 
L 2.984375 54.6875 
L 12.5 54.6875 
L 29.59375 11.921875 
L 46.6875 54.6875 
L 56.203125 54.6875 
z
" id="DejaVuSans-121"/>
      <path d="M 10.59375 45.40625 
L 73.1875 45.40625 
L 73.1875 37.203125 
L 10.59375 37.203125 
z
M 10.59375 25.484375 
L 73.1875 25.484375 
L 73.1875 17.1875 
L 10.59375 17.1875 
z
" id="DejaVuSans-61"/>
      <path d="M 54.890625 54.6875 
L 35.109375 28.078125 
L 55.90625 0 
L 45.3125 0 
L 29.390625 21.484375 
L 13.484375 0 
L 2.875 0 
L 24.125 28.609375 
L 4.6875 54.6875 
L 15.28125 54.6875 
L 29.78125 35.203125 
L 44.28125 54.6875 
z
" id="DejaVuSans-120"/>
      <path d="M 46.6875 72.90625 
L 73.1875 45.703125 
L 63.375 45.703125 
L 41.890625 64.984375 
L 20.40625 45.703125 
L 10.59375 45.703125 
L 37.109375 72.90625 
z
" id="DejaVuSans-94"/>
     </defs>
     <g transform="translate(330.136875 64.709812)scale(0.14 -0.14)">
      <use xlink:href="#DejaVuSans-121"/>
      <use x="59.179688" xlink:href="#DejaVuSans-61"/>
      <use x="142.96875" xlink:href="#DejaVuSans-120"/>
      <use x="202.148438" xlink:href="#DejaVuSans-94"/>
      <use x="285.9375" xlink:href="#DejaVuSans-49"/>
     </g>
    </g>
    <g id="line2d_18"/>
    <g id="line2d_19">
     <g>
      <use style="fill:#ff7f0e;stroke:#ff7f0e;" x="304.936875" xlink:href="#m97a9df8f6d" y="80.359187"/>
     </g>
    </g>
    <g id="text_13">
     <!-- y=x^2 -->
     <g transform="translate(330.136875 85.259187)scale(0.14 -0.14)">
      <use xlink:href="#DejaVuSans-121"/>
      <use x="59.179688" xlink:href="#DejaVuSans-61"/>
      <use x="142.96875" xlink:href="#DejaVuSans-120"/>
      <use x="202.148438" xlink:href="#DejaVuSans-94"/>
      <use x="285.9375" xlink:href="#DejaVuSans-50"/>
     </g>
    </g>
    <g id="line2d_20"/>
    <g id="line2d_21">
     <g>
      <use style="fill:#2ca02c;stroke:#2ca02c;" x="304.936875" xlink:href="#m743dc5243c" y="100.908562"/>
     </g>
    </g>
    <g id="text_14">
     <!-- y=x^3 -->
     <g transform="translate(330.136875 105.808562)scale(0.14 -0.14)">
      <use xlink:href="#DejaVuSans-121"/>
      <use x="59.179688" xlink:href="#DejaVuSans-61"/>
      <use x="142.96875" xlink:href="#DejaVuSans-120"/>
      <use x="202.148438" xlink:href="#DejaVuSans-94"/>
      <use x="285.9375" xlink:href="#DejaVuSans-51"/>
     </g>
    </g>
   </g>
  </g>
 </g>
 <defs>
  <clipPath id="p7513be960a">
   <rect height="252.288" width="313.344" x="78.336" y="41.472"/>
  </clipPath>
 </defs>
</svg>
