<?xml version="1.0" encoding="utf-8" standalone="no"?>
<!DOCTYPE svg PUBLIC "-//W3C//DTD SVG 1.1//EN"
  "http://www.w3.org/Graphics/SVG/1.1/DTD/svg11.dtd">
<!-- Created with matplotlib (https://matplotlib.org/) -->
<svg height="345.6pt" version="1.1" viewBox="0 0 460.8 345.6" width="460.8pt" xmlns="http://www.w3.org/2000/svg" xmlns:xlink="http://www.w3.org/1999/xlink">
 <defs>
  <style type="text/css">
*{stroke-linecap:butt;stroke-linejoin:round;}
  </style>
 </defs>
 <g id="figure_1">
  <g id="patch_1">
   <path d="M 0 345.6 
L 460.8 345.6 
L 460.8 0 
L 0 0 
z
" style="fill:#ffffff;"/>
  </g>
  <g id="axes_1">
   <g id="patch_2">
    <path d="M 78.336 293.76 
L 391.68 293.76 
L 391.68 41.472 
L 78.336 41.472 
z
" style="fill:#ffffff;"/>
   </g>
   <g id="matplotlib.axis_1">
    <g id="xtick_1">
     <g id="line2d_1">
      <defs>
       <path d="M 0 0 
L 0 12 
" id="m18a24809ee" style="stroke:#000000;stroke-width:1.5;"/>
      </defs>
      <g>
       <use style="stroke:#000000;stroke-width:1.5;" x="121.064727" xlink:href="#m18a24809ee" y="293.76"/>
      </g>
     </g>
     <g id="text_1">
      <!-- $\mathdefault{10^{-17}}$ -->
      <defs>
       <path d="M 12.40625 8.296875 
L 28.515625 8.296875 
L 28.515625 63.921875 
L 10.984375 60.40625 
L 10.984375 69.390625 
L 28.421875 72.90625 
L 38.28125 72.90625 
L 38.28125 8.296875 
L 54.390625 8.296875 
L 54.390625 0 
L 12.40625 0 
z
" id="DejaVuSans-49"/>
       <path d="M 31.78125 66.40625 
Q 24.171875 66.40625 20.328125 58.90625 
Q 16.5 51.421875 16.5 36.375 
Q 16.5 21.390625 20.328125 13.890625 
Q 24.171875 6.390625 31.78125 6.390625 
Q 39.453125 6.390625 43.28125 13.890625 
Q 47.125 21.390625 47.125 36.375 
Q 47.125 51.421875 43.28125 58.90625 
Q 39.453125 66.40625 31.78125 66.40625 
z
M 31.78125 74.21875 
Q 44.046875 74.21875 50.515625 64.515625 
Q 56.984375 54.828125 56.984375 36.375 
Q 56.984375 17.96875 50.515625 8.265625 
Q 44.046875 -1.421875 31.78125 -1.421875 
Q 19.53125 -1.421875 13.0625 8.265625 
Q 6.59375 17.96875 6.59375 36.375 
Q 6.59375 54.828125 13.0625 64.515625 
Q 19.53125 74.21875 31.78125 74.21875 
z
" id="DejaVuSans-48"/>
       <path d="M 10.59375 35.5 
L 73.1875 35.5 
L 73.1875 27.203125 
L 10.59375 27.203125 
z
" id="DejaVuSans-8722"/>
       <path d="M 8.203125 72.90625 
L 55.078125 72.90625 
L 55.078125 68.703125 
L 28.609375 0 
L 18.3125 0 
L 43.21875 64.59375 
L 8.203125 64.59375 
z
" id="DejaVuSans-55"/>
      </defs>
      <g transform="translate(101.534727 319.897812)scale(0.14 -0.14)">
       <use transform="translate(0 0.684375)" xlink:href="#DejaVuSans-49"/>
       <use transform="translate(63.623047 0.684375)" xlink:href="#DejaVuSans-48"/>
       <use transform="translate(128.203125 38.965625)scale(0.7)" xlink:href="#DejaVuSans-8722"/>
       <use transform="translate(186.855469 38.965625)scale(0.7)" xlink:href="#DejaVuSans-49"/>
       <use transform="translate(231.391602 38.965625)scale(0.7)" xlink:href="#DejaVuSans-55"/>
      </g>
     </g>
    </g>
    <g id="xtick_2">
     <g id="line2d_2">
      <g>
       <use style="stroke:#000000;stroke-width:1.5;" x="178.036364" xlink:href="#m18a24809ee" y="293.76"/>
      </g>
     </g>
     <g id="text_2">
      <!-- $\mathdefault{10^{-15}}$ -->
      <defs>
       <path d="M 10.796875 72.90625 
L 49.515625 72.90625 
L 49.515625 64.59375 
L 19.828125 64.59375 
L 19.828125 46.734375 
Q 21.96875 47.46875 24.109375 47.828125 
Q 26.265625 48.1875 28.421875 48.1875 
Q 40.625 48.1875 47.75 41.5 
Q 54.890625 34.8125 54.890625 23.390625 
Q 54.890625 11.625 47.5625 5.09375 
Q 40.234375 -1.421875 26.90625 -1.421875 
Q 22.3125 -1.421875 17.546875 -0.640625 
Q 12.796875 0.140625 7.71875 1.703125 
L 7.71875 11.625 
Q 12.109375 9.234375 16.796875 8.0625 
Q 21.484375 6.890625 26.703125 6.890625 
Q 35.15625 6.890625 40.078125 11.328125 
Q 45.015625 15.765625 45.015625 23.390625 
Q 45.015625 31 40.078125 35.4375 
Q 35.15625 39.890625 26.703125 39.890625 
Q 22.75 39.890625 18.8125 39.015625 
Q 14.890625 38.140625 10.796875 36.28125 
z
" id="DejaVuSans-53"/>
      </defs>
      <g transform="translate(158.506364 319.897812)scale(0.14 -0.14)">
       <use transform="translate(0 0.684375)" xlink:href="#DejaVuSans-49"/>
       <use transform="translate(63.623047 0.684375)" xlink:href="#DejaVuSans-48"/>
       <use transform="translate(128.203125 38.965625)scale(0.7)" xlink:href="#DejaVuSans-8722"/>
       <use transform="translate(186.855469 38.965625)scale(0.7)" xlink:href="#DejaVuSans-49"/>
       <use transform="translate(231.391602 38.965625)scale(0.7)" xlink:href="#DejaVuSans-53"/>
      </g>
     </g>
    </g>
    <g id="xtick_3">
     <g id="line2d_3">
      <g>
       <use style="stroke:#000000;stroke-width:1.5;" x="235.008" xlink:href="#m18a24809ee" y="293.76"/>
      </g>
     </g>
     <g id="text_3">
      <!-- $\mathdefault{10^{-13}}$ -->
      <defs>
       <path d="M 40.578125 39.3125 
Q 47.65625 37.796875 51.625 33 
Q 55.609375 28.21875 55.609375 21.1875 
Q 55.609375 10.40625 48.1875 4.484375 
Q 40.765625 -1.421875 27.09375 -1.421875 
Q 22.515625 -1.421875 17.65625 -0.515625 
Q 12.796875 0.390625 7.625 2.203125 
L 7.625 11.71875 
Q 11.71875 9.328125 16.59375 8.109375 
Q 21.484375 6.890625 26.8125 6.890625 
Q 36.078125 6.890625 40.9375 10.546875 
Q 45.796875 14.203125 45.796875 21.1875 
Q 45.796875 27.640625 41.28125 31.265625 
Q 36.765625 34.90625 28.71875 34.90625 
L 20.21875 34.90625 
L 20.21875 43.015625 
L 29.109375 43.015625 
Q 36.375 43.015625 40.234375 45.921875 
Q 44.09375 48.828125 44.09375 54.296875 
Q 44.09375 59.90625 40.109375 62.90625 
Q 36.140625 65.921875 28.71875 65.921875 
Q 24.65625 65.921875 20.015625 65.03125 
Q 15.375 64.15625 9.8125 62.3125 
L 9.8125 71.09375 
Q 15.4375 72.65625 20.34375 73.4375 
Q 25.25 74.21875 29.59375 74.21875 
Q 40.828125 74.21875 47.359375 69.109375 
Q 53.90625 64.015625 53.90625 55.328125 
Q 53.90625 49.265625 50.4375 45.09375 
Q 46.96875 40.921875 40.578125 39.3125 
z
" id="DejaVuSans-51"/>
      </defs>
      <g transform="translate(215.478 319.897812)scale(0.14 -0.14)">
       <use transform="translate(0 0.765625)" xlink:href="#DejaVuSans-49"/>
       <use transform="translate(63.623047 0.765625)" xlink:href="#DejaVuSans-48"/>
       <use transform="translate(128.203125 39.046875)scale(0.7)" xlink:href="#DejaVuSans-8722"/>
       <use transform="translate(186.855469 39.046875)scale(0.7)" xlink:href="#DejaVuSans-49"/>
       <use transform="translate(231.391602 39.046875)scale(0.7)" xlink:href="#DejaVuSans-51"/>
      </g>
     </g>
    </g>
    <g id="xtick_4">
     <g id="line2d_4">
      <g>
       <use style="stroke:#000000;stroke-width:1.5;" x="291.979636" xlink:href="#m18a24809ee" y="293.76"/>
      </g>
     </g>
     <g id="text_4">
      <!-- $\mathdefault{10^{-11}}$ -->
      <g transform="translate(272.449636 319.897812)scale(0.14 -0.14)">
       <use transform="translate(0 0.684375)" xlink:href="#DejaVuSans-49"/>
       <use transform="translate(63.623047 0.684375)" xlink:href="#DejaVuSans-48"/>
       <use transform="translate(128.203125 38.965625)scale(0.7)" xlink:href="#DejaVuSans-8722"/>
       <use transform="translate(186.855469 38.965625)scale(0.7)" xlink:href="#DejaVuSans-49"/>
       <use transform="translate(231.391602 38.965625)scale(0.7)" xlink:href="#DejaVuSans-49"/>
      </g>
     </g>
    </g>
    <g id="xtick_5">
     <g id="line2d_5">
      <g>
       <use style="stroke:#000000;stroke-width:1.5;" x="348.951273" xlink:href="#m18a24809ee" y="293.76"/>
      </g>
     </g>
     <g id="text_5">
      <!-- $\mathdefault{10^{-9}}$ -->
      <defs>
       <path d="M 10.984375 1.515625 
L 10.984375 10.5 
Q 14.703125 8.734375 18.5 7.8125 
Q 22.3125 6.890625 25.984375 6.890625 
Q 35.75 6.890625 40.890625 13.453125 
Q 46.046875 20.015625 46.78125 33.40625 
Q 43.953125 29.203125 39.59375 26.953125 
Q 35.25 24.703125 29.984375 24.703125 
Q 19.046875 24.703125 12.671875 31.3125 
Q 6.296875 37.9375 6.296875 49.421875 
Q 6.296875 60.640625 12.9375 67.421875 
Q 19.578125 74.21875 30.609375 74.21875 
Q 43.265625 74.21875 49.921875 64.515625 
Q 56.59375 54.828125 56.59375 36.375 
Q 56.59375 19.140625 48.40625 8.859375 
Q 40.234375 -1.421875 26.421875 -1.421875 
Q 22.703125 -1.421875 18.890625 -0.6875 
Q 15.09375 0.046875 10.984375 1.515625 
z
M 30.609375 32.421875 
Q 37.25 32.421875 41.125 36.953125 
Q 45.015625 41.5 45.015625 49.421875 
Q 45.015625 57.28125 41.125 61.84375 
Q 37.25 66.40625 30.609375 66.40625 
Q 23.96875 66.40625 20.09375 61.84375 
Q 16.21875 57.28125 16.21875 49.421875 
Q 16.21875 41.5 20.09375 36.953125 
Q 23.96875 32.421875 30.609375 32.421875 
z
" id="DejaVuSans-57"/>
      </defs>
      <g transform="translate(332.501273 319.897812)scale(0.14 -0.14)">
       <use transform="translate(0 0.765625)" xlink:href="#DejaVuSans-49"/>
       <use transform="translate(63.623047 0.765625)" xlink:href="#DejaVuSans-48"/>
       <use transform="translate(128.203125 39.046875)scale(0.7)" xlink:href="#DejaVuSans-8722"/>
       <use transform="translate(186.855469 39.046875)scale(0.7)" xlink:href="#DejaVuSans-57"/>
      </g>
     </g>
    </g>
   </g>
   <g id="matplotlib.axis_2">
    <g id="ytick_1">
     <g id="line2d_6">
      <defs>
       <path d="M 0 0 
L -12 0 
" id="m7429186cef" style="stroke:#000000;stroke-width:1.5;"/>
      </defs>
      <g>
       <use style="stroke:#000000;stroke-width:1.5;" x="78.336" xlink:href="#m7429186cef" y="196.161679"/>
      </g>
     </g>
     <g id="text_6">
      <!-- $\mathdefault{10^{0}}$ -->
      <g transform="translate(38.196 201.480585)scale(0.14 -0.14)">
       <use transform="translate(0 0.765625)" xlink:href="#DejaVuSans-49"/>
       <use transform="translate(63.623047 0.765625)" xlink:href="#DejaVuSans-48"/>
       <use transform="translate(128.203125 39.046875)scale(0.7)" xlink:href="#DejaVuSans-48"/>
      </g>
     </g>
    </g>
    <g id="ytick_2">
     <g id="line2d_7">
      <defs>
       <path d="M 0 0 
L -8 0 
" id="m8efe1ea9a5" style="stroke:#000000;stroke-width:1.5;"/>
      </defs>
      <g>
       <use style="stroke:#000000;stroke-width:1.5;" x="78.336" xlink:href="#m8efe1ea9a5" y="293.76"/>
      </g>
     </g>
    </g>
    <g id="ytick_3">
     <g id="line2d_8">
      <g>
       <use style="stroke:#000000;stroke-width:1.5;" x="78.336" xlink:href="#m8efe1ea9a5" y="268.088284"/>
      </g>
     </g>
     <g id="text_7">
      <!-- $\mathdefault{6\times10^{-1}}$ -->
      <defs>
       <path d="M 33.015625 40.375 
Q 26.375 40.375 22.484375 35.828125 
Q 18.609375 31.296875 18.609375 23.390625 
Q 18.609375 15.53125 22.484375 10.953125 
Q 26.375 6.390625 33.015625 6.390625 
Q 39.65625 6.390625 43.53125 10.953125 
Q 47.40625 15.53125 47.40625 23.390625 
Q 47.40625 31.296875 43.53125 35.828125 
Q 39.65625 40.375 33.015625 40.375 
z
M 52.59375 71.296875 
L 52.59375 62.3125 
Q 48.875 64.0625 45.09375 64.984375 
Q 41.3125 65.921875 37.59375 65.921875 
Q 27.828125 65.921875 22.671875 59.328125 
Q 17.53125 52.734375 16.796875 39.40625 
Q 19.671875 43.65625 24.015625 45.921875 
Q 28.375 48.1875 33.59375 48.1875 
Q 44.578125 48.1875 50.953125 41.515625 
Q 57.328125 34.859375 57.328125 23.390625 
Q 57.328125 12.15625 50.6875 5.359375 
Q 44.046875 -1.421875 33.015625 -1.421875 
Q 20.359375 -1.421875 13.671875 8.265625 
Q 6.984375 17.96875 6.984375 36.375 
Q 6.984375 53.65625 15.1875 63.9375 
Q 23.390625 74.21875 37.203125 74.21875 
Q 40.921875 74.21875 44.703125 73.484375 
Q 48.484375 72.75 52.59375 71.296875 
z
" id="DejaVuSans-54"/>
       <path d="M 70.125 53.71875 
L 47.796875 31.296875 
L 70.125 8.984375 
L 64.3125 3.078125 
L 41.890625 25.484375 
L 19.484375 3.078125 
L 13.71875 8.984375 
L 35.984375 31.296875 
L 13.71875 53.71875 
L 19.484375 59.625 
L 41.890625 37.203125 
L 64.3125 59.625 
z
" id="DejaVuSans-215"/>
      </defs>
      <g transform="translate(7.996 273.40719)scale(0.14 -0.14)">
       <use transform="translate(0 0.684375)" xlink:href="#DejaVuSans-54"/>
       <use transform="translate(83.105469 0.684375)" xlink:href="#DejaVuSans-215"/>
       <use transform="translate(186.376953 0.684375)" xlink:href="#DejaVuSans-49"/>
       <use transform="translate(250 0.684375)" xlink:href="#DejaVuSans-48"/>
       <use transform="translate(314.580078 38.965625)scale(0.7)" xlink:href="#DejaVuSans-8722"/>
       <use transform="translate(373.232422 38.965625)scale(0.7)" xlink:href="#DejaVuSans-49"/>
      </g>
     </g>
    </g>
    <g id="ytick_4">
     <g id="line2d_9">
      <g>
       <use style="stroke:#000000;stroke-width:1.5;" x="78.336" xlink:href="#m8efe1ea9a5" y="246.383157"/>
      </g>
     </g>
    </g>
    <g id="ytick_5">
     <g id="line2d_10">
      <g>
       <use style="stroke:#000000;stroke-width:1.5;" x="78.336" xlink:href="#m8efe1ea9a5" y="227.581321"/>
      </g>
     </g>
    </g>
    <g id="ytick_6">
     <g id="line2d_11">
      <g>
       <use style="stroke:#000000;stroke-width:1.5;" x="78.336" xlink:href="#m8efe1ea9a5" y="210.996926"/>
      </g>
     </g>
    </g>
    <g id="ytick_7">
     <g id="line2d_12">
      <g>
       <use style="stroke:#000000;stroke-width:1.5;" x="78.336" xlink:href="#m8efe1ea9a5" y="98.563358"/>
      </g>
     </g>
     <g id="text_8">
      <!-- $\mathdefault{2\times10^{0}}$ -->
      <defs>
       <path d="M 19.1875 8.296875 
L 53.609375 8.296875 
L 53.609375 0 
L 7.328125 0 
L 7.328125 8.296875 
Q 12.9375 14.109375 22.625 23.890625 
Q 32.328125 33.6875 34.8125 36.53125 
Q 39.546875 41.84375 41.421875 45.53125 
Q 43.3125 49.21875 43.3125 52.78125 
Q 43.3125 58.59375 39.234375 62.25 
Q 35.15625 65.921875 28.609375 65.921875 
Q 23.96875 65.921875 18.8125 64.3125 
Q 13.671875 62.703125 7.8125 59.421875 
L 7.8125 69.390625 
Q 13.765625 71.78125 18.9375 73 
Q 24.125 74.21875 28.421875 74.21875 
Q 39.75 74.21875 46.484375 68.546875 
Q 53.21875 62.890625 53.21875 53.421875 
Q 53.21875 48.921875 51.53125 44.890625 
Q 49.859375 40.875 45.40625 35.40625 
Q 44.1875 33.984375 37.640625 27.21875 
Q 31.109375 20.453125 19.1875 8.296875 
z
" id="DejaVuSans-50"/>
      </defs>
      <g transform="translate(16.256 103.882264)scale(0.14 -0.14)">
       <use transform="translate(0 0.765625)" xlink:href="#DejaVuSans-50"/>
       <use transform="translate(83.105469 0.765625)" xlink:href="#DejaVuSans-215"/>
       <use transform="translate(186.376953 0.765625)" xlink:href="#DejaVuSans-49"/>
       <use transform="translate(250 0.765625)" xlink:href="#DejaVuSans-48"/>
       <use transform="translate(314.580078 39.046875)scale(0.7)" xlink:href="#DejaVuSans-48"/>
      </g>
     </g>
    </g>
    <g id="ytick_8">
     <g id="line2d_13">
      <g>
       <use style="stroke:#000000;stroke-width:1.5;" x="78.336" xlink:href="#m8efe1ea9a5" y="41.472"/>
      </g>
     </g>
     <g id="text_9">
      <!-- $\mathdefault{3\times10^{0}}$ -->
      <g transform="translate(16.256 46.790906)scale(0.14 -0.14)">
       <use transform="translate(0 0.765625)" xlink:href="#DejaVuSans-51"/>
       <use transform="translate(83.105469 0.765625)" xlink:href="#DejaVuSans-215"/>
       <use transform="translate(186.376953 0.765625)" xlink:href="#DejaVuSans-49"/>
       <use transform="translate(250 0.765625)" xlink:href="#DejaVuSans-48"/>
       <use transform="translate(314.580078 39.046875)scale(0.7)" xlink:href="#DejaVuSans-48"/>
      </g>
     </g>
    </g>
   </g>
   <g id="line2d_14">
    <defs>
     <path d="M 0 1.5 
C 0.397805 1.5 0.77937 1.341951 1.06066 1.06066 
C 1.341951 0.77937 1.5 0.397805 1.5 0 
C 1.5 -0.397805 1.341951 -0.77937 1.06066 -1.06066 
C 0.77937 -1.341951 0.397805 -1.5 0 -1.5 
C -0.397805 -1.5 -0.77937 -1.341951 -1.06066 -1.06066 
C -1.341951 -0.77937 -1.5 -0.397805 -1.5 0 
C -1.5 0.397805 -1.341951 0.77937 -1.06066 1.06066 
C -0.77937 1.341951 -0.397805 1.5 0 1.5 
z
" id="md79787bd6f" style="stroke:#1f77b4;"/>
    </defs>
    <g clip-path="url(#p242c67f1cb)">
     <use style="fill:#1f77b4;stroke:#1f77b4;" x="152.782871" xlink:href="#md79787bd6f" y="24884.2"/>
     <use style="fill:#1f77b4;stroke:#1f77b4;" x="153.003372" xlink:href="#md79787bd6f" y="25.541117"/>
     <use style="fill:#1f77b4;stroke:#1f77b4;" x="155.880727" xlink:href="#md79787bd6f" y="58.290067"/>
     <use style="fill:#1f77b4;stroke:#1f77b4;" x="158.758083" xlink:href="#md79787bd6f" y="91.039017"/>
     <use style="fill:#1f77b4;stroke:#1f77b4;" x="161.635438" xlink:href="#md79787bd6f" y="123.787967"/>
     <use style="fill:#1f77b4;stroke:#1f77b4;" x="164.512793" xlink:href="#md79787bd6f" y="58.938596"/>
     <use style="fill:#1f77b4;stroke:#1f77b4;" x="167.390149" xlink:href="#md79787bd6f" y="91.687546"/>
     <use style="fill:#1f77b4;stroke:#1f77b4;" x="170.267504" xlink:href="#md79787bd6f" y="124.436496"/>
     <use style="fill:#1f77b4;stroke:#1f77b4;" x="173.14486" xlink:href="#md79787bd6f" y="100.094088"/>
     <use style="fill:#1f77b4;stroke:#1f77b4;" x="176.022215" xlink:href="#md79787bd6f" y="92.336075"/>
     <use style="fill:#1f77b4;stroke:#1f77b4;" x="178.89957" xlink:href="#md79787bd6f" y="93.665383"/>
     <use style="fill:#1f77b4;stroke:#1f77b4;" x="181.776926" xlink:href="#md79787bd6f" y="100.742617"/>
     <use style="fill:#1f77b4;stroke:#1f77b4;" x="184.654281" xlink:href="#md79787bd6f" y="92.984604"/>
     <use style="fill:#1f77b4;stroke:#1f77b4;" x="187.531636" xlink:href="#md79787bd6f" y="94.313912"/>
     <use style="fill:#1f77b4;stroke:#1f77b4;" x="190.408992" xlink:href="#md79787bd6f" y="101.391146"/>
     <use style="fill:#1f77b4;stroke:#1f77b4;" x="193.286347" xlink:href="#md79787bd6f" y="102.720454"/>
     <use style="fill:#1f77b4;stroke:#1f77b4;" x="196.163702" xlink:href="#md79787bd6f" y="102.184773"/>
     <use style="fill:#1f77b4;stroke:#1f77b4;" x="199.041058" xlink:href="#md79787bd6f" y="96.291749"/>
     <use style="fill:#1f77b4;stroke:#1f77b4;" x="201.918413" xlink:href="#md79787bd6f" y="98.752025"/>
     <use style="fill:#1f77b4;stroke:#1f77b4;" x="204.795769" xlink:href="#md79787bd6f" y="99.175834"/>
     <use style="fill:#1f77b4;stroke:#1f77b4;" x="207.673124" xlink:href="#md79787bd6f" y="99.784913"/>
     <use style="fill:#1f77b4;stroke:#1f77b4;" x="210.550479" xlink:href="#md79787bd6f" y="99.400553"/>
     <use style="fill:#1f77b4;stroke:#1f77b4;" x="213.427835" xlink:href="#md79787bd6f" y="98.030649"/>
     <use style="fill:#1f77b4;stroke:#1f77b4;" x="216.30519" xlink:href="#md79787bd6f" y="99.003941"/>
     <use style="fill:#1f77b4;stroke:#1f77b4;" x="219.182545" xlink:href="#md79787bd6f" y="98.918115"/>
     <use style="fill:#1f77b4;stroke:#1f77b4;" x="222.059901" xlink:href="#md79787bd6f" y="98.679178"/>
     <use style="fill:#1f77b4;stroke:#1f77b4;" x="224.937256" xlink:href="#md79787bd6f" y="98.237336"/>
     <use style="fill:#1f77b4;stroke:#1f77b4;" x="227.814612" xlink:href="#md79787bd6f" y="98.444689"/>
     <use style="fill:#1f77b4;stroke:#1f77b4;" x="230.691967" xlink:href="#md79787bd6f" y="98.439347"/>
     <use style="fill:#1f77b4;stroke:#1f77b4;" x="233.569322" xlink:href="#md79787bd6f" y="98.534293"/>
     <use style="fill:#1f77b4;stroke:#1f77b4;" x="236.446678" xlink:href="#md79787bd6f" y="98.535575"/>
     <use style="fill:#1f77b4;stroke:#1f77b4;" x="239.324033" xlink:href="#md79787bd6f" y="98.645789"/>
     <use style="fill:#1f77b4;stroke:#1f77b4;" x="242.201388" xlink:href="#md79787bd6f" y="98.4823"/>
     <use style="fill:#1f77b4;stroke:#1f77b4;" x="245.078744" xlink:href="#md79787bd6f" y="98.628661"/>
     <use style="fill:#1f77b4;stroke:#1f77b4;" x="247.956099" xlink:href="#md79787bd6f" y="98.523989"/>
     <use style="fill:#1f77b4;stroke:#1f77b4;" x="250.833455" xlink:href="#md79787bd6f" y="98.520718"/>
     <use style="fill:#1f77b4;stroke:#1f77b4;" x="253.71081" xlink:href="#md79787bd6f" y="98.585954"/>
     <use style="fill:#1f77b4;stroke:#1f77b4;" x="256.588165" xlink:href="#md79787bd6f" y="98.570203"/>
     <use style="fill:#1f77b4;stroke:#1f77b4;" x="259.465521" xlink:href="#md79787bd6f" y="98.561768"/>
     <use style="fill:#1f77b4;stroke:#1f77b4;" x="262.342876" xlink:href="#md79787bd6f" y="98.546623"/>
     <use style="fill:#1f77b4;stroke:#1f77b4;" x="265.220231" xlink:href="#md79787bd6f" y="98.564586"/>
     <use style="fill:#1f77b4;stroke:#1f77b4;" x="268.097587" xlink:href="#md79787bd6f" y="98.562322"/>
     <use style="fill:#1f77b4;stroke:#1f77b4;" x="270.974942" xlink:href="#md79787bd6f" y="98.561859"/>
     <use style="fill:#1f77b4;stroke:#1f77b4;" x="273.852298" xlink:href="#md79787bd6f" y="98.561994"/>
     <use style="fill:#1f77b4;stroke:#1f77b4;" x="276.729653" xlink:href="#md79787bd6f" y="98.565845"/>
     <use style="fill:#1f77b4;stroke:#1f77b4;" x="279.607008" xlink:href="#md79787bd6f" y="98.562931"/>
     <use style="fill:#1f77b4;stroke:#1f77b4;" x="282.484364" xlink:href="#md79787bd6f" y="98.5624"/>
     <use style="fill:#1f77b4;stroke:#1f77b4;" x="285.361719" xlink:href="#md79787bd6f" y="98.561633"/>
     <use style="fill:#1f77b4;stroke:#1f77b4;" x="288.239074" xlink:href="#md79787bd6f" y="98.562736"/>
     <use style="fill:#1f77b4;stroke:#1f77b4;" x="291.11643" xlink:href="#md79787bd6f" y="98.562422"/>
     <use style="fill:#1f77b4;stroke:#1f77b4;" x="293.993785" xlink:href="#md79787bd6f" y="98.563089"/>
     <use style="fill:#1f77b4;stroke:#1f77b4;" x="296.87114" xlink:href="#md79787bd6f" y="98.563411"/>
     <use style="fill:#1f77b4;stroke:#1f77b4;" x="299.748496" xlink:href="#md79787bd6f" y="98.563749"/>
     <use style="fill:#1f77b4;stroke:#1f77b4;" x="302.625851" xlink:href="#md79787bd6f" y="98.563538"/>
     <use style="fill:#1f77b4;stroke:#1f77b4;" x="305.503207" xlink:href="#md79787bd6f" y="98.562861"/>
     <use style="fill:#1f77b4;stroke:#1f77b4;" x="308.380562" xlink:href="#md79787bd6f" y="98.563055"/>
     <use style="fill:#1f77b4;stroke:#1f77b4;" x="311.257917" xlink:href="#md79787bd6f" y="98.563666"/>
     <use style="fill:#1f77b4;stroke:#1f77b4;" x="314.135273" xlink:href="#md79787bd6f" y="98.563204"/>
     <use style="fill:#1f77b4;stroke:#1f77b4;" x="317.012628" xlink:href="#md79787bd6f" y="98.563274"/>
     <use style="fill:#1f77b4;stroke:#1f77b4;" x="319.889983" xlink:href="#md79787bd6f" y="98.563491"/>
     <use style="fill:#1f77b4;stroke:#1f77b4;" x="322.767339" xlink:href="#md79787bd6f" y="98.563402"/>
     <use style="fill:#1f77b4;stroke:#1f77b4;" x="325.644694" xlink:href="#md79787bd6f" y="98.563378"/>
     <use style="fill:#1f77b4;stroke:#1f77b4;" x="328.52205" xlink:href="#md79787bd6f" y="98.563357"/>
     <use style="fill:#1f77b4;stroke:#1f77b4;" x="331.399405" xlink:href="#md79787bd6f" y="98.563342"/>
     <use style="fill:#1f77b4;stroke:#1f77b4;" x="334.27676" xlink:href="#md79787bd6f" y="98.563384"/>
     <use style="fill:#1f77b4;stroke:#1f77b4;" x="337.154116" xlink:href="#md79787bd6f" y="98.563357"/>
     <use style="fill:#1f77b4;stroke:#1f77b4;" x="340.031471" xlink:href="#md79787bd6f" y="98.563362"/>
     <use style="fill:#1f77b4;stroke:#1f77b4;" x="342.908826" xlink:href="#md79787bd6f" y="98.563356"/>
     <use style="fill:#1f77b4;stroke:#1f77b4;" x="345.786182" xlink:href="#md79787bd6f" y="98.563343"/>
     <use style="fill:#1f77b4;stroke:#1f77b4;" x="348.663537" xlink:href="#md79787bd6f" y="98.563348"/>
     <use style="fill:#1f77b4;stroke:#1f77b4;" x="351.540893" xlink:href="#md79787bd6f" y="98.563361"/>
     <use style="fill:#1f77b4;stroke:#1f77b4;" x="354.418248" xlink:href="#md79787bd6f" y="98.563348"/>
     <use style="fill:#1f77b4;stroke:#1f77b4;" x="357.295603" xlink:href="#md79787bd6f" y="98.56336"/>
     <use style="fill:#1f77b4;stroke:#1f77b4;" x="360.172959" xlink:href="#md79787bd6f" y="98.56336"/>
     <use style="fill:#1f77b4;stroke:#1f77b4;" x="363.050314" xlink:href="#md79787bd6f" y="98.563355"/>
     <use style="fill:#1f77b4;stroke:#1f77b4;" x="365.927669" xlink:href="#md79787bd6f" y="98.563357"/>
     <use style="fill:#1f77b4;stroke:#1f77b4;" x="368.805025" xlink:href="#md79787bd6f" y="98.563361"/>
     <use style="fill:#1f77b4;stroke:#1f77b4;" x="371.68238" xlink:href="#md79787bd6f" y="98.563359"/>
     <use style="fill:#1f77b4;stroke:#1f77b4;" x="374.559736" xlink:href="#md79787bd6f" y="98.563357"/>
     <use style="fill:#1f77b4;stroke:#1f77b4;" x="377.437091" xlink:href="#md79787bd6f" y="98.563359"/>
    </g>
   </g>
   <g id="patch_3">
    <path d="M 78.336 293.76 
L 78.336 41.472 
" style="fill:none;stroke:#000000;stroke-linecap:square;stroke-linejoin:miter;stroke-width:1.5;"/>
   </g>
   <g id="patch_4">
    <path d="M 391.68 293.76 
L 391.68 41.472 
" style="fill:none;stroke:#000000;stroke-linecap:square;stroke-linejoin:miter;stroke-width:1.5;"/>
   </g>
   <g id="patch_5">
    <path d="M 78.336 293.76 
L 391.68 293.76 
" style="fill:none;stroke:#000000;stroke-linecap:square;stroke-linejoin:miter;stroke-width:1.5;"/>
   </g>
   <g id="patch_6">
    <path d="M 78.336 41.472 
L 391.68 41.472 
" style="fill:none;stroke:#000000;stroke-linecap:square;stroke-linejoin:miter;stroke-width:1.5;"/>
   </g>
  </g>
 </g>
 <defs>
  <clipPath id="p242c67f1cb">
   <rect height="252.288" width="313.344" x="78.336" y="41.472"/>
  </clipPath>
 </defs>
</svg>
