<?xml version="1.0" encoding="utf-8" standalone="no"?>
<!DOCTYPE svg PUBLIC "-//W3C//DTD SVG 1.1//EN"
  "http://www.w3.org/Graphics/SVG/1.1/DTD/svg11.dtd">
<!-- Created with matplotlib (https://matplotlib.org/) -->
<svg height="345.6pt" version="1.1" viewBox="0 0 460.8 345.6" width="460.8pt" xmlns="http://www.w3.org/2000/svg" xmlns:xlink="http://www.w3.org/1999/xlink">
 <defs>
  <style type="text/css">
*{stroke-linecap:butt;stroke-linejoin:round;}
  </style>
 </defs>
 <g id="figure_1">
  <g id="patch_1">
   <path d="M 0 345.6 
L 460.8 345.6 
L 460.8 0 
L 0 0 
z
" style="fill:#ffffff;"/>
  </g>
  <g id="axes_1">
   <g id="patch_2">
    <path d="M 78.336 293.76 
L 391.68 293.76 
L 391.68 41.472 
L 78.336 41.472 
z
" style="fill:#ffffff;"/>
   </g>
   <g id="matplotlib.axis_1">
    <g id="xtick_1">
     <g id="line2d_1">
      <defs>
       <path d="M 0 0 
L 0 12 
" id="me96e5f4d34" style="stroke:#000000;stroke-width:1.5;"/>
      </defs>
      <g>
       <use style="stroke:#000000;stroke-width:1.5;" x="92.578909" xlink:href="#me96e5f4d34" y="293.76"/>
      </g>
     </g>
     <g id="text_1">
      <!-- $-3\pi$ -->
      <defs>
       <path d="M 10.59375 35.5 
L 73.1875 35.5 
L 73.1875 27.203125 
L 10.59375 27.203125 
z
" id="DejaVuSans-8722"/>
       <path d="M 40.578125 39.3125 
Q 47.65625 37.796875 51.625 33 
Q 55.609375 28.21875 55.609375 21.1875 
Q 55.609375 10.40625 48.1875 4.484375 
Q 40.765625 -1.421875 27.09375 -1.421875 
Q 22.515625 -1.421875 17.65625 -0.515625 
Q 12.796875 0.390625 7.625 2.203125 
L 7.625 11.71875 
Q 11.71875 9.328125 16.59375 8.109375 
Q 21.484375 6.890625 26.8125 6.890625 
Q 36.078125 6.890625 40.9375 10.546875 
Q 45.796875 14.203125 45.796875 21.1875 
Q 45.796875 27.640625 41.28125 31.265625 
Q 36.765625 34.90625 28.71875 34.90625 
L 20.21875 34.90625 
L 20.21875 43.015625 
L 29.109375 43.015625 
Q 36.375 43.015625 40.234375 45.921875 
Q 44.09375 48.828125 44.09375 54.296875 
Q 44.09375 59.90625 40.109375 62.90625 
Q 36.140625 65.921875 28.71875 65.921875 
Q 24.65625 65.921875 20.015625 65.03125 
Q 15.375 64.15625 9.8125 62.3125 
L 9.8125 71.09375 
Q 15.4375 72.65625 20.34375 73.4375 
Q 25.25 74.21875 29.59375 74.21875 
Q 40.828125 74.21875 47.359375 69.109375 
Q 53.90625 64.015625 53.90625 55.328125 
Q 53.90625 49.265625 50.4375 45.09375 
Q 46.96875 40.921875 40.578125 39.3125 
z
" id="DejaVuSans-51"/>
       <path d="M 9.125 54.6875 
L 61.53125 54.6875 
L 59.765625 45.703125 
L 52.875 45.703125 
L 46.34375 12.109375 
Q 45.65625 8.59375 46.578125 7.03125 
Q 47.46875 5.515625 50.140625 5.515625 
Q 50.875 5.515625 51.953125 5.671875 
Q 53.078125 5.765625 53.421875 5.8125 
L 52.15625 -0.6875 
Q 50.34375 -1.3125 48.484375 -1.609375 
Q 46.578125 -1.90625 44.78125 -1.90625 
Q 38.921875 -1.90625 37.3125 1.265625 
Q 35.6875 4.5 37.359375 13.09375 
L 43.703125 45.703125 
L 23.53125 45.703125 
L 14.65625 0 
L 5.46875 0 
L 14.359375 45.703125 
L 7.375 45.703125 
z
" id="DejaVuSans-Oblique-960"/>
      </defs>
      <g transform="translate(78.018909 319.897812)scale(0.14 -0.14)">
       <use transform="translate(0 0.78125)" xlink:href="#DejaVuSans-8722"/>
       <use transform="translate(83.789062 0.78125)" xlink:href="#DejaVuSans-51"/>
       <use transform="translate(147.412109 0.78125)" xlink:href="#DejaVuSans-Oblique-960"/>
      </g>
     </g>
    </g>
    <g id="xtick_2">
     <g id="line2d_2">
      <g>
       <use style="stroke:#000000;stroke-width:1.5;" x="140.055273" xlink:href="#me96e5f4d34" y="293.76"/>
      </g>
     </g>
     <g id="text_2">
      <!-- $-2\pi$ -->
      <defs>
       <path d="M 19.1875 8.296875 
L 53.609375 8.296875 
L 53.609375 0 
L 7.328125 0 
L 7.328125 8.296875 
Q 12.9375 14.109375 22.625 23.890625 
Q 32.328125 33.6875 34.8125 36.53125 
Q 39.546875 41.84375 41.421875 45.53125 
Q 43.3125 49.21875 43.3125 52.78125 
Q 43.3125 58.59375 39.234375 62.25 
Q 35.15625 65.921875 28.609375 65.921875 
Q 23.96875 65.921875 18.8125 64.3125 
Q 13.671875 62.703125 7.8125 59.421875 
L 7.8125 69.390625 
Q 13.765625 71.78125 18.9375 73 
Q 24.125 74.21875 28.421875 74.21875 
Q 39.75 74.21875 46.484375 68.546875 
Q 53.21875 62.890625 53.21875 53.421875 
Q 53.21875 48.921875 51.53125 44.890625 
Q 49.859375 40.875 45.40625 35.40625 
Q 44.1875 33.984375 37.640625 27.21875 
Q 31.109375 20.453125 19.1875 8.296875 
z
" id="DejaVuSans-50"/>
      </defs>
      <g transform="translate(125.495273 319.897812)scale(0.14 -0.14)">
       <use transform="translate(0 0.78125)" xlink:href="#DejaVuSans-8722"/>
       <use transform="translate(83.789062 0.78125)" xlink:href="#DejaVuSans-50"/>
       <use transform="translate(147.412109 0.78125)" xlink:href="#DejaVuSans-Oblique-960"/>
      </g>
     </g>
    </g>
    <g id="xtick_3">
     <g id="line2d_3">
      <g>
       <use style="stroke:#000000;stroke-width:1.5;" x="187.531636" xlink:href="#me96e5f4d34" y="293.76"/>
      </g>
     </g>
     <g id="text_3">
      <!-- $-\pi$ -->
      <g transform="translate(177.451636 319.897812)scale(0.14 -0.14)">
       <use transform="translate(0 0.3125)" xlink:href="#DejaVuSans-8722"/>
       <use transform="translate(83.789062 0.3125)" xlink:href="#DejaVuSans-Oblique-960"/>
      </g>
     </g>
    </g>
    <g id="xtick_4">
     <g id="line2d_4">
      <g>
       <use style="stroke:#000000;stroke-width:1.5;" x="235.008" xlink:href="#me96e5f4d34" y="293.76"/>
      </g>
     </g>
     <g id="text_4">
      <!-- 0 -->
      <defs>
       <path d="M 31.78125 66.40625 
Q 24.171875 66.40625 20.328125 58.90625 
Q 16.5 51.421875 16.5 36.375 
Q 16.5 21.390625 20.328125 13.890625 
Q 24.171875 6.390625 31.78125 6.390625 
Q 39.453125 6.390625 43.28125 13.890625 
Q 47.125 21.390625 47.125 36.375 
Q 47.125 51.421875 43.28125 58.90625 
Q 39.453125 66.40625 31.78125 66.40625 
z
M 31.78125 74.21875 
Q 44.046875 74.21875 50.515625 64.515625 
Q 56.984375 54.828125 56.984375 36.375 
Q 56.984375 17.96875 50.515625 8.265625 
Q 44.046875 -1.421875 31.78125 -1.421875 
Q 19.53125 -1.421875 13.0625 8.265625 
Q 6.59375 17.96875 6.59375 36.375 
Q 6.59375 54.828125 13.0625 64.515625 
Q 19.53125 74.21875 31.78125 74.21875 
z
" id="DejaVuSans-48"/>
      </defs>
      <g transform="translate(230.55425 319.897812)scale(0.14 -0.14)">
       <use xlink:href="#DejaVuSans-48"/>
      </g>
     </g>
    </g>
    <g id="xtick_5">
     <g id="line2d_5">
      <g>
       <use style="stroke:#000000;stroke-width:1.5;" x="282.484364" xlink:href="#me96e5f4d34" y="293.76"/>
      </g>
     </g>
     <g id="text_5">
      <!-- $\pi$ -->
      <g transform="translate(278.214364 319.897812)scale(0.14 -0.14)">
       <use transform="translate(0 0.3125)" xlink:href="#DejaVuSans-Oblique-960"/>
      </g>
     </g>
    </g>
    <g id="xtick_6">
     <g id="line2d_6">
      <g>
       <use style="stroke:#000000;stroke-width:1.5;" x="329.960727" xlink:href="#me96e5f4d34" y="293.76"/>
      </g>
     </g>
     <g id="text_6">
      <!-- $2\pi$ -->
      <g transform="translate(321.280727 319.897812)scale(0.14 -0.14)">
       <use transform="translate(0 0.78125)" xlink:href="#DejaVuSans-50"/>
       <use transform="translate(63.623047 0.78125)" xlink:href="#DejaVuSans-Oblique-960"/>
      </g>
     </g>
    </g>
    <g id="xtick_7">
     <g id="line2d_7">
      <g>
       <use style="stroke:#000000;stroke-width:1.5;" x="377.437091" xlink:href="#me96e5f4d34" y="293.76"/>
      </g>
     </g>
     <g id="text_7">
      <!-- $3\pi$ -->
      <g transform="translate(368.757091 319.897812)scale(0.14 -0.14)">
       <use transform="translate(0 0.78125)" xlink:href="#DejaVuSans-51"/>
       <use transform="translate(63.623047 0.78125)" xlink:href="#DejaVuSans-Oblique-960"/>
      </g>
     </g>
    </g>
   </g>
   <g id="matplotlib.axis_2">
    <g id="ytick_1">
     <g id="line2d_8">
      <defs>
       <path d="M 0 0 
L -12 0 
" id="md48019d44b" style="stroke:#000000;stroke-width:1.5;"/>
      </defs>
      <g>
       <use style="stroke:#000000;stroke-width:1.5;" x="78.336" xlink:href="#md48019d44b" y="257.682605"/>
      </g>
     </g>
     <g id="text_8">
      <!-- -1 -->
      <defs>
       <path d="M 4.890625 31.390625 
L 31.203125 31.390625 
L 31.203125 23.390625 
L 4.890625 23.390625 
z
" id="DejaVuSans-45"/>
       <path d="M 12.40625 8.296875 
L 28.515625 8.296875 
L 28.515625 63.921875 
L 10.984375 60.40625 
L 10.984375 69.390625 
L 28.421875 72.90625 
L 38.28125 72.90625 
L 38.28125 8.296875 
L 54.390625 8.296875 
L 54.390625 0 
L 12.40625 0 
z
" id="DejaVuSans-49"/>
      </defs>
      <g transform="translate(48.877563 263.001512)scale(0.14 -0.14)">
       <use xlink:href="#DejaVuSans-45"/>
       <use x="36.083984" xlink:href="#DejaVuSans-49"/>
      </g>
     </g>
    </g>
    <g id="ytick_2">
     <g id="line2d_9">
      <g>
       <use style="stroke:#000000;stroke-width:1.5;" x="78.336" xlink:href="#md48019d44b" y="167.616"/>
      </g>
     </g>
     <g id="text_9">
      <!-- 0 -->
      <g transform="translate(53.9285 172.934906)scale(0.14 -0.14)">
       <use xlink:href="#DejaVuSans-48"/>
      </g>
     </g>
    </g>
    <g id="ytick_3">
     <g id="line2d_10">
      <g>
       <use style="stroke:#000000;stroke-width:1.5;" x="78.336" xlink:href="#md48019d44b" y="77.549395"/>
      </g>
     </g>
     <g id="text_10">
      <!-- 1 -->
      <g transform="translate(53.9285 82.868301)scale(0.14 -0.14)">
       <use xlink:href="#DejaVuSans-49"/>
      </g>
     </g>
    </g>
   </g>
   <g id="line2d_11">
    <path clip-path="url(#p7608e3d0eb)" d="M 92.578909 167.616 
L 97.854061 206.837626 
L 100.491636 224.954182 
L 103.129212 241.328546 
L 105.766788 255.463191 
L 107.085576 261.553378 
L 108.404364 266.928644 
L 109.723152 271.548081 
L 111.041939 275.376533 
L 112.360727 278.384861 
L 113.679515 280.550172 
L 114.998303 281.855985 
L 116.317091 282.292364 
L 117.635879 281.855985 
L 118.954667 280.550172 
L 120.273455 278.384861 
L 121.592242 275.376533 
L 122.91103 271.548081 
L 124.229818 266.928644 
L 125.548606 261.553378 
L 126.867394 255.463191 
L 128.186182 248.704434 
L 130.823758 233.39166 
L 133.461333 216.080325 
L 136.098909 197.296427 
L 146.649212 119.151675 
L 149.286788 101.84034 
L 151.924364 86.527566 
L 153.243152 79.768809 
L 154.561939 73.678622 
L 155.880727 68.303356 
L 157.199515 63.683919 
L 158.518303 59.855467 
L 159.837091 56.847139 
L 161.155879 54.681828 
L 162.474667 53.376015 
L 163.793455 52.939636 
L 165.112242 53.376015 
L 166.43103 54.681828 
L 167.749818 56.847139 
L 169.068606 59.855467 
L 170.387394 63.683919 
L 171.706182 68.303356 
L 173.02497 73.678622 
L 174.343758 79.768809 
L 175.662545 86.527566 
L 178.300121 101.84034 
L 180.937697 119.151675 
L 183.575273 137.935573 
L 194.125576 216.080325 
L 196.763152 233.39166 
L 199.400727 248.704434 
L 200.719515 255.463191 
L 202.038303 261.553378 
L 203.357091 266.928644 
L 204.675879 271.548081 
L 205.994667 275.376533 
L 207.313455 278.384861 
L 208.632242 280.550172 
L 209.95103 281.855985 
L 211.269818 282.292364 
L 212.588606 281.855985 
L 213.907394 280.550172 
L 215.226182 278.384861 
L 216.54497 275.376533 
L 217.863758 271.548081 
L 219.182545 266.928644 
L 220.501333 261.553378 
L 221.820121 255.463191 
L 223.138909 248.704434 
L 225.776485 233.39166 
L 228.414061 216.080325 
L 231.051636 197.296427 
L 241.601939 119.151675 
L 244.239515 101.84034 
L 246.877091 86.527566 
L 248.195879 79.768809 
L 249.514667 73.678622 
L 250.833455 68.303356 
L 252.152242 63.683919 
L 253.47103 59.855467 
L 254.789818 56.847139 
L 256.108606 54.681828 
L 257.427394 53.376015 
L 258.746182 52.939636 
L 260.06497 53.376015 
L 261.383758 54.681828 
L 262.702545 56.847139 
L 264.021333 59.855467 
L 265.340121 63.683919 
L 266.658909 68.303356 
L 267.977697 73.678622 
L 269.296485 79.768809 
L 270.615273 86.527566 
L 273.252848 101.84034 
L 275.890424 119.151675 
L 278.528 137.935573 
L 289.078303 216.080325 
L 291.715879 233.39166 
L 294.353455 248.704434 
L 295.672242 255.463191 
L 296.99103 261.553378 
L 298.309818 266.928644 
L 299.628606 271.548081 
L 300.947394 275.376533 
L 302.266182 278.384861 
L 303.58497 280.550172 
L 304.903758 281.855985 
L 306.222545 282.292364 
L 307.541333 281.855985 
L 308.860121 280.550172 
L 310.178909 278.384861 
L 311.497697 275.376533 
L 312.816485 271.548081 
L 314.135273 266.928644 
L 315.454061 261.553378 
L 316.772848 255.463191 
L 318.091636 248.704434 
L 320.729212 233.39166 
L 323.366788 216.080325 
L 326.004364 197.296427 
L 336.554667 119.151675 
L 339.192242 101.84034 
L 341.829818 86.527566 
L 343.148606 79.768809 
L 344.467394 73.678622 
L 345.786182 68.303356 
L 347.10497 63.683919 
L 348.423758 59.855467 
L 349.742545 56.847139 
L 351.061333 54.681828 
L 352.380121 53.376015 
L 353.698909 52.939636 
L 355.017697 53.376015 
L 356.336485 54.681828 
L 357.655273 56.847139 
L 358.974061 59.855467 
L 360.292848 63.683919 
L 361.611636 68.303356 
L 362.930424 73.678622 
L 364.249212 79.768809 
L 365.568 86.527566 
L 368.205576 101.84034 
L 370.843152 119.151675 
L 373.480727 137.935573 
L 377.437091 167.616 
L 377.437091 167.616 
" style="fill:none;stroke:#1f77b4;stroke-linecap:square;stroke-width:1.5;"/>
   </g>
   <g id="line2d_12">
    <path clip-path="url(#p7608e3d0eb)" d="M 92.578909 167.616 
L 95.216485 206.642069 
L 96.535273 224.325905 
L 97.854061 239.941841 
L 99.172848 253.003279 
L 100.491636 263.179636 
L 101.810424 270.314614 
L 103.129212 274.43276 
L 104.448 275.733912 
L 105.766788 274.575918 
L 107.085576 271.446853 
L 108.404364 266.928644 
L 112.360727 251.355383 
L 113.679515 247.445957 
L 114.998303 244.933032 
L 116.317091 244.066909 
L 117.635879 244.933032 
L 118.954667 247.445957 
L 120.273455 251.355383 
L 121.592242 256.263805 
L 124.229818 266.928644 
L 125.548606 271.446853 
L 126.867394 274.575918 
L 128.186182 275.733912 
L 129.50497 274.43276 
L 130.823758 270.314614 
L 132.142545 263.179636 
L 133.461333 253.003279 
L 134.780121 239.941841 
L 136.098909 224.325905 
L 138.736485 187.504179 
L 142.692848 128.589931 
L 144.011636 110.906095 
L 145.330424 95.290159 
L 146.649212 82.228721 
L 147.968 72.052364 
L 149.286788 64.917386 
L 150.605576 60.79924 
L 151.924364 59.498088 
L 153.243152 60.656082 
L 154.561939 63.785147 
L 155.880727 68.303356 
L 159.837091 83.876617 
L 161.155879 87.786043 
L 162.474667 90.298968 
L 163.793455 91.165091 
L 165.112242 90.298968 
L 166.43103 87.786043 
L 167.749818 83.876617 
L 169.068606 78.968195 
L 171.706182 68.303356 
L 173.02497 63.785147 
L 174.343758 60.656082 
L 175.662545 59.498088 
L 176.981333 60.79924 
L 178.300121 64.917386 
L 179.618909 72.052364 
L 180.937697 82.228721 
L 182.256485 95.290159 
L 183.575273 110.906095 
L 186.212848 147.727821 
L 190.169212 206.642069 
L 191.488 224.325905 
L 192.806788 239.941841 
L 194.125576 253.003279 
L 195.444364 263.179636 
L 196.763152 270.314614 
L 198.081939 274.43276 
L 199.400727 275.733912 
L 200.719515 274.575918 
L 202.038303 271.446853 
L 203.357091 266.928644 
L 207.313455 251.355383 
L 208.632242 247.445957 
L 209.95103 244.933032 
L 211.269818 244.066909 
L 212.588606 244.933032 
L 213.907394 247.445957 
L 215.226182 251.355383 
L 216.54497 256.263805 
L 219.182545 266.928644 
L 220.501333 271.446853 
L 221.820121 274.575918 
L 223.138909 275.733912 
L 224.457697 274.43276 
L 225.776485 270.314614 
L 227.095273 263.179636 
L 228.414061 253.003279 
L 229.732848 239.941841 
L 231.051636 224.325905 
L 233.689212 187.504179 
L 237.645576 128.589931 
L 238.964364 110.906095 
L 240.283152 95.290159 
L 241.601939 82.228721 
L 242.920727 72.052364 
L 244.239515 64.917386 
L 245.558303 60.79924 
L 246.877091 59.498088 
L 248.195879 60.656082 
L 249.514667 63.785147 
L 250.833455 68.303356 
L 254.789818 83.876617 
L 256.108606 87.786043 
L 257.427394 90.298968 
L 258.746182 91.165091 
L 260.06497 90.298968 
L 261.383758 87.786043 
L 262.702545 83.876617 
L 264.021333 78.968195 
L 266.658909 68.303356 
L 267.977697 63.785147 
L 269.296485 60.656082 
L 270.615273 59.498088 
L 271.934061 60.79924 
L 273.252848 64.917386 
L 274.571636 72.052364 
L 275.890424 82.228721 
L 277.209212 95.290159 
L 278.528 110.906095 
L 281.165576 147.727821 
L 285.121939 206.642069 
L 286.440727 224.325905 
L 287.759515 239.941841 
L 289.078303 253.003279 
L 290.397091 263.179636 
L 291.715879 270.314614 
L 293.034667 274.43276 
L 294.353455 275.733912 
L 295.672242 274.575918 
L 296.99103 271.446853 
L 298.309818 266.928644 
L 302.266182 251.355383 
L 303.58497 247.445957 
L 304.903758 244.933032 
L 306.222545 244.066909 
L 307.541333 244.933032 
L 308.860121 247.445957 
L 310.178909 251.355383 
L 311.497697 256.263805 
L 314.135273 266.928644 
L 315.454061 271.446853 
L 316.772848 274.575918 
L 318.091636 275.733912 
L 319.410424 274.43276 
L 320.729212 270.314614 
L 322.048 263.179636 
L 323.366788 253.003279 
L 324.685576 239.941841 
L 326.004364 224.325905 
L 328.641939 187.504179 
L 332.598303 128.589931 
L 333.917091 110.906095 
L 335.235879 95.290159 
L 336.554667 82.228721 
L 337.873455 72.052364 
L 339.192242 64.917386 
L 340.51103 60.79924 
L 341.829818 59.498088 
L 343.148606 60.656082 
L 344.467394 63.785147 
L 345.786182 68.303356 
L 349.742545 83.876617 
L 351.061333 87.786043 
L 352.380121 90.298968 
L 353.698909 91.165091 
L 355.017697 90.298968 
L 356.336485 87.786043 
L 357.655273 83.876617 
L 358.974061 78.968195 
L 361.611636 68.303356 
L 362.930424 63.785147 
L 364.249212 60.656082 
L 365.568 59.498088 
L 366.886788 60.79924 
L 368.205576 64.917386 
L 369.524364 72.052364 
L 370.843152 82.228721 
L 372.161939 95.290159 
L 373.480727 110.906095 
L 376.118303 147.727821 
L 377.437091 167.616 
L 377.437091 167.616 
" style="fill:none;stroke:#ff7f0e;stroke-linecap:square;stroke-width:1.5;"/>
   </g>
   <g id="line2d_13">
    <path clip-path="url(#p7608e3d0eb)" d="M 92.578909 167.616 
L 93.897697 197.197044 
L 95.216485 224.211507 
L 96.535273 246.479677 
L 97.854061 262.528675 
L 99.172848 271.790755 
L 100.491636 274.647273 
L 101.810424 272.313554 
L 103.129212 266.588435 
L 105.766788 253.023812 
L 107.085576 248.598856 
L 108.404364 247.066115 
L 109.723152 248.499474 
L 111.041939 252.281137 
L 113.679515 262.188466 
L 114.998303 265.719448 
L 116.317091 267.002182 
L 117.635879 265.719448 
L 118.954667 262.188466 
L 121.592242 252.281137 
L 122.91103 248.499474 
L 124.229818 247.066115 
L 125.548606 248.598856 
L 126.867394 253.023812 
L 128.186182 259.516226 
L 129.50497 266.588435 
L 130.823758 272.313554 
L 132.142545 274.647273 
L 133.461333 271.790755 
L 134.780121 262.528675 
L 136.098909 246.479677 
L 137.417697 224.211507 
L 138.736485 197.197044 
L 141.374061 138.034956 
L 142.692848 111.020493 
L 144.011636 88.752323 
L 145.330424 72.703325 
L 146.649212 63.441245 
L 147.968 60.584727 
L 149.286788 62.918446 
L 150.605576 68.643565 
L 153.243152 82.208188 
L 154.561939 86.633144 
L 155.880727 88.165885 
L 157.199515 86.732526 
L 158.518303 82.950863 
L 161.155879 73.043534 
L 162.474667 69.512552 
L 163.793455 68.229818 
L 165.112242 69.512552 
L 166.43103 73.043534 
L 169.068606 82.950863 
L 170.387394 86.732526 
L 171.706182 88.165885 
L 173.02497 86.633144 
L 174.343758 82.208188 
L 175.662545 75.715774 
L 176.981333 68.643565 
L 178.300121 62.918446 
L 179.618909 60.584727 
L 180.937697 63.441245 
L 182.256485 72.703325 
L 183.575273 88.752323 
L 184.894061 111.020493 
L 186.212848 138.034956 
L 188.850424 197.197044 
L 190.169212 224.211507 
L 191.488 246.479677 
L 192.806788 262.528675 
L 194.125576 271.790755 
L 195.444364 274.647273 
L 196.763152 272.313554 
L 198.081939 266.588435 
L 200.719515 253.023812 
L 202.038303 248.598856 
L 203.357091 247.066115 
L 204.675879 248.499474 
L 205.994667 252.281137 
L 208.632242 262.188466 
L 209.95103 265.719448 
L 211.269818 267.002182 
L 212.588606 265.719448 
L 213.907394 262.188466 
L 216.54497 252.281137 
L 217.863758 248.499474 
L 219.182545 247.066115 
L 220.501333 248.598856 
L 221.820121 253.023812 
L 223.138909 259.516226 
L 224.457697 266.588435 
L 225.776485 272.313554 
L 227.095273 274.647273 
L 228.414061 271.790755 
L 229.732848 262.528675 
L 231.051636 246.479677 
L 232.370424 224.211507 
L 233.689212 197.197044 
L 236.326788 138.034956 
L 237.645576 111.020493 
L 238.964364 88.752323 
L 240.283152 72.703325 
L 241.601939 63.441245 
L 242.920727 60.584727 
L 244.239515 62.918446 
L 245.558303 68.643565 
L 248.195879 82.208188 
L 249.514667 86.633144 
L 250.833455 88.165885 
L 252.152242 86.732526 
L 253.47103 82.950863 
L 256.108606 73.043534 
L 257.427394 69.512552 
L 258.746182 68.229818 
L 260.06497 69.512552 
L 261.383758 73.043534 
L 264.021333 82.950863 
L 265.340121 86.732526 
L 266.658909 88.165885 
L 267.977697 86.633144 
L 269.296485 82.208188 
L 270.615273 75.715774 
L 271.934061 68.643565 
L 273.252848 62.918446 
L 274.571636 60.584727 
L 275.890424 63.441245 
L 277.209212 72.703325 
L 278.528 88.752323 
L 279.846788 111.020493 
L 281.165576 138.034956 
L 283.803152 197.197044 
L 285.121939 224.211507 
L 286.440727 246.479677 
L 287.759515 262.528675 
L 289.078303 271.790755 
L 290.397091 274.647273 
L 291.715879 272.313554 
L 293.034667 266.588435 
L 295.672242 253.023812 
L 296.99103 248.598856 
L 298.309818 247.066115 
L 299.628606 248.499474 
L 300.947394 252.281137 
L 303.58497 262.188466 
L 304.903758 265.719448 
L 306.222545 267.002182 
L 307.541333 265.719448 
L 308.860121 262.188466 
L 311.497697 252.281137 
L 312.816485 248.499474 
L 314.135273 247.066115 
L 315.454061 248.598856 
L 316.772848 253.023812 
L 318.091636 259.516226 
L 319.410424 266.588435 
L 320.729212 272.313554 
L 322.048 274.647273 
L 323.366788 271.790755 
L 324.685576 262.528675 
L 326.004364 246.479677 
L 327.323152 224.211507 
L 328.641939 197.197044 
L 331.279515 138.034956 
L 332.598303 111.020493 
L 333.917091 88.752323 
L 335.235879 72.703325 
L 336.554667 63.441245 
L 337.873455 60.584727 
L 339.192242 62.918446 
L 340.51103 68.643565 
L 343.148606 82.208188 
L 344.467394 86.633144 
L 345.786182 88.165885 
L 347.10497 86.732526 
L 348.423758 82.950863 
L 351.061333 73.043534 
L 352.380121 69.512552 
L 353.698909 68.229818 
L 355.017697 69.512552 
L 356.336485 73.043534 
L 358.974061 82.950863 
L 360.292848 86.732526 
L 361.611636 88.165885 
L 362.930424 86.633144 
L 364.249212 82.208188 
L 365.568 75.715774 
L 366.886788 68.643565 
L 368.205576 62.918446 
L 369.524364 60.584727 
L 370.843152 63.441245 
L 372.161939 72.703325 
L 373.480727 88.752323 
L 374.799515 111.020493 
L 376.118303 138.034956 
L 377.437091 167.616 
L 377.437091 167.616 
" style="fill:none;stroke:#2ca02c;stroke-linecap:square;stroke-width:1.5;"/>
   </g>
   <g id="patch_3">
    <path d="M 78.336 293.76 
L 78.336 41.472 
" style="fill:none;stroke:#000000;stroke-linecap:square;stroke-linejoin:miter;stroke-width:1.5;"/>
   </g>
   <g id="patch_4">
    <path d="M 391.68 293.76 
L 391.68 41.472 
" style="fill:none;stroke:#000000;stroke-linecap:square;stroke-linejoin:miter;stroke-width:1.5;"/>
   </g>
   <g id="patch_5">
    <path d="M 78.336 293.76 
L 391.68 293.76 
" style="fill:none;stroke:#000000;stroke-linecap:square;stroke-linejoin:miter;stroke-width:1.5;"/>
   </g>
   <g id="patch_6">
    <path d="M 78.336 41.472 
L 391.68 41.472 
" style="fill:none;stroke:#000000;stroke-linecap:square;stroke-linejoin:miter;stroke-width:1.5;"/>
   </g>
   <g id="legend_1">
    <g id="patch_7">
     <path d="M 280.854688 200.540062 
L 381.88 200.540062 
Q 384.68 200.540062 384.68 197.740062 
L 384.68 137.491937 
Q 384.68 134.691937 381.88 134.691937 
L 280.854688 134.691937 
Q 278.054688 134.691937 278.054688 137.491937 
L 278.054688 197.740062 
Q 278.054688 200.540062 280.854688 200.540062 
z
" style="fill:none;opacity:0;"/>
    </g>
    <g id="line2d_14">
     <path d="M 283.654688 146.02975 
L 311.654688 146.02975 
" style="fill:none;stroke:#1f77b4;stroke-linecap:square;stroke-width:1.5;"/>
    </g>
    <g id="line2d_15"/>
    <g id="text_11">
     <!-- n=1 -->
     <defs>
      <path d="M 54.890625 33.015625 
L 54.890625 0 
L 45.90625 0 
L 45.90625 32.71875 
Q 45.90625 40.484375 42.875 44.328125 
Q 39.84375 48.1875 33.796875 48.1875 
Q 26.515625 48.1875 22.3125 43.546875 
Q 18.109375 38.921875 18.109375 30.90625 
L 18.109375 0 
L 9.078125 0 
L 9.078125 54.6875 
L 18.109375 54.6875 
L 18.109375 46.1875 
Q 21.34375 51.125 25.703125 53.5625 
Q 30.078125 56 35.796875 56 
Q 45.21875 56 50.046875 50.171875 
Q 54.890625 44.34375 54.890625 33.015625 
z
" id="DejaVuSans-110"/>
      <path d="M 10.59375 45.40625 
L 73.1875 45.40625 
L 73.1875 37.203125 
L 10.59375 37.203125 
z
M 10.59375 25.484375 
L 73.1875 25.484375 
L 73.1875 17.1875 
L 10.59375 17.1875 
z
" id="DejaVuSans-61"/>
     </defs>
     <g transform="translate(322.854688 150.92975)scale(0.14 -0.14)">
      <use xlink:href="#DejaVuSans-110"/>
      <use x="63.378906" xlink:href="#DejaVuSans-61"/>
      <use x="147.167969" xlink:href="#DejaVuSans-49"/>
     </g>
    </g>
    <g id="line2d_16">
     <path d="M 283.654688 166.579125 
L 311.654688 166.579125 
" style="fill:none;stroke:#ff7f0e;stroke-linecap:square;stroke-width:1.5;"/>
    </g>
    <g id="line2d_17"/>
    <g id="text_12">
     <!-- n=1,3 -->
     <defs>
      <path d="M 11.71875 12.40625 
L 22.015625 12.40625 
L 22.015625 4 
L 14.015625 -11.625 
L 7.71875 -11.625 
L 11.71875 4 
z
" id="DejaVuSans-44"/>
     </defs>
     <g transform="translate(322.854688 171.479125)scale(0.14 -0.14)">
      <use xlink:href="#DejaVuSans-110"/>
      <use x="63.378906" xlink:href="#DejaVuSans-61"/>
      <use x="147.167969" xlink:href="#DejaVuSans-49"/>
      <use x="210.791016" xlink:href="#DejaVuSans-44"/>
      <use x="242.578125" xlink:href="#DejaVuSans-51"/>
     </g>
    </g>
    <g id="line2d_18">
     <path d="M 283.654688 187.1285 
L 311.654688 187.1285 
" style="fill:none;stroke:#2ca02c;stroke-linecap:square;stroke-width:1.5;"/>
    </g>
    <g id="line2d_19"/>
    <g id="text_13">
     <!-- n=1,3,5 -->
     <defs>
      <path d="M 10.796875 72.90625 
L 49.515625 72.90625 
L 49.515625 64.59375 
L 19.828125 64.59375 
L 19.828125 46.734375 
Q 21.96875 47.46875 24.109375 47.828125 
Q 26.265625 48.1875 28.421875 48.1875 
Q 40.625 48.1875 47.75 41.5 
Q 54.890625 34.8125 54.890625 23.390625 
Q 54.890625 11.625 47.5625 5.09375 
Q 40.234375 -1.421875 26.90625 -1.421875 
Q 22.3125 -1.421875 17.546875 -0.640625 
Q 12.796875 0.140625 7.71875 1.703125 
L 7.71875 11.625 
Q 12.109375 9.234375 16.796875 8.0625 
Q 21.484375 6.890625 26.703125 6.890625 
Q 35.15625 6.890625 40.078125 11.328125 
Q 45.015625 15.765625 45.015625 23.390625 
Q 45.015625 31 40.078125 35.4375 
Q 35.15625 39.890625 26.703125 39.890625 
Q 22.75 39.890625 18.8125 39.015625 
Q 14.890625 38.140625 10.796875 36.28125 
z
" id="DejaVuSans-53"/>
     </defs>
     <g transform="translate(322.854688 192.0285)scale(0.14 -0.14)">
      <use xlink:href="#DejaVuSans-110"/>
      <use x="63.378906" xlink:href="#DejaVuSans-61"/>
      <use x="147.167969" xlink:href="#DejaVuSans-49"/>
      <use x="210.791016" xlink:href="#DejaVuSans-44"/>
      <use x="242.578125" xlink:href="#DejaVuSans-51"/>
      <use x="306.201172" xlink:href="#DejaVuSans-44"/>
      <use x="337.988281" xlink:href="#DejaVuSans-53"/>
     </g>
    </g>
   </g>
  </g>
 </g>
 <defs>
  <clipPath id="p7608e3d0eb">
   <rect height="252.288" width="313.344" x="78.336" y="41.472"/>
  </clipPath>
 </defs>
</svg>
