<?xml version="1.0" encoding="utf-8" standalone="no"?>
<!DOCTYPE svg PUBLIC "-//W3C//DTD SVG 1.1//EN"
  "http://www.w3.org/Graphics/SVG/1.1/DTD/svg11.dtd">
<!-- Created with matplotlib (https://matplotlib.org/) -->
<svg height="345.6pt" version="1.1" viewBox="0 0 460.8 345.6" width="460.8pt" xmlns="http://www.w3.org/2000/svg" xmlns:xlink="http://www.w3.org/1999/xlink">
 <defs>
  <style type="text/css">
*{stroke-linecap:butt;stroke-linejoin:round;}
  </style>
 </defs>
 <g id="figure_1">
  <g id="patch_1">
   <path d="M 0 345.6 
L 460.8 345.6 
L 460.8 0 
L 0 0 
z
" style="fill:#ffffff;"/>
  </g>
  <g id="axes_1">
   <g id="patch_2">
    <path d="M 78.336 192.032416 
L 391.68 192.032416 
L 391.68 143.199584 
L 78.336 143.199584 
z
" style="fill:#ffffff;"/>
   </g>
   <g id="matplotlib.axis_1">
    <g id="xtick_1">
     <g id="line2d_1">
      <defs>
       <path d="M 0 0 
L 0 12 
" id="mec34cb996b" style="stroke:#000000;stroke-width:1.5;"/>
      </defs>
      <g>
       <use style="stroke:#000000;stroke-width:1.5;" x="105.474892" xlink:href="#mec34cb996b" y="192.032416"/>
      </g>
     </g>
     <g id="text_1">
      <!-- −10 -->
      <defs>
       <path d="M 10.59375 35.5 
L 73.1875 35.5 
L 73.1875 27.203125 
L 10.59375 27.203125 
z
" id="DejaVuSans-8722"/>
       <path d="M 12.40625 8.296875 
L 28.515625 8.296875 
L 28.515625 63.921875 
L 10.984375 60.40625 
L 10.984375 69.390625 
L 28.421875 72.90625 
L 38.28125 72.90625 
L 38.28125 8.296875 
L 54.390625 8.296875 
L 54.390625 0 
L 12.40625 0 
z
" id="DejaVuSans-49"/>
       <path d="M 31.78125 66.40625 
Q 24.171875 66.40625 20.328125 58.90625 
Q 16.5 51.421875 16.5 36.375 
Q 16.5 21.390625 20.328125 13.890625 
Q 24.171875 6.390625 31.78125 6.390625 
Q 39.453125 6.390625 43.28125 13.890625 
Q 47.125 21.390625 47.125 36.375 
Q 47.125 51.421875 43.28125 58.90625 
Q 39.453125 66.40625 31.78125 66.40625 
z
M 31.78125 74.21875 
Q 44.046875 74.21875 50.515625 64.515625 
Q 56.984375 54.828125 56.984375 36.375 
Q 56.984375 17.96875 50.515625 8.265625 
Q 44.046875 -1.421875 31.78125 -1.421875 
Q 19.53125 -1.421875 13.0625 8.265625 
Q 6.59375 17.96875 6.59375 36.375 
Q 6.59375 54.828125 13.0625 64.515625 
Q 19.53125 74.21875 31.78125 74.21875 
z
" id="DejaVuSans-48"/>
      </defs>
      <g transform="translate(90.701611 218.170228)scale(0.14 -0.14)">
       <use xlink:href="#DejaVuSans-8722"/>
       <use x="83.789062" xlink:href="#DejaVuSans-49"/>
       <use x="147.412109" xlink:href="#DejaVuSans-48"/>
      </g>
     </g>
    </g>
    <g id="xtick_2">
     <g id="line2d_2">
      <g>
       <use style="stroke:#000000;stroke-width:1.5;" x="170.241446" xlink:href="#mec34cb996b" y="192.032416"/>
      </g>
     </g>
     <g id="text_2">
      <!-- −5 -->
      <defs>
       <path d="M 10.796875 72.90625 
L 49.515625 72.90625 
L 49.515625 64.59375 
L 19.828125 64.59375 
L 19.828125 46.734375 
Q 21.96875 47.46875 24.109375 47.828125 
Q 26.265625 48.1875 28.421875 48.1875 
Q 40.625 48.1875 47.75 41.5 
Q 54.890625 34.8125 54.890625 23.390625 
Q 54.890625 11.625 47.5625 5.09375 
Q 40.234375 -1.421875 26.90625 -1.421875 
Q 22.3125 -1.421875 17.546875 -0.640625 
Q 12.796875 0.140625 7.71875 1.703125 
L 7.71875 11.625 
Q 12.109375 9.234375 16.796875 8.0625 
Q 21.484375 6.890625 26.703125 6.890625 
Q 35.15625 6.890625 40.078125 11.328125 
Q 45.015625 15.765625 45.015625 23.390625 
Q 45.015625 31 40.078125 35.4375 
Q 35.15625 39.890625 26.703125 39.890625 
Q 22.75 39.890625 18.8125 39.015625 
Q 14.890625 38.140625 10.796875 36.28125 
z
" id="DejaVuSans-53"/>
      </defs>
      <g transform="translate(159.921915 218.170228)scale(0.14 -0.14)">
       <use xlink:href="#DejaVuSans-8722"/>
       <use x="83.789062" xlink:href="#DejaVuSans-53"/>
      </g>
     </g>
    </g>
    <g id="xtick_3">
     <g id="line2d_3">
      <g>
       <use style="stroke:#000000;stroke-width:1.5;" x="235.008" xlink:href="#mec34cb996b" y="192.032416"/>
      </g>
     </g>
     <g id="text_3">
      <!-- 0 -->
      <g transform="translate(230.55425 218.170228)scale(0.14 -0.14)">
       <use xlink:href="#DejaVuSans-48"/>
      </g>
     </g>
    </g>
    <g id="xtick_4">
     <g id="line2d_4">
      <g>
       <use style="stroke:#000000;stroke-width:1.5;" x="299.774554" xlink:href="#mec34cb996b" y="192.032416"/>
      </g>
     </g>
     <g id="text_4">
      <!-- 5 -->
      <g transform="translate(295.320804 218.170228)scale(0.14 -0.14)">
       <use xlink:href="#DejaVuSans-53"/>
      </g>
     </g>
    </g>
    <g id="xtick_5">
     <g id="line2d_5">
      <g>
       <use style="stroke:#000000;stroke-width:1.5;" x="364.541108" xlink:href="#mec34cb996b" y="192.032416"/>
      </g>
     </g>
     <g id="text_5">
      <!-- 10 -->
      <g transform="translate(355.633608 218.170228)scale(0.14 -0.14)">
       <use xlink:href="#DejaVuSans-49"/>
       <use x="63.623047" xlink:href="#DejaVuSans-48"/>
      </g>
     </g>
    </g>
   </g>
   <g id="matplotlib.axis_2">
    <g id="ytick_1">
     <g id="line2d_6">
      <defs>
       <path d="M 0 0 
L -12 0 
" id="m3588c9eb9d" style="stroke:#000000;stroke-width:1.5;"/>
      </defs>
      <g>
       <use style="stroke:#000000;stroke-width:1.5;" x="78.336" xlink:href="#m3588c9eb9d" y="187.963013"/>
      </g>
     </g>
     <g id="text_6">
      <!-- 0.0 -->
      <defs>
       <path d="M 10.6875 12.40625 
L 21 12.40625 
L 21 0 
L 10.6875 0 
z
" id="DejaVuSans-46"/>
      </defs>
      <g transform="translate(40.571625 193.281919)scale(0.14 -0.14)">
       <use xlink:href="#DejaVuSans-48"/>
       <use x="63.623047" xlink:href="#DejaVuSans-46"/>
       <use x="95.410156" xlink:href="#DejaVuSans-48"/>
      </g>
     </g>
    </g>
    <g id="ytick_2">
     <g id="line2d_7">
      <g>
       <use style="stroke:#000000;stroke-width:1.5;" x="78.336" xlink:href="#m3588c9eb9d" y="155.579736"/>
      </g>
     </g>
     <g id="text_7">
      <!-- 2.5 -->
      <defs>
       <path d="M 19.1875 8.296875 
L 53.609375 8.296875 
L 53.609375 0 
L 7.328125 0 
L 7.328125 8.296875 
Q 12.9375 14.109375 22.625 23.890625 
Q 32.328125 33.6875 34.8125 36.53125 
Q 39.546875 41.84375 41.421875 45.53125 
Q 43.3125 49.21875 43.3125 52.78125 
Q 43.3125 58.59375 39.234375 62.25 
Q 35.15625 65.921875 28.609375 65.921875 
Q 23.96875 65.921875 18.8125 64.3125 
Q 13.671875 62.703125 7.8125 59.421875 
L 7.8125 69.390625 
Q 13.765625 71.78125 18.9375 73 
Q 24.125 74.21875 28.421875 74.21875 
Q 39.75 74.21875 46.484375 68.546875 
Q 53.21875 62.890625 53.21875 53.421875 
Q 53.21875 48.921875 51.53125 44.890625 
Q 49.859375 40.875 45.40625 35.40625 
Q 44.1875 33.984375 37.640625 27.21875 
Q 31.109375 20.453125 19.1875 8.296875 
z
" id="DejaVuSans-50"/>
      </defs>
      <g transform="translate(40.571625 160.898642)scale(0.14 -0.14)">
       <use xlink:href="#DejaVuSans-50"/>
       <use x="63.623047" xlink:href="#DejaVuSans-46"/>
       <use x="95.410156" xlink:href="#DejaVuSans-53"/>
      </g>
     </g>
    </g>
   </g>
   <g id="line2d_8">
    <defs>
     <path d="M 0 3 
C 0.795609 3 1.55874 2.683901 2.12132 2.12132 
C 2.683901 1.55874 3 0.795609 3 0 
C 3 -0.795609 2.683901 -1.55874 2.12132 -2.12132 
C 1.55874 -2.683901 0.795609 -3 0 -3 
C -0.795609 -3 -1.55874 -2.683901 -2.12132 -2.12132 
C -2.683901 -1.55874 -3 -0.795609 -3 0 
C -3 0.795609 -2.683901 1.55874 -2.12132 2.12132 
C -1.55874 2.683901 -0.795609 3 0 3 
z
" id="m381ba9dc6d" style="stroke:#1f77b4;"/>
    </defs>
    <g clip-path="url(#p3b417fe124)">
     <use style="fill:#1f77b4;stroke:#1f77b4;" x="92.578909" xlink:href="#m381ba9dc6d" y="167.616"/>
     <use style="fill:#1f77b4;stroke:#1f77b4;" x="99.361247" xlink:href="#m381ba9dc6d" y="160.872332"/>
     <use style="fill:#1f77b4;stroke:#1f77b4;" x="106.143584" xlink:href="#m381ba9dc6d" y="153.904254"/>
     <use style="fill:#1f77b4;stroke:#1f77b4;" x="112.925922" xlink:href="#m381ba9dc6d" y="148.631107"/>
     <use style="fill:#1f77b4;stroke:#1f77b4;" x="119.70826" xlink:href="#m381ba9dc6d" y="153.904254"/>
     <use style="fill:#1f77b4;stroke:#1f77b4;" x="126.490597" xlink:href="#m381ba9dc6d" y="160.872332"/>
     <use style="fill:#1f77b4;stroke:#1f77b4;" x="133.272935" xlink:href="#m381ba9dc6d" y="167.616"/>
     <use style="fill:#1f77b4;stroke:#1f77b4;" x="140.055273" xlink:href="#m381ba9dc6d" y="174.359668"/>
     <use style="fill:#1f77b4;stroke:#1f77b4;" x="146.83761" xlink:href="#m381ba9dc6d" y="181.327746"/>
     <use style="fill:#1f77b4;stroke:#1f77b4;" x="153.619948" xlink:href="#m381ba9dc6d" y="186.600893"/>
     <use style="fill:#1f77b4;stroke:#1f77b4;" x="160.402286" xlink:href="#m381ba9dc6d" y="181.327746"/>
     <use style="fill:#1f77b4;stroke:#1f77b4;" x="167.184623" xlink:href="#m381ba9dc6d" y="174.359668"/>
     <use style="fill:#1f77b4;stroke:#1f77b4;" x="173.966961" xlink:href="#m381ba9dc6d" y="167.616"/>
     <use style="fill:#1f77b4;stroke:#1f77b4;" x="180.749299" xlink:href="#m381ba9dc6d" y="160.872332"/>
     <use style="fill:#1f77b4;stroke:#1f77b4;" x="187.531636" xlink:href="#m381ba9dc6d" y="153.904254"/>
     <use style="fill:#1f77b4;stroke:#1f77b4;" x="194.313974" xlink:href="#m381ba9dc6d" y="148.631107"/>
     <use style="fill:#1f77b4;stroke:#1f77b4;" x="201.096312" xlink:href="#m381ba9dc6d" y="153.904254"/>
     <use style="fill:#1f77b4;stroke:#1f77b4;" x="207.878649" xlink:href="#m381ba9dc6d" y="160.872332"/>
     <use style="fill:#1f77b4;stroke:#1f77b4;" x="214.660987" xlink:href="#m381ba9dc6d" y="167.616"/>
     <use style="fill:#1f77b4;stroke:#1f77b4;" x="221.443325" xlink:href="#m381ba9dc6d" y="174.359668"/>
     <use style="fill:#1f77b4;stroke:#1f77b4;" x="228.225662" xlink:href="#m381ba9dc6d" y="181.327746"/>
     <use style="fill:#1f77b4;stroke:#1f77b4;" x="235.008" xlink:href="#m381ba9dc6d" y="186.600893"/>
     <use style="fill:#1f77b4;stroke:#1f77b4;" x="241.790338" xlink:href="#m381ba9dc6d" y="181.327746"/>
     <use style="fill:#1f77b4;stroke:#1f77b4;" x="248.572675" xlink:href="#m381ba9dc6d" y="174.359668"/>
     <use style="fill:#1f77b4;stroke:#1f77b4;" x="255.355013" xlink:href="#m381ba9dc6d" y="167.616"/>
     <use style="fill:#1f77b4;stroke:#1f77b4;" x="262.137351" xlink:href="#m381ba9dc6d" y="160.872332"/>
     <use style="fill:#1f77b4;stroke:#1f77b4;" x="268.919688" xlink:href="#m381ba9dc6d" y="153.904254"/>
     <use style="fill:#1f77b4;stroke:#1f77b4;" x="275.702026" xlink:href="#m381ba9dc6d" y="148.631107"/>
     <use style="fill:#1f77b4;stroke:#1f77b4;" x="282.484364" xlink:href="#m381ba9dc6d" y="153.904254"/>
     <use style="fill:#1f77b4;stroke:#1f77b4;" x="289.266701" xlink:href="#m381ba9dc6d" y="160.872332"/>
     <use style="fill:#1f77b4;stroke:#1f77b4;" x="296.049039" xlink:href="#m381ba9dc6d" y="167.616"/>
     <use style="fill:#1f77b4;stroke:#1f77b4;" x="302.831377" xlink:href="#m381ba9dc6d" y="174.359668"/>
     <use style="fill:#1f77b4;stroke:#1f77b4;" x="309.613714" xlink:href="#m381ba9dc6d" y="181.327746"/>
     <use style="fill:#1f77b4;stroke:#1f77b4;" x="316.396052" xlink:href="#m381ba9dc6d" y="186.600893"/>
     <use style="fill:#1f77b4;stroke:#1f77b4;" x="323.17839" xlink:href="#m381ba9dc6d" y="181.327746"/>
     <use style="fill:#1f77b4;stroke:#1f77b4;" x="329.960727" xlink:href="#m381ba9dc6d" y="174.359668"/>
     <use style="fill:#1f77b4;stroke:#1f77b4;" x="336.743065" xlink:href="#m381ba9dc6d" y="167.616"/>
     <use style="fill:#1f77b4;stroke:#1f77b4;" x="343.525403" xlink:href="#m381ba9dc6d" y="160.872332"/>
     <use style="fill:#1f77b4;stroke:#1f77b4;" x="350.30774" xlink:href="#m381ba9dc6d" y="153.904254"/>
     <use style="fill:#1f77b4;stroke:#1f77b4;" x="357.090078" xlink:href="#m381ba9dc6d" y="148.631107"/>
     <use style="fill:#1f77b4;stroke:#1f77b4;" x="363.872416" xlink:href="#m381ba9dc6d" y="153.904254"/>
     <use style="fill:#1f77b4;stroke:#1f77b4;" x="370.654753" xlink:href="#m381ba9dc6d" y="160.872332"/>
     <use style="fill:#1f77b4;stroke:#1f77b4;" x="377.437091" xlink:href="#m381ba9dc6d" y="167.616"/>
    </g>
   </g>
   <g id="line2d_9">
    <path clip-path="url(#p3b417fe124)" d="M 92.578909 167.616 
L 99.361247 160.833662 
L 106.143584 154.051325 
L 112.925922 147.268987 
L 119.70826 154.051325 
L 126.490597 160.833662 
L 133.272935 167.616 
L 140.055273 174.398338 
L 146.83761 181.180675 
L 153.619948 187.963013 
L 160.402286 181.180675 
L 167.184623 174.398338 
L 173.966961 167.616 
L 180.749299 160.833662 
L 187.531636 154.051325 
L 194.313974 147.268987 
L 201.096312 154.051325 
L 207.878649 160.833662 
L 214.660987 167.616 
L 221.443325 174.398338 
L 228.225662 181.180675 
L 235.008 187.963013 
L 241.790338 181.180675 
L 248.572675 174.398338 
L 255.355013 167.616 
L 262.137351 160.833662 
L 268.919688 154.051325 
L 275.702026 147.268987 
L 282.484364 154.051325 
L 289.266701 160.833662 
L 296.049039 167.616 
L 302.831377 174.398338 
L 309.613714 181.180675 
L 316.396052 187.963013 
L 323.17839 181.180675 
L 329.960727 174.398338 
L 336.743065 167.616 
L 343.525403 160.833662 
L 350.30774 154.051325 
L 357.090078 147.268987 
L 363.872416 154.051325 
L 370.654753 160.833662 
L 377.437091 167.616 
" style="fill:none;stroke:#ff7f0e;stroke-linecap:square;stroke-width:1.5;"/>
   </g>
   <g id="patch_3">
    <path d="M 78.336 192.032416 
L 78.336 143.199584 
" style="fill:none;stroke:#000000;stroke-linecap:square;stroke-linejoin:miter;stroke-width:1.5;"/>
   </g>
   <g id="patch_4">
    <path d="M 391.68 192.032416 
L 391.68 143.199584 
" style="fill:none;stroke:#000000;stroke-linecap:square;stroke-linejoin:miter;stroke-width:1.5;"/>
   </g>
   <g id="patch_5">
    <path d="M 78.336 192.032416 
L 391.68 192.032416 
" style="fill:none;stroke:#000000;stroke-linecap:square;stroke-linejoin:miter;stroke-width:1.5;"/>
   </g>
   <g id="patch_6">
    <path d="M 78.336 143.199584 
L 391.68 143.199584 
" style="fill:none;stroke:#000000;stroke-linecap:square;stroke-linejoin:miter;stroke-width:1.5;"/>
   </g>
  </g>
 </g>
 <defs>
  <clipPath id="p3b417fe124">
   <rect height="48.832831" width="313.344" x="78.336" y="143.199584"/>
  </clipPath>
 </defs>
</svg>
