<?xml version="1.0" encoding="utf-8" standalone="no"?>
<!DOCTYPE svg PUBLIC "-//W3C//DTD SVG 1.1//EN"
  "http://www.w3.org/Graphics/SVG/1.1/DTD/svg11.dtd">
<!-- Created with matplotlib (https://matplotlib.org/) -->
<svg height="345.6pt" version="1.1" viewBox="0 0 460.8 345.6" width="460.8pt" xmlns="http://www.w3.org/2000/svg" xmlns:xlink="http://www.w3.org/1999/xlink">
 <defs>
  <style type="text/css">
*{stroke-linecap:butt;stroke-linejoin:round;}
  </style>
 </defs>
 <g id="figure_1">
  <g id="patch_1">
   <path d="M 0 345.6 
L 460.8 345.6 
L 460.8 0 
L 0 0 
z
" style="fill:#ffffff;"/>
  </g>
  <g id="axes_1">
   <g id="patch_2">
    <path d="M 78.336 293.76 
L 391.68 293.76 
L 391.68 41.472 
L 78.336 41.472 
z
" style="fill:#ffffff;"/>
   </g>
   <g id="matplotlib.axis_1">
    <g id="xtick_1">
     <g id="line2d_1">
      <defs>
       <path d="M 0 0 
L 0 12 
" id="meb0ce8b799" style="stroke:#000000;stroke-width:1.5;"/>
      </defs>
      <g>
       <use style="stroke:#000000;stroke-width:1.5;" x="92.578909" xlink:href="#meb0ce8b799" y="293.76"/>
      </g>
     </g>
     <g id="text_1">
      <!-- $-3\pi$ -->
      <defs>
       <path d="M 10.59375 35.5 
L 73.1875 35.5 
L 73.1875 27.203125 
L 10.59375 27.203125 
z
" id="DejaVuSans-8722"/>
       <path d="M 40.578125 39.3125 
Q 47.65625 37.796875 51.625 33 
Q 55.609375 28.21875 55.609375 21.1875 
Q 55.609375 10.40625 48.1875 4.484375 
Q 40.765625 -1.421875 27.09375 -1.421875 
Q 22.515625 -1.421875 17.65625 -0.515625 
Q 12.796875 0.390625 7.625 2.203125 
L 7.625 11.71875 
Q 11.71875 9.328125 16.59375 8.109375 
Q 21.484375 6.890625 26.8125 6.890625 
Q 36.078125 6.890625 40.9375 10.546875 
Q 45.796875 14.203125 45.796875 21.1875 
Q 45.796875 27.640625 41.28125 31.265625 
Q 36.765625 34.90625 28.71875 34.90625 
L 20.21875 34.90625 
L 20.21875 43.015625 
L 29.109375 43.015625 
Q 36.375 43.015625 40.234375 45.921875 
Q 44.09375 48.828125 44.09375 54.296875 
Q 44.09375 59.90625 40.109375 62.90625 
Q 36.140625 65.921875 28.71875 65.921875 
Q 24.65625 65.921875 20.015625 65.03125 
Q 15.375 64.15625 9.8125 62.3125 
L 9.8125 71.09375 
Q 15.4375 72.65625 20.34375 73.4375 
Q 25.25 74.21875 29.59375 74.21875 
Q 40.828125 74.21875 47.359375 69.109375 
Q 53.90625 64.015625 53.90625 55.328125 
Q 53.90625 49.265625 50.4375 45.09375 
Q 46.96875 40.921875 40.578125 39.3125 
z
" id="DejaVuSans-51"/>
       <path d="M 9.125 54.6875 
L 61.53125 54.6875 
L 59.765625 45.703125 
L 52.875 45.703125 
L 46.34375 12.109375 
Q 45.65625 8.59375 46.578125 7.03125 
Q 47.46875 5.515625 50.140625 5.515625 
Q 50.875 5.515625 51.953125 5.671875 
Q 53.078125 5.765625 53.421875 5.8125 
L 52.15625 -0.6875 
Q 50.34375 -1.3125 48.484375 -1.609375 
Q 46.578125 -1.90625 44.78125 -1.90625 
Q 38.921875 -1.90625 37.3125 1.265625 
Q 35.6875 4.5 37.359375 13.09375 
L 43.703125 45.703125 
L 23.53125 45.703125 
L 14.65625 0 
L 5.46875 0 
L 14.359375 45.703125 
L 7.375 45.703125 
z
" id="DejaVuSans-Oblique-960"/>
      </defs>
      <g transform="translate(78.018909 319.897812)scale(0.14 -0.14)">
       <use transform="translate(0 0.78125)" xlink:href="#DejaVuSans-8722"/>
       <use transform="translate(83.789062 0.78125)" xlink:href="#DejaVuSans-51"/>
       <use transform="translate(147.412109 0.78125)" xlink:href="#DejaVuSans-Oblique-960"/>
      </g>
     </g>
    </g>
    <g id="xtick_2">
     <g id="line2d_2">
      <g>
       <use style="stroke:#000000;stroke-width:1.5;" x="140.055273" xlink:href="#meb0ce8b799" y="293.76"/>
      </g>
     </g>
     <g id="text_2">
      <!-- $-2\pi$ -->
      <defs>
       <path d="M 19.1875 8.296875 
L 53.609375 8.296875 
L 53.609375 0 
L 7.328125 0 
L 7.328125 8.296875 
Q 12.9375 14.109375 22.625 23.890625 
Q 32.328125 33.6875 34.8125 36.53125 
Q 39.546875 41.84375 41.421875 45.53125 
Q 43.3125 49.21875 43.3125 52.78125 
Q 43.3125 58.59375 39.234375 62.25 
Q 35.15625 65.921875 28.609375 65.921875 
Q 23.96875 65.921875 18.8125 64.3125 
Q 13.671875 62.703125 7.8125 59.421875 
L 7.8125 69.390625 
Q 13.765625 71.78125 18.9375 73 
Q 24.125 74.21875 28.421875 74.21875 
Q 39.75 74.21875 46.484375 68.546875 
Q 53.21875 62.890625 53.21875 53.421875 
Q 53.21875 48.921875 51.53125 44.890625 
Q 49.859375 40.875 45.40625 35.40625 
Q 44.1875 33.984375 37.640625 27.21875 
Q 31.109375 20.453125 19.1875 8.296875 
z
" id="DejaVuSans-50"/>
      </defs>
      <g transform="translate(125.495273 319.897812)scale(0.14 -0.14)">
       <use transform="translate(0 0.78125)" xlink:href="#DejaVuSans-8722"/>
       <use transform="translate(83.789062 0.78125)" xlink:href="#DejaVuSans-50"/>
       <use transform="translate(147.412109 0.78125)" xlink:href="#DejaVuSans-Oblique-960"/>
      </g>
     </g>
    </g>
    <g id="xtick_3">
     <g id="line2d_3">
      <g>
       <use style="stroke:#000000;stroke-width:1.5;" x="187.531636" xlink:href="#meb0ce8b799" y="293.76"/>
      </g>
     </g>
     <g id="text_3">
      <!-- $-\pi$ -->
      <g transform="translate(177.451636 319.897812)scale(0.14 -0.14)">
       <use transform="translate(0 0.3125)" xlink:href="#DejaVuSans-8722"/>
       <use transform="translate(83.789062 0.3125)" xlink:href="#DejaVuSans-Oblique-960"/>
      </g>
     </g>
    </g>
    <g id="xtick_4">
     <g id="line2d_4">
      <g>
       <use style="stroke:#000000;stroke-width:1.5;" x="235.008" xlink:href="#meb0ce8b799" y="293.76"/>
      </g>
     </g>
     <g id="text_4">
      <!-- 0 -->
      <defs>
       <path d="M 31.78125 66.40625 
Q 24.171875 66.40625 20.328125 58.90625 
Q 16.5 51.421875 16.5 36.375 
Q 16.5 21.390625 20.328125 13.890625 
Q 24.171875 6.390625 31.78125 6.390625 
Q 39.453125 6.390625 43.28125 13.890625 
Q 47.125 21.390625 47.125 36.375 
Q 47.125 51.421875 43.28125 58.90625 
Q 39.453125 66.40625 31.78125 66.40625 
z
M 31.78125 74.21875 
Q 44.046875 74.21875 50.515625 64.515625 
Q 56.984375 54.828125 56.984375 36.375 
Q 56.984375 17.96875 50.515625 8.265625 
Q 44.046875 -1.421875 31.78125 -1.421875 
Q 19.53125 -1.421875 13.0625 8.265625 
Q 6.59375 17.96875 6.59375 36.375 
Q 6.59375 54.828125 13.0625 64.515625 
Q 19.53125 74.21875 31.78125 74.21875 
z
" id="DejaVuSans-48"/>
      </defs>
      <g transform="translate(230.55425 319.897812)scale(0.14 -0.14)">
       <use xlink:href="#DejaVuSans-48"/>
      </g>
     </g>
    </g>
    <g id="xtick_5">
     <g id="line2d_5">
      <g>
       <use style="stroke:#000000;stroke-width:1.5;" x="282.484364" xlink:href="#meb0ce8b799" y="293.76"/>
      </g>
     </g>
     <g id="text_5">
      <!-- $\pi$ -->
      <g transform="translate(278.214364 319.897812)scale(0.14 -0.14)">
       <use transform="translate(0 0.3125)" xlink:href="#DejaVuSans-Oblique-960"/>
      </g>
     </g>
    </g>
    <g id="xtick_6">
     <g id="line2d_6">
      <g>
       <use style="stroke:#000000;stroke-width:1.5;" x="329.960727" xlink:href="#meb0ce8b799" y="293.76"/>
      </g>
     </g>
     <g id="text_6">
      <!-- $2\pi$ -->
      <g transform="translate(321.280727 319.897812)scale(0.14 -0.14)">
       <use transform="translate(0 0.78125)" xlink:href="#DejaVuSans-50"/>
       <use transform="translate(63.623047 0.78125)" xlink:href="#DejaVuSans-Oblique-960"/>
      </g>
     </g>
    </g>
    <g id="xtick_7">
     <g id="line2d_7">
      <g>
       <use style="stroke:#000000;stroke-width:1.5;" x="377.437091" xlink:href="#meb0ce8b799" y="293.76"/>
      </g>
     </g>
     <g id="text_7">
      <!-- $3\pi$ -->
      <g transform="translate(368.757091 319.897812)scale(0.14 -0.14)">
       <use transform="translate(0 0.78125)" xlink:href="#DejaVuSans-51"/>
       <use transform="translate(63.623047 0.78125)" xlink:href="#DejaVuSans-Oblique-960"/>
      </g>
     </g>
    </g>
   </g>
   <g id="matplotlib.axis_2">
    <g id="ytick_1">
     <g id="line2d_8">
      <defs>
       <path d="M 0 0 
L -12 0 
" id="mf694c77e0c" style="stroke:#000000;stroke-width:1.5;"/>
      </defs>
      <g>
       <use style="stroke:#000000;stroke-width:1.5;" x="78.336" xlink:href="#mf694c77e0c" y="266.821064"/>
      </g>
     </g>
     <g id="text_8">
      <!-- -1 -->
      <defs>
       <path d="M 4.890625 31.390625 
L 31.203125 31.390625 
L 31.203125 23.390625 
L 4.890625 23.390625 
z
" id="DejaVuSans-45"/>
       <path d="M 12.40625 8.296875 
L 28.515625 8.296875 
L 28.515625 63.921875 
L 10.984375 60.40625 
L 10.984375 69.390625 
L 28.421875 72.90625 
L 38.28125 72.90625 
L 38.28125 8.296875 
L 54.390625 8.296875 
L 54.390625 0 
L 12.40625 0 
z
" id="DejaVuSans-49"/>
      </defs>
      <g transform="translate(48.877563 272.139971)scale(0.14 -0.14)">
       <use xlink:href="#DejaVuSans-45"/>
       <use x="36.083984" xlink:href="#DejaVuSans-49"/>
      </g>
     </g>
    </g>
    <g id="ytick_2">
     <g id="line2d_9">
      <g>
       <use style="stroke:#000000;stroke-width:1.5;" x="78.336" xlink:href="#mf694c77e0c" y="167.616"/>
      </g>
     </g>
     <g id="text_9">
      <!-- 0 -->
      <g transform="translate(53.9285 172.934906)scale(0.14 -0.14)">
       <use xlink:href="#DejaVuSans-48"/>
      </g>
     </g>
    </g>
    <g id="ytick_3">
     <g id="line2d_10">
      <g>
       <use style="stroke:#000000;stroke-width:1.5;" x="78.336" xlink:href="#mf694c77e0c" y="68.410936"/>
      </g>
     </g>
     <g id="text_10">
      <!-- 1 -->
      <g transform="translate(53.9285 73.729842)scale(0.14 -0.14)">
       <use xlink:href="#DejaVuSans-49"/>
      </g>
     </g>
    </g>
   </g>
   <g id="line2d_11">
    <path clip-path="url(#pa2d7a1bbf7)" d="M 92.578909 167.616 
L 93.897697 238.684541 
L 95.216485 279.178348 
L 96.535273 282.292364 
L 97.854061 266.807901 
L 99.172848 256.997133 
L 100.491636 261.566806 
L 101.810424 271.190814 
L 103.129212 273.491711 
L 105.766788 261.466505 
L 107.085576 263.11173 
L 108.404364 269.224504 
L 109.723152 271.716389 
L 111.041939 267.769011 
L 112.360727 262.842923 
L 113.679515 263.294375 
L 114.998303 268.336086 
L 116.317091 271.309739 
L 117.635879 268.336086 
L 118.954667 263.294375 
L 120.273455 262.842923 
L 121.592242 267.769011 
L 122.91103 271.716389 
L 124.229818 269.224504 
L 125.548606 263.11173 
L 126.867394 261.466505 
L 129.50497 273.491711 
L 130.823758 271.190814 
L 132.142545 261.566806 
L 133.461333 256.997133 
L 134.780121 266.807901 
L 136.098909 282.292364 
L 137.417697 279.178348 
L 138.736485 238.684541 
L 141.374061 96.547459 
L 142.692848 56.053652 
L 144.011636 52.939636 
L 145.330424 68.424099 
L 146.649212 78.234867 
L 147.968 73.665194 
L 149.286788 64.041186 
L 150.605576 61.740289 
L 153.243152 73.765495 
L 154.561939 72.12027 
L 155.880727 66.007496 
L 157.199515 63.515611 
L 158.518303 67.462989 
L 159.837091 72.389077 
L 161.155879 71.937625 
L 162.474667 66.895914 
L 163.793455 63.922261 
L 165.112242 66.895914 
L 166.43103 71.937625 
L 167.749818 72.389077 
L 169.068606 67.462989 
L 170.387394 63.515611 
L 171.706182 66.007496 
L 173.02497 72.12027 
L 174.343758 73.765495 
L 176.981333 61.740289 
L 178.300121 64.041186 
L 179.618909 73.665194 
L 180.937697 78.234867 
L 182.256485 68.424099 
L 183.575273 52.939636 
L 184.894061 56.053652 
L 186.212848 96.547459 
L 188.850424 238.684541 
L 190.169212 279.178348 
L 191.488 282.292364 
L 192.806788 266.807901 
L 194.125576 256.997133 
L 195.444364 261.566806 
L 196.763152 271.190814 
L 198.081939 273.491711 
L 200.719515 261.466505 
L 202.038303 263.11173 
L 203.357091 269.224504 
L 204.675879 271.716389 
L 205.994667 267.769011 
L 207.313455 262.842923 
L 208.632242 263.294375 
L 209.95103 268.336086 
L 211.269818 271.309739 
L 212.588606 268.336086 
L 213.907394 263.294375 
L 215.226182 262.842923 
L 216.54497 267.769011 
L 217.863758 271.716389 
L 219.182545 269.224504 
L 220.501333 263.11173 
L 221.820121 261.466505 
L 224.457697 273.491711 
L 225.776485 271.190814 
L 227.095273 261.566806 
L 228.414061 256.997133 
L 229.732848 266.807901 
L 231.051636 282.292364 
L 232.370424 279.178348 
L 233.689212 238.684541 
L 236.326788 96.547459 
L 237.645576 56.053652 
L 238.964364 52.939636 
L 240.283152 68.424099 
L 241.601939 78.234867 
L 242.920727 73.665194 
L 244.239515 64.041186 
L 245.558303 61.740289 
L 248.195879 73.765495 
L 249.514667 72.12027 
L 250.833455 66.007496 
L 252.152242 63.515611 
L 253.47103 67.462989 
L 254.789818 72.389077 
L 256.108606 71.937625 
L 257.427394 66.895914 
L 258.746182 63.922261 
L 260.06497 66.895914 
L 261.383758 71.937625 
L 262.702545 72.389077 
L 264.021333 67.462989 
L 265.340121 63.515611 
L 266.658909 66.007496 
L 267.977697 72.12027 
L 269.296485 73.765495 
L 271.934061 61.740289 
L 273.252848 64.041186 
L 274.571636 73.665194 
L 275.890424 78.234867 
L 277.209212 68.424099 
L 278.528 52.939636 
L 279.846788 56.053652 
L 281.165576 96.547459 
L 283.803152 238.684541 
L 285.121939 279.178348 
L 286.440727 282.292364 
L 287.759515 266.807901 
L 289.078303 256.997133 
L 290.397091 261.566806 
L 291.715879 271.190814 
L 293.034667 273.491711 
L 295.672242 261.466505 
L 296.99103 263.11173 
L 298.309818 269.224504 
L 299.628606 271.716389 
L 300.947394 267.769011 
L 302.266182 262.842923 
L 303.58497 263.294375 
L 304.903758 268.336086 
L 306.222545 271.309739 
L 307.541333 268.336086 
L 308.860121 263.294375 
L 310.178909 262.842923 
L 311.497697 267.769011 
L 312.816485 271.716389 
L 314.135273 269.224504 
L 315.454061 263.11173 
L 316.772848 261.466505 
L 319.410424 273.491711 
L 320.729212 271.190814 
L 322.048 261.566806 
L 323.366788 256.997133 
L 324.685576 266.807901 
L 326.004364 282.292364 
L 327.323152 279.178348 
L 328.641939 238.684541 
L 331.279515 96.547459 
L 332.598303 56.053652 
L 333.917091 52.939636 
L 335.235879 68.424099 
L 336.554667 78.234867 
L 337.873455 73.665194 
L 339.192242 64.041186 
L 340.51103 61.740289 
L 343.148606 73.765495 
L 344.467394 72.12027 
L 345.786182 66.007496 
L 347.10497 63.515611 
L 348.423758 67.462989 
L 349.742545 72.389077 
L 351.061333 71.937625 
L 352.380121 66.895914 
L 353.698909 63.922261 
L 355.017697 66.895914 
L 356.336485 71.937625 
L 357.655273 72.389077 
L 358.974061 67.462989 
L 360.292848 63.515611 
L 361.611636 66.007496 
L 362.930424 72.12027 
L 364.249212 73.765495 
L 366.886788 61.740289 
L 368.205576 64.041186 
L 369.524364 73.665194 
L 370.843152 78.234867 
L 372.161939 68.424099 
L 373.480727 52.939636 
L 374.799515 56.053652 
L 376.118303 96.547459 
L 377.437091 167.616 
L 377.437091 167.616 
" style="fill:none;stroke:#1f77b4;stroke-linecap:square;stroke-width:1.5;"/>
   </g>
   <g id="line2d_12">
    <path clip-path="url(#pa2d7a1bbf7)" d="M 92.578909 266.821064 
L 138.736485 266.821064 
L 140.055273 68.410936 
L 186.212848 68.410936 
L 187.531636 266.821064 
L 233.689212 266.821064 
L 236.326788 68.410936 
L 282.484364 68.410936 
L 283.803152 266.821064 
L 329.960727 266.821064 
L 331.279515 68.410936 
L 377.437091 68.410936 
L 377.437091 68.410936 
" style="fill:none;stroke:#ff7f0e;stroke-linecap:square;stroke-width:1.5;"/>
   </g>
   <g id="patch_3">
    <path d="M 78.336 293.76 
L 78.336 41.472 
" style="fill:none;stroke:#000000;stroke-linecap:square;stroke-linejoin:miter;stroke-width:1.5;"/>
   </g>
   <g id="patch_4">
    <path d="M 391.68 293.76 
L 391.68 41.472 
" style="fill:none;stroke:#000000;stroke-linecap:square;stroke-linejoin:miter;stroke-width:1.5;"/>
   </g>
   <g id="patch_5">
    <path d="M 78.336 293.76 
L 391.68 293.76 
" style="fill:none;stroke:#000000;stroke-linecap:square;stroke-linejoin:miter;stroke-width:1.5;"/>
   </g>
   <g id="patch_6">
    <path d="M 78.336 41.472 
L 391.68 41.472 
" style="fill:none;stroke:#000000;stroke-linecap:square;stroke-linejoin:miter;stroke-width:1.5;"/>
   </g>
  </g>
 </g>
 <defs>
  <clipPath id="pa2d7a1bbf7">
   <rect height="252.288" width="313.344" x="78.336" y="41.472"/>
  </clipPath>
 </defs>
</svg>
