<?xml version="1.0" encoding="utf-8" standalone="no"?>
<!DOCTYPE svg PUBLIC "-//W3C//DTD SVG 1.1//EN"
  "http://www.w3.org/Graphics/SVG/1.1/DTD/svg11.dtd">
<!-- Created with matplotlib (https://matplotlib.org/) -->
<svg height="345.6pt" version="1.1" viewBox="0 0 460.8 345.6" width="460.8pt" xmlns="http://www.w3.org/2000/svg" xmlns:xlink="http://www.w3.org/1999/xlink">
 <defs>
  <style type="text/css">
*{stroke-linecap:butt;stroke-linejoin:round;}
  </style>
 </defs>
 <g id="figure_1">
  <g id="patch_1">
   <path d="M 0 345.6 
L 460.8 345.6 
L 460.8 0 
L 0 0 
z
" style="fill:#ffffff;"/>
  </g>
  <g id="axes_1">
   <g id="patch_2">
    <path d="M 78.336 293.76 
L 391.68 293.76 
L 391.68 41.472 
L 78.336 41.472 
z
" style="fill:#ffffff;"/>
   </g>
   <g id="matplotlib.axis_1">
    <g id="xtick_1">
     <g id="line2d_1">
      <defs>
       <path d="M 0 0 
L 0 12 
" id="me30b18da0d" style="stroke:#000000;stroke-width:1.5;"/>
      </defs>
      <g>
       <use style="stroke:#000000;stroke-width:1.5;" x="92.578909" xlink:href="#me30b18da0d" y="293.76"/>
      </g>
     </g>
     <g id="text_1">
      <!-- 0 -->
      <defs>
       <path d="M 31.78125 66.40625 
Q 24.171875 66.40625 20.328125 58.90625 
Q 16.5 51.421875 16.5 36.375 
Q 16.5 21.390625 20.328125 13.890625 
Q 24.171875 6.390625 31.78125 6.390625 
Q 39.453125 6.390625 43.28125 13.890625 
Q 47.125 21.390625 47.125 36.375 
Q 47.125 51.421875 43.28125 58.90625 
Q 39.453125 66.40625 31.78125 66.40625 
z
M 31.78125 74.21875 
Q 44.046875 74.21875 50.515625 64.515625 
Q 56.984375 54.828125 56.984375 36.375 
Q 56.984375 17.96875 50.515625 8.265625 
Q 44.046875 -1.421875 31.78125 -1.421875 
Q 19.53125 -1.421875 13.0625 8.265625 
Q 6.59375 17.96875 6.59375 36.375 
Q 6.59375 54.828125 13.0625 64.515625 
Q 19.53125 74.21875 31.78125 74.21875 
z
" id="DejaVuSans-48"/>
      </defs>
      <g transform="translate(88.125159 319.897812)scale(0.14 -0.14)">
       <use xlink:href="#DejaVuSans-48"/>
      </g>
     </g>
    </g>
    <g id="xtick_2">
     <g id="line2d_2">
      <g>
       <use style="stroke:#000000;stroke-width:1.5;" x="149.550545" xlink:href="#me30b18da0d" y="293.76"/>
      </g>
     </g>
     <g id="text_2">
      <!-- 5 -->
      <defs>
       <path d="M 10.796875 72.90625 
L 49.515625 72.90625 
L 49.515625 64.59375 
L 19.828125 64.59375 
L 19.828125 46.734375 
Q 21.96875 47.46875 24.109375 47.828125 
Q 26.265625 48.1875 28.421875 48.1875 
Q 40.625 48.1875 47.75 41.5 
Q 54.890625 34.8125 54.890625 23.390625 
Q 54.890625 11.625 47.5625 5.09375 
Q 40.234375 -1.421875 26.90625 -1.421875 
Q 22.3125 -1.421875 17.546875 -0.640625 
Q 12.796875 0.140625 7.71875 1.703125 
L 7.71875 11.625 
Q 12.109375 9.234375 16.796875 8.0625 
Q 21.484375 6.890625 26.703125 6.890625 
Q 35.15625 6.890625 40.078125 11.328125 
Q 45.015625 15.765625 45.015625 23.390625 
Q 45.015625 31 40.078125 35.4375 
Q 35.15625 39.890625 26.703125 39.890625 
Q 22.75 39.890625 18.8125 39.015625 
Q 14.890625 38.140625 10.796875 36.28125 
z
" id="DejaVuSans-53"/>
      </defs>
      <g transform="translate(145.096795 319.897812)scale(0.14 -0.14)">
       <use xlink:href="#DejaVuSans-53"/>
      </g>
     </g>
    </g>
    <g id="xtick_3">
     <g id="line2d_3">
      <g>
       <use style="stroke:#000000;stroke-width:1.5;" x="206.522182" xlink:href="#me30b18da0d" y="293.76"/>
      </g>
     </g>
     <g id="text_3">
      <!-- 10 -->
      <defs>
       <path d="M 12.40625 8.296875 
L 28.515625 8.296875 
L 28.515625 63.921875 
L 10.984375 60.40625 
L 10.984375 69.390625 
L 28.421875 72.90625 
L 38.28125 72.90625 
L 38.28125 8.296875 
L 54.390625 8.296875 
L 54.390625 0 
L 12.40625 0 
z
" id="DejaVuSans-49"/>
      </defs>
      <g transform="translate(197.614682 319.897812)scale(0.14 -0.14)">
       <use xlink:href="#DejaVuSans-49"/>
       <use x="63.623047" xlink:href="#DejaVuSans-48"/>
      </g>
     </g>
    </g>
    <g id="xtick_4">
     <g id="line2d_4">
      <g>
       <use style="stroke:#000000;stroke-width:1.5;" x="263.493818" xlink:href="#me30b18da0d" y="293.76"/>
      </g>
     </g>
     <g id="text_4">
      <!-- 15 -->
      <g transform="translate(254.586318 319.897812)scale(0.14 -0.14)">
       <use xlink:href="#DejaVuSans-49"/>
       <use x="63.623047" xlink:href="#DejaVuSans-53"/>
      </g>
     </g>
    </g>
    <g id="xtick_5">
     <g id="line2d_5">
      <g>
       <use style="stroke:#000000;stroke-width:1.5;" x="320.465455" xlink:href="#me30b18da0d" y="293.76"/>
      </g>
     </g>
     <g id="text_5">
      <!-- 20 -->
      <defs>
       <path d="M 19.1875 8.296875 
L 53.609375 8.296875 
L 53.609375 0 
L 7.328125 0 
L 7.328125 8.296875 
Q 12.9375 14.109375 22.625 23.890625 
Q 32.328125 33.6875 34.8125 36.53125 
Q 39.546875 41.84375 41.421875 45.53125 
Q 43.3125 49.21875 43.3125 52.78125 
Q 43.3125 58.59375 39.234375 62.25 
Q 35.15625 65.921875 28.609375 65.921875 
Q 23.96875 65.921875 18.8125 64.3125 
Q 13.671875 62.703125 7.8125 59.421875 
L 7.8125 69.390625 
Q 13.765625 71.78125 18.9375 73 
Q 24.125 74.21875 28.421875 74.21875 
Q 39.75 74.21875 46.484375 68.546875 
Q 53.21875 62.890625 53.21875 53.421875 
Q 53.21875 48.921875 51.53125 44.890625 
Q 49.859375 40.875 45.40625 35.40625 
Q 44.1875 33.984375 37.640625 27.21875 
Q 31.109375 20.453125 19.1875 8.296875 
z
" id="DejaVuSans-50"/>
      </defs>
      <g transform="translate(311.557955 319.897812)scale(0.14 -0.14)">
       <use xlink:href="#DejaVuSans-50"/>
       <use x="63.623047" xlink:href="#DejaVuSans-48"/>
      </g>
     </g>
    </g>
    <g id="xtick_6">
     <g id="line2d_6">
      <g>
       <use style="stroke:#000000;stroke-width:1.5;" x="377.437091" xlink:href="#me30b18da0d" y="293.76"/>
      </g>
     </g>
     <g id="text_6">
      <!-- 25 -->
      <g transform="translate(368.529591 319.897812)scale(0.14 -0.14)">
       <use xlink:href="#DejaVuSans-50"/>
       <use x="63.623047" xlink:href="#DejaVuSans-53"/>
      </g>
     </g>
    </g>
    <g id="text_7">
     <!-- n -->
     <defs>
      <path d="M 54.890625 33.015625 
L 54.890625 0 
L 45.90625 0 
L 45.90625 32.71875 
Q 45.90625 40.484375 42.875 44.328125 
Q 39.84375 48.1875 33.796875 48.1875 
Q 26.515625 48.1875 22.3125 43.546875 
Q 18.109375 38.921875 18.109375 30.90625 
L 18.109375 0 
L 9.078125 0 
L 9.078125 54.6875 
L 18.109375 54.6875 
L 18.109375 46.1875 
Q 21.34375 51.125 25.703125 53.5625 
Q 30.078125 56 35.796875 56 
Q 45.21875 56 50.046875 50.171875 
Q 54.890625 44.34375 54.890625 33.015625 
z
" id="DejaVuSans-110"/>
     </defs>
     <g transform="translate(230.57175 337.447187)scale(0.14 -0.14)">
      <use xlink:href="#DejaVuSans-110"/>
     </g>
    </g>
   </g>
   <g id="matplotlib.axis_2">
    <g id="ytick_1">
     <g id="line2d_7">
      <defs>
       <path d="M 0 0 
L -12 0 
" id="md1e1fa7206" style="stroke:#000000;stroke-width:1.5;"/>
      </defs>
      <g>
       <use style="stroke:#000000;stroke-width:1.5;" x="78.336" xlink:href="#md1e1fa7206" y="282.292364"/>
      </g>
     </g>
     <g id="text_8">
      <!-- 0 -->
      <g transform="translate(53.9285 287.61127)scale(0.14 -0.14)">
       <use xlink:href="#DejaVuSans-48"/>
      </g>
     </g>
    </g>
    <g id="ytick_2">
     <g id="line2d_8">
      <g>
       <use style="stroke:#000000;stroke-width:1.5;" x="78.336" xlink:href="#md1e1fa7206" y="247.007329"/>
      </g>
     </g>
     <g id="text_9">
      <!-- 50 -->
      <g transform="translate(45.021 252.326235)scale(0.14 -0.14)">
       <use xlink:href="#DejaVuSans-53"/>
       <use x="63.623047" xlink:href="#DejaVuSans-48"/>
      </g>
     </g>
    </g>
    <g id="ytick_3">
     <g id="line2d_9">
      <g>
       <use style="stroke:#000000;stroke-width:1.5;" x="78.336" xlink:href="#md1e1fa7206" y="211.722294"/>
      </g>
     </g>
     <g id="text_10">
      <!-- 100 -->
      <g transform="translate(36.1135 217.0412)scale(0.14 -0.14)">
       <use xlink:href="#DejaVuSans-49"/>
       <use x="63.623047" xlink:href="#DejaVuSans-48"/>
       <use x="127.246094" xlink:href="#DejaVuSans-48"/>
      </g>
     </g>
    </g>
    <g id="ytick_4">
     <g id="line2d_10">
      <g>
       <use style="stroke:#000000;stroke-width:1.5;" x="78.336" xlink:href="#md1e1fa7206" y="176.437259"/>
      </g>
     </g>
     <g id="text_11">
      <!-- 150 -->
      <g transform="translate(36.1135 181.756165)scale(0.14 -0.14)">
       <use xlink:href="#DejaVuSans-49"/>
       <use x="63.623047" xlink:href="#DejaVuSans-53"/>
       <use x="127.246094" xlink:href="#DejaVuSans-48"/>
      </g>
     </g>
    </g>
    <g id="ytick_5">
     <g id="line2d_11">
      <g>
       <use style="stroke:#000000;stroke-width:1.5;" x="78.336" xlink:href="#md1e1fa7206" y="141.152224"/>
      </g>
     </g>
     <g id="text_12">
      <!-- 200 -->
      <g transform="translate(36.1135 146.47113)scale(0.14 -0.14)">
       <use xlink:href="#DejaVuSans-50"/>
       <use x="63.623047" xlink:href="#DejaVuSans-48"/>
       <use x="127.246094" xlink:href="#DejaVuSans-48"/>
      </g>
     </g>
    </g>
    <g id="ytick_6">
     <g id="line2d_12">
      <g>
       <use style="stroke:#000000;stroke-width:1.5;" x="78.336" xlink:href="#md1e1fa7206" y="105.867189"/>
      </g>
     </g>
     <g id="text_13">
      <!-- 250 -->
      <g transform="translate(36.1135 111.186095)scale(0.14 -0.14)">
       <use xlink:href="#DejaVuSans-50"/>
       <use x="63.623047" xlink:href="#DejaVuSans-53"/>
       <use x="127.246094" xlink:href="#DejaVuSans-48"/>
      </g>
     </g>
    </g>
    <g id="ytick_7">
     <g id="line2d_13">
      <g>
       <use style="stroke:#000000;stroke-width:1.5;" x="78.336" xlink:href="#md1e1fa7206" y="70.582154"/>
      </g>
     </g>
     <g id="text_14">
      <!-- 300 -->
      <defs>
       <path d="M 40.578125 39.3125 
Q 47.65625 37.796875 51.625 33 
Q 55.609375 28.21875 55.609375 21.1875 
Q 55.609375 10.40625 48.1875 4.484375 
Q 40.765625 -1.421875 27.09375 -1.421875 
Q 22.515625 -1.421875 17.65625 -0.515625 
Q 12.796875 0.390625 7.625 2.203125 
L 7.625 11.71875 
Q 11.71875 9.328125 16.59375 8.109375 
Q 21.484375 6.890625 26.8125 6.890625 
Q 36.078125 6.890625 40.9375 10.546875 
Q 45.796875 14.203125 45.796875 21.1875 
Q 45.796875 27.640625 41.28125 31.265625 
Q 36.765625 34.90625 28.71875 34.90625 
L 20.21875 34.90625 
L 20.21875 43.015625 
L 29.109375 43.015625 
Q 36.375 43.015625 40.234375 45.921875 
Q 44.09375 48.828125 44.09375 54.296875 
Q 44.09375 59.90625 40.109375 62.90625 
Q 36.140625 65.921875 28.71875 65.921875 
Q 24.65625 65.921875 20.015625 65.03125 
Q 15.375 64.15625 9.8125 62.3125 
L 9.8125 71.09375 
Q 15.4375 72.65625 20.34375 73.4375 
Q 25.25 74.21875 29.59375 74.21875 
Q 40.828125 74.21875 47.359375 69.109375 
Q 53.90625 64.015625 53.90625 55.328125 
Q 53.90625 49.265625 50.4375 45.09375 
Q 46.96875 40.921875 40.578125 39.3125 
z
" id="DejaVuSans-51"/>
      </defs>
      <g transform="translate(36.1135 75.90106)scale(0.14 -0.14)">
       <use xlink:href="#DejaVuSans-51"/>
       <use x="63.623047" xlink:href="#DejaVuSans-48"/>
       <use x="127.246094" xlink:href="#DejaVuSans-48"/>
      </g>
     </g>
    </g>
    <g id="text_15">
     <!-- sum i up to n -->
     <defs>
      <path d="M 44.28125 53.078125 
L 44.28125 44.578125 
Q 40.484375 46.53125 36.375 47.5 
Q 32.28125 48.484375 27.875 48.484375 
Q 21.1875 48.484375 17.84375 46.4375 
Q 14.5 44.390625 14.5 40.28125 
Q 14.5 37.15625 16.890625 35.375 
Q 19.28125 33.59375 26.515625 31.984375 
L 29.59375 31.296875 
Q 39.15625 29.25 43.1875 25.515625 
Q 47.21875 21.78125 47.21875 15.09375 
Q 47.21875 7.46875 41.1875 3.015625 
Q 35.15625 -1.421875 24.609375 -1.421875 
Q 20.21875 -1.421875 15.453125 -0.5625 
Q 10.6875 0.296875 5.421875 2 
L 5.421875 11.28125 
Q 10.40625 8.6875 15.234375 7.390625 
Q 20.0625 6.109375 24.8125 6.109375 
Q 31.15625 6.109375 34.5625 8.28125 
Q 37.984375 10.453125 37.984375 14.40625 
Q 37.984375 18.0625 35.515625 20.015625 
Q 33.0625 21.96875 24.703125 23.78125 
L 21.578125 24.515625 
Q 13.234375 26.265625 9.515625 29.90625 
Q 5.8125 33.546875 5.8125 39.890625 
Q 5.8125 47.609375 11.28125 51.796875 
Q 16.75 56 26.8125 56 
Q 31.78125 56 36.171875 55.265625 
Q 40.578125 54.546875 44.28125 53.078125 
z
" id="DejaVuSans-115"/>
      <path d="M 8.5 21.578125 
L 8.5 54.6875 
L 17.484375 54.6875 
L 17.484375 21.921875 
Q 17.484375 14.15625 20.5 10.265625 
Q 23.53125 6.390625 29.59375 6.390625 
Q 36.859375 6.390625 41.078125 11.03125 
Q 45.3125 15.671875 45.3125 23.6875 
L 45.3125 54.6875 
L 54.296875 54.6875 
L 54.296875 0 
L 45.3125 0 
L 45.3125 8.40625 
Q 42.046875 3.421875 37.71875 1 
Q 33.40625 -1.421875 27.6875 -1.421875 
Q 18.265625 -1.421875 13.375 4.4375 
Q 8.5 10.296875 8.5 21.578125 
z
M 31.109375 56 
z
" id="DejaVuSans-117"/>
      <path d="M 52 44.1875 
Q 55.375 50.25 60.0625 53.125 
Q 64.75 56 71.09375 56 
Q 79.640625 56 84.28125 50.015625 
Q 88.921875 44.046875 88.921875 33.015625 
L 88.921875 0 
L 79.890625 0 
L 79.890625 32.71875 
Q 79.890625 40.578125 77.09375 44.375 
Q 74.3125 48.1875 68.609375 48.1875 
Q 61.625 48.1875 57.5625 43.546875 
Q 53.515625 38.921875 53.515625 30.90625 
L 53.515625 0 
L 44.484375 0 
L 44.484375 32.71875 
Q 44.484375 40.625 41.703125 44.40625 
Q 38.921875 48.1875 33.109375 48.1875 
Q 26.21875 48.1875 22.15625 43.53125 
Q 18.109375 38.875 18.109375 30.90625 
L 18.109375 0 
L 9.078125 0 
L 9.078125 54.6875 
L 18.109375 54.6875 
L 18.109375 46.1875 
Q 21.1875 51.21875 25.484375 53.609375 
Q 29.78125 56 35.6875 56 
Q 41.65625 56 45.828125 52.96875 
Q 50 49.953125 52 44.1875 
z
" id="DejaVuSans-109"/>
      <path id="DejaVuSans-32"/>
      <path d="M 9.421875 54.6875 
L 18.40625 54.6875 
L 18.40625 0 
L 9.421875 0 
z
M 9.421875 75.984375 
L 18.40625 75.984375 
L 18.40625 64.59375 
L 9.421875 64.59375 
z
" id="DejaVuSans-105"/>
      <path d="M 18.109375 8.203125 
L 18.109375 -20.796875 
L 9.078125 -20.796875 
L 9.078125 54.6875 
L 18.109375 54.6875 
L 18.109375 46.390625 
Q 20.953125 51.265625 25.265625 53.625 
Q 29.59375 56 35.59375 56 
Q 45.5625 56 51.78125 48.09375 
Q 58.015625 40.1875 58.015625 27.296875 
Q 58.015625 14.40625 51.78125 6.484375 
Q 45.5625 -1.421875 35.59375 -1.421875 
Q 29.59375 -1.421875 25.265625 0.953125 
Q 20.953125 3.328125 18.109375 8.203125 
z
M 48.6875 27.296875 
Q 48.6875 37.203125 44.609375 42.84375 
Q 40.53125 48.484375 33.40625 48.484375 
Q 26.265625 48.484375 22.1875 42.84375 
Q 18.109375 37.203125 18.109375 27.296875 
Q 18.109375 17.390625 22.1875 11.75 
Q 26.265625 6.109375 33.40625 6.109375 
Q 40.53125 6.109375 44.609375 11.75 
Q 48.6875 17.390625 48.6875 27.296875 
z
" id="DejaVuSans-112"/>
      <path d="M 18.3125 70.21875 
L 18.3125 54.6875 
L 36.8125 54.6875 
L 36.8125 47.703125 
L 18.3125 47.703125 
L 18.3125 18.015625 
Q 18.3125 11.328125 20.140625 9.421875 
Q 21.96875 7.515625 27.59375 7.515625 
L 36.8125 7.515625 
L 36.8125 0 
L 27.59375 0 
Q 17.1875 0 13.234375 3.875 
Q 9.28125 7.765625 9.28125 18.015625 
L 9.28125 47.703125 
L 2.6875 47.703125 
L 2.6875 54.6875 
L 9.28125 54.6875 
L 9.28125 70.21875 
z
" id="DejaVuSans-116"/>
      <path d="M 30.609375 48.390625 
Q 23.390625 48.390625 19.1875 42.75 
Q 14.984375 37.109375 14.984375 27.296875 
Q 14.984375 17.484375 19.15625 11.84375 
Q 23.34375 6.203125 30.609375 6.203125 
Q 37.796875 6.203125 41.984375 11.859375 
Q 46.1875 17.53125 46.1875 27.296875 
Q 46.1875 37.015625 41.984375 42.703125 
Q 37.796875 48.390625 30.609375 48.390625 
z
M 30.609375 56 
Q 42.328125 56 49.015625 48.375 
Q 55.71875 40.765625 55.71875 27.296875 
Q 55.71875 13.875 49.015625 6.21875 
Q 42.328125 -1.421875 30.609375 -1.421875 
Q 18.84375 -1.421875 12.171875 6.21875 
Q 5.515625 13.875 5.515625 27.296875 
Q 5.515625 40.765625 12.171875 48.375 
Q 18.84375 56 30.609375 56 
z
" id="DejaVuSans-111"/>
     </defs>
     <g transform="translate(29.201938 213.704437)rotate(-90)scale(0.14 -0.14)">
      <use xlink:href="#DejaVuSans-115"/>
      <use x="52.099609" xlink:href="#DejaVuSans-117"/>
      <use x="115.478516" xlink:href="#DejaVuSans-109"/>
      <use x="212.890625" xlink:href="#DejaVuSans-32"/>
      <use x="244.677734" xlink:href="#DejaVuSans-105"/>
      <use x="272.460938" xlink:href="#DejaVuSans-32"/>
      <use x="304.248047" xlink:href="#DejaVuSans-117"/>
      <use x="367.626953" xlink:href="#DejaVuSans-112"/>
      <use x="431.103516" xlink:href="#DejaVuSans-32"/>
      <use x="462.890625" xlink:href="#DejaVuSans-116"/>
      <use x="502.099609" xlink:href="#DejaVuSans-111"/>
      <use x="563.28125" xlink:href="#DejaVuSans-32"/>
      <use x="595.068359" xlink:href="#DejaVuSans-110"/>
     </g>
    </g>
   </g>
   <g id="line2d_14">
    <path clip-path="url(#p1154d319a1)" d="M 92.578909 282.292364 
L 94.857775 282.20768 
L 97.13664 282.094767 
L 99.415505 281.953627 
L 101.694371 281.784259 
L 103.973236 281.586663 
L 106.252102 281.360839 
L 108.530967 281.106786 
L 110.809833 280.824506 
L 113.088698 280.513998 
L 115.367564 280.175262 
L 117.646429 279.808297 
L 119.925295 279.413105 
L 122.20416 278.989684 
L 124.483025 278.538036 
L 126.761891 278.058159 
L 129.040756 277.550055 
L 131.319622 277.013722 
L 133.598487 276.449162 
L 135.877353 275.856373 
L 138.156218 275.235357 
L 140.435084 274.586112 
L 142.713949 273.908639 
L 144.992815 273.202939 
L 147.27168 272.46901 
L 149.550545 271.706853 
L 151.829411 270.916468 
L 154.108276 270.097856 
L 156.387142 269.251015 
L 158.666007 268.375946 
L 160.944873 267.472649 
L 163.223738 266.541124 
L 165.502604 265.581371 
L 167.781469 264.59339 
L 170.060335 263.577181 
L 172.3392 262.532744 
L 174.618065 261.460079 
L 176.896931 260.359186 
L 179.175796 259.230065 
L 181.454662 258.072716 
L 183.733527 256.887138 
L 186.012393 255.673333 
L 188.291258 254.4313 
L 190.570124 253.161039 
L 192.848989 251.862549 
L 195.127855 250.535832 
L 197.40672 249.180887 
L 199.685585 247.797713 
L 201.964451 246.386312 
L 204.243316 244.946683 
L 206.522182 243.478825 
L 208.801047 241.98274 
L 211.079913 240.458426 
L 213.358778 238.905885 
L 215.637644 237.325115 
L 217.916509 235.716117 
L 220.195375 234.078892 
L 222.47424 232.413438 
L 224.753105 230.719757 
L 227.031971 228.997847 
L 229.310836 227.247709 
L 231.589702 225.469343 
L 233.868567 223.66275 
L 236.147433 221.827928 
L 238.426298 219.964878 
L 240.705164 218.0736 
L 242.984029 216.154094 
L 245.262895 214.20636 
L 247.54176 212.230398 
L 249.820625 210.226208 
L 252.099491 208.19379 
L 254.378356 206.133144 
L 256.657222 204.04427 
L 258.936087 201.927168 
L 261.214953 199.781838 
L 263.493818 197.60828 
L 265.772684 195.406494 
L 268.051549 193.176479 
L 270.330415 190.918237 
L 272.60928 188.631767 
L 274.888145 186.317069 
L 277.167011 183.974142 
L 279.445876 181.602988 
L 281.724742 179.203605 
L 284.003607 176.775995 
L 286.282473 174.320157 
L 288.561338 171.83609 
L 290.840204 169.323796 
L 293.119069 166.783273 
L 295.397935 164.214523 
L 297.6768 161.617544 
L 299.955665 158.992337 
L 302.234531 156.338903 
L 304.513396 153.65724 
L 306.792262 150.947349 
L 309.071127 148.209231 
L 311.349993 145.442884 
L 313.628858 142.648309 
L 315.907724 139.825506 
L 318.186589 136.974476 
L 320.465455 134.095217 
L 322.74432 131.18773 
L 325.023185 128.252015 
L 327.302051 125.288072 
L 329.580916 122.295901 
L 331.859782 119.275502 
L 334.138647 116.226875 
L 336.417513 113.15002 
L 338.696378 110.044937 
L 340.975244 106.911626 
L 343.254109 103.750087 
L 345.532975 100.56032 
L 347.81184 97.342324 
L 350.090705 94.096101 
L 352.369571 90.82165 
L 354.648436 87.518971 
L 356.927302 84.188063 
L 359.206167 80.828928 
L 361.485033 77.441565 
L 363.763898 74.025973 
L 366.042764 70.582154 
L 368.321629 67.110106 
L 370.600495 63.609831 
L 372.87936 60.081327 
L 375.158225 56.524596 
L 377.437091 52.939636 
" style="fill:none;stroke:#0000ff;stroke-linecap:square;stroke-width:1.5;"/>
   </g>
   <g id="line2d_15">
    <defs>
     <path d="M 0 3 
C 0.795609 3 1.55874 2.683901 2.12132 2.12132 
C 2.683901 1.55874 3 0.795609 3 0 
C 3 -0.795609 2.683901 -1.55874 2.12132 -2.12132 
C 1.55874 -2.683901 0.795609 -3 0 -3 
C -0.795609 -3 -1.55874 -2.683901 -2.12132 -2.12132 
C -2.683901 -1.55874 -3 -0.795609 -3 0 
C -3 0.795609 -2.683901 1.55874 -2.12132 2.12132 
C -1.55874 2.683901 -0.795609 3 0 3 
z
" id="m40ecc03aeb" style="stroke:#0000ff;"/>
    </defs>
    <g clip-path="url(#p1154d319a1)">
     <use style="fill:#0000ff;stroke:#0000ff;" x="92.578909" xlink:href="#m40ecc03aeb" y="282.292364"/>
    </g>
   </g>
   <g id="line2d_16">
    <g clip-path="url(#p1154d319a1)">
     <use style="fill:#0000ff;stroke:#0000ff;" x="103.973236" xlink:href="#m40ecc03aeb" y="281.586663"/>
    </g>
   </g>
   <g id="line2d_17">
    <g clip-path="url(#p1154d319a1)">
     <use style="fill:#0000ff;stroke:#0000ff;" x="115.367564" xlink:href="#m40ecc03aeb" y="280.175262"/>
    </g>
   </g>
   <g id="line2d_18">
    <g clip-path="url(#p1154d319a1)">
     <use style="fill:#0000ff;stroke:#0000ff;" x="126.761891" xlink:href="#m40ecc03aeb" y="278.058159"/>
    </g>
   </g>
   <g id="line2d_19">
    <g clip-path="url(#p1154d319a1)">
     <use style="fill:#0000ff;stroke:#0000ff;" x="138.156218" xlink:href="#m40ecc03aeb" y="275.235357"/>
    </g>
   </g>
   <g id="line2d_20">
    <g clip-path="url(#p1154d319a1)">
     <use style="fill:#0000ff;stroke:#0000ff;" x="149.550545" xlink:href="#m40ecc03aeb" y="271.706853"/>
    </g>
   </g>
   <g id="line2d_21">
    <g clip-path="url(#p1154d319a1)">
     <use style="fill:#0000ff;stroke:#0000ff;" x="160.944873" xlink:href="#m40ecc03aeb" y="267.472649"/>
    </g>
   </g>
   <g id="line2d_22">
    <g clip-path="url(#p1154d319a1)">
     <use style="fill:#0000ff;stroke:#0000ff;" x="172.3392" xlink:href="#m40ecc03aeb" y="262.532744"/>
    </g>
   </g>
   <g id="line2d_23">
    <g clip-path="url(#p1154d319a1)">
     <use style="fill:#0000ff;stroke:#0000ff;" x="183.733527" xlink:href="#m40ecc03aeb" y="256.887138"/>
    </g>
   </g>
   <g id="line2d_24">
    <g clip-path="url(#p1154d319a1)">
     <use style="fill:#0000ff;stroke:#0000ff;" x="195.127855" xlink:href="#m40ecc03aeb" y="250.535832"/>
    </g>
   </g>
   <g id="line2d_25">
    <g clip-path="url(#p1154d319a1)">
     <use style="fill:#0000ff;stroke:#0000ff;" x="206.522182" xlink:href="#m40ecc03aeb" y="243.478825"/>
    </g>
   </g>
   <g id="line2d_26">
    <g clip-path="url(#p1154d319a1)">
     <use style="fill:#0000ff;stroke:#0000ff;" x="217.916509" xlink:href="#m40ecc03aeb" y="235.716117"/>
    </g>
   </g>
   <g id="line2d_27">
    <g clip-path="url(#p1154d319a1)">
     <use style="fill:#0000ff;stroke:#0000ff;" x="229.310836" xlink:href="#m40ecc03aeb" y="227.247709"/>
    </g>
   </g>
   <g id="line2d_28">
    <g clip-path="url(#p1154d319a1)">
     <use style="fill:#0000ff;stroke:#0000ff;" x="240.705164" xlink:href="#m40ecc03aeb" y="218.0736"/>
    </g>
   </g>
   <g id="line2d_29">
    <g clip-path="url(#p1154d319a1)">
     <use style="fill:#0000ff;stroke:#0000ff;" x="252.099491" xlink:href="#m40ecc03aeb" y="208.19379"/>
    </g>
   </g>
   <g id="line2d_30">
    <g clip-path="url(#p1154d319a1)">
     <use style="fill:#0000ff;stroke:#0000ff;" x="263.493818" xlink:href="#m40ecc03aeb" y="197.60828"/>
    </g>
   </g>
   <g id="line2d_31">
    <g clip-path="url(#p1154d319a1)">
     <use style="fill:#0000ff;stroke:#0000ff;" x="274.888145" xlink:href="#m40ecc03aeb" y="186.317069"/>
    </g>
   </g>
   <g id="line2d_32">
    <g clip-path="url(#p1154d319a1)">
     <use style="fill:#0000ff;stroke:#0000ff;" x="286.282473" xlink:href="#m40ecc03aeb" y="174.320157"/>
    </g>
   </g>
   <g id="line2d_33">
    <g clip-path="url(#p1154d319a1)">
     <use style="fill:#0000ff;stroke:#0000ff;" x="297.6768" xlink:href="#m40ecc03aeb" y="161.617544"/>
    </g>
   </g>
   <g id="line2d_34">
    <g clip-path="url(#p1154d319a1)">
     <use style="fill:#0000ff;stroke:#0000ff;" x="309.071127" xlink:href="#m40ecc03aeb" y="148.209231"/>
    </g>
   </g>
   <g id="line2d_35">
    <g clip-path="url(#p1154d319a1)">
     <use style="fill:#0000ff;stroke:#0000ff;" x="320.465455" xlink:href="#m40ecc03aeb" y="134.095217"/>
    </g>
   </g>
   <g id="line2d_36">
    <g clip-path="url(#p1154d319a1)">
     <use style="fill:#0000ff;stroke:#0000ff;" x="331.859782" xlink:href="#m40ecc03aeb" y="119.275502"/>
    </g>
   </g>
   <g id="line2d_37">
    <g clip-path="url(#p1154d319a1)">
     <use style="fill:#0000ff;stroke:#0000ff;" x="343.254109" xlink:href="#m40ecc03aeb" y="103.750087"/>
    </g>
   </g>
   <g id="line2d_38">
    <g clip-path="url(#p1154d319a1)">
     <use style="fill:#0000ff;stroke:#0000ff;" x="354.648436" xlink:href="#m40ecc03aeb" y="87.518971"/>
    </g>
   </g>
   <g id="line2d_39">
    <g clip-path="url(#p1154d319a1)">
     <use style="fill:#0000ff;stroke:#0000ff;" x="366.042764" xlink:href="#m40ecc03aeb" y="70.582154"/>
    </g>
   </g>
   <g id="line2d_40">
    <g clip-path="url(#p1154d319a1)">
     <use style="fill:#0000ff;stroke:#0000ff;" x="377.437091" xlink:href="#m40ecc03aeb" y="52.939636"/>
    </g>
   </g>
   <g id="patch_3">
    <path d="M 78.336 293.76 
L 78.336 41.472 
" style="fill:none;stroke:#000000;stroke-linecap:square;stroke-linejoin:miter;stroke-width:1.5;"/>
   </g>
   <g id="patch_4">
    <path d="M 391.68 293.76 
L 391.68 41.472 
" style="fill:none;stroke:#000000;stroke-linecap:square;stroke-linejoin:miter;stroke-width:1.5;"/>
   </g>
   <g id="patch_5">
    <path d="M 78.336 293.76 
L 391.68 293.76 
" style="fill:none;stroke:#000000;stroke-linecap:square;stroke-linejoin:miter;stroke-width:1.5;"/>
   </g>
   <g id="patch_6">
    <path d="M 78.336 41.472 
L 391.68 41.472 
" style="fill:none;stroke:#000000;stroke-linecap:square;stroke-linejoin:miter;stroke-width:1.5;"/>
   </g>
  </g>
 </g>
 <defs>
  <clipPath id="p1154d319a1">
   <rect height="252.288" width="313.344" x="78.336" y="41.472"/>
  </clipPath>
 </defs>
</svg>
