<?xml version="1.0" encoding="utf-8" standalone="no"?>
<!DOCTYPE svg PUBLIC "-//W3C//DTD SVG 1.1//EN"
  "http://www.w3.org/Graphics/SVG/1.1/DTD/svg11.dtd">
<!-- Created with matplotlib (https://matplotlib.org/) -->
<svg height="345.6pt" version="1.1" viewBox="0 0 460.8 345.6" width="460.8pt" xmlns="http://www.w3.org/2000/svg" xmlns:xlink="http://www.w3.org/1999/xlink">
 <defs>
  <style type="text/css">
*{stroke-linecap:butt;stroke-linejoin:round;}
  </style>
 </defs>
 <g id="figure_1">
  <g id="patch_1">
   <path d="M 0 345.6 
L 460.8 345.6 
L 460.8 0 
L 0 0 
z
" style="fill:#ffffff;"/>
  </g>
  <g id="axes_1">
   <g id="patch_2">
    <path d="M 78.336 293.76 
L 391.68 293.76 
L 391.68 41.472 
L 78.336 41.472 
z
" style="fill:#ffffff;"/>
   </g>
   <g id="matplotlib.axis_1">
    <g id="xtick_1">
     <g id="line2d_1">
      <defs>
       <path d="M 0 0 
L 0 12 
" id="m9a1682c857" style="stroke:#000000;stroke-width:1.5;"/>
      </defs>
      <g>
       <use style="stroke:#000000;stroke-width:1.5;" x="92.578909" xlink:href="#m9a1682c857" y="293.76"/>
      </g>
     </g>
     <g id="text_1">
      <!-- 0.0 -->
      <defs>
       <path d="M 31.78125 66.40625 
Q 24.171875 66.40625 20.328125 58.90625 
Q 16.5 51.421875 16.5 36.375 
Q 16.5 21.390625 20.328125 13.890625 
Q 24.171875 6.390625 31.78125 6.390625 
Q 39.453125 6.390625 43.28125 13.890625 
Q 47.125 21.390625 47.125 36.375 
Q 47.125 51.421875 43.28125 58.90625 
Q 39.453125 66.40625 31.78125 66.40625 
z
M 31.78125 74.21875 
Q 44.046875 74.21875 50.515625 64.515625 
Q 56.984375 54.828125 56.984375 36.375 
Q 56.984375 17.96875 50.515625 8.265625 
Q 44.046875 -1.421875 31.78125 -1.421875 
Q 19.53125 -1.421875 13.0625 8.265625 
Q 6.59375 17.96875 6.59375 36.375 
Q 6.59375 54.828125 13.0625 64.515625 
Q 19.53125 74.21875 31.78125 74.21875 
z
" id="DejaVuSans-48"/>
       <path d="M 10.6875 12.40625 
L 21 12.40625 
L 21 0 
L 10.6875 0 
z
" id="DejaVuSans-46"/>
      </defs>
      <g transform="translate(81.446722 319.897812)scale(0.14 -0.14)">
       <use xlink:href="#DejaVuSans-48"/>
       <use x="63.623047" xlink:href="#DejaVuSans-46"/>
       <use x="95.410156" xlink:href="#DejaVuSans-48"/>
      </g>
     </g>
    </g>
    <g id="xtick_2">
     <g id="line2d_2">
      <g>
       <use style="stroke:#000000;stroke-width:1.5;" x="181.597091" xlink:href="#m9a1682c857" y="293.76"/>
      </g>
     </g>
     <g id="text_2">
      <!-- 0.5 -->
      <defs>
       <path d="M 10.796875 72.90625 
L 49.515625 72.90625 
L 49.515625 64.59375 
L 19.828125 64.59375 
L 19.828125 46.734375 
Q 21.96875 47.46875 24.109375 47.828125 
Q 26.265625 48.1875 28.421875 48.1875 
Q 40.625 48.1875 47.75 41.5 
Q 54.890625 34.8125 54.890625 23.390625 
Q 54.890625 11.625 47.5625 5.09375 
Q 40.234375 -1.421875 26.90625 -1.421875 
Q 22.3125 -1.421875 17.546875 -0.640625 
Q 12.796875 0.140625 7.71875 1.703125 
L 7.71875 11.625 
Q 12.109375 9.234375 16.796875 8.0625 
Q 21.484375 6.890625 26.703125 6.890625 
Q 35.15625 6.890625 40.078125 11.328125 
Q 45.015625 15.765625 45.015625 23.390625 
Q 45.015625 31 40.078125 35.4375 
Q 35.15625 39.890625 26.703125 39.890625 
Q 22.75 39.890625 18.8125 39.015625 
Q 14.890625 38.140625 10.796875 36.28125 
z
" id="DejaVuSans-53"/>
      </defs>
      <g transform="translate(170.464903 319.897812)scale(0.14 -0.14)">
       <use xlink:href="#DejaVuSans-48"/>
       <use x="63.623047" xlink:href="#DejaVuSans-46"/>
       <use x="95.410156" xlink:href="#DejaVuSans-53"/>
      </g>
     </g>
    </g>
    <g id="xtick_3">
     <g id="line2d_3">
      <g>
       <use style="stroke:#000000;stroke-width:1.5;" x="270.615273" xlink:href="#m9a1682c857" y="293.76"/>
      </g>
     </g>
     <g id="text_3">
      <!-- 1.0 -->
      <defs>
       <path d="M 12.40625 8.296875 
L 28.515625 8.296875 
L 28.515625 63.921875 
L 10.984375 60.40625 
L 10.984375 69.390625 
L 28.421875 72.90625 
L 38.28125 72.90625 
L 38.28125 8.296875 
L 54.390625 8.296875 
L 54.390625 0 
L 12.40625 0 
z
" id="DejaVuSans-49"/>
      </defs>
      <g transform="translate(259.483085 319.897812)scale(0.14 -0.14)">
       <use xlink:href="#DejaVuSans-49"/>
       <use x="63.623047" xlink:href="#DejaVuSans-46"/>
       <use x="95.410156" xlink:href="#DejaVuSans-48"/>
      </g>
     </g>
    </g>
    <g id="xtick_4">
     <g id="line2d_4">
      <g>
       <use style="stroke:#000000;stroke-width:1.5;" x="359.633455" xlink:href="#m9a1682c857" y="293.76"/>
      </g>
     </g>
     <g id="text_4">
      <!-- 1.5 -->
      <g transform="translate(348.501267 319.897812)scale(0.14 -0.14)">
       <use xlink:href="#DejaVuSans-49"/>
       <use x="63.623047" xlink:href="#DejaVuSans-46"/>
       <use x="95.410156" xlink:href="#DejaVuSans-53"/>
      </g>
     </g>
    </g>
    <g id="text_5">
     <!-- t -->
     <defs>
      <path d="M 18.3125 70.21875 
L 18.3125 54.6875 
L 36.8125 54.6875 
L 36.8125 47.703125 
L 18.3125 47.703125 
L 18.3125 18.015625 
Q 18.3125 11.328125 20.140625 9.421875 
Q 21.96875 7.515625 27.59375 7.515625 
L 36.8125 7.515625 
L 36.8125 0 
L 27.59375 0 
Q 17.1875 0 13.234375 3.875 
Q 9.28125 7.765625 9.28125 18.015625 
L 9.28125 47.703125 
L 2.6875 47.703125 
L 2.6875 54.6875 
L 9.28125 54.6875 
L 9.28125 70.21875 
z
" id="DejaVuSans-116"/>
     </defs>
     <g transform="translate(232.263781 337.447187)scale(0.14 -0.14)">
      <use xlink:href="#DejaVuSans-116"/>
     </g>
    </g>
   </g>
   <g id="matplotlib.axis_2">
    <g id="ytick_1">
     <g id="line2d_5">
      <defs>
       <path d="M 0 0 
L -12 0 
" id="m6e49b3bdc2" style="stroke:#000000;stroke-width:1.5;"/>
      </defs>
      <g>
       <use style="stroke:#000000;stroke-width:1.5;" x="78.336" xlink:href="#m6e49b3bdc2" y="282.292364"/>
      </g>
     </g>
     <g id="text_6">
      <!-- 0.0 -->
      <g transform="translate(40.571625 287.61127)scale(0.14 -0.14)">
       <use xlink:href="#DejaVuSans-48"/>
       <use x="63.623047" xlink:href="#DejaVuSans-46"/>
       <use x="95.410156" xlink:href="#DejaVuSans-48"/>
      </g>
     </g>
    </g>
    <g id="ytick_2">
     <g id="line2d_6">
      <g>
       <use style="stroke:#000000;stroke-width:1.5;" x="78.336" xlink:href="#m6e49b3bdc2" y="232.523338"/>
      </g>
     </g>
     <g id="text_7">
      <!-- 0.2 -->
      <defs>
       <path d="M 19.1875 8.296875 
L 53.609375 8.296875 
L 53.609375 0 
L 7.328125 0 
L 7.328125 8.296875 
Q 12.9375 14.109375 22.625 23.890625 
Q 32.328125 33.6875 34.8125 36.53125 
Q 39.546875 41.84375 41.421875 45.53125 
Q 43.3125 49.21875 43.3125 52.78125 
Q 43.3125 58.59375 39.234375 62.25 
Q 35.15625 65.921875 28.609375 65.921875 
Q 23.96875 65.921875 18.8125 64.3125 
Q 13.671875 62.703125 7.8125 59.421875 
L 7.8125 69.390625 
Q 13.765625 71.78125 18.9375 73 
Q 24.125 74.21875 28.421875 74.21875 
Q 39.75 74.21875 46.484375 68.546875 
Q 53.21875 62.890625 53.21875 53.421875 
Q 53.21875 48.921875 51.53125 44.890625 
Q 49.859375 40.875 45.40625 35.40625 
Q 44.1875 33.984375 37.640625 27.21875 
Q 31.109375 20.453125 19.1875 8.296875 
z
" id="DejaVuSans-50"/>
      </defs>
      <g transform="translate(40.571625 237.842245)scale(0.14 -0.14)">
       <use xlink:href="#DejaVuSans-48"/>
       <use x="63.623047" xlink:href="#DejaVuSans-46"/>
       <use x="95.410156" xlink:href="#DejaVuSans-50"/>
      </g>
     </g>
    </g>
    <g id="ytick_3">
     <g id="line2d_7">
      <g>
       <use style="stroke:#000000;stroke-width:1.5;" x="78.336" xlink:href="#m6e49b3bdc2" y="182.754313"/>
      </g>
     </g>
     <g id="text_8">
      <!-- 0.4 -->
      <defs>
       <path d="M 37.796875 64.3125 
L 12.890625 25.390625 
L 37.796875 25.390625 
z
M 35.203125 72.90625 
L 47.609375 72.90625 
L 47.609375 25.390625 
L 58.015625 25.390625 
L 58.015625 17.1875 
L 47.609375 17.1875 
L 47.609375 0 
L 37.796875 0 
L 37.796875 17.1875 
L 4.890625 17.1875 
L 4.890625 26.703125 
z
" id="DejaVuSans-52"/>
      </defs>
      <g transform="translate(40.571625 188.07322)scale(0.14 -0.14)">
       <use xlink:href="#DejaVuSans-48"/>
       <use x="63.623047" xlink:href="#DejaVuSans-46"/>
       <use x="95.410156" xlink:href="#DejaVuSans-52"/>
      </g>
     </g>
    </g>
    <g id="ytick_4">
     <g id="line2d_8">
      <g>
       <use style="stroke:#000000;stroke-width:1.5;" x="78.336" xlink:href="#m6e49b3bdc2" y="132.985288"/>
      </g>
     </g>
     <g id="text_9">
      <!-- 0.6 -->
      <defs>
       <path d="M 33.015625 40.375 
Q 26.375 40.375 22.484375 35.828125 
Q 18.609375 31.296875 18.609375 23.390625 
Q 18.609375 15.53125 22.484375 10.953125 
Q 26.375 6.390625 33.015625 6.390625 
Q 39.65625 6.390625 43.53125 10.953125 
Q 47.40625 15.53125 47.40625 23.390625 
Q 47.40625 31.296875 43.53125 35.828125 
Q 39.65625 40.375 33.015625 40.375 
z
M 52.59375 71.296875 
L 52.59375 62.3125 
Q 48.875 64.0625 45.09375 64.984375 
Q 41.3125 65.921875 37.59375 65.921875 
Q 27.828125 65.921875 22.671875 59.328125 
Q 17.53125 52.734375 16.796875 39.40625 
Q 19.671875 43.65625 24.015625 45.921875 
Q 28.375 48.1875 33.59375 48.1875 
Q 44.578125 48.1875 50.953125 41.515625 
Q 57.328125 34.859375 57.328125 23.390625 
Q 57.328125 12.15625 50.6875 5.359375 
Q 44.046875 -1.421875 33.015625 -1.421875 
Q 20.359375 -1.421875 13.671875 8.265625 
Q 6.984375 17.96875 6.984375 36.375 
Q 6.984375 53.65625 15.1875 63.9375 
Q 23.390625 74.21875 37.203125 74.21875 
Q 40.921875 74.21875 44.703125 73.484375 
Q 48.484375 72.75 52.59375 71.296875 
z
" id="DejaVuSans-54"/>
      </defs>
      <g transform="translate(40.571625 138.304194)scale(0.14 -0.14)">
       <use xlink:href="#DejaVuSans-48"/>
       <use x="63.623047" xlink:href="#DejaVuSans-46"/>
       <use x="95.410156" xlink:href="#DejaVuSans-54"/>
      </g>
     </g>
    </g>
    <g id="ytick_5">
     <g id="line2d_9">
      <g>
       <use style="stroke:#000000;stroke-width:1.5;" x="78.336" xlink:href="#m6e49b3bdc2" y="83.216263"/>
      </g>
     </g>
     <g id="text_10">
      <!-- 0.8 -->
      <defs>
       <path d="M 31.78125 34.625 
Q 24.75 34.625 20.71875 30.859375 
Q 16.703125 27.09375 16.703125 20.515625 
Q 16.703125 13.921875 20.71875 10.15625 
Q 24.75 6.390625 31.78125 6.390625 
Q 38.8125 6.390625 42.859375 10.171875 
Q 46.921875 13.96875 46.921875 20.515625 
Q 46.921875 27.09375 42.890625 30.859375 
Q 38.875 34.625 31.78125 34.625 
z
M 21.921875 38.8125 
Q 15.578125 40.375 12.03125 44.71875 
Q 8.5 49.078125 8.5 55.328125 
Q 8.5 64.0625 14.71875 69.140625 
Q 20.953125 74.21875 31.78125 74.21875 
Q 42.671875 74.21875 48.875 69.140625 
Q 55.078125 64.0625 55.078125 55.328125 
Q 55.078125 49.078125 51.53125 44.71875 
Q 48 40.375 41.703125 38.8125 
Q 48.828125 37.15625 52.796875 32.3125 
Q 56.78125 27.484375 56.78125 20.515625 
Q 56.78125 9.90625 50.3125 4.234375 
Q 43.84375 -1.421875 31.78125 -1.421875 
Q 19.734375 -1.421875 13.25 4.234375 
Q 6.78125 9.90625 6.78125 20.515625 
Q 6.78125 27.484375 10.78125 32.3125 
Q 14.796875 37.15625 21.921875 38.8125 
z
M 18.3125 54.390625 
Q 18.3125 48.734375 21.84375 45.5625 
Q 25.390625 42.390625 31.78125 42.390625 
Q 38.140625 42.390625 41.71875 45.5625 
Q 45.3125 48.734375 45.3125 54.390625 
Q 45.3125 60.0625 41.71875 63.234375 
Q 38.140625 66.40625 31.78125 66.40625 
Q 25.390625 66.40625 21.84375 63.234375 
Q 18.3125 60.0625 18.3125 54.390625 
z
" id="DejaVuSans-56"/>
      </defs>
      <g transform="translate(40.571625 88.535169)scale(0.14 -0.14)">
       <use xlink:href="#DejaVuSans-48"/>
       <use x="63.623047" xlink:href="#DejaVuSans-46"/>
       <use x="95.410156" xlink:href="#DejaVuSans-56"/>
      </g>
     </g>
    </g>
    <g id="text_11">
     <!-- x -->
     <defs>
      <path d="M 54.890625 54.6875 
L 35.109375 28.078125 
L 55.90625 0 
L 45.3125 0 
L 29.390625 21.484375 
L 13.484375 0 
L 2.875 0 
L 24.125 28.609375 
L 4.6875 54.6875 
L 15.28125 54.6875 
L 29.78125 35.203125 
L 44.28125 54.6875 
z
" id="DejaVuSans-120"/>
     </defs>
     <g transform="translate(33.660063 171.759125)rotate(-90)scale(0.14 -0.14)">
      <use xlink:href="#DejaVuSans-120"/>
     </g>
    </g>
   </g>
   <g id="line2d_10">
    <defs>
     <path d="M 0 1.5 
C 0.397805 1.5 0.77937 1.341951 1.06066 1.06066 
C 1.341951 0.77937 1.5 0.397805 1.5 0 
C 1.5 -0.397805 1.341951 -0.77937 1.06066 -1.06066 
C 0.77937 -1.341951 0.397805 -1.5 0 -1.5 
C -0.397805 -1.5 -0.77937 -1.341951 -1.06066 -1.06066 
C -1.341951 -0.77937 -1.5 -0.397805 -1.5 0 
C -1.5 0.397805 -1.341951 0.77937 -1.06066 1.06066 
C -0.77937 1.341951 -0.397805 1.5 0 1.5 
z
" id="mf3619008e2" style="stroke:#1f77b4;"/>
    </defs>
    <g clip-path="url(#p560b154125)">
     <use style="fill:#1f77b4;stroke:#1f77b4;" x="92.578909" xlink:href="#mf3619008e2" y="282.292364"/>
     <use style="fill:#1f77b4;stroke:#1f77b4;" x="163.793455" xlink:href="#mf3619008e2" y="190.717357"/>
     <use style="fill:#1f77b4;stroke:#1f77b4;" x="235.008" xlink:href="#mf3619008e2" y="123.279225"/>
     <use style="fill:#1f77b4;stroke:#1f77b4;" x="306.222545" xlink:href="#mf3619008e2" y="82.22631"/>
     <use style="fill:#1f77b4;stroke:#1f77b4;" x="377.437091" xlink:href="#mf3619008e2" y="59.343055"/>
    </g>
   </g>
   <g id="line2d_11">
    <defs>
     <path d="M 0 1.5 
C 0.397805 1.5 0.77937 1.341951 1.06066 1.06066 
C 1.341951 0.77937 1.5 0.397805 1.5 0 
C 1.5 -0.397805 1.341951 -0.77937 1.06066 -1.06066 
C 0.77937 -1.341951 0.397805 -1.5 0 -1.5 
C -0.397805 -1.5 -0.77937 -1.341951 -1.06066 -1.06066 
C -1.341951 -0.77937 -1.5 -0.397805 -1.5 0 
C -1.5 0.397805 -1.341951 0.77937 -1.06066 1.06066 
C -0.77937 1.341951 -0.397805 1.5 0 1.5 
z
" id="mbc63534413" style="stroke:#ff7f0e;"/>
    </defs>
    <g clip-path="url(#p560b154125)">
     <use style="fill:#ff7f0e;stroke:#ff7f0e;" x="92.578909" xlink:href="#mbc63534413" y="282.292364"/>
     <use style="fill:#ff7f0e;stroke:#ff7f0e;" x="128.186182" xlink:href="#mbc63534413" y="233.518719"/>
     <use style="fill:#ff7f0e;stroke:#ff7f0e;" x="163.793455" xlink:href="#mbc63534413" y="188.457991"/>
     <use style="fill:#ff7f0e;stroke:#ff7f0e;" x="199.400727" xlink:href="#mbc63534413" y="149.717696"/>
     <use style="fill:#ff7f0e;stroke:#ff7f0e;" x="235.008" xlink:href="#mbc63534413" y="118.38311"/>
     <use style="fill:#ff7f0e;stroke:#ff7f0e;" x="270.615273" xlink:href="#mbc63534413" y="94.237692"/>
     <use style="fill:#ff7f0e;stroke:#ff7f0e;" x="306.222545" xlink:href="#mbc63534413" y="76.30101"/>
     <use style="fill:#ff7f0e;stroke:#ff7f0e;" x="341.829818" xlink:href="#mbc63534413" y="63.327647"/>
     <use style="fill:#ff7f0e;stroke:#ff7f0e;" x="377.437091" xlink:href="#mbc63534413" y="54.120904"/>
    </g>
   </g>
   <g id="line2d_12">
    <defs>
     <path d="M 0 1.5 
C 0.397805 1.5 0.77937 1.341951 1.06066 1.06066 
C 1.341951 0.77937 1.5 0.397805 1.5 0 
C 1.5 -0.397805 1.341951 -0.77937 1.06066 -1.06066 
C 0.77937 -1.341951 0.397805 -1.5 0 -1.5 
C -0.397805 -1.5 -0.77937 -1.341951 -1.06066 -1.06066 
C -1.341951 -0.77937 -1.5 -0.397805 -1.5 0 
C -1.5 0.397805 -1.341951 0.77937 -1.06066 1.06066 
C -0.77937 1.341951 -0.397805 1.5 0 1.5 
z
" id="m571ed9b438" style="stroke:#2ca02c;"/>
    </defs>
    <g clip-path="url(#p560b154125)">
     <use style="fill:#2ca02c;stroke:#2ca02c;" x="92.578909" xlink:href="#m571ed9b438" y="282.292364"/>
     <use style="fill:#2ca02c;stroke:#2ca02c;" x="110.382545" xlink:href="#m571ed9b438" y="257.532274"/>
     <use style="fill:#2ca02c;stroke:#2ca02c;" x="128.186182" xlink:href="#m571ed9b438" y="233.261245"/>
     <use style="fill:#2ca02c;stroke:#2ca02c;" x="145.989818" xlink:href="#m571ed9b438" y="209.92904"/>
     <use style="fill:#2ca02c;stroke:#2ca02c;" x="163.793455" xlink:href="#m571ed9b438" y="187.915539"/>
     <use style="fill:#2ca02c;stroke:#2ca02c;" x="181.597091" xlink:href="#m571ed9b438" y="167.509578"/>
     <use style="fill:#2ca02c;stroke:#2ca02c;" x="199.400727" xlink:href="#m571ed9b438" y="148.900281"/>
     <use style="fill:#2ca02c;stroke:#2ca02c;" x="217.204364" xlink:href="#m571ed9b438" y="132.179997"/>
     <use style="fill:#2ca02c;stroke:#2ca02c;" x="235.008" xlink:href="#m571ed9b438" y="117.356024"/>
     <use style="fill:#2ca02c;stroke:#2ca02c;" x="252.811636" xlink:href="#m571ed9b438" y="104.367501"/>
     <use style="fill:#2ca02c;stroke:#2ca02c;" x="270.615273" xlink:href="#m571ed9b438" y="93.10403"/>
     <use style="fill:#2ca02c;stroke:#2ca02c;" x="288.418909" xlink:href="#m571ed9b438" y="83.423377"/>
     <use style="fill:#2ca02c;stroke:#2ca02c;" x="306.222545" xlink:href="#m571ed9b438" y="75.166651"/>
     <use style="fill:#2ca02c;stroke:#2ca02c;" x="324.026182" xlink:href="#m571ed9b438" y="68.170229"/>
     <use style="fill:#2ca02c;stroke:#2ca02c;" x="341.829818" xlink:href="#m571ed9b438" y="62.274396"/>
     <use style="fill:#2ca02c;stroke:#2ca02c;" x="359.633455" xlink:href="#m571ed9b438" y="57.329065"/>
     <use style="fill:#2ca02c;stroke:#2ca02c;" x="377.437091" xlink:href="#m571ed9b438" y="53.197127"/>
    </g>
   </g>
   <g id="line2d_13">
    <defs>
     <path d="M 0 1.5 
C 0.397805 1.5 0.77937 1.341951 1.06066 1.06066 
C 1.341951 0.77937 1.5 0.397805 1.5 0 
C 1.5 -0.397805 1.341951 -0.77937 1.06066 -1.06066 
C 0.77937 -1.341951 0.397805 -1.5 0 -1.5 
C -0.397805 -1.5 -0.77937 -1.341951 -1.06066 -1.06066 
C -1.341951 -0.77937 -1.5 -0.397805 -1.5 0 
C -1.5 0.397805 -1.341951 0.77937 -1.06066 1.06066 
C -0.77937 1.341951 -0.397805 1.5 0 1.5 
z
" id="mb44bdd1592" style="stroke:#d62728;"/>
    </defs>
    <g clip-path="url(#p560b154125)">
     <use style="fill:#d62728;stroke:#d62728;" x="92.578909" xlink:href="#mb44bdd1592" y="282.292364"/>
     <use style="fill:#d62728;stroke:#d62728;" x="101.480727" xlink:href="#mb44bdd1592" y="269.86566"/>
     <use style="fill:#d62728;stroke:#d62728;" x="110.382545" xlink:href="#mb44bdd1592" y="257.500896"/>
     <use style="fill:#d62728;stroke:#d62728;" x="119.284364" xlink:href="#mb44bdd1592" y="245.258743"/>
     <use style="fill:#d62728;stroke:#d62728;" x="128.186182" xlink:href="#mb44bdd1592" y="233.197463"/>
     <use style="fill:#d62728;stroke:#d62728;" x="137.088" xlink:href="#mb44bdd1592" y="221.371831"/>
     <use style="fill:#d62728;stroke:#d62728;" x="145.989818" xlink:href="#mb44bdd1592" y="209.8322"/>
     <use style="fill:#d62728;stroke:#d62728;" x="154.891636" xlink:href="#mb44bdd1592" y="198.62373"/>
     <use style="fill:#d62728;stroke:#d62728;" x="163.793455" xlink:href="#mb44bdd1592" y="187.785819"/>
     <use style="fill:#d62728;stroke:#d62728;" x="172.695273" xlink:href="#mb44bdd1592" y="177.351729"/>
     <use style="fill:#d62728;stroke:#d62728;" x="181.597091" xlink:href="#mb44bdd1592" y="167.34841"/>
     <use style="fill:#d62728;stroke:#d62728;" x="190.498909" xlink:href="#mb44bdd1592" y="157.796512"/>
     <use style="fill:#d62728;stroke:#d62728;" x="199.400727" xlink:href="#mb44bdd1592" y="148.710565"/>
     <use style="fill:#d62728;stroke:#d62728;" x="208.302545" xlink:href="#mb44bdd1592" y="140.099293"/>
     <use style="fill:#d62728;stroke:#d62728;" x="217.204364" xlink:href="#mb44bdd1592" y="131.966046"/>
     <use style="fill:#d62728;stroke:#d62728;" x="226.106182" xlink:href="#mb44bdd1592" y="124.309306"/>
     <use style="fill:#d62728;stroke:#d62728;" x="235.008" xlink:href="#mb44bdd1592" y="117.123256"/>
     <use style="fill:#d62728;stroke:#d62728;" x="243.909818" xlink:href="#mb44bdd1592" y="110.398364"/>
     <use style="fill:#d62728;stroke:#d62728;" x="252.811636" xlink:href="#mb44bdd1592" y="104.121978"/>
     <use style="fill:#d62728;stroke:#d62728;" x="261.713455" xlink:href="#mb44bdd1592" y="98.2789"/>
     <use style="fill:#d62728;stroke:#d62728;" x="270.615273" xlink:href="#mb44bdd1592" y="92.851939"/>
     <use style="fill:#d62728;stroke:#d62728;" x="279.517091" xlink:href="#mb44bdd1592" y="87.822405"/>
     <use style="fill:#d62728;stroke:#d62728;" x="288.418909" xlink:href="#mb44bdd1592" y="83.170576"/>
     <use style="fill:#d62728;stroke:#d62728;" x="297.320727" xlink:href="#mb44bdd1592" y="78.876095"/>
     <use style="fill:#d62728;stroke:#d62728;" x="306.222545" xlink:href="#mb44bdd1592" y="74.918322"/>
     <use style="fill:#d62728;stroke:#d62728;" x="315.124364" xlink:href="#mb44bdd1592" y="71.276632"/>
     <use style="fill:#d62728;stroke:#d62728;" x="324.026182" xlink:href="#mb44bdd1592" y="67.930662"/>
     <use style="fill:#d62728;stroke:#d62728;" x="332.928" xlink:href="#mb44bdd1592" y="64.860513"/>
     <use style="fill:#d62728;stroke:#d62728;" x="341.829818" xlink:href="#mb44bdd1592" y="62.046907"/>
     <use style="fill:#d62728;stroke:#d62728;" x="350.731636" xlink:href="#mb44bdd1592" y="59.471309"/>
     <use style="fill:#d62728;stroke:#d62728;" x="359.633455" xlink:href="#mb44bdd1592" y="57.116012"/>
     <use style="fill:#d62728;stroke:#d62728;" x="368.535273" xlink:href="#mb44bdd1592" y="54.964202"/>
     <use style="fill:#d62728;stroke:#d62728;" x="377.437091" xlink:href="#mb44bdd1592" y="52.99999"/>
    </g>
   </g>
   <g id="line2d_14">
    <path clip-path="url(#p560b154125)" d="M 92.578909 282.292364 
L 163.793455 187.743916 
L 235.008 117.05005 
L 306.222545 74.841478 
L 377.437091 52.939636 
" style="fill:none;stroke:#0000ff;stroke-linecap:square;stroke-width:0.5;"/>
   </g>
   <g id="patch_3">
    <path d="M 78.336 293.76 
L 78.336 41.472 
" style="fill:none;stroke:#000000;stroke-linecap:square;stroke-linejoin:miter;stroke-width:1.5;"/>
   </g>
   <g id="patch_4">
    <path d="M 391.68 293.76 
L 391.68 41.472 
" style="fill:none;stroke:#000000;stroke-linecap:square;stroke-linejoin:miter;stroke-width:1.5;"/>
   </g>
   <g id="patch_5">
    <path d="M 78.336 293.76 
L 391.68 293.76 
" style="fill:none;stroke:#000000;stroke-linecap:square;stroke-linejoin:miter;stroke-width:1.5;"/>
   </g>
   <g id="patch_6">
    <path d="M 78.336 41.472 
L 391.68 41.472 
" style="fill:none;stroke:#000000;stroke-linecap:square;stroke-linejoin:miter;stroke-width:1.5;"/>
   </g>
   <g id="legend_1">
    <g id="patch_7">
     <path d="M 88.136 155.418875 
L 184.711938 155.418875 
Q 187.511938 155.418875 187.511938 152.618875 
L 187.511938 51.272 
Q 187.511938 48.472 184.711938 48.472 
L 88.136 48.472 
Q 85.336 48.472 85.336 51.272 
L 85.336 152.618875 
Q 85.336 155.418875 88.136 155.418875 
z
" style="fill:none;opacity:0;"/>
    </g>
    <g id="line2d_15"/>
    <g id="line2d_16">
     <g>
      <use style="fill:#1f77b4;stroke:#1f77b4;" x="104.936" xlink:href="#mf3619008e2" y="59.809812"/>
     </g>
    </g>
    <g id="text_12">
     <!-- h=0.4 -->
     <defs>
      <path d="M 54.890625 33.015625 
L 54.890625 0 
L 45.90625 0 
L 45.90625 32.71875 
Q 45.90625 40.484375 42.875 44.328125 
Q 39.84375 48.1875 33.796875 48.1875 
Q 26.515625 48.1875 22.3125 43.546875 
Q 18.109375 38.921875 18.109375 30.90625 
L 18.109375 0 
L 9.078125 0 
L 9.078125 75.984375 
L 18.109375 75.984375 
L 18.109375 46.1875 
Q 21.34375 51.125 25.703125 53.5625 
Q 30.078125 56 35.796875 56 
Q 45.21875 56 50.046875 50.171875 
Q 54.890625 44.34375 54.890625 33.015625 
z
" id="DejaVuSans-104"/>
      <path d="M 10.59375 45.40625 
L 73.1875 45.40625 
L 73.1875 37.203125 
L 10.59375 37.203125 
z
M 10.59375 25.484375 
L 73.1875 25.484375 
L 73.1875 17.1875 
L 10.59375 17.1875 
z
" id="DejaVuSans-61"/>
     </defs>
     <g transform="translate(130.136 64.709812)scale(0.14 -0.14)">
      <use xlink:href="#DejaVuSans-104"/>
      <use x="63.378906" xlink:href="#DejaVuSans-61"/>
      <use x="147.167969" xlink:href="#DejaVuSans-48"/>
      <use x="210.791016" xlink:href="#DejaVuSans-46"/>
      <use x="242.578125" xlink:href="#DejaVuSans-52"/>
     </g>
    </g>
    <g id="line2d_17"/>
    <g id="line2d_18">
     <g>
      <use style="fill:#ff7f0e;stroke:#ff7f0e;" x="104.936" xlink:href="#mbc63534413" y="80.359187"/>
     </g>
    </g>
    <g id="text_13">
     <!-- h=0.2 -->
     <g transform="translate(130.136 85.259187)scale(0.14 -0.14)">
      <use xlink:href="#DejaVuSans-104"/>
      <use x="63.378906" xlink:href="#DejaVuSans-61"/>
      <use x="147.167969" xlink:href="#DejaVuSans-48"/>
      <use x="210.791016" xlink:href="#DejaVuSans-46"/>
      <use x="242.578125" xlink:href="#DejaVuSans-50"/>
     </g>
    </g>
    <g id="line2d_19"/>
    <g id="line2d_20">
     <g>
      <use style="fill:#2ca02c;stroke:#2ca02c;" x="104.936" xlink:href="#m571ed9b438" y="100.908562"/>
     </g>
    </g>
    <g id="text_14">
     <!-- h=0.1 -->
     <g transform="translate(130.136 105.808562)scale(0.14 -0.14)">
      <use xlink:href="#DejaVuSans-104"/>
      <use x="63.378906" xlink:href="#DejaVuSans-61"/>
      <use x="147.167969" xlink:href="#DejaVuSans-48"/>
      <use x="210.791016" xlink:href="#DejaVuSans-46"/>
      <use x="242.578125" xlink:href="#DejaVuSans-49"/>
     </g>
    </g>
    <g id="line2d_21"/>
    <g id="line2d_22">
     <g>
      <use style="fill:#d62728;stroke:#d62728;" x="104.936" xlink:href="#mb44bdd1592" y="121.457937"/>
     </g>
    </g>
    <g id="text_15">
     <!-- h=0.05 -->
     <g transform="translate(130.136 126.357937)scale(0.14 -0.14)">
      <use xlink:href="#DejaVuSans-104"/>
      <use x="63.378906" xlink:href="#DejaVuSans-61"/>
      <use x="147.167969" xlink:href="#DejaVuSans-48"/>
      <use x="210.791016" xlink:href="#DejaVuSans-46"/>
      <use x="242.578125" xlink:href="#DejaVuSans-48"/>
      <use x="306.201172" xlink:href="#DejaVuSans-53"/>
     </g>
    </g>
    <g id="line2d_23">
     <path d="M 90.936 142.007312 
L 118.936 142.007312 
" style="fill:none;stroke:#0000ff;stroke-linecap:square;stroke-width:0.5;"/>
    </g>
    <g id="line2d_24"/>
    <g id="text_16">
     <!-- tanh(t) -->
     <defs>
      <path d="M 34.28125 27.484375 
Q 23.390625 27.484375 19.1875 25 
Q 14.984375 22.515625 14.984375 16.5 
Q 14.984375 11.71875 18.140625 8.90625 
Q 21.296875 6.109375 26.703125 6.109375 
Q 34.1875 6.109375 38.703125 11.40625 
Q 43.21875 16.703125 43.21875 25.484375 
L 43.21875 27.484375 
z
M 52.203125 31.203125 
L 52.203125 0 
L 43.21875 0 
L 43.21875 8.296875 
Q 40.140625 3.328125 35.546875 0.953125 
Q 30.953125 -1.421875 24.3125 -1.421875 
Q 15.921875 -1.421875 10.953125 3.296875 
Q 6 8.015625 6 15.921875 
Q 6 25.140625 12.171875 29.828125 
Q 18.359375 34.515625 30.609375 34.515625 
L 43.21875 34.515625 
L 43.21875 35.40625 
Q 43.21875 41.609375 39.140625 45 
Q 35.0625 48.390625 27.6875 48.390625 
Q 23 48.390625 18.546875 47.265625 
Q 14.109375 46.140625 10.015625 43.890625 
L 10.015625 52.203125 
Q 14.9375 54.109375 19.578125 55.046875 
Q 24.21875 56 28.609375 56 
Q 40.484375 56 46.34375 49.84375 
Q 52.203125 43.703125 52.203125 31.203125 
z
" id="DejaVuSans-97"/>
      <path d="M 54.890625 33.015625 
L 54.890625 0 
L 45.90625 0 
L 45.90625 32.71875 
Q 45.90625 40.484375 42.875 44.328125 
Q 39.84375 48.1875 33.796875 48.1875 
Q 26.515625 48.1875 22.3125 43.546875 
Q 18.109375 38.921875 18.109375 30.90625 
L 18.109375 0 
L 9.078125 0 
L 9.078125 54.6875 
L 18.109375 54.6875 
L 18.109375 46.1875 
Q 21.34375 51.125 25.703125 53.5625 
Q 30.078125 56 35.796875 56 
Q 45.21875 56 50.046875 50.171875 
Q 54.890625 44.34375 54.890625 33.015625 
z
" id="DejaVuSans-110"/>
      <path d="M 31 75.875 
Q 24.46875 64.65625 21.28125 53.65625 
Q 18.109375 42.671875 18.109375 31.390625 
Q 18.109375 20.125 21.3125 9.0625 
Q 24.515625 -2 31 -13.1875 
L 23.1875 -13.1875 
Q 15.875 -1.703125 12.234375 9.375 
Q 8.59375 20.453125 8.59375 31.390625 
Q 8.59375 42.28125 12.203125 53.3125 
Q 15.828125 64.359375 23.1875 75.875 
z
" id="DejaVuSans-40"/>
      <path d="M 8.015625 75.875 
L 15.828125 75.875 
Q 23.140625 64.359375 26.78125 53.3125 
Q 30.421875 42.28125 30.421875 31.390625 
Q 30.421875 20.453125 26.78125 9.375 
Q 23.140625 -1.703125 15.828125 -13.1875 
L 8.015625 -13.1875 
Q 14.5 -2 17.703125 9.0625 
Q 20.90625 20.125 20.90625 31.390625 
Q 20.90625 42.671875 17.703125 53.65625 
Q 14.5 64.65625 8.015625 75.875 
z
" id="DejaVuSans-41"/>
     </defs>
     <g transform="translate(130.136 146.907312)scale(0.14 -0.14)">
      <use xlink:href="#DejaVuSans-116"/>
      <use x="39.208984" xlink:href="#DejaVuSans-97"/>
      <use x="100.488281" xlink:href="#DejaVuSans-110"/>
      <use x="163.867188" xlink:href="#DejaVuSans-104"/>
      <use x="227.246094" xlink:href="#DejaVuSans-40"/>
      <use x="266.259766" xlink:href="#DejaVuSans-116"/>
      <use x="305.46875" xlink:href="#DejaVuSans-41"/>
     </g>
    </g>
   </g>
  </g>
 </g>
 <defs>
  <clipPath id="p560b154125">
   <rect height="252.288" width="313.344" x="78.336" y="41.472"/>
  </clipPath>
 </defs>
</svg>
