<?xml version="1.0" encoding="utf-8" standalone="no"?>
<!DOCTYPE svg PUBLIC "-//W3C//DTD SVG 1.1//EN"
  "http://www.w3.org/Graphics/SVG/1.1/DTD/svg11.dtd">
<!-- Created with matplotlib (https://matplotlib.org/) -->
<svg height="345.6pt" version="1.1" viewBox="0 0 460.8 345.6" width="460.8pt" xmlns="http://www.w3.org/2000/svg" xmlns:xlink="http://www.w3.org/1999/xlink">
 <defs>
  <style type="text/css">
*{stroke-linecap:butt;stroke-linejoin:round;}
  </style>
 </defs>
 <g id="figure_1">
  <g id="patch_1">
   <path d="M 0 345.6 
L 460.8 345.6 
L 460.8 0 
L 0 0 
z
" style="fill:#ffffff;"/>
  </g>
  <g id="axes_1">
   <g id="patch_2">
    <path d="M 108.864 293.76 
L 361.152 293.76 
L 361.152 41.472 
L 108.864 41.472 
z
" style="fill:#ffffff;"/>
   </g>
   <g id="matplotlib.axis_1">
    <g id="xtick_1">
     <g id="line2d_1">
      <defs>
       <path d="M 0 0 
L 0 12 
" id="ma88204e7d7" style="stroke:#000000;stroke-width:1.5;"/>
      </defs>
      <g>
       <use style="stroke:#000000;stroke-width:1.5;" x="134.0928" xlink:href="#ma88204e7d7" y="293.76"/>
      </g>
     </g>
     <g id="text_1">
      <!-- −1.0 -->
      <defs>
       <path d="M 10.59375 35.5 
L 73.1875 35.5 
L 73.1875 27.203125 
L 10.59375 27.203125 
z
" id="DejaVuSans-8722"/>
       <path d="M 12.40625 8.296875 
L 28.515625 8.296875 
L 28.515625 63.921875 
L 10.984375 60.40625 
L 10.984375 69.390625 
L 28.421875 72.90625 
L 38.28125 72.90625 
L 38.28125 8.296875 
L 54.390625 8.296875 
L 54.390625 0 
L 12.40625 0 
z
" id="DejaVuSans-49"/>
       <path d="M 10.6875 12.40625 
L 21 12.40625 
L 21 0 
L 10.6875 0 
z
" id="DejaVuSans-46"/>
       <path d="M 31.78125 66.40625 
Q 24.171875 66.40625 20.328125 58.90625 
Q 16.5 51.421875 16.5 36.375 
Q 16.5 21.390625 20.328125 13.890625 
Q 24.171875 6.390625 31.78125 6.390625 
Q 39.453125 6.390625 43.28125 13.890625 
Q 47.125 21.390625 47.125 36.375 
Q 47.125 51.421875 43.28125 58.90625 
Q 39.453125 66.40625 31.78125 66.40625 
z
M 31.78125 74.21875 
Q 44.046875 74.21875 50.515625 64.515625 
Q 56.984375 54.828125 56.984375 36.375 
Q 56.984375 17.96875 50.515625 8.265625 
Q 44.046875 -1.421875 31.78125 -1.421875 
Q 19.53125 -1.421875 13.0625 8.265625 
Q 6.59375 17.96875 6.59375 36.375 
Q 6.59375 54.828125 13.0625 64.515625 
Q 19.53125 74.21875 31.78125 74.21875 
z
" id="DejaVuSans-48"/>
      </defs>
      <g transform="translate(117.094831 319.897812)scale(0.14 -0.14)">
       <use xlink:href="#DejaVuSans-8722"/>
       <use x="83.789062" xlink:href="#DejaVuSans-49"/>
       <use x="147.412109" xlink:href="#DejaVuSans-46"/>
       <use x="179.199219" xlink:href="#DejaVuSans-48"/>
      </g>
     </g>
    </g>
    <g id="xtick_2">
     <g id="line2d_2">
      <g>
       <use style="stroke:#000000;stroke-width:1.5;" x="184.5504" xlink:href="#ma88204e7d7" y="293.76"/>
      </g>
     </g>
     <g id="text_2">
      <!-- −0.5 -->
      <defs>
       <path d="M 10.796875 72.90625 
L 49.515625 72.90625 
L 49.515625 64.59375 
L 19.828125 64.59375 
L 19.828125 46.734375 
Q 21.96875 47.46875 24.109375 47.828125 
Q 26.265625 48.1875 28.421875 48.1875 
Q 40.625 48.1875 47.75 41.5 
Q 54.890625 34.8125 54.890625 23.390625 
Q 54.890625 11.625 47.5625 5.09375 
Q 40.234375 -1.421875 26.90625 -1.421875 
Q 22.3125 -1.421875 17.546875 -0.640625 
Q 12.796875 0.140625 7.71875 1.703125 
L 7.71875 11.625 
Q 12.109375 9.234375 16.796875 8.0625 
Q 21.484375 6.890625 26.703125 6.890625 
Q 35.15625 6.890625 40.078125 11.328125 
Q 45.015625 15.765625 45.015625 23.390625 
Q 45.015625 31 40.078125 35.4375 
Q 35.15625 39.890625 26.703125 39.890625 
Q 22.75 39.890625 18.8125 39.015625 
Q 14.890625 38.140625 10.796875 36.28125 
z
" id="DejaVuSans-53"/>
      </defs>
      <g transform="translate(167.552431 319.897812)scale(0.14 -0.14)">
       <use xlink:href="#DejaVuSans-8722"/>
       <use x="83.789062" xlink:href="#DejaVuSans-48"/>
       <use x="147.412109" xlink:href="#DejaVuSans-46"/>
       <use x="179.199219" xlink:href="#DejaVuSans-53"/>
      </g>
     </g>
    </g>
    <g id="xtick_3">
     <g id="line2d_3">
      <g>
       <use style="stroke:#000000;stroke-width:1.5;" x="235.008" xlink:href="#ma88204e7d7" y="293.76"/>
      </g>
     </g>
     <g id="text_3">
      <!-- 0.0 -->
      <g transform="translate(223.875812 319.897812)scale(0.14 -0.14)">
       <use xlink:href="#DejaVuSans-48"/>
       <use x="63.623047" xlink:href="#DejaVuSans-46"/>
       <use x="95.410156" xlink:href="#DejaVuSans-48"/>
      </g>
     </g>
    </g>
    <g id="xtick_4">
     <g id="line2d_4">
      <g>
       <use style="stroke:#000000;stroke-width:1.5;" x="285.4656" xlink:href="#ma88204e7d7" y="293.76"/>
      </g>
     </g>
     <g id="text_4">
      <!-- 0.5 -->
      <g transform="translate(274.333413 319.897812)scale(0.14 -0.14)">
       <use xlink:href="#DejaVuSans-48"/>
       <use x="63.623047" xlink:href="#DejaVuSans-46"/>
       <use x="95.410156" xlink:href="#DejaVuSans-53"/>
      </g>
     </g>
    </g>
    <g id="xtick_5">
     <g id="line2d_5">
      <g>
       <use style="stroke:#000000;stroke-width:1.5;" x="335.9232" xlink:href="#ma88204e7d7" y="293.76"/>
      </g>
     </g>
     <g id="text_5">
      <!-- 1.0 -->
      <g transform="translate(324.791012 319.897812)scale(0.14 -0.14)">
       <use xlink:href="#DejaVuSans-49"/>
       <use x="63.623047" xlink:href="#DejaVuSans-46"/>
       <use x="95.410156" xlink:href="#DejaVuSans-48"/>
      </g>
     </g>
    </g>
   </g>
   <g id="matplotlib.axis_2">
    <g id="ytick_1">
     <g id="line2d_6">
      <defs>
       <path d="M 0 0 
L -12 0 
" id="m7583baa370" style="stroke:#000000;stroke-width:1.5;"/>
      </defs>
      <g>
       <use style="stroke:#000000;stroke-width:1.5;" x="108.864" xlink:href="#m7583baa370" y="268.5312"/>
      </g>
     </g>
     <g id="text_6">
      <!-- −1.0 -->
      <g transform="translate(59.368063 273.850106)scale(0.14 -0.14)">
       <use xlink:href="#DejaVuSans-8722"/>
       <use x="83.789062" xlink:href="#DejaVuSans-49"/>
       <use x="147.412109" xlink:href="#DejaVuSans-46"/>
       <use x="179.199219" xlink:href="#DejaVuSans-48"/>
      </g>
     </g>
    </g>
    <g id="ytick_2">
     <g id="line2d_7">
      <g>
       <use style="stroke:#000000;stroke-width:1.5;" x="108.864" xlink:href="#m7583baa370" y="218.0736"/>
      </g>
     </g>
     <g id="text_7">
      <!-- −0.5 -->
      <g transform="translate(59.368063 223.392506)scale(0.14 -0.14)">
       <use xlink:href="#DejaVuSans-8722"/>
       <use x="83.789062" xlink:href="#DejaVuSans-48"/>
       <use x="147.412109" xlink:href="#DejaVuSans-46"/>
       <use x="179.199219" xlink:href="#DejaVuSans-53"/>
      </g>
     </g>
    </g>
    <g id="ytick_3">
     <g id="line2d_8">
      <g>
       <use style="stroke:#000000;stroke-width:1.5;" x="108.864" xlink:href="#m7583baa370" y="167.616"/>
      </g>
     </g>
     <g id="text_8">
      <!-- 0.0 -->
      <g transform="translate(71.099625 172.934906)scale(0.14 -0.14)">
       <use xlink:href="#DejaVuSans-48"/>
       <use x="63.623047" xlink:href="#DejaVuSans-46"/>
       <use x="95.410156" xlink:href="#DejaVuSans-48"/>
      </g>
     </g>
    </g>
    <g id="ytick_4">
     <g id="line2d_9">
      <g>
       <use style="stroke:#000000;stroke-width:1.5;" x="108.864" xlink:href="#m7583baa370" y="117.1584"/>
      </g>
     </g>
     <g id="text_9">
      <!-- 0.5 -->
      <g transform="translate(71.099625 122.477306)scale(0.14 -0.14)">
       <use xlink:href="#DejaVuSans-48"/>
       <use x="63.623047" xlink:href="#DejaVuSans-46"/>
       <use x="95.410156" xlink:href="#DejaVuSans-53"/>
      </g>
     </g>
    </g>
    <g id="ytick_5">
     <g id="line2d_10">
      <g>
       <use style="stroke:#000000;stroke-width:1.5;" x="108.864" xlink:href="#m7583baa370" y="66.7008"/>
      </g>
     </g>
     <g id="text_10">
      <!-- 1.0 -->
      <g transform="translate(71.099625 72.019706)scale(0.14 -0.14)">
       <use xlink:href="#DejaVuSans-49"/>
       <use x="63.623047" xlink:href="#DejaVuSans-46"/>
       <use x="95.410156" xlink:href="#DejaVuSans-48"/>
      </g>
     </g>
    </g>
   </g>
   <g id="line2d_11">
    <path clip-path="url(#p04515a5898)" d="M 235.008 167.616 
L 236.725665 167.541005 
L 241.742313 167.026824 
L 249.660255 165.686994 
L 259.853518 163.235065 
L 271.519725 159.521545 
L 283.746299 154.556612 
L 295.585228 148.516073 
L 306.129952 141.729727 
L 314.58776 134.652984 
L 320.341558 127.824309 
L 322.995837 121.812431 
L 322.403127 117.1584 
L 318.668973 114.318082 
L 312.135395 113.610817 
L 303.344689 115.179414 
L 292.987146 118.96572 
L 281.837636 124.704545 
L 270.686911 131.937089 
L 260.273866 140.043146 
L 251.22476 148.289618 
L 244.004696 155.891278 
L 238.885398 162.078502 
L 235.008 167.616 
L 235.801885 166.090961 
L 237.864915 161.489326 
L 240.663559 153.962272 
L 243.636758 143.908683 
L 246.253859 131.948691 
L 248.067388 118.877701 
L 248.755592 105.604618 
L 248.150805 93.079446 
L 246.251071 82.216399 
L 243.214163 73.819125 
L 239.334864 68.514514 
L 235.008 66.7008 
L 230.681136 68.514514 
L 226.801837 73.819125 
L 223.764929 82.216399 
L 221.865195 93.079446 
L 221.260408 105.604618 
L 221.948612 118.877701 
L 223.762141 131.948691 
L 226.379242 143.908683 
L 229.352441 153.962272 
L 232.151085 161.489326 
L 235.008 167.616 
L 234.08422 166.165956 
L 231.130602 162.078502 
L 226.011304 155.891278 
L 218.79124 148.289618 
L 209.742134 140.043146 
L 199.329089 131.937089 
L 188.178364 124.704545 
L 177.028854 118.96572 
L 166.671311 115.179414 
L 157.880605 113.610817 
L 151.347027 114.318082 
L 147.612873 117.1584 
L 147.020163 121.812431 
L 149.674442 127.824309 
L 155.42824 134.652984 
L 163.886048 141.729727 
L 174.430772 148.516073 
L 186.269701 154.556612 
L 198.496275 159.521545 
L 210.162482 163.235065 
L 220.355745 165.686994 
L 228.273687 167.026824 
L 235.008 167.616 
L 233.290335 167.690995 
L 228.273687 168.205176 
L 220.355745 169.545006 
L 210.162482 171.996935 
L 198.496275 175.710455 
L 186.269701 180.675388 
L 174.430772 186.715927 
L 163.886048 193.502273 
L 155.42824 200.579016 
L 149.674442 207.407691 
L 147.020163 213.419569 
L 147.612873 218.0736 
L 151.347027 220.913918 
L 157.880605 221.621183 
L 166.671311 220.052586 
L 177.028854 216.26628 
L 188.178364 210.527455 
L 199.329089 203.294911 
L 209.742134 195.188854 
L 218.79124 186.942382 
L 226.011304 179.340722 
L 231.130602 173.153498 
L 235.008 167.616 
L 234.214115 169.141039 
L 232.151085 173.742674 
L 229.352441 181.269728 
L 226.379242 191.323317 
L 223.762141 203.283309 
L 221.948612 216.354299 
L 221.260408 229.627382 
L 221.865195 242.152554 
L 223.764929 253.015601 
L 226.801837 261.412875 
L 230.681136 266.717486 
L 235.008 268.5312 
L 239.334864 266.717486 
L 243.214163 261.412875 
L 246.251071 253.015601 
L 248.150805 242.152554 
L 248.755592 229.627382 
L 248.067388 216.354299 
L 246.253859 203.283309 
L 243.636758 191.323317 
L 240.663559 181.269728 
L 237.864915 173.742674 
L 235.008 167.616 
L 235.93178 169.066044 
L 238.885398 173.153498 
L 244.004696 179.340722 
L 251.22476 186.942382 
L 260.273866 195.188854 
L 270.686911 203.294911 
L 281.837636 210.527455 
L 292.987146 216.26628 
L 303.344689 220.052586 
L 312.135395 221.621183 
L 318.668973 220.913918 
L 322.403127 218.0736 
L 322.995837 213.419569 
L 320.341558 207.407691 
L 314.58776 200.579016 
L 306.129952 193.502273 
L 295.585228 186.715927 
L 283.746299 180.675388 
L 271.519725 175.710455 
L 259.853518 171.996935 
L 249.660255 169.545006 
L 241.742313 168.205176 
L 235.008 167.616 
L 235.008 167.616 
" style="fill:none;stroke:#1f77b4;stroke-linecap:square;stroke-width:1.5;"/>
   </g>
   <g id="line2d_12">
    <path clip-path="url(#p04515a5898)" d="M 235.008 167.616 
L 248.16754 167.041442 
L 261.027386 165.339599 
L 273.296188 162.575264 
L 284.699036 158.85413 
L 294.985067 154.319404 
L 303.934363 149.147237 
L 311.363925 143.541069 
L 317.132556 137.725106 
L 321.144511 131.937089 
L 323.3518 126.42061 
L 323.755081 121.417194 
L 322.403127 117.1584 
L 319.39088 113.858177 
L 314.856154 111.70572 
L 308.975099 110.859049 
L 301.956551 111.439495 
L 294.035464 113.527295 
L 285.4656 117.1584 
L 276.511723 122.322634 
L 267.44152 128.963236 
L 258.517499 136.977824 
L 249.989114 146.220751 
L 242.085352 156.506783 
L 235.008 167.616 
L 228.925812 179.299775 
L 223.969728 191.28765 
L 220.229311 203.294911 
L 217.750484 215.030634 
L 216.534656 226.205962 
L 216.539237 236.542363 
L 217.679539 245.779636 
L 219.831995 253.683398 
L 222.838588 260.051862 
L 226.512355 264.72167 
L 230.643799 267.572629 
L 235.008 268.5312 
L 239.372201 267.572629 
L 243.503645 264.72167 
L 247.177412 260.051862 
L 250.184005 253.683398 
L 252.336461 245.779636 
L 253.476763 236.542363 
L 253.481344 226.205962 
L 252.265516 215.030634 
L 249.786689 203.294911 
L 246.046272 191.28765 
L 241.090188 179.299775 
L 235.008 167.616 
L 227.930648 156.506783 
L 220.026886 146.220751 
L 211.498501 136.977824 
L 202.57448 128.963236 
L 193.504277 122.322634 
L 184.5504 117.1584 
L 175.980536 113.527295 
L 168.059449 111.439495 
L 161.040901 110.859049 
L 155.159846 111.70572 
L 150.62512 113.858177 
L 147.612873 117.1584 
L 146.260919 121.417194 
L 146.6642 126.42061 
L 148.871489 131.937089 
L 152.883444 137.725106 
L 158.652075 143.541069 
L 166.081637 149.147237 
L 175.030933 154.319404 
L 185.316964 158.85413 
L 196.719812 162.575264 
L 208.988614 165.339599 
L 221.84846 167.041442 
L 235.008 167.616 
L 248.16754 167.041442 
L 261.027386 165.339599 
L 273.296188 162.575264 
L 284.699036 158.85413 
L 294.985067 154.319404 
L 303.934363 149.147237 
L 311.363925 143.541069 
L 317.132556 137.725106 
L 321.144511 131.937089 
L 323.3518 126.42061 
L 323.755081 121.417194 
L 322.403127 117.1584 
L 319.39088 113.858177 
L 314.856154 111.70572 
L 308.975099 110.859049 
L 301.956551 111.439495 
L 294.035464 113.527295 
L 285.4656 117.1584 
L 276.511723 122.322634 
L 267.44152 128.963236 
L 258.517499 136.977824 
L 249.989114 146.220751 
L 242.085352 156.506783 
L 235.008 167.616 
L 228.925812 179.299775 
L 223.969728 191.28765 
L 220.229311 203.294911 
L 217.750484 215.030634 
L 216.534656 226.205962 
L 216.539237 236.542363 
L 217.679539 245.779636 
L 219.831995 253.683398 
L 222.838588 260.051862 
L 226.512355 264.72167 
L 230.643799 267.572629 
L 235.008 268.5312 
L 239.372201 267.572629 
L 243.503645 264.72167 
L 247.177412 260.051862 
L 250.184005 253.683398 
L 252.336461 245.779636 
L 253.476763 236.542363 
L 253.481344 226.205962 
L 252.265516 215.030634 
L 249.786689 203.294911 
L 246.046272 191.28765 
L 241.090188 179.299775 
L 235.008 167.616 
L 227.930648 156.506783 
L 220.026886 146.220751 
L 211.498501 136.977824 
L 202.57448 128.963236 
L 193.504277 122.322634 
L 184.5504 117.1584 
L 175.980536 113.527295 
L 168.059449 111.439495 
L 161.040901 110.859049 
L 155.159846 111.70572 
L 150.62512 113.858177 
L 147.612873 117.1584 
L 146.260919 121.417194 
L 146.6642 126.42061 
L 148.871489 131.937089 
L 152.883444 137.725106 
L 158.652075 143.541069 
L 166.081637 149.147237 
L 175.030933 154.319404 
L 185.316964 158.85413 
L 196.719812 162.575264 
L 208.988614 165.339599 
L 221.84846 167.041442 
L 235.008 167.616 
L 235.008 167.616 
" style="fill:none;stroke:#ff7f0e;stroke-linecap:square;stroke-width:1.5;"/>
   </g>
   <g id="patch_3">
    <path d="M 108.864 293.76 
L 108.864 41.472 
" style="fill:none;stroke:#000000;stroke-linecap:square;stroke-linejoin:miter;stroke-width:1.5;"/>
   </g>
   <g id="patch_4">
    <path d="M 361.152 293.76 
L 361.152 41.472 
" style="fill:none;stroke:#000000;stroke-linecap:square;stroke-linejoin:miter;stroke-width:1.5;"/>
   </g>
   <g id="patch_5">
    <path d="M 108.864 293.76 
L 361.152 293.76 
" style="fill:none;stroke:#000000;stroke-linecap:square;stroke-linejoin:miter;stroke-width:1.5;"/>
   </g>
   <g id="patch_6">
    <path d="M 108.864 41.472 
L 361.152 41.472 
" style="fill:none;stroke:#000000;stroke-linecap:square;stroke-linejoin:miter;stroke-width:1.5;"/>
   </g>
   <g id="legend_1">
    <g id="patch_7">
     <path d="M 274.093875 93.77075 
L 351.352 93.77075 
Q 354.152 93.77075 354.152 90.97075 
L 354.152 51.272 
Q 354.152 48.472 351.352 48.472 
L 274.093875 48.472 
Q 271.293875 48.472 271.293875 51.272 
L 271.293875 90.97075 
Q 271.293875 93.77075 274.093875 93.77075 
z
" style="fill:none;opacity:0;"/>
    </g>
    <g id="line2d_13">
     <path d="M 276.893875 59.809812 
L 304.893875 59.809812 
" style="fill:none;stroke:#1f77b4;stroke-linecap:square;stroke-width:1.5;"/>
    </g>
    <g id="line2d_14"/>
    <g id="text_11">
     <!-- r10 -->
     <defs>
      <path d="M 41.109375 46.296875 
Q 39.59375 47.171875 37.8125 47.578125 
Q 36.03125 48 33.890625 48 
Q 26.265625 48 22.1875 43.046875 
Q 18.109375 38.09375 18.109375 28.8125 
L 18.109375 0 
L 9.078125 0 
L 9.078125 54.6875 
L 18.109375 54.6875 
L 18.109375 46.1875 
Q 20.953125 51.171875 25.484375 53.578125 
Q 30.03125 56 36.53125 56 
Q 37.453125 56 38.578125 55.875 
Q 39.703125 55.765625 41.0625 55.515625 
z
" id="DejaVuSans-114"/>
     </defs>
     <g transform="translate(316.093875 64.709812)scale(0.14 -0.14)">
      <use xlink:href="#DejaVuSans-114"/>
      <use x="41.113281" xlink:href="#DejaVuSans-49"/>
      <use x="104.736328" xlink:href="#DejaVuSans-48"/>
     </g>
    </g>
    <g id="line2d_15">
     <path d="M 276.893875 80.359187 
L 304.893875 80.359187 
" style="fill:none;stroke:#ff7f0e;stroke-linecap:square;stroke-width:1.5;"/>
    </g>
    <g id="line2d_16"/>
    <g id="text_12">
     <!-- r10b -->
     <defs>
      <path d="M 48.6875 27.296875 
Q 48.6875 37.203125 44.609375 42.84375 
Q 40.53125 48.484375 33.40625 48.484375 
Q 26.265625 48.484375 22.1875 42.84375 
Q 18.109375 37.203125 18.109375 27.296875 
Q 18.109375 17.390625 22.1875 11.75 
Q 26.265625 6.109375 33.40625 6.109375 
Q 40.53125 6.109375 44.609375 11.75 
Q 48.6875 17.390625 48.6875 27.296875 
z
M 18.109375 46.390625 
Q 20.953125 51.265625 25.265625 53.625 
Q 29.59375 56 35.59375 56 
Q 45.5625 56 51.78125 48.09375 
Q 58.015625 40.1875 58.015625 27.296875 
Q 58.015625 14.40625 51.78125 6.484375 
Q 45.5625 -1.421875 35.59375 -1.421875 
Q 29.59375 -1.421875 25.265625 0.953125 
Q 20.953125 3.328125 18.109375 8.203125 
L 18.109375 0 
L 9.078125 0 
L 9.078125 75.984375 
L 18.109375 75.984375 
z
" id="DejaVuSans-98"/>
     </defs>
     <g transform="translate(316.093875 85.259187)scale(0.14 -0.14)">
      <use xlink:href="#DejaVuSans-114"/>
      <use x="41.113281" xlink:href="#DejaVuSans-49"/>
      <use x="104.736328" xlink:href="#DejaVuSans-48"/>
      <use x="168.359375" xlink:href="#DejaVuSans-98"/>
     </g>
    </g>
   </g>
  </g>
 </g>
 <defs>
  <clipPath id="p04515a5898">
   <rect height="252.288" width="252.288" x="108.864" y="41.472"/>
  </clipPath>
 </defs>
</svg>
