<?xml version="1.0" encoding="utf-8" standalone="no"?>
<!DOCTYPE svg PUBLIC "-//W3C//DTD SVG 1.1//EN"
  "http://www.w3.org/Graphics/SVG/1.1/DTD/svg11.dtd">
<!-- Created with matplotlib (https://matplotlib.org/) -->
<svg height="345.6pt" version="1.1" viewBox="0 0 460.8 345.6" width="460.8pt" xmlns="http://www.w3.org/2000/svg" xmlns:xlink="http://www.w3.org/1999/xlink">
 <defs>
  <style type="text/css">
*{stroke-linecap:butt;stroke-linejoin:round;}
  </style>
 </defs>
 <g id="figure_1">
  <g id="patch_1">
   <path d="M 0 345.6 
L 460.8 345.6 
L 460.8 0 
L 0 0 
z
" style="fill:#ffffff;"/>
  </g>
  <g id="axes_1">
   <g id="patch_2">
    <path d="M 108.864 293.76 
L 361.152 293.76 
L 361.152 41.472 
L 108.864 41.472 
z
" style="fill:#ffffff;"/>
   </g>
   <g id="matplotlib.axis_1">
    <g id="xtick_1">
     <g id="line2d_1">
      <defs>
       <path d="M 0 0 
L 0 12 
" id="mbaf89a45ce" style="stroke:#000000;stroke-width:1.5;"/>
      </defs>
      <g>
       <use style="stroke:#000000;stroke-width:1.5;" x="108.864" xlink:href="#mbaf89a45ce" y="293.76"/>
      </g>
     </g>
     <g id="text_1">
      <!-- −1.0 -->
      <defs>
       <path d="M 10.59375 35.5 
L 73.1875 35.5 
L 73.1875 27.203125 
L 10.59375 27.203125 
z
" id="DejaVuSans-8722"/>
       <path d="M 12.40625 8.296875 
L 28.515625 8.296875 
L 28.515625 63.921875 
L 10.984375 60.40625 
L 10.984375 69.390625 
L 28.421875 72.90625 
L 38.28125 72.90625 
L 38.28125 8.296875 
L 54.390625 8.296875 
L 54.390625 0 
L 12.40625 0 
z
" id="DejaVuSans-49"/>
       <path d="M 10.6875 12.40625 
L 21 12.40625 
L 21 0 
L 10.6875 0 
z
" id="DejaVuSans-46"/>
       <path d="M 31.78125 66.40625 
Q 24.171875 66.40625 20.328125 58.90625 
Q 16.5 51.421875 16.5 36.375 
Q 16.5 21.390625 20.328125 13.890625 
Q 24.171875 6.390625 31.78125 6.390625 
Q 39.453125 6.390625 43.28125 13.890625 
Q 47.125 21.390625 47.125 36.375 
Q 47.125 51.421875 43.28125 58.90625 
Q 39.453125 66.40625 31.78125 66.40625 
z
M 31.78125 74.21875 
Q 44.046875 74.21875 50.515625 64.515625 
Q 56.984375 54.828125 56.984375 36.375 
Q 56.984375 17.96875 50.515625 8.265625 
Q 44.046875 -1.421875 31.78125 -1.421875 
Q 19.53125 -1.421875 13.0625 8.265625 
Q 6.59375 17.96875 6.59375 36.375 
Q 6.59375 54.828125 13.0625 64.515625 
Q 19.53125 74.21875 31.78125 74.21875 
z
" id="DejaVuSans-48"/>
      </defs>
      <g transform="translate(91.866031 319.897812)scale(0.14 -0.14)">
       <use xlink:href="#DejaVuSans-8722"/>
       <use x="83.789062" xlink:href="#DejaVuSans-49"/>
       <use x="147.412109" xlink:href="#DejaVuSans-46"/>
       <use x="179.199219" xlink:href="#DejaVuSans-48"/>
      </g>
     </g>
    </g>
    <g id="xtick_2">
     <g id="line2d_2">
      <g>
       <use style="stroke:#000000;stroke-width:1.5;" x="150.912" xlink:href="#mbaf89a45ce" y="293.76"/>
      </g>
     </g>
     <g id="text_2">
      <!-- −0.5 -->
      <defs>
       <path d="M 10.796875 72.90625 
L 49.515625 72.90625 
L 49.515625 64.59375 
L 19.828125 64.59375 
L 19.828125 46.734375 
Q 21.96875 47.46875 24.109375 47.828125 
Q 26.265625 48.1875 28.421875 48.1875 
Q 40.625 48.1875 47.75 41.5 
Q 54.890625 34.8125 54.890625 23.390625 
Q 54.890625 11.625 47.5625 5.09375 
Q 40.234375 -1.421875 26.90625 -1.421875 
Q 22.3125 -1.421875 17.546875 -0.640625 
Q 12.796875 0.140625 7.71875 1.703125 
L 7.71875 11.625 
Q 12.109375 9.234375 16.796875 8.0625 
Q 21.484375 6.890625 26.703125 6.890625 
Q 35.15625 6.890625 40.078125 11.328125 
Q 45.015625 15.765625 45.015625 23.390625 
Q 45.015625 31 40.078125 35.4375 
Q 35.15625 39.890625 26.703125 39.890625 
Q 22.75 39.890625 18.8125 39.015625 
Q 14.890625 38.140625 10.796875 36.28125 
z
" id="DejaVuSans-53"/>
      </defs>
      <g transform="translate(133.914031 319.897812)scale(0.14 -0.14)">
       <use xlink:href="#DejaVuSans-8722"/>
       <use x="83.789062" xlink:href="#DejaVuSans-48"/>
       <use x="147.412109" xlink:href="#DejaVuSans-46"/>
       <use x="179.199219" xlink:href="#DejaVuSans-53"/>
      </g>
     </g>
    </g>
    <g id="xtick_3">
     <g id="line2d_3">
      <g>
       <use style="stroke:#000000;stroke-width:1.5;" x="192.96" xlink:href="#mbaf89a45ce" y="293.76"/>
      </g>
     </g>
     <g id="text_3">
      <!-- 0.0 -->
      <g transform="translate(181.827812 319.897812)scale(0.14 -0.14)">
       <use xlink:href="#DejaVuSans-48"/>
       <use x="63.623047" xlink:href="#DejaVuSans-46"/>
       <use x="95.410156" xlink:href="#DejaVuSans-48"/>
      </g>
     </g>
    </g>
    <g id="xtick_4">
     <g id="line2d_4">
      <g>
       <use style="stroke:#000000;stroke-width:1.5;" x="235.008" xlink:href="#mbaf89a45ce" y="293.76"/>
      </g>
     </g>
     <g id="text_4">
      <!-- 0.5 -->
      <g transform="translate(223.875812 319.897812)scale(0.14 -0.14)">
       <use xlink:href="#DejaVuSans-48"/>
       <use x="63.623047" xlink:href="#DejaVuSans-46"/>
       <use x="95.410156" xlink:href="#DejaVuSans-53"/>
      </g>
     </g>
    </g>
    <g id="xtick_5">
     <g id="line2d_5">
      <g>
       <use style="stroke:#000000;stroke-width:1.5;" x="277.056" xlink:href="#mbaf89a45ce" y="293.76"/>
      </g>
     </g>
     <g id="text_5">
      <!-- 1.0 -->
      <g transform="translate(265.923812 319.897812)scale(0.14 -0.14)">
       <use xlink:href="#DejaVuSans-49"/>
       <use x="63.623047" xlink:href="#DejaVuSans-46"/>
       <use x="95.410156" xlink:href="#DejaVuSans-48"/>
      </g>
     </g>
    </g>
    <g id="xtick_6">
     <g id="line2d_6">
      <g>
       <use style="stroke:#000000;stroke-width:1.5;" x="319.104" xlink:href="#mbaf89a45ce" y="293.76"/>
      </g>
     </g>
     <g id="text_6">
      <!-- 1.5 -->
      <g transform="translate(307.971812 319.897812)scale(0.14 -0.14)">
       <use xlink:href="#DejaVuSans-49"/>
       <use x="63.623047" xlink:href="#DejaVuSans-46"/>
       <use x="95.410156" xlink:href="#DejaVuSans-53"/>
      </g>
     </g>
    </g>
    <g id="xtick_7">
     <g id="line2d_7">
      <g>
       <use style="stroke:#000000;stroke-width:1.5;" x="361.152" xlink:href="#mbaf89a45ce" y="293.76"/>
      </g>
     </g>
     <g id="text_7">
      <!-- 2.0 -->
      <defs>
       <path d="M 19.1875 8.296875 
L 53.609375 8.296875 
L 53.609375 0 
L 7.328125 0 
L 7.328125 8.296875 
Q 12.9375 14.109375 22.625 23.890625 
Q 32.328125 33.6875 34.8125 36.53125 
Q 39.546875 41.84375 41.421875 45.53125 
Q 43.3125 49.21875 43.3125 52.78125 
Q 43.3125 58.59375 39.234375 62.25 
Q 35.15625 65.921875 28.609375 65.921875 
Q 23.96875 65.921875 18.8125 64.3125 
Q 13.671875 62.703125 7.8125 59.421875 
L 7.8125 69.390625 
Q 13.765625 71.78125 18.9375 73 
Q 24.125 74.21875 28.421875 74.21875 
Q 39.75 74.21875 46.484375 68.546875 
Q 53.21875 62.890625 53.21875 53.421875 
Q 53.21875 48.921875 51.53125 44.890625 
Q 49.859375 40.875 45.40625 35.40625 
Q 44.1875 33.984375 37.640625 27.21875 
Q 31.109375 20.453125 19.1875 8.296875 
z
" id="DejaVuSans-50"/>
      </defs>
      <g transform="translate(350.019812 319.897812)scale(0.14 -0.14)">
       <use xlink:href="#DejaVuSans-50"/>
       <use x="63.623047" xlink:href="#DejaVuSans-46"/>
       <use x="95.410156" xlink:href="#DejaVuSans-48"/>
      </g>
     </g>
    </g>
   </g>
   <g id="matplotlib.axis_2">
    <g id="ytick_1">
     <g id="line2d_8">
      <defs>
       <path d="M 0 0 
L -12 0 
" id="m03b2fb1835" style="stroke:#000000;stroke-width:1.5;"/>
      </defs>
      <g>
       <use style="stroke:#000000;stroke-width:1.5;" x="108.864" xlink:href="#m03b2fb1835" y="293.76"/>
      </g>
     </g>
     <g id="text_8">
      <!-- −1.0 -->
      <g transform="translate(59.368063 299.078906)scale(0.14 -0.14)">
       <use xlink:href="#DejaVuSans-8722"/>
       <use x="83.789062" xlink:href="#DejaVuSans-49"/>
       <use x="147.412109" xlink:href="#DejaVuSans-46"/>
       <use x="179.199219" xlink:href="#DejaVuSans-48"/>
      </g>
     </g>
    </g>
    <g id="ytick_2">
     <g id="line2d_9">
      <g>
       <use style="stroke:#000000;stroke-width:1.5;" x="108.864" xlink:href="#m03b2fb1835" y="251.712"/>
      </g>
     </g>
     <g id="text_9">
      <!-- −0.5 -->
      <g transform="translate(59.368063 257.030906)scale(0.14 -0.14)">
       <use xlink:href="#DejaVuSans-8722"/>
       <use x="83.789062" xlink:href="#DejaVuSans-48"/>
       <use x="147.412109" xlink:href="#DejaVuSans-46"/>
       <use x="179.199219" xlink:href="#DejaVuSans-53"/>
      </g>
     </g>
    </g>
    <g id="ytick_3">
     <g id="line2d_10">
      <g>
       <use style="stroke:#000000;stroke-width:1.5;" x="108.864" xlink:href="#m03b2fb1835" y="209.664"/>
      </g>
     </g>
     <g id="text_10">
      <!-- 0.0 -->
      <g transform="translate(71.099625 214.982906)scale(0.14 -0.14)">
       <use xlink:href="#DejaVuSans-48"/>
       <use x="63.623047" xlink:href="#DejaVuSans-46"/>
       <use x="95.410156" xlink:href="#DejaVuSans-48"/>
      </g>
     </g>
    </g>
    <g id="ytick_4">
     <g id="line2d_11">
      <g>
       <use style="stroke:#000000;stroke-width:1.5;" x="108.864" xlink:href="#m03b2fb1835" y="167.616"/>
      </g>
     </g>
     <g id="text_11">
      <!-- 0.5 -->
      <g transform="translate(71.099625 172.934906)scale(0.14 -0.14)">
       <use xlink:href="#DejaVuSans-48"/>
       <use x="63.623047" xlink:href="#DejaVuSans-46"/>
       <use x="95.410156" xlink:href="#DejaVuSans-53"/>
      </g>
     </g>
    </g>
    <g id="ytick_5">
     <g id="line2d_12">
      <g>
       <use style="stroke:#000000;stroke-width:1.5;" x="108.864" xlink:href="#m03b2fb1835" y="125.568"/>
      </g>
     </g>
     <g id="text_12">
      <!-- 1.0 -->
      <g transform="translate(71.099625 130.886906)scale(0.14 -0.14)">
       <use xlink:href="#DejaVuSans-49"/>
       <use x="63.623047" xlink:href="#DejaVuSans-46"/>
       <use x="95.410156" xlink:href="#DejaVuSans-48"/>
      </g>
     </g>
    </g>
    <g id="ytick_6">
     <g id="line2d_13">
      <g>
       <use style="stroke:#000000;stroke-width:1.5;" x="108.864" xlink:href="#m03b2fb1835" y="83.52"/>
      </g>
     </g>
     <g id="text_13">
      <!-- 1.5 -->
      <g transform="translate(71.099625 88.838906)scale(0.14 -0.14)">
       <use xlink:href="#DejaVuSans-49"/>
       <use x="63.623047" xlink:href="#DejaVuSans-46"/>
       <use x="95.410156" xlink:href="#DejaVuSans-53"/>
      </g>
     </g>
    </g>
    <g id="ytick_7">
     <g id="line2d_14">
      <g>
       <use style="stroke:#000000;stroke-width:1.5;" x="108.864" xlink:href="#m03b2fb1835" y="41.472"/>
      </g>
     </g>
     <g id="text_14">
      <!-- 2.0 -->
      <g transform="translate(71.099625 46.790906)scale(0.14 -0.14)">
       <use xlink:href="#DejaVuSans-50"/>
       <use x="63.623047" xlink:href="#DejaVuSans-46"/>
       <use x="95.410156" xlink:href="#DejaVuSans-48"/>
      </g>
     </g>
    </g>
   </g>
   <g id="line2d_15">
    <path clip-path="url(#p489618db87)" d="M 192.96 209.664 
L 196.624725 209.503995 
L 200.261559 209.025196 
L 203.842823 208.231249 
L 207.341263 207.128195 
L 210.730253 205.72443 
L 213.984 204.030636 
L 217.077742 202.059705 
L 219.987933 199.826637 
L 222.692426 197.348426 
L 225.170637 194.643933 
L 227.403705 191.733742 
L 229.374636 188.64 
L 231.06843 185.386253 
L 232.472195 181.997263 
L 233.575249 178.498823 
L 234.369196 174.917559 
L 234.847995 171.280725 
L 235.008 167.616 
L 234.847995 163.951275 
L 234.369196 160.314441 
L 233.575249 156.733177 
L 232.472195 153.234737 
L 231.06843 149.845747 
L 229.374636 146.592 
L 227.403705 143.498258 
L 225.170637 140.588067 
L 222.692426 137.883574 
L 219.987933 135.405363 
L 217.077742 133.172295 
L 213.984 131.201364 
L 210.730253 129.50757 
L 207.341263 128.103805 
L 203.842823 127.000751 
L 200.261559 126.206804 
L 196.624725 125.728005 
L 192.96 125.568 
L 189.295275 125.728005 
L 185.658441 126.206804 
L 182.077177 127.000751 
L 178.578737 128.103805 
L 175.189747 129.50757 
L 171.936 131.201364 
L 168.842258 133.172295 
L 165.932067 135.405363 
L 163.227574 137.883574 
L 160.749363 140.588067 
L 158.516295 143.498258 
L 156.545364 146.592 
L 154.85157 149.845747 
L 153.447805 153.234737 
L 152.344751 156.733177 
L 151.550804 160.314441 
L 151.072005 163.951275 
L 150.912 167.616 
L 151.072005 171.280725 
L 151.550804 174.917559 
L 152.344751 178.498823 
L 153.447805 181.997263 
L 154.85157 185.386253 
L 156.545364 188.64 
L 158.516295 191.733742 
L 160.749363 194.643933 
L 163.227574 197.348426 
L 165.932067 199.826637 
L 168.842258 202.059705 
L 171.936 204.030636 
L 175.189747 205.72443 
L 178.578737 207.128195 
L 182.077177 208.231249 
L 185.658441 209.025196 
L 189.295275 209.503995 
L 192.96 209.664 
L 196.624725 209.503995 
L 200.261559 209.025196 
L 203.842823 208.231249 
L 207.341263 207.128195 
L 210.730253 205.72443 
L 213.984 204.030636 
L 217.077742 202.059705 
L 219.987933 199.826637 
L 222.692426 197.348426 
L 225.170637 194.643933 
L 227.403705 191.733742 
L 229.374636 188.64 
L 231.06843 185.386253 
L 232.472195 181.997263 
L 233.575249 178.498823 
L 234.369196 174.917559 
L 234.847995 171.280725 
L 235.008 167.616 
L 234.847995 163.951275 
L 234.369196 160.314441 
L 233.575249 156.733177 
L 232.472195 153.234737 
L 231.06843 149.845747 
L 229.374636 146.592 
L 227.403705 143.498258 
L 225.170637 140.588067 
L 222.692426 137.883574 
L 219.987933 135.405363 
L 217.077742 133.172295 
L 213.984 131.201364 
L 210.730253 129.50757 
L 207.341263 128.103805 
L 203.842823 127.000751 
L 200.261559 126.206804 
L 196.624725 125.728005 
L 192.96 125.568 
L 189.295275 125.728005 
L 185.658441 126.206804 
L 182.077177 127.000751 
L 178.578737 128.103805 
L 175.189747 129.50757 
L 171.936 131.201364 
L 168.842258 133.172295 
L 165.932067 135.405363 
L 163.227574 137.883574 
L 160.749363 140.588067 
L 158.516295 143.498258 
L 156.545364 146.592 
L 154.85157 149.845747 
L 153.447805 153.234737 
L 152.344751 156.733177 
L 151.550804 160.314441 
L 151.072005 163.951275 
L 150.912 167.616 
L 151.072005 171.280725 
L 151.550804 174.917559 
L 152.344751 178.498823 
L 153.447805 181.997263 
L 154.85157 185.386253 
L 156.545364 188.64 
L 158.516295 191.733742 
L 160.749363 194.643933 
L 163.227574 197.348426 
L 165.932067 199.826637 
L 168.842258 202.059705 
L 171.936 204.030636 
L 175.189747 205.72443 
L 178.578737 207.128195 
L 182.077177 208.231249 
L 185.658441 209.025196 
L 189.295275 209.503995 
L 192.96 209.664 
L 192.96 209.664 
" style="fill:none;stroke:#1f77b4;stroke-linecap:square;stroke-width:1.5;"/>
   </g>
   <g id="line2d_16">
    <path clip-path="url(#p489618db87)" d="M 277.056 209.664 
L 280.560719 205.83927 
L 283.718755 201.723638 
L 286.506072 197.348426 
L 288.901458 192.746932 
L 290.886682 187.954177 
L 292.446636 183.006636 
L 293.569447 177.941963 
L 294.24657 172.798703 
L 294.472852 167.616 
L 294.24657 162.433297 
L 293.569447 157.290037 
L 292.446636 152.225364 
L 290.886682 147.277823 
L 288.901458 142.485068 
L 286.506072 137.883574 
L 283.718755 133.508362 
L 280.560719 129.39273 
L 277.056 125.568 
L 273.23127 122.063281 
L 269.115638 118.905245 
L 264.740426 116.117928 
L 260.138932 113.722542 
L 255.346177 111.737318 
L 250.398636 110.177364 
L 245.333963 109.054553 
L 240.190703 108.37743 
L 235.008 108.151148 
L 229.825297 108.37743 
L 224.682037 109.054553 
L 219.617364 110.177364 
L 214.669823 111.737318 
L 209.877068 113.722542 
L 205.275574 116.117928 
L 200.900362 118.905245 
L 196.78473 122.063281 
L 192.96 125.568 
L 189.455281 129.39273 
L 186.297245 133.508362 
L 183.509928 137.883574 
L 181.114542 142.485068 
L 179.129318 147.277823 
L 177.569364 152.225364 
L 176.446553 157.290037 
L 175.76943 162.433297 
L 175.543148 167.616 
L 175.76943 172.798703 
L 176.446553 177.941963 
L 177.569364 183.006636 
L 179.129318 187.954177 
L 181.114542 192.746932 
L 183.509928 197.348426 
L 186.297245 201.723638 
L 189.455281 205.83927 
L 192.96 209.664 
L 196.78473 213.168719 
L 200.900362 216.326755 
L 205.275574 219.114072 
L 209.877068 221.509458 
L 214.669823 223.494682 
L 219.617364 225.054636 
L 224.682037 226.177447 
L 229.825297 226.85457 
L 235.008 227.080852 
L 240.190703 226.85457 
L 245.333963 226.177447 
L 250.398636 225.054636 
L 255.346177 223.494682 
L 260.138932 221.509458 
L 264.740426 219.114072 
L 269.115638 216.326755 
L 273.23127 213.168719 
L 277.056 209.664 
L 280.560719 205.83927 
L 283.718755 201.723638 
L 286.506072 197.348426 
L 288.901458 192.746932 
L 290.886682 187.954177 
L 292.446636 183.006636 
L 293.569447 177.941963 
L 294.24657 172.798703 
L 294.472852 167.616 
L 294.24657 162.433297 
L 293.569447 157.290037 
L 292.446636 152.225364 
L 290.886682 147.277823 
L 288.901458 142.485068 
L 286.506072 137.883574 
L 283.718755 133.508362 
L 280.560719 129.39273 
L 277.056 125.568 
L 273.23127 122.063281 
L 269.115638 118.905245 
L 264.740426 116.117928 
L 260.138932 113.722542 
L 255.346177 111.737318 
L 250.398636 110.177364 
L 245.333963 109.054553 
L 240.190703 108.37743 
L 235.008 108.151148 
L 229.825297 108.37743 
L 224.682037 109.054553 
L 219.617364 110.177364 
L 214.669823 111.737318 
L 209.877068 113.722542 
L 205.275574 116.117928 
L 200.900362 118.905245 
L 196.78473 122.063281 
L 192.96 125.568 
L 189.455281 129.39273 
L 186.297245 133.508362 
L 183.509928 137.883574 
L 181.114542 142.485068 
L 179.129318 147.277823 
L 177.569364 152.225364 
L 176.446553 157.290037 
L 175.76943 162.433297 
L 175.543148 167.616 
L 175.76943 172.798703 
L 176.446553 177.941963 
L 177.569364 183.006636 
L 179.129318 187.954177 
L 181.114542 192.746932 
L 183.509928 197.348426 
L 186.297245 201.723638 
L 189.455281 205.83927 
L 192.96 209.664 
L 196.78473 213.168719 
L 200.900362 216.326755 
L 205.275574 219.114072 
L 209.877068 221.509458 
L 214.669823 223.494682 
L 219.617364 225.054636 
L 224.682037 226.177447 
L 229.825297 226.85457 
L 235.008 227.080852 
L 240.190703 226.85457 
L 245.333963 226.177447 
L 250.398636 225.054636 
L 255.346177 223.494682 
L 260.138932 221.509458 
L 264.740426 219.114072 
L 269.115638 216.326755 
L 273.23127 213.168719 
L 277.056 209.664 
L 277.056 209.664 
" style="fill:none;stroke:#ff7f0e;stroke-linecap:square;stroke-width:1.5;"/>
   </g>
   <g id="line2d_17">
    <path clip-path="url(#p489618db87)" d="M 108.864 209.664 
L 361.152 209.664 
" style="fill:none;stroke:#000000;stroke-linecap:square;stroke-width:0.5;"/>
   </g>
   <g id="line2d_18">
    <path clip-path="url(#p489618db87)" d="M 192.96 293.76 
L 192.96 41.472 
" style="fill:none;stroke:#000000;stroke-linecap:square;stroke-width:0.5;"/>
   </g>
   <g id="patch_3">
    <path d="M 108.864 293.76 
L 108.864 41.472 
" style="fill:none;stroke:#000000;stroke-linecap:square;stroke-linejoin:miter;stroke-width:1.5;"/>
   </g>
   <g id="patch_4">
    <path d="M 361.152 293.76 
L 361.152 41.472 
" style="fill:none;stroke:#000000;stroke-linecap:square;stroke-linejoin:miter;stroke-width:1.5;"/>
   </g>
   <g id="patch_5">
    <path d="M 108.864 293.76 
L 361.152 293.76 
" style="fill:none;stroke:#000000;stroke-linecap:square;stroke-linejoin:miter;stroke-width:1.5;"/>
   </g>
   <g id="patch_6">
    <path d="M 108.864 41.472 
L 361.152 41.472 
" style="fill:none;stroke:#000000;stroke-linecap:square;stroke-linejoin:miter;stroke-width:1.5;"/>
   </g>
   <g id="legend_1">
    <g id="patch_7">
     <path d="M 291.889187 93.77075 
L 351.352 93.77075 
Q 354.152 93.77075 354.152 90.97075 
L 354.152 51.272 
Q 354.152 48.472 351.352 48.472 
L 291.889187 48.472 
Q 289.089187 48.472 289.089187 51.272 
L 289.089187 90.97075 
Q 289.089187 93.77075 291.889187 93.77075 
z
" style="fill:none;opacity:0;"/>
    </g>
    <g id="line2d_19">
     <path d="M 294.689188 59.809812 
L 322.689188 59.809812 
" style="fill:none;stroke:#1f77b4;stroke-linecap:square;stroke-width:1.5;"/>
    </g>
    <g id="line2d_20"/>
    <g id="text_15">
     <!-- r0 -->
     <defs>
      <path d="M 41.109375 46.296875 
Q 39.59375 47.171875 37.8125 47.578125 
Q 36.03125 48 33.890625 48 
Q 26.265625 48 22.1875 43.046875 
Q 18.109375 38.09375 18.109375 28.8125 
L 18.109375 0 
L 9.078125 0 
L 9.078125 54.6875 
L 18.109375 54.6875 
L 18.109375 46.1875 
Q 20.953125 51.171875 25.484375 53.578125 
Q 30.03125 56 36.53125 56 
Q 37.453125 56 38.578125 55.875 
Q 39.703125 55.765625 41.0625 55.515625 
z
" id="DejaVuSans-114"/>
     </defs>
     <g transform="translate(333.889187 64.709812)scale(0.14 -0.14)">
      <use xlink:href="#DejaVuSans-114"/>
      <use x="41.113281" xlink:href="#DejaVuSans-48"/>
     </g>
    </g>
    <g id="line2d_21">
     <path d="M 294.689188 80.359187 
L 322.689188 80.359187 
" style="fill:none;stroke:#ff7f0e;stroke-linecap:square;stroke-width:1.5;"/>
    </g>
    <g id="line2d_22"/>
    <g id="text_16">
     <!-- r1 -->
     <g transform="translate(333.889187 85.259187)scale(0.14 -0.14)">
      <use xlink:href="#DejaVuSans-114"/>
      <use x="41.113281" xlink:href="#DejaVuSans-49"/>
     </g>
    </g>
   </g>
  </g>
 </g>
 <defs>
  <clipPath id="p489618db87">
   <rect height="252.288" width="252.288" x="108.864" y="41.472"/>
  </clipPath>
 </defs>
</svg>
