<?xml version="1.0" encoding="utf-8" standalone="no"?>
<!DOCTYPE svg PUBLIC "-//W3C//DTD SVG 1.1//EN"
  "http://www.w3.org/Graphics/SVG/1.1/DTD/svg11.dtd">
<!-- Created with matplotlib (https://matplotlib.org/) -->
<svg height="345.6pt" version="1.1" viewBox="0 0 460.8 345.6" width="460.8pt" xmlns="http://www.w3.org/2000/svg" xmlns:xlink="http://www.w3.org/1999/xlink">
 <defs>
  <style type="text/css">
*{stroke-linecap:butt;stroke-linejoin:round;}
  </style>
 </defs>
 <g id="figure_1">
  <g id="patch_1">
   <path d="M 0 345.6 
L 460.8 345.6 
L 460.8 0 
L 0 0 
z
" style="fill:#ffffff;"/>
  </g>
  <g id="axes_1">
   <g id="patch_2">
    <path d="M 126.884571 293.76 
L 343.131429 293.76 
L 343.131429 41.472 
L 126.884571 41.472 
z
" style="fill:#ffffff;"/>
   </g>
   <g id="matplotlib.axis_1">
    <g id="xtick_1">
     <g id="line2d_1">
      <defs>
       <path d="M 0 0 
L 0 12 
" id="m3e70f472dd" style="stroke:#000000;stroke-width:1.5;"/>
      </defs>
      <g>
       <use style="stroke:#000000;stroke-width:1.5;" x="162.925714" xlink:href="#m3e70f472dd" y="293.76"/>
      </g>
     </g>
     <g id="text_1">
      <!-- −2 -->
      <defs>
       <path d="M 10.59375 35.5 
L 73.1875 35.5 
L 73.1875 27.203125 
L 10.59375 27.203125 
z
" id="DejaVuSans-8722"/>
       <path d="M 19.1875 8.296875 
L 53.609375 8.296875 
L 53.609375 0 
L 7.328125 0 
L 7.328125 8.296875 
Q 12.9375 14.109375 22.625 23.890625 
Q 32.328125 33.6875 34.8125 36.53125 
Q 39.546875 41.84375 41.421875 45.53125 
Q 43.3125 49.21875 43.3125 52.78125 
Q 43.3125 58.59375 39.234375 62.25 
Q 35.15625 65.921875 28.609375 65.921875 
Q 23.96875 65.921875 18.8125 64.3125 
Q 13.671875 62.703125 7.8125 59.421875 
L 7.8125 69.390625 
Q 13.765625 71.78125 18.9375 73 
Q 24.125 74.21875 28.421875 74.21875 
Q 39.75 74.21875 46.484375 68.546875 
Q 53.21875 62.890625 53.21875 53.421875 
Q 53.21875 48.921875 51.53125 44.890625 
Q 49.859375 40.875 45.40625 35.40625 
Q 44.1875 33.984375 37.640625 27.21875 
Q 31.109375 20.453125 19.1875 8.296875 
z
" id="DejaVuSans-50"/>
      </defs>
      <g transform="translate(152.606183 319.897812)scale(0.14 -0.14)">
       <use xlink:href="#DejaVuSans-8722"/>
       <use x="83.789062" xlink:href="#DejaVuSans-50"/>
      </g>
     </g>
    </g>
    <g id="xtick_2">
     <g id="line2d_2">
      <g>
       <use style="stroke:#000000;stroke-width:1.5;" x="235.008" xlink:href="#m3e70f472dd" y="293.76"/>
      </g>
     </g>
     <g id="text_2">
      <!-- 0 -->
      <defs>
       <path d="M 31.78125 66.40625 
Q 24.171875 66.40625 20.328125 58.90625 
Q 16.5 51.421875 16.5 36.375 
Q 16.5 21.390625 20.328125 13.890625 
Q 24.171875 6.390625 31.78125 6.390625 
Q 39.453125 6.390625 43.28125 13.890625 
Q 47.125 21.390625 47.125 36.375 
Q 47.125 51.421875 43.28125 58.90625 
Q 39.453125 66.40625 31.78125 66.40625 
z
M 31.78125 74.21875 
Q 44.046875 74.21875 50.515625 64.515625 
Q 56.984375 54.828125 56.984375 36.375 
Q 56.984375 17.96875 50.515625 8.265625 
Q 44.046875 -1.421875 31.78125 -1.421875 
Q 19.53125 -1.421875 13.0625 8.265625 
Q 6.59375 17.96875 6.59375 36.375 
Q 6.59375 54.828125 13.0625 64.515625 
Q 19.53125 74.21875 31.78125 74.21875 
z
" id="DejaVuSans-48"/>
      </defs>
      <g transform="translate(230.55425 319.897812)scale(0.14 -0.14)">
       <use xlink:href="#DejaVuSans-48"/>
      </g>
     </g>
    </g>
    <g id="xtick_3">
     <g id="line2d_3">
      <g>
       <use style="stroke:#000000;stroke-width:1.5;" x="307.090286" xlink:href="#m3e70f472dd" y="293.76"/>
      </g>
     </g>
     <g id="text_3">
      <!-- 2 -->
      <g transform="translate(302.636536 319.897812)scale(0.14 -0.14)">
       <use xlink:href="#DejaVuSans-50"/>
      </g>
     </g>
    </g>
   </g>
   <g id="matplotlib.axis_2">
    <g id="ytick_1">
     <g id="line2d_4">
      <defs>
       <path d="M 0 0 
L -12 0 
" id="me597f0b349" style="stroke:#000000;stroke-width:1.5;"/>
      </defs>
      <g>
       <use style="stroke:#000000;stroke-width:1.5;" x="126.884571" xlink:href="#me597f0b349" y="293.76"/>
      </g>
     </g>
     <g id="text_4">
      <!-- −2 -->
      <g transform="translate(90.745509 299.078906)scale(0.14 -0.14)">
       <use xlink:href="#DejaVuSans-8722"/>
       <use x="83.789062" xlink:href="#DejaVuSans-50"/>
      </g>
     </g>
    </g>
    <g id="ytick_2">
     <g id="line2d_5">
      <g>
       <use style="stroke:#000000;stroke-width:1.5;" x="126.884571" xlink:href="#me597f0b349" y="257.718857"/>
      </g>
     </g>
     <g id="text_5">
      <!-- −1 -->
      <defs>
       <path d="M 12.40625 8.296875 
L 28.515625 8.296875 
L 28.515625 63.921875 
L 10.984375 60.40625 
L 10.984375 69.390625 
L 28.421875 72.90625 
L 38.28125 72.90625 
L 38.28125 8.296875 
L 54.390625 8.296875 
L 54.390625 0 
L 12.40625 0 
z
" id="DejaVuSans-49"/>
      </defs>
      <g transform="translate(90.745509 263.037763)scale(0.14 -0.14)">
       <use xlink:href="#DejaVuSans-8722"/>
       <use x="83.789062" xlink:href="#DejaVuSans-49"/>
      </g>
     </g>
    </g>
    <g id="ytick_3">
     <g id="line2d_6">
      <g>
       <use style="stroke:#000000;stroke-width:1.5;" x="126.884571" xlink:href="#me597f0b349" y="221.677714"/>
      </g>
     </g>
     <g id="text_6">
      <!-- 0 -->
      <g transform="translate(102.477071 226.996621)scale(0.14 -0.14)">
       <use xlink:href="#DejaVuSans-48"/>
      </g>
     </g>
    </g>
    <g id="ytick_4">
     <g id="line2d_7">
      <g>
       <use style="stroke:#000000;stroke-width:1.5;" x="126.884571" xlink:href="#me597f0b349" y="185.636571"/>
      </g>
     </g>
     <g id="text_7">
      <!-- 1 -->
      <g transform="translate(102.477071 190.955478)scale(0.14 -0.14)">
       <use xlink:href="#DejaVuSans-49"/>
      </g>
     </g>
    </g>
    <g id="ytick_5">
     <g id="line2d_8">
      <g>
       <use style="stroke:#000000;stroke-width:1.5;" x="126.884571" xlink:href="#me597f0b349" y="149.595429"/>
      </g>
     </g>
     <g id="text_8">
      <!-- 2 -->
      <g transform="translate(102.477071 154.914335)scale(0.14 -0.14)">
       <use xlink:href="#DejaVuSans-50"/>
      </g>
     </g>
    </g>
    <g id="ytick_6">
     <g id="line2d_9">
      <g>
       <use style="stroke:#000000;stroke-width:1.5;" x="126.884571" xlink:href="#me597f0b349" y="113.554286"/>
      </g>
     </g>
     <g id="text_9">
      <!-- 3 -->
      <defs>
       <path d="M 40.578125 39.3125 
Q 47.65625 37.796875 51.625 33 
Q 55.609375 28.21875 55.609375 21.1875 
Q 55.609375 10.40625 48.1875 4.484375 
Q 40.765625 -1.421875 27.09375 -1.421875 
Q 22.515625 -1.421875 17.65625 -0.515625 
Q 12.796875 0.390625 7.625 2.203125 
L 7.625 11.71875 
Q 11.71875 9.328125 16.59375 8.109375 
Q 21.484375 6.890625 26.8125 6.890625 
Q 36.078125 6.890625 40.9375 10.546875 
Q 45.796875 14.203125 45.796875 21.1875 
Q 45.796875 27.640625 41.28125 31.265625 
Q 36.765625 34.90625 28.71875 34.90625 
L 20.21875 34.90625 
L 20.21875 43.015625 
L 29.109375 43.015625 
Q 36.375 43.015625 40.234375 45.921875 
Q 44.09375 48.828125 44.09375 54.296875 
Q 44.09375 59.90625 40.109375 62.90625 
Q 36.140625 65.921875 28.71875 65.921875 
Q 24.65625 65.921875 20.015625 65.03125 
Q 15.375 64.15625 9.8125 62.3125 
L 9.8125 71.09375 
Q 15.4375 72.65625 20.34375 73.4375 
Q 25.25 74.21875 29.59375 74.21875 
Q 40.828125 74.21875 47.359375 69.109375 
Q 53.90625 64.015625 53.90625 55.328125 
Q 53.90625 49.265625 50.4375 45.09375 
Q 46.96875 40.921875 40.578125 39.3125 
z
" id="DejaVuSans-51"/>
      </defs>
      <g transform="translate(102.477071 118.873192)scale(0.14 -0.14)">
       <use xlink:href="#DejaVuSans-51"/>
      </g>
     </g>
    </g>
    <g id="ytick_7">
     <g id="line2d_10">
      <g>
       <use style="stroke:#000000;stroke-width:1.5;" x="126.884571" xlink:href="#me597f0b349" y="77.513143"/>
      </g>
     </g>
     <g id="text_10">
      <!-- 4 -->
      <defs>
       <path d="M 37.796875 64.3125 
L 12.890625 25.390625 
L 37.796875 25.390625 
z
M 35.203125 72.90625 
L 47.609375 72.90625 
L 47.609375 25.390625 
L 58.015625 25.390625 
L 58.015625 17.1875 
L 47.609375 17.1875 
L 47.609375 0 
L 37.796875 0 
L 37.796875 17.1875 
L 4.890625 17.1875 
L 4.890625 26.703125 
z
" id="DejaVuSans-52"/>
      </defs>
      <g transform="translate(102.477071 82.832049)scale(0.14 -0.14)">
       <use xlink:href="#DejaVuSans-52"/>
      </g>
     </g>
    </g>
    <g id="ytick_8">
     <g id="line2d_11">
      <g>
       <use style="stroke:#000000;stroke-width:1.5;" x="126.884571" xlink:href="#me597f0b349" y="41.472"/>
      </g>
     </g>
     <g id="text_11">
      <!-- 5 -->
      <defs>
       <path d="M 10.796875 72.90625 
L 49.515625 72.90625 
L 49.515625 64.59375 
L 19.828125 64.59375 
L 19.828125 46.734375 
Q 21.96875 47.46875 24.109375 47.828125 
Q 26.265625 48.1875 28.421875 48.1875 
Q 40.625 48.1875 47.75 41.5 
Q 54.890625 34.8125 54.890625 23.390625 
Q 54.890625 11.625 47.5625 5.09375 
Q 40.234375 -1.421875 26.90625 -1.421875 
Q 22.3125 -1.421875 17.546875 -0.640625 
Q 12.796875 0.140625 7.71875 1.703125 
L 7.71875 11.625 
Q 12.109375 9.234375 16.796875 8.0625 
Q 21.484375 6.890625 26.703125 6.890625 
Q 35.15625 6.890625 40.078125 11.328125 
Q 45.015625 15.765625 45.015625 23.390625 
Q 45.015625 31 40.078125 35.4375 
Q 35.15625 39.890625 26.703125 39.890625 
Q 22.75 39.890625 18.8125 39.015625 
Q 14.890625 38.140625 10.796875 36.28125 
z
" id="DejaVuSans-53"/>
      </defs>
      <g transform="translate(102.477071 46.790906)scale(0.14 -0.14)">
       <use xlink:href="#DejaVuSans-53"/>
      </g>
     </g>
    </g>
   </g>
   <g id="line2d_12">
    <path clip-path="url(#pfa43b6be1b)" d="M 307.090286 221.677714 
L 310.162872 218.396382 
L 313.07447 214.847783 
L 315.801746 211.041016 
L 318.321991 206.98721 
L 320.613293 202.699478 
L 322.654713 198.192848 
L 324.426448 193.484186 
L 325.909992 188.592095 
L 327.088285 183.536811 
L 327.945854 178.340081 
L 328.468944 173.025026 
L 328.645636 167.616 
L 328.465952 162.138433 
L 327.921948 156.618668 
L 327.007793 151.08379 
L 325.719831 145.56145 
L 324.056631 140.079678 
L 322.019016 134.666698 
L 319.610082 129.350743 
L 316.835197 124.159858 
L 313.701986 119.121715 
L 310.220297 114.263423 
L 306.402152 109.611343 
L 302.261688 105.190909 
L 297.815071 101.026453 
L 293.080408 97.141035 
L 288.077633 93.556286 
L 282.828394 90.292262 
L 277.355912 87.367298 
L 271.68484 84.797885 
L 265.841107 82.598555 
L 259.851754 80.781782 
L 253.74476 79.357889 
L 247.548864 78.334984 
L 241.293378 77.718897 
L 235.008 77.513143 
L 228.722622 77.718897 
L 222.467136 78.334984 
L 216.27124 79.357889 
L 210.164246 80.781782 
L 204.174893 82.598555 
L 198.33116 84.797885 
L 192.660088 87.367298 
L 187.187606 90.292262 
L 181.938367 93.556286 
L 176.935592 97.141035 
L 172.200929 101.026453 
L 167.754312 105.190909 
L 163.613848 109.611343 
L 159.795703 114.263423 
L 156.314014 119.121715 
L 153.180803 124.159858 
L 150.405918 129.350743 
L 147.996984 134.666698 
L 145.959369 140.079678 
L 144.296169 145.56145 
L 143.008207 151.08379 
L 142.094052 156.618668 
L 141.550048 162.138433 
L 141.370364 167.616 
L 141.547056 173.025026 
L 142.070146 178.340081 
L 142.927715 183.536811 
L 144.106008 188.592095 
L 145.589552 193.484186 
L 147.361287 198.192848 
L 149.402707 202.699478 
L 151.694009 206.98721 
L 154.214254 211.041016 
L 156.94153 214.847783 
L 159.853128 218.396382 
L 162.925714 221.677714 
L 166.135513 224.684752 
L 169.458488 227.412553 
L 172.870522 229.858268 
L 176.347603 232.021125 
L 179.865997 233.902402 
L 183.40243 235.505385 
L 186.934253 236.835309 
L 190.439608 237.899282 
L 193.897588 238.706204 
L 197.28838 239.266662 
L 200.593408 239.592817 
L 203.795455 239.698286 
L 206.878785 239.598 
L 209.829244 239.308069 
L 212.634349 238.845621 
L 215.283362 238.22865 
L 217.76736 237.47585 
L 220.07927 236.606444 
L 222.213909 235.640014 
L 224.167997 234.596327 
L 225.940155 233.495159 
L 227.530895 232.356126 
L 230.179402 230.041091 
L 232.153827 227.798508 
L 233.521206 225.762646 
L 234.372303 224.050168 
L 234.927508 222.289113 
L 235.008 221.677714 
L 235.031906 221.950965 
L 235.377817 223.345851 
L 236.011211 224.859493 
L 237.10776 226.746983 
L 238.76872 228.901989 
L 241.073415 231.198509 
L 242.485105 232.356126 
L 244.075845 233.495159 
L 245.848003 234.596327 
L 247.802091 235.640014 
L 249.93673 236.606444 
L 252.24864 237.47585 
L 254.732638 238.22865 
L 257.381651 238.845621 
L 260.186756 239.308069 
L 263.137215 239.598 
L 266.220545 239.698286 
L 269.422592 239.592817 
L 272.72762 239.266662 
L 276.118412 238.706204 
L 279.576392 237.899282 
L 283.081747 236.835309 
L 286.61357 235.505385 
L 290.150003 233.902402 
L 293.668397 232.021125 
L 297.145478 229.858268 
L 300.557512 227.412553 
L 303.880487 224.684752 
L 307.090286 221.677714 
L 307.090286 221.677714 
" style="fill:none;stroke:#1f77b4;stroke-linecap:square;stroke-width:1.5;"/>
   </g>
   <g id="line2d_13">
    <path clip-path="url(#pfa43b6be1b)" d="M 289.069714 221.677714 
L 290.588856 219.251002 
L 291.993233 216.692152 
L 293.271276 214.007208 
L 294.411794 211.203223 
L 295.404058 208.288231 
L 296.237892 205.271214 
L 296.903748 202.16206 
L 297.392794 198.971506 
L 297.69698 195.711089 
L 297.809111 192.393075 
L 297.722914 189.030396 
L 297.433091 185.636571 
L 296.935372 182.225628 
L 296.226562 178.812016 
L 295.304577 175.410524 
L 294.168474 172.036182 
L 292.818474 168.704174 
L 291.255976 165.429738 
L 289.483562 162.22807 
L 287.504999 159.114228 
L 285.325222 156.103034 
L 282.950323 153.208981 
L 280.387522 150.446133 
L 277.64513 147.828039 
L 274.73251 145.367641 
L 271.660026 143.07719 
L 268.438991 140.968163 
L 265.081595 139.05119 
L 261.600846 137.335982 
L 258.010487 135.831264 
L 254.324919 134.544723 
L 250.559117 133.482949 
L 246.728537 132.651399 
L 242.849028 132.054351 
L 238.936735 131.694886 
L 235.008 131.574857 
L 231.079265 131.694886 
L 227.166972 132.054351 
L 223.287463 132.651399 
L 219.456883 133.482949 
L 215.691081 134.544723 
L 212.005513 135.831264 
L 208.415154 137.335982 
L 204.934405 139.05119 
L 201.577009 140.968163 
L 198.355974 143.07719 
L 195.28349 145.367641 
L 192.37087 147.828039 
L 189.628478 150.446133 
L 187.065677 153.208981 
L 184.690778 156.103034 
L 182.511001 159.114228 
L 180.532438 162.22807 
L 178.760024 165.429738 
L 177.197526 168.704174 
L 175.847526 172.036182 
L 174.711423 175.410524 
L 173.789438 178.812016 
L 173.080628 182.225628 
L 172.582909 185.636571 
L 172.293086 189.030396 
L 172.206889 192.393075 
L 172.31902 195.711089 
L 172.623206 198.971506 
L 173.112252 202.16206 
L 173.778108 205.271214 
L 174.611942 208.288231 
L 175.604206 211.203223 
L 176.744724 214.007208 
L 178.022767 216.692152 
L 179.427144 219.251002 
L 180.946286 221.677714 
L 182.568337 223.967279 
L 184.281246 226.11573 
L 186.072858 228.120148 
L 187.931003 229.978659 
L 189.843587 231.690424 
L 191.79868 233.255617 
L 193.784602 234.675402 
L 195.790006 235.951897 
L 197.803957 237.088133 
L 199.816006 238.088011 
L 203.795455 239.698286 
L 207.657034 240.829067 
L 211.341123 241.536582 
L 214.801167 241.884548 
L 218.004598 241.941579 
L 220.933273 241.778508 
L 224.806666 241.274294 
L 234.220457 239.715405 
L 236.590549 239.766338 
L 239.093274 240.105194 
L 247.723154 241.636508 
L 250.512151 241.883117 
L 253.579567 241.945023 
L 256.914479 241.751304 
L 260.491506 241.231896 
L 264.271003 240.320303 
L 268.199738 238.95624 
L 270.199994 238.088011 
L 272.212043 237.088133 
L 274.225994 235.951897 
L 276.231398 234.675402 
L 278.21732 233.255617 
L 280.172413 231.690424 
L 282.084997 229.978659 
L 283.943142 228.120148 
L 285.734754 226.11573 
L 287.447663 223.967279 
L 289.069714 221.677714 
L 289.069714 221.677714 
" style="fill:none;stroke:#ff7f0e;stroke-linecap:square;stroke-width:1.5;"/>
   </g>
   <g id="line2d_14">
    <path clip-path="url(#pfa43b6be1b)" d="M 126.884571 221.677714 
L 343.131429 221.677714 
" style="fill:none;stroke:#000000;stroke-linecap:square;stroke-width:0.5;"/>
   </g>
   <g id="line2d_15">
    <path clip-path="url(#pfa43b6be1b)" d="M 235.008 293.76 
L 235.008 41.472 
" style="fill:none;stroke:#000000;stroke-linecap:square;stroke-width:0.5;"/>
   </g>
   <g id="patch_3">
    <path d="M 126.884571 293.76 
L 126.884571 41.472 
" style="fill:none;stroke:#000000;stroke-linecap:square;stroke-linejoin:miter;stroke-width:1.5;"/>
   </g>
   <g id="patch_4">
    <path d="M 343.131429 293.76 
L 343.131429 41.472 
" style="fill:none;stroke:#000000;stroke-linecap:square;stroke-linejoin:miter;stroke-width:1.5;"/>
   </g>
   <g id="patch_5">
    <path d="M 126.884571 293.76 
L 343.131429 293.76 
" style="fill:none;stroke:#000000;stroke-linecap:square;stroke-linejoin:miter;stroke-width:1.5;"/>
   </g>
   <g id="patch_6">
    <path d="M 126.884571 41.472 
L 343.131429 41.472 
" style="fill:none;stroke:#000000;stroke-linecap:square;stroke-linejoin:miter;stroke-width:1.5;"/>
   </g>
   <g id="legend_1">
    <g id="patch_7">
     <path d="M 136.684571 286.76 
L 196.147384 286.76 
Q 198.947384 286.76 198.947384 283.96 
L 198.947384 244.26125 
Q 198.947384 241.46125 196.147384 241.46125 
L 136.684571 241.46125 
Q 133.884571 241.46125 133.884571 244.26125 
L 133.884571 283.96 
Q 133.884571 286.76 136.684571 286.76 
z
" style="fill:none;opacity:0;"/>
    </g>
    <g id="line2d_16">
     <path d="M 139.484571 252.799062 
L 167.484571 252.799062 
" style="fill:none;stroke:#1f77b4;stroke-linecap:square;stroke-width:1.5;"/>
    </g>
    <g id="line2d_17"/>
    <g id="text_12">
     <!-- r2 -->
     <defs>
      <path d="M 41.109375 46.296875 
Q 39.59375 47.171875 37.8125 47.578125 
Q 36.03125 48 33.890625 48 
Q 26.265625 48 22.1875 43.046875 
Q 18.109375 38.09375 18.109375 28.8125 
L 18.109375 0 
L 9.078125 0 
L 9.078125 54.6875 
L 18.109375 54.6875 
L 18.109375 46.1875 
Q 20.953125 51.171875 25.484375 53.578125 
Q 30.03125 56 36.53125 56 
Q 37.453125 56 38.578125 55.875 
Q 39.703125 55.765625 41.0625 55.515625 
z
" id="DejaVuSans-114"/>
     </defs>
     <g transform="translate(178.684571 257.699062)scale(0.14 -0.14)">
      <use xlink:href="#DejaVuSans-114"/>
      <use x="41.113281" xlink:href="#DejaVuSans-50"/>
     </g>
    </g>
    <g id="line2d_18">
     <path d="M 139.484571 273.348437 
L 167.484571 273.348437 
" style="fill:none;stroke:#ff7f0e;stroke-linecap:square;stroke-width:1.5;"/>
    </g>
    <g id="line2d_19"/>
    <g id="text_13">
     <!-- r3 -->
     <g transform="translate(178.684571 278.248437)scale(0.14 -0.14)">
      <use xlink:href="#DejaVuSans-114"/>
      <use x="41.113281" xlink:href="#DejaVuSans-51"/>
     </g>
    </g>
   </g>
  </g>
 </g>
 <defs>
  <clipPath id="pfa43b6be1b">
   <rect height="252.288" width="216.246857" x="126.884571" y="41.472"/>
  </clipPath>
 </defs>
</svg>
