<?xml version="1.0" encoding="utf-8" standalone="no"?>
<!DOCTYPE svg PUBLIC "-//W3C//DTD SVG 1.1//EN"
  "http://www.w3.org/Graphics/SVG/1.1/DTD/svg11.dtd">
<!-- Created with matplotlib (https://matplotlib.org/) -->
<svg height="345.6pt" version="1.1" viewBox="0 0 460.8 345.6" width="460.8pt" xmlns="http://www.w3.org/2000/svg" xmlns:xlink="http://www.w3.org/1999/xlink">
 <defs>
  <style type="text/css">
*{stroke-linecap:butt;stroke-linejoin:round;}
  </style>
 </defs>
 <g id="figure_1">
  <g id="patch_1">
   <path d="M 0 345.6 
L 460.8 345.6 
L 460.8 0 
L 0 0 
z
" style="fill:#ffffff;"/>
  </g>
  <g id="axes_1">
   <g id="patch_2">
    <path d="M 108.864 293.76 
L 361.152 293.76 
L 361.152 41.472 
L 108.864 41.472 
z
" style="fill:#ffffff;"/>
   </g>
   <g id="matplotlib.axis_1">
    <g id="xtick_1">
     <g id="line2d_1">
      <defs>
       <path d="M 0 0 
L 0 12 
" id="mdde85412ce" style="stroke:#000000;stroke-width:1.5;"/>
      </defs>
      <g>
       <use style="stroke:#000000;stroke-width:1.5;" x="108.864" xlink:href="#mdde85412ce" y="293.76"/>
      </g>
     </g>
     <g id="text_1">
      <!-- −1 -->
      <defs>
       <path d="M 10.59375 35.5 
L 73.1875 35.5 
L 73.1875 27.203125 
L 10.59375 27.203125 
z
" id="DejaVuSans-8722"/>
       <path d="M 12.40625 8.296875 
L 28.515625 8.296875 
L 28.515625 63.921875 
L 10.984375 60.40625 
L 10.984375 69.390625 
L 28.421875 72.90625 
L 38.28125 72.90625 
L 38.28125 8.296875 
L 54.390625 8.296875 
L 54.390625 0 
L 12.40625 0 
z
" id="DejaVuSans-49"/>
      </defs>
      <g transform="translate(98.544469 319.897812)scale(0.14 -0.14)">
       <use xlink:href="#DejaVuSans-8722"/>
       <use x="83.789062" xlink:href="#DejaVuSans-49"/>
      </g>
     </g>
    </g>
    <g id="xtick_2">
     <g id="line2d_2">
      <g>
       <use style="stroke:#000000;stroke-width:1.5;" x="171.936" xlink:href="#mdde85412ce" y="293.76"/>
      </g>
     </g>
     <g id="text_2">
      <!-- 0 -->
      <defs>
       <path d="M 31.78125 66.40625 
Q 24.171875 66.40625 20.328125 58.90625 
Q 16.5 51.421875 16.5 36.375 
Q 16.5 21.390625 20.328125 13.890625 
Q 24.171875 6.390625 31.78125 6.390625 
Q 39.453125 6.390625 43.28125 13.890625 
Q 47.125 21.390625 47.125 36.375 
Q 47.125 51.421875 43.28125 58.90625 
Q 39.453125 66.40625 31.78125 66.40625 
z
M 31.78125 74.21875 
Q 44.046875 74.21875 50.515625 64.515625 
Q 56.984375 54.828125 56.984375 36.375 
Q 56.984375 17.96875 50.515625 8.265625 
Q 44.046875 -1.421875 31.78125 -1.421875 
Q 19.53125 -1.421875 13.0625 8.265625 
Q 6.59375 17.96875 6.59375 36.375 
Q 6.59375 54.828125 13.0625 64.515625 
Q 19.53125 74.21875 31.78125 74.21875 
z
" id="DejaVuSans-48"/>
      </defs>
      <g transform="translate(167.48225 319.897812)scale(0.14 -0.14)">
       <use xlink:href="#DejaVuSans-48"/>
      </g>
     </g>
    </g>
    <g id="xtick_3">
     <g id="line2d_3">
      <g>
       <use style="stroke:#000000;stroke-width:1.5;" x="235.008" xlink:href="#mdde85412ce" y="293.76"/>
      </g>
     </g>
     <g id="text_3">
      <!-- 1 -->
      <g transform="translate(230.55425 319.897812)scale(0.14 -0.14)">
       <use xlink:href="#DejaVuSans-49"/>
      </g>
     </g>
    </g>
    <g id="xtick_4">
     <g id="line2d_4">
      <g>
       <use style="stroke:#000000;stroke-width:1.5;" x="298.08" xlink:href="#mdde85412ce" y="293.76"/>
      </g>
     </g>
     <g id="text_4">
      <!-- 2 -->
      <defs>
       <path d="M 19.1875 8.296875 
L 53.609375 8.296875 
L 53.609375 0 
L 7.328125 0 
L 7.328125 8.296875 
Q 12.9375 14.109375 22.625 23.890625 
Q 32.328125 33.6875 34.8125 36.53125 
Q 39.546875 41.84375 41.421875 45.53125 
Q 43.3125 49.21875 43.3125 52.78125 
Q 43.3125 58.59375 39.234375 62.25 
Q 35.15625 65.921875 28.609375 65.921875 
Q 23.96875 65.921875 18.8125 64.3125 
Q 13.671875 62.703125 7.8125 59.421875 
L 7.8125 69.390625 
Q 13.765625 71.78125 18.9375 73 
Q 24.125 74.21875 28.421875 74.21875 
Q 39.75 74.21875 46.484375 68.546875 
Q 53.21875 62.890625 53.21875 53.421875 
Q 53.21875 48.921875 51.53125 44.890625 
Q 49.859375 40.875 45.40625 35.40625 
Q 44.1875 33.984375 37.640625 27.21875 
Q 31.109375 20.453125 19.1875 8.296875 
z
" id="DejaVuSans-50"/>
      </defs>
      <g transform="translate(293.62625 319.897812)scale(0.14 -0.14)">
       <use xlink:href="#DejaVuSans-50"/>
      </g>
     </g>
    </g>
    <g id="xtick_5">
     <g id="line2d_5">
      <g>
       <use style="stroke:#000000;stroke-width:1.5;" x="361.152" xlink:href="#mdde85412ce" y="293.76"/>
      </g>
     </g>
     <g id="text_5">
      <!-- 3 -->
      <defs>
       <path d="M 40.578125 39.3125 
Q 47.65625 37.796875 51.625 33 
Q 55.609375 28.21875 55.609375 21.1875 
Q 55.609375 10.40625 48.1875 4.484375 
Q 40.765625 -1.421875 27.09375 -1.421875 
Q 22.515625 -1.421875 17.65625 -0.515625 
Q 12.796875 0.390625 7.625 2.203125 
L 7.625 11.71875 
Q 11.71875 9.328125 16.59375 8.109375 
Q 21.484375 6.890625 26.8125 6.890625 
Q 36.078125 6.890625 40.9375 10.546875 
Q 45.796875 14.203125 45.796875 21.1875 
Q 45.796875 27.640625 41.28125 31.265625 
Q 36.765625 34.90625 28.71875 34.90625 
L 20.21875 34.90625 
L 20.21875 43.015625 
L 29.109375 43.015625 
Q 36.375 43.015625 40.234375 45.921875 
Q 44.09375 48.828125 44.09375 54.296875 
Q 44.09375 59.90625 40.109375 62.90625 
Q 36.140625 65.921875 28.71875 65.921875 
Q 24.65625 65.921875 20.015625 65.03125 
Q 15.375 64.15625 9.8125 62.3125 
L 9.8125 71.09375 
Q 15.4375 72.65625 20.34375 73.4375 
Q 25.25 74.21875 29.59375 74.21875 
Q 40.828125 74.21875 47.359375 69.109375 
Q 53.90625 64.015625 53.90625 55.328125 
Q 53.90625 49.265625 50.4375 45.09375 
Q 46.96875 40.921875 40.578125 39.3125 
z
" id="DejaVuSans-51"/>
      </defs>
      <g transform="translate(356.69825 319.897812)scale(0.14 -0.14)">
       <use xlink:href="#DejaVuSans-51"/>
      </g>
     </g>
    </g>
   </g>
   <g id="matplotlib.axis_2">
    <g id="ytick_1">
     <g id="line2d_6">
      <defs>
       <path d="M 0 0 
L -12 0 
" id="mf3429389ba" style="stroke:#000000;stroke-width:1.5;"/>
      </defs>
      <g>
       <use style="stroke:#000000;stroke-width:1.5;" x="108.864" xlink:href="#mf3429389ba" y="293.76"/>
      </g>
     </g>
     <g id="text_6">
      <!-- −2.0 -->
      <defs>
       <path d="M 10.6875 12.40625 
L 21 12.40625 
L 21 0 
L 10.6875 0 
z
" id="DejaVuSans-46"/>
      </defs>
      <g transform="translate(59.368063 299.078906)scale(0.14 -0.14)">
       <use xlink:href="#DejaVuSans-8722"/>
       <use x="83.789062" xlink:href="#DejaVuSans-50"/>
       <use x="147.412109" xlink:href="#DejaVuSans-46"/>
       <use x="179.199219" xlink:href="#DejaVuSans-48"/>
      </g>
     </g>
    </g>
    <g id="ytick_2">
     <g id="line2d_7">
      <g>
       <use style="stroke:#000000;stroke-width:1.5;" x="108.864" xlink:href="#mf3429389ba" y="262.224"/>
      </g>
     </g>
     <g id="text_7">
      <!-- −1.5 -->
      <defs>
       <path d="M 10.796875 72.90625 
L 49.515625 72.90625 
L 49.515625 64.59375 
L 19.828125 64.59375 
L 19.828125 46.734375 
Q 21.96875 47.46875 24.109375 47.828125 
Q 26.265625 48.1875 28.421875 48.1875 
Q 40.625 48.1875 47.75 41.5 
Q 54.890625 34.8125 54.890625 23.390625 
Q 54.890625 11.625 47.5625 5.09375 
Q 40.234375 -1.421875 26.90625 -1.421875 
Q 22.3125 -1.421875 17.546875 -0.640625 
Q 12.796875 0.140625 7.71875 1.703125 
L 7.71875 11.625 
Q 12.109375 9.234375 16.796875 8.0625 
Q 21.484375 6.890625 26.703125 6.890625 
Q 35.15625 6.890625 40.078125 11.328125 
Q 45.015625 15.765625 45.015625 23.390625 
Q 45.015625 31 40.078125 35.4375 
Q 35.15625 39.890625 26.703125 39.890625 
Q 22.75 39.890625 18.8125 39.015625 
Q 14.890625 38.140625 10.796875 36.28125 
z
" id="DejaVuSans-53"/>
      </defs>
      <g transform="translate(59.368063 267.542906)scale(0.14 -0.14)">
       <use xlink:href="#DejaVuSans-8722"/>
       <use x="83.789062" xlink:href="#DejaVuSans-49"/>
       <use x="147.412109" xlink:href="#DejaVuSans-46"/>
       <use x="179.199219" xlink:href="#DejaVuSans-53"/>
      </g>
     </g>
    </g>
    <g id="ytick_3">
     <g id="line2d_8">
      <g>
       <use style="stroke:#000000;stroke-width:1.5;" x="108.864" xlink:href="#mf3429389ba" y="230.688"/>
      </g>
     </g>
     <g id="text_8">
      <!-- −1.0 -->
      <g transform="translate(59.368063 236.006906)scale(0.14 -0.14)">
       <use xlink:href="#DejaVuSans-8722"/>
       <use x="83.789062" xlink:href="#DejaVuSans-49"/>
       <use x="147.412109" xlink:href="#DejaVuSans-46"/>
       <use x="179.199219" xlink:href="#DejaVuSans-48"/>
      </g>
     </g>
    </g>
    <g id="ytick_4">
     <g id="line2d_9">
      <g>
       <use style="stroke:#000000;stroke-width:1.5;" x="108.864" xlink:href="#mf3429389ba" y="199.152"/>
      </g>
     </g>
     <g id="text_9">
      <!-- −0.5 -->
      <g transform="translate(59.368063 204.470906)scale(0.14 -0.14)">
       <use xlink:href="#DejaVuSans-8722"/>
       <use x="83.789062" xlink:href="#DejaVuSans-48"/>
       <use x="147.412109" xlink:href="#DejaVuSans-46"/>
       <use x="179.199219" xlink:href="#DejaVuSans-53"/>
      </g>
     </g>
    </g>
    <g id="ytick_5">
     <g id="line2d_10">
      <g>
       <use style="stroke:#000000;stroke-width:1.5;" x="108.864" xlink:href="#mf3429389ba" y="167.616"/>
      </g>
     </g>
     <g id="text_10">
      <!-- 0.0 -->
      <g transform="translate(71.099625 172.934906)scale(0.14 -0.14)">
       <use xlink:href="#DejaVuSans-48"/>
       <use x="63.623047" xlink:href="#DejaVuSans-46"/>
       <use x="95.410156" xlink:href="#DejaVuSans-48"/>
      </g>
     </g>
    </g>
    <g id="ytick_6">
     <g id="line2d_11">
      <g>
       <use style="stroke:#000000;stroke-width:1.5;" x="108.864" xlink:href="#mf3429389ba" y="136.08"/>
      </g>
     </g>
     <g id="text_11">
      <!-- 0.5 -->
      <g transform="translate(71.099625 141.398906)scale(0.14 -0.14)">
       <use xlink:href="#DejaVuSans-48"/>
       <use x="63.623047" xlink:href="#DejaVuSans-46"/>
       <use x="95.410156" xlink:href="#DejaVuSans-53"/>
      </g>
     </g>
    </g>
    <g id="ytick_7">
     <g id="line2d_12">
      <g>
       <use style="stroke:#000000;stroke-width:1.5;" x="108.864" xlink:href="#mf3429389ba" y="104.544"/>
      </g>
     </g>
     <g id="text_12">
      <!-- 1.0 -->
      <g transform="translate(71.099625 109.862906)scale(0.14 -0.14)">
       <use xlink:href="#DejaVuSans-49"/>
       <use x="63.623047" xlink:href="#DejaVuSans-46"/>
       <use x="95.410156" xlink:href="#DejaVuSans-48"/>
      </g>
     </g>
    </g>
    <g id="ytick_8">
     <g id="line2d_13">
      <g>
       <use style="stroke:#000000;stroke-width:1.5;" x="108.864" xlink:href="#mf3429389ba" y="73.008"/>
      </g>
     </g>
     <g id="text_13">
      <!-- 1.5 -->
      <g transform="translate(71.099625 78.326906)scale(0.14 -0.14)">
       <use xlink:href="#DejaVuSans-49"/>
       <use x="63.623047" xlink:href="#DejaVuSans-46"/>
       <use x="95.410156" xlink:href="#DejaVuSans-53"/>
      </g>
     </g>
    </g>
    <g id="ytick_9">
     <g id="line2d_14">
      <g>
       <use style="stroke:#000000;stroke-width:1.5;" x="108.864" xlink:href="#mf3429389ba" y="41.472"/>
      </g>
     </g>
     <g id="text_14">
      <!-- 2.0 -->
      <g transform="translate(71.099625 46.790906)scale(0.14 -0.14)">
       <use xlink:href="#DejaVuSans-50"/>
       <use x="63.623047" xlink:href="#DejaVuSans-46"/>
       <use x="95.410156" xlink:href="#DejaVuSans-48"/>
      </g>
     </g>
    </g>
   </g>
   <g id="line2d_15">
    <path clip-path="url(#p9b726226af)" d="M 298.08 167.616 
L 297.899965 162.116294 
L 297.360889 156.642744 
L 296.465847 151.221335 
L 295.219941 145.877715 
L 293.630264 140.637031 
L 291.705851 135.523765 
L 289.457614 130.561577 
L 286.898271 125.773155 
L 284.042249 121.180071 
L 280.905595 116.802643 
L 277.505854 112.659813 
L 273.861954 108.769023 
L 269.994075 105.146117 
L 265.923505 101.805241 
L 261.672499 98.758762 
L 257.264124 96.017203 
L 252.7221 93.589178 
L 248.070639 91.481361 
L 243.334282 89.698448 
L 238.537731 88.243148 
L 233.705683 87.116181 
L 228.862666 86.316296 
L 224.032871 85.840292 
L 219.24 85.683069 
L 214.507102 85.837674 
L 209.856429 86.295378 
L 205.30929 87.045751 
L 200.885917 88.076757 
L 196.605337 89.374858 
L 192.485258 90.925126 
L 188.541957 92.711369 
L 184.790191 94.716258 
L 181.243111 96.921472 
L 177.91219 99.307839 
L 174.807166 101.855487 
L 171.936 104.544 
L 169.304842 107.352574 
L 166.918016 110.260177 
L 164.778015 113.245707 
L 162.885516 116.288153 
L 161.239398 119.366748 
L 159.836788 122.461126 
L 158.673105 125.551471 
L 157.742128 128.618657 
L 157.036071 131.64439 
L 156.545671 134.611333 
L 156.260285 137.503232 
L 156.168 140.305023 
L 156.25575 143.002937 
L 156.50944 145.584589 
L 156.914082 148.039055 
L 157.453931 150.356942 
L 158.112631 152.53044 
L 158.873361 154.553361 
L 159.718987 156.42117 
L 160.632214 158.130997 
L 161.595736 159.681636 
L 163.605304 162.308761 
L 165.614759 164.32537 
L 167.50039 165.77871 
L 169.151943 166.73819 
L 170.476381 167.29241 
L 171.876027 167.613382 
L 171.936 167.616 
L 171.401027 167.686431 
L 170.476381 167.93959 
L 169.151943 168.49381 
L 167.50039 169.45329 
L 165.614759 170.90663 
L 163.605304 172.923239 
L 162.59239 174.158467 
L 161.595736 175.550364 
L 160.632214 177.101003 
L 159.718987 178.81083 
L 158.873361 180.678639 
L 158.112631 182.70156 
L 157.453931 184.875058 
L 156.914082 187.192945 
L 156.50944 189.647411 
L 156.25575 192.229063 
L 156.168 194.926977 
L 156.260285 197.728768 
L 156.545671 200.620667 
L 157.036071 203.58761 
L 157.742128 206.613343 
L 158.673105 209.680529 
L 159.836788 212.770874 
L 161.239398 215.865252 
L 162.885516 218.943847 
L 164.778015 221.986293 
L 166.918016 224.971823 
L 169.304842 227.879426 
L 171.936 230.688 
L 174.807166 233.376513 
L 177.91219 235.924161 
L 181.243111 238.310528 
L 184.790191 240.515742 
L 188.541957 242.520631 
L 192.485258 244.306874 
L 196.605337 245.857142 
L 200.885917 247.155243 
L 205.30929 248.186249 
L 209.856429 248.936622 
L 214.507102 249.394326 
L 219.24 249.548931 
L 224.032871 249.391708 
L 228.862666 248.915704 
L 233.705683 248.115819 
L 238.537731 246.988852 
L 243.334282 245.533552 
L 248.070639 243.750639 
L 252.7221 241.642822 
L 257.264124 239.214797 
L 261.672499 236.473238 
L 265.923505 233.426759 
L 269.994075 230.085883 
L 273.861954 226.462977 
L 277.505854 222.572187 
L 280.905595 218.429357 
L 284.042249 214.051929 
L 286.898271 209.458845 
L 289.457614 204.670423 
L 291.705851 199.708235 
L 293.630264 194.594969 
L 295.219941 189.354285 
L 296.465847 184.010665 
L 297.360889 178.589256 
L 297.899965 173.115706 
L 298.08 167.616 
L 298.08 167.616 
" style="fill:none;stroke:#1f77b4;stroke-linecap:square;stroke-width:1.5;"/>
   </g>
   <g id="line2d_16">
    <path clip-path="url(#p9b726226af)" d="M 266.544 167.616 
L 266.393981 163.491875 
L 265.944893 159.391288 
L 265.199642 155.337609 
L 264.163044 151.353884 
L 262.841793 147.462671 
L 261.244414 143.685883 
L 259.381197 140.044635 
L 257.264124 136.559103 
L 254.906784 133.248376 
L 252.324272 130.130333 
L 249.53308 127.221517 
L 246.550977 124.537023 
L 243.396882 122.090397 
L 240.090726 119.893547 
L 236.653308 117.956663 
L 233.106146 116.288153 
L 229.471322 114.894591 
L 225.771319 113.780681 
L 222.028869 112.949226 
L 218.266781 112.401125 
L 214.507783 112.135372 
L 210.774359 112.149075 
L 207.088591 112.437485 
L 203.472 112.994046 
L 199.945398 113.810447 
L 196.528739 114.8767 
L 193.240985 116.181216 
L 190.09997 117.710903 
L 187.122279 119.451276 
L 184.32314 121.386563 
L 181.716317 123.49984 
L 179.314022 125.773155 
L 177.126837 128.187677 
L 175.163646 130.723835 
L 173.431585 133.361472 
L 171.936 136.08 
L 170.680423 138.858559 
L 169.666559 141.676173 
L 168.894289 144.511912 
L 168.361685 147.34505 
L 168.065038 150.155219 
L 167.998905 152.922563 
L 168.156163 155.627889 
L 168.528075 158.252804 
L 169.104376 160.779855 
L 169.87336 163.192655 
L 170.821989 165.476005 
L 171.936 167.616 
L 173.20003 169.60013 
L 174.597746 171.417368 
L 176.111982 173.058246 
L 177.724881 174.51492 
L 179.418044 175.781218 
L 181.172681 176.852681 
L 182.969765 177.726583 
L 184.790191 178.401947 
L 186.614926 178.879536 
L 188.425168 179.16184 
L 190.202497 179.253042 
L 191.929023 179.158977 
L 193.587533 178.887075 
L 195.161628 178.446288 
L 196.635855 177.847015 
L 197.995831 177.101003 
L 199.228361 176.221248 
L 200.32154 175.221883 
L 201.264851 174.11805 
L 202.049249 172.925778 
L 202.667232 171.661843 
L 203.112901 170.343625 
L 203.382011 168.988963 
L 203.472 167.616 
L 203.382011 166.243037 
L 203.112901 164.888375 
L 202.667232 163.570157 
L 202.049249 162.306222 
L 201.264851 161.11395 
L 200.32154 160.010117 
L 199.228361 159.010752 
L 197.995831 158.130997 
L 196.635855 157.384985 
L 195.161628 156.785712 
L 193.587533 156.344925 
L 191.929023 156.073023 
L 190.202497 155.978958 
L 188.425168 156.07016 
L 186.614926 156.352464 
L 184.790191 156.830053 
L 182.969765 157.505417 
L 181.172681 158.379319 
L 179.418044 159.450782 
L 177.724881 160.71708 
L 176.111982 162.173754 
L 174.597746 163.814632 
L 173.20003 165.63187 
L 171.936 167.616 
L 170.821989 169.755995 
L 169.87336 172.039345 
L 169.104376 174.452145 
L 168.528075 176.979196 
L 168.156163 179.604111 
L 167.998905 182.309437 
L 168.065038 185.076781 
L 168.361685 187.88695 
L 168.894289 190.720088 
L 169.666559 193.555827 
L 170.680423 196.373441 
L 171.936 199.152 
L 173.431585 201.870528 
L 175.163646 204.508165 
L 177.126837 207.044323 
L 179.314022 209.458845 
L 181.716317 211.73216 
L 184.32314 213.845437 
L 187.122279 215.780724 
L 190.09997 217.521097 
L 193.240985 219.050784 
L 196.528739 220.3553 
L 199.945398 221.421553 
L 203.472 222.237954 
L 207.088591 222.794515 
L 210.774359 223.082925 
L 214.507783 223.096628 
L 218.266781 222.830875 
L 222.028869 222.282774 
L 225.771319 221.451319 
L 229.471322 220.337409 
L 233.106146 218.943847 
L 236.653308 217.275337 
L 240.090726 215.338453 
L 243.396882 213.141603 
L 246.550977 210.694977 
L 249.53308 208.010483 
L 252.324272 205.101667 
L 254.906784 201.983624 
L 257.264124 198.672897 
L 259.381197 195.187365 
L 261.244414 191.546117 
L 262.841793 187.769329 
L 264.163044 183.878116 
L 265.199642 179.894391 
L 265.944893 175.840712 
L 266.393981 171.740125 
L 266.544 167.616 
L 266.544 167.616 
" style="fill:none;stroke:#ff7f0e;stroke-linecap:square;stroke-width:1.5;"/>
   </g>
   <g id="line2d_17">
    <path clip-path="url(#p9b726226af)" d="M 108.864 167.616 
L 361.152 167.616 
" style="fill:none;stroke:#000000;stroke-linecap:square;stroke-width:0.5;"/>
   </g>
   <g id="line2d_18">
    <path clip-path="url(#p9b726226af)" d="M 171.936 293.76 
L 171.936 41.472 
" style="fill:none;stroke:#000000;stroke-linecap:square;stroke-width:0.5;"/>
   </g>
   <g id="patch_3">
    <path d="M 108.864 293.76 
L 108.864 41.472 
" style="fill:none;stroke:#000000;stroke-linecap:square;stroke-linejoin:miter;stroke-width:1.5;"/>
   </g>
   <g id="patch_4">
    <path d="M 361.152 293.76 
L 361.152 41.472 
" style="fill:none;stroke:#000000;stroke-linecap:square;stroke-linejoin:miter;stroke-width:1.5;"/>
   </g>
   <g id="patch_5">
    <path d="M 108.864 293.76 
L 361.152 293.76 
" style="fill:none;stroke:#000000;stroke-linecap:square;stroke-linejoin:miter;stroke-width:1.5;"/>
   </g>
   <g id="patch_6">
    <path d="M 108.864 41.472 
L 361.152 41.472 
" style="fill:none;stroke:#000000;stroke-linecap:square;stroke-linejoin:miter;stroke-width:1.5;"/>
   </g>
   <g id="legend_1">
    <g id="patch_7">
     <path d="M 291.889187 93.77075 
L 351.352 93.77075 
Q 354.152 93.77075 354.152 90.97075 
L 354.152 51.272 
Q 354.152 48.472 351.352 48.472 
L 291.889187 48.472 
Q 289.089187 48.472 289.089187 51.272 
L 289.089187 90.97075 
Q 289.089187 93.77075 291.889187 93.77075 
z
" style="fill:none;opacity:0;"/>
    </g>
    <g id="line2d_19">
     <path d="M 294.689188 59.809812 
L 322.689188 59.809812 
" style="fill:none;stroke:#1f77b4;stroke-linecap:square;stroke-width:1.5;"/>
    </g>
    <g id="line2d_20"/>
    <g id="text_15">
     <!-- r4 -->
     <defs>
      <path d="M 41.109375 46.296875 
Q 39.59375 47.171875 37.8125 47.578125 
Q 36.03125 48 33.890625 48 
Q 26.265625 48 22.1875 43.046875 
Q 18.109375 38.09375 18.109375 28.8125 
L 18.109375 0 
L 9.078125 0 
L 9.078125 54.6875 
L 18.109375 54.6875 
L 18.109375 46.1875 
Q 20.953125 51.171875 25.484375 53.578125 
Q 30.03125 56 36.53125 56 
Q 37.453125 56 38.578125 55.875 
Q 39.703125 55.765625 41.0625 55.515625 
z
" id="DejaVuSans-114"/>
      <path d="M 37.796875 64.3125 
L 12.890625 25.390625 
L 37.796875 25.390625 
z
M 35.203125 72.90625 
L 47.609375 72.90625 
L 47.609375 25.390625 
L 58.015625 25.390625 
L 58.015625 17.1875 
L 47.609375 17.1875 
L 47.609375 0 
L 37.796875 0 
L 37.796875 17.1875 
L 4.890625 17.1875 
L 4.890625 26.703125 
z
" id="DejaVuSans-52"/>
     </defs>
     <g transform="translate(333.889187 64.709812)scale(0.14 -0.14)">
      <use xlink:href="#DejaVuSans-114"/>
      <use x="41.113281" xlink:href="#DejaVuSans-52"/>
     </g>
    </g>
    <g id="line2d_21">
     <path d="M 294.689188 80.359187 
L 322.689188 80.359187 
" style="fill:none;stroke:#ff7f0e;stroke-linecap:square;stroke-width:1.5;"/>
    </g>
    <g id="line2d_22"/>
    <g id="text_16">
     <!-- r5 -->
     <g transform="translate(333.889187 85.259187)scale(0.14 -0.14)">
      <use xlink:href="#DejaVuSans-114"/>
      <use x="41.113281" xlink:href="#DejaVuSans-53"/>
     </g>
    </g>
   </g>
  </g>
 </g>
 <defs>
  <clipPath id="p9b726226af">
   <rect height="252.288" width="252.288" x="108.864" y="41.472"/>
  </clipPath>
 </defs>
</svg>
