<?xml version="1.0" encoding="utf-8" standalone="no"?>
<!DOCTYPE svg PUBLIC "-//W3C//DTD SVG 1.1//EN"
  "http://www.w3.org/Graphics/SVG/1.1/DTD/svg11.dtd">
<!-- Created with matplotlib (https://matplotlib.org/) -->
<svg height="345.6pt" version="1.1" viewBox="0 0 460.8 345.6" width="460.8pt" xmlns="http://www.w3.org/2000/svg" xmlns:xlink="http://www.w3.org/1999/xlink">
 <defs>
  <style type="text/css">
*{stroke-linecap:butt;stroke-linejoin:round;}
  </style>
 </defs>
 <g id="figure_1">
  <g id="patch_1">
   <path d="M 0 345.6 
L 460.8 345.6 
L 460.8 0 
L 0 0 
z
" style="fill:#ffffff;"/>
  </g>
  <g id="axes_1">
   <g id="patch_2">
    <path d="M 108.864 293.76 
L 361.152 293.76 
L 361.152 41.472 
L 108.864 41.472 
z
" style="fill:#ffffff;"/>
   </g>
   <g id="matplotlib.axis_1">
    <g id="xtick_1">
     <g id="line2d_1">
      <defs>
       <path d="M 0 0 
L 0 12 
" id="m748a6af1fa" style="stroke:#000000;stroke-width:1.5;"/>
      </defs>
      <g>
       <use style="stroke:#000000;stroke-width:1.5;" x="108.864" xlink:href="#m748a6af1fa" y="293.76"/>
      </g>
     </g>
     <g id="text_1">
      <!-- −1.5 -->
      <defs>
       <path d="M 10.59375 35.5 
L 73.1875 35.5 
L 73.1875 27.203125 
L 10.59375 27.203125 
z
" id="DejaVuSans-8722"/>
       <path d="M 12.40625 8.296875 
L 28.515625 8.296875 
L 28.515625 63.921875 
L 10.984375 60.40625 
L 10.984375 69.390625 
L 28.421875 72.90625 
L 38.28125 72.90625 
L 38.28125 8.296875 
L 54.390625 8.296875 
L 54.390625 0 
L 12.40625 0 
z
" id="DejaVuSans-49"/>
       <path d="M 10.6875 12.40625 
L 21 12.40625 
L 21 0 
L 10.6875 0 
z
" id="DejaVuSans-46"/>
       <path d="M 10.796875 72.90625 
L 49.515625 72.90625 
L 49.515625 64.59375 
L 19.828125 64.59375 
L 19.828125 46.734375 
Q 21.96875 47.46875 24.109375 47.828125 
Q 26.265625 48.1875 28.421875 48.1875 
Q 40.625 48.1875 47.75 41.5 
Q 54.890625 34.8125 54.890625 23.390625 
Q 54.890625 11.625 47.5625 5.09375 
Q 40.234375 -1.421875 26.90625 -1.421875 
Q 22.3125 -1.421875 17.546875 -0.640625 
Q 12.796875 0.140625 7.71875 1.703125 
L 7.71875 11.625 
Q 12.109375 9.234375 16.796875 8.0625 
Q 21.484375 6.890625 26.703125 6.890625 
Q 35.15625 6.890625 40.078125 11.328125 
Q 45.015625 15.765625 45.015625 23.390625 
Q 45.015625 31 40.078125 35.4375 
Q 35.15625 39.890625 26.703125 39.890625 
Q 22.75 39.890625 18.8125 39.015625 
Q 14.890625 38.140625 10.796875 36.28125 
z
" id="DejaVuSans-53"/>
      </defs>
      <g transform="translate(91.866031 319.897812)scale(0.14 -0.14)">
       <use xlink:href="#DejaVuSans-8722"/>
       <use x="83.789062" xlink:href="#DejaVuSans-49"/>
       <use x="147.412109" xlink:href="#DejaVuSans-46"/>
       <use x="179.199219" xlink:href="#DejaVuSans-53"/>
      </g>
     </g>
    </g>
    <g id="xtick_2">
     <g id="line2d_2">
      <g>
       <use style="stroke:#000000;stroke-width:1.5;" x="150.912" xlink:href="#m748a6af1fa" y="293.76"/>
      </g>
     </g>
     <g id="text_2">
      <!-- −1.0 -->
      <defs>
       <path d="M 31.78125 66.40625 
Q 24.171875 66.40625 20.328125 58.90625 
Q 16.5 51.421875 16.5 36.375 
Q 16.5 21.390625 20.328125 13.890625 
Q 24.171875 6.390625 31.78125 6.390625 
Q 39.453125 6.390625 43.28125 13.890625 
Q 47.125 21.390625 47.125 36.375 
Q 47.125 51.421875 43.28125 58.90625 
Q 39.453125 66.40625 31.78125 66.40625 
z
M 31.78125 74.21875 
Q 44.046875 74.21875 50.515625 64.515625 
Q 56.984375 54.828125 56.984375 36.375 
Q 56.984375 17.96875 50.515625 8.265625 
Q 44.046875 -1.421875 31.78125 -1.421875 
Q 19.53125 -1.421875 13.0625 8.265625 
Q 6.59375 17.96875 6.59375 36.375 
Q 6.59375 54.828125 13.0625 64.515625 
Q 19.53125 74.21875 31.78125 74.21875 
z
" id="DejaVuSans-48"/>
      </defs>
      <g transform="translate(133.914031 319.897812)scale(0.14 -0.14)">
       <use xlink:href="#DejaVuSans-8722"/>
       <use x="83.789062" xlink:href="#DejaVuSans-49"/>
       <use x="147.412109" xlink:href="#DejaVuSans-46"/>
       <use x="179.199219" xlink:href="#DejaVuSans-48"/>
      </g>
     </g>
    </g>
    <g id="xtick_3">
     <g id="line2d_3">
      <g>
       <use style="stroke:#000000;stroke-width:1.5;" x="192.96" xlink:href="#m748a6af1fa" y="293.76"/>
      </g>
     </g>
     <g id="text_3">
      <!-- −0.5 -->
      <g transform="translate(175.962031 319.897812)scale(0.14 -0.14)">
       <use xlink:href="#DejaVuSans-8722"/>
       <use x="83.789062" xlink:href="#DejaVuSans-48"/>
       <use x="147.412109" xlink:href="#DejaVuSans-46"/>
       <use x="179.199219" xlink:href="#DejaVuSans-53"/>
      </g>
     </g>
    </g>
    <g id="xtick_4">
     <g id="line2d_4">
      <g>
       <use style="stroke:#000000;stroke-width:1.5;" x="235.008" xlink:href="#m748a6af1fa" y="293.76"/>
      </g>
     </g>
     <g id="text_4">
      <!-- 0.0 -->
      <g transform="translate(223.875812 319.897812)scale(0.14 -0.14)">
       <use xlink:href="#DejaVuSans-48"/>
       <use x="63.623047" xlink:href="#DejaVuSans-46"/>
       <use x="95.410156" xlink:href="#DejaVuSans-48"/>
      </g>
     </g>
    </g>
    <g id="xtick_5">
     <g id="line2d_5">
      <g>
       <use style="stroke:#000000;stroke-width:1.5;" x="277.056" xlink:href="#m748a6af1fa" y="293.76"/>
      </g>
     </g>
     <g id="text_5">
      <!-- 0.5 -->
      <g transform="translate(265.923812 319.897812)scale(0.14 -0.14)">
       <use xlink:href="#DejaVuSans-48"/>
       <use x="63.623047" xlink:href="#DejaVuSans-46"/>
       <use x="95.410156" xlink:href="#DejaVuSans-53"/>
      </g>
     </g>
    </g>
    <g id="xtick_6">
     <g id="line2d_6">
      <g>
       <use style="stroke:#000000;stroke-width:1.5;" x="319.104" xlink:href="#m748a6af1fa" y="293.76"/>
      </g>
     </g>
     <g id="text_6">
      <!-- 1.0 -->
      <g transform="translate(307.971812 319.897812)scale(0.14 -0.14)">
       <use xlink:href="#DejaVuSans-49"/>
       <use x="63.623047" xlink:href="#DejaVuSans-46"/>
       <use x="95.410156" xlink:href="#DejaVuSans-48"/>
      </g>
     </g>
    </g>
    <g id="xtick_7">
     <g id="line2d_7">
      <g>
       <use style="stroke:#000000;stroke-width:1.5;" x="361.152" xlink:href="#m748a6af1fa" y="293.76"/>
      </g>
     </g>
     <g id="text_7">
      <!-- 1.5 -->
      <g transform="translate(350.019812 319.897812)scale(0.14 -0.14)">
       <use xlink:href="#DejaVuSans-49"/>
       <use x="63.623047" xlink:href="#DejaVuSans-46"/>
       <use x="95.410156" xlink:href="#DejaVuSans-53"/>
      </g>
     </g>
    </g>
   </g>
   <g id="matplotlib.axis_2">
    <g id="ytick_1">
     <g id="line2d_8">
      <defs>
       <path d="M 0 0 
L -12 0 
" id="m49c421de64" style="stroke:#000000;stroke-width:1.5;"/>
      </defs>
      <g>
       <use style="stroke:#000000;stroke-width:1.5;" x="108.864" xlink:href="#m49c421de64" y="293.76"/>
      </g>
     </g>
     <g id="text_8">
      <!-- −1.5 -->
      <g transform="translate(59.368063 299.078906)scale(0.14 -0.14)">
       <use xlink:href="#DejaVuSans-8722"/>
       <use x="83.789062" xlink:href="#DejaVuSans-49"/>
       <use x="147.412109" xlink:href="#DejaVuSans-46"/>
       <use x="179.199219" xlink:href="#DejaVuSans-53"/>
      </g>
     </g>
    </g>
    <g id="ytick_2">
     <g id="line2d_9">
      <g>
       <use style="stroke:#000000;stroke-width:1.5;" x="108.864" xlink:href="#m49c421de64" y="251.712"/>
      </g>
     </g>
     <g id="text_9">
      <!-- −1.0 -->
      <g transform="translate(59.368063 257.030906)scale(0.14 -0.14)">
       <use xlink:href="#DejaVuSans-8722"/>
       <use x="83.789062" xlink:href="#DejaVuSans-49"/>
       <use x="147.412109" xlink:href="#DejaVuSans-46"/>
       <use x="179.199219" xlink:href="#DejaVuSans-48"/>
      </g>
     </g>
    </g>
    <g id="ytick_3">
     <g id="line2d_10">
      <g>
       <use style="stroke:#000000;stroke-width:1.5;" x="108.864" xlink:href="#m49c421de64" y="209.664"/>
      </g>
     </g>
     <g id="text_10">
      <!-- −0.5 -->
      <g transform="translate(59.368063 214.982906)scale(0.14 -0.14)">
       <use xlink:href="#DejaVuSans-8722"/>
       <use x="83.789062" xlink:href="#DejaVuSans-48"/>
       <use x="147.412109" xlink:href="#DejaVuSans-46"/>
       <use x="179.199219" xlink:href="#DejaVuSans-53"/>
      </g>
     </g>
    </g>
    <g id="ytick_4">
     <g id="line2d_11">
      <g>
       <use style="stroke:#000000;stroke-width:1.5;" x="108.864" xlink:href="#m49c421de64" y="167.616"/>
      </g>
     </g>
     <g id="text_11">
      <!-- 0.0 -->
      <g transform="translate(71.099625 172.934906)scale(0.14 -0.14)">
       <use xlink:href="#DejaVuSans-48"/>
       <use x="63.623047" xlink:href="#DejaVuSans-46"/>
       <use x="95.410156" xlink:href="#DejaVuSans-48"/>
      </g>
     </g>
    </g>
    <g id="ytick_5">
     <g id="line2d_12">
      <g>
       <use style="stroke:#000000;stroke-width:1.5;" x="108.864" xlink:href="#m49c421de64" y="125.568"/>
      </g>
     </g>
     <g id="text_12">
      <!-- 0.5 -->
      <g transform="translate(71.099625 130.886906)scale(0.14 -0.14)">
       <use xlink:href="#DejaVuSans-48"/>
       <use x="63.623047" xlink:href="#DejaVuSans-46"/>
       <use x="95.410156" xlink:href="#DejaVuSans-53"/>
      </g>
     </g>
    </g>
    <g id="ytick_6">
     <g id="line2d_13">
      <g>
       <use style="stroke:#000000;stroke-width:1.5;" x="108.864" xlink:href="#m49c421de64" y="83.52"/>
      </g>
     </g>
     <g id="text_13">
      <!-- 1.0 -->
      <g transform="translate(71.099625 88.838906)scale(0.14 -0.14)">
       <use xlink:href="#DejaVuSans-49"/>
       <use x="63.623047" xlink:href="#DejaVuSans-46"/>
       <use x="95.410156" xlink:href="#DejaVuSans-48"/>
      </g>
     </g>
    </g>
    <g id="ytick_7">
     <g id="line2d_14">
      <g>
       <use style="stroke:#000000;stroke-width:1.5;" x="108.864" xlink:href="#m49c421de64" y="41.472"/>
      </g>
     </g>
     <g id="text_14">
      <!-- 1.5 -->
      <g transform="translate(71.099625 46.790906)scale(0.14 -0.14)">
       <use xlink:href="#DejaVuSans-49"/>
       <use x="63.623047" xlink:href="#DejaVuSans-46"/>
       <use x="95.410156" xlink:href="#DejaVuSans-53"/>
      </g>
     </g>
    </g>
   </g>
   <g id="line2d_15">
    <path clip-path="url(#p3df9708269)" d="M 319.104 167.616 
L 317.511244 153.068452 
L 312.831833 139.290441 
L 305.355675 127.000751 
L 295.544195 116.820101 
L 283.999253 109.230498 
L 271.422636 104.544 
L 258.568882 102.883009 
L 246.194637 104.17343 
L 235.008 108.151148 
L 225.621297 114.381363 
L 218.510493 122.289472 
L 213.984 131.201364 
L 212.163004 140.390393 
L 212.974627 149.127805 
L 216.158397 156.733177 
L 221.285559 162.62144 
L 227.789901 166.343254 
L 235.008 167.616 
L 242.226099 166.343254 
L 248.730441 162.62144 
L 253.857603 156.733177 
L 257.041373 149.127805 
L 257.852996 140.390393 
L 256.032 131.201364 
L 251.505507 122.289472 
L 244.394703 114.381363 
L 235.008 108.151148 
L 223.821363 104.17343 
L 211.447118 102.883009 
L 198.593364 104.544 
L 186.016747 109.230498 
L 174.471805 116.820101 
L 164.660325 127.000751 
L 157.184167 139.290441 
L 152.504756 153.068452 
L 150.912 167.616 
L 152.504756 182.163548 
L 157.184167 195.941559 
L 164.660325 208.231249 
L 174.471805 218.411899 
L 186.016747 226.001502 
L 198.593364 230.688 
L 211.447118 232.348991 
L 223.821363 231.05857 
L 235.008 227.080852 
L 244.394703 220.850637 
L 251.505507 212.942528 
L 256.032 204.030636 
L 257.852996 194.841607 
L 257.041373 186.104195 
L 253.857603 178.498823 
L 248.730441 172.61056 
L 242.226099 168.888746 
L 235.008 167.616 
L 227.789901 168.888746 
L 221.285559 172.61056 
L 216.158397 178.498823 
L 212.974627 186.104195 
L 212.163004 194.841607 
L 213.984 204.030636 
L 218.510493 212.942528 
L 225.621297 220.850637 
L 235.008 227.080852 
L 246.194637 231.05857 
L 258.568882 232.348991 
L 271.422636 230.688 
L 283.999253 226.001502 
L 295.544195 218.411899 
L 305.355675 208.231249 
L 312.831833 195.941559 
L 317.511244 182.163548 
L 319.104 167.616 
" style="fill:none;stroke:#1f77b4;stroke-linecap:square;stroke-width:1.5;"/>
   </g>
   <g id="line2d_16">
    <defs>
     <path d="M 0 1.5 
C 0.397805 1.5 0.77937 1.341951 1.06066 1.06066 
C 1.341951 0.77937 1.5 0.397805 1.5 0 
C 1.5 -0.397805 1.341951 -0.77937 1.06066 -1.06066 
C 0.77937 -1.341951 0.397805 -1.5 0 -1.5 
C -0.397805 -1.5 -0.77937 -1.341951 -1.06066 -1.06066 
C -1.341951 -0.77937 -1.5 -0.397805 -1.5 0 
C -1.5 0.397805 -1.341951 0.77937 -1.06066 1.06066 
C -0.77937 1.341951 -0.397805 1.5 0 1.5 
z
" id="mb6bd56c606" style="stroke:#ff7f0e;"/>
    </defs>
    <g clip-path="url(#p3df9708269)">
     <use style="fill:#ff7f0e;stroke:#ff7f0e;" x="235.008" xlink:href="#mb6bd56c606" y="167.616"/>
     <use style="fill:#ff7f0e;stroke:#ff7f0e;" x="242.226099" xlink:href="#mb6bd56c606" y="166.343254"/>
     <use style="fill:#ff7f0e;stroke:#ff7f0e;" x="248.730441" xlink:href="#mb6bd56c606" y="162.62144"/>
     <use style="fill:#ff7f0e;stroke:#ff7f0e;" x="253.857603" xlink:href="#mb6bd56c606" y="156.733177"/>
     <use style="fill:#ff7f0e;stroke:#ff7f0e;" x="257.041373" xlink:href="#mb6bd56c606" y="149.127805"/>
     <use style="fill:#ff7f0e;stroke:#ff7f0e;" x="257.852996" xlink:href="#mb6bd56c606" y="140.390393"/>
     <use style="fill:#ff7f0e;stroke:#ff7f0e;" x="256.032" xlink:href="#mb6bd56c606" y="131.201364"/>
     <use style="fill:#ff7f0e;stroke:#ff7f0e;" x="251.505507" xlink:href="#mb6bd56c606" y="122.289472"/>
     <use style="fill:#ff7f0e;stroke:#ff7f0e;" x="244.394703" xlink:href="#mb6bd56c606" y="114.381363"/>
     <use style="fill:#ff7f0e;stroke:#ff7f0e;" x="235.008" xlink:href="#mb6bd56c606" y="108.151148"/>
     <use style="fill:#ff7f0e;stroke:#ff7f0e;" x="223.821363" xlink:href="#mb6bd56c606" y="104.17343"/>
     <use style="fill:#ff7f0e;stroke:#ff7f0e;" x="211.447118" xlink:href="#mb6bd56c606" y="102.883009"/>
     <use style="fill:#ff7f0e;stroke:#ff7f0e;" x="198.593364" xlink:href="#mb6bd56c606" y="104.544"/>
     <use style="fill:#ff7f0e;stroke:#ff7f0e;" x="186.016747" xlink:href="#mb6bd56c606" y="109.230498"/>
     <use style="fill:#ff7f0e;stroke:#ff7f0e;" x="174.471805" xlink:href="#mb6bd56c606" y="116.820101"/>
     <use style="fill:#ff7f0e;stroke:#ff7f0e;" x="164.660325" xlink:href="#mb6bd56c606" y="127.000751"/>
     <use style="fill:#ff7f0e;stroke:#ff7f0e;" x="157.184167" xlink:href="#mb6bd56c606" y="139.290441"/>
     <use style="fill:#ff7f0e;stroke:#ff7f0e;" x="152.504756" xlink:href="#mb6bd56c606" y="153.068452"/>
     <use style="fill:#ff7f0e;stroke:#ff7f0e;" x="150.912" xlink:href="#mb6bd56c606" y="167.616"/>
     <use style="fill:#ff7f0e;stroke:#ff7f0e;" x="152.504756" xlink:href="#mb6bd56c606" y="182.163548"/>
     <use style="fill:#ff7f0e;stroke:#ff7f0e;" x="157.184167" xlink:href="#mb6bd56c606" y="195.941559"/>
     <use style="fill:#ff7f0e;stroke:#ff7f0e;" x="164.660325" xlink:href="#mb6bd56c606" y="208.231249"/>
     <use style="fill:#ff7f0e;stroke:#ff7f0e;" x="174.471805" xlink:href="#mb6bd56c606" y="218.411899"/>
     <use style="fill:#ff7f0e;stroke:#ff7f0e;" x="186.016747" xlink:href="#mb6bd56c606" y="226.001502"/>
     <use style="fill:#ff7f0e;stroke:#ff7f0e;" x="198.593364" xlink:href="#mb6bd56c606" y="230.688"/>
     <use style="fill:#ff7f0e;stroke:#ff7f0e;" x="211.447118" xlink:href="#mb6bd56c606" y="232.348991"/>
     <use style="fill:#ff7f0e;stroke:#ff7f0e;" x="223.821363" xlink:href="#mb6bd56c606" y="231.05857"/>
     <use style="fill:#ff7f0e;stroke:#ff7f0e;" x="235.008" xlink:href="#mb6bd56c606" y="227.080852"/>
     <use style="fill:#ff7f0e;stroke:#ff7f0e;" x="244.394703" xlink:href="#mb6bd56c606" y="220.850637"/>
     <use style="fill:#ff7f0e;stroke:#ff7f0e;" x="251.505507" xlink:href="#mb6bd56c606" y="212.942528"/>
     <use style="fill:#ff7f0e;stroke:#ff7f0e;" x="256.032" xlink:href="#mb6bd56c606" y="204.030636"/>
     <use style="fill:#ff7f0e;stroke:#ff7f0e;" x="257.852996" xlink:href="#mb6bd56c606" y="194.841607"/>
     <use style="fill:#ff7f0e;stroke:#ff7f0e;" x="257.041373" xlink:href="#mb6bd56c606" y="186.104195"/>
     <use style="fill:#ff7f0e;stroke:#ff7f0e;" x="253.857603" xlink:href="#mb6bd56c606" y="178.498823"/>
     <use style="fill:#ff7f0e;stroke:#ff7f0e;" x="248.730441" xlink:href="#mb6bd56c606" y="172.61056"/>
     <use style="fill:#ff7f0e;stroke:#ff7f0e;" x="242.226099" xlink:href="#mb6bd56c606" y="168.888746"/>
     <use style="fill:#ff7f0e;stroke:#ff7f0e;" x="235.008" xlink:href="#mb6bd56c606" y="167.616"/>
     <use style="fill:#ff7f0e;stroke:#ff7f0e;" x="227.789901" xlink:href="#mb6bd56c606" y="168.888746"/>
     <use style="fill:#ff7f0e;stroke:#ff7f0e;" x="221.285559" xlink:href="#mb6bd56c606" y="172.61056"/>
     <use style="fill:#ff7f0e;stroke:#ff7f0e;" x="216.158397" xlink:href="#mb6bd56c606" y="178.498823"/>
     <use style="fill:#ff7f0e;stroke:#ff7f0e;" x="212.974627" xlink:href="#mb6bd56c606" y="186.104195"/>
     <use style="fill:#ff7f0e;stroke:#ff7f0e;" x="212.163004" xlink:href="#mb6bd56c606" y="194.841607"/>
     <use style="fill:#ff7f0e;stroke:#ff7f0e;" x="213.984" xlink:href="#mb6bd56c606" y="204.030636"/>
     <use style="fill:#ff7f0e;stroke:#ff7f0e;" x="218.510493" xlink:href="#mb6bd56c606" y="212.942528"/>
     <use style="fill:#ff7f0e;stroke:#ff7f0e;" x="225.621297" xlink:href="#mb6bd56c606" y="220.850637"/>
     <use style="fill:#ff7f0e;stroke:#ff7f0e;" x="235.008" xlink:href="#mb6bd56c606" y="227.080852"/>
     <use style="fill:#ff7f0e;stroke:#ff7f0e;" x="246.194637" xlink:href="#mb6bd56c606" y="231.05857"/>
     <use style="fill:#ff7f0e;stroke:#ff7f0e;" x="258.568882" xlink:href="#mb6bd56c606" y="232.348991"/>
     <use style="fill:#ff7f0e;stroke:#ff7f0e;" x="271.422636" xlink:href="#mb6bd56c606" y="230.688"/>
     <use style="fill:#ff7f0e;stroke:#ff7f0e;" x="283.999253" xlink:href="#mb6bd56c606" y="226.001502"/>
     <use style="fill:#ff7f0e;stroke:#ff7f0e;" x="295.544195" xlink:href="#mb6bd56c606" y="218.411899"/>
     <use style="fill:#ff7f0e;stroke:#ff7f0e;" x="305.355675" xlink:href="#mb6bd56c606" y="208.231249"/>
     <use style="fill:#ff7f0e;stroke:#ff7f0e;" x="312.831833" xlink:href="#mb6bd56c606" y="195.941559"/>
     <use style="fill:#ff7f0e;stroke:#ff7f0e;" x="317.511244" xlink:href="#mb6bd56c606" y="182.163548"/>
     <use style="fill:#ff7f0e;stroke:#ff7f0e;" x="319.104" xlink:href="#mb6bd56c606" y="167.616"/>
     <use style="fill:#ff7f0e;stroke:#ff7f0e;" x="317.511244" xlink:href="#mb6bd56c606" y="153.068452"/>
     <use style="fill:#ff7f0e;stroke:#ff7f0e;" x="312.831833" xlink:href="#mb6bd56c606" y="139.290441"/>
     <use style="fill:#ff7f0e;stroke:#ff7f0e;" x="305.355675" xlink:href="#mb6bd56c606" y="127.000751"/>
     <use style="fill:#ff7f0e;stroke:#ff7f0e;" x="295.544195" xlink:href="#mb6bd56c606" y="116.820101"/>
     <use style="fill:#ff7f0e;stroke:#ff7f0e;" x="283.999253" xlink:href="#mb6bd56c606" y="109.230498"/>
     <use style="fill:#ff7f0e;stroke:#ff7f0e;" x="271.422636" xlink:href="#mb6bd56c606" y="104.544"/>
     <use style="fill:#ff7f0e;stroke:#ff7f0e;" x="258.568882" xlink:href="#mb6bd56c606" y="102.883009"/>
     <use style="fill:#ff7f0e;stroke:#ff7f0e;" x="246.194637" xlink:href="#mb6bd56c606" y="104.17343"/>
     <use style="fill:#ff7f0e;stroke:#ff7f0e;" x="235.008" xlink:href="#mb6bd56c606" y="108.151148"/>
     <use style="fill:#ff7f0e;stroke:#ff7f0e;" x="225.621297" xlink:href="#mb6bd56c606" y="114.381363"/>
     <use style="fill:#ff7f0e;stroke:#ff7f0e;" x="218.510493" xlink:href="#mb6bd56c606" y="122.289472"/>
     <use style="fill:#ff7f0e;stroke:#ff7f0e;" x="213.984" xlink:href="#mb6bd56c606" y="131.201364"/>
     <use style="fill:#ff7f0e;stroke:#ff7f0e;" x="212.163004" xlink:href="#mb6bd56c606" y="140.390393"/>
     <use style="fill:#ff7f0e;stroke:#ff7f0e;" x="212.974627" xlink:href="#mb6bd56c606" y="149.127805"/>
     <use style="fill:#ff7f0e;stroke:#ff7f0e;" x="216.158397" xlink:href="#mb6bd56c606" y="156.733177"/>
     <use style="fill:#ff7f0e;stroke:#ff7f0e;" x="221.285559" xlink:href="#mb6bd56c606" y="162.62144"/>
     <use style="fill:#ff7f0e;stroke:#ff7f0e;" x="227.789901" xlink:href="#mb6bd56c606" y="166.343254"/>
     <use style="fill:#ff7f0e;stroke:#ff7f0e;" x="235.008" xlink:href="#mb6bd56c606" y="167.616"/>
     <use style="fill:#ff7f0e;stroke:#ff7f0e;" x="242.226099" xlink:href="#mb6bd56c606" y="166.343254"/>
     <use style="fill:#ff7f0e;stroke:#ff7f0e;" x="248.730441" xlink:href="#mb6bd56c606" y="162.62144"/>
     <use style="fill:#ff7f0e;stroke:#ff7f0e;" x="253.857603" xlink:href="#mb6bd56c606" y="156.733177"/>
     <use style="fill:#ff7f0e;stroke:#ff7f0e;" x="257.041373" xlink:href="#mb6bd56c606" y="149.127805"/>
     <use style="fill:#ff7f0e;stroke:#ff7f0e;" x="257.852996" xlink:href="#mb6bd56c606" y="140.390393"/>
     <use style="fill:#ff7f0e;stroke:#ff7f0e;" x="256.032" xlink:href="#mb6bd56c606" y="131.201364"/>
     <use style="fill:#ff7f0e;stroke:#ff7f0e;" x="251.505507" xlink:href="#mb6bd56c606" y="122.289472"/>
     <use style="fill:#ff7f0e;stroke:#ff7f0e;" x="244.394703" xlink:href="#mb6bd56c606" y="114.381363"/>
     <use style="fill:#ff7f0e;stroke:#ff7f0e;" x="235.008" xlink:href="#mb6bd56c606" y="108.151148"/>
     <use style="fill:#ff7f0e;stroke:#ff7f0e;" x="223.821363" xlink:href="#mb6bd56c606" y="104.17343"/>
     <use style="fill:#ff7f0e;stroke:#ff7f0e;" x="211.447118" xlink:href="#mb6bd56c606" y="102.883009"/>
     <use style="fill:#ff7f0e;stroke:#ff7f0e;" x="198.593364" xlink:href="#mb6bd56c606" y="104.544"/>
     <use style="fill:#ff7f0e;stroke:#ff7f0e;" x="186.016747" xlink:href="#mb6bd56c606" y="109.230498"/>
     <use style="fill:#ff7f0e;stroke:#ff7f0e;" x="174.471805" xlink:href="#mb6bd56c606" y="116.820101"/>
     <use style="fill:#ff7f0e;stroke:#ff7f0e;" x="164.660325" xlink:href="#mb6bd56c606" y="127.000751"/>
     <use style="fill:#ff7f0e;stroke:#ff7f0e;" x="157.184167" xlink:href="#mb6bd56c606" y="139.290441"/>
     <use style="fill:#ff7f0e;stroke:#ff7f0e;" x="152.504756" xlink:href="#mb6bd56c606" y="153.068452"/>
     <use style="fill:#ff7f0e;stroke:#ff7f0e;" x="150.912" xlink:href="#mb6bd56c606" y="167.616"/>
     <use style="fill:#ff7f0e;stroke:#ff7f0e;" x="152.504756" xlink:href="#mb6bd56c606" y="182.163548"/>
     <use style="fill:#ff7f0e;stroke:#ff7f0e;" x="157.184167" xlink:href="#mb6bd56c606" y="195.941559"/>
     <use style="fill:#ff7f0e;stroke:#ff7f0e;" x="164.660325" xlink:href="#mb6bd56c606" y="208.231249"/>
     <use style="fill:#ff7f0e;stroke:#ff7f0e;" x="174.471805" xlink:href="#mb6bd56c606" y="218.411899"/>
     <use style="fill:#ff7f0e;stroke:#ff7f0e;" x="186.016747" xlink:href="#mb6bd56c606" y="226.001502"/>
     <use style="fill:#ff7f0e;stroke:#ff7f0e;" x="198.593364" xlink:href="#mb6bd56c606" y="230.688"/>
     <use style="fill:#ff7f0e;stroke:#ff7f0e;" x="211.447118" xlink:href="#mb6bd56c606" y="232.348991"/>
     <use style="fill:#ff7f0e;stroke:#ff7f0e;" x="223.821363" xlink:href="#mb6bd56c606" y="231.05857"/>
     <use style="fill:#ff7f0e;stroke:#ff7f0e;" x="235.008" xlink:href="#mb6bd56c606" y="227.080852"/>
     <use style="fill:#ff7f0e;stroke:#ff7f0e;" x="244.394703" xlink:href="#mb6bd56c606" y="220.850637"/>
     <use style="fill:#ff7f0e;stroke:#ff7f0e;" x="251.505507" xlink:href="#mb6bd56c606" y="212.942528"/>
     <use style="fill:#ff7f0e;stroke:#ff7f0e;" x="256.032" xlink:href="#mb6bd56c606" y="204.030636"/>
     <use style="fill:#ff7f0e;stroke:#ff7f0e;" x="257.852996" xlink:href="#mb6bd56c606" y="194.841607"/>
     <use style="fill:#ff7f0e;stroke:#ff7f0e;" x="257.041373" xlink:href="#mb6bd56c606" y="186.104195"/>
     <use style="fill:#ff7f0e;stroke:#ff7f0e;" x="253.857603" xlink:href="#mb6bd56c606" y="178.498823"/>
     <use style="fill:#ff7f0e;stroke:#ff7f0e;" x="248.730441" xlink:href="#mb6bd56c606" y="172.61056"/>
     <use style="fill:#ff7f0e;stroke:#ff7f0e;" x="242.226099" xlink:href="#mb6bd56c606" y="168.888746"/>
     <use style="fill:#ff7f0e;stroke:#ff7f0e;" x="235.008" xlink:href="#mb6bd56c606" y="167.616"/>
    </g>
   </g>
   <g id="line2d_17">
    <path clip-path="url(#p3df9708269)" d="M 108.864 167.616 
L 361.152 167.616 
" style="fill:none;stroke:#000000;stroke-linecap:square;stroke-width:0.5;"/>
   </g>
   <g id="line2d_18">
    <path clip-path="url(#p3df9708269)" d="M 235.008 293.76 
L 235.008 41.472 
" style="fill:none;stroke:#000000;stroke-linecap:square;stroke-width:0.5;"/>
   </g>
   <g id="patch_3">
    <path d="M 108.864 293.76 
L 108.864 41.472 
" style="fill:none;stroke:#000000;stroke-linecap:square;stroke-linejoin:miter;stroke-width:1.5;"/>
   </g>
   <g id="patch_4">
    <path d="M 361.152 293.76 
L 361.152 41.472 
" style="fill:none;stroke:#000000;stroke-linecap:square;stroke-linejoin:miter;stroke-width:1.5;"/>
   </g>
   <g id="patch_5">
    <path d="M 108.864 293.76 
L 361.152 293.76 
" style="fill:none;stroke:#000000;stroke-linecap:square;stroke-linejoin:miter;stroke-width:1.5;"/>
   </g>
   <g id="patch_6">
    <path d="M 108.864 41.472 
L 361.152 41.472 
" style="fill:none;stroke:#000000;stroke-linecap:square;stroke-linejoin:miter;stroke-width:1.5;"/>
   </g>
   <g id="legend_1">
    <g id="patch_7">
     <path d="M 291.889187 93.77075 
L 351.352 93.77075 
Q 354.152 93.77075 354.152 90.97075 
L 354.152 51.272 
Q 354.152 48.472 351.352 48.472 
L 291.889187 48.472 
Q 289.089187 48.472 289.089187 51.272 
L 289.089187 90.97075 
Q 289.089187 93.77075 291.889187 93.77075 
z
" style="fill:none;opacity:0;"/>
    </g>
    <g id="line2d_19">
     <path d="M 294.689188 59.809812 
L 322.689188 59.809812 
" style="fill:none;stroke:#1f77b4;stroke-linecap:square;stroke-width:1.5;"/>
    </g>
    <g id="line2d_20"/>
    <g id="text_15">
     <!-- r6 -->
     <defs>
      <path d="M 41.109375 46.296875 
Q 39.59375 47.171875 37.8125 47.578125 
Q 36.03125 48 33.890625 48 
Q 26.265625 48 22.1875 43.046875 
Q 18.109375 38.09375 18.109375 28.8125 
L 18.109375 0 
L 9.078125 0 
L 9.078125 54.6875 
L 18.109375 54.6875 
L 18.109375 46.1875 
Q 20.953125 51.171875 25.484375 53.578125 
Q 30.03125 56 36.53125 56 
Q 37.453125 56 38.578125 55.875 
Q 39.703125 55.765625 41.0625 55.515625 
z
" id="DejaVuSans-114"/>
      <path d="M 33.015625 40.375 
Q 26.375 40.375 22.484375 35.828125 
Q 18.609375 31.296875 18.609375 23.390625 
Q 18.609375 15.53125 22.484375 10.953125 
Q 26.375 6.390625 33.015625 6.390625 
Q 39.65625 6.390625 43.53125 10.953125 
Q 47.40625 15.53125 47.40625 23.390625 
Q 47.40625 31.296875 43.53125 35.828125 
Q 39.65625 40.375 33.015625 40.375 
z
M 52.59375 71.296875 
L 52.59375 62.3125 
Q 48.875 64.0625 45.09375 64.984375 
Q 41.3125 65.921875 37.59375 65.921875 
Q 27.828125 65.921875 22.671875 59.328125 
Q 17.53125 52.734375 16.796875 39.40625 
Q 19.671875 43.65625 24.015625 45.921875 
Q 28.375 48.1875 33.59375 48.1875 
Q 44.578125 48.1875 50.953125 41.515625 
Q 57.328125 34.859375 57.328125 23.390625 
Q 57.328125 12.15625 50.6875 5.359375 
Q 44.046875 -1.421875 33.015625 -1.421875 
Q 20.359375 -1.421875 13.671875 8.265625 
Q 6.984375 17.96875 6.984375 36.375 
Q 6.984375 53.65625 15.1875 63.9375 
Q 23.390625 74.21875 37.203125 74.21875 
Q 40.921875 74.21875 44.703125 73.484375 
Q 48.484375 72.75 52.59375 71.296875 
z
" id="DejaVuSans-54"/>
     </defs>
     <g transform="translate(333.889187 64.709812)scale(0.14 -0.14)">
      <use xlink:href="#DejaVuSans-114"/>
      <use x="41.113281" xlink:href="#DejaVuSans-54"/>
     </g>
    </g>
    <g id="line2d_21"/>
    <g id="line2d_22">
     <g>
      <use style="fill:#ff7f0e;stroke:#ff7f0e;" x="308.689188" xlink:href="#mb6bd56c606" y="80.359187"/>
     </g>
    </g>
    <g id="text_16">
     <!-- r7 -->
     <defs>
      <path d="M 8.203125 72.90625 
L 55.078125 72.90625 
L 55.078125 68.703125 
L 28.609375 0 
L 18.3125 0 
L 43.21875 64.59375 
L 8.203125 64.59375 
z
" id="DejaVuSans-55"/>
     </defs>
     <g transform="translate(333.889187 85.259187)scale(0.14 -0.14)">
      <use xlink:href="#DejaVuSans-114"/>
      <use x="41.113281" xlink:href="#DejaVuSans-55"/>
     </g>
    </g>
   </g>
  </g>
 </g>
 <defs>
  <clipPath id="p3df9708269">
   <rect height="252.288" width="252.288" x="108.864" y="41.472"/>
  </clipPath>
 </defs>
</svg>
