<?xml version="1.0" encoding="utf-8" standalone="no"?>
<!DOCTYPE svg PUBLIC "-//W3C//DTD SVG 1.1//EN"
  "http://www.w3.org/Graphics/SVG/1.1/DTD/svg11.dtd">
<!-- Created with matplotlib (https://matplotlib.org/) -->
<svg height="345.6pt" version="1.1" viewBox="0 0 460.8 345.6" width="460.8pt" xmlns="http://www.w3.org/2000/svg" xmlns:xlink="http://www.w3.org/1999/xlink">
 <defs>
  <style type="text/css">
*{stroke-linecap:butt;stroke-linejoin:round;}
  </style>
 </defs>
 <g id="figure_1">
  <g id="patch_1">
   <path d="M 0 345.6 
L 460.8 345.6 
L 460.8 0 
L 0 0 
z
" style="fill:#ffffff;"/>
  </g>
  <g id="axes_1">
   <g id="patch_2">
    <path d="M 108.864 293.76 
L 361.152 293.76 
L 361.152 41.472 
L 108.864 41.472 
z
" style="fill:#ffffff;"/>
   </g>
   <g id="matplotlib.axis_1">
    <g id="xtick_1">
     <g id="line2d_1">
      <defs>
       <path d="M 0 0 
L 0 12 
" id="m0ed17e2c87" style="stroke:#000000;stroke-width:1.5;"/>
      </defs>
      <g>
       <use style="stroke:#000000;stroke-width:1.5;" x="134.0928" xlink:href="#m0ed17e2c87" y="293.76"/>
      </g>
     </g>
     <g id="text_1">
      <!-- −4 -->
      <defs>
       <path d="M 10.59375 35.5 
L 73.1875 35.5 
L 73.1875 27.203125 
L 10.59375 27.203125 
z
" id="DejaVuSans-8722"/>
       <path d="M 37.796875 64.3125 
L 12.890625 25.390625 
L 37.796875 25.390625 
z
M 35.203125 72.90625 
L 47.609375 72.90625 
L 47.609375 25.390625 
L 58.015625 25.390625 
L 58.015625 17.1875 
L 47.609375 17.1875 
L 47.609375 0 
L 37.796875 0 
L 37.796875 17.1875 
L 4.890625 17.1875 
L 4.890625 26.703125 
z
" id="DejaVuSans-52"/>
      </defs>
      <g transform="translate(123.773269 319.897812)scale(0.14 -0.14)">
       <use xlink:href="#DejaVuSans-8722"/>
       <use x="83.789062" xlink:href="#DejaVuSans-52"/>
      </g>
     </g>
    </g>
    <g id="xtick_2">
     <g id="line2d_2">
      <g>
       <use style="stroke:#000000;stroke-width:1.5;" x="184.5504" xlink:href="#m0ed17e2c87" y="293.76"/>
      </g>
     </g>
     <g id="text_2">
      <!-- −2 -->
      <defs>
       <path d="M 19.1875 8.296875 
L 53.609375 8.296875 
L 53.609375 0 
L 7.328125 0 
L 7.328125 8.296875 
Q 12.9375 14.109375 22.625 23.890625 
Q 32.328125 33.6875 34.8125 36.53125 
Q 39.546875 41.84375 41.421875 45.53125 
Q 43.3125 49.21875 43.3125 52.78125 
Q 43.3125 58.59375 39.234375 62.25 
Q 35.15625 65.921875 28.609375 65.921875 
Q 23.96875 65.921875 18.8125 64.3125 
Q 13.671875 62.703125 7.8125 59.421875 
L 7.8125 69.390625 
Q 13.765625 71.78125 18.9375 73 
Q 24.125 74.21875 28.421875 74.21875 
Q 39.75 74.21875 46.484375 68.546875 
Q 53.21875 62.890625 53.21875 53.421875 
Q 53.21875 48.921875 51.53125 44.890625 
Q 49.859375 40.875 45.40625 35.40625 
Q 44.1875 33.984375 37.640625 27.21875 
Q 31.109375 20.453125 19.1875 8.296875 
z
" id="DejaVuSans-50"/>
      </defs>
      <g transform="translate(174.230869 319.897812)scale(0.14 -0.14)">
       <use xlink:href="#DejaVuSans-8722"/>
       <use x="83.789062" xlink:href="#DejaVuSans-50"/>
      </g>
     </g>
    </g>
    <g id="xtick_3">
     <g id="line2d_3">
      <g>
       <use style="stroke:#000000;stroke-width:1.5;" x="235.008" xlink:href="#m0ed17e2c87" y="293.76"/>
      </g>
     </g>
     <g id="text_3">
      <!-- 0 -->
      <defs>
       <path d="M 31.78125 66.40625 
Q 24.171875 66.40625 20.328125 58.90625 
Q 16.5 51.421875 16.5 36.375 
Q 16.5 21.390625 20.328125 13.890625 
Q 24.171875 6.390625 31.78125 6.390625 
Q 39.453125 6.390625 43.28125 13.890625 
Q 47.125 21.390625 47.125 36.375 
Q 47.125 51.421875 43.28125 58.90625 
Q 39.453125 66.40625 31.78125 66.40625 
z
M 31.78125 74.21875 
Q 44.046875 74.21875 50.515625 64.515625 
Q 56.984375 54.828125 56.984375 36.375 
Q 56.984375 17.96875 50.515625 8.265625 
Q 44.046875 -1.421875 31.78125 -1.421875 
Q 19.53125 -1.421875 13.0625 8.265625 
Q 6.59375 17.96875 6.59375 36.375 
Q 6.59375 54.828125 13.0625 64.515625 
Q 19.53125 74.21875 31.78125 74.21875 
z
" id="DejaVuSans-48"/>
      </defs>
      <g transform="translate(230.55425 319.897812)scale(0.14 -0.14)">
       <use xlink:href="#DejaVuSans-48"/>
      </g>
     </g>
    </g>
    <g id="xtick_4">
     <g id="line2d_4">
      <g>
       <use style="stroke:#000000;stroke-width:1.5;" x="285.4656" xlink:href="#m0ed17e2c87" y="293.76"/>
      </g>
     </g>
     <g id="text_4">
      <!-- 2 -->
      <g transform="translate(281.01185 319.897812)scale(0.14 -0.14)">
       <use xlink:href="#DejaVuSans-50"/>
      </g>
     </g>
    </g>
    <g id="xtick_5">
     <g id="line2d_5">
      <g>
       <use style="stroke:#000000;stroke-width:1.5;" x="335.9232" xlink:href="#m0ed17e2c87" y="293.76"/>
      </g>
     </g>
     <g id="text_5">
      <!-- 4 -->
      <g transform="translate(331.46945 319.897812)scale(0.14 -0.14)">
       <use xlink:href="#DejaVuSans-52"/>
      </g>
     </g>
    </g>
   </g>
   <g id="matplotlib.axis_2">
    <g id="ytick_1">
     <g id="line2d_6">
      <defs>
       <path d="M 0 0 
L -12 0 
" id="m626f4bbaaa" style="stroke:#000000;stroke-width:1.5;"/>
      </defs>
      <g>
       <use style="stroke:#000000;stroke-width:1.5;" x="108.864" xlink:href="#m626f4bbaaa" y="268.5312"/>
      </g>
     </g>
     <g id="text_6">
      <!-- −4 -->
      <g transform="translate(72.724938 273.850106)scale(0.14 -0.14)">
       <use xlink:href="#DejaVuSans-8722"/>
       <use x="83.789062" xlink:href="#DejaVuSans-52"/>
      </g>
     </g>
    </g>
    <g id="ytick_2">
     <g id="line2d_7">
      <g>
       <use style="stroke:#000000;stroke-width:1.5;" x="108.864" xlink:href="#m626f4bbaaa" y="218.0736"/>
      </g>
     </g>
     <g id="text_7">
      <!-- −2 -->
      <g transform="translate(72.724938 223.392506)scale(0.14 -0.14)">
       <use xlink:href="#DejaVuSans-8722"/>
       <use x="83.789062" xlink:href="#DejaVuSans-50"/>
      </g>
     </g>
    </g>
    <g id="ytick_3">
     <g id="line2d_8">
      <g>
       <use style="stroke:#000000;stroke-width:1.5;" x="108.864" xlink:href="#m626f4bbaaa" y="167.616"/>
      </g>
     </g>
     <g id="text_8">
      <!-- 0 -->
      <g transform="translate(84.4565 172.934906)scale(0.14 -0.14)">
       <use xlink:href="#DejaVuSans-48"/>
      </g>
     </g>
    </g>
    <g id="ytick_4">
     <g id="line2d_9">
      <g>
       <use style="stroke:#000000;stroke-width:1.5;" x="108.864" xlink:href="#m626f4bbaaa" y="117.1584"/>
      </g>
     </g>
     <g id="text_9">
      <!-- 2 -->
      <g transform="translate(84.4565 122.477306)scale(0.14 -0.14)">
       <use xlink:href="#DejaVuSans-50"/>
      </g>
     </g>
    </g>
    <g id="ytick_5">
     <g id="line2d_10">
      <g>
       <use style="stroke:#000000;stroke-width:1.5;" x="108.864" xlink:href="#m626f4bbaaa" y="66.7008"/>
      </g>
     </g>
     <g id="text_10">
      <!-- 4 -->
      <g transform="translate(84.4565 72.019706)scale(0.14 -0.14)">
       <use xlink:href="#DejaVuSans-52"/>
      </g>
     </g>
    </g>
   </g>
   <g id="line2d_11">
    <path clip-path="url(#p3a81ad86de)" d="M 235.008 167.616 
L 235.757184 167.483899 
L 236.640423 167.178593 
L 237.781229 166.606627 
L 239.091841 165.711674 
L 240.470195 164.4624 
L 241.806979 162.855303 
L 242.993196 160.915625 
L 243.927728 158.696272 
L 244.524385 156.274813 
L 244.717949 153.748756 
L 244.650097 152.480939 
L 244.4688 151.229414 
L 244.173582 150.009081 
L 243.765825 148.834783 
L 243.248754 147.72106 
L 242.627385 146.681912 
L 241.90845 145.730569 
L 241.100287 144.879274 
L 240.212708 144.139079 
L 239.256834 143.519666 
L 238.244916 143.029184 
L 237.190132 142.674115 
L 236.106371 142.459168 
L 235.008 142.3872 
L 233.909629 142.459168 
L 232.825868 142.674115 
L 231.771084 143.029184 
L 230.759166 143.519666 
L 229.803292 144.139079 
L 228.915713 144.879274 
L 228.10755 145.730569 
L 227.388615 146.681912 
L 226.767246 147.72106 
L 226.250175 148.834783 
L 225.842418 150.009081 
L 225.5472 151.229414 
L 225.365903 152.480939 
L 225.341327 155.018146 
L 225.743079 157.505113 
L 226.518264 159.836591 
L 227.590501 161.924353 
L 228.865307 163.702673 
L 230.2367 165.132218 
L 231.594568 166.20211 
L 232.832297 166.930003 
L 234.258816 167.483899 
L 235.008 167.616 
L 234.581852 167.672103 
L 233.375577 168.053407 
L 232.234771 168.625373 
L 230.924159 169.520326 
L 229.545805 170.7696 
L 228.209021 172.376697 
L 227.022804 174.316375 
L 226.088272 176.535728 
L 225.491615 178.957187 
L 225.298051 181.483244 
L 225.365903 182.751061 
L 225.5472 184.002586 
L 225.842418 185.222919 
L 226.250175 186.397217 
L 226.767246 187.51094 
L 227.388615 188.550088 
L 228.10755 189.501431 
L 228.915713 190.352726 
L 229.803292 191.092921 
L 230.759166 191.712334 
L 231.771084 192.202816 
L 232.825868 192.557885 
L 233.909629 192.772832 
L 235.008 192.8448 
L 236.106371 192.772832 
L 237.190132 192.557885 
L 238.244916 192.202816 
L 239.256834 191.712334 
L 240.212708 191.092921 
L 241.100287 190.352726 
L 241.90845 189.501431 
L 242.627385 188.550088 
L 243.248754 187.51094 
L 243.765825 186.397217 
L 244.173582 185.222919 
L 244.4688 184.002586 
L 244.650097 182.751061 
L 244.674673 180.213854 
L 244.272921 177.726887 
L 243.497736 175.395409 
L 242.425499 173.307647 
L 241.150693 171.529327 
L 239.7793 170.099782 
L 238.421432 169.02989 
L 237.183703 168.301997 
L 235.757184 167.748101 
L 235.008 167.616 
L 235.008 167.616 
" style="fill:none;stroke:#1f77b4;stroke-linecap:square;stroke-width:1.5;"/>
   </g>
   <g id="line2d_12">
    <path clip-path="url(#p3a81ad86de)" d="M 335.9232 167.616 
L 335.252775 163.239219 
L 333.265648 159.01957 
L 330.033204 155.105695 
L 325.670951 151.629676 
L 320.333479 148.699797 
L 314.207736 146.394495 
L 307.504924 144.757808 
L 300.451392 143.796553 
L 293.27893 143.479391 
L 286.214931 143.737816 
L 279.472845 144.469067 
L 273.243368 145.5408 
L 267.68677 146.797327 
L 256.082667 149.932255 
L 254.0325 150.183257 
L 252.847456 149.776544 
L 252.440743 148.5915 
L 252.691745 146.541333 
L 254.556877 139.69731 
L 255.826673 134.93723 
L 257.0832 129.380632 
L 258.154933 123.151155 
L 258.886184 116.409069 
L 259.144609 109.34507 
L 258.827447 102.172608 
L 257.866192 95.119076 
L 256.229505 88.416264 
L 253.924203 82.290521 
L 250.994324 76.953049 
L 247.518305 72.590796 
L 243.60443 69.358352 
L 239.384781 67.371225 
L 235.008 66.7008 
L 230.631219 67.371225 
L 226.41157 69.358352 
L 222.497695 72.590796 
L 219.021676 76.953049 
L 216.091797 82.290521 
L 213.786495 88.416264 
L 212.149808 95.119076 
L 211.188553 102.172608 
L 210.871391 109.34507 
L 211.129816 116.409069 
L 211.861067 123.151155 
L 212.9328 129.380632 
L 214.189327 134.93723 
L 217.324255 146.541333 
L 217.575257 148.5915 
L 217.168544 149.776544 
L 215.9835 150.183257 
L 213.933333 149.932255 
L 207.08931 148.067123 
L 202.32923 146.797327 
L 196.772632 145.5408 
L 190.543155 144.469067 
L 183.801069 143.737816 
L 176.73707 143.479391 
L 169.564608 143.796553 
L 162.511076 144.757808 
L 155.808264 146.394495 
L 149.682521 148.699797 
L 144.345049 151.629676 
L 139.982796 155.105695 
L 136.750352 159.01957 
L 134.763225 163.239219 
L 134.0928 167.616 
L 134.763225 171.992781 
L 136.750352 176.21243 
L 139.982796 180.126305 
L 144.345049 183.602324 
L 149.682521 186.532203 
L 155.808264 188.837505 
L 162.511076 190.474192 
L 169.564608 191.435447 
L 176.73707 191.752609 
L 183.801069 191.494184 
L 190.543155 190.762933 
L 196.772632 189.6912 
L 202.32923 188.434673 
L 213.933333 185.299745 
L 215.9835 185.048743 
L 217.168544 185.455456 
L 217.575257 186.6405 
L 217.324255 188.690667 
L 215.459123 195.53469 
L 214.189327 200.29477 
L 212.9328 205.851368 
L 211.861067 212.080845 
L 211.129816 218.822931 
L 210.871391 225.88693 
L 211.188553 233.059392 
L 212.149808 240.112924 
L 213.786495 246.815736 
L 216.091797 252.941479 
L 219.021676 258.278951 
L 222.497695 262.641204 
L 226.41157 265.873648 
L 230.631219 267.860775 
L 235.008 268.5312 
L 239.384781 267.860775 
L 243.60443 265.873648 
L 247.518305 262.641204 
L 250.994324 258.278951 
L 253.924203 252.941479 
L 256.229505 246.815736 
L 257.866192 240.112924 
L 258.827447 233.059392 
L 259.144609 225.88693 
L 258.886184 218.822931 
L 258.154933 212.080845 
L 257.0832 205.851368 
L 255.826673 200.29477 
L 252.691745 188.690667 
L 252.440743 186.6405 
L 252.847456 185.455456 
L 254.0325 185.048743 
L 256.082667 185.299745 
L 262.92669 187.164877 
L 267.68677 188.434673 
L 273.243368 189.6912 
L 279.472845 190.762933 
L 286.214931 191.494184 
L 293.27893 191.752609 
L 300.451392 191.435447 
L 307.504924 190.474192 
L 314.207736 188.837505 
L 320.333479 186.532203 
L 325.670951 183.602324 
L 330.033204 180.126305 
L 333.265648 176.21243 
L 335.252775 171.992781 
L 335.9232 167.616 
L 335.9232 167.616 
" style="fill:none;stroke:#ff7f0e;stroke-linecap:square;stroke-width:1.5;"/>
   </g>
   <g id="patch_3">
    <path d="M 108.864 293.76 
L 108.864 41.472 
" style="fill:none;stroke:#000000;stroke-linecap:square;stroke-linejoin:miter;stroke-width:1.5;"/>
   </g>
   <g id="patch_4">
    <path d="M 361.152 293.76 
L 361.152 41.472 
" style="fill:none;stroke:#000000;stroke-linecap:square;stroke-linejoin:miter;stroke-width:1.5;"/>
   </g>
   <g id="patch_5">
    <path d="M 108.864 293.76 
L 361.152 293.76 
" style="fill:none;stroke:#000000;stroke-linecap:square;stroke-linejoin:miter;stroke-width:1.5;"/>
   </g>
   <g id="patch_6">
    <path d="M 108.864 41.472 
L 361.152 41.472 
" style="fill:none;stroke:#000000;stroke-linecap:square;stroke-linejoin:miter;stroke-width:1.5;"/>
   </g>
   <g id="legend_1">
    <g id="patch_7">
     <path d="M 291.889187 93.77075 
L 351.352 93.77075 
Q 354.152 93.77075 354.152 90.97075 
L 354.152 51.272 
Q 354.152 48.472 351.352 48.472 
L 291.889187 48.472 
Q 289.089187 48.472 289.089187 51.272 
L 289.089187 90.97075 
Q 289.089187 93.77075 291.889187 93.77075 
z
" style="fill:none;opacity:0;"/>
    </g>
    <g id="line2d_13">
     <path d="M 294.689188 59.809812 
L 322.689188 59.809812 
" style="fill:none;stroke:#1f77b4;stroke-linecap:square;stroke-width:1.5;"/>
    </g>
    <g id="line2d_14"/>
    <g id="text_11">
     <!-- r8 -->
     <defs>
      <path d="M 41.109375 46.296875 
Q 39.59375 47.171875 37.8125 47.578125 
Q 36.03125 48 33.890625 48 
Q 26.265625 48 22.1875 43.046875 
Q 18.109375 38.09375 18.109375 28.8125 
L 18.109375 0 
L 9.078125 0 
L 9.078125 54.6875 
L 18.109375 54.6875 
L 18.109375 46.1875 
Q 20.953125 51.171875 25.484375 53.578125 
Q 30.03125 56 36.53125 56 
Q 37.453125 56 38.578125 55.875 
Q 39.703125 55.765625 41.0625 55.515625 
z
" id="DejaVuSans-114"/>
      <path d="M 31.78125 34.625 
Q 24.75 34.625 20.71875 30.859375 
Q 16.703125 27.09375 16.703125 20.515625 
Q 16.703125 13.921875 20.71875 10.15625 
Q 24.75 6.390625 31.78125 6.390625 
Q 38.8125 6.390625 42.859375 10.171875 
Q 46.921875 13.96875 46.921875 20.515625 
Q 46.921875 27.09375 42.890625 30.859375 
Q 38.875 34.625 31.78125 34.625 
z
M 21.921875 38.8125 
Q 15.578125 40.375 12.03125 44.71875 
Q 8.5 49.078125 8.5 55.328125 
Q 8.5 64.0625 14.71875 69.140625 
Q 20.953125 74.21875 31.78125 74.21875 
Q 42.671875 74.21875 48.875 69.140625 
Q 55.078125 64.0625 55.078125 55.328125 
Q 55.078125 49.078125 51.53125 44.71875 
Q 48 40.375 41.703125 38.8125 
Q 48.828125 37.15625 52.796875 32.3125 
Q 56.78125 27.484375 56.78125 20.515625 
Q 56.78125 9.90625 50.3125 4.234375 
Q 43.84375 -1.421875 31.78125 -1.421875 
Q 19.734375 -1.421875 13.25 4.234375 
Q 6.78125 9.90625 6.78125 20.515625 
Q 6.78125 27.484375 10.78125 32.3125 
Q 14.796875 37.15625 21.921875 38.8125 
z
M 18.3125 54.390625 
Q 18.3125 48.734375 21.84375 45.5625 
Q 25.390625 42.390625 31.78125 42.390625 
Q 38.140625 42.390625 41.71875 45.5625 
Q 45.3125 48.734375 45.3125 54.390625 
Q 45.3125 60.0625 41.71875 63.234375 
Q 38.140625 66.40625 31.78125 66.40625 
Q 25.390625 66.40625 21.84375 63.234375 
Q 18.3125 60.0625 18.3125 54.390625 
z
" id="DejaVuSans-56"/>
     </defs>
     <g transform="translate(333.889187 64.709812)scale(0.14 -0.14)">
      <use xlink:href="#DejaVuSans-114"/>
      <use x="41.113281" xlink:href="#DejaVuSans-56"/>
     </g>
    </g>
    <g id="line2d_15">
     <path d="M 294.689188 80.359187 
L 322.689188 80.359187 
" style="fill:none;stroke:#ff7f0e;stroke-linecap:square;stroke-width:1.5;"/>
    </g>
    <g id="line2d_16"/>
    <g id="text_12">
     <!-- r9 -->
     <defs>
      <path d="M 10.984375 1.515625 
L 10.984375 10.5 
Q 14.703125 8.734375 18.5 7.8125 
Q 22.3125 6.890625 25.984375 6.890625 
Q 35.75 6.890625 40.890625 13.453125 
Q 46.046875 20.015625 46.78125 33.40625 
Q 43.953125 29.203125 39.59375 26.953125 
Q 35.25 24.703125 29.984375 24.703125 
Q 19.046875 24.703125 12.671875 31.3125 
Q 6.296875 37.9375 6.296875 49.421875 
Q 6.296875 60.640625 12.9375 67.421875 
Q 19.578125 74.21875 30.609375 74.21875 
Q 43.265625 74.21875 49.921875 64.515625 
Q 56.59375 54.828125 56.59375 36.375 
Q 56.59375 19.140625 48.40625 8.859375 
Q 40.234375 -1.421875 26.421875 -1.421875 
Q 22.703125 -1.421875 18.890625 -0.6875 
Q 15.09375 0.046875 10.984375 1.515625 
z
M 30.609375 32.421875 
Q 37.25 32.421875 41.125 36.953125 
Q 45.015625 41.5 45.015625 49.421875 
Q 45.015625 57.28125 41.125 61.84375 
Q 37.25 66.40625 30.609375 66.40625 
Q 23.96875 66.40625 20.09375 61.84375 
Q 16.21875 57.28125 16.21875 49.421875 
Q 16.21875 41.5 20.09375 36.953125 
Q 23.96875 32.421875 30.609375 32.421875 
z
" id="DejaVuSans-57"/>
     </defs>
     <g transform="translate(333.889187 85.259187)scale(0.14 -0.14)">
      <use xlink:href="#DejaVuSans-114"/>
      <use x="41.113281" xlink:href="#DejaVuSans-57"/>
     </g>
    </g>
   </g>
  </g>
 </g>
 <defs>
  <clipPath id="p3a81ad86de">
   <rect height="252.288" width="252.288" x="108.864" y="41.472"/>
  </clipPath>
 </defs>
</svg>
