<?xml version="1.0" encoding="utf-8" standalone="no"?>
<!DOCTYPE svg PUBLIC "-//W3C//DTD SVG 1.1//EN"
  "http://www.w3.org/Graphics/SVG/1.1/DTD/svg11.dtd">
<!-- Created with matplotlib (https://matplotlib.org/) -->
<svg height="345.6pt" version="1.1" viewBox="0 0 460.8 345.6" width="460.8pt" xmlns="http://www.w3.org/2000/svg" xmlns:xlink="http://www.w3.org/1999/xlink">
 <defs>
  <style type="text/css">
*{stroke-linecap:butt;stroke-linejoin:round;}
  </style>
 </defs>
 <g id="figure_1">
  <g id="patch_1">
   <path d="M 0 345.6 
L 460.8 345.6 
L 460.8 0 
L 0 0 
z
" style="fill:#ffffff;"/>
  </g>
  <g id="axes_1">
   <g id="patch_2">
    <path d="M 108.864 293.76 
L 361.152 293.76 
L 361.152 41.472 
L 108.864 41.472 
z
" style="fill:#ffffff;"/>
   </g>
   <g id="matplotlib.axis_1">
    <g id="xtick_1">
     <g id="line2d_1">
      <defs>
       <path d="M 0 0 
L 0 12 
" id="m2f593542cd" style="stroke:#000000;stroke-width:1.5;"/>
      </defs>
      <g>
       <use style="stroke:#000000;stroke-width:1.5;" x="108.864" xlink:href="#m2f593542cd" y="293.76"/>
      </g>
     </g>
     <g id="text_1">
      <!-- −2 -->
      <defs>
       <path d="M 10.59375 35.5 
L 73.1875 35.5 
L 73.1875 27.203125 
L 10.59375 27.203125 
z
" id="DejaVuSans-8722"/>
       <path d="M 19.1875 8.296875 
L 53.609375 8.296875 
L 53.609375 0 
L 7.328125 0 
L 7.328125 8.296875 
Q 12.9375 14.109375 22.625 23.890625 
Q 32.328125 33.6875 34.8125 36.53125 
Q 39.546875 41.84375 41.421875 45.53125 
Q 43.3125 49.21875 43.3125 52.78125 
Q 43.3125 58.59375 39.234375 62.25 
Q 35.15625 65.921875 28.609375 65.921875 
Q 23.96875 65.921875 18.8125 64.3125 
Q 13.671875 62.703125 7.8125 59.421875 
L 7.8125 69.390625 
Q 13.765625 71.78125 18.9375 73 
Q 24.125 74.21875 28.421875 74.21875 
Q 39.75 74.21875 46.484375 68.546875 
Q 53.21875 62.890625 53.21875 53.421875 
Q 53.21875 48.921875 51.53125 44.890625 
Q 49.859375 40.875 45.40625 35.40625 
Q 44.1875 33.984375 37.640625 27.21875 
Q 31.109375 20.453125 19.1875 8.296875 
z
" id="DejaVuSans-50"/>
      </defs>
      <g transform="translate(98.544469 319.897812)scale(0.14 -0.14)">
       <use xlink:href="#DejaVuSans-8722"/>
       <use x="83.789062" xlink:href="#DejaVuSans-50"/>
      </g>
     </g>
    </g>
    <g id="xtick_2">
     <g id="line2d_2">
      <g>
       <use style="stroke:#000000;stroke-width:1.5;" x="150.912" xlink:href="#m2f593542cd" y="293.76"/>
      </g>
     </g>
     <g id="text_2">
      <!-- −1 -->
      <defs>
       <path d="M 12.40625 8.296875 
L 28.515625 8.296875 
L 28.515625 63.921875 
L 10.984375 60.40625 
L 10.984375 69.390625 
L 28.421875 72.90625 
L 38.28125 72.90625 
L 38.28125 8.296875 
L 54.390625 8.296875 
L 54.390625 0 
L 12.40625 0 
z
" id="DejaVuSans-49"/>
      </defs>
      <g transform="translate(140.592469 319.897812)scale(0.14 -0.14)">
       <use xlink:href="#DejaVuSans-8722"/>
       <use x="83.789062" xlink:href="#DejaVuSans-49"/>
      </g>
     </g>
    </g>
    <g id="xtick_3">
     <g id="line2d_3">
      <g>
       <use style="stroke:#000000;stroke-width:1.5;" x="192.96" xlink:href="#m2f593542cd" y="293.76"/>
      </g>
     </g>
     <g id="text_3">
      <!-- 0 -->
      <defs>
       <path d="M 31.78125 66.40625 
Q 24.171875 66.40625 20.328125 58.90625 
Q 16.5 51.421875 16.5 36.375 
Q 16.5 21.390625 20.328125 13.890625 
Q 24.171875 6.390625 31.78125 6.390625 
Q 39.453125 6.390625 43.28125 13.890625 
Q 47.125 21.390625 47.125 36.375 
Q 47.125 51.421875 43.28125 58.90625 
Q 39.453125 66.40625 31.78125 66.40625 
z
M 31.78125 74.21875 
Q 44.046875 74.21875 50.515625 64.515625 
Q 56.984375 54.828125 56.984375 36.375 
Q 56.984375 17.96875 50.515625 8.265625 
Q 44.046875 -1.421875 31.78125 -1.421875 
Q 19.53125 -1.421875 13.0625 8.265625 
Q 6.59375 17.96875 6.59375 36.375 
Q 6.59375 54.828125 13.0625 64.515625 
Q 19.53125 74.21875 31.78125 74.21875 
z
" id="DejaVuSans-48"/>
      </defs>
      <g transform="translate(188.50625 319.897812)scale(0.14 -0.14)">
       <use xlink:href="#DejaVuSans-48"/>
      </g>
     </g>
    </g>
    <g id="xtick_4">
     <g id="line2d_4">
      <g>
       <use style="stroke:#000000;stroke-width:1.5;" x="235.008" xlink:href="#m2f593542cd" y="293.76"/>
      </g>
     </g>
     <g id="text_4">
      <!-- 1 -->
      <g transform="translate(230.55425 319.897812)scale(0.14 -0.14)">
       <use xlink:href="#DejaVuSans-49"/>
      </g>
     </g>
    </g>
    <g id="xtick_5">
     <g id="line2d_5">
      <g>
       <use style="stroke:#000000;stroke-width:1.5;" x="277.056" xlink:href="#m2f593542cd" y="293.76"/>
      </g>
     </g>
     <g id="text_5">
      <!-- 2 -->
      <g transform="translate(272.60225 319.897812)scale(0.14 -0.14)">
       <use xlink:href="#DejaVuSans-50"/>
      </g>
     </g>
    </g>
    <g id="xtick_6">
     <g id="line2d_6">
      <g>
       <use style="stroke:#000000;stroke-width:1.5;" x="319.104" xlink:href="#m2f593542cd" y="293.76"/>
      </g>
     </g>
     <g id="text_6">
      <!-- 3 -->
      <defs>
       <path d="M 40.578125 39.3125 
Q 47.65625 37.796875 51.625 33 
Q 55.609375 28.21875 55.609375 21.1875 
Q 55.609375 10.40625 48.1875 4.484375 
Q 40.765625 -1.421875 27.09375 -1.421875 
Q 22.515625 -1.421875 17.65625 -0.515625 
Q 12.796875 0.390625 7.625 2.203125 
L 7.625 11.71875 
Q 11.71875 9.328125 16.59375 8.109375 
Q 21.484375 6.890625 26.8125 6.890625 
Q 36.078125 6.890625 40.9375 10.546875 
Q 45.796875 14.203125 45.796875 21.1875 
Q 45.796875 27.640625 41.28125 31.265625 
Q 36.765625 34.90625 28.71875 34.90625 
L 20.21875 34.90625 
L 20.21875 43.015625 
L 29.109375 43.015625 
Q 36.375 43.015625 40.234375 45.921875 
Q 44.09375 48.828125 44.09375 54.296875 
Q 44.09375 59.90625 40.109375 62.90625 
Q 36.140625 65.921875 28.71875 65.921875 
Q 24.65625 65.921875 20.015625 65.03125 
Q 15.375 64.15625 9.8125 62.3125 
L 9.8125 71.09375 
Q 15.4375 72.65625 20.34375 73.4375 
Q 25.25 74.21875 29.59375 74.21875 
Q 40.828125 74.21875 47.359375 69.109375 
Q 53.90625 64.015625 53.90625 55.328125 
Q 53.90625 49.265625 50.4375 45.09375 
Q 46.96875 40.921875 40.578125 39.3125 
z
" id="DejaVuSans-51"/>
      </defs>
      <g transform="translate(314.65025 319.897812)scale(0.14 -0.14)">
       <use xlink:href="#DejaVuSans-51"/>
      </g>
     </g>
    </g>
    <g id="xtick_7">
     <g id="line2d_7">
      <g>
       <use style="stroke:#000000;stroke-width:1.5;" x="361.152" xlink:href="#m2f593542cd" y="293.76"/>
      </g>
     </g>
     <g id="text_7">
      <!-- 4 -->
      <defs>
       <path d="M 37.796875 64.3125 
L 12.890625 25.390625 
L 37.796875 25.390625 
z
M 35.203125 72.90625 
L 47.609375 72.90625 
L 47.609375 25.390625 
L 58.015625 25.390625 
L 58.015625 17.1875 
L 47.609375 17.1875 
L 47.609375 0 
L 37.796875 0 
L 37.796875 17.1875 
L 4.890625 17.1875 
L 4.890625 26.703125 
z
" id="DejaVuSans-52"/>
      </defs>
      <g transform="translate(356.69825 319.897812)scale(0.14 -0.14)">
       <use xlink:href="#DejaVuSans-52"/>
      </g>
     </g>
    </g>
   </g>
   <g id="matplotlib.axis_2">
    <g id="ytick_1">
     <g id="line2d_8">
      <defs>
       <path d="M 0 0 
L -12 0 
" id="m158940faab" style="stroke:#000000;stroke-width:1.5;"/>
      </defs>
      <g>
       <use style="stroke:#000000;stroke-width:1.5;" x="108.864" xlink:href="#m158940faab" y="293.76"/>
      </g>
     </g>
     <g id="text_8">
      <!-- −2 -->
      <g transform="translate(72.724938 299.078906)scale(0.14 -0.14)">
       <use xlink:href="#DejaVuSans-8722"/>
       <use x="83.789062" xlink:href="#DejaVuSans-50"/>
      </g>
     </g>
    </g>
    <g id="ytick_2">
     <g id="line2d_9">
      <g>
       <use style="stroke:#000000;stroke-width:1.5;" x="108.864" xlink:href="#m158940faab" y="251.712"/>
      </g>
     </g>
     <g id="text_9">
      <!-- −1 -->
      <g transform="translate(72.724938 257.030906)scale(0.14 -0.14)">
       <use xlink:href="#DejaVuSans-8722"/>
       <use x="83.789062" xlink:href="#DejaVuSans-49"/>
      </g>
     </g>
    </g>
    <g id="ytick_3">
     <g id="line2d_10">
      <g>
       <use style="stroke:#000000;stroke-width:1.5;" x="108.864" xlink:href="#m158940faab" y="209.664"/>
      </g>
     </g>
     <g id="text_10">
      <!-- 0 -->
      <g transform="translate(84.4565 214.982906)scale(0.14 -0.14)">
       <use xlink:href="#DejaVuSans-48"/>
      </g>
     </g>
    </g>
    <g id="ytick_4">
     <g id="line2d_11">
      <g>
       <use style="stroke:#000000;stroke-width:1.5;" x="108.864" xlink:href="#m158940faab" y="167.616"/>
      </g>
     </g>
     <g id="text_11">
      <!-- 1 -->
      <g transform="translate(84.4565 172.934906)scale(0.14 -0.14)">
       <use xlink:href="#DejaVuSans-49"/>
      </g>
     </g>
    </g>
    <g id="ytick_5">
     <g id="line2d_12">
      <g>
       <use style="stroke:#000000;stroke-width:1.5;" x="108.864" xlink:href="#m158940faab" y="125.568"/>
      </g>
     </g>
     <g id="text_12">
      <!-- 2 -->
      <g transform="translate(84.4565 130.886906)scale(0.14 -0.14)">
       <use xlink:href="#DejaVuSans-50"/>
      </g>
     </g>
    </g>
    <g id="ytick_6">
     <g id="line2d_13">
      <g>
       <use style="stroke:#000000;stroke-width:1.5;" x="108.864" xlink:href="#m158940faab" y="83.52"/>
      </g>
     </g>
     <g id="text_13">
      <!-- 3 -->
      <g transform="translate(84.4565 88.838906)scale(0.14 -0.14)">
       <use xlink:href="#DejaVuSans-51"/>
      </g>
     </g>
    </g>
    <g id="ytick_7">
     <g id="line2d_14">
      <g>
       <use style="stroke:#000000;stroke-width:1.5;" x="108.864" xlink:href="#m158940faab" y="41.472"/>
      </g>
     </g>
     <g id="text_14">
      <!-- 4 -->
      <g transform="translate(84.4565 46.790906)scale(0.14 -0.14)">
       <use xlink:href="#DejaVuSans-52"/>
      </g>
     </g>
    </g>
   </g>
   <g id="line2d_15">
    <path clip-path="url(#p9d319b7cbc)" d="M 319.104 167.616 
L 318.783989 163.951275 
L 317.826393 160.314441 
L 316.238498 156.733177 
L 314.032391 153.234737 
L 311.22486 149.845747 
L 307.837272 146.592 
L 303.89541 143.498258 
L 299.429273 140.588067 
L 294.472852 137.883574 
L 289.063867 135.405363 
L 283.243484 133.172295 
L 277.056 131.201364 
L 270.548505 129.50757 
L 263.770526 128.103805 
L 256.773646 127.000751 
L 249.611117 126.206804 
L 242.337449 125.728005 
L 235.008 125.568 
L 227.678551 125.728005 
L 220.404883 126.206804 
L 213.242354 127.000751 
L 206.245474 128.103805 
L 199.467495 129.50757 
L 192.96 131.201364 
L 186.772516 133.172295 
L 180.952133 135.405363 
L 175.543148 137.883574 
L 170.586727 140.588067 
L 166.12059 143.498258 
L 162.178728 146.592 
L 158.79114 149.845747 
L 155.983609 153.234737 
L 153.777502 156.733177 
L 152.189607 160.314441 
L 151.232011 163.951275 
L 150.912 167.616 
L 151.232011 171.280725 
L 152.189607 174.917559 
L 153.777502 178.498823 
L 155.983609 181.997263 
L 158.79114 185.386253 
L 162.178728 188.64 
L 166.12059 191.733742 
L 170.586727 194.643933 
L 175.543148 197.348426 
L 180.952133 199.826637 
L 186.772516 202.059705 
L 192.96 204.030636 
L 199.467495 205.72443 
L 206.245474 207.128195 
L 213.242354 208.231249 
L 220.404883 209.025196 
L 227.678551 209.503995 
L 235.008 209.664 
L 242.337449 209.503995 
L 249.611117 209.025196 
L 256.773646 208.231249 
L 263.770526 207.128195 
L 270.548505 205.72443 
L 277.056 204.030636 
L 283.243484 202.059705 
L 289.063867 199.826637 
L 294.472852 197.348426 
L 299.429273 194.643933 
L 303.89541 191.733742 
L 307.837272 188.64 
L 311.22486 185.386253 
L 314.032391 181.997263 
L 316.238498 178.498823 
L 317.826393 174.917559 
L 318.783989 171.280725 
L 319.104 167.616 
" style="fill:none;stroke:#008000;stroke-linecap:square;stroke-width:1.5;"/>
   </g>
   <g id="line2d_16">
    <path clip-path="url(#p9d319b7cbc)" d="M 277.056 167.616 
L 276.895995 160.286551 
L 276.417196 153.012883 
L 275.623249 145.850354 
L 274.520195 138.853474 
L 273.11643 132.075495 
L 271.422636 125.568 
L 269.451705 119.380516 
L 267.218637 113.560133 
L 264.740426 108.151148 
L 262.035933 103.194727 
L 259.125742 98.72859 
L 256.032 94.786728 
L 252.778253 91.39914 
L 249.389263 88.591609 
L 245.890823 86.385502 
L 242.309559 84.797607 
L 238.672725 83.840011 
L 235.008 83.52 
L 231.343275 83.840011 
L 227.706441 84.797607 
L 224.125177 86.385502 
L 220.626737 88.591609 
L 217.237747 91.39914 
L 213.984 94.786728 
L 210.890258 98.72859 
L 207.980067 103.194727 
L 205.275574 108.151148 
L 202.797363 113.560133 
L 200.564295 119.380516 
L 198.593364 125.568 
L 196.89957 132.075495 
L 195.495805 138.853474 
L 194.392751 145.850354 
L 193.598804 153.012883 
L 193.120005 160.286551 
L 192.96 167.616 
L 193.120005 174.945449 
L 193.598804 182.219117 
L 194.392751 189.381646 
L 195.495805 196.378526 
L 196.89957 203.156505 
L 198.593364 209.664 
L 200.564295 215.851484 
L 202.797363 221.671867 
L 205.275574 227.080852 
L 207.980067 232.037273 
L 210.890258 236.50341 
L 213.984 240.445272 
L 217.237747 243.83286 
L 220.626737 246.640391 
L 224.125177 248.846498 
L 227.706441 250.434393 
L 231.343275 251.391989 
L 235.008 251.712 
L 238.672725 251.391989 
L 242.309559 250.434393 
L 245.890823 248.846498 
L 249.389263 246.640391 
L 252.778253 243.83286 
L 256.032 240.445272 
L 259.125742 236.50341 
L 262.035933 232.037273 
L 264.740426 227.080852 
L 267.218637 221.671867 
L 269.451705 215.851484 
L 271.422636 209.664 
L 273.11643 203.156505 
L 274.520195 196.378526 
L 275.623249 189.381646 
L 276.417196 182.219117 
L 276.895995 174.945449 
L 277.056 167.616 
" style="fill:none;stroke:#ff0000;stroke-linecap:square;stroke-width:1.5;"/>
   </g>
   <g id="line2d_17">
    <path clip-path="url(#p9d319b7cbc)" d="M 108.864 167.616 
L 361.152 167.616 
" style="fill:none;stroke:#000000;stroke-linecap:square;stroke-width:0.5;"/>
   </g>
   <g id="line2d_18">
    <path clip-path="url(#p9d319b7cbc)" d="M 235.008 293.76 
L 235.008 41.472 
" style="fill:none;stroke:#000000;stroke-linecap:square;stroke-width:0.5;"/>
   </g>
   <g id="patch_3">
    <path d="M 108.864 293.76 
L 108.864 41.472 
" style="fill:none;stroke:#000000;stroke-linecap:square;stroke-linejoin:miter;stroke-width:1.5;"/>
   </g>
   <g id="patch_4">
    <path d="M 361.152 293.76 
L 361.152 41.472 
" style="fill:none;stroke:#000000;stroke-linecap:square;stroke-linejoin:miter;stroke-width:1.5;"/>
   </g>
   <g id="patch_5">
    <path d="M 108.864 293.76 
L 361.152 293.76 
" style="fill:none;stroke:#000000;stroke-linecap:square;stroke-linejoin:miter;stroke-width:1.5;"/>
   </g>
   <g id="patch_6">
    <path d="M 108.864 41.472 
L 361.152 41.472 
" style="fill:none;stroke:#000000;stroke-linecap:square;stroke-linejoin:miter;stroke-width:1.5;"/>
   </g>
  </g>
 </g>
 <defs>
  <clipPath id="p9d319b7cbc">
   <rect height="252.288" width="252.288" x="108.864" y="41.472"/>
  </clipPath>
 </defs>
</svg>
