<?xml version="1.0" encoding="utf-8" standalone="no"?>
<!DOCTYPE svg PUBLIC "-//W3C//DTD SVG 1.1//EN"
  "http://www.w3.org/Graphics/SVG/1.1/DTD/svg11.dtd">
<!-- Created with matplotlib (https://matplotlib.org/) -->
<svg height="345.6pt" version="1.1" viewBox="0 0 460.8 345.6" width="460.8pt" xmlns="http://www.w3.org/2000/svg" xmlns:xlink="http://www.w3.org/1999/xlink">
 <defs>
  <style type="text/css">
*{stroke-linecap:butt;stroke-linejoin:round;}
  </style>
 </defs>
 <g id="figure_1">
  <g id="patch_1">
   <path d="M 0 345.6 
L 460.8 345.6 
L 460.8 0 
L 0 0 
z
" style="fill:#ffffff;"/>
  </g>
  <g id="axes_1">
   <g id="patch_2">
    <path d="M 108.864 293.76 
L 361.152 293.76 
L 361.152 41.472 
L 108.864 41.472 
z
" style="fill:#ffffff;"/>
   </g>
   <g id="matplotlib.axis_1">
    <g id="xtick_1">
     <g id="line2d_1">
      <defs>
       <path d="M 0 0 
L 0 12 
" id="m3980c38566" style="stroke:#000000;stroke-width:1.5;"/>
      </defs>
      <g>
       <use style="stroke:#000000;stroke-width:1.5;" x="144.905143" xlink:href="#m3980c38566" y="293.76"/>
      </g>
     </g>
     <g id="text_1">
      <!-- −5.0 -->
      <defs>
       <path d="M 10.59375 35.5 
L 73.1875 35.5 
L 73.1875 27.203125 
L 10.59375 27.203125 
z
" id="DejaVuSans-8722"/>
       <path d="M 10.796875 72.90625 
L 49.515625 72.90625 
L 49.515625 64.59375 
L 19.828125 64.59375 
L 19.828125 46.734375 
Q 21.96875 47.46875 24.109375 47.828125 
Q 26.265625 48.1875 28.421875 48.1875 
Q 40.625 48.1875 47.75 41.5 
Q 54.890625 34.8125 54.890625 23.390625 
Q 54.890625 11.625 47.5625 5.09375 
Q 40.234375 -1.421875 26.90625 -1.421875 
Q 22.3125 -1.421875 17.546875 -0.640625 
Q 12.796875 0.140625 7.71875 1.703125 
L 7.71875 11.625 
Q 12.109375 9.234375 16.796875 8.0625 
Q 21.484375 6.890625 26.703125 6.890625 
Q 35.15625 6.890625 40.078125 11.328125 
Q 45.015625 15.765625 45.015625 23.390625 
Q 45.015625 31 40.078125 35.4375 
Q 35.15625 39.890625 26.703125 39.890625 
Q 22.75 39.890625 18.8125 39.015625 
Q 14.890625 38.140625 10.796875 36.28125 
z
" id="DejaVuSans-53"/>
       <path d="M 10.6875 12.40625 
L 21 12.40625 
L 21 0 
L 10.6875 0 
z
" id="DejaVuSans-46"/>
       <path d="M 31.78125 66.40625 
Q 24.171875 66.40625 20.328125 58.90625 
Q 16.5 51.421875 16.5 36.375 
Q 16.5 21.390625 20.328125 13.890625 
Q 24.171875 6.390625 31.78125 6.390625 
Q 39.453125 6.390625 43.28125 13.890625 
Q 47.125 21.390625 47.125 36.375 
Q 47.125 51.421875 43.28125 58.90625 
Q 39.453125 66.40625 31.78125 66.40625 
z
M 31.78125 74.21875 
Q 44.046875 74.21875 50.515625 64.515625 
Q 56.984375 54.828125 56.984375 36.375 
Q 56.984375 17.96875 50.515625 8.265625 
Q 44.046875 -1.421875 31.78125 -1.421875 
Q 19.53125 -1.421875 13.0625 8.265625 
Q 6.59375 17.96875 6.59375 36.375 
Q 6.59375 54.828125 13.0625 64.515625 
Q 19.53125 74.21875 31.78125 74.21875 
z
" id="DejaVuSans-48"/>
      </defs>
      <g transform="translate(127.907174 319.897812)scale(0.14 -0.14)">
       <use xlink:href="#DejaVuSans-8722"/>
       <use x="83.789062" xlink:href="#DejaVuSans-53"/>
       <use x="147.412109" xlink:href="#DejaVuSans-46"/>
       <use x="179.199219" xlink:href="#DejaVuSans-48"/>
      </g>
     </g>
    </g>
    <g id="xtick_2">
     <g id="line2d_2">
      <g>
       <use style="stroke:#000000;stroke-width:1.5;" x="189.956571" xlink:href="#m3980c38566" y="293.76"/>
      </g>
     </g>
     <g id="text_2">
      <!-- −2.5 -->
      <defs>
       <path d="M 19.1875 8.296875 
L 53.609375 8.296875 
L 53.609375 0 
L 7.328125 0 
L 7.328125 8.296875 
Q 12.9375 14.109375 22.625 23.890625 
Q 32.328125 33.6875 34.8125 36.53125 
Q 39.546875 41.84375 41.421875 45.53125 
Q 43.3125 49.21875 43.3125 52.78125 
Q 43.3125 58.59375 39.234375 62.25 
Q 35.15625 65.921875 28.609375 65.921875 
Q 23.96875 65.921875 18.8125 64.3125 
Q 13.671875 62.703125 7.8125 59.421875 
L 7.8125 69.390625 
Q 13.765625 71.78125 18.9375 73 
Q 24.125 74.21875 28.421875 74.21875 
Q 39.75 74.21875 46.484375 68.546875 
Q 53.21875 62.890625 53.21875 53.421875 
Q 53.21875 48.921875 51.53125 44.890625 
Q 49.859375 40.875 45.40625 35.40625 
Q 44.1875 33.984375 37.640625 27.21875 
Q 31.109375 20.453125 19.1875 8.296875 
z
" id="DejaVuSans-50"/>
      </defs>
      <g transform="translate(172.958603 319.897812)scale(0.14 -0.14)">
       <use xlink:href="#DejaVuSans-8722"/>
       <use x="83.789062" xlink:href="#DejaVuSans-50"/>
       <use x="147.412109" xlink:href="#DejaVuSans-46"/>
       <use x="179.199219" xlink:href="#DejaVuSans-53"/>
      </g>
     </g>
    </g>
    <g id="xtick_3">
     <g id="line2d_3">
      <g>
       <use style="stroke:#000000;stroke-width:1.5;" x="235.008" xlink:href="#m3980c38566" y="293.76"/>
      </g>
     </g>
     <g id="text_3">
      <!-- 0.0 -->
      <g transform="translate(223.875812 319.897812)scale(0.14 -0.14)">
       <use xlink:href="#DejaVuSans-48"/>
       <use x="63.623047" xlink:href="#DejaVuSans-46"/>
       <use x="95.410156" xlink:href="#DejaVuSans-48"/>
      </g>
     </g>
    </g>
    <g id="xtick_4">
     <g id="line2d_4">
      <g>
       <use style="stroke:#000000;stroke-width:1.5;" x="280.059429" xlink:href="#m3980c38566" y="293.76"/>
      </g>
     </g>
     <g id="text_4">
      <!-- 2.5 -->
      <g transform="translate(268.927241 319.897812)scale(0.14 -0.14)">
       <use xlink:href="#DejaVuSans-50"/>
       <use x="63.623047" xlink:href="#DejaVuSans-46"/>
       <use x="95.410156" xlink:href="#DejaVuSans-53"/>
      </g>
     </g>
    </g>
    <g id="xtick_5">
     <g id="line2d_5">
      <g>
       <use style="stroke:#000000;stroke-width:1.5;" x="325.110857" xlink:href="#m3980c38566" y="293.76"/>
      </g>
     </g>
     <g id="text_5">
      <!-- 5.0 -->
      <g transform="translate(313.97867 319.897812)scale(0.14 -0.14)">
       <use xlink:href="#DejaVuSans-53"/>
       <use x="63.623047" xlink:href="#DejaVuSans-46"/>
       <use x="95.410156" xlink:href="#DejaVuSans-48"/>
      </g>
     </g>
    </g>
   </g>
   <g id="matplotlib.axis_2">
    <g id="ytick_1">
     <g id="line2d_6">
      <defs>
       <path d="M 0 0 
L -12 0 
" id="m48f3f433c1" style="stroke:#000000;stroke-width:1.5;"/>
      </defs>
      <g>
       <use style="stroke:#000000;stroke-width:1.5;" x="108.864" xlink:href="#m48f3f433c1" y="275.739429"/>
      </g>
     </g>
     <g id="text_6">
      <!-- −6 -->
      <defs>
       <path d="M 33.015625 40.375 
Q 26.375 40.375 22.484375 35.828125 
Q 18.609375 31.296875 18.609375 23.390625 
Q 18.609375 15.53125 22.484375 10.953125 
Q 26.375 6.390625 33.015625 6.390625 
Q 39.65625 6.390625 43.53125 10.953125 
Q 47.40625 15.53125 47.40625 23.390625 
Q 47.40625 31.296875 43.53125 35.828125 
Q 39.65625 40.375 33.015625 40.375 
z
M 52.59375 71.296875 
L 52.59375 62.3125 
Q 48.875 64.0625 45.09375 64.984375 
Q 41.3125 65.921875 37.59375 65.921875 
Q 27.828125 65.921875 22.671875 59.328125 
Q 17.53125 52.734375 16.796875 39.40625 
Q 19.671875 43.65625 24.015625 45.921875 
Q 28.375 48.1875 33.59375 48.1875 
Q 44.578125 48.1875 50.953125 41.515625 
Q 57.328125 34.859375 57.328125 23.390625 
Q 57.328125 12.15625 50.6875 5.359375 
Q 44.046875 -1.421875 33.015625 -1.421875 
Q 20.359375 -1.421875 13.671875 8.265625 
Q 6.984375 17.96875 6.984375 36.375 
Q 6.984375 53.65625 15.1875 63.9375 
Q 23.390625 74.21875 37.203125 74.21875 
Q 40.921875 74.21875 44.703125 73.484375 
Q 48.484375 72.75 52.59375 71.296875 
z
" id="DejaVuSans-54"/>
      </defs>
      <g transform="translate(72.724938 281.058335)scale(0.14 -0.14)">
       <use xlink:href="#DejaVuSans-8722"/>
       <use x="83.789062" xlink:href="#DejaVuSans-54"/>
      </g>
     </g>
    </g>
    <g id="ytick_2">
     <g id="line2d_7">
      <g>
       <use style="stroke:#000000;stroke-width:1.5;" x="108.864" xlink:href="#m48f3f433c1" y="239.698286"/>
      </g>
     </g>
     <g id="text_7">
      <!-- −4 -->
      <defs>
       <path d="M 37.796875 64.3125 
L 12.890625 25.390625 
L 37.796875 25.390625 
z
M 35.203125 72.90625 
L 47.609375 72.90625 
L 47.609375 25.390625 
L 58.015625 25.390625 
L 58.015625 17.1875 
L 47.609375 17.1875 
L 47.609375 0 
L 37.796875 0 
L 37.796875 17.1875 
L 4.890625 17.1875 
L 4.890625 26.703125 
z
" id="DejaVuSans-52"/>
      </defs>
      <g transform="translate(72.724938 245.017192)scale(0.14 -0.14)">
       <use xlink:href="#DejaVuSans-8722"/>
       <use x="83.789062" xlink:href="#DejaVuSans-52"/>
      </g>
     </g>
    </g>
    <g id="ytick_3">
     <g id="line2d_8">
      <g>
       <use style="stroke:#000000;stroke-width:1.5;" x="108.864" xlink:href="#m48f3f433c1" y="203.657143"/>
      </g>
     </g>
     <g id="text_8">
      <!-- −2 -->
      <g transform="translate(72.724938 208.976049)scale(0.14 -0.14)">
       <use xlink:href="#DejaVuSans-8722"/>
       <use x="83.789062" xlink:href="#DejaVuSans-50"/>
      </g>
     </g>
    </g>
    <g id="ytick_4">
     <g id="line2d_9">
      <g>
       <use style="stroke:#000000;stroke-width:1.5;" x="108.864" xlink:href="#m48f3f433c1" y="167.616"/>
      </g>
     </g>
     <g id="text_9">
      <!-- 0 -->
      <g transform="translate(84.4565 172.934906)scale(0.14 -0.14)">
       <use xlink:href="#DejaVuSans-48"/>
      </g>
     </g>
    </g>
    <g id="ytick_5">
     <g id="line2d_10">
      <g>
       <use style="stroke:#000000;stroke-width:1.5;" x="108.864" xlink:href="#m48f3f433c1" y="131.574857"/>
      </g>
     </g>
     <g id="text_10">
      <!-- 2 -->
      <g transform="translate(84.4565 136.893763)scale(0.14 -0.14)">
       <use xlink:href="#DejaVuSans-50"/>
      </g>
     </g>
    </g>
    <g id="ytick_6">
     <g id="line2d_11">
      <g>
       <use style="stroke:#000000;stroke-width:1.5;" x="108.864" xlink:href="#m48f3f433c1" y="95.533714"/>
      </g>
     </g>
     <g id="text_11">
      <!-- 4 -->
      <g transform="translate(84.4565 100.852621)scale(0.14 -0.14)">
       <use xlink:href="#DejaVuSans-52"/>
      </g>
     </g>
    </g>
    <g id="ytick_7">
     <g id="line2d_12">
      <g>
       <use style="stroke:#000000;stroke-width:1.5;" x="108.864" xlink:href="#m48f3f433c1" y="59.492571"/>
      </g>
     </g>
     <g id="text_12">
      <!-- 6 -->
      <g transform="translate(84.4565 64.811478)scale(0.14 -0.14)">
       <use xlink:href="#DejaVuSans-54"/>
      </g>
     </g>
    </g>
   </g>
   <g id="line2d_13">
    <path clip-path="url(#pecaad89f32)" d="M 343.131429 167.616 
L 341.488791 148.840564 
L 336.610788 130.635609 
L 328.645636 113.554286 
L 317.835352 98.1156 
L 304.5084 84.788648 
L 289.069714 73.978364 
L 271.988391 66.013212 
L 253.783436 61.135209 
L 235.008 59.492571 
L 216.232564 61.135209 
L 198.027609 66.013212 
L 180.946286 73.978364 
L 165.5076 84.788648 
L 152.180648 98.1156 
L 141.370364 113.554286 
L 133.405212 130.635609 
L 128.527209 148.840564 
L 126.884571 167.616 
L 128.527209 186.391436 
L 133.405212 204.596391 
L 141.370364 221.677714 
L 152.180648 237.1164 
L 165.5076 250.443352 
L 180.946286 261.253636 
L 198.027609 269.218788 
L 216.232564 274.096791 
L 235.008 275.739429 
L 253.783436 274.096791 
L 271.988391 269.218788 
L 289.069714 261.253636 
L 304.5084 250.443352 
L 317.835352 237.1164 
L 328.645636 221.677714 
L 336.610788 204.596391 
L 341.488791 186.391436 
L 343.131429 167.616 
" style="fill:none;stroke:#1f77b4;stroke-linecap:square;stroke-width:1.5;"/>
   </g>
   <g id="line2d_14">
    <path clip-path="url(#pecaad89f32)" d="M 278.257371 122.564571 
L 277.928844 117.870712 
L 276.953243 113.319474 
L 275.360213 109.049143 
L 273.198156 105.189471 
L 270.532766 101.857734 
L 267.445029 99.155162 
L 264.028764 97.163874 
L 260.387773 95.944374 
L 256.632686 95.533714 
L 252.877598 95.944374 
L 249.236608 97.163874 
L 245.820343 99.155162 
L 242.732606 101.857734 
L 240.067215 105.189471 
L 237.905159 109.049143 
L 236.312128 113.319474 
L 235.336528 117.870712 
L 235.008 122.564571 
L 235.336528 127.258431 
L 236.312128 131.809669 
L 237.905159 136.08 
L 240.067215 139.939671 
L 242.732606 143.271409 
L 245.820343 145.97398 
L 249.236608 147.965268 
L 252.877598 149.184769 
L 256.632686 149.595429 
L 260.387773 149.184769 
L 264.028764 147.965268 
L 267.445029 145.97398 
L 270.532766 143.271409 
L 273.198156 139.939671 
L 275.360213 136.08 
L 276.953243 131.809669 
L 277.928844 127.258431 
L 278.257371 122.564571 
" style="fill:none;stroke:#000000;stroke-linecap:square;stroke-width:1.5;"/>
   </g>
   <g id="line2d_15">
    <path clip-path="url(#pecaad89f32)" d="M 235.008 122.564571 
L 234.679472 117.870712 
L 233.703872 113.319474 
L 232.110841 109.049143 
L 229.948785 105.189471 
L 227.283394 101.857734 
L 224.195657 99.155162 
L 220.779392 97.163874 
L 217.138402 95.944374 
L 213.383314 95.533714 
L 209.628227 95.944374 
L 205.987236 97.163874 
L 202.570971 99.155162 
L 199.483234 101.857734 
L 196.817844 105.189471 
L 194.655787 109.049143 
L 193.062757 113.319474 
L 192.087156 117.870712 
L 191.758629 122.564571 
L 192.087156 127.258431 
L 193.062757 131.809669 
L 194.655787 136.08 
L 196.817844 139.939671 
L 199.483234 143.271409 
L 202.570971 145.97398 
L 205.987236 147.965268 
L 209.628227 149.184769 
L 213.383314 149.595429 
L 217.138402 149.184769 
L 220.779392 147.965268 
L 224.195657 145.97398 
L 227.283394 143.271409 
L 229.948785 139.939671 
L 232.110841 136.08 
L 233.703872 131.809669 
L 234.679472 127.258431 
L 235.008 122.564571 
" style="fill:none;stroke:#000000;stroke-linecap:square;stroke-width:1.5;"/>
   </g>
   <g id="line2d_16">
    <path clip-path="url(#pecaad89f32)" d="M 244.018286 147.793371 
L 243.881399 146.228752 
L 243.474899 144.711672 
L 242.811136 143.288229 
L 241.910279 142.001671 
L 240.7997 140.891092 
L 239.513143 139.990235 
L 238.089699 139.326472 
L 236.57262 138.919972 
L 235.008 138.783086 
L 233.44338 138.919972 
L 231.926301 139.326472 
L 230.502857 139.990235 
L 229.2163 140.891092 
L 228.105721 142.001671 
L 227.204864 143.288229 
L 226.541101 144.711672 
L 226.134601 146.228752 
L 225.997714 147.793371 
L 226.134601 149.357991 
L 226.541101 150.875071 
L 227.204864 152.298514 
L 228.105721 153.585071 
L 229.2163 154.695651 
L 230.502857 155.596508 
L 231.926301 156.26027 
L 233.44338 156.666771 
L 235.008 156.803657 
L 236.57262 156.666771 
L 238.089699 156.26027 
L 239.513143 155.596508 
L 240.7997 154.695651 
L 241.910279 153.585071 
L 242.811136 152.298514 
L 243.474899 150.875071 
L 243.881399 149.357991 
L 244.018286 147.793371 
" style="fill:none;stroke:#ff0000;stroke-linecap:square;stroke-width:1.5;"/>
   </g>
   <g id="line2d_17">
    <path clip-path="url(#pecaad89f32)" d="M 325.110857 194.646857 
L 323.741992 180.56528 
L 319.67699 166.911564 
L 313.039363 154.100571 
L 304.030793 142.521557 
L 292.925 132.526343 
L 280.059429 124.41863 
L 265.824992 118.444766 
L 250.654197 114.786264 
L 235.008 113.554286 
L 219.361803 114.786264 
L 204.191008 118.444766 
L 189.956571 124.41863 
L 177.091 132.526343 
L 165.985207 142.521557 
L 156.976637 154.100571 
L 150.33901 166.911564 
L 146.274008 180.56528 
L 144.905143 194.646857 
L 146.274008 208.728434 
L 150.33901 222.38215 
L 156.976637 235.193143 
L 165.985207 246.772157 
L 177.091 256.767371 
L 189.956571 264.875084 
L 204.191008 270.848948 
L 219.361803 274.50745 
L 235.008 275.739429 
L 250.654197 274.50745 
L 265.824992 270.848948 
L 280.059429 264.875084 
L 292.925 256.767371 
L 304.030793 246.772157 
L 313.039363 235.193143 
L 319.67699 222.38215 
L 323.741992 208.728434 
L 325.110857 194.646857 
" style="fill:none;stroke:#000000;stroke-linecap:square;stroke-width:1.5;"/>
   </g>
   <g id="line2d_18">
    <path clip-path="url(#pecaad89f32)" d="M 253.028571 124.366629 
L 252.891685 122.802009 
L 252.485185 121.284929 
L 251.821422 119.861486 
L 250.920565 118.574929 
L 249.809986 117.464349 
L 248.523429 116.563492 
L 247.099985 115.89973 
L 245.582905 115.493229 
L 244.018286 115.356343 
L 242.453666 115.493229 
L 240.936587 115.89973 
L 239.513143 116.563492 
L 238.226586 117.464349 
L 237.116006 118.574929 
L 236.215149 119.861486 
L 235.551387 121.284929 
L 235.144886 122.802009 
L 235.008 124.366629 
L 235.144886 125.931248 
L 235.551387 127.448328 
L 236.215149 128.871771 
L 237.116006 130.158329 
L 238.226586 131.268908 
L 239.513143 132.169765 
L 240.936587 132.833528 
L 242.453666 133.240028 
L 244.018286 133.376914 
L 245.582905 133.240028 
L 247.099985 132.833528 
L 248.523429 132.169765 
L 249.809986 131.268908 
L 250.920565 130.158329 
L 251.821422 128.871771 
L 252.485185 127.448328 
L 252.891685 125.931248 
L 253.028571 124.366629 
" style="fill:none;stroke:#000000;stroke-linecap:square;stroke-width:1.5;"/>
   </g>
   <g id="line2d_19">
    <path clip-path="url(#pecaad89f32)" d="M 235.008 124.366629 
L 234.871114 122.802009 
L 234.464613 121.284929 
L 233.800851 119.861486 
L 232.899994 118.574929 
L 231.789414 117.464349 
L 230.502857 116.563492 
L 229.079413 115.89973 
L 227.562334 115.493229 
L 225.997714 115.356343 
L 224.433095 115.493229 
L 222.916015 115.89973 
L 221.492571 116.563492 
L 220.206014 117.464349 
L 219.095435 118.574929 
L 218.194578 119.861486 
L 217.530815 121.284929 
L 217.124315 122.802009 
L 216.987429 124.366629 
L 217.124315 125.931248 
L 217.530815 127.448328 
L 218.194578 128.871771 
L 219.095435 130.158329 
L 220.206014 131.268908 
L 221.492571 132.169765 
L 222.916015 132.833528 
L 224.433095 133.240028 
L 225.997714 133.376914 
L 227.562334 133.240028 
L 229.079413 132.833528 
L 230.502857 132.169765 
L 231.789414 131.268908 
L 232.899994 130.158329 
L 233.800851 128.871771 
L 234.464613 127.448328 
L 234.871114 125.931248 
L 235.008 124.366629 
" style="fill:none;stroke:#000000;stroke-linecap:square;stroke-width:1.5;"/>
   </g>
   <g id="line2d_20">
    <path clip-path="url(#pecaad89f32)" d="M 193.560686 201.566757 
L 202.570971 216.343625 
L 211.581257 227.516379 
L 220.591543 235.085019 
L 229.601829 239.049545 
L 238.612114 239.409957 
L 247.6224 236.166254 
L 256.632686 229.318437 
L 265.642971 218.866505 
L 274.653257 204.810459 
" style="fill:none;stroke:#000000;stroke-linecap:square;stroke-width:1.5;"/>
   </g>
   <g id="line2d_21">
    <path clip-path="url(#pecaad89f32)" d="M 126.884571 156.803657 
L 128.686629 157.344274 
L 130.488686 157.884891 
L 132.290743 158.425509 
L 134.0928 158.966126 
L 135.894857 159.506743 
L 137.696914 160.04736 
L 139.498971 160.587977 
L 141.301029 161.128594 
L 143.103086 161.669211 
L 144.905143 162.209829 
L 146.7072 162.750446 
L 148.509257 163.291063 
L 150.311314 163.83168 
L 152.113371 164.372297 
L 153.915429 164.912914 
L 155.717486 165.453531 
L 157.519543 165.994149 
L 159.3216 166.534766 
L 161.123657 167.075383 
L 162.925714 167.616 
L 164.727771 168.156617 
L 166.529829 168.697234 
L 168.331886 169.237851 
L 170.133943 169.778469 
L 171.936 170.319086 
L 173.738057 170.859703 
L 175.540114 171.40032 
L 177.342171 171.940937 
L 179.144229 172.481554 
L 180.946286 173.022171 
" style="fill:none;stroke:#000000;stroke-linecap:square;stroke-width:1.5;"/>
   </g>
   <g id="line2d_22">
    <path clip-path="url(#pecaad89f32)" d="M 289.069714 178.428343 
L 290.871771 177.887726 
L 292.673829 177.347109 
L 294.475886 176.806491 
L 296.277943 176.265874 
L 298.08 175.725257 
L 299.882057 175.18464 
L 301.684114 174.644023 
L 303.486171 174.103406 
L 305.288229 173.562789 
L 307.090286 173.022171 
L 308.892343 172.481554 
L 310.6944 171.940937 
L 312.496457 171.40032 
L 314.298514 170.859703 
L 316.100571 170.319086 
L 317.902629 169.778469 
L 319.704686 169.237851 
L 321.506743 168.697234 
L 323.3088 168.156617 
L 325.110857 167.616 
L 326.912914 167.075383 
L 328.714971 166.534766 
L 330.517029 165.994149 
L 332.319086 165.453531 
L 334.121143 164.912914 
L 335.9232 164.372297 
L 337.725257 163.83168 
L 339.527314 163.291063 
L 341.329371 162.750446 
L 343.131429 162.209829 
" style="fill:none;stroke:#000000;stroke-linecap:square;stroke-width:1.5;"/>
   </g>
   <g id="line2d_23">
    <path clip-path="url(#pecaad89f32)" d="M 126.884571 203.657143 
L 128.686629 203.657143 
L 130.488686 203.657143 
L 132.290743 203.657143 
L 134.0928 203.657143 
L 135.894857 203.657143 
L 137.696914 203.657143 
L 139.498971 203.657143 
L 141.301029 203.657143 
L 143.103086 203.657143 
L 144.905143 203.657143 
L 146.7072 203.657143 
L 148.509257 203.657143 
L 150.311314 203.657143 
L 152.113371 203.657143 
L 153.915429 203.657143 
L 155.717486 203.657143 
L 157.519543 203.657143 
L 159.3216 203.657143 
L 161.123657 203.657143 
L 162.925714 203.657143 
L 164.727771 203.657143 
L 166.529829 203.657143 
L 168.331886 203.657143 
L 170.133943 203.657143 
L 171.936 203.657143 
L 173.738057 203.657143 
L 175.540114 203.657143 
L 177.342171 203.657143 
L 179.144229 203.657143 
L 180.946286 203.657143 
" style="fill:none;stroke:#000000;stroke-linecap:square;stroke-width:1.5;"/>
   </g>
   <g id="line2d_24">
    <path clip-path="url(#pecaad89f32)" d="M 289.069714 203.657143 
L 290.871771 203.657143 
L 292.673829 203.657143 
L 294.475886 203.657143 
L 296.277943 203.657143 
L 298.08 203.657143 
L 299.882057 203.657143 
L 301.684114 203.657143 
L 303.486171 203.657143 
L 305.288229 203.657143 
L 307.090286 203.657143 
L 308.892343 203.657143 
L 310.6944 203.657143 
L 312.496457 203.657143 
L 314.298514 203.657143 
L 316.100571 203.657143 
L 317.902629 203.657143 
L 319.704686 203.657143 
L 321.506743 203.657143 
L 323.3088 203.657143 
L 325.110857 203.657143 
L 326.912914 203.657143 
L 328.714971 203.657143 
L 330.517029 203.657143 
L 332.319086 203.657143 
L 334.121143 203.657143 
L 335.9232 203.657143 
L 337.725257 203.657143 
L 339.527314 203.657143 
L 341.329371 203.657143 
L 343.131429 203.657143 
" style="fill:none;stroke:#000000;stroke-linecap:square;stroke-width:1.5;"/>
   </g>
   <g id="line2d_25">
    <path clip-path="url(#pecaad89f32)" d="M 126.884571 182.032457 
L 128.686629 182.392869 
L 130.488686 182.75328 
L 132.290743 183.113691 
L 134.0928 183.474103 
L 135.894857 183.834514 
L 137.696914 184.194926 
L 139.498971 184.555337 
L 141.301029 184.915749 
L 143.103086 185.27616 
L 144.905143 185.636571 
L 146.7072 185.996983 
L 148.509257 186.357394 
L 150.311314 186.717806 
L 152.113371 187.078217 
L 153.915429 187.438629 
L 155.717486 187.79904 
L 157.519543 188.159451 
L 159.3216 188.519863 
L 161.123657 188.880274 
L 162.925714 189.240686 
L 164.727771 189.601097 
L 166.529829 189.961509 
L 168.331886 190.32192 
L 170.133943 190.682331 
L 171.936 191.042743 
L 173.738057 191.403154 
L 175.540114 191.763566 
L 177.342171 192.123977 
L 179.144229 192.484389 
L 180.946286 192.8448 
" style="fill:none;stroke:#000000;stroke-linecap:square;stroke-width:1.5;"/>
   </g>
   <g id="line2d_26">
    <path clip-path="url(#pecaad89f32)" d="M 289.069714 196.448914 
L 290.871771 196.088503 
L 292.673829 195.728091 
L 294.475886 195.36768 
L 296.277943 195.007269 
L 298.08 194.646857 
L 299.882057 194.286446 
L 301.684114 193.926034 
L 303.486171 193.565623 
L 305.288229 193.205211 
L 307.090286 192.8448 
L 308.892343 192.484389 
L 310.6944 192.123977 
L 312.496457 191.763566 
L 314.298514 191.403154 
L 316.100571 191.042743 
L 317.902629 190.682331 
L 319.704686 190.32192 
L 321.506743 189.961509 
L 323.3088 189.601097 
L 325.110857 189.240686 
L 326.912914 188.880274 
L 328.714971 188.519863 
L 330.517029 188.159451 
L 332.319086 187.79904 
L 334.121143 187.438629 
L 335.9232 187.078217 
L 337.725257 186.717806 
L 339.527314 186.357394 
L 341.329371 185.996983 
L 343.131429 185.636571 
" style="fill:none;stroke:#000000;stroke-linecap:square;stroke-width:1.5;"/>
   </g>
   <g id="line2d_27">
    <path clip-path="url(#pecaad89f32)" d="M 235.008 156.803657 
L 235.008 239.698286 
L 235.008 239.698286 
" style="fill:none;stroke:#000000;stroke-linecap:square;stroke-width:1.5;"/>
   </g>
   <g id="patch_3">
    <path d="M 108.864 293.76 
L 108.864 41.472 
" style="fill:none;stroke:#000000;stroke-linecap:square;stroke-linejoin:miter;stroke-width:1.5;"/>
   </g>
   <g id="patch_4">
    <path d="M 361.152 293.76 
L 361.152 41.472 
" style="fill:none;stroke:#000000;stroke-linecap:square;stroke-linejoin:miter;stroke-width:1.5;"/>
   </g>
   <g id="patch_5">
    <path d="M 108.864 293.76 
L 361.152 293.76 
" style="fill:none;stroke:#000000;stroke-linecap:square;stroke-linejoin:miter;stroke-width:1.5;"/>
   </g>
   <g id="patch_6">
    <path d="M 108.864 41.472 
L 361.152 41.472 
" style="fill:none;stroke:#000000;stroke-linecap:square;stroke-linejoin:miter;stroke-width:1.5;"/>
   </g>
  </g>
 </g>
 <defs>
  <clipPath id="pecaad89f32">
   <rect height="252.288" width="252.288" x="108.864" y="41.472"/>
  </clipPath>
 </defs>
</svg>
