<?xml version="1.0" encoding="utf-8" standalone="no"?>
<!DOCTYPE svg PUBLIC "-//W3C//DTD SVG 1.1//EN"
  "http://www.w3.org/Graphics/SVG/1.1/DTD/svg11.dtd">
<!-- Created with matplotlib (https://matplotlib.org/) -->
<svg height="345.6pt" version="1.1" viewBox="0 0 460.8 345.6" width="460.8pt" xmlns="http://www.w3.org/2000/svg" xmlns:xlink="http://www.w3.org/1999/xlink">
 <defs>
  <style type="text/css">
*{stroke-linecap:butt;stroke-linejoin:round;}
  </style>
 </defs>
 <g id="figure_1">
  <g id="patch_1">
   <path d="M 0 345.6 
L 460.8 345.6 
L 460.8 0 
L 0 0 
z
" style="fill:#ffffff;"/>
  </g>
  <g id="axes_1">
   <g id="patch_2">
    <path d="M 105.45986 293.76 
L 364.55614 293.76 
L 364.55614 41.472 
L 105.45986 41.472 
z
" style="fill:#ffffff;"/>
   </g>
   <g id="matplotlib.axis_1">
    <g id="xtick_1">
     <g id="line2d_1">
      <defs>
       <path d="M 0 0 
L 0 12 
" id="m09bc0ae598" style="stroke:#000000;stroke-width:1.5;"/>
      </defs>
      <g>
       <use style="stroke:#000000;stroke-width:1.5;" x="117.236963" xlink:href="#m09bc0ae598" y="293.76"/>
      </g>
     </g>
     <g id="text_1">
      <!-- −2 -->
      <defs>
       <path d="M 10.59375 35.5 
L 73.1875 35.5 
L 73.1875 27.203125 
L 10.59375 27.203125 
z
" id="DejaVuSans-8722"/>
       <path d="M 19.1875 8.296875 
L 53.609375 8.296875 
L 53.609375 0 
L 7.328125 0 
L 7.328125 8.296875 
Q 12.9375 14.109375 22.625 23.890625 
Q 32.328125 33.6875 34.8125 36.53125 
Q 39.546875 41.84375 41.421875 45.53125 
Q 43.3125 49.21875 43.3125 52.78125 
Q 43.3125 58.59375 39.234375 62.25 
Q 35.15625 65.921875 28.609375 65.921875 
Q 23.96875 65.921875 18.8125 64.3125 
Q 13.671875 62.703125 7.8125 59.421875 
L 7.8125 69.390625 
Q 13.765625 71.78125 18.9375 73 
Q 24.125 74.21875 28.421875 74.21875 
Q 39.75 74.21875 46.484375 68.546875 
Q 53.21875 62.890625 53.21875 53.421875 
Q 53.21875 48.921875 51.53125 44.890625 
Q 49.859375 40.875 45.40625 35.40625 
Q 44.1875 33.984375 37.640625 27.21875 
Q 31.109375 20.453125 19.1875 8.296875 
z
" id="DejaVuSans-50"/>
      </defs>
      <g transform="translate(106.917432 319.897812)scale(0.14 -0.14)">
       <use xlink:href="#DejaVuSans-8722"/>
       <use x="83.789062" xlink:href="#DejaVuSans-50"/>
      </g>
     </g>
    </g>
    <g id="xtick_2">
     <g id="line2d_2">
      <g>
       <use style="stroke:#000000;stroke-width:1.5;" x="176.122482" xlink:href="#m09bc0ae598" y="293.76"/>
      </g>
     </g>
     <g id="text_2">
      <!-- −1 -->
      <defs>
       <path d="M 12.40625 8.296875 
L 28.515625 8.296875 
L 28.515625 63.921875 
L 10.984375 60.40625 
L 10.984375 69.390625 
L 28.421875 72.90625 
L 38.28125 72.90625 
L 38.28125 8.296875 
L 54.390625 8.296875 
L 54.390625 0 
L 12.40625 0 
z
" id="DejaVuSans-49"/>
      </defs>
      <g transform="translate(165.80295 319.897812)scale(0.14 -0.14)">
       <use xlink:href="#DejaVuSans-8722"/>
       <use x="83.789062" xlink:href="#DejaVuSans-49"/>
      </g>
     </g>
    </g>
    <g id="xtick_3">
     <g id="line2d_3">
      <g>
       <use style="stroke:#000000;stroke-width:1.5;" x="235.008" xlink:href="#m09bc0ae598" y="293.76"/>
      </g>
     </g>
     <g id="text_3">
      <!-- 0 -->
      <defs>
       <path d="M 31.78125 66.40625 
Q 24.171875 66.40625 20.328125 58.90625 
Q 16.5 51.421875 16.5 36.375 
Q 16.5 21.390625 20.328125 13.890625 
Q 24.171875 6.390625 31.78125 6.390625 
Q 39.453125 6.390625 43.28125 13.890625 
Q 47.125 21.390625 47.125 36.375 
Q 47.125 51.421875 43.28125 58.90625 
Q 39.453125 66.40625 31.78125 66.40625 
z
M 31.78125 74.21875 
Q 44.046875 74.21875 50.515625 64.515625 
Q 56.984375 54.828125 56.984375 36.375 
Q 56.984375 17.96875 50.515625 8.265625 
Q 44.046875 -1.421875 31.78125 -1.421875 
Q 19.53125 -1.421875 13.0625 8.265625 
Q 6.59375 17.96875 6.59375 36.375 
Q 6.59375 54.828125 13.0625 64.515625 
Q 19.53125 74.21875 31.78125 74.21875 
z
" id="DejaVuSans-48"/>
      </defs>
      <g transform="translate(230.55425 319.897812)scale(0.14 -0.14)">
       <use xlink:href="#DejaVuSans-48"/>
      </g>
     </g>
    </g>
    <g id="xtick_4">
     <g id="line2d_4">
      <g>
       <use style="stroke:#000000;stroke-width:1.5;" x="293.893518" xlink:href="#m09bc0ae598" y="293.76"/>
      </g>
     </g>
     <g id="text_4">
      <!-- 1 -->
      <g transform="translate(289.439768 319.897812)scale(0.14 -0.14)">
       <use xlink:href="#DejaVuSans-49"/>
      </g>
     </g>
    </g>
    <g id="xtick_5">
     <g id="line2d_5">
      <g>
       <use style="stroke:#000000;stroke-width:1.5;" x="352.779037" xlink:href="#m09bc0ae598" y="293.76"/>
      </g>
     </g>
     <g id="text_5">
      <!-- 2 -->
      <g transform="translate(348.325287 319.897812)scale(0.14 -0.14)">
       <use xlink:href="#DejaVuSans-50"/>
      </g>
     </g>
    </g>
   </g>
   <g id="matplotlib.axis_2">
    <g id="ytick_1">
     <g id="line2d_6">
      <defs>
       <path d="M 0 0 
L -12 0 
" id="m4da5c02ec8" style="stroke:#000000;stroke-width:1.5;"/>
      </defs>
      <g>
       <use style="stroke:#000000;stroke-width:1.5;" x="105.45986" xlink:href="#m4da5c02ec8" y="285.387037"/>
      </g>
     </g>
     <g id="text_6">
      <!-- −2.0 -->
      <defs>
       <path d="M 10.6875 12.40625 
L 21 12.40625 
L 21 0 
L 10.6875 0 
z
" id="DejaVuSans-46"/>
      </defs>
      <g transform="translate(55.963922 290.705943)scale(0.14 -0.14)">
       <use xlink:href="#DejaVuSans-8722"/>
       <use x="83.789062" xlink:href="#DejaVuSans-50"/>
       <use x="147.412109" xlink:href="#DejaVuSans-46"/>
       <use x="179.199219" xlink:href="#DejaVuSans-48"/>
      </g>
     </g>
    </g>
    <g id="ytick_2">
     <g id="line2d_7">
      <g>
       <use style="stroke:#000000;stroke-width:1.5;" x="105.45986" xlink:href="#m4da5c02ec8" y="255.944277"/>
      </g>
     </g>
     <g id="text_7">
      <!-- −1.5 -->
      <defs>
       <path d="M 10.796875 72.90625 
L 49.515625 72.90625 
L 49.515625 64.59375 
L 19.828125 64.59375 
L 19.828125 46.734375 
Q 21.96875 47.46875 24.109375 47.828125 
Q 26.265625 48.1875 28.421875 48.1875 
Q 40.625 48.1875 47.75 41.5 
Q 54.890625 34.8125 54.890625 23.390625 
Q 54.890625 11.625 47.5625 5.09375 
Q 40.234375 -1.421875 26.90625 -1.421875 
Q 22.3125 -1.421875 17.546875 -0.640625 
Q 12.796875 0.140625 7.71875 1.703125 
L 7.71875 11.625 
Q 12.109375 9.234375 16.796875 8.0625 
Q 21.484375 6.890625 26.703125 6.890625 
Q 35.15625 6.890625 40.078125 11.328125 
Q 45.015625 15.765625 45.015625 23.390625 
Q 45.015625 31 40.078125 35.4375 
Q 35.15625 39.890625 26.703125 39.890625 
Q 22.75 39.890625 18.8125 39.015625 
Q 14.890625 38.140625 10.796875 36.28125 
z
" id="DejaVuSans-53"/>
      </defs>
      <g transform="translate(55.963922 261.263184)scale(0.14 -0.14)">
       <use xlink:href="#DejaVuSans-8722"/>
       <use x="83.789062" xlink:href="#DejaVuSans-49"/>
       <use x="147.412109" xlink:href="#DejaVuSans-46"/>
       <use x="179.199219" xlink:href="#DejaVuSans-53"/>
      </g>
     </g>
    </g>
    <g id="ytick_3">
     <g id="line2d_8">
      <g>
       <use style="stroke:#000000;stroke-width:1.5;" x="105.45986" xlink:href="#m4da5c02ec8" y="226.501518"/>
      </g>
     </g>
     <g id="text_8">
      <!-- −1.0 -->
      <g transform="translate(55.963922 231.820425)scale(0.14 -0.14)">
       <use xlink:href="#DejaVuSans-8722"/>
       <use x="83.789062" xlink:href="#DejaVuSans-49"/>
       <use x="147.412109" xlink:href="#DejaVuSans-46"/>
       <use x="179.199219" xlink:href="#DejaVuSans-48"/>
      </g>
     </g>
    </g>
    <g id="ytick_4">
     <g id="line2d_9">
      <g>
       <use style="stroke:#000000;stroke-width:1.5;" x="105.45986" xlink:href="#m4da5c02ec8" y="197.058759"/>
      </g>
     </g>
     <g id="text_9">
      <!-- −0.5 -->
      <g transform="translate(55.963922 202.377665)scale(0.14 -0.14)">
       <use xlink:href="#DejaVuSans-8722"/>
       <use x="83.789062" xlink:href="#DejaVuSans-48"/>
       <use x="147.412109" xlink:href="#DejaVuSans-46"/>
       <use x="179.199219" xlink:href="#DejaVuSans-53"/>
      </g>
     </g>
    </g>
    <g id="ytick_5">
     <g id="line2d_10">
      <g>
       <use style="stroke:#000000;stroke-width:1.5;" x="105.45986" xlink:href="#m4da5c02ec8" y="167.616"/>
      </g>
     </g>
     <g id="text_10">
      <!-- 0.0 -->
      <g transform="translate(67.695485 172.934906)scale(0.14 -0.14)">
       <use xlink:href="#DejaVuSans-48"/>
       <use x="63.623047" xlink:href="#DejaVuSans-46"/>
       <use x="95.410156" xlink:href="#DejaVuSans-48"/>
      </g>
     </g>
    </g>
    <g id="ytick_6">
     <g id="line2d_11">
      <g>
       <use style="stroke:#000000;stroke-width:1.5;" x="105.45986" xlink:href="#m4da5c02ec8" y="138.173241"/>
      </g>
     </g>
     <g id="text_11">
      <!-- 0.5 -->
      <g transform="translate(67.695485 143.492147)scale(0.14 -0.14)">
       <use xlink:href="#DejaVuSans-48"/>
       <use x="63.623047" xlink:href="#DejaVuSans-46"/>
       <use x="95.410156" xlink:href="#DejaVuSans-53"/>
      </g>
     </g>
    </g>
    <g id="ytick_7">
     <g id="line2d_12">
      <g>
       <use style="stroke:#000000;stroke-width:1.5;" x="105.45986" xlink:href="#m4da5c02ec8" y="108.730482"/>
      </g>
     </g>
     <g id="text_12">
      <!-- 1.0 -->
      <g transform="translate(67.695485 114.049388)scale(0.14 -0.14)">
       <use xlink:href="#DejaVuSans-49"/>
       <use x="63.623047" xlink:href="#DejaVuSans-46"/>
       <use x="95.410156" xlink:href="#DejaVuSans-48"/>
      </g>
     </g>
    </g>
    <g id="ytick_8">
     <g id="line2d_13">
      <g>
       <use style="stroke:#000000;stroke-width:1.5;" x="105.45986" xlink:href="#m4da5c02ec8" y="79.287723"/>
      </g>
     </g>
     <g id="text_13">
      <!-- 1.5 -->
      <g transform="translate(67.695485 84.606629)scale(0.14 -0.14)">
       <use xlink:href="#DejaVuSans-49"/>
       <use x="63.623047" xlink:href="#DejaVuSans-46"/>
       <use x="95.410156" xlink:href="#DejaVuSans-53"/>
      </g>
     </g>
    </g>
    <g id="ytick_9">
     <g id="line2d_14">
      <g>
       <use style="stroke:#000000;stroke-width:1.5;" x="105.45986" xlink:href="#m4da5c02ec8" y="49.844963"/>
      </g>
     </g>
     <g id="text_14">
      <!-- 2.0 -->
      <g transform="translate(67.695485 55.16387)scale(0.14 -0.14)">
       <use xlink:href="#DejaVuSans-50"/>
       <use x="63.623047" xlink:href="#DejaVuSans-46"/>
       <use x="95.410156" xlink:href="#DejaVuSans-48"/>
      </g>
     </g>
    </g>
   </g>
   <g id="line2d_15">
    <path clip-path="url(#p5de4c355bc)" d="M 352.779037 167.616 
L 350.98983 157.390637 
L 345.676574 147.475967 
L 337.00071 138.173241 
L 325.225848 129.765118 
L 310.709763 122.507076 
L 293.893518 116.619645 
L 275.288067 112.281713 
L 255.458726 109.625085 
L 235.008 108.730482 
L 214.557274 109.625085 
L 194.727933 112.281713 
L 176.122482 116.619645 
L 159.306237 122.507076 
L 144.790152 129.765118 
L 133.01529 138.173241 
L 124.339426 147.475967 
L 119.02617 157.390637 
L 117.236963 167.616 
L 119.02617 177.841363 
L 124.339426 187.756033 
L 133.01529 197.058759 
L 144.790152 205.466882 
L 159.306237 212.724924 
L 176.122482 218.612355 
L 194.727933 222.950287 
L 214.557274 225.606915 
L 235.008 226.501518 
L 255.458726 225.606915 
L 275.288067 222.950287 
L 293.893518 218.612355 
L 310.709763 212.724924 
L 325.225848 205.466882 
L 337.00071 197.058759 
L 345.676574 187.756033 
L 350.98983 177.841363 
L 352.779037 167.616 
" style="fill:none;stroke:#1f77b4;stroke-linecap:square;stroke-width:1.5;"/>
   </g>
   <g id="line2d_16">
    <path clip-path="url(#p5de4c355bc)" d="M 348.766086 137.134613 
L 344.391326 127.720751 
L 336.69301 119.519087 
L 325.905045 112.778823 
L 312.355221 107.704759 
L 296.455239 104.451067 
L 278.688215 103.11661 
L 259.59399 103.741935 
L 239.752731 106.30804 
L 219.767306 110.736957 
L 200.244962 116.894115 
L 181.778876 124.592431 
L 164.930129 133.597997 
L 150.210663 143.637183 
L 138.067721 154.404953 
L 128.870261 165.574134 
L 122.897742 176.805356 
L 120.331636 187.757364 
L 121.249914 198.097387 
L 125.624674 207.511249 
L 133.32299 215.712913 
L 144.110955 222.453177 
L 157.660779 227.527241 
L 173.560761 230.780933 
L 191.327785 232.11539 
L 210.42201 231.490065 
L 230.263269 228.92396 
L 250.248694 224.495043 
L 269.771038 218.337885 
L 288.237124 210.639569 
L 305.085871 201.634003 
L 319.805337 191.594817 
L 331.948279 180.827047 
L 341.145739 169.657866 
L 347.118258 158.426644 
L 349.684364 147.474636 
L 348.766086 137.134613 
" style="fill:none;stroke:#ff7f0e;stroke-linecap:square;stroke-width:1.5;"/>
   </g>
   <g id="line2d_17">
    <path clip-path="url(#p5de4c355bc)" d="M 337.00071 108.730482 
L 330.33853 100.769661 
L 320.77978 94.839932 
L 308.614898 91.121468 
L 294.213508 89.727251 
L 278.013188 90.699644 
L 260.506177 94.009102 
L 242.224418 99.555068 
L 223.723391 107.169031 
L 205.565241 116.619645 
L 188.301694 127.619757 
L 172.457295 139.835135 
L 158.513468 152.89462 
L 146.893888 166.401407 
L 137.951611 179.945099 
L 131.958343 193.114177 
L 129.096187 205.508506 
L 129.452107 216.751491 
L 133.01529 226.501518 
L 139.67747 234.462339 
L 149.23622 240.392068 
L 161.401102 244.110532 
L 175.802492 245.504749 
L 192.002812 244.532356 
L 209.509823 241.222898 
L 227.791582 235.676932 
L 246.292609 228.062969 
L 264.450759 218.612355 
L 281.714306 207.612243 
L 297.558705 195.396865 
L 311.502532 182.33738 
L 323.122112 168.830593 
L 332.064389 155.286901 
L 338.057657 142.117823 
L 340.919813 129.723494 
L 340.563893 118.480509 
L 337.00071 108.730482 
" style="fill:none;stroke:#2ca02c;stroke-linecap:square;stroke-width:1.5;"/>
   </g>
   <g id="line2d_18">
    <path clip-path="url(#p5de4c355bc)" d="M 318.284699 84.339301 
L 309.789115 78.374038 
L 299.021345 75.120347 
L 286.308562 74.677089 
L 272.037037 77.057733 
L 256.640404 82.189944 
L 240.586481 89.917782 
L 224.363059 100.006442 
L 208.463078 112.149384 
L 193.369651 125.977651 
L 179.541384 141.071078 
L 167.398442 156.971059 
L 157.309782 173.194481 
L 149.581944 189.248404 
L 144.449733 204.645037 
L 142.069089 218.916562 
L 142.512347 231.629345 
L 145.766038 242.397115 
L 151.731301 250.892699 
L 160.226885 256.857962 
L 170.994655 260.111653 
L 183.707438 260.554911 
L 197.978963 258.174267 
L 213.375596 253.042056 
L 229.429519 245.314218 
L 245.652941 235.225558 
L 261.552922 223.082616 
L 276.646349 209.254349 
L 290.474616 194.160922 
L 302.617558 178.260941 
L 312.706218 162.037519 
L 320.434056 145.983596 
L 325.566267 130.586963 
L 327.946911 116.315438 
L 327.503653 103.602655 
L 324.249962 92.834885 
L 318.284699 84.339301 
" style="fill:none;stroke:#d62728;stroke-linecap:square;stroke-width:1.5;"/>
   </g>
   <g id="line2d_19">
    <path clip-path="url(#p5de4c355bc)" d="M 293.893518 65.62329 
L 284.143491 62.060107 
L 272.900506 61.704187 
L 260.506177 64.566343 
L 247.337099 70.559611 
L 233.793407 79.501888 
L 220.28662 91.121468 
L 207.227135 105.065295 
L 195.011757 120.909694 
L 184.011645 138.173241 
L 174.561031 156.331391 
L 166.947068 174.832418 
L 161.401102 193.114177 
L 158.091644 210.621188 
L 157.119251 226.821508 
L 158.513468 241.222898 
L 162.231932 253.38778 
L 168.161661 262.94653 
L 176.122482 269.60871 
L 185.872509 273.171893 
L 197.115494 273.527813 
L 209.509823 270.665657 
L 222.678901 264.672389 
L 236.222593 255.730112 
L 249.72938 244.110532 
L 262.788865 230.166705 
L 275.004243 214.322306 
L 286.004355 197.058759 
L 295.454969 178.900609 
L 303.068932 160.399582 
L 308.614898 142.117823 
L 311.924356 124.610812 
L 312.896749 108.410492 
L 311.502532 94.009102 
L 307.784068 81.84422 
L 301.854339 72.28547 
L 293.893518 65.62329 
" style="fill:none;stroke:#9467bd;stroke-linecap:square;stroke-width:1.5;"/>
   </g>
   <g id="line2d_20">
    <path clip-path="url(#p5de4c355bc)" d="M 265.489387 53.857914 
L 255.149364 52.939636 
L 244.197356 55.505742 
L 232.966134 61.478261 
L 221.796953 70.675721 
L 211.029183 82.818663 
L 200.989997 97.538129 
L 191.984431 114.386876 
L 184.286115 132.852962 
L 178.128957 152.375306 
L 173.70004 172.360731 
L 171.133935 192.20199 
L 170.50861 211.296215 
L 171.843067 229.063239 
L 175.096759 244.963221 
L 180.170823 258.513045 
L 186.911087 269.30101 
L 195.112751 276.999326 
L 204.526613 281.374086 
L 214.866636 282.292364 
L 225.818644 279.726258 
L 237.049866 273.753739 
L 248.219047 264.556279 
L 258.986817 252.413337 
L 269.026003 237.693871 
L 278.031569 220.845124 
L 285.729885 202.379038 
L 291.887043 182.856694 
L 296.31596 162.871269 
L 298.882065 143.03001 
L 299.50739 123.935785 
L 298.172933 106.168761 
L 294.919241 90.268779 
L 289.845177 76.718955 
L 283.104913 65.93099 
L 274.903249 58.232674 
L 265.489387 53.857914 
" style="fill:none;stroke:#8c564b;stroke-linecap:square;stroke-width:1.5;"/>
   </g>
   <g id="patch_3">
    <path d="M 105.45986 293.76 
L 105.45986 41.472 
" style="fill:none;stroke:#000000;stroke-linecap:square;stroke-linejoin:miter;stroke-width:1.5;"/>
   </g>
   <g id="patch_4">
    <path d="M 364.55614 293.76 
L 364.55614 41.472 
" style="fill:none;stroke:#000000;stroke-linecap:square;stroke-linejoin:miter;stroke-width:1.5;"/>
   </g>
   <g id="patch_5">
    <path d="M 105.45986 293.76 
L 364.55614 293.76 
" style="fill:none;stroke:#000000;stroke-linecap:square;stroke-linejoin:miter;stroke-width:1.5;"/>
   </g>
   <g id="patch_6">
    <path d="M 105.45986 41.472 
L 364.55614 41.472 
" style="fill:none;stroke:#000000;stroke-linecap:square;stroke-linejoin:miter;stroke-width:1.5;"/>
   </g>
  </g>
 </g>
 <defs>
  <clipPath id="p5de4c355bc">
   <rect height="252.288" width="259.096281" x="105.45986" y="41.472"/>
  </clipPath>
 </defs>
</svg>
