<?xml version="1.0" encoding="utf-8" standalone="no"?>
<!DOCTYPE svg PUBLIC "-//W3C//DTD SVG 1.1//EN"
  "http://www.w3.org/Graphics/SVG/1.1/DTD/svg11.dtd">
<!-- Created with matplotlib (https://matplotlib.org/) -->
<svg height="345.6pt" version="1.1" viewBox="0 0 460.8 345.6" width="460.8pt" xmlns="http://www.w3.org/2000/svg" xmlns:xlink="http://www.w3.org/1999/xlink">
 <defs>
  <style type="text/css">
*{stroke-linecap:butt;stroke-linejoin:round;}
  </style>
 </defs>
 <g id="figure_1">
  <g id="patch_1">
   <path d="M 0 345.6 
L 460.8 345.6 
L 460.8 0 
L 0 0 
z
" style="fill:#ffffff;"/>
  </g>
  <g id="axes_1">
   <g id="patch_2">
    <path d="M 78.336 293.76 
L 391.68 293.76 
L 391.68 41.472 
L 78.336 41.472 
z
" style="fill:#ffffff;"/>
   </g>
   <g id="matplotlib.axis_1">
    <g id="xtick_1">
     <g id="line2d_1">
      <defs>
       <path d="M 0 0 
L 0 12 
" id="m2616ddceb3" style="stroke:#000000;stroke-width:1.5;"/>
      </defs>
      <g>
       <use style="stroke:#000000;stroke-width:1.5;" x="96.428344" xlink:href="#m2616ddceb3" y="293.76"/>
      </g>
     </g>
     <g id="text_1">
      <!-- $-2\pi$ -->
      <defs>
       <path d="M 10.59375 35.5 
L 73.1875 35.5 
L 73.1875 27.203125 
L 10.59375 27.203125 
z
" id="DejaVuSans-8722"/>
       <path d="M 19.1875 8.296875 
L 53.609375 8.296875 
L 53.609375 0 
L 7.328125 0 
L 7.328125 8.296875 
Q 12.9375 14.109375 22.625 23.890625 
Q 32.328125 33.6875 34.8125 36.53125 
Q 39.546875 41.84375 41.421875 45.53125 
Q 43.3125 49.21875 43.3125 52.78125 
Q 43.3125 58.59375 39.234375 62.25 
Q 35.15625 65.921875 28.609375 65.921875 
Q 23.96875 65.921875 18.8125 64.3125 
Q 13.671875 62.703125 7.8125 59.421875 
L 7.8125 69.390625 
Q 13.765625 71.78125 18.9375 73 
Q 24.125 74.21875 28.421875 74.21875 
Q 39.75 74.21875 46.484375 68.546875 
Q 53.21875 62.890625 53.21875 53.421875 
Q 53.21875 48.921875 51.53125 44.890625 
Q 49.859375 40.875 45.40625 35.40625 
Q 44.1875 33.984375 37.640625 27.21875 
Q 31.109375 20.453125 19.1875 8.296875 
z
" id="DejaVuSans-50"/>
       <path d="M 9.125 54.6875 
L 61.53125 54.6875 
L 59.765625 45.703125 
L 52.875 45.703125 
L 46.34375 12.109375 
Q 45.65625 8.59375 46.578125 7.03125 
Q 47.46875 5.515625 50.140625 5.515625 
Q 50.875 5.515625 51.953125 5.671875 
Q 53.078125 5.765625 53.421875 5.8125 
L 52.15625 -0.6875 
Q 50.34375 -1.3125 48.484375 -1.609375 
Q 46.578125 -1.90625 44.78125 -1.90625 
Q 38.921875 -1.90625 37.3125 1.265625 
Q 35.6875 4.5 37.359375 13.09375 
L 43.703125 45.703125 
L 23.53125 45.703125 
L 14.65625 0 
L 5.46875 0 
L 14.359375 45.703125 
L 7.375 45.703125 
z
" id="DejaVuSans-Oblique-960"/>
      </defs>
      <g transform="translate(81.868344 319.897812)scale(0.14 -0.14)">
       <use transform="translate(0 0.78125)" xlink:href="#DejaVuSans-8722"/>
       <use transform="translate(83.789062 0.78125)" xlink:href="#DejaVuSans-50"/>
       <use transform="translate(147.412109 0.78125)" xlink:href="#DejaVuSans-Oblique-960"/>
      </g>
     </g>
    </g>
    <g id="xtick_2">
     <g id="line2d_2">
      <g>
       <use style="stroke:#000000;stroke-width:1.5;" x="165.718172" xlink:href="#m2616ddceb3" y="293.76"/>
      </g>
     </g>
     <g id="text_2">
      <!-- $-\pi$ -->
      <g transform="translate(155.638172 319.897812)scale(0.14 -0.14)">
       <use transform="translate(0 0.3125)" xlink:href="#DejaVuSans-8722"/>
       <use transform="translate(83.789062 0.3125)" xlink:href="#DejaVuSans-Oblique-960"/>
      </g>
     </g>
    </g>
    <g id="xtick_3">
     <g id="line2d_3">
      <g>
       <use style="stroke:#000000;stroke-width:1.5;" x="235.008" xlink:href="#m2616ddceb3" y="293.76"/>
      </g>
     </g>
     <g id="text_3">
      <!-- 0 -->
      <defs>
       <path d="M 31.78125 66.40625 
Q 24.171875 66.40625 20.328125 58.90625 
Q 16.5 51.421875 16.5 36.375 
Q 16.5 21.390625 20.328125 13.890625 
Q 24.171875 6.390625 31.78125 6.390625 
Q 39.453125 6.390625 43.28125 13.890625 
Q 47.125 21.390625 47.125 36.375 
Q 47.125 51.421875 43.28125 58.90625 
Q 39.453125 66.40625 31.78125 66.40625 
z
M 31.78125 74.21875 
Q 44.046875 74.21875 50.515625 64.515625 
Q 56.984375 54.828125 56.984375 36.375 
Q 56.984375 17.96875 50.515625 8.265625 
Q 44.046875 -1.421875 31.78125 -1.421875 
Q 19.53125 -1.421875 13.0625 8.265625 
Q 6.59375 17.96875 6.59375 36.375 
Q 6.59375 54.828125 13.0625 64.515625 
Q 19.53125 74.21875 31.78125 74.21875 
z
" id="DejaVuSans-48"/>
      </defs>
      <g transform="translate(230.55425 319.897812)scale(0.14 -0.14)">
       <use xlink:href="#DejaVuSans-48"/>
      </g>
     </g>
    </g>
    <g id="xtick_4">
     <g id="line2d_4">
      <g>
       <use style="stroke:#000000;stroke-width:1.5;" x="304.297828" xlink:href="#m2616ddceb3" y="293.76"/>
      </g>
     </g>
     <g id="text_4">
      <!-- $\pi$ -->
      <g transform="translate(300.027828 319.897812)scale(0.14 -0.14)">
       <use transform="translate(0 0.3125)" xlink:href="#DejaVuSans-Oblique-960"/>
      </g>
     </g>
    </g>
    <g id="xtick_5">
     <g id="line2d_5">
      <g>
       <use style="stroke:#000000;stroke-width:1.5;" x="373.587656" xlink:href="#m2616ddceb3" y="293.76"/>
      </g>
     </g>
     <g id="text_5">
      <!-- $2\pi$ -->
      <g transform="translate(364.907656 319.897812)scale(0.14 -0.14)">
       <use transform="translate(0 0.78125)" xlink:href="#DejaVuSans-50"/>
       <use transform="translate(63.623047 0.78125)" xlink:href="#DejaVuSans-Oblique-960"/>
      </g>
     </g>
    </g>
   </g>
   <g id="matplotlib.axis_2">
    <g id="ytick_1">
     <g id="line2d_6">
      <defs>
       <path d="M 0 0 
L -12 0 
" id="m82a5435b04" style="stroke:#000000;stroke-width:1.5;"/>
      </defs>
      <g>
       <use style="stroke:#000000;stroke-width:1.5;" x="78.336" xlink:href="#m82a5435b04" y="264.115934"/>
      </g>
     </g>
     <g id="text_6">
      <!-- -1 -->
      <defs>
       <path d="M 4.890625 31.390625 
L 31.203125 31.390625 
L 31.203125 23.390625 
L 4.890625 23.390625 
z
" id="DejaVuSans-45"/>
       <path d="M 12.40625 8.296875 
L 28.515625 8.296875 
L 28.515625 63.921875 
L 10.984375 60.40625 
L 10.984375 69.390625 
L 28.421875 72.90625 
L 38.28125 72.90625 
L 38.28125 8.296875 
L 54.390625 8.296875 
L 54.390625 0 
L 12.40625 0 
z
" id="DejaVuSans-49"/>
      </defs>
      <g transform="translate(48.877563 269.434841)scale(0.14 -0.14)">
       <use xlink:href="#DejaVuSans-45"/>
       <use x="36.083984" xlink:href="#DejaVuSans-49"/>
      </g>
     </g>
    </g>
    <g id="ytick_2">
     <g id="line2d_7">
      <g>
       <use style="stroke:#000000;stroke-width:1.5;" x="78.336" xlink:href="#m82a5435b04" y="167.616"/>
      </g>
     </g>
     <g id="text_7">
      <!-- 0 -->
      <g transform="translate(53.9285 172.934906)scale(0.14 -0.14)">
       <use xlink:href="#DejaVuSans-48"/>
      </g>
     </g>
    </g>
    <g id="ytick_3">
     <g id="line2d_8">
      <g>
       <use style="stroke:#000000;stroke-width:1.5;" x="78.336" xlink:href="#m82a5435b04" y="71.116066"/>
      </g>
     </g>
     <g id="text_8">
      <!-- 1 -->
      <g transform="translate(53.9285 76.434972)scale(0.14 -0.14)">
       <use xlink:href="#DejaVuSans-49"/>
      </g>
     </g>
    </g>
   </g>
   <g id="line2d_9">
    <path clip-path="url(#pefcc48fa75)" d="M 92.578909 264.115934 
L 94.503627 264.115934 
L 96.428344 71.116066 
L 163.793455 71.116066 
L 165.718172 264.115934 
L 233.083283 264.115934 
L 236.932717 71.116066 
L 304.297828 71.116066 
L 306.222545 264.115934 
L 373.587656 264.115934 
L 375.512373 71.116066 
L 377.437091 71.116066 
L 377.437091 71.116066 
" style="fill:none;stroke:#1f77b4;stroke-linecap:square;stroke-width:1.5;"/>
   </g>
   <g id="line2d_10">
    <path clip-path="url(#pefcc48fa75)" d="M 92.578909 228.254043 
L 94.503627 199.309976 
L 98.353061 135.922024 
L 100.277779 106.977957 
L 102.202496 83.119203 
L 104.127214 65.923848 
L 106.051931 56.000191 
L 107.976649 52.939636 
L 109.901366 55.440049 
L 111.826084 61.574105 
L 113.750801 69.151473 
L 115.675518 76.10763 
L 117.600236 80.848654 
L 119.524953 82.490876 
L 121.449671 80.955135 
L 123.374388 76.903353 
L 127.223823 66.288357 
L 129.148541 62.505163 
L 131.073258 61.130805 
L 132.997975 62.505163 
L 134.922693 66.288357 
L 138.772128 76.903353 
L 140.696845 80.955135 
L 142.621563 82.490876 
L 144.54628 80.848654 
L 146.470998 76.10763 
L 148.395715 69.151473 
L 150.320432 61.574105 
L 152.24515 55.440049 
L 154.169867 52.939636 
L 156.094585 56.000191 
L 158.019302 65.923848 
L 159.94402 83.119203 
L 161.868737 106.977957 
L 163.793455 135.922024 
L 167.642889 199.309976 
L 169.567607 228.254043 
L 171.492324 252.112797 
L 173.417042 269.308152 
L 175.341759 279.231809 
L 177.266477 282.292364 
L 179.191194 279.791951 
L 181.115912 273.657895 
L 183.040629 266.080527 
L 184.965346 259.12437 
L 186.890064 254.383346 
L 188.814781 252.741124 
L 190.739499 254.276865 
L 192.664216 258.328647 
L 196.513651 268.943643 
L 198.438369 272.726837 
L 200.363086 274.101195 
L 202.287803 272.726837 
L 204.212521 268.943643 
L 208.061956 258.328647 
L 209.986673 254.276865 
L 211.911391 252.741124 
L 213.836108 254.383346 
L 215.760826 259.12437 
L 217.685543 266.080527 
L 219.61026 273.657895 
L 221.534978 279.791951 
L 223.459695 282.292364 
L 225.384413 279.231809 
L 227.30913 269.308152 
L 229.233848 252.112797 
L 231.158565 228.254043 
L 233.083283 199.309976 
L 236.932717 135.922024 
L 238.857435 106.977957 
L 240.782152 83.119203 
L 242.70687 65.923848 
L 244.631587 56.000191 
L 246.556305 52.939636 
L 248.481022 55.440049 
L 250.40574 61.574105 
L 252.330457 69.151473 
L 254.255174 76.10763 
L 256.179892 80.848654 
L 258.104609 82.490876 
L 260.029327 80.955135 
L 261.954044 76.903353 
L 265.803479 66.288357 
L 267.728197 62.505163 
L 269.652914 61.130805 
L 271.577631 62.505163 
L 273.502349 66.288357 
L 277.351784 76.903353 
L 279.276501 80.955135 
L 281.201219 82.490876 
L 283.125936 80.848654 
L 285.050654 76.10763 
L 286.975371 69.151473 
L 288.900088 61.574105 
L 290.824806 55.440049 
L 292.749523 52.939636 
L 294.674241 56.000191 
L 296.598958 65.923848 
L 298.523676 83.119203 
L 300.448393 106.977957 
L 302.373111 135.922024 
L 306.222545 199.309976 
L 308.147263 228.254043 
L 310.07198 252.112797 
L 311.996698 269.308152 
L 313.921415 279.231809 
L 315.846133 282.292364 
L 317.77085 279.791951 
L 319.695568 273.657895 
L 321.620285 266.080527 
L 323.545002 259.12437 
L 325.46972 254.383346 
L 327.394437 252.741124 
L 329.319155 254.276865 
L 331.243872 258.328647 
L 335.093307 268.943643 
L 337.018025 272.726837 
L 338.942742 274.101195 
L 340.867459 272.726837 
L 342.792177 268.943643 
L 346.641612 258.328647 
L 348.566329 254.276865 
L 350.491047 252.741124 
L 352.415764 254.383346 
L 354.340482 259.12437 
L 356.265199 266.080527 
L 358.189916 273.657895 
L 360.114634 279.791951 
L 362.039351 282.292364 
L 363.964069 279.231809 
L 365.888786 269.308152 
L 367.813504 252.112797 
L 369.738221 228.254043 
L 371.662939 199.309976 
L 375.512373 135.922024 
L 377.437091 106.977957 
L 377.437091 106.977957 
" style="fill:none;stroke:#ff7f0e;stroke-linecap:square;stroke-width:1.5;"/>
   </g>
   <g id="line2d_11">
    <path clip-path="url(#pefcc48fa75)" d="M 92.578909 258.39995 
L 94.503627 219.031064 
L 98.353061 116.200936 
L 100.277779 76.83205 
L 102.202496 56.5114 
L 104.127214 54.641315 
L 106.051931 64.123775 
L 107.976649 75.367837 
L 109.901366 81.001405 
L 111.826084 78.859948 
L 113.750801 71.909583 
L 115.675518 65.503643 
L 117.600236 63.77726 
L 119.524953 67.289962 
L 121.449671 73.122808 
L 123.374388 77.109303 
L 125.299106 76.645603 
L 127.223823 72.291668 
L 129.148541 67.229948 
L 131.073258 65.031362 
L 132.997975 67.229948 
L 134.922693 72.291668 
L 136.84741 76.645603 
L 138.772128 77.109303 
L 140.696845 73.122808 
L 142.621563 67.289962 
L 144.54628 63.77726 
L 146.470998 65.503643 
L 148.395715 71.909583 
L 150.320432 78.859948 
L 152.24515 81.001405 
L 154.169867 75.367837 
L 156.094585 64.123775 
L 158.019302 54.641315 
L 159.94402 56.5114 
L 161.868737 76.83205 
L 163.793455 116.200936 
L 167.642889 219.031064 
L 169.567607 258.39995 
L 171.492324 278.7206 
L 173.417042 280.590685 
L 175.341759 271.108225 
L 177.266477 259.864163 
L 179.191194 254.230595 
L 181.115912 256.372052 
L 183.040629 263.322417 
L 184.965346 269.728357 
L 186.890064 271.45474 
L 188.814781 267.942038 
L 190.739499 262.109192 
L 192.664216 258.122697 
L 194.588934 258.586397 
L 196.513651 262.940332 
L 198.438369 268.002052 
L 200.363086 270.200638 
L 202.287803 268.002052 
L 204.212521 262.940332 
L 206.137238 258.586397 
L 208.061956 258.122697 
L 209.986673 262.109192 
L 211.911391 267.942038 
L 213.836108 271.45474 
L 215.760826 269.728357 
L 217.685543 263.322417 
L 219.61026 256.372052 
L 221.534978 254.230595 
L 223.459695 259.864163 
L 225.384413 271.108225 
L 227.30913 280.590685 
L 229.233848 278.7206 
L 231.158565 258.39995 
L 233.083283 219.031064 
L 236.932717 116.200936 
L 238.857435 76.83205 
L 240.782152 56.5114 
L 242.70687 54.641315 
L 244.631587 64.123775 
L 246.556305 75.367837 
L 248.481022 81.001405 
L 250.40574 78.859948 
L 252.330457 71.909583 
L 254.255174 65.503643 
L 256.179892 63.77726 
L 258.104609 67.289962 
L 260.029327 73.122808 
L 261.954044 77.109303 
L 263.878762 76.645603 
L 265.803479 72.291668 
L 267.728197 67.229948 
L 269.652914 65.031362 
L 271.577631 67.229948 
L 273.502349 72.291668 
L 275.427066 76.645603 
L 277.351784 77.109303 
L 279.276501 73.122808 
L 281.201219 67.289962 
L 283.125936 63.77726 
L 285.050654 65.503643 
L 286.975371 71.909583 
L 288.900088 78.859948 
L 290.824806 81.001405 
L 292.749523 75.367837 
L 294.674241 64.123775 
L 296.598958 54.641315 
L 298.523676 56.5114 
L 300.448393 76.83205 
L 302.373111 116.200936 
L 306.222545 219.031064 
L 308.147263 258.39995 
L 310.07198 278.7206 
L 311.996698 280.590685 
L 313.921415 271.108225 
L 315.846133 259.864163 
L 317.77085 254.230595 
L 319.695568 256.372052 
L 321.620285 263.322417 
L 323.545002 269.728357 
L 325.46972 271.45474 
L 327.394437 267.942038 
L 329.319155 262.109192 
L 331.243872 258.122697 
L 333.16859 258.586397 
L 335.093307 262.940332 
L 337.018025 268.002052 
L 338.942742 270.200638 
L 340.867459 268.002052 
L 342.792177 262.940332 
L 344.716894 258.586397 
L 346.641612 258.122697 
L 348.566329 262.109192 
L 350.491047 267.942038 
L 352.415764 271.45474 
L 354.340482 269.728357 
L 356.265199 263.322417 
L 358.189916 256.372052 
L 360.114634 254.230595 
L 362.039351 259.864163 
L 363.964069 271.108225 
L 365.888786 280.590685 
L 367.813504 278.7206 
L 369.738221 258.39995 
L 371.662939 219.031064 
L 375.512373 116.200936 
L 377.437091 76.83205 
L 377.437091 76.83205 
" style="fill:none;stroke:#2ca02c;stroke-linecap:square;stroke-width:1.5;"/>
   </g>
   <g id="line2d_12">
    <path clip-path="url(#pefcc48fa75)" d="M 92.578909 276.136259 
L 94.503627 236.74664 
L 98.353061 98.48536 
L 100.277779 59.095741 
L 102.202496 56.066639 
L 104.127214 71.12887 
L 106.051931 80.672117 
L 107.976649 76.22705 
L 109.901366 66.865471 
L 111.826084 64.627315 
L 113.750801 70.694471 
L 115.675518 76.324616 
L 117.600236 74.724254 
L 119.524953 68.778163 
L 121.449671 66.354227 
L 123.374388 70.193967 
L 125.299106 74.98573 
L 127.223823 74.546589 
L 129.148541 69.642356 
L 131.073258 66.749789 
L 132.997975 69.642356 
L 134.922693 74.546589 
L 136.84741 74.98573 
L 138.772128 70.193967 
L 140.696845 66.354227 
L 142.621563 68.778163 
L 144.54628 74.724254 
L 146.470998 76.324616 
L 148.395715 70.694471 
L 150.320432 64.627315 
L 152.24515 66.865471 
L 154.169867 76.22705 
L 156.094585 80.672117 
L 158.019302 71.12887 
L 159.94402 56.066639 
L 161.868737 59.095741 
L 163.793455 98.48536 
L 167.642889 236.74664 
L 169.567607 276.136259 
L 171.492324 279.165361 
L 173.417042 264.10313 
L 175.341759 254.559883 
L 177.266477 259.00495 
L 179.191194 268.366529 
L 181.115912 270.604685 
L 183.040629 264.537529 
L 184.965346 258.907384 
L 186.890064 260.507746 
L 188.814781 266.453837 
L 190.739499 268.877773 
L 192.664216 265.038033 
L 194.588934 260.24627 
L 196.513651 260.685411 
L 198.438369 265.589644 
L 200.363086 268.482211 
L 202.287803 265.589644 
L 204.212521 260.685411 
L 206.137238 260.24627 
L 208.061956 265.038033 
L 209.986673 268.877773 
L 211.911391 266.453837 
L 213.836108 260.507746 
L 215.760826 258.907384 
L 217.685543 264.537529 
L 219.61026 270.604685 
L 221.534978 268.366529 
L 223.459695 259.00495 
L 225.384413 254.559883 
L 227.30913 264.10313 
L 229.233848 279.165361 
L 231.158565 276.136259 
L 233.083283 236.74664 
L 236.932717 98.48536 
L 238.857435 59.095741 
L 240.782152 56.066639 
L 242.70687 71.12887 
L 244.631587 80.672117 
L 246.556305 76.22705 
L 248.481022 66.865471 
L 250.40574 64.627315 
L 252.330457 70.694471 
L 254.255174 76.324616 
L 256.179892 74.724254 
L 258.104609 68.778163 
L 260.029327 66.354227 
L 261.954044 70.193967 
L 263.878762 74.98573 
L 265.803479 74.546589 
L 267.728197 69.642356 
L 269.652914 66.749789 
L 271.577631 69.642356 
L 273.502349 74.546589 
L 275.427066 74.98573 
L 277.351784 70.193967 
L 279.276501 66.354227 
L 281.201219 68.778163 
L 283.125936 74.724254 
L 285.050654 76.324616 
L 286.975371 70.694471 
L 288.900088 64.627315 
L 290.824806 66.865471 
L 292.749523 76.22705 
L 294.674241 80.672117 
L 296.598958 71.12887 
L 298.523676 56.066639 
L 300.448393 59.095741 
L 302.373111 98.48536 
L 306.222545 236.74664 
L 308.147263 276.136259 
L 310.07198 279.165361 
L 311.996698 264.10313 
L 313.921415 254.559883 
L 315.846133 259.00495 
L 317.77085 268.366529 
L 319.695568 270.604685 
L 321.620285 264.537529 
L 323.545002 258.907384 
L 325.46972 260.507746 
L 327.394437 266.453837 
L 329.319155 268.877773 
L 331.243872 265.038033 
L 333.16859 260.24627 
L 335.093307 260.685411 
L 337.018025 265.589644 
L 338.942742 268.482211 
L 340.867459 265.589644 
L 342.792177 260.685411 
L 344.716894 260.24627 
L 346.641612 265.038033 
L 348.566329 268.877773 
L 350.491047 266.453837 
L 352.415764 260.507746 
L 354.340482 258.907384 
L 356.265199 264.537529 
L 358.189916 270.604685 
L 360.114634 268.366529 
L 362.039351 259.00495 
L 363.964069 254.559883 
L 365.888786 264.10313 
L 367.813504 279.165361 
L 369.738221 276.136259 
L 371.662939 236.74664 
L 375.512373 98.48536 
L 377.437091 59.095741 
L 377.437091 59.095741 
" style="fill:none;stroke:#d62728;stroke-linecap:square;stroke-width:1.5;"/>
   </g>
   <g id="patch_3">
    <path d="M 78.336 293.76 
L 78.336 41.472 
" style="fill:none;stroke:#000000;stroke-linecap:square;stroke-linejoin:miter;stroke-width:1.5;"/>
   </g>
   <g id="patch_4">
    <path d="M 391.68 293.76 
L 391.68 41.472 
" style="fill:none;stroke:#000000;stroke-linecap:square;stroke-linejoin:miter;stroke-width:1.5;"/>
   </g>
   <g id="patch_5">
    <path d="M 78.336 293.76 
L 391.68 293.76 
" style="fill:none;stroke:#000000;stroke-linecap:square;stroke-linejoin:miter;stroke-width:1.5;"/>
   </g>
   <g id="patch_6">
    <path d="M 78.336 41.472 
L 391.68 41.472 
" style="fill:none;stroke:#000000;stroke-linecap:square;stroke-linejoin:miter;stroke-width:1.5;"/>
   </g>
   <g id="legend_1">
    <g id="patch_7">
     <path d="M 247.703125 210.81475 
L 381.88 210.81475 
Q 384.68 210.81475 384.68 208.01475 
L 384.68 127.21725 
Q 384.68 124.41725 381.88 124.41725 
L 247.703125 124.41725 
Q 244.903125 124.41725 244.903125 127.21725 
L 244.903125 208.01475 
Q 244.903125 210.81475 247.703125 210.81475 
z
" style="fill:none;opacity:0;"/>
    </g>
    <g id="line2d_13">
     <path d="M 250.503125 135.755062 
L 278.503125 135.755062 
" style="fill:none;stroke:#1f77b4;stroke-linecap:square;stroke-width:1.5;"/>
    </g>
    <g id="line2d_14"/>
    <g id="text_9">
     <!-- square wave -->
     <defs>
      <path d="M 44.28125 53.078125 
L 44.28125 44.578125 
Q 40.484375 46.53125 36.375 47.5 
Q 32.28125 48.484375 27.875 48.484375 
Q 21.1875 48.484375 17.84375 46.4375 
Q 14.5 44.390625 14.5 40.28125 
Q 14.5 37.15625 16.890625 35.375 
Q 19.28125 33.59375 26.515625 31.984375 
L 29.59375 31.296875 
Q 39.15625 29.25 43.1875 25.515625 
Q 47.21875 21.78125 47.21875 15.09375 
Q 47.21875 7.46875 41.1875 3.015625 
Q 35.15625 -1.421875 24.609375 -1.421875 
Q 20.21875 -1.421875 15.453125 -0.5625 
Q 10.6875 0.296875 5.421875 2 
L 5.421875 11.28125 
Q 10.40625 8.6875 15.234375 7.390625 
Q 20.0625 6.109375 24.8125 6.109375 
Q 31.15625 6.109375 34.5625 8.28125 
Q 37.984375 10.453125 37.984375 14.40625 
Q 37.984375 18.0625 35.515625 20.015625 
Q 33.0625 21.96875 24.703125 23.78125 
L 21.578125 24.515625 
Q 13.234375 26.265625 9.515625 29.90625 
Q 5.8125 33.546875 5.8125 39.890625 
Q 5.8125 47.609375 11.28125 51.796875 
Q 16.75 56 26.8125 56 
Q 31.78125 56 36.171875 55.265625 
Q 40.578125 54.546875 44.28125 53.078125 
z
" id="DejaVuSans-115"/>
      <path d="M 14.796875 27.296875 
Q 14.796875 17.390625 18.875 11.75 
Q 22.953125 6.109375 30.078125 6.109375 
Q 37.203125 6.109375 41.296875 11.75 
Q 45.40625 17.390625 45.40625 27.296875 
Q 45.40625 37.203125 41.296875 42.84375 
Q 37.203125 48.484375 30.078125 48.484375 
Q 22.953125 48.484375 18.875 42.84375 
Q 14.796875 37.203125 14.796875 27.296875 
z
M 45.40625 8.203125 
Q 42.578125 3.328125 38.25 0.953125 
Q 33.9375 -1.421875 27.875 -1.421875 
Q 17.96875 -1.421875 11.734375 6.484375 
Q 5.515625 14.40625 5.515625 27.296875 
Q 5.515625 40.1875 11.734375 48.09375 
Q 17.96875 56 27.875 56 
Q 33.9375 56 38.25 53.625 
Q 42.578125 51.265625 45.40625 46.390625 
L 45.40625 54.6875 
L 54.390625 54.6875 
L 54.390625 -20.796875 
L 45.40625 -20.796875 
z
" id="DejaVuSans-113"/>
      <path d="M 8.5 21.578125 
L 8.5 54.6875 
L 17.484375 54.6875 
L 17.484375 21.921875 
Q 17.484375 14.15625 20.5 10.265625 
Q 23.53125 6.390625 29.59375 6.390625 
Q 36.859375 6.390625 41.078125 11.03125 
Q 45.3125 15.671875 45.3125 23.6875 
L 45.3125 54.6875 
L 54.296875 54.6875 
L 54.296875 0 
L 45.3125 0 
L 45.3125 8.40625 
Q 42.046875 3.421875 37.71875 1 
Q 33.40625 -1.421875 27.6875 -1.421875 
Q 18.265625 -1.421875 13.375 4.4375 
Q 8.5 10.296875 8.5 21.578125 
z
M 31.109375 56 
z
" id="DejaVuSans-117"/>
      <path d="M 34.28125 27.484375 
Q 23.390625 27.484375 19.1875 25 
Q 14.984375 22.515625 14.984375 16.5 
Q 14.984375 11.71875 18.140625 8.90625 
Q 21.296875 6.109375 26.703125 6.109375 
Q 34.1875 6.109375 38.703125 11.40625 
Q 43.21875 16.703125 43.21875 25.484375 
L 43.21875 27.484375 
z
M 52.203125 31.203125 
L 52.203125 0 
L 43.21875 0 
L 43.21875 8.296875 
Q 40.140625 3.328125 35.546875 0.953125 
Q 30.953125 -1.421875 24.3125 -1.421875 
Q 15.921875 -1.421875 10.953125 3.296875 
Q 6 8.015625 6 15.921875 
Q 6 25.140625 12.171875 29.828125 
Q 18.359375 34.515625 30.609375 34.515625 
L 43.21875 34.515625 
L 43.21875 35.40625 
Q 43.21875 41.609375 39.140625 45 
Q 35.0625 48.390625 27.6875 48.390625 
Q 23 48.390625 18.546875 47.265625 
Q 14.109375 46.140625 10.015625 43.890625 
L 10.015625 52.203125 
Q 14.9375 54.109375 19.578125 55.046875 
Q 24.21875 56 28.609375 56 
Q 40.484375 56 46.34375 49.84375 
Q 52.203125 43.703125 52.203125 31.203125 
z
" id="DejaVuSans-97"/>
      <path d="M 41.109375 46.296875 
Q 39.59375 47.171875 37.8125 47.578125 
Q 36.03125 48 33.890625 48 
Q 26.265625 48 22.1875 43.046875 
Q 18.109375 38.09375 18.109375 28.8125 
L 18.109375 0 
L 9.078125 0 
L 9.078125 54.6875 
L 18.109375 54.6875 
L 18.109375 46.1875 
Q 20.953125 51.171875 25.484375 53.578125 
Q 30.03125 56 36.53125 56 
Q 37.453125 56 38.578125 55.875 
Q 39.703125 55.765625 41.0625 55.515625 
z
" id="DejaVuSans-114"/>
      <path d="M 56.203125 29.59375 
L 56.203125 25.203125 
L 14.890625 25.203125 
Q 15.484375 15.921875 20.484375 11.0625 
Q 25.484375 6.203125 34.421875 6.203125 
Q 39.59375 6.203125 44.453125 7.46875 
Q 49.3125 8.734375 54.109375 11.28125 
L 54.109375 2.78125 
Q 49.265625 0.734375 44.1875 -0.34375 
Q 39.109375 -1.421875 33.890625 -1.421875 
Q 20.796875 -1.421875 13.15625 6.1875 
Q 5.515625 13.8125 5.515625 26.8125 
Q 5.515625 40.234375 12.765625 48.109375 
Q 20.015625 56 32.328125 56 
Q 43.359375 56 49.78125 48.890625 
Q 56.203125 41.796875 56.203125 29.59375 
z
M 47.21875 32.234375 
Q 47.125 39.59375 43.09375 43.984375 
Q 39.0625 48.390625 32.421875 48.390625 
Q 24.90625 48.390625 20.390625 44.140625 
Q 15.875 39.890625 15.1875 32.171875 
z
" id="DejaVuSans-101"/>
      <path id="DejaVuSans-32"/>
      <path d="M 4.203125 54.6875 
L 13.1875 54.6875 
L 24.421875 12.015625 
L 35.59375 54.6875 
L 46.1875 54.6875 
L 57.421875 12.015625 
L 68.609375 54.6875 
L 77.59375 54.6875 
L 63.28125 0 
L 52.6875 0 
L 40.921875 44.828125 
L 29.109375 0 
L 18.5 0 
z
" id="DejaVuSans-119"/>
      <path d="M 2.984375 54.6875 
L 12.5 54.6875 
L 29.59375 8.796875 
L 46.6875 54.6875 
L 56.203125 54.6875 
L 35.6875 0 
L 23.484375 0 
z
" id="DejaVuSans-118"/>
     </defs>
     <g transform="translate(289.703125 140.655062)scale(0.14 -0.14)">
      <use xlink:href="#DejaVuSans-115"/>
      <use x="52.099609" xlink:href="#DejaVuSans-113"/>
      <use x="115.576172" xlink:href="#DejaVuSans-117"/>
      <use x="178.955078" xlink:href="#DejaVuSans-97"/>
      <use x="240.234375" xlink:href="#DejaVuSans-114"/>
      <use x="281.316406" xlink:href="#DejaVuSans-101"/>
      <use x="342.839844" xlink:href="#DejaVuSans-32"/>
      <use x="374.626953" xlink:href="#DejaVuSans-119"/>
      <use x="456.414062" xlink:href="#DejaVuSans-97"/>
      <use x="517.693359" xlink:href="#DejaVuSans-118"/>
      <use x="576.873047" xlink:href="#DejaVuSans-101"/>
     </g>
    </g>
    <g id="line2d_15">
     <path d="M 250.503125 156.304437 
L 278.503125 156.304437 
" style="fill:none;stroke:#ff7f0e;stroke-linecap:square;stroke-width:1.5;"/>
    </g>
    <g id="line2d_16"/>
    <g id="text_10">
     <!-- up to 5 -->
     <defs>
      <path d="M 18.109375 8.203125 
L 18.109375 -20.796875 
L 9.078125 -20.796875 
L 9.078125 54.6875 
L 18.109375 54.6875 
L 18.109375 46.390625 
Q 20.953125 51.265625 25.265625 53.625 
Q 29.59375 56 35.59375 56 
Q 45.5625 56 51.78125 48.09375 
Q 58.015625 40.1875 58.015625 27.296875 
Q 58.015625 14.40625 51.78125 6.484375 
Q 45.5625 -1.421875 35.59375 -1.421875 
Q 29.59375 -1.421875 25.265625 0.953125 
Q 20.953125 3.328125 18.109375 8.203125 
z
M 48.6875 27.296875 
Q 48.6875 37.203125 44.609375 42.84375 
Q 40.53125 48.484375 33.40625 48.484375 
Q 26.265625 48.484375 22.1875 42.84375 
Q 18.109375 37.203125 18.109375 27.296875 
Q 18.109375 17.390625 22.1875 11.75 
Q 26.265625 6.109375 33.40625 6.109375 
Q 40.53125 6.109375 44.609375 11.75 
Q 48.6875 17.390625 48.6875 27.296875 
z
" id="DejaVuSans-112"/>
      <path d="M 18.3125 70.21875 
L 18.3125 54.6875 
L 36.8125 54.6875 
L 36.8125 47.703125 
L 18.3125 47.703125 
L 18.3125 18.015625 
Q 18.3125 11.328125 20.140625 9.421875 
Q 21.96875 7.515625 27.59375 7.515625 
L 36.8125 7.515625 
L 36.8125 0 
L 27.59375 0 
Q 17.1875 0 13.234375 3.875 
Q 9.28125 7.765625 9.28125 18.015625 
L 9.28125 47.703125 
L 2.6875 47.703125 
L 2.6875 54.6875 
L 9.28125 54.6875 
L 9.28125 70.21875 
z
" id="DejaVuSans-116"/>
      <path d="M 30.609375 48.390625 
Q 23.390625 48.390625 19.1875 42.75 
Q 14.984375 37.109375 14.984375 27.296875 
Q 14.984375 17.484375 19.15625 11.84375 
Q 23.34375 6.203125 30.609375 6.203125 
Q 37.796875 6.203125 41.984375 11.859375 
Q 46.1875 17.53125 46.1875 27.296875 
Q 46.1875 37.015625 41.984375 42.703125 
Q 37.796875 48.390625 30.609375 48.390625 
z
M 30.609375 56 
Q 42.328125 56 49.015625 48.375 
Q 55.71875 40.765625 55.71875 27.296875 
Q 55.71875 13.875 49.015625 6.21875 
Q 42.328125 -1.421875 30.609375 -1.421875 
Q 18.84375 -1.421875 12.171875 6.21875 
Q 5.515625 13.875 5.515625 27.296875 
Q 5.515625 40.765625 12.171875 48.375 
Q 18.84375 56 30.609375 56 
z
" id="DejaVuSans-111"/>
      <path d="M 10.796875 72.90625 
L 49.515625 72.90625 
L 49.515625 64.59375 
L 19.828125 64.59375 
L 19.828125 46.734375 
Q 21.96875 47.46875 24.109375 47.828125 
Q 26.265625 48.1875 28.421875 48.1875 
Q 40.625 48.1875 47.75 41.5 
Q 54.890625 34.8125 54.890625 23.390625 
Q 54.890625 11.625 47.5625 5.09375 
Q 40.234375 -1.421875 26.90625 -1.421875 
Q 22.3125 -1.421875 17.546875 -0.640625 
Q 12.796875 0.140625 7.71875 1.703125 
L 7.71875 11.625 
Q 12.109375 9.234375 16.796875 8.0625 
Q 21.484375 6.890625 26.703125 6.890625 
Q 35.15625 6.890625 40.078125 11.328125 
Q 45.015625 15.765625 45.015625 23.390625 
Q 45.015625 31 40.078125 35.4375 
Q 35.15625 39.890625 26.703125 39.890625 
Q 22.75 39.890625 18.8125 39.015625 
Q 14.890625 38.140625 10.796875 36.28125 
z
" id="DejaVuSans-53"/>
     </defs>
     <g transform="translate(289.703125 161.204437)scale(0.14 -0.14)">
      <use xlink:href="#DejaVuSans-117"/>
      <use x="63.378906" xlink:href="#DejaVuSans-112"/>
      <use x="126.855469" xlink:href="#DejaVuSans-32"/>
      <use x="158.642578" xlink:href="#DejaVuSans-116"/>
      <use x="197.851562" xlink:href="#DejaVuSans-111"/>
      <use x="259.033203" xlink:href="#DejaVuSans-32"/>
      <use x="290.820312" xlink:href="#DejaVuSans-53"/>
     </g>
    </g>
    <g id="line2d_17">
     <path d="M 250.503125 176.853812 
L 278.503125 176.853812 
" style="fill:none;stroke:#2ca02c;stroke-linecap:square;stroke-width:1.5;"/>
    </g>
    <g id="line2d_18"/>
    <g id="text_11">
     <!-- up to 9 -->
     <defs>
      <path d="M 10.984375 1.515625 
L 10.984375 10.5 
Q 14.703125 8.734375 18.5 7.8125 
Q 22.3125 6.890625 25.984375 6.890625 
Q 35.75 6.890625 40.890625 13.453125 
Q 46.046875 20.015625 46.78125 33.40625 
Q 43.953125 29.203125 39.59375 26.953125 
Q 35.25 24.703125 29.984375 24.703125 
Q 19.046875 24.703125 12.671875 31.3125 
Q 6.296875 37.9375 6.296875 49.421875 
Q 6.296875 60.640625 12.9375 67.421875 
Q 19.578125 74.21875 30.609375 74.21875 
Q 43.265625 74.21875 49.921875 64.515625 
Q 56.59375 54.828125 56.59375 36.375 
Q 56.59375 19.140625 48.40625 8.859375 
Q 40.234375 -1.421875 26.421875 -1.421875 
Q 22.703125 -1.421875 18.890625 -0.6875 
Q 15.09375 0.046875 10.984375 1.515625 
z
M 30.609375 32.421875 
Q 37.25 32.421875 41.125 36.953125 
Q 45.015625 41.5 45.015625 49.421875 
Q 45.015625 57.28125 41.125 61.84375 
Q 37.25 66.40625 30.609375 66.40625 
Q 23.96875 66.40625 20.09375 61.84375 
Q 16.21875 57.28125 16.21875 49.421875 
Q 16.21875 41.5 20.09375 36.953125 
Q 23.96875 32.421875 30.609375 32.421875 
z
" id="DejaVuSans-57"/>
     </defs>
     <g transform="translate(289.703125 181.753812)scale(0.14 -0.14)">
      <use xlink:href="#DejaVuSans-117"/>
      <use x="63.378906" xlink:href="#DejaVuSans-112"/>
      <use x="126.855469" xlink:href="#DejaVuSans-32"/>
      <use x="158.642578" xlink:href="#DejaVuSans-116"/>
      <use x="197.851562" xlink:href="#DejaVuSans-111"/>
      <use x="259.033203" xlink:href="#DejaVuSans-32"/>
      <use x="290.820312" xlink:href="#DejaVuSans-57"/>
     </g>
    </g>
    <g id="line2d_19">
     <path d="M 250.503125 197.403187 
L 278.503125 197.403187 
" style="fill:none;stroke:#d62728;stroke-linecap:square;stroke-width:1.5;"/>
    </g>
    <g id="line2d_20"/>
    <g id="text_12">
     <!-- up to 13 -->
     <defs>
      <path d="M 40.578125 39.3125 
Q 47.65625 37.796875 51.625 33 
Q 55.609375 28.21875 55.609375 21.1875 
Q 55.609375 10.40625 48.1875 4.484375 
Q 40.765625 -1.421875 27.09375 -1.421875 
Q 22.515625 -1.421875 17.65625 -0.515625 
Q 12.796875 0.390625 7.625 2.203125 
L 7.625 11.71875 
Q 11.71875 9.328125 16.59375 8.109375 
Q 21.484375 6.890625 26.8125 6.890625 
Q 36.078125 6.890625 40.9375 10.546875 
Q 45.796875 14.203125 45.796875 21.1875 
Q 45.796875 27.640625 41.28125 31.265625 
Q 36.765625 34.90625 28.71875 34.90625 
L 20.21875 34.90625 
L 20.21875 43.015625 
L 29.109375 43.015625 
Q 36.375 43.015625 40.234375 45.921875 
Q 44.09375 48.828125 44.09375 54.296875 
Q 44.09375 59.90625 40.109375 62.90625 
Q 36.140625 65.921875 28.71875 65.921875 
Q 24.65625 65.921875 20.015625 65.03125 
Q 15.375 64.15625 9.8125 62.3125 
L 9.8125 71.09375 
Q 15.4375 72.65625 20.34375 73.4375 
Q 25.25 74.21875 29.59375 74.21875 
Q 40.828125 74.21875 47.359375 69.109375 
Q 53.90625 64.015625 53.90625 55.328125 
Q 53.90625 49.265625 50.4375 45.09375 
Q 46.96875 40.921875 40.578125 39.3125 
z
" id="DejaVuSans-51"/>
     </defs>
     <g transform="translate(289.703125 202.303187)scale(0.14 -0.14)">
      <use xlink:href="#DejaVuSans-117"/>
      <use x="63.378906" xlink:href="#DejaVuSans-112"/>
      <use x="126.855469" xlink:href="#DejaVuSans-32"/>
      <use x="158.642578" xlink:href="#DejaVuSans-116"/>
      <use x="197.851562" xlink:href="#DejaVuSans-111"/>
      <use x="259.033203" xlink:href="#DejaVuSans-32"/>
      <use x="290.820312" xlink:href="#DejaVuSans-49"/>
      <use x="354.443359" xlink:href="#DejaVuSans-51"/>
     </g>
    </g>
   </g>
  </g>
 </g>
 <defs>
  <clipPath id="pefcc48fa75">
   <rect height="252.288" width="313.344" x="78.336" y="41.472"/>
  </clipPath>
 </defs>
</svg>
