<?xml version="1.0" encoding="utf-8" standalone="no"?>
<!DOCTYPE svg PUBLIC "-//W3C//DTD SVG 1.1//EN"
  "http://www.w3.org/Graphics/SVG/1.1/DTD/svg11.dtd">
<!-- Created with matplotlib (https://matplotlib.org/) -->
<svg height="345.6pt" version="1.1" viewBox="0 0 460.8 345.6" width="460.8pt" xmlns="http://www.w3.org/2000/svg" xmlns:xlink="http://www.w3.org/1999/xlink">
 <defs>
  <style type="text/css">
*{stroke-linecap:butt;stroke-linejoin:round;}
  </style>
 </defs>
 <g id="figure_1">
  <g id="patch_1">
   <path d="M 0 345.6 
L 460.8 345.6 
L 460.8 0 
L 0 0 
z
" style="fill:#ffffff;"/>
  </g>
  <g id="axes_1">
   <g id="line2d_1">
    <defs>
     <path d="M 0 1.5 
C 0.397805 1.5 0.77937 1.341951 1.06066 1.06066 
C 1.341951 0.77937 1.5 0.397805 1.5 0 
C 1.5 -0.397805 1.341951 -0.77937 1.06066 -1.06066 
C 0.77937 -1.341951 0.397805 -1.5 0 -1.5 
C -0.397805 -1.5 -0.77937 -1.341951 -1.06066 -1.06066 
C -1.341951 -0.77937 -1.5 -0.397805 -1.5 0 
C -1.5 0.397805 -1.341951 0.77937 -1.06066 1.06066 
C -0.77937 1.341951 -0.397805 1.5 0 1.5 
z
" id="m0aba61471b" style="stroke:#1f77b4;"/>
    </defs>
    <g clip-path="url(#p9eb0d80151)">
     <use style="fill:#1f77b4;stroke:#1f77b4;" x="73.832727" xlink:href="#m0aba61471b" y="209.456591"/>
     <use style="fill:#1f77b4;stroke:#1f77b4;" x="109.905455" xlink:href="#m0aba61471b" y="53.568"/>
     <use style="fill:#1f77b4;stroke:#1f77b4;" x="145.978182" xlink:href="#m0aba61471b" y="227.82744"/>
     <use style="fill:#1f77b4;stroke:#1f77b4;" x="182.050909" xlink:href="#m0aba61471b" y="236.493671"/>
     <use style="fill:#1f77b4;stroke:#1f77b4;" x="218.123636" xlink:href="#m0aba61471b" y="193.473641"/>
     <use style="fill:#1f77b4;stroke:#1f77b4;" x="254.196364" xlink:href="#m0aba61471b" y="192.761679"/>
     <use style="fill:#1f77b4;stroke:#1f77b4;" x="290.269091" xlink:href="#m0aba61471b" y="107.396204"/>
     <use style="fill:#1f77b4;stroke:#1f77b4;" x="326.341818" xlink:href="#m0aba61471b" y="83.848432"/>
     <use style="fill:#1f77b4;stroke:#1f77b4;" x="362.414545" xlink:href="#m0aba61471b" y="224.740719"/>
     <use style="fill:#1f77b4;stroke:#1f77b4;" x="398.487273" xlink:href="#m0aba61471b" y="295.488"/>
    </g>
   </g>
  </g>
 </g>
 <defs>
  <clipPath id="p9eb0d80151">
   <rect height="266.112" width="357.12" x="57.6" y="41.472"/>
  </clipPath>
 </defs>
</svg>
