<?xml version="1.0" encoding="utf-8" standalone="no"?>
<!DOCTYPE svg PUBLIC "-//W3C//DTD SVG 1.1//EN"
  "http://www.w3.org/Graphics/SVG/1.1/DTD/svg11.dtd">
<!-- Created with matplotlib (https://matplotlib.org/) -->
<svg height="345.6pt" version="1.1" viewBox="0 0 460.8 345.6" width="460.8pt" xmlns="http://www.w3.org/2000/svg" xmlns:xlink="http://www.w3.org/1999/xlink">
 <defs>
  <style type="text/css">
*{stroke-linecap:butt;stroke-linejoin:round;}
  </style>
 </defs>
 <g id="figure_1">
  <g id="patch_1">
   <path d="M 0 345.6 
L 460.8 345.6 
L 460.8 0 
L 0 0 
z
" style="fill:#ffffff;"/>
  </g>
  <g id="axes_1">
   <g id="line2d_1">
    <path clip-path="url(#pbd39402c5b)" d="M 279.517091 143.136 
L 278.840898 135.407077 
L 276.832864 127.912994 
L 273.554003 120.881455 
L 269.103942 114.526108 
L 263.617892 109.040058 
L 257.262545 104.589997 
L 250.231006 101.311136 
L 242.736923 99.303102 
L 235.008 98.626909 
L 227.279077 99.303102 
L 219.784994 101.311136 
L 212.753455 104.589997 
L 206.398108 109.040058 
L 200.912058 114.526108 
L 196.461997 120.881455 
L 193.183136 127.912994 
L 191.175102 135.407077 
L 190.498909 143.136 
L 191.175102 150.864923 
L 193.183136 158.359006 
L 196.461997 165.390545 
L 200.912058 171.745892 
L 206.398108 177.231942 
L 212.753455 181.682003 
L 219.784994 184.960864 
L 227.279077 186.968898 
L 235.008 187.645091 
L 242.736923 186.968898 
L 250.231006 184.960864 
L 257.262545 181.682003 
L 263.617892 177.231942 
L 269.103942 171.745892 
L 273.554003 165.390545 
L 276.832864 158.359006 
L 278.840898 150.864923 
L 279.517091 143.136 
" style="fill:none;stroke:#000000;stroke-linecap:square;stroke-width:1.5;"/>
   </g>
   <g id="line2d_2">
    <path clip-path="url(#pbd39402c5b)" d="M 230.557091 192.096 
L 229.880898 184.367077 
L 227.872864 176.872994 
L 224.594003 169.841455 
L 220.143942 163.486108 
L 214.657892 158.000058 
L 208.302545 153.549997 
L 201.271006 150.271136 
L 193.776923 148.263102 
L 186.048 147.586909 
L 178.319077 148.263102 
L 170.824994 150.271136 
L 163.793455 153.549997 
L 157.438108 158.000058 
L 151.952058 163.486108 
L 147.501997 169.841455 
L 144.223136 176.872994 
L 142.215102 184.367077 
L 141.538909 192.096 
L 142.215102 199.824923 
L 144.223136 207.319006 
L 147.501997 214.350545 
L 151.952058 220.705892 
L 157.438108 226.191942 
L 163.793455 230.642003 
L 170.824994 233.920864 
L 178.319077 235.928898 
L 186.048 236.605091 
L 193.776923 235.928898 
L 201.271006 233.920864 
L 208.302545 230.642003 
L 214.657892 226.191942 
L 220.143942 220.705892 
L 224.594003 214.350545 
L 227.872864 207.319006 
L 229.880898 199.824923 
L 230.557091 192.096 
" style="fill:none;stroke:#bfbf00;stroke-linecap:square;stroke-width:1.5;"/>
   </g>
   <g id="line2d_3">
    <path clip-path="url(#pbd39402c5b)" d="M 181.597091 143.136 
L 180.920898 135.407077 
L 178.912864 127.912994 
L 175.634003 120.881455 
L 171.183942 114.526108 
L 165.697892 109.040058 
L 159.342545 104.589997 
L 152.311006 101.311136 
L 144.816923 99.303102 
L 137.088 98.626909 
L 129.359077 99.303102 
L 121.864994 101.311136 
L 114.833455 104.589997 
L 108.478108 109.040058 
L 102.992058 114.526108 
L 98.541997 120.881455 
L 95.263136 127.912994 
L 93.255102 135.407077 
L 92.578909 143.136 
L 93.255102 150.864923 
L 95.263136 158.359006 
L 98.541997 165.390545 
L 102.992058 171.745892 
L 108.478108 177.231942 
L 114.833455 181.682003 
L 121.864994 184.960864 
L 129.359077 186.968898 
L 137.088 187.645091 
L 144.816923 186.968898 
L 152.311006 184.960864 
L 159.342545 181.682003 
L 165.697892 177.231942 
L 171.183942 171.745892 
L 175.634003 165.390545 
L 178.912864 158.359006 
L 180.920898 150.864923 
L 181.597091 143.136 
" style="fill:none;stroke:#0000ff;stroke-linecap:square;stroke-width:1.5;"/>
   </g>
   <g id="line2d_4">
    <path clip-path="url(#pbd39402c5b)" d="M 328.477091 192.096 
L 327.800898 184.367077 
L 325.792864 176.872994 
L 322.514003 169.841455 
L 318.063942 163.486108 
L 312.577892 158.000058 
L 306.222545 153.549997 
L 299.191006 150.271136 
L 291.696923 148.263102 
L 283.968 147.586909 
L 276.239077 148.263102 
L 268.744994 150.271136 
L 261.713455 153.549997 
L 255.358108 158.000058 
L 249.872058 163.486108 
L 245.421997 169.841455 
L 242.143136 176.872994 
L 240.135102 184.367077 
L 239.458909 192.096 
L 240.135102 199.824923 
L 242.143136 207.319006 
L 245.421997 214.350545 
L 249.872058 220.705892 
L 255.358108 226.191942 
L 261.713455 230.642003 
L 268.744994 233.920864 
L 276.239077 235.928898 
L 283.968 236.605091 
L 291.696923 235.928898 
L 299.191006 233.920864 
L 306.222545 230.642003 
L 312.577892 226.191942 
L 318.063942 220.705892 
L 322.514003 214.350545 
L 325.792864 207.319006 
L 327.800898 199.824923 
L 328.477091 192.096 
" style="fill:none;stroke:#008000;stroke-linecap:square;stroke-width:1.5;"/>
   </g>
   <g id="line2d_5">
    <path clip-path="url(#pbd39402c5b)" d="M 377.437091 143.136 
L 376.760898 135.407077 
L 374.752864 127.912994 
L 371.474003 120.881455 
L 367.023942 114.526108 
L 361.537892 109.040058 
L 355.182545 104.589997 
L 348.151006 101.311136 
L 340.656923 99.303102 
L 332.928 98.626909 
L 325.199077 99.303102 
L 317.704994 101.311136 
L 310.673455 104.589997 
L 304.318108 109.040058 
L 298.832058 114.526108 
L 294.381997 120.881455 
L 291.103136 127.912994 
L 289.095102 135.407077 
L 288.418909 143.136 
L 289.095102 150.864923 
L 291.103136 158.359006 
L 294.381997 165.390545 
L 298.832058 171.745892 
L 304.318108 177.231942 
L 310.673455 181.682003 
L 317.704994 184.960864 
L 325.199077 186.968898 
L 332.928 187.645091 
L 340.656923 186.968898 
L 348.151006 184.960864 
L 355.182545 181.682003 
L 361.537892 177.231942 
L 367.023942 171.745892 
L 371.474003 165.390545 
L 374.752864 158.359006 
L 376.760898 150.864923 
L 377.437091 143.136 
" style="fill:none;stroke:#ff0000;stroke-linecap:square;stroke-width:1.5;"/>
   </g>
  </g>
 </g>
 <defs>
  <clipPath id="pbd39402c5b">
   <rect height="151.776" width="313.344" x="78.336" y="91.728"/>
  </clipPath>
 </defs>
</svg>
