<?xml version="1.0" encoding="utf-8" standalone="no"?>
<!DOCTYPE svg PUBLIC "-//W3C//DTD SVG 1.1//EN"
  "http://www.w3.org/Graphics/SVG/1.1/DTD/svg11.dtd">
<!-- Created with matplotlib (https://matplotlib.org/) -->
<svg height="345.6pt" version="1.1" viewBox="0 0 460.8 345.6" width="460.8pt" xmlns="http://www.w3.org/2000/svg" xmlns:xlink="http://www.w3.org/1999/xlink">
 <defs>
  <style type="text/css">
*{stroke-linecap:butt;stroke-linejoin:round;}
  </style>
 </defs>
 <g id="figure_1">
  <g id="patch_1">
   <path d="M 0 345.6 
L 460.8 345.6 
L 460.8 0 
L 0 0 
z
" style="fill:#ffffff;"/>
  </g>
  <g id="axes_1">
   <g id="patch_2">
    <path d="M 78.336 243.504 
L 391.68 243.504 
L 391.68 91.728 
L 78.336 91.728 
z
" style="fill:#ffffff;"/>
   </g>
   <g id="matplotlib.axis_1">
    <g id="xtick_1">
     <g id="line2d_1">
      <defs>
       <path d="M 0 0 
L 0 12 
" id="m41b9a5ba69" style="stroke:#000000;stroke-width:1.5;"/>
      </defs>
      <g>
       <use style="stroke:#000000;stroke-width:1.5;" x="145.989818" xlink:href="#m41b9a5ba69" y="243.504"/>
      </g>
     </g>
     <g id="text_1">
      <!-- −2 -->
      <defs>
       <path d="M 10.59375 35.5 
L 73.1875 35.5 
L 73.1875 27.203125 
L 10.59375 27.203125 
z
" id="DejaVuSans-8722"/>
       <path d="M 19.1875 8.296875 
L 53.609375 8.296875 
L 53.609375 0 
L 7.328125 0 
L 7.328125 8.296875 
Q 12.9375 14.109375 22.625 23.890625 
Q 32.328125 33.6875 34.8125 36.53125 
Q 39.546875 41.84375 41.421875 45.53125 
Q 43.3125 49.21875 43.3125 52.78125 
Q 43.3125 58.59375 39.234375 62.25 
Q 35.15625 65.921875 28.609375 65.921875 
Q 23.96875 65.921875 18.8125 64.3125 
Q 13.671875 62.703125 7.8125 59.421875 
L 7.8125 69.390625 
Q 13.765625 71.78125 18.9375 73 
Q 24.125 74.21875 28.421875 74.21875 
Q 39.75 74.21875 46.484375 68.546875 
Q 53.21875 62.890625 53.21875 53.421875 
Q 53.21875 48.921875 51.53125 44.890625 
Q 49.859375 40.875 45.40625 35.40625 
Q 44.1875 33.984375 37.640625 27.21875 
Q 31.109375 20.453125 19.1875 8.296875 
z
" id="DejaVuSans-50"/>
      </defs>
      <g transform="translate(135.670287 269.641812)scale(0.14 -0.14)">
       <use xlink:href="#DejaVuSans-8722"/>
       <use x="83.789062" xlink:href="#DejaVuSans-50"/>
      </g>
     </g>
    </g>
    <g id="xtick_2">
     <g id="line2d_2">
      <g>
       <use style="stroke:#000000;stroke-width:1.5;" x="235.008" xlink:href="#m41b9a5ba69" y="243.504"/>
      </g>
     </g>
     <g id="text_2">
      <!-- 0 -->
      <defs>
       <path d="M 31.78125 66.40625 
Q 24.171875 66.40625 20.328125 58.90625 
Q 16.5 51.421875 16.5 36.375 
Q 16.5 21.390625 20.328125 13.890625 
Q 24.171875 6.390625 31.78125 6.390625 
Q 39.453125 6.390625 43.28125 13.890625 
Q 47.125 21.390625 47.125 36.375 
Q 47.125 51.421875 43.28125 58.90625 
Q 39.453125 66.40625 31.78125 66.40625 
z
M 31.78125 74.21875 
Q 44.046875 74.21875 50.515625 64.515625 
Q 56.984375 54.828125 56.984375 36.375 
Q 56.984375 17.96875 50.515625 8.265625 
Q 44.046875 -1.421875 31.78125 -1.421875 
Q 19.53125 -1.421875 13.0625 8.265625 
Q 6.59375 17.96875 6.59375 36.375 
Q 6.59375 54.828125 13.0625 64.515625 
Q 19.53125 74.21875 31.78125 74.21875 
z
" id="DejaVuSans-48"/>
      </defs>
      <g transform="translate(230.55425 269.641812)scale(0.14 -0.14)">
       <use xlink:href="#DejaVuSans-48"/>
      </g>
     </g>
    </g>
    <g id="xtick_3">
     <g id="line2d_3">
      <g>
       <use style="stroke:#000000;stroke-width:1.5;" x="324.026182" xlink:href="#m41b9a5ba69" y="243.504"/>
      </g>
     </g>
     <g id="text_3">
      <!-- 2 -->
      <g transform="translate(319.572432 269.641812)scale(0.14 -0.14)">
       <use xlink:href="#DejaVuSans-50"/>
      </g>
     </g>
    </g>
   </g>
   <g id="matplotlib.axis_2">
    <g id="ytick_1">
     <g id="line2d_4">
      <defs>
       <path d="M 0 0 
L -12 0 
" id="m9be97f14b6" style="stroke:#000000;stroke-width:1.5;"/>
      </defs>
      <g>
       <use style="stroke:#000000;stroke-width:1.5;" x="78.336" xlink:href="#m9be97f14b6" y="236.605091"/>
      </g>
     </g>
     <g id="text_4">
      <!-- −1 -->
      <defs>
       <path d="M 12.40625 8.296875 
L 28.515625 8.296875 
L 28.515625 63.921875 
L 10.984375 60.40625 
L 10.984375 69.390625 
L 28.421875 72.90625 
L 38.28125 72.90625 
L 38.28125 8.296875 
L 54.390625 8.296875 
L 54.390625 0 
L 12.40625 0 
z
" id="DejaVuSans-49"/>
      </defs>
      <g transform="translate(42.196938 241.923997)scale(0.14 -0.14)">
       <use xlink:href="#DejaVuSans-8722"/>
       <use x="83.789062" xlink:href="#DejaVuSans-49"/>
      </g>
     </g>
    </g>
    <g id="ytick_2">
     <g id="line2d_5">
      <g>
       <use style="stroke:#000000;stroke-width:1.5;" x="78.336" xlink:href="#m9be97f14b6" y="192.096"/>
      </g>
     </g>
     <g id="text_5">
      <!-- 0 -->
      <g transform="translate(53.9285 197.414906)scale(0.14 -0.14)">
       <use xlink:href="#DejaVuSans-48"/>
      </g>
     </g>
    </g>
    <g id="ytick_3">
     <g id="line2d_6">
      <g>
       <use style="stroke:#000000;stroke-width:1.5;" x="78.336" xlink:href="#m9be97f14b6" y="147.586909"/>
      </g>
     </g>
     <g id="text_6">
      <!-- 1 -->
      <g transform="translate(53.9285 152.905815)scale(0.14 -0.14)">
       <use xlink:href="#DejaVuSans-49"/>
      </g>
     </g>
    </g>
    <g id="ytick_4">
     <g id="line2d_7">
      <g>
       <use style="stroke:#000000;stroke-width:1.5;" x="78.336" xlink:href="#m9be97f14b6" y="103.077818"/>
      </g>
     </g>
     <g id="text_7">
      <!-- 2 -->
      <g transform="translate(53.9285 108.396724)scale(0.14 -0.14)">
       <use xlink:href="#DejaVuSans-50"/>
      </g>
     </g>
    </g>
   </g>
   <g id="line2d_8">
    <path clip-path="url(#p3af7fea015)" d="M 279.517091 143.136 
L 278.840898 135.407077 
L 276.832864 127.912994 
L 273.554003 120.881455 
L 269.103942 114.526108 
L 263.617892 109.040058 
L 257.262545 104.589997 
L 250.231006 101.311136 
L 242.736923 99.303102 
L 235.008 98.626909 
L 227.279077 99.303102 
L 219.784994 101.311136 
L 212.753455 104.589997 
L 206.398108 109.040058 
L 200.912058 114.526108 
L 196.461997 120.881455 
L 193.183136 127.912994 
L 191.175102 135.407077 
L 190.498909 143.136 
L 191.175102 150.864923 
L 193.183136 158.359006 
L 196.461997 165.390545 
L 200.912058 171.745892 
L 206.398108 177.231942 
L 212.753455 181.682003 
L 219.784994 184.960864 
L 227.279077 186.968898 
L 235.008 187.645091 
L 242.736923 186.968898 
L 250.231006 184.960864 
L 257.262545 181.682003 
L 263.617892 177.231942 
L 269.103942 171.745892 
L 273.554003 165.390545 
L 276.832864 158.359006 
L 278.840898 150.864923 
L 279.517091 143.136 
" style="fill:none;stroke:#000000;stroke-linecap:square;stroke-width:1.5;"/>
   </g>
   <g id="line2d_9">
    <path clip-path="url(#p3af7fea015)" d="M 230.557091 192.096 
L 229.880898 184.367077 
L 227.872864 176.872994 
L 224.594003 169.841455 
L 220.143942 163.486108 
L 214.657892 158.000058 
L 208.302545 153.549997 
L 201.271006 150.271136 
L 193.776923 148.263102 
L 186.048 147.586909 
L 178.319077 148.263102 
L 170.824994 150.271136 
L 163.793455 153.549997 
L 157.438108 158.000058 
L 151.952058 163.486108 
L 147.501997 169.841455 
L 144.223136 176.872994 
L 142.215102 184.367077 
L 141.538909 192.096 
L 142.215102 199.824923 
L 144.223136 207.319006 
L 147.501997 214.350545 
L 151.952058 220.705892 
L 157.438108 226.191942 
L 163.793455 230.642003 
L 170.824994 233.920864 
L 178.319077 235.928898 
L 186.048 236.605091 
L 193.776923 235.928898 
L 201.271006 233.920864 
L 208.302545 230.642003 
L 214.657892 226.191942 
L 220.143942 220.705892 
L 224.594003 214.350545 
L 227.872864 207.319006 
L 229.880898 199.824923 
L 230.557091 192.096 
" style="fill:none;stroke:#bfbf00;stroke-linecap:square;stroke-width:1.5;"/>
   </g>
   <g id="line2d_10">
    <path clip-path="url(#p3af7fea015)" d="M 181.597091 143.136 
L 180.920898 135.407077 
L 178.912864 127.912994 
L 175.634003 120.881455 
L 171.183942 114.526108 
L 165.697892 109.040058 
L 159.342545 104.589997 
L 152.311006 101.311136 
L 144.816923 99.303102 
L 137.088 98.626909 
L 129.359077 99.303102 
L 121.864994 101.311136 
L 114.833455 104.589997 
L 108.478108 109.040058 
L 102.992058 114.526108 
L 98.541997 120.881455 
L 95.263136 127.912994 
L 93.255102 135.407077 
L 92.578909 143.136 
L 93.255102 150.864923 
L 95.263136 158.359006 
L 98.541997 165.390545 
L 102.992058 171.745892 
L 108.478108 177.231942 
L 114.833455 181.682003 
L 121.864994 184.960864 
L 129.359077 186.968898 
L 137.088 187.645091 
L 144.816923 186.968898 
L 152.311006 184.960864 
L 159.342545 181.682003 
L 165.697892 177.231942 
L 171.183942 171.745892 
L 175.634003 165.390545 
L 178.912864 158.359006 
L 180.920898 150.864923 
L 181.597091 143.136 
" style="fill:none;stroke:#0000ff;stroke-linecap:square;stroke-width:1.5;"/>
   </g>
   <g id="line2d_11">
    <path clip-path="url(#p3af7fea015)" d="M 328.477091 192.096 
L 327.800898 184.367077 
L 325.792864 176.872994 
L 322.514003 169.841455 
L 318.063942 163.486108 
L 312.577892 158.000058 
L 306.222545 153.549997 
L 299.191006 150.271136 
L 291.696923 148.263102 
L 283.968 147.586909 
L 276.239077 148.263102 
L 268.744994 150.271136 
L 261.713455 153.549997 
L 255.358108 158.000058 
L 249.872058 163.486108 
L 245.421997 169.841455 
L 242.143136 176.872994 
L 240.135102 184.367077 
L 239.458909 192.096 
L 240.135102 199.824923 
L 242.143136 207.319006 
L 245.421997 214.350545 
L 249.872058 220.705892 
L 255.358108 226.191942 
L 261.713455 230.642003 
L 268.744994 233.920864 
L 276.239077 235.928898 
L 283.968 236.605091 
L 291.696923 235.928898 
L 299.191006 233.920864 
L 306.222545 230.642003 
L 312.577892 226.191942 
L 318.063942 220.705892 
L 322.514003 214.350545 
L 325.792864 207.319006 
L 327.800898 199.824923 
L 328.477091 192.096 
" style="fill:none;stroke:#008000;stroke-linecap:square;stroke-width:1.5;"/>
   </g>
   <g id="line2d_12">
    <path clip-path="url(#p3af7fea015)" d="M 377.437091 143.136 
L 376.760898 135.407077 
L 374.752864 127.912994 
L 371.474003 120.881455 
L 367.023942 114.526108 
L 361.537892 109.040058 
L 355.182545 104.589997 
L 348.151006 101.311136 
L 340.656923 99.303102 
L 332.928 98.626909 
L 325.199077 99.303102 
L 317.704994 101.311136 
L 310.673455 104.589997 
L 304.318108 109.040058 
L 298.832058 114.526108 
L 294.381997 120.881455 
L 291.103136 127.912994 
L 289.095102 135.407077 
L 288.418909 143.136 
L 289.095102 150.864923 
L 291.103136 158.359006 
L 294.381997 165.390545 
L 298.832058 171.745892 
L 304.318108 177.231942 
L 310.673455 181.682003 
L 317.704994 184.960864 
L 325.199077 186.968898 
L 332.928 187.645091 
L 340.656923 186.968898 
L 348.151006 184.960864 
L 355.182545 181.682003 
L 361.537892 177.231942 
L 367.023942 171.745892 
L 371.474003 165.390545 
L 374.752864 158.359006 
L 376.760898 150.864923 
L 377.437091 143.136 
" style="fill:none;stroke:#ff0000;stroke-linecap:square;stroke-width:1.5;"/>
   </g>
   <g id="patch_3">
    <path d="M 78.336 243.504 
L 78.336 91.728 
" style="fill:none;stroke:#000000;stroke-linecap:square;stroke-linejoin:miter;stroke-width:1.5;"/>
   </g>
   <g id="patch_4">
    <path d="M 391.68 243.504 
L 391.68 91.728 
" style="fill:none;stroke:#000000;stroke-linecap:square;stroke-linejoin:miter;stroke-width:1.5;"/>
   </g>
   <g id="patch_5">
    <path d="M 78.336 243.504 
L 391.68 243.504 
" style="fill:none;stroke:#000000;stroke-linecap:square;stroke-linejoin:miter;stroke-width:1.5;"/>
   </g>
   <g id="patch_6">
    <path d="M 78.336 91.728 
L 391.68 91.728 
" style="fill:none;stroke:#000000;stroke-linecap:square;stroke-linejoin:miter;stroke-width:1.5;"/>
   </g>
  </g>
 </g>
 <defs>
  <clipPath id="p3af7fea015">
   <rect height="151.776" width="313.344" x="78.336" y="91.728"/>
  </clipPath>
 </defs>
</svg>
