<?xml version="1.0" encoding="utf-8" standalone="no"?>
<!DOCTYPE svg PUBLIC "-//W3C//DTD SVG 1.1//EN"
  "http://www.w3.org/Graphics/SVG/1.1/DTD/svg11.dtd">
<!-- Created with matplotlib (https://matplotlib.org/) -->
<svg height="345.6pt" version="1.1" viewBox="0 0 460.8 345.6" width="460.8pt" xmlns="http://www.w3.org/2000/svg" xmlns:xlink="http://www.w3.org/1999/xlink">
 <defs>
  <style type="text/css">
*{stroke-linecap:butt;stroke-linejoin:round;}
  </style>
 </defs>
 <g id="figure_1">
  <g id="patch_1">
   <path d="M 0 345.6 
L 460.8 345.6 
L 460.8 0 
L 0 0 
z
" style="fill:#ffffff;"/>
  </g>
  <g id="axes_1">
   <g id="patch_2">
    <path d="M 88.278637 293.76 
L 381.737363 293.76 
L 381.737363 41.472 
L 88.278637 41.472 
z
" style="fill:#ffffff;"/>
   </g>
   <g id="matplotlib.axis_1">
    <g id="xtick_1">
     <g id="line2d_1">
      <defs>
       <path d="M 0 0 
L 0 12 
" id="mc7983c99cd" style="stroke:#000000;stroke-width:1.5;"/>
      </defs>
      <g>
       <use style="stroke:#000000;stroke-width:1.5;" x="95.289563" xlink:href="#mc7983c99cd" y="293.76"/>
      </g>
     </g>
     <g id="text_1">
      <!-- −10 -->
      <defs>
       <path d="M 10.59375 35.5 
L 73.1875 35.5 
L 73.1875 27.203125 
L 10.59375 27.203125 
z
" id="DejaVuSans-8722"/>
       <path d="M 12.40625 8.296875 
L 28.515625 8.296875 
L 28.515625 63.921875 
L 10.984375 60.40625 
L 10.984375 69.390625 
L 28.421875 72.90625 
L 38.28125 72.90625 
L 38.28125 8.296875 
L 54.390625 8.296875 
L 54.390625 0 
L 12.40625 0 
z
" id="DejaVuSans-49"/>
       <path d="M 31.78125 66.40625 
Q 24.171875 66.40625 20.328125 58.90625 
Q 16.5 51.421875 16.5 36.375 
Q 16.5 21.390625 20.328125 13.890625 
Q 24.171875 6.390625 31.78125 6.390625 
Q 39.453125 6.390625 43.28125 13.890625 
Q 47.125 21.390625 47.125 36.375 
Q 47.125 51.421875 43.28125 58.90625 
Q 39.453125 66.40625 31.78125 66.40625 
z
M 31.78125 74.21875 
Q 44.046875 74.21875 50.515625 64.515625 
Q 56.984375 54.828125 56.984375 36.375 
Q 56.984375 17.96875 50.515625 8.265625 
Q 44.046875 -1.421875 31.78125 -1.421875 
Q 19.53125 -1.421875 13.0625 8.265625 
Q 6.59375 17.96875 6.59375 36.375 
Q 6.59375 54.828125 13.0625 64.515625 
Q 19.53125 74.21875 31.78125 74.21875 
z
" id="DejaVuSans-48"/>
      </defs>
      <g transform="translate(80.516282 319.897812)scale(0.14 -0.14)">
       <use xlink:href="#DejaVuSans-8722"/>
       <use x="83.789062" xlink:href="#DejaVuSans-49"/>
       <use x="147.412109" xlink:href="#DejaVuSans-48"/>
      </g>
     </g>
    </g>
    <g id="xtick_2">
     <g id="line2d_2">
      <g>
       <use style="stroke:#000000;stroke-width:1.5;" x="155.801901" xlink:href="#mc7983c99cd" y="293.76"/>
      </g>
     </g>
     <g id="text_2">
      <!-- −5 -->
      <defs>
       <path d="M 10.796875 72.90625 
L 49.515625 72.90625 
L 49.515625 64.59375 
L 19.828125 64.59375 
L 19.828125 46.734375 
Q 21.96875 47.46875 24.109375 47.828125 
Q 26.265625 48.1875 28.421875 48.1875 
Q 40.625 48.1875 47.75 41.5 
Q 54.890625 34.8125 54.890625 23.390625 
Q 54.890625 11.625 47.5625 5.09375 
Q 40.234375 -1.421875 26.90625 -1.421875 
Q 22.3125 -1.421875 17.546875 -0.640625 
Q 12.796875 0.140625 7.71875 1.703125 
L 7.71875 11.625 
Q 12.109375 9.234375 16.796875 8.0625 
Q 21.484375 6.890625 26.703125 6.890625 
Q 35.15625 6.890625 40.078125 11.328125 
Q 45.015625 15.765625 45.015625 23.390625 
Q 45.015625 31 40.078125 35.4375 
Q 35.15625 39.890625 26.703125 39.890625 
Q 22.75 39.890625 18.8125 39.015625 
Q 14.890625 38.140625 10.796875 36.28125 
z
" id="DejaVuSans-53"/>
      </defs>
      <g transform="translate(145.482369 319.897812)scale(0.14 -0.14)">
       <use xlink:href="#DejaVuSans-8722"/>
       <use x="83.789062" xlink:href="#DejaVuSans-53"/>
      </g>
     </g>
    </g>
    <g id="xtick_3">
     <g id="line2d_3">
      <g>
       <use style="stroke:#000000;stroke-width:1.5;" x="216.314238" xlink:href="#mc7983c99cd" y="293.76"/>
      </g>
     </g>
     <g id="text_3">
      <!-- 0 -->
      <g transform="translate(211.860488 319.897812)scale(0.14 -0.14)">
       <use xlink:href="#DejaVuSans-48"/>
      </g>
     </g>
    </g>
    <g id="xtick_4">
     <g id="line2d_4">
      <g>
       <use style="stroke:#000000;stroke-width:1.5;" x="276.826576" xlink:href="#mc7983c99cd" y="293.76"/>
      </g>
     </g>
     <g id="text_4">
      <!-- 5 -->
      <g transform="translate(272.372826 319.897812)scale(0.14 -0.14)">
       <use xlink:href="#DejaVuSans-53"/>
      </g>
     </g>
    </g>
    <g id="xtick_5">
     <g id="line2d_5">
      <g>
       <use style="stroke:#000000;stroke-width:1.5;" x="337.338913" xlink:href="#mc7983c99cd" y="293.76"/>
      </g>
     </g>
     <g id="text_5">
      <!-- 10 -->
      <g transform="translate(328.431413 319.897812)scale(0.14 -0.14)">
       <use xlink:href="#DejaVuSans-49"/>
       <use x="63.623047" xlink:href="#DejaVuSans-48"/>
      </g>
     </g>
    </g>
   </g>
   <g id="matplotlib.axis_2">
    <g id="ytick_1">
     <g id="line2d_6">
      <defs>
       <path d="M 0 0 
L -12 0 
" id="m0bb3c70c82" style="stroke:#000000;stroke-width:1.5;"/>
      </defs>
      <g>
       <use style="stroke:#000000;stroke-width:1.5;" x="88.278637" xlink:href="#m0bb3c70c82" y="269.752226"/>
      </g>
     </g>
     <g id="text_6">
      <!-- −10.0 -->
      <defs>
       <path d="M 10.6875 12.40625 
L 21 12.40625 
L 21 0 
L 10.6875 0 
z
" id="DejaVuSans-46"/>
      </defs>
      <g transform="translate(29.875199 275.071132)scale(0.14 -0.14)">
       <use xlink:href="#DejaVuSans-8722"/>
       <use x="83.789062" xlink:href="#DejaVuSans-49"/>
       <use x="147.412109" xlink:href="#DejaVuSans-48"/>
       <use x="211.035156" xlink:href="#DejaVuSans-46"/>
       <use x="242.822266" xlink:href="#DejaVuSans-48"/>
      </g>
     </g>
    </g>
    <g id="ytick_2">
     <g id="line2d_7">
      <g>
       <use style="stroke:#000000;stroke-width:1.5;" x="88.278637" xlink:href="#m0bb3c70c82" y="239.496057"/>
      </g>
     </g>
     <g id="text_7">
      <!-- −7.5 -->
      <defs>
       <path d="M 8.203125 72.90625 
L 55.078125 72.90625 
L 55.078125 68.703125 
L 28.609375 0 
L 18.3125 0 
L 43.21875 64.59375 
L 8.203125 64.59375 
z
" id="DejaVuSans-55"/>
      </defs>
      <g transform="translate(38.782699 244.814963)scale(0.14 -0.14)">
       <use xlink:href="#DejaVuSans-8722"/>
       <use x="83.789062" xlink:href="#DejaVuSans-55"/>
       <use x="147.412109" xlink:href="#DejaVuSans-46"/>
       <use x="179.199219" xlink:href="#DejaVuSans-53"/>
      </g>
     </g>
    </g>
    <g id="ytick_3">
     <g id="line2d_8">
      <g>
       <use style="stroke:#000000;stroke-width:1.5;" x="88.278637" xlink:href="#m0bb3c70c82" y="209.239888"/>
      </g>
     </g>
     <g id="text_8">
      <!-- −5.0 -->
      <g transform="translate(38.782699 214.558794)scale(0.14 -0.14)">
       <use xlink:href="#DejaVuSans-8722"/>
       <use x="83.789062" xlink:href="#DejaVuSans-53"/>
       <use x="147.412109" xlink:href="#DejaVuSans-46"/>
       <use x="179.199219" xlink:href="#DejaVuSans-48"/>
      </g>
     </g>
    </g>
    <g id="ytick_4">
     <g id="line2d_9">
      <g>
       <use style="stroke:#000000;stroke-width:1.5;" x="88.278637" xlink:href="#m0bb3c70c82" y="178.983719"/>
      </g>
     </g>
     <g id="text_9">
      <!-- −2.5 -->
      <defs>
       <path d="M 19.1875 8.296875 
L 53.609375 8.296875 
L 53.609375 0 
L 7.328125 0 
L 7.328125 8.296875 
Q 12.9375 14.109375 22.625 23.890625 
Q 32.328125 33.6875 34.8125 36.53125 
Q 39.546875 41.84375 41.421875 45.53125 
Q 43.3125 49.21875 43.3125 52.78125 
Q 43.3125 58.59375 39.234375 62.25 
Q 35.15625 65.921875 28.609375 65.921875 
Q 23.96875 65.921875 18.8125 64.3125 
Q 13.671875 62.703125 7.8125 59.421875 
L 7.8125 69.390625 
Q 13.765625 71.78125 18.9375 73 
Q 24.125 74.21875 28.421875 74.21875 
Q 39.75 74.21875 46.484375 68.546875 
Q 53.21875 62.890625 53.21875 53.421875 
Q 53.21875 48.921875 51.53125 44.890625 
Q 49.859375 40.875 45.40625 35.40625 
Q 44.1875 33.984375 37.640625 27.21875 
Q 31.109375 20.453125 19.1875 8.296875 
z
" id="DejaVuSans-50"/>
      </defs>
      <g transform="translate(38.782699 184.302626)scale(0.14 -0.14)">
       <use xlink:href="#DejaVuSans-8722"/>
       <use x="83.789062" xlink:href="#DejaVuSans-50"/>
       <use x="147.412109" xlink:href="#DejaVuSans-46"/>
       <use x="179.199219" xlink:href="#DejaVuSans-53"/>
      </g>
     </g>
    </g>
    <g id="ytick_5">
     <g id="line2d_10">
      <g>
       <use style="stroke:#000000;stroke-width:1.5;" x="88.278637" xlink:href="#m0bb3c70c82" y="148.727551"/>
      </g>
     </g>
     <g id="text_10">
      <!-- 0.0 -->
      <g transform="translate(50.514262 154.046457)scale(0.14 -0.14)">
       <use xlink:href="#DejaVuSans-48"/>
       <use x="63.623047" xlink:href="#DejaVuSans-46"/>
       <use x="95.410156" xlink:href="#DejaVuSans-48"/>
      </g>
     </g>
    </g>
    <g id="ytick_6">
     <g id="line2d_11">
      <g>
       <use style="stroke:#000000;stroke-width:1.5;" x="88.278637" xlink:href="#m0bb3c70c82" y="118.471382"/>
      </g>
     </g>
     <g id="text_11">
      <!-- 2.5 -->
      <g transform="translate(50.514262 123.790288)scale(0.14 -0.14)">
       <use xlink:href="#DejaVuSans-50"/>
       <use x="63.623047" xlink:href="#DejaVuSans-46"/>
       <use x="95.410156" xlink:href="#DejaVuSans-53"/>
      </g>
     </g>
    </g>
    <g id="ytick_7">
     <g id="line2d_12">
      <g>
       <use style="stroke:#000000;stroke-width:1.5;" x="88.278637" xlink:href="#m0bb3c70c82" y="88.215213"/>
      </g>
     </g>
     <g id="text_12">
      <!-- 5.0 -->
      <g transform="translate(50.514262 93.534119)scale(0.14 -0.14)">
       <use xlink:href="#DejaVuSans-53"/>
       <use x="63.623047" xlink:href="#DejaVuSans-46"/>
       <use x="95.410156" xlink:href="#DejaVuSans-48"/>
      </g>
     </g>
    </g>
    <g id="ytick_8">
     <g id="line2d_13">
      <g>
       <use style="stroke:#000000;stroke-width:1.5;" x="88.278637" xlink:href="#m0bb3c70c82" y="57.959044"/>
      </g>
     </g>
     <g id="text_13">
      <!-- 7.5 -->
      <g transform="translate(50.514262 63.27795)scale(0.14 -0.14)">
       <use xlink:href="#DejaVuSans-55"/>
       <use x="63.623047" xlink:href="#DejaVuSans-46"/>
       <use x="95.410156" xlink:href="#DejaVuSans-53"/>
      </g>
     </g>
    </g>
   </g>
   <g id="line2d_14">
    <path clip-path="url(#p26fa5cd3a4)" d="M 216.314238 148.727551 
L 217.830548 148.535023 
L 219.274202 147.963575 
L 220.574476 147.03146 
L 221.664462 145.768617 
L 222.482869 144.215952 
L 222.975703 142.424353 
L 223.097774 140.453468 
L 222.814017 138.370254 
L 222.100573 136.247346 
L 220.945622 134.161274 
L 219.349944 132.190558 
L 218.390592 131.273058 
L 217.327183 130.413742 
L 216.163427 129.622104 
L 214.90382 128.907387 
L 213.553622 128.278526 
L 212.11884 127.744084 
L 210.606198 127.3122 
L 209.023108 126.990526 
L 207.377634 126.786177 
L 205.678454 126.705675 
L 203.934814 126.754908 
L 202.156486 126.939077 
L 200.353714 127.262656 
L 198.537163 127.729354 
L 196.717859 128.342082 
L 194.907134 129.102917 
L 193.116565 130.013083 
L 191.357905 131.072921 
L 189.643022 132.281881 
L 187.983834 133.6385 
L 186.392236 135.140403 
L 184.880036 136.784293 
L 183.458883 138.56596 
L 182.140201 140.480283 
L 180.935119 142.521246 
L 179.854402 144.681955 
L 178.908387 146.954658 
L 178.106916 149.330776 
L 177.459274 151.800933 
L 176.974125 154.354994 
L 176.659455 156.982107 
L 176.522519 159.670746 
L 176.56978 162.408766 
L 176.80687 165.183452 
L 177.238535 167.98158 
L 177.8686 170.789479 
L 178.69993 173.593093 
L 179.734392 176.378048 
L 180.972836 179.129727 
L 182.415064 181.833337 
L 184.059817 184.473985 
L 185.904758 187.036754 
L 187.946468 189.50678 
L 190.180441 191.869331 
L 192.601091 194.109881 
L 195.201758 196.214193 
L 197.974723 198.168396 
L 200.911229 199.959059 
L 204.001507 201.573269 
L 207.234808 202.998709 
L 210.599435 204.223723 
L 214.082792 205.237394 
L 217.671425 206.029606 
L 221.351076 206.591111 
L 225.106742 206.91359 
L 228.922731 206.989711 
L 232.782733 206.81318 
L 236.669885 206.378793 
L 240.566846 205.682477 
L 244.455874 204.721332 
L 248.318905 203.493666 
L 252.137634 201.999018 
L 255.893602 200.23819 
L 259.56828 198.213256 
L 263.143159 195.927579 
L 266.599837 193.385814 
L 269.920111 190.593908 
L 273.086068 187.559091 
L 276.080171 184.289867 
L 278.885351 180.795989 
L 281.485099 177.088438 
L 283.863545 173.179388 
L 286.005551 169.08217 
L 287.896789 164.811224 
L 289.523823 160.382054 
L 290.874186 155.81117 
L 291.936454 151.116025 
L 292.700315 146.31495 
L 293.156633 141.427086 
L 293.297512 136.472299 
L 293.11635 131.471109 
L 292.607886 126.444599 
L 291.768251 121.414328 
L 290.595004 116.402238 
L 289.087163 111.430562 
L 287.245235 106.521725 
L 285.071232 101.69824 
L 282.568688 96.982615 
L 279.742663 92.397241 
L 276.599745 87.964295 
L 273.148037 83.705635 
L 269.39715 79.642693 
L 265.358173 75.796375 
L 261.043652 72.186956 
L 256.467548 68.833984 
L 251.645197 65.756176 
L 246.593262 62.971327 
L 241.329673 60.496214 
L 235.873567 58.346506 
L 230.245218 56.536682 
L 224.465962 55.079946 
L 218.55812 53.988153 
L 212.544903 53.271734 
L 206.450331 52.939636 
L 200.299131 52.999258 
L 194.116639 53.456396 
L 187.928693 54.3152 
L 181.761528 55.578131 
L 175.641666 57.24593 
L 169.5958 59.317586 
L 163.650677 61.790326 
L 157.832988 64.659599 
L 152.16924 67.919074 
L 146.685646 71.560644 
L 141.407999 75.574441 
L 136.361557 79.948855 
L 131.570928 84.670564 
L 127.059946 89.724569 
L 122.851567 95.094241 
L 118.967749 100.761371 
L 115.42935 106.706231 
L 112.25602 112.907641 
L 109.466102 119.343043 
L 107.076535 125.988583 
L 105.102764 132.8192 
L 103.558656 139.808715 
L 102.456419 146.929939 
L 101.80653 154.154773 
L 101.61767 161.454321 
L 101.89666 168.799003 
L 102.648419 176.158679 
L 103.875911 183.502771 
L 105.580116 190.800388 
L 107.759998 198.020458 
L 110.412489 205.131857 
L 113.532479 212.103546 
L 117.112812 218.904701 
L 121.144296 225.504855 
L 125.615719 231.874024 
L 130.513873 237.982846 
L 135.82359 243.802717 
L 141.527783 249.305914 
L 147.6075 254.465731 
L 154.041983 259.256599 
L 160.808738 263.654211 
L 167.883611 267.635642 
L 175.240873 271.179453 
L 182.853313 274.26581 
L 190.692341 276.876576 
L 198.72809 278.995413 
L 206.92953 280.607869 
L 215.264594 281.701458 
L 223.700294 282.265736 
L 232.202861 282.292364 
L 240.737871 281.775169 
L 249.270392 280.710193 
L 257.765122 279.095727 
L 266.186539 276.932349 
L 274.499044 274.222939 
L 282.667115 270.972696 
L 290.655457 267.189135 
L 298.429154 262.882079 
L 305.953819 258.063644 
L 313.195746 252.74821 
L 320.122058 246.952379 
L 326.700857 240.694933 
L 332.901363 233.996771 
L 338.69406 226.880846 
L 344.05083 219.372086 
L 348.945086 211.497309 
L 353.351898 203.285128 
L 357.248116 194.765849 
L 360.612481 185.971361 
L 363.425736 176.935012 
L 365.670726 167.691491 
L 367.332486 158.276685 
L 368.39833 148.727551 
L 368.39833 148.727551 
" style="fill:none;stroke:#1f77b4;stroke-linecap:square;stroke-width:1.5;"/>
   </g>
   <g id="patch_3">
    <path d="M 88.278637 293.76 
L 88.278637 41.472 
" style="fill:none;stroke:#000000;stroke-linecap:square;stroke-linejoin:miter;stroke-width:1.5;"/>
   </g>
   <g id="patch_4">
    <path d="M 381.737363 293.76 
L 381.737363 41.472 
" style="fill:none;stroke:#000000;stroke-linecap:square;stroke-linejoin:miter;stroke-width:1.5;"/>
   </g>
   <g id="patch_5">
    <path d="M 88.278637 293.76 
L 381.737363 293.76 
" style="fill:none;stroke:#000000;stroke-linecap:square;stroke-linejoin:miter;stroke-width:1.5;"/>
   </g>
   <g id="patch_6">
    <path d="M 88.278637 41.472 
L 381.737363 41.472 
" style="fill:none;stroke:#000000;stroke-linecap:square;stroke-linejoin:miter;stroke-width:1.5;"/>
   </g>
  </g>
 </g>
 <defs>
  <clipPath id="p26fa5cd3a4">
   <rect height="252.288" width="293.458727" x="88.278637" y="41.472"/>
  </clipPath>
 </defs>
</svg>
