<?xml version="1.0" encoding="utf-8" standalone="no"?>
<!DOCTYPE svg PUBLIC "-//W3C//DTD SVG 1.1//EN"
  "http://www.w3.org/Graphics/SVG/1.1/DTD/svg11.dtd">
<!-- Created with matplotlib (https://matplotlib.org/) -->
<svg height="345.6pt" version="1.1" viewBox="0 0 460.8 345.6" width="460.8pt" xmlns="http://www.w3.org/2000/svg" xmlns:xlink="http://www.w3.org/1999/xlink">
 <defs>
  <style type="text/css">
*{stroke-linecap:butt;stroke-linejoin:round;}
  </style>
 </defs>
 <g id="figure_1">
  <g id="patch_1">
   <path d="M 0 345.6 
L 460.8 345.6 
L 460.8 0 
L 0 0 
z
" style="fill:#ffffff;"/>
  </g>
  <g id="axes_1">
   <g id="patch_2">
    <path d="M 108.864 293.76 
L 361.152 293.76 
L 361.152 41.472 
L 108.864 41.472 
z
" style="fill:#ffffff;"/>
   </g>
   <g id="matplotlib.axis_1">
    <g id="xtick_1">
     <g id="line2d_1">
      <defs>
       <path d="M 0 0 
L 0 12 
" id="ma01b8da257" style="stroke:#000000;stroke-width:1.5;"/>
      </defs>
      <g>
       <use style="stroke:#000000;stroke-width:1.5;" x="108.864" xlink:href="#ma01b8da257" y="293.76"/>
      </g>
     </g>
     <g id="text_1">
      <!-- −3 -->
      <defs>
       <path d="M 10.59375 35.5 
L 73.1875 35.5 
L 73.1875 27.203125 
L 10.59375 27.203125 
z
" id="DejaVuSans-8722"/>
       <path d="M 40.578125 39.3125 
Q 47.65625 37.796875 51.625 33 
Q 55.609375 28.21875 55.609375 21.1875 
Q 55.609375 10.40625 48.1875 4.484375 
Q 40.765625 -1.421875 27.09375 -1.421875 
Q 22.515625 -1.421875 17.65625 -0.515625 
Q 12.796875 0.390625 7.625 2.203125 
L 7.625 11.71875 
Q 11.71875 9.328125 16.59375 8.109375 
Q 21.484375 6.890625 26.8125 6.890625 
Q 36.078125 6.890625 40.9375 10.546875 
Q 45.796875 14.203125 45.796875 21.1875 
Q 45.796875 27.640625 41.28125 31.265625 
Q 36.765625 34.90625 28.71875 34.90625 
L 20.21875 34.90625 
L 20.21875 43.015625 
L 29.109375 43.015625 
Q 36.375 43.015625 40.234375 45.921875 
Q 44.09375 48.828125 44.09375 54.296875 
Q 44.09375 59.90625 40.109375 62.90625 
Q 36.140625 65.921875 28.71875 65.921875 
Q 24.65625 65.921875 20.015625 65.03125 
Q 15.375 64.15625 9.8125 62.3125 
L 9.8125 71.09375 
Q 15.4375 72.65625 20.34375 73.4375 
Q 25.25 74.21875 29.59375 74.21875 
Q 40.828125 74.21875 47.359375 69.109375 
Q 53.90625 64.015625 53.90625 55.328125 
Q 53.90625 49.265625 50.4375 45.09375 
Q 46.96875 40.921875 40.578125 39.3125 
z
" id="DejaVuSans-51"/>
      </defs>
      <g transform="translate(98.544469 319.897812)scale(0.14 -0.14)">
       <use xlink:href="#DejaVuSans-8722"/>
       <use x="83.789062" xlink:href="#DejaVuSans-51"/>
      </g>
     </g>
    </g>
    <g id="xtick_2">
     <g id="line2d_2">
      <g>
       <use style="stroke:#000000;stroke-width:1.5;" x="150.912" xlink:href="#ma01b8da257" y="293.76"/>
      </g>
     </g>
     <g id="text_2">
      <!-- −2 -->
      <defs>
       <path d="M 19.1875 8.296875 
L 53.609375 8.296875 
L 53.609375 0 
L 7.328125 0 
L 7.328125 8.296875 
Q 12.9375 14.109375 22.625 23.890625 
Q 32.328125 33.6875 34.8125 36.53125 
Q 39.546875 41.84375 41.421875 45.53125 
Q 43.3125 49.21875 43.3125 52.78125 
Q 43.3125 58.59375 39.234375 62.25 
Q 35.15625 65.921875 28.609375 65.921875 
Q 23.96875 65.921875 18.8125 64.3125 
Q 13.671875 62.703125 7.8125 59.421875 
L 7.8125 69.390625 
Q 13.765625 71.78125 18.9375 73 
Q 24.125 74.21875 28.421875 74.21875 
Q 39.75 74.21875 46.484375 68.546875 
Q 53.21875 62.890625 53.21875 53.421875 
Q 53.21875 48.921875 51.53125 44.890625 
Q 49.859375 40.875 45.40625 35.40625 
Q 44.1875 33.984375 37.640625 27.21875 
Q 31.109375 20.453125 19.1875 8.296875 
z
" id="DejaVuSans-50"/>
      </defs>
      <g transform="translate(140.592469 319.897812)scale(0.14 -0.14)">
       <use xlink:href="#DejaVuSans-8722"/>
       <use x="83.789062" xlink:href="#DejaVuSans-50"/>
      </g>
     </g>
    </g>
    <g id="xtick_3">
     <g id="line2d_3">
      <g>
       <use style="stroke:#000000;stroke-width:1.5;" x="192.96" xlink:href="#ma01b8da257" y="293.76"/>
      </g>
     </g>
     <g id="text_3">
      <!-- −1 -->
      <defs>
       <path d="M 12.40625 8.296875 
L 28.515625 8.296875 
L 28.515625 63.921875 
L 10.984375 60.40625 
L 10.984375 69.390625 
L 28.421875 72.90625 
L 38.28125 72.90625 
L 38.28125 8.296875 
L 54.390625 8.296875 
L 54.390625 0 
L 12.40625 0 
z
" id="DejaVuSans-49"/>
      </defs>
      <g transform="translate(182.640469 319.897812)scale(0.14 -0.14)">
       <use xlink:href="#DejaVuSans-8722"/>
       <use x="83.789062" xlink:href="#DejaVuSans-49"/>
      </g>
     </g>
    </g>
    <g id="xtick_4">
     <g id="line2d_4">
      <g>
       <use style="stroke:#000000;stroke-width:1.5;" x="235.008" xlink:href="#ma01b8da257" y="293.76"/>
      </g>
     </g>
     <g id="text_4">
      <!-- 0 -->
      <defs>
       <path d="M 31.78125 66.40625 
Q 24.171875 66.40625 20.328125 58.90625 
Q 16.5 51.421875 16.5 36.375 
Q 16.5 21.390625 20.328125 13.890625 
Q 24.171875 6.390625 31.78125 6.390625 
Q 39.453125 6.390625 43.28125 13.890625 
Q 47.125 21.390625 47.125 36.375 
Q 47.125 51.421875 43.28125 58.90625 
Q 39.453125 66.40625 31.78125 66.40625 
z
M 31.78125 74.21875 
Q 44.046875 74.21875 50.515625 64.515625 
Q 56.984375 54.828125 56.984375 36.375 
Q 56.984375 17.96875 50.515625 8.265625 
Q 44.046875 -1.421875 31.78125 -1.421875 
Q 19.53125 -1.421875 13.0625 8.265625 
Q 6.59375 17.96875 6.59375 36.375 
Q 6.59375 54.828125 13.0625 64.515625 
Q 19.53125 74.21875 31.78125 74.21875 
z
" id="DejaVuSans-48"/>
      </defs>
      <g transform="translate(230.55425 319.897812)scale(0.14 -0.14)">
       <use xlink:href="#DejaVuSans-48"/>
      </g>
     </g>
    </g>
    <g id="xtick_5">
     <g id="line2d_5">
      <g>
       <use style="stroke:#000000;stroke-width:1.5;" x="277.056" xlink:href="#ma01b8da257" y="293.76"/>
      </g>
     </g>
     <g id="text_5">
      <!-- 1 -->
      <g transform="translate(272.60225 319.897812)scale(0.14 -0.14)">
       <use xlink:href="#DejaVuSans-49"/>
      </g>
     </g>
    </g>
    <g id="xtick_6">
     <g id="line2d_6">
      <g>
       <use style="stroke:#000000;stroke-width:1.5;" x="319.104" xlink:href="#ma01b8da257" y="293.76"/>
      </g>
     </g>
     <g id="text_6">
      <!-- 2 -->
      <g transform="translate(314.65025 319.897812)scale(0.14 -0.14)">
       <use xlink:href="#DejaVuSans-50"/>
      </g>
     </g>
    </g>
    <g id="xtick_7">
     <g id="line2d_7">
      <g>
       <use style="stroke:#000000;stroke-width:1.5;" x="361.152" xlink:href="#ma01b8da257" y="293.76"/>
      </g>
     </g>
     <g id="text_7">
      <!-- 3 -->
      <g transform="translate(356.69825 319.897812)scale(0.14 -0.14)">
       <use xlink:href="#DejaVuSans-51"/>
      </g>
     </g>
    </g>
    <g id="text_8">
     <!-- y -->
     <defs>
      <path d="M 32.171875 -5.078125 
Q 28.375 -14.84375 24.75 -17.8125 
Q 21.140625 -20.796875 15.09375 -20.796875 
L 7.90625 -20.796875 
L 7.90625 -13.28125 
L 13.1875 -13.28125 
Q 16.890625 -13.28125 18.9375 -11.515625 
Q 21 -9.765625 23.484375 -3.21875 
L 25.09375 0.875 
L 2.984375 54.6875 
L 12.5 54.6875 
L 29.59375 11.921875 
L 46.6875 54.6875 
L 56.203125 54.6875 
z
" id="DejaVuSans-121"/>
     </defs>
     <g transform="translate(230.864875 337.447187)scale(0.14 -0.14)">
      <use xlink:href="#DejaVuSans-121"/>
     </g>
    </g>
   </g>
   <g id="matplotlib.axis_2">
    <g id="ytick_1">
     <g id="line2d_8">
      <defs>
       <path d="M 0 0 
L -12 0 
" id="m1e3cfd16ac" style="stroke:#000000;stroke-width:1.5;"/>
      </defs>
      <g>
       <use style="stroke:#000000;stroke-width:1.5;" x="108.864" xlink:href="#m1e3cfd16ac" y="293.76"/>
      </g>
     </g>
     <g id="text_9">
      <!-- −3 -->
      <g transform="translate(72.724938 299.078906)scale(0.14 -0.14)">
       <use xlink:href="#DejaVuSans-8722"/>
       <use x="83.789062" xlink:href="#DejaVuSans-51"/>
      </g>
     </g>
    </g>
    <g id="ytick_2">
     <g id="line2d_9">
      <g>
       <use style="stroke:#000000;stroke-width:1.5;" x="108.864" xlink:href="#m1e3cfd16ac" y="251.712"/>
      </g>
     </g>
     <g id="text_10">
      <!-- −2 -->
      <g transform="translate(72.724938 257.030906)scale(0.14 -0.14)">
       <use xlink:href="#DejaVuSans-8722"/>
       <use x="83.789062" xlink:href="#DejaVuSans-50"/>
      </g>
     </g>
    </g>
    <g id="ytick_3">
     <g id="line2d_10">
      <g>
       <use style="stroke:#000000;stroke-width:1.5;" x="108.864" xlink:href="#m1e3cfd16ac" y="209.664"/>
      </g>
     </g>
     <g id="text_11">
      <!-- −1 -->
      <g transform="translate(72.724938 214.982906)scale(0.14 -0.14)">
       <use xlink:href="#DejaVuSans-8722"/>
       <use x="83.789062" xlink:href="#DejaVuSans-49"/>
      </g>
     </g>
    </g>
    <g id="ytick_4">
     <g id="line2d_11">
      <g>
       <use style="stroke:#000000;stroke-width:1.5;" x="108.864" xlink:href="#m1e3cfd16ac" y="167.616"/>
      </g>
     </g>
     <g id="text_12">
      <!-- 0 -->
      <g transform="translate(84.4565 172.934906)scale(0.14 -0.14)">
       <use xlink:href="#DejaVuSans-48"/>
      </g>
     </g>
    </g>
    <g id="ytick_5">
     <g id="line2d_12">
      <g>
       <use style="stroke:#000000;stroke-width:1.5;" x="108.864" xlink:href="#m1e3cfd16ac" y="125.568"/>
      </g>
     </g>
     <g id="text_13">
      <!-- 1 -->
      <g transform="translate(84.4565 130.886906)scale(0.14 -0.14)">
       <use xlink:href="#DejaVuSans-49"/>
      </g>
     </g>
    </g>
    <g id="ytick_6">
     <g id="line2d_13">
      <g>
       <use style="stroke:#000000;stroke-width:1.5;" x="108.864" xlink:href="#m1e3cfd16ac" y="83.52"/>
      </g>
     </g>
     <g id="text_14">
      <!-- 2 -->
      <g transform="translate(84.4565 88.838906)scale(0.14 -0.14)">
       <use xlink:href="#DejaVuSans-50"/>
      </g>
     </g>
    </g>
    <g id="ytick_7">
     <g id="line2d_14">
      <g>
       <use style="stroke:#000000;stroke-width:1.5;" x="108.864" xlink:href="#m1e3cfd16ac" y="41.472"/>
      </g>
     </g>
     <g id="text_15">
      <!-- 3 -->
      <g transform="translate(84.4565 46.790906)scale(0.14 -0.14)">
       <use xlink:href="#DejaVuSans-51"/>
      </g>
     </g>
    </g>
   </g>
   <g id="line2d_15">
    <path clip-path="url(#p4f03cf6fc6)" d="M -1 94.426103 
L 2.516069 95.035404 
L 7.799977 95.970758 
L 13.083884 96.926648 
L 18.367792 97.903959 
L 23.651699 98.90363 
L 28.935607 99.92666 
L 34.219514 100.974115 
L 39.503422 102.047128 
L 44.787329 103.146909 
L 50.071237 104.274748 
L 55.355144 105.432024 
L 60.639052 106.620211 
L 65.922959 107.840886 
L 71.206867 109.095738 
L 76.490775 110.386575 
L 81.774682 111.715334 
L 87.05859 113.084089 
L 92.342497 114.495065 
L 97.626405 115.95064 
L 102.910312 117.45336 
L 108.19422 119.005943 
L 113.478127 120.61128 
L 118.762035 122.272441 
L 124.045942 123.992661 
L 129.32985 125.775329 
L 134.613757 127.623947 
L 139.897665 129.542079 
L 145.181572 131.53326 
L 150.46548 133.600853 
L 155.749387 135.747842 
L 161.033295 137.97651 
L 166.317202 140.287984 
L 171.60111 142.681551 
L 176.885017 145.153693 
L 182.168925 147.696712 
L 187.452832 150.296829 
L 192.73674 152.931644 
L 198.020647 155.566911 
L 203.304555 158.152827 
L 208.588462 160.620481 
L 213.87237 162.879907 
L 219.156277 164.822158 
L 224.440185 166.328264 
L 229.724092 167.286596 
L 235.008 167.616 
L 240.291908 167.286596 
L 245.575815 166.328264 
L 250.859723 164.822158 
L 256.14363 162.879907 
L 261.427538 160.620481 
L 266.711445 158.152827 
L 271.995353 155.566911 
L 277.27926 152.931644 
L 282.563168 150.296829 
L 287.847075 147.696712 
L 293.130983 145.153693 
L 298.41489 142.681551 
L 303.698798 140.287984 
L 308.982705 137.97651 
L 314.266613 135.747842 
L 319.55052 133.600853 
L 324.834428 131.53326 
L 330.118335 129.542079 
L 335.402243 127.623947 
L 340.68615 125.775329 
L 345.970058 123.992661 
L 351.253965 122.272441 
L 356.537873 120.61128 
L 361.82178 119.005943 
L 367.105688 117.45336 
L 372.389595 115.95064 
L 377.673503 114.495065 
L 382.95741 113.084089 
L 388.241318 111.715334 
L 393.525225 110.386575 
L 398.809133 109.095738 
L 404.093041 107.840886 
L 409.376948 106.620211 
L 414.660856 105.432024 
L 419.944763 104.274748 
L 425.228671 103.146909 
L 430.512578 102.047128 
L 435.796486 100.974115 
L 441.080393 99.92666 
L 446.364301 98.90363 
L 451.648208 97.903959 
L 456.932116 96.926648 
L 461.8 96.046019 
" style="fill:none;stroke:#1f77b4;stroke-linecap:square;stroke-width:1.5;"/>
   </g>
   <g id="line2d_16">
    <path clip-path="url(#p4f03cf6fc6)" d="M -1 226.250425 
L 2.516069 226.141457 
L 7.799977 225.970332 
L 13.083884 225.791334 
L 18.367792 225.603914 
L 23.651699 225.407472 
L 28.935607 225.201349 
L 34.219514 224.984822 
L 39.503422 224.757096 
L 44.787329 224.517293 
L 50.071237 224.264442 
L 55.355144 223.99747 
L 60.639052 223.715183 
L 65.922959 223.416252 
L 71.206867 223.099192 
L 76.490775 222.762344 
L 81.774682 222.403842 
L 87.05859 222.021586 
L 92.342497 221.613205 
L 97.626405 221.176012 
L 102.910312 220.706951 
L 108.19422 220.202536 
L 113.478127 219.658777 
L 118.762035 219.07109 
L 124.045942 218.434187 
L 129.32985 217.741947 
L 134.613757 216.987262 
L 139.897665 216.161841 
L 145.181572 215.255986 
L 150.46548 214.258315 
L 155.749387 213.15544 
L 161.033295 211.931578 
L 166.317202 210.568125 
L 171.60111 209.043176 
L 176.885017 207.331049 
L 182.168925 205.401892 
L 187.452832 203.221519 
L 192.73674 200.751756 
L 198.020647 197.951752 
L 203.304555 194.780895 
L 208.588462 191.204176 
L 213.87237 187.200664 
L 219.156277 182.774942 
L 224.440185 177.969378 
L 229.724092 172.872355 
L 235.008 167.616 
L 240.291908 162.359645 
L 245.575815 157.262622 
L 250.859723 152.457058 
L 256.14363 148.031336 
L 261.427538 144.027824 
L 266.711445 140.451105 
L 271.995353 137.280248 
L 277.27926 134.480244 
L 282.563168 132.010481 
L 287.847075 129.830108 
L 293.130983 127.900951 
L 298.41489 126.188824 
L 303.698798 124.663875 
L 308.982705 123.300422 
L 314.266613 122.07656 
L 319.55052 120.973685 
L 324.834428 119.976014 
L 330.118335 119.070159 
L 335.402243 118.244738 
L 340.68615 117.490053 
L 345.970058 116.797813 
L 351.253965 116.16091 
L 356.537873 115.573223 
L 361.82178 115.029464 
L 367.105688 114.525049 
L 372.389595 114.055988 
L 377.673503 113.618795 
L 382.95741 113.210414 
L 388.241318 112.828158 
L 393.525225 112.469656 
L 398.809133 112.132808 
L 404.093041 111.815748 
L 409.376948 111.516817 
L 414.660856 111.23453 
L 419.944763 110.967558 
L 425.228671 110.714707 
L 430.512578 110.474904 
L 435.796486 110.247178 
L 441.080393 110.030651 
L 446.364301 109.824528 
L 451.648208 109.628086 
L 456.932116 109.440666 
L 461.8 109.275762 
" style="fill:none;stroke:#ff7f0e;stroke-linecap:square;stroke-width:1.5;"/>
   </g>
   <g id="line2d_17">
    <path clip-path="url(#p4f03cf6fc6)" d="M 108.864 167.616 
L 361.152 167.616 
" style="fill:none;stroke:#000000;stroke-linecap:square;stroke-width:0.5;"/>
   </g>
   <g id="line2d_18">
    <path clip-path="url(#p4f03cf6fc6)" d="M 235.008 293.76 
L 235.008 41.472 
" style="fill:none;stroke:#000000;stroke-linecap:square;stroke-width:0.5;"/>
   </g>
   <g id="line2d_19">
    <path clip-path="url(#p4f03cf6fc6)" d="M 108.864 101.567156 
L 361.152 101.567156 
" style="fill:none;stroke:#00bfbf;stroke-linecap:square;stroke-width:0.5;"/>
   </g>
   <g id="line2d_20">
    <path clip-path="url(#p4f03cf6fc6)" d="M 108.864 233.664844 
L 361.152 233.664844 
" style="fill:none;stroke:#00bfbf;stroke-linecap:square;stroke-width:0.5;"/>
   </g>
   <g id="line2d_21">
    <path clip-path="url(#p4f03cf6fc6)" d="M 108.864 153.043274 
L 361.152 153.043274 
" style="fill:none;stroke:#bf00bf;stroke-linecap:square;stroke-width:0.5;"/>
   </g>
   <g id="line2d_22">
    <path clip-path="url(#p4f03cf6fc6)" d="M 260.2368 134.591578 
L 361.152 134.591578 
" style="fill:none;stroke:#bf00bf;stroke-linecap:square;stroke-width:0.5;"/>
   </g>
   <g id="line2d_23">
    <path clip-path="url(#p4f03cf6fc6)" d="M 108.864 200.640422 
L 209.7792 200.640422 
" style="fill:none;stroke:#bf00bf;stroke-linecap:square;stroke-width:0.5;"/>
   </g>
   <g id="line2d_24">
    <path clip-path="url(#p4f03cf6fc6)" d="M 277.056 293.76 
L 277.056 41.472 
" style="fill:none;stroke:#bf00bf;stroke-linecap:square;stroke-width:0.5;"/>
   </g>
   <g id="line2d_25">
    <path clip-path="url(#p4f03cf6fc6)" d="M 192.96 293.76 
L 192.96 41.472 
" style="fill:none;stroke:#bf00bf;stroke-linecap:square;stroke-width:0.5;"/>
   </g>
   <g id="patch_3">
    <path d="M 108.864 293.76 
L 108.864 41.472 
" style="fill:none;stroke:#000000;stroke-linecap:square;stroke-linejoin:miter;stroke-width:1.5;"/>
   </g>
   <g id="patch_4">
    <path d="M 361.152 293.76 
L 361.152 41.472 
" style="fill:none;stroke:#000000;stroke-linecap:square;stroke-linejoin:miter;stroke-width:1.5;"/>
   </g>
   <g id="patch_5">
    <path d="M 108.864 293.76 
L 361.152 293.76 
" style="fill:none;stroke:#000000;stroke-linecap:square;stroke-linejoin:miter;stroke-width:1.5;"/>
   </g>
   <g id="patch_6">
    <path d="M 108.864 41.472 
L 361.152 41.472 
" style="fill:none;stroke:#000000;stroke-linecap:square;stroke-linejoin:miter;stroke-width:1.5;"/>
   </g>
   <g id="legend_1">
    <g id="patch_7">
     <path d="M 190.577312 286.76 
L 351.352 286.76 
Q 354.152 286.76 354.152 283.96 
L 354.152 244.26125 
Q 354.152 241.46125 351.352 241.46125 
L 190.577312 241.46125 
Q 187.777312 241.46125 187.777312 244.26125 
L 187.777312 283.96 
Q 187.777312 286.76 190.577312 286.76 
z
" style="fill:none;opacity:0;"/>
    </g>
    <g id="line2d_26">
     <path d="M 193.377312 252.799062 
L 221.377312 252.799062 
" style="fill:none;stroke:#1f77b4;stroke-linecap:square;stroke-width:1.5;"/>
    </g>
    <g id="line2d_27"/>
    <g id="text_16">
     <!-- real log (1+i*y) -->
     <defs>
      <path d="M 41.109375 46.296875 
Q 39.59375 47.171875 37.8125 47.578125 
Q 36.03125 48 33.890625 48 
Q 26.265625 48 22.1875 43.046875 
Q 18.109375 38.09375 18.109375 28.8125 
L 18.109375 0 
L 9.078125 0 
L 9.078125 54.6875 
L 18.109375 54.6875 
L 18.109375 46.1875 
Q 20.953125 51.171875 25.484375 53.578125 
Q 30.03125 56 36.53125 56 
Q 37.453125 56 38.578125 55.875 
Q 39.703125 55.765625 41.0625 55.515625 
z
" id="DejaVuSans-114"/>
      <path d="M 56.203125 29.59375 
L 56.203125 25.203125 
L 14.890625 25.203125 
Q 15.484375 15.921875 20.484375 11.0625 
Q 25.484375 6.203125 34.421875 6.203125 
Q 39.59375 6.203125 44.453125 7.46875 
Q 49.3125 8.734375 54.109375 11.28125 
L 54.109375 2.78125 
Q 49.265625 0.734375 44.1875 -0.34375 
Q 39.109375 -1.421875 33.890625 -1.421875 
Q 20.796875 -1.421875 13.15625 6.1875 
Q 5.515625 13.8125 5.515625 26.8125 
Q 5.515625 40.234375 12.765625 48.109375 
Q 20.015625 56 32.328125 56 
Q 43.359375 56 49.78125 48.890625 
Q 56.203125 41.796875 56.203125 29.59375 
z
M 47.21875 32.234375 
Q 47.125 39.59375 43.09375 43.984375 
Q 39.0625 48.390625 32.421875 48.390625 
Q 24.90625 48.390625 20.390625 44.140625 
Q 15.875 39.890625 15.1875 32.171875 
z
" id="DejaVuSans-101"/>
      <path d="M 34.28125 27.484375 
Q 23.390625 27.484375 19.1875 25 
Q 14.984375 22.515625 14.984375 16.5 
Q 14.984375 11.71875 18.140625 8.90625 
Q 21.296875 6.109375 26.703125 6.109375 
Q 34.1875 6.109375 38.703125 11.40625 
Q 43.21875 16.703125 43.21875 25.484375 
L 43.21875 27.484375 
z
M 52.203125 31.203125 
L 52.203125 0 
L 43.21875 0 
L 43.21875 8.296875 
Q 40.140625 3.328125 35.546875 0.953125 
Q 30.953125 -1.421875 24.3125 -1.421875 
Q 15.921875 -1.421875 10.953125 3.296875 
Q 6 8.015625 6 15.921875 
Q 6 25.140625 12.171875 29.828125 
Q 18.359375 34.515625 30.609375 34.515625 
L 43.21875 34.515625 
L 43.21875 35.40625 
Q 43.21875 41.609375 39.140625 45 
Q 35.0625 48.390625 27.6875 48.390625 
Q 23 48.390625 18.546875 47.265625 
Q 14.109375 46.140625 10.015625 43.890625 
L 10.015625 52.203125 
Q 14.9375 54.109375 19.578125 55.046875 
Q 24.21875 56 28.609375 56 
Q 40.484375 56 46.34375 49.84375 
Q 52.203125 43.703125 52.203125 31.203125 
z
" id="DejaVuSans-97"/>
      <path d="M 9.421875 75.984375 
L 18.40625 75.984375 
L 18.40625 0 
L 9.421875 0 
z
" id="DejaVuSans-108"/>
      <path id="DejaVuSans-32"/>
      <path d="M 30.609375 48.390625 
Q 23.390625 48.390625 19.1875 42.75 
Q 14.984375 37.109375 14.984375 27.296875 
Q 14.984375 17.484375 19.15625 11.84375 
Q 23.34375 6.203125 30.609375 6.203125 
Q 37.796875 6.203125 41.984375 11.859375 
Q 46.1875 17.53125 46.1875 27.296875 
Q 46.1875 37.015625 41.984375 42.703125 
Q 37.796875 48.390625 30.609375 48.390625 
z
M 30.609375 56 
Q 42.328125 56 49.015625 48.375 
Q 55.71875 40.765625 55.71875 27.296875 
Q 55.71875 13.875 49.015625 6.21875 
Q 42.328125 -1.421875 30.609375 -1.421875 
Q 18.84375 -1.421875 12.171875 6.21875 
Q 5.515625 13.875 5.515625 27.296875 
Q 5.515625 40.765625 12.171875 48.375 
Q 18.84375 56 30.609375 56 
z
" id="DejaVuSans-111"/>
      <path d="M 45.40625 27.984375 
Q 45.40625 37.75 41.375 43.109375 
Q 37.359375 48.484375 30.078125 48.484375 
Q 22.859375 48.484375 18.828125 43.109375 
Q 14.796875 37.75 14.796875 27.984375 
Q 14.796875 18.265625 18.828125 12.890625 
Q 22.859375 7.515625 30.078125 7.515625 
Q 37.359375 7.515625 41.375 12.890625 
Q 45.40625 18.265625 45.40625 27.984375 
z
M 54.390625 6.78125 
Q 54.390625 -7.171875 48.1875 -13.984375 
Q 42 -20.796875 29.203125 -20.796875 
Q 24.46875 -20.796875 20.265625 -20.09375 
Q 16.0625 -19.390625 12.109375 -17.921875 
L 12.109375 -9.1875 
Q 16.0625 -11.328125 19.921875 -12.34375 
Q 23.78125 -13.375 27.78125 -13.375 
Q 36.625 -13.375 41.015625 -8.765625 
Q 45.40625 -4.15625 45.40625 5.171875 
L 45.40625 9.625 
Q 42.625 4.78125 38.28125 2.390625 
Q 33.9375 0 27.875 0 
Q 17.828125 0 11.671875 7.65625 
Q 5.515625 15.328125 5.515625 27.984375 
Q 5.515625 40.671875 11.671875 48.328125 
Q 17.828125 56 27.875 56 
Q 33.9375 56 38.28125 53.609375 
Q 42.625 51.21875 45.40625 46.390625 
L 45.40625 54.6875 
L 54.390625 54.6875 
z
" id="DejaVuSans-103"/>
      <path d="M 31 75.875 
Q 24.46875 64.65625 21.28125 53.65625 
Q 18.109375 42.671875 18.109375 31.390625 
Q 18.109375 20.125 21.3125 9.0625 
Q 24.515625 -2 31 -13.1875 
L 23.1875 -13.1875 
Q 15.875 -1.703125 12.234375 9.375 
Q 8.59375 20.453125 8.59375 31.390625 
Q 8.59375 42.28125 12.203125 53.3125 
Q 15.828125 64.359375 23.1875 75.875 
z
" id="DejaVuSans-40"/>
      <path d="M 46 62.703125 
L 46 35.5 
L 73.1875 35.5 
L 73.1875 27.203125 
L 46 27.203125 
L 46 0 
L 37.796875 0 
L 37.796875 27.203125 
L 10.59375 27.203125 
L 10.59375 35.5 
L 37.796875 35.5 
L 37.796875 62.703125 
z
" id="DejaVuSans-43"/>
      <path d="M 9.421875 54.6875 
L 18.40625 54.6875 
L 18.40625 0 
L 9.421875 0 
z
M 9.421875 75.984375 
L 18.40625 75.984375 
L 18.40625 64.59375 
L 9.421875 64.59375 
z
" id="DejaVuSans-105"/>
      <path d="M 47.015625 60.890625 
L 29.5 51.421875 
L 47.015625 41.890625 
L 44.1875 37.109375 
L 27.78125 47.015625 
L 27.78125 28.609375 
L 22.21875 28.609375 
L 22.21875 47.015625 
L 5.8125 37.109375 
L 2.984375 41.890625 
L 20.515625 51.421875 
L 2.984375 60.890625 
L 5.8125 65.71875 
L 22.21875 55.8125 
L 22.21875 74.21875 
L 27.78125 74.21875 
L 27.78125 55.8125 
L 44.1875 65.71875 
z
" id="DejaVuSans-42"/>
      <path d="M 8.015625 75.875 
L 15.828125 75.875 
Q 23.140625 64.359375 26.78125 53.3125 
Q 30.421875 42.28125 30.421875 31.390625 
Q 30.421875 20.453125 26.78125 9.375 
Q 23.140625 -1.703125 15.828125 -13.1875 
L 8.015625 -13.1875 
Q 14.5 -2 17.703125 9.0625 
Q 20.90625 20.125 20.90625 31.390625 
Q 20.90625 42.671875 17.703125 53.65625 
Q 14.5 64.65625 8.015625 75.875 
z
" id="DejaVuSans-41"/>
     </defs>
     <g transform="translate(232.577312 257.699062)scale(0.14 -0.14)">
      <use xlink:href="#DejaVuSans-114"/>
      <use x="41.082031" xlink:href="#DejaVuSans-101"/>
      <use x="102.605469" xlink:href="#DejaVuSans-97"/>
      <use x="163.884766" xlink:href="#DejaVuSans-108"/>
      <use x="191.667969" xlink:href="#DejaVuSans-32"/>
      <use x="223.455078" xlink:href="#DejaVuSans-108"/>
      <use x="251.238281" xlink:href="#DejaVuSans-111"/>
      <use x="312.419922" xlink:href="#DejaVuSans-103"/>
      <use x="375.896484" xlink:href="#DejaVuSans-32"/>
      <use x="407.683594" xlink:href="#DejaVuSans-40"/>
      <use x="446.697266" xlink:href="#DejaVuSans-49"/>
      <use x="510.320312" xlink:href="#DejaVuSans-43"/>
      <use x="594.109375" xlink:href="#DejaVuSans-105"/>
      <use x="621.892578" xlink:href="#DejaVuSans-42"/>
      <use x="671.892578" xlink:href="#DejaVuSans-121"/>
      <use x="731.072266" xlink:href="#DejaVuSans-41"/>
     </g>
    </g>
    <g id="line2d_28">
     <path d="M 193.377312 273.348437 
L 221.377312 273.348437 
" style="fill:none;stroke:#ff7f0e;stroke-linecap:square;stroke-width:1.5;"/>
    </g>
    <g id="line2d_29"/>
    <g id="text_17">
     <!-- imag log (1+i*y) -->
     <defs>
      <path d="M 52 44.1875 
Q 55.375 50.25 60.0625 53.125 
Q 64.75 56 71.09375 56 
Q 79.640625 56 84.28125 50.015625 
Q 88.921875 44.046875 88.921875 33.015625 
L 88.921875 0 
L 79.890625 0 
L 79.890625 32.71875 
Q 79.890625 40.578125 77.09375 44.375 
Q 74.3125 48.1875 68.609375 48.1875 
Q 61.625 48.1875 57.5625 43.546875 
Q 53.515625 38.921875 53.515625 30.90625 
L 53.515625 0 
L 44.484375 0 
L 44.484375 32.71875 
Q 44.484375 40.625 41.703125 44.40625 
Q 38.921875 48.1875 33.109375 48.1875 
Q 26.21875 48.1875 22.15625 43.53125 
Q 18.109375 38.875 18.109375 30.90625 
L 18.109375 0 
L 9.078125 0 
L 9.078125 54.6875 
L 18.109375 54.6875 
L 18.109375 46.1875 
Q 21.1875 51.21875 25.484375 53.609375 
Q 29.78125 56 35.6875 56 
Q 41.65625 56 45.828125 52.96875 
Q 50 49.953125 52 44.1875 
z
" id="DejaVuSans-109"/>
     </defs>
     <g transform="translate(232.577312 278.248437)scale(0.14 -0.14)">
      <use xlink:href="#DejaVuSans-105"/>
      <use x="27.783203" xlink:href="#DejaVuSans-109"/>
      <use x="125.195312" xlink:href="#DejaVuSans-97"/>
      <use x="186.474609" xlink:href="#DejaVuSans-103"/>
      <use x="249.951172" xlink:href="#DejaVuSans-32"/>
      <use x="281.738281" xlink:href="#DejaVuSans-108"/>
      <use x="309.521484" xlink:href="#DejaVuSans-111"/>
      <use x="370.703125" xlink:href="#DejaVuSans-103"/>
      <use x="434.179688" xlink:href="#DejaVuSans-32"/>
      <use x="465.966797" xlink:href="#DejaVuSans-40"/>
      <use x="504.980469" xlink:href="#DejaVuSans-49"/>
      <use x="568.603516" xlink:href="#DejaVuSans-43"/>
      <use x="652.392578" xlink:href="#DejaVuSans-105"/>
      <use x="680.175781" xlink:href="#DejaVuSans-42"/>
      <use x="730.175781" xlink:href="#DejaVuSans-121"/>
      <use x="789.355469" xlink:href="#DejaVuSans-41"/>
     </g>
    </g>
   </g>
  </g>
 </g>
 <defs>
  <clipPath id="p4f03cf6fc6">
   <rect height="252.288" width="252.288" x="108.864" y="41.472"/>
  </clipPath>
 </defs>
</svg>
